<?xml version="1.0" encoding="utf-8"?>
<svg xmlns="http://www.w3.org/2000/svg" xmlns:xlink="http://www.w3.org/1999/xlink" width="672" height="480" viewBox="0 0 2688 1920">
<defs>
  <clipPath id="clip540">
    <rect x="0" y="0" width="2688" height="1920"/>
  </clipPath>
</defs>
<path clip-path="url(#clip540)" d="M0 1920 L2688 1920 L2688 -4.26326e-14 L0 -4.26326e-14  Z" fill="#ffffff" fill-rule="evenodd" fill-opacity="1"/>
<defs>
  <clipPath id="clip541">
    <rect x="537" y="0" width="1883" height="1883"/>
  </clipPath>
</defs>
<path clip-path="url(#clip540)" d="M227.923 1800.78 L2640.76 1800.78 L2640.76 127.792 L227.923 127.792  Z" fill="#ffffff" fill-rule="evenodd" fill-opacity="1"/>
<defs>
  <clipPath id="clip542">
    <rect x="227" y="127" width="2414" height="1674"/>
  </clipPath>
</defs>
<polyline clip-path="url(#clip542)" style="stroke:#000000; stroke-linecap:round; stroke-linejoin:round; stroke-width:2; stroke-opacity:0.1; fill:none" points="296.21,1800.78 296.21,127.792 "/>
<polyline clip-path="url(#clip542)" style="stroke:#000000; stroke-linecap:round; stroke-linejoin:round; stroke-width:2; stroke-opacity:0.1; fill:none" points="751.462,1800.78 751.462,127.792 "/>
<polyline clip-path="url(#clip542)" style="stroke:#000000; stroke-linecap:round; stroke-linejoin:round; stroke-width:2; stroke-opacity:0.1; fill:none" points="1206.71,1800.78 1206.71,127.792 "/>
<polyline clip-path="url(#clip542)" style="stroke:#000000; stroke-linecap:round; stroke-linejoin:round; stroke-width:2; stroke-opacity:0.1; fill:none" points="1661.97,1800.78 1661.97,127.792 "/>
<polyline clip-path="url(#clip542)" style="stroke:#000000; stroke-linecap:round; stroke-linejoin:round; stroke-width:2; stroke-opacity:0.1; fill:none" points="2117.22,1800.78 2117.22,127.792 "/>
<polyline clip-path="url(#clip542)" style="stroke:#000000; stroke-linecap:round; stroke-linejoin:round; stroke-width:2; stroke-opacity:0.1; fill:none" points="2572.47,1800.78 2572.47,127.792 "/>
<polyline clip-path="url(#clip540)" style="stroke:#000000; stroke-linecap:round; stroke-linejoin:round; stroke-width:4; stroke-opacity:1; fill:none" points="227.923,1800.78 2640.76,1800.78 "/>
<polyline clip-path="url(#clip540)" style="stroke:#000000; stroke-linecap:round; stroke-linejoin:round; stroke-width:4; stroke-opacity:1; fill:none" points="296.21,1800.78 296.21,1781.88 "/>
<polyline clip-path="url(#clip540)" style="stroke:#000000; stroke-linecap:round; stroke-linejoin:round; stroke-width:4; stroke-opacity:1; fill:none" points="751.462,1800.78 751.462,1781.88 "/>
<polyline clip-path="url(#clip540)" style="stroke:#000000; stroke-linecap:round; stroke-linejoin:round; stroke-width:4; stroke-opacity:1; fill:none" points="1206.71,1800.78 1206.71,1781.88 "/>
<polyline clip-path="url(#clip540)" style="stroke:#000000; stroke-linecap:round; stroke-linejoin:round; stroke-width:4; stroke-opacity:1; fill:none" points="1661.97,1800.78 1661.97,1781.88 "/>
<polyline clip-path="url(#clip540)" style="stroke:#000000; stroke-linecap:round; stroke-linejoin:round; stroke-width:4; stroke-opacity:1; fill:none" points="2117.22,1800.78 2117.22,1781.88 "/>
<polyline clip-path="url(#clip540)" style="stroke:#000000; stroke-linecap:round; stroke-linejoin:round; stroke-width:4; stroke-opacity:1; fill:none" points="2572.47,1800.78 2572.47,1781.88 "/>
<path clip-path="url(#clip540)" d="M296.21 1834 Q292.599 1834 290.771 1837.57 Q288.965 1841.11 288.965 1848.24 Q288.965 1855.34 290.771 1858.91 Q292.599 1862.45 296.21 1862.45 Q299.845 1862.45 301.65 1858.91 Q303.479 1855.34 303.479 1848.24 Q303.479 1841.11 301.65 1837.57 Q299.845 1834 296.21 1834 M296.21 1830.3 Q302.02 1830.3 305.076 1834.9 Q308.155 1839.49 308.155 1848.24 Q308.155 1856.96 305.076 1861.57 Q302.02 1866.15 296.21 1866.15 Q290.4 1866.15 287.321 1861.57 Q284.266 1856.96 284.266 1848.24 Q284.266 1839.49 287.321 1834.9 Q290.4 1830.3 296.21 1830.3 Z" fill="#000000" fill-rule="nonzero" fill-opacity="1" /><path clip-path="url(#clip540)" d="M741.844 1861.55 L749.483 1861.55 L749.483 1835.18 L741.173 1836.85 L741.173 1832.59 L749.436 1830.92 L754.112 1830.92 L754.112 1861.55 L761.751 1861.55 L761.751 1865.48 L741.844 1865.48 L741.844 1861.55 Z" fill="#000000" fill-rule="nonzero" fill-opacity="1" /><path clip-path="url(#clip540)" d="M1201.37 1861.55 L1217.69 1861.55 L1217.69 1865.48 L1195.74 1865.48 L1195.74 1861.55 Q1198.4 1858.79 1202.99 1854.16 Q1207.59 1849.51 1208.77 1848.17 Q1211.02 1845.65 1211.9 1843.91 Q1212.8 1842.15 1212.8 1840.46 Q1212.8 1837.71 1210.86 1835.97 Q1208.94 1834.23 1205.83 1834.23 Q1203.63 1834.23 1201.18 1835 Q1198.75 1835.76 1195.97 1837.31 L1195.97 1832.59 Q1198.8 1831.46 1201.25 1830.88 Q1203.7 1830.3 1205.74 1830.3 Q1211.11 1830.3 1214.31 1832.98 Q1217.5 1835.67 1217.5 1840.16 Q1217.5 1842.29 1216.69 1844.21 Q1215.9 1846.11 1213.8 1848.7 Q1213.22 1849.37 1210.12 1852.59 Q1207.01 1855.78 1201.37 1861.55 Z" fill="#000000" fill-rule="nonzero" fill-opacity="1" /><path clip-path="url(#clip540)" d="M1666.21 1846.85 Q1669.57 1847.57 1671.44 1849.84 Q1673.34 1852.1 1673.34 1855.44 Q1673.34 1860.55 1669.82 1863.35 Q1666.31 1866.15 1659.82 1866.15 Q1657.65 1866.15 1655.33 1865.71 Q1653.04 1865.3 1650.59 1864.44 L1650.59 1859.93 Q1652.53 1861.06 1654.85 1861.64 Q1657.16 1862.22 1659.68 1862.22 Q1664.08 1862.22 1666.37 1860.48 Q1668.69 1858.75 1668.69 1855.44 Q1668.69 1852.38 1666.54 1850.67 Q1664.41 1848.93 1660.59 1848.93 L1656.56 1848.93 L1656.56 1845.09 L1660.77 1845.09 Q1664.22 1845.09 1666.05 1843.72 Q1667.88 1842.34 1667.88 1839.74 Q1667.88 1837.08 1665.98 1835.67 Q1664.11 1834.23 1660.59 1834.23 Q1658.67 1834.23 1656.47 1834.65 Q1654.27 1835.07 1651.63 1835.95 L1651.63 1831.78 Q1654.29 1831.04 1656.61 1830.67 Q1658.94 1830.3 1661 1830.3 Q1666.33 1830.3 1669.43 1832.73 Q1672.53 1835.14 1672.53 1839.26 Q1672.53 1842.13 1670.89 1844.12 Q1669.25 1846.09 1666.21 1846.85 Z" fill="#000000" fill-rule="nonzero" fill-opacity="1" /><path clip-path="url(#clip540)" d="M2120.23 1835 L2108.42 1853.45 L2120.23 1853.45 L2120.23 1835 M2119 1830.92 L2124.88 1830.92 L2124.88 1853.45 L2129.81 1853.45 L2129.81 1857.34 L2124.88 1857.34 L2124.88 1865.48 L2120.23 1865.48 L2120.23 1857.34 L2104.62 1857.34 L2104.62 1852.82 L2119 1830.92 Z" fill="#000000" fill-rule="nonzero" fill-opacity="1" /><path clip-path="url(#clip540)" d="M2562.75 1830.92 L2581.1 1830.92 L2581.1 1834.86 L2567.03 1834.86 L2567.03 1843.33 Q2568.05 1842.98 2569.07 1842.82 Q2570.08 1842.64 2571.1 1842.64 Q2576.89 1842.64 2580.27 1845.81 Q2583.65 1848.98 2583.65 1854.4 Q2583.65 1859.97 2580.18 1863.08 Q2576.7 1866.15 2570.38 1866.15 Q2568.21 1866.15 2565.94 1865.78 Q2563.7 1865.41 2561.29 1864.67 L2561.29 1859.97 Q2563.37 1861.11 2565.59 1861.66 Q2567.82 1862.22 2570.29 1862.22 Q2574.3 1862.22 2576.63 1860.11 Q2578.97 1858.01 2578.97 1854.4 Q2578.97 1850.78 2576.63 1848.68 Q2574.3 1846.57 2570.29 1846.57 Q2568.42 1846.57 2566.54 1846.99 Q2564.69 1847.4 2562.75 1848.28 L2562.75 1830.92 Z" fill="#000000" fill-rule="nonzero" fill-opacity="1" /><polyline clip-path="url(#clip542)" style="stroke:#000000; stroke-linecap:round; stroke-linejoin:round; stroke-width:2; stroke-opacity:0.1; fill:none" points="227.923,1364.02 2640.76,1364.02 "/>
<polyline clip-path="url(#clip542)" style="stroke:#000000; stroke-linecap:round; stroke-linejoin:round; stroke-width:2; stroke-opacity:0.1; fill:none" points="227.923,905.089 2640.76,905.089 "/>
<polyline clip-path="url(#clip542)" style="stroke:#000000; stroke-linecap:round; stroke-linejoin:round; stroke-width:2; stroke-opacity:0.1; fill:none" points="227.923,446.154 2640.76,446.154 "/>
<polyline clip-path="url(#clip540)" style="stroke:#000000; stroke-linecap:round; stroke-linejoin:round; stroke-width:4; stroke-opacity:1; fill:none" points="227.923,1800.78 227.923,127.792 "/>
<polyline clip-path="url(#clip540)" style="stroke:#000000; stroke-linecap:round; stroke-linejoin:round; stroke-width:4; stroke-opacity:1; fill:none" points="227.923,1364.02 246.82,1364.02 "/>
<polyline clip-path="url(#clip540)" style="stroke:#000000; stroke-linecap:round; stroke-linejoin:round; stroke-width:4; stroke-opacity:1; fill:none" points="227.923,905.089 246.82,905.089 "/>
<polyline clip-path="url(#clip540)" style="stroke:#000000; stroke-linecap:round; stroke-linejoin:round; stroke-width:4; stroke-opacity:1; fill:none" points="227.923,446.154 246.82,446.154 "/>
<path clip-path="url(#clip540)" d="M50.2234 1383.82 L57.8623 1383.82 L57.8623 1357.45 L49.5521 1359.12 L49.5521 1354.86 L57.816 1353.19 L62.4919 1353.19 L62.4919 1383.82 L70.1307 1383.82 L70.1307 1387.75 L50.2234 1387.75 L50.2234 1383.82 Z" fill="#000000" fill-rule="nonzero" fill-opacity="1" /><path clip-path="url(#clip540)" d="M89.5751 1356.27 Q85.964 1356.27 84.1353 1359.83 Q82.3297 1363.38 82.3297 1370.51 Q82.3297 1377.61 84.1353 1381.18 Q85.964 1384.72 89.5751 1384.72 Q93.2093 1384.72 95.0148 1381.18 Q96.8435 1377.61 96.8435 1370.51 Q96.8435 1363.38 95.0148 1359.83 Q93.2093 1356.27 89.5751 1356.27 M89.5751 1352.57 Q95.3852 1352.57 98.4408 1357.17 Q101.519 1361.76 101.519 1370.51 Q101.519 1379.23 98.4408 1383.84 Q95.3852 1388.42 89.5751 1388.42 Q83.7649 1388.42 80.6862 1383.84 Q77.6307 1379.23 77.6307 1370.51 Q77.6307 1361.76 80.6862 1357.17 Q83.7649 1352.57 89.5751 1352.57 Z" fill="#000000" fill-rule="nonzero" fill-opacity="1" /><path clip-path="url(#clip540)" d="M101.519 1346.67 L125.631 1346.67 L125.631 1349.86 L101.519 1349.86 L101.519 1346.67 Z" fill="#000000" fill-rule="nonzero" fill-opacity="1" /><path clip-path="url(#clip540)" d="M141.956 1334.76 Q139.022 1334.76 137.536 1337.66 Q136.069 1340.54 136.069 1346.33 Q136.069 1352.1 137.536 1355 Q139.022 1357.88 141.956 1357.88 Q144.909 1357.88 146.376 1355 Q147.862 1352.1 147.862 1346.33 Q147.862 1340.54 146.376 1337.66 Q144.909 1334.76 141.956 1334.76 M141.956 1331.75 Q146.677 1331.75 149.16 1335.5 Q151.661 1339.22 151.661 1346.33 Q151.661 1353.42 149.16 1357.16 Q146.677 1360.89 141.956 1360.89 Q137.235 1360.89 134.734 1357.16 Q132.251 1353.42 132.251 1346.33 Q132.251 1339.22 134.734 1335.5 Q137.235 1331.75 141.956 1331.75 Z" fill="#000000" fill-rule="nonzero" fill-opacity="1" /><path clip-path="url(#clip540)" d="M158.338 1355.56 L162.306 1355.56 L162.306 1360.34 L158.338 1360.34 L158.338 1355.56 Z" fill="#000000" fill-rule="nonzero" fill-opacity="1" /><path clip-path="url(#clip540)" d="M170.619 1332.26 L185.534 1332.26 L185.534 1335.46 L174.099 1335.46 L174.099 1342.34 Q174.926 1342.06 175.754 1341.93 Q176.581 1341.78 177.409 1341.78 Q182.111 1341.78 184.857 1344.35 Q187.603 1346.93 187.603 1351.33 Q187.603 1355.86 184.781 1358.38 Q181.96 1360.89 176.826 1360.89 Q175.058 1360.89 173.215 1360.58 Q171.39 1360.28 169.434 1359.68 L169.434 1355.86 Q171.127 1356.79 172.933 1357.24 Q174.738 1357.69 176.751 1357.69 Q180.004 1357.69 181.904 1355.98 Q183.803 1354.27 183.803 1351.33 Q183.803 1348.4 181.904 1346.69 Q180.004 1344.97 176.751 1344.97 Q175.227 1344.97 173.704 1345.31 Q172.199 1345.65 170.619 1346.37 L170.619 1332.26 Z" fill="#000000" fill-rule="nonzero" fill-opacity="1" /><path clip-path="url(#clip540)" d="M80.1466 924.881 L87.7854 924.881 L87.7854 898.515 L79.4753 900.182 L79.4753 895.923 L87.7391 894.256 L92.415 894.256 L92.415 924.881 L100.054 924.881 L100.054 928.816 L80.1466 928.816 L80.1466 924.881 Z" fill="#000000" fill-rule="nonzero" fill-opacity="1" /><path clip-path="url(#clip540)" d="M119.498 897.335 Q115.887 897.335 114.058 900.9 Q112.253 904.441 112.253 911.571 Q112.253 918.677 114.058 922.242 Q115.887 925.784 119.498 925.784 Q123.132 925.784 124.938 922.242 Q126.767 918.677 126.767 911.571 Q126.767 904.441 124.938 900.9 Q123.132 897.335 119.498 897.335 M119.498 893.631 Q125.308 893.631 128.364 898.238 Q131.443 902.821 131.443 911.571 Q131.443 920.298 128.364 924.904 Q125.308 929.487 119.498 929.487 Q113.688 929.487 110.609 924.904 Q107.554 920.298 107.554 911.571 Q107.554 902.821 110.609 898.238 Q113.688 893.631 119.498 893.631 Z" fill="#000000" fill-rule="nonzero" fill-opacity="1" /><path clip-path="url(#clip540)" d="M141.147 875.827 Q138.213 875.827 136.728 878.724 Q135.261 881.601 135.261 887.394 Q135.261 893.168 136.728 896.064 Q138.213 898.942 141.147 898.942 Q144.1 898.942 145.567 896.064 Q147.053 893.168 147.053 887.394 Q147.053 881.601 145.567 878.724 Q144.1 875.827 141.147 875.827 M141.147 872.818 Q145.868 872.818 148.351 876.561 Q150.852 880.285 150.852 887.394 Q150.852 894.484 148.351 898.227 Q145.868 901.951 141.147 901.951 Q136.427 901.951 133.925 898.227 Q131.443 894.484 131.443 887.394 Q131.443 880.285 133.925 876.561 Q136.427 872.818 141.147 872.818 Z" fill="#000000" fill-rule="nonzero" fill-opacity="1" /><path clip-path="url(#clip540)" d="M157.529 896.629 L161.497 896.629 L161.497 901.406 L157.529 901.406 L157.529 896.629 Z" fill="#000000" fill-rule="nonzero" fill-opacity="1" /><path clip-path="url(#clip540)" d="M177.898 875.827 Q174.964 875.827 173.478 878.724 Q172.011 881.601 172.011 887.394 Q172.011 893.168 173.478 896.064 Q174.964 898.942 177.898 898.942 Q180.851 898.942 182.318 896.064 Q183.803 893.168 183.803 887.394 Q183.803 881.601 182.318 878.724 Q180.851 875.827 177.898 875.827 M177.898 872.818 Q182.619 872.818 185.101 876.561 Q187.603 880.285 187.603 887.394 Q187.603 894.484 185.101 898.227 Q182.619 901.951 177.898 901.951 Q173.177 901.951 170.676 898.227 Q168.193 894.484 168.193 887.394 Q168.193 880.285 170.676 876.561 Q173.177 872.818 177.898 872.818 Z" fill="#000000" fill-rule="nonzero" fill-opacity="1" /><path clip-path="url(#clip540)" d="M80.9553 465.947 L88.5942 465.947 L88.5942 439.581 L80.284 441.248 L80.284 436.988 L88.5479 435.322 L93.2238 435.322 L93.2238 465.947 L100.863 465.947 L100.863 469.882 L80.9553 469.882 L80.9553 465.947 Z" fill="#000000" fill-rule="nonzero" fill-opacity="1" /><path clip-path="url(#clip540)" d="M120.307 438.4 Q116.696 438.4 114.867 441.965 Q113.062 445.507 113.062 452.636 Q113.062 459.743 114.867 463.308 Q116.696 466.849 120.307 466.849 Q123.941 466.849 125.747 463.308 Q127.575 459.743 127.575 452.636 Q127.575 445.507 125.747 441.965 Q123.941 438.4 120.307 438.4 M120.307 434.697 Q126.117 434.697 129.173 439.303 Q132.251 443.887 132.251 452.636 Q132.251 461.363 129.173 465.97 Q126.117 470.553 120.307 470.553 Q114.497 470.553 111.418 465.97 Q108.363 461.363 108.363 452.636 Q108.363 443.887 111.418 439.303 Q114.497 434.697 120.307 434.697 Z" fill="#000000" fill-rule="nonzero" fill-opacity="1" /><path clip-path="url(#clip540)" d="M141.956 416.893 Q139.022 416.893 137.536 419.789 Q136.069 422.667 136.069 428.46 Q136.069 434.234 137.536 437.13 Q139.022 440.008 141.956 440.008 Q144.909 440.008 146.376 437.13 Q147.862 434.234 147.862 428.46 Q147.862 422.667 146.376 419.789 Q144.909 416.893 141.956 416.893 M141.956 413.884 Q146.677 413.884 149.16 417.626 Q151.661 421.35 151.661 428.46 Q151.661 435.55 149.16 439.293 Q146.677 443.017 141.956 443.017 Q137.235 443.017 134.734 439.293 Q132.251 435.55 132.251 428.46 Q132.251 421.35 134.734 417.626 Q137.235 413.884 141.956 413.884 Z" fill="#000000" fill-rule="nonzero" fill-opacity="1" /><path clip-path="url(#clip540)" d="M158.338 437.694 L162.306 437.694 L162.306 442.471 L158.338 442.471 L158.338 437.694 Z" fill="#000000" fill-rule="nonzero" fill-opacity="1" /><path clip-path="url(#clip540)" d="M170.619 414.391 L185.534 414.391 L185.534 417.589 L174.099 417.589 L174.099 424.472 Q174.926 424.19 175.754 424.059 Q176.581 423.908 177.409 423.908 Q182.111 423.908 184.857 426.485 Q187.603 429.061 187.603 433.462 Q187.603 437.995 184.781 440.515 Q181.96 443.017 176.826 443.017 Q175.058 443.017 173.215 442.716 Q171.39 442.415 169.434 441.813 L169.434 437.995 Q171.127 438.917 172.933 439.368 Q174.738 439.819 176.751 439.819 Q180.004 439.819 181.904 438.108 Q183.803 436.396 183.803 433.462 Q183.803 430.528 181.904 428.817 Q180.004 427.105 176.751 427.105 Q175.227 427.105 173.704 427.444 Q172.199 427.782 170.619 428.497 L170.619 414.391 Z" fill="#000000" fill-rule="nonzero" fill-opacity="1" /><path clip-path="url(#clip540)" d="M1334.36 27.2059 L1341.82 27.2059 L1341.82 72.576 L1334.36 72.576 L1334.36 27.2059 M1334.36 9.54393 L1341.82 9.54393 L1341.82 18.9825 L1334.36 18.9825 L1334.36 9.54393 Z" fill="#000000" fill-rule="nonzero" fill-opacity="1" /><path clip-path="url(#clip540)" d="M1364.79 14.324 L1364.79 27.2059 L1380.14 27.2059 L1380.14 32.9987 L1364.79 32.9987 L1364.79 57.6282 Q1364.79 63.1779 1366.28 64.7578 Q1367.82 66.3376 1372.48 66.3376 L1380.14 66.3376 L1380.14 72.576 L1372.48 72.576 Q1363.85 72.576 1360.57 69.3758 Q1357.29 66.1351 1357.29 57.6282 L1357.29 32.9987 L1351.82 32.9987 L1351.82 27.2059 L1357.29 27.2059 L1357.29 14.324 L1364.79 14.324 Z" fill="#000000" fill-rule="nonzero" fill-opacity="1" /><path clip-path="url(#clip540)" d="M1390.99 62.2867 L1399.54 62.2867 L1399.54 72.576 L1390.99 72.576 L1390.99 62.2867 Z" fill="#000000" fill-rule="nonzero" fill-opacity="1" /><path clip-path="url(#clip540)" d="M1444.59 62.2867 L1453.14 62.2867 L1453.14 72.576 L1444.59 72.576 L1444.59 62.2867 M1444.59 29.6769 L1453.14 29.6769 L1453.14 39.9662 L1444.59 39.9662 L1444.59 29.6769 Z" fill="#000000" fill-rule="nonzero" fill-opacity="1" /><path clip-path="url(#clip540)" d="M1499.48 65.6895 L1512.85 65.6895 L1512.85 19.5497 L1498.3 22.4663 L1498.3 15.0127 L1512.76 12.096 L1520.95 12.096 L1520.95 65.6895 L1534.32 65.6895 L1534.32 72.576 L1499.48 72.576 L1499.48 65.6895 Z" fill="#000000" fill-rule="nonzero" fill-opacity="1" /><circle clip-path="url(#clip542)" cx="296.21" cy="656.516" r="14.4" fill="#009af9" fill-rule="evenodd" fill-opacity="1" stroke="#000000" stroke-opacity="1" stroke-width="3.84"/>
<circle clip-path="url(#clip542)" cx="341.735" cy="573.382" r="14.4" fill="#009af9" fill-rule="evenodd" fill-opacity="1" stroke="#000000" stroke-opacity="1" stroke-width="3.84"/>
<circle clip-path="url(#clip542)" cx="387.261" cy="659.159" r="14.4" fill="#009af9" fill-rule="evenodd" fill-opacity="1" stroke="#000000" stroke-opacity="1" stroke-width="3.84"/>
<circle clip-path="url(#clip542)" cx="432.786" cy="856.978" r="14.4" fill="#009af9" fill-rule="evenodd" fill-opacity="1" stroke="#000000" stroke-opacity="1" stroke-width="3.84"/>
<circle clip-path="url(#clip542)" cx="478.311" cy="581.903" r="14.4" fill="#009af9" fill-rule="evenodd" fill-opacity="1" stroke="#000000" stroke-opacity="1" stroke-width="3.84"/>
<circle clip-path="url(#clip542)" cx="523.836" cy="669.924" r="14.4" fill="#009af9" fill-rule="evenodd" fill-opacity="1" stroke="#000000" stroke-opacity="1" stroke-width="3.84"/>
<circle clip-path="url(#clip542)" cx="569.361" cy="483.03" r="14.4" fill="#009af9" fill-rule="evenodd" fill-opacity="1" stroke="#000000" stroke-opacity="1" stroke-width="3.84"/>
<circle clip-path="url(#clip542)" cx="614.886" cy="654.663" r="14.4" fill="#009af9" fill-rule="evenodd" fill-opacity="1" stroke="#000000" stroke-opacity="1" stroke-width="3.84"/>
<circle clip-path="url(#clip542)" cx="660.412" cy="558.929" r="14.4" fill="#009af9" fill-rule="evenodd" fill-opacity="1" stroke="#000000" stroke-opacity="1" stroke-width="3.84"/>
<circle clip-path="url(#clip542)" cx="705.937" cy="703.665" r="14.4" fill="#009af9" fill-rule="evenodd" fill-opacity="1" stroke="#000000" stroke-opacity="1" stroke-width="3.84"/>
<circle clip-path="url(#clip542)" cx="751.462" cy="653.796" r="14.4" fill="#009af9" fill-rule="evenodd" fill-opacity="1" stroke="#000000" stroke-opacity="1" stroke-width="3.84"/>
<circle clip-path="url(#clip542)" cx="796.987" cy="382.512" r="14.4" fill="#009af9" fill-rule="evenodd" fill-opacity="1" stroke="#000000" stroke-opacity="1" stroke-width="3.84"/>
<circle clip-path="url(#clip542)" cx="842.512" cy="427.402" r="14.4" fill="#009af9" fill-rule="evenodd" fill-opacity="1" stroke="#000000" stroke-opacity="1" stroke-width="3.84"/>
<circle clip-path="url(#clip542)" cx="888.037" cy="410.514" r="14.4" fill="#009af9" fill-rule="evenodd" fill-opacity="1" stroke="#000000" stroke-opacity="1" stroke-width="3.84"/>
<circle clip-path="url(#clip542)" cx="933.563" cy="178.062" r="14.4" fill="#009af9" fill-rule="evenodd" fill-opacity="1" stroke="#000000" stroke-opacity="1" stroke-width="3.84"/>
<circle clip-path="url(#clip542)" cx="979.088" cy="175.141" r="14.4" fill="#009af9" fill-rule="evenodd" fill-opacity="1" stroke="#000000" stroke-opacity="1" stroke-width="3.84"/>
<circle clip-path="url(#clip542)" cx="1024.61" cy="325.198" r="14.4" fill="#009af9" fill-rule="evenodd" fill-opacity="1" stroke="#000000" stroke-opacity="1" stroke-width="3.84"/>
<circle clip-path="url(#clip542)" cx="1070.14" cy="368.182" r="14.4" fill="#009af9" fill-rule="evenodd" fill-opacity="1" stroke="#000000" stroke-opacity="1" stroke-width="3.84"/>
<circle clip-path="url(#clip542)" cx="1115.66" cy="441.263" r="14.4" fill="#009af9" fill-rule="evenodd" fill-opacity="1" stroke="#000000" stroke-opacity="1" stroke-width="3.84"/>
<circle clip-path="url(#clip542)" cx="1161.19" cy="274.099" r="14.4" fill="#009af9" fill-rule="evenodd" fill-opacity="1" stroke="#000000" stroke-opacity="1" stroke-width="3.84"/>
<circle clip-path="url(#clip542)" cx="1206.71" cy="367.279" r="14.4" fill="#009af9" fill-rule="evenodd" fill-opacity="1" stroke="#000000" stroke-opacity="1" stroke-width="3.84"/>
<circle clip-path="url(#clip542)" cx="1252.24" cy="427.547" r="14.4" fill="#009af9" fill-rule="evenodd" fill-opacity="1" stroke="#000000" stroke-opacity="1" stroke-width="3.84"/>
<circle clip-path="url(#clip542)" cx="1297.76" cy="493.422" r="14.4" fill="#009af9" fill-rule="evenodd" fill-opacity="1" stroke="#000000" stroke-opacity="1" stroke-width="3.84"/>
<circle clip-path="url(#clip542)" cx="1343.29" cy="207.159" r="14.4" fill="#009af9" fill-rule="evenodd" fill-opacity="1" stroke="#000000" stroke-opacity="1" stroke-width="3.84"/>
<circle clip-path="url(#clip542)" cx="1388.81" cy="233.486" r="14.4" fill="#009af9" fill-rule="evenodd" fill-opacity="1" stroke="#000000" stroke-opacity="1" stroke-width="3.84"/>
<circle clip-path="url(#clip542)" cx="1434.34" cy="211.002" r="14.4" fill="#009af9" fill-rule="evenodd" fill-opacity="1" stroke="#000000" stroke-opacity="1" stroke-width="3.84"/>
<circle clip-path="url(#clip542)" cx="1479.86" cy="673.631" r="14.4" fill="#009af9" fill-rule="evenodd" fill-opacity="1" stroke="#000000" stroke-opacity="1" stroke-width="3.84"/>
<circle clip-path="url(#clip542)" cx="1525.39" cy="513.504" r="14.4" fill="#009af9" fill-rule="evenodd" fill-opacity="1" stroke="#000000" stroke-opacity="1" stroke-width="3.84"/>
<circle clip-path="url(#clip542)" cx="1570.91" cy="669.211" r="14.4" fill="#009af9" fill-rule="evenodd" fill-opacity="1" stroke="#000000" stroke-opacity="1" stroke-width="3.84"/>
<circle clip-path="url(#clip542)" cx="1616.44" cy="492.955" r="14.4" fill="#009af9" fill-rule="evenodd" fill-opacity="1" stroke="#000000" stroke-opacity="1" stroke-width="3.84"/>
<circle clip-path="url(#clip542)" cx="1661.97" cy="691.369" r="14.4" fill="#009af9" fill-rule="evenodd" fill-opacity="1" stroke="#000000" stroke-opacity="1" stroke-width="3.84"/>
<circle clip-path="url(#clip542)" cx="1707.49" cy="804.225" r="14.4" fill="#009af9" fill-rule="evenodd" fill-opacity="1" stroke="#000000" stroke-opacity="1" stroke-width="3.84"/>
<circle clip-path="url(#clip542)" cx="1753.02" cy="646.949" r="14.4" fill="#009af9" fill-rule="evenodd" fill-opacity="1" stroke="#000000" stroke-opacity="1" stroke-width="3.84"/>
<circle clip-path="url(#clip542)" cx="1798.54" cy="440.254" r="14.4" fill="#009af9" fill-rule="evenodd" fill-opacity="1" stroke="#000000" stroke-opacity="1" stroke-width="3.84"/>
<circle clip-path="url(#clip542)" cx="1844.07" cy="828.627" r="14.4" fill="#009af9" fill-rule="evenodd" fill-opacity="1" stroke="#000000" stroke-opacity="1" stroke-width="3.84"/>
<circle clip-path="url(#clip542)" cx="1889.59" cy="609.309" r="14.4" fill="#009af9" fill-rule="evenodd" fill-opacity="1" stroke="#000000" stroke-opacity="1" stroke-width="3.84"/>
<circle clip-path="url(#clip542)" cx="1935.12" cy="494.668" r="14.4" fill="#009af9" fill-rule="evenodd" fill-opacity="1" stroke="#000000" stroke-opacity="1" stroke-width="3.84"/>
<circle clip-path="url(#clip542)" cx="1980.64" cy="624.565" r="14.4" fill="#009af9" fill-rule="evenodd" fill-opacity="1" stroke="#000000" stroke-opacity="1" stroke-width="3.84"/>
<circle clip-path="url(#clip542)" cx="2026.17" cy="631.944" r="14.4" fill="#009af9" fill-rule="evenodd" fill-opacity="1" stroke="#000000" stroke-opacity="1" stroke-width="3.84"/>
<circle clip-path="url(#clip542)" cx="2071.69" cy="637.524" r="14.4" fill="#009af9" fill-rule="evenodd" fill-opacity="1" stroke="#000000" stroke-opacity="1" stroke-width="3.84"/>
<circle clip-path="url(#clip542)" cx="2117.22" cy="432.824" r="14.4" fill="#009af9" fill-rule="evenodd" fill-opacity="1" stroke="#000000" stroke-opacity="1" stroke-width="3.84"/>
<circle clip-path="url(#clip542)" cx="2162.74" cy="522.888" r="14.4" fill="#009af9" fill-rule="evenodd" fill-opacity="1" stroke="#000000" stroke-opacity="1" stroke-width="3.84"/>
<circle clip-path="url(#clip542)" cx="2208.27" cy="419.71" r="14.4" fill="#009af9" fill-rule="evenodd" fill-opacity="1" stroke="#000000" stroke-opacity="1" stroke-width="3.84"/>
<circle clip-path="url(#clip542)" cx="2253.79" cy="512.508" r="14.4" fill="#009af9" fill-rule="evenodd" fill-opacity="1" stroke="#000000" stroke-opacity="1" stroke-width="3.84"/>
<circle clip-path="url(#clip542)" cx="2299.32" cy="355.512" r="14.4" fill="#009af9" fill-rule="evenodd" fill-opacity="1" stroke="#000000" stroke-opacity="1" stroke-width="3.84"/>
<circle clip-path="url(#clip542)" cx="2344.84" cy="311.593" r="14.4" fill="#009af9" fill-rule="evenodd" fill-opacity="1" stroke="#000000" stroke-opacity="1" stroke-width="3.84"/>
<circle clip-path="url(#clip542)" cx="2390.37" cy="440.17" r="14.4" fill="#009af9" fill-rule="evenodd" fill-opacity="1" stroke="#000000" stroke-opacity="1" stroke-width="3.84"/>
<circle clip-path="url(#clip542)" cx="2435.89" cy="221.558" r="14.4" fill="#009af9" fill-rule="evenodd" fill-opacity="1" stroke="#000000" stroke-opacity="1" stroke-width="3.84"/>
<circle clip-path="url(#clip542)" cx="2481.42" cy="294.298" r="14.4" fill="#009af9" fill-rule="evenodd" fill-opacity="1" stroke="#000000" stroke-opacity="1" stroke-width="3.84"/>
<circle clip-path="url(#clip542)" cx="2526.94" cy="345.447" r="14.4" fill="#009af9" fill-rule="evenodd" fill-opacity="1" stroke="#000000" stroke-opacity="1" stroke-width="3.84"/>
<circle clip-path="url(#clip542)" cx="2572.47" cy="213.211" r="14.4" fill="#009af9" fill-rule="evenodd" fill-opacity="1" stroke="#000000" stroke-opacity="1" stroke-width="3.84"/>
<circle clip-path="url(#clip542)" cx="296.21" cy="516.323" r="14.4" fill="#e26f46" fill-rule="evenodd" fill-opacity="1" stroke="#000000" stroke-opacity="1" stroke-width="3.84"/>
<circle clip-path="url(#clip542)" cx="341.735" cy="431.434" r="14.4" fill="#e26f46" fill-rule="evenodd" fill-opacity="1" stroke="#000000" stroke-opacity="1" stroke-width="3.84"/>
<circle clip-path="url(#clip542)" cx="387.261" cy="574.062" r="14.4" fill="#e26f46" fill-rule="evenodd" fill-opacity="1" stroke="#000000" stroke-opacity="1" stroke-width="3.84"/>
<circle clip-path="url(#clip542)" cx="432.786" cy="1012.08" r="14.4" fill="#e26f46" fill-rule="evenodd" fill-opacity="1" stroke="#000000" stroke-opacity="1" stroke-width="3.84"/>
<circle clip-path="url(#clip542)" cx="478.311" cy="906.775" r="14.4" fill="#e26f46" fill-rule="evenodd" fill-opacity="1" stroke="#000000" stroke-opacity="1" stroke-width="3.84"/>
<circle clip-path="url(#clip542)" cx="523.836" cy="777.01" r="14.4" fill="#e26f46" fill-rule="evenodd" fill-opacity="1" stroke="#000000" stroke-opacity="1" stroke-width="3.84"/>
<circle clip-path="url(#clip542)" cx="569.361" cy="851.824" r="14.4" fill="#e26f46" fill-rule="evenodd" fill-opacity="1" stroke="#000000" stroke-opacity="1" stroke-width="3.84"/>
<circle clip-path="url(#clip542)" cx="614.886" cy="906.614" r="14.4" fill="#e26f46" fill-rule="evenodd" fill-opacity="1" stroke="#000000" stroke-opacity="1" stroke-width="3.84"/>
<circle clip-path="url(#clip542)" cx="660.412" cy="1082.74" r="14.4" fill="#e26f46" fill-rule="evenodd" fill-opacity="1" stroke="#000000" stroke-opacity="1" stroke-width="3.84"/>
<circle clip-path="url(#clip542)" cx="705.937" cy="957.302" r="14.4" fill="#e26f46" fill-rule="evenodd" fill-opacity="1" stroke="#000000" stroke-opacity="1" stroke-width="3.84"/>
<circle clip-path="url(#clip542)" cx="751.462" cy="1165.82" r="14.4" fill="#e26f46" fill-rule="evenodd" fill-opacity="1" stroke="#000000" stroke-opacity="1" stroke-width="3.84"/>
<circle clip-path="url(#clip542)" cx="796.987" cy="1047.91" r="14.4" fill="#e26f46" fill-rule="evenodd" fill-opacity="1" stroke="#000000" stroke-opacity="1" stroke-width="3.84"/>
<circle clip-path="url(#clip542)" cx="842.512" cy="1076.49" r="14.4" fill="#e26f46" fill-rule="evenodd" fill-opacity="1" stroke="#000000" stroke-opacity="1" stroke-width="3.84"/>
<circle clip-path="url(#clip542)" cx="888.037" cy="1211.16" r="14.4" fill="#e26f46" fill-rule="evenodd" fill-opacity="1" stroke="#000000" stroke-opacity="1" stroke-width="3.84"/>
<circle clip-path="url(#clip542)" cx="933.563" cy="1123.72" r="14.4" fill="#e26f46" fill-rule="evenodd" fill-opacity="1" stroke="#000000" stroke-opacity="1" stroke-width="3.84"/>
<circle clip-path="url(#clip542)" cx="979.088" cy="1054.56" r="14.4" fill="#e26f46" fill-rule="evenodd" fill-opacity="1" stroke="#000000" stroke-opacity="1" stroke-width="3.84"/>
<circle clip-path="url(#clip542)" cx="1024.61" cy="863.887" r="14.4" fill="#e26f46" fill-rule="evenodd" fill-opacity="1" stroke="#000000" stroke-opacity="1" stroke-width="3.84"/>
<circle clip-path="url(#clip542)" cx="1070.14" cy="895.246" r="14.4" fill="#e26f46" fill-rule="evenodd" fill-opacity="1" stroke="#000000" stroke-opacity="1" stroke-width="3.84"/>
<circle clip-path="url(#clip542)" cx="1115.66" cy="792.307" r="14.4" fill="#e26f46" fill-rule="evenodd" fill-opacity="1" stroke="#000000" stroke-opacity="1" stroke-width="3.84"/>
<circle clip-path="url(#clip542)" cx="1161.19" cy="736.706" r="14.4" fill="#e26f46" fill-rule="evenodd" fill-opacity="1" stroke="#000000" stroke-opacity="1" stroke-width="3.84"/>
<circle clip-path="url(#clip542)" cx="1206.71" cy="916.688" r="14.4" fill="#e26f46" fill-rule="evenodd" fill-opacity="1" stroke="#000000" stroke-opacity="1" stroke-width="3.84"/>
<circle clip-path="url(#clip542)" cx="1252.24" cy="521.181" r="14.4" fill="#e26f46" fill-rule="evenodd" fill-opacity="1" stroke="#000000" stroke-opacity="1" stroke-width="3.84"/>
<circle clip-path="url(#clip542)" cx="1297.76" cy="649.975" r="14.4" fill="#e26f46" fill-rule="evenodd" fill-opacity="1" stroke="#000000" stroke-opacity="1" stroke-width="3.84"/>
<circle clip-path="url(#clip542)" cx="1343.29" cy="604.691" r="14.4" fill="#e26f46" fill-rule="evenodd" fill-opacity="1" stroke="#000000" stroke-opacity="1" stroke-width="3.84"/>
<circle clip-path="url(#clip542)" cx="1388.81" cy="554.414" r="14.4" fill="#e26f46" fill-rule="evenodd" fill-opacity="1" stroke="#000000" stroke-opacity="1" stroke-width="3.84"/>
<circle clip-path="url(#clip542)" cx="1434.34" cy="497.083" r="14.4" fill="#e26f46" fill-rule="evenodd" fill-opacity="1" stroke="#000000" stroke-opacity="1" stroke-width="3.84"/>
<circle clip-path="url(#clip542)" cx="1479.86" cy="423.348" r="14.4" fill="#e26f46" fill-rule="evenodd" fill-opacity="1" stroke="#000000" stroke-opacity="1" stroke-width="3.84"/>
<circle clip-path="url(#clip542)" cx="1525.39" cy="513.857" r="14.4" fill="#e26f46" fill-rule="evenodd" fill-opacity="1" stroke="#000000" stroke-opacity="1" stroke-width="3.84"/>
<circle clip-path="url(#clip542)" cx="1570.91" cy="459.96" r="14.4" fill="#e26f46" fill-rule="evenodd" fill-opacity="1" stroke="#000000" stroke-opacity="1" stroke-width="3.84"/>
<circle clip-path="url(#clip542)" cx="1616.44" cy="645.231" r="14.4" fill="#e26f46" fill-rule="evenodd" fill-opacity="1" stroke="#000000" stroke-opacity="1" stroke-width="3.84"/>
<circle clip-path="url(#clip542)" cx="1661.97" cy="684.467" r="14.4" fill="#e26f46" fill-rule="evenodd" fill-opacity="1" stroke="#000000" stroke-opacity="1" stroke-width="3.84"/>
<circle clip-path="url(#clip542)" cx="1707.49" cy="577.851" r="14.4" fill="#e26f46" fill-rule="evenodd" fill-opacity="1" stroke="#000000" stroke-opacity="1" stroke-width="3.84"/>
<circle clip-path="url(#clip542)" cx="1753.02" cy="595.234" r="14.4" fill="#e26f46" fill-rule="evenodd" fill-opacity="1" stroke="#000000" stroke-opacity="1" stroke-width="3.84"/>
<circle clip-path="url(#clip542)" cx="1798.54" cy="907.258" r="14.4" fill="#e26f46" fill-rule="evenodd" fill-opacity="1" stroke="#000000" stroke-opacity="1" stroke-width="3.84"/>
<circle clip-path="url(#clip542)" cx="1844.07" cy="732.721" r="14.4" fill="#e26f46" fill-rule="evenodd" fill-opacity="1" stroke="#000000" stroke-opacity="1" stroke-width="3.84"/>
<circle clip-path="url(#clip542)" cx="1889.59" cy="685.287" r="14.4" fill="#e26f46" fill-rule="evenodd" fill-opacity="1" stroke="#000000" stroke-opacity="1" stroke-width="3.84"/>
<circle clip-path="url(#clip542)" cx="1935.12" cy="652.552" r="14.4" fill="#e26f46" fill-rule="evenodd" fill-opacity="1" stroke="#000000" stroke-opacity="1" stroke-width="3.84"/>
<circle clip-path="url(#clip542)" cx="1980.64" cy="960.33" r="14.4" fill="#e26f46" fill-rule="evenodd" fill-opacity="1" stroke="#000000" stroke-opacity="1" stroke-width="3.84"/>
<circle clip-path="url(#clip542)" cx="2026.17" cy="1004.84" r="14.4" fill="#e26f46" fill-rule="evenodd" fill-opacity="1" stroke="#000000" stroke-opacity="1" stroke-width="3.84"/>
<circle clip-path="url(#clip542)" cx="2071.69" cy="700.156" r="14.4" fill="#e26f46" fill-rule="evenodd" fill-opacity="1" stroke="#000000" stroke-opacity="1" stroke-width="3.84"/>
<circle clip-path="url(#clip542)" cx="2117.22" cy="1020.46" r="14.4" fill="#e26f46" fill-rule="evenodd" fill-opacity="1" stroke="#000000" stroke-opacity="1" stroke-width="3.84"/>
<circle clip-path="url(#clip542)" cx="2162.74" cy="1024.66" r="14.4" fill="#e26f46" fill-rule="evenodd" fill-opacity="1" stroke="#000000" stroke-opacity="1" stroke-width="3.84"/>
<circle clip-path="url(#clip542)" cx="2208.27" cy="1028.04" r="14.4" fill="#e26f46" fill-rule="evenodd" fill-opacity="1" stroke="#000000" stroke-opacity="1" stroke-width="3.84"/>
<circle clip-path="url(#clip542)" cx="2253.79" cy="1071.97" r="14.4" fill="#e26f46" fill-rule="evenodd" fill-opacity="1" stroke="#000000" stroke-opacity="1" stroke-width="3.84"/>
<circle clip-path="url(#clip542)" cx="2299.32" cy="1087.16" r="14.4" fill="#e26f46" fill-rule="evenodd" fill-opacity="1" stroke="#000000" stroke-opacity="1" stroke-width="3.84"/>
<circle clip-path="url(#clip542)" cx="2344.84" cy="1071.27" r="14.4" fill="#e26f46" fill-rule="evenodd" fill-opacity="1" stroke="#000000" stroke-opacity="1" stroke-width="3.84"/>
<circle clip-path="url(#clip542)" cx="2390.37" cy="940.801" r="14.4" fill="#e26f46" fill-rule="evenodd" fill-opacity="1" stroke="#000000" stroke-opacity="1" stroke-width="3.84"/>
<circle clip-path="url(#clip542)" cx="2435.89" cy="835.695" r="14.4" fill="#e26f46" fill-rule="evenodd" fill-opacity="1" stroke="#000000" stroke-opacity="1" stroke-width="3.84"/>
<circle clip-path="url(#clip542)" cx="2481.42" cy="852.182" r="14.4" fill="#e26f46" fill-rule="evenodd" fill-opacity="1" stroke="#000000" stroke-opacity="1" stroke-width="3.84"/>
<circle clip-path="url(#clip542)" cx="2526.94" cy="784.933" r="14.4" fill="#e26f46" fill-rule="evenodd" fill-opacity="1" stroke="#000000" stroke-opacity="1" stroke-width="3.84"/>
<circle clip-path="url(#clip542)" cx="2572.47" cy="858.369" r="14.4" fill="#e26f46" fill-rule="evenodd" fill-opacity="1" stroke="#000000" stroke-opacity="1" stroke-width="3.84"/>
<polyline clip-path="url(#clip542)" style="stroke:#009af9; stroke-linecap:round; stroke-linejoin:round; stroke-width:4; stroke-opacity:1; fill:none" points="296.21,628.782 341.735,708.13 387.261,785.383 432.786,858.925 478.311,927.627 523.836,990.771 569.361,1047.96 614.886,1099.05 660.412,1144.07 705.937,1183.15 751.462,1216.52 796.987,1244.46 842.512,1267.27 888.037,1285.28 933.563,1298.8 979.088,1308.14 1024.61,1313.63 1070.14,1315.54 1115.66,1314.16 1161.19,1309.74 1206.71,1302.54 1252.24,1292.78 1297.76,1280.68 1343.29,1266.43 1388.81,1250.21 1434.34,1232.2 1479.86,1212.55 1525.39,1191.41 1570.91,1168.9 1616.44,1145.15 1661.97,1120.27 1707.49,1094.37 1753.02,1067.53 1798.54,1039.86 1844.07,1011.43 1889.59,982.31 1935.12,952.58 1980.64,922.301 2026.17,891.536 2071.69,860.343 2117.22,828.776 2162.74,796.888 2208.27,764.73 2253.79,732.354 2299.32,699.808 2344.84,667.144 2390.37,634.415 2435.89,601.675 2481.42,568.987 2526.94,536.417 2572.47,504.039 "/>
<polyline clip-path="url(#clip542)" style="stroke:#e26f46; stroke-linecap:round; stroke-linejoin:round; stroke-width:4; stroke-opacity:1; fill:none" points="296.21,628.782 341.735,632.508 387.261,642.692 432.786,658.001 478.311,677.33 523.836,699.794 569.361,724.699 614.886,751.506 660.412,779.798 705.937,809.248 751.462,839.604 796.987,870.664 842.512,902.266 888.037,934.281 933.563,966.6 979.088,999.131 1024.61,1031.8 1070.14,1064.53 1115.66,1097.27 1161.19,1129.95 1206.71,1162.53 1252.24,1194.95 1297.76,1227.17 1343.29,1259.12 1388.81,1290.77 1434.34,1322.06 1479.86,1352.93 1525.39,1383.33 1570.91,1413.2 1616.44,1442.47 1661.97,1471.07 1707.49,1498.93 1753.02,1525.98 1798.54,1552.11 1844.07,1577.24 1889.59,1601.27 1935.12,1624.08 1980.64,1645.57 2026.17,1665.59 2071.69,1684 2117.22,1700.66 2162.74,1715.4 2208.27,1728.03 2253.79,1738.37 2299.32,1746.2 2344.84,1751.3 2390.37,1753.43 2435.89,1752.33 2481.42,1747.73 2526.94,1739.33 2572.47,1726.84 "/>
<path clip-path="url(#clip540)" d="M308.35 442.758 L1226.44 442.758 L1226.44 183.558 L308.35 183.558  Z" fill="#ffffff" fill-rule="evenodd" fill-opacity="1"/>
<polyline clip-path="url(#clip540)" style="stroke:#000000; stroke-linecap:round; stroke-linejoin:round; stroke-width:4; stroke-opacity:1; fill:none" points="308.35,442.758 1226.44,442.758 1226.44,183.558 308.35,183.558 308.35,442.758 "/>
<circle clip-path="url(#clip540)" cx="415.587" cy="235.398" r="20.48" fill="#009af9" fill-rule="evenodd" fill-opacity="1" stroke="#000000" stroke-opacity="1" stroke-width="5.46133"/>
<path clip-path="url(#clip540)" d="M527.5 221.961 L527.5 234.947 L533.38 234.947 Q536.644 234.947 538.426 233.257 Q540.209 231.567 540.209 228.442 Q540.209 225.341 538.426 223.651 Q536.644 221.961 533.38 221.961 L527.5 221.961 M522.824 218.118 L533.38 218.118 Q539.19 218.118 542.153 220.757 Q545.139 223.373 545.139 228.442 Q545.139 233.558 542.153 236.174 Q539.19 238.79 533.38 238.79 L527.5 238.79 L527.5 252.678 L522.824 252.678 L522.824 218.118 Z" fill="#000000" fill-rule="nonzero" fill-opacity="1" /><path clip-path="url(#clip540)" d="M565.417 230.734 Q564.699 230.317 563.843 230.132 Q563.009 229.924 561.991 229.924 Q558.38 229.924 556.435 232.285 Q554.514 234.623 554.514 239.021 L554.514 252.678 L550.232 252.678 L550.232 226.753 L554.514 226.753 L554.514 230.78 Q555.857 228.419 558.009 227.285 Q560.162 226.128 563.241 226.128 Q563.681 226.128 564.213 226.197 Q564.746 226.243 565.394 226.359 L565.417 230.734 Z" fill="#000000" fill-rule="nonzero" fill-opacity="1" /><path clip-path="url(#clip540)" d="M591.019 238.651 L591.019 240.734 L571.435 240.734 Q571.713 245.132 574.074 247.447 Q576.458 249.739 580.695 249.739 Q583.148 249.739 585.44 249.137 Q587.755 248.535 590.023 247.331 L590.023 251.359 Q587.732 252.331 585.324 252.84 Q582.917 253.35 580.44 253.35 Q574.236 253.35 570.602 249.739 Q566.991 246.127 566.991 239.97 Q566.991 233.604 570.417 229.878 Q573.866 226.128 579.699 226.128 Q584.931 226.128 587.963 229.507 Q591.019 232.864 591.019 238.651 M586.759 237.401 Q586.713 233.905 584.792 231.822 Q582.894 229.739 579.745 229.739 Q576.181 229.739 574.028 231.753 Q571.898 233.766 571.574 237.424 L586.759 237.401 Z" fill="#000000" fill-rule="nonzero" fill-opacity="1" /><path clip-path="url(#clip540)" d="M608.796 255.086 Q606.991 259.715 605.278 261.127 Q603.565 262.539 600.694 262.539 L597.292 262.539 L597.292 258.975 L599.792 258.975 Q601.551 258.975 602.523 258.141 Q603.495 257.308 604.676 254.206 L605.44 252.262 L594.954 226.753 L599.468 226.753 L607.569 247.03 L615.671 226.753 L620.185 226.753 L608.796 255.086 Z" fill="#000000" fill-rule="nonzero" fill-opacity="1" /><path clip-path="url(#clip540)" d="M652.916 239.646 Q647.754 239.646 645.764 240.827 Q643.773 242.007 643.773 244.854 Q643.773 247.123 645.254 248.465 Q646.759 249.785 649.328 249.785 Q652.87 249.785 655 247.285 Q657.152 244.762 657.152 240.595 L657.152 239.646 L652.916 239.646 M661.412 237.887 L661.412 252.678 L657.152 252.678 L657.152 248.743 Q655.694 251.104 653.518 252.239 Q651.342 253.35 648.194 253.35 Q644.213 253.35 641.852 251.127 Q639.514 248.882 639.514 245.132 Q639.514 240.757 642.43 238.535 Q645.37 236.313 651.18 236.313 L657.152 236.313 L657.152 235.896 Q657.152 232.956 655.208 231.359 Q653.287 229.739 649.791 229.739 Q647.569 229.739 645.463 230.271 Q643.356 230.803 641.412 231.868 L641.412 227.933 Q643.75 227.03 645.949 226.591 Q648.148 226.128 650.231 226.128 Q655.856 226.128 658.634 229.044 Q661.412 231.961 661.412 237.887 Z" fill="#000000" fill-rule="nonzero" fill-opacity="1" /><path clip-path="url(#clip540)" d="M688.796 239.739 Q688.796 235.04 686.851 232.378 Q684.93 229.692 681.55 229.692 Q678.171 229.692 676.226 232.378 Q674.305 235.04 674.305 239.739 Q674.305 244.438 676.226 247.123 Q678.171 249.785 681.55 249.785 Q684.93 249.785 686.851 247.123 Q688.796 244.438 688.796 239.739 M674.305 230.688 Q675.648 228.373 677.685 227.262 Q679.745 226.128 682.592 226.128 Q687.314 226.128 690.254 229.878 Q693.217 233.628 693.217 239.739 Q693.217 245.85 690.254 249.6 Q687.314 253.35 682.592 253.35 Q679.745 253.35 677.685 252.239 Q675.648 251.104 674.305 248.789 L674.305 252.678 L670.023 252.678 L670.023 216.66 L674.305 216.66 L674.305 230.688 Z" fill="#000000" fill-rule="nonzero" fill-opacity="1" /><path clip-path="url(#clip540)" d="M699.837 242.447 L699.837 226.753 L704.097 226.753 L704.097 242.285 Q704.097 245.965 705.532 247.817 Q706.967 249.646 709.837 249.646 Q713.286 249.646 715.277 247.447 Q717.291 245.248 717.291 241.452 L717.291 226.753 L721.55 226.753 L721.55 252.678 L717.291 252.678 L717.291 248.697 Q715.74 251.058 713.68 252.215 Q711.643 253.35 708.935 253.35 Q704.467 253.35 702.152 250.572 Q699.837 247.794 699.837 242.447 M710.555 226.128 L710.555 226.128 Z" fill="#000000" fill-rule="nonzero" fill-opacity="1" /><path clip-path="url(#clip540)" d="M751.874 237.03 L751.874 252.678 L747.615 252.678 L747.615 237.169 Q747.615 233.489 746.18 231.66 Q744.745 229.831 741.874 229.831 Q738.425 229.831 736.434 232.03 Q734.444 234.229 734.444 238.026 L734.444 252.678 L730.161 252.678 L730.161 226.753 L734.444 226.753 L734.444 230.78 Q735.971 228.442 738.032 227.285 Q740.115 226.128 742.823 226.128 Q747.291 226.128 749.582 228.905 Q751.874 231.66 751.874 237.03 Z" fill="#000000" fill-rule="nonzero" fill-opacity="1" /><path clip-path="url(#clip540)" d="M777.43 230.688 L777.43 216.66 L781.689 216.66 L781.689 252.678 L777.43 252.678 L777.43 248.789 Q776.087 251.104 774.027 252.239 Q771.99 253.35 769.119 253.35 Q764.42 253.35 761.457 249.6 Q758.518 245.85 758.518 239.739 Q758.518 233.628 761.457 229.878 Q764.42 226.128 769.119 226.128 Q771.99 226.128 774.027 227.262 Q776.087 228.373 777.43 230.688 M762.916 239.739 Q762.916 244.438 764.837 247.123 Q766.781 249.785 770.161 249.785 Q773.541 249.785 775.485 247.123 Q777.43 244.438 777.43 239.739 Q777.43 235.04 775.485 232.378 Q773.541 229.692 770.161 229.692 Q766.781 229.692 764.837 232.378 Q762.916 235.04 762.916 239.739 Z" fill="#000000" fill-rule="nonzero" fill-opacity="1" /><path clip-path="url(#clip540)" d="M802.244 239.646 Q797.082 239.646 795.092 240.827 Q793.101 242.007 793.101 244.854 Q793.101 247.123 794.582 248.465 Q796.087 249.785 798.656 249.785 Q802.198 249.785 804.328 247.285 Q806.48 244.762 806.48 240.595 L806.48 239.646 L802.244 239.646 M810.74 237.887 L810.74 252.678 L806.48 252.678 L806.48 248.743 Q805.022 251.104 802.846 252.239 Q800.67 253.35 797.522 253.35 Q793.541 253.35 791.179 251.127 Q788.842 248.882 788.842 245.132 Q788.842 240.757 791.758 238.535 Q794.698 236.313 800.508 236.313 L806.48 236.313 L806.48 235.896 Q806.48 232.956 804.536 231.359 Q802.615 229.739 799.119 229.739 Q796.897 229.739 794.791 230.271 Q792.684 230.803 790.74 231.868 L790.74 227.933 Q793.078 227.03 795.277 226.591 Q797.476 226.128 799.559 226.128 Q805.184 226.128 807.962 229.044 Q810.74 231.961 810.74 237.887 Z" fill="#000000" fill-rule="nonzero" fill-opacity="1" /><path clip-path="url(#clip540)" d="M841.063 237.03 L841.063 252.678 L836.804 252.678 L836.804 237.169 Q836.804 233.489 835.369 231.66 Q833.934 229.831 831.064 229.831 Q827.614 229.831 825.624 232.03 Q823.633 234.229 823.633 238.026 L823.633 252.678 L819.351 252.678 L819.351 226.753 L823.633 226.753 L823.633 230.78 Q825.161 228.442 827.221 227.285 Q829.304 226.128 832.013 226.128 Q836.48 226.128 838.772 228.905 Q841.063 231.66 841.063 237.03 Z" fill="#000000" fill-rule="nonzero" fill-opacity="1" /><path clip-path="url(#clip540)" d="M868.216 227.748 L868.216 231.729 Q866.411 230.734 864.582 230.248 Q862.776 229.739 860.924 229.739 Q856.781 229.739 854.489 232.378 Q852.198 234.993 852.198 239.739 Q852.198 244.484 854.489 247.123 Q856.781 249.739 860.924 249.739 Q862.776 249.739 864.582 249.252 Q866.411 248.743 868.216 247.748 L868.216 251.683 Q866.434 252.516 864.512 252.933 Q862.614 253.35 860.462 253.35 Q854.605 253.35 851.156 249.669 Q847.707 245.989 847.707 239.739 Q847.707 233.396 851.179 229.762 Q854.675 226.128 860.739 226.128 Q862.707 226.128 864.582 226.544 Q866.457 226.938 868.216 227.748 Z" fill="#000000" fill-rule="nonzero" fill-opacity="1" /><path clip-path="url(#clip540)" d="M897.799 238.651 L897.799 240.734 L878.216 240.734 Q878.494 245.132 880.855 247.447 Q883.239 249.739 887.475 249.739 Q889.929 249.739 892.221 249.137 Q894.535 248.535 896.804 247.331 L896.804 251.359 Q894.512 252.331 892.105 252.84 Q889.697 253.35 887.221 253.35 Q881.017 253.35 877.383 249.739 Q873.772 246.127 873.772 239.97 Q873.772 233.604 877.198 229.878 Q880.647 226.128 886.48 226.128 Q891.711 226.128 894.744 229.507 Q897.799 232.864 897.799 238.651 M893.54 237.401 Q893.494 233.905 891.572 231.822 Q889.674 229.739 886.526 229.739 Q882.961 229.739 880.809 231.753 Q878.679 233.766 878.355 237.424 L893.54 237.401 Z" fill="#000000" fill-rule="nonzero" fill-opacity="1" /><path clip-path="url(#clip540)" d="M936.919 230.688 L936.919 216.66 L941.179 216.66 L941.179 252.678 L936.919 252.678 L936.919 248.789 Q935.577 251.104 933.517 252.239 Q931.48 253.35 928.609 253.35 Q923.91 253.35 920.947 249.6 Q918.008 245.85 918.008 239.739 Q918.008 233.628 920.947 229.878 Q923.91 226.128 928.609 226.128 Q931.48 226.128 933.517 227.262 Q935.577 228.373 936.919 230.688 M922.406 239.739 Q922.406 244.438 924.327 247.123 Q926.271 249.785 929.651 249.785 Q933.031 249.785 934.975 247.123 Q936.919 244.438 936.919 239.739 Q936.919 235.04 934.975 232.378 Q933.031 229.692 929.651 229.692 Q926.271 229.692 924.327 232.378 Q922.406 235.04 922.406 239.739 Z" fill="#000000" fill-rule="nonzero" fill-opacity="1" /><path clip-path="url(#clip540)" d="M961.734 239.646 Q956.572 239.646 954.581 240.827 Q952.591 242.007 952.591 244.854 Q952.591 247.123 954.072 248.465 Q955.577 249.785 958.146 249.785 Q961.688 249.785 963.817 247.285 Q965.97 244.762 965.97 240.595 L965.97 239.646 L961.734 239.646 M970.229 237.887 L970.229 252.678 L965.97 252.678 L965.97 248.743 Q964.512 251.104 962.336 252.239 Q960.16 253.35 957.012 253.35 Q953.03 253.35 950.669 251.127 Q948.331 248.882 948.331 245.132 Q948.331 240.757 951.248 238.535 Q954.188 236.313 959.998 236.313 L965.97 236.313 L965.97 235.896 Q965.97 232.956 964.026 231.359 Q962.105 229.739 958.609 229.739 Q956.387 229.739 954.28 230.271 Q952.174 230.803 950.23 231.868 L950.23 227.933 Q952.568 227.03 954.767 226.591 Q956.966 226.128 959.049 226.128 Q964.674 226.128 967.452 229.044 Q970.229 231.961 970.229 237.887 Z" fill="#000000" fill-rule="nonzero" fill-opacity="1" /><path clip-path="url(#clip540)" d="M983.216 219.392 L983.216 226.753 L991.989 226.753 L991.989 230.063 L983.216 230.063 L983.216 244.137 Q983.216 247.308 984.072 248.211 Q984.952 249.114 987.614 249.114 L991.989 249.114 L991.989 252.678 L987.614 252.678 Q982.683 252.678 980.808 250.85 Q978.933 248.998 978.933 244.137 L978.933 230.063 L975.808 230.063 L975.808 226.753 L978.933 226.753 L978.933 219.392 L983.216 219.392 Z" fill="#000000" fill-rule="nonzero" fill-opacity="1" /><path clip-path="url(#clip540)" d="M1009.37 239.646 Q1004.21 239.646 1002.22 240.827 Q1000.23 242.007 1000.23 244.854 Q1000.23 247.123 1001.71 248.465 Q1003.22 249.785 1005.78 249.785 Q1009.33 249.785 1011.46 247.285 Q1013.61 244.762 1013.61 240.595 L1013.61 239.646 L1009.37 239.646 M1017.87 237.887 L1017.87 252.678 L1013.61 252.678 L1013.61 248.743 Q1012.15 251.104 1009.97 252.239 Q1007.8 253.35 1004.65 253.35 Q1000.67 253.35 998.308 251.127 Q995.97 248.882 995.97 245.132 Q995.97 240.757 998.887 238.535 Q1001.83 236.313 1007.64 236.313 L1013.61 236.313 L1013.61 235.896 Q1013.61 232.956 1011.66 231.359 Q1009.74 229.739 1006.25 229.739 Q1004.03 229.739 1001.92 230.271 Q999.813 230.803 997.868 231.868 L997.868 227.933 Q1000.21 227.03 1002.41 226.591 Q1004.6 226.128 1006.69 226.128 Q1012.31 226.128 1015.09 229.044 Q1017.87 231.961 1017.87 237.887 Z" fill="#000000" fill-rule="nonzero" fill-opacity="1" /><circle clip-path="url(#clip540)" cx="415.587" cy="287.238" r="20.48" fill="#e26f46" fill-rule="evenodd" fill-opacity="1" stroke="#000000" stroke-opacity="1" stroke-width="5.46133"/>
<path clip-path="url(#clip540)" d="M527.5 273.801 L527.5 286.787 L533.38 286.787 Q536.644 286.787 538.426 285.097 Q540.209 283.407 540.209 280.282 Q540.209 277.181 538.426 275.491 Q536.644 273.801 533.38 273.801 L527.5 273.801 M522.824 269.958 L533.38 269.958 Q539.19 269.958 542.153 272.597 Q545.139 275.213 545.139 280.282 Q545.139 285.398 542.153 288.014 Q539.19 290.63 533.38 290.63 L527.5 290.63 L527.5 304.518 L522.824 304.518 L522.824 269.958 Z" fill="#000000" fill-rule="nonzero" fill-opacity="1" /><path clip-path="url(#clip540)" d="M565.417 282.574 Q564.699 282.157 563.843 281.972 Q563.009 281.764 561.991 281.764 Q558.38 281.764 556.435 284.125 Q554.514 286.463 554.514 290.861 L554.514 304.518 L550.232 304.518 L550.232 278.593 L554.514 278.593 L554.514 282.62 Q555.857 280.259 558.009 279.125 Q560.162 277.968 563.241 277.968 Q563.681 277.968 564.213 278.037 Q564.746 278.083 565.394 278.199 L565.417 282.574 Z" fill="#000000" fill-rule="nonzero" fill-opacity="1" /><path clip-path="url(#clip540)" d="M591.019 290.491 L591.019 292.574 L571.435 292.574 Q571.713 296.972 574.074 299.287 Q576.458 301.579 580.695 301.579 Q583.148 301.579 585.44 300.977 Q587.755 300.375 590.023 299.171 L590.023 303.199 Q587.732 304.171 585.324 304.68 Q582.917 305.19 580.44 305.19 Q574.236 305.19 570.602 301.579 Q566.991 297.967 566.991 291.81 Q566.991 285.444 570.417 281.718 Q573.866 277.968 579.699 277.968 Q584.931 277.968 587.963 281.347 Q591.019 284.704 591.019 290.491 M586.759 289.241 Q586.713 285.745 584.792 283.662 Q582.894 281.579 579.745 281.579 Q576.181 281.579 574.028 283.593 Q571.898 285.606 571.574 289.264 L586.759 289.241 Z" fill="#000000" fill-rule="nonzero" fill-opacity="1" /><path clip-path="url(#clip540)" d="M615.069 282.528 L615.069 268.5 L619.329 268.5 L619.329 304.518 L615.069 304.518 L615.069 300.629 Q613.727 302.944 611.667 304.079 Q609.63 305.19 606.759 305.19 Q602.06 305.19 599.097 301.44 Q596.157 297.69 596.157 291.579 Q596.157 285.468 599.097 281.718 Q602.06 277.968 606.759 277.968 Q609.63 277.968 611.667 279.102 Q613.727 280.213 615.069 282.528 M600.556 291.579 Q600.556 296.278 602.477 298.963 Q604.421 301.625 607.801 301.625 Q611.18 301.625 613.125 298.963 Q615.069 296.278 615.069 291.579 Q615.069 286.88 613.125 284.218 Q611.18 281.532 607.801 281.532 Q604.421 281.532 602.477 284.218 Q600.556 286.88 600.556 291.579 Z" fill="#000000" fill-rule="nonzero" fill-opacity="1" /><path clip-path="url(#clip540)" d="M639.884 291.486 Q634.722 291.486 632.731 292.667 Q630.741 293.847 630.741 296.694 Q630.741 298.963 632.222 300.305 Q633.727 301.625 636.296 301.625 Q639.838 301.625 641.967 299.125 Q644.12 296.602 644.12 292.435 L644.12 291.486 L639.884 291.486 M648.379 289.727 L648.379 304.518 L644.12 304.518 L644.12 300.583 Q642.662 302.944 640.486 304.079 Q638.31 305.19 635.162 305.19 Q631.18 305.19 628.819 302.967 Q626.481 300.722 626.481 296.972 Q626.481 292.597 629.398 290.375 Q632.338 288.153 638.148 288.153 L644.12 288.153 L644.12 287.736 Q644.12 284.796 642.176 283.199 Q640.254 281.579 636.759 281.579 Q634.537 281.579 632.43 282.111 Q630.324 282.643 628.379 283.708 L628.379 279.773 Q630.717 278.87 632.916 278.431 Q635.116 277.968 637.199 277.968 Q642.824 277.968 645.602 280.884 Q648.379 283.801 648.379 289.727 Z" fill="#000000" fill-rule="nonzero" fill-opacity="1" /><path clip-path="url(#clip540)" d="M661.365 271.232 L661.365 278.593 L670.138 278.593 L670.138 281.903 L661.365 281.903 L661.365 295.977 Q661.365 299.148 662.222 300.051 Q663.101 300.954 665.763 300.954 L670.138 300.954 L670.138 304.518 L665.763 304.518 Q660.833 304.518 658.958 302.69 Q657.083 300.838 657.083 295.977 L657.083 281.903 L653.958 281.903 L653.958 278.593 L657.083 278.593 L657.083 271.232 L661.365 271.232 Z" fill="#000000" fill-rule="nonzero" fill-opacity="1" /><path clip-path="url(#clip540)" d="M685.787 281.579 Q682.361 281.579 680.37 284.264 Q678.379 286.926 678.379 291.579 Q678.379 296.231 680.347 298.917 Q682.337 301.579 685.787 301.579 Q689.189 301.579 691.18 298.893 Q693.171 296.208 693.171 291.579 Q693.171 286.972 691.18 284.287 Q689.189 281.579 685.787 281.579 M685.787 277.968 Q691.342 277.968 694.513 281.579 Q697.685 285.19 697.685 291.579 Q697.685 297.944 694.513 301.579 Q691.342 305.19 685.787 305.19 Q680.208 305.19 677.037 301.579 Q673.888 297.944 673.888 291.579 Q673.888 285.19 677.037 281.579 Q680.208 277.968 685.787 277.968 Z" fill="#000000" fill-rule="nonzero" fill-opacity="1" /><path clip-path="url(#clip540)" d="M719.768 282.574 Q719.05 282.157 718.194 281.972 Q717.36 281.764 716.342 281.764 Q712.731 281.764 710.786 284.125 Q708.865 286.463 708.865 290.861 L708.865 304.518 L704.583 304.518 L704.583 278.593 L708.865 278.593 L708.865 282.62 Q710.208 280.259 712.36 279.125 Q714.513 277.968 717.592 277.968 Q718.032 277.968 718.564 278.037 Q719.097 278.083 719.745 278.199 L719.768 282.574 Z" fill="#000000" fill-rule="nonzero" fill-opacity="1" /><path clip-path="url(#clip540)" d="M751.087 291.486 Q745.925 291.486 743.934 292.667 Q741.944 293.847 741.944 296.694 Q741.944 298.963 743.425 300.305 Q744.93 301.625 747.499 301.625 Q751.041 301.625 753.17 299.125 Q755.323 296.602 755.323 292.435 L755.323 291.486 L751.087 291.486 M759.582 289.727 L759.582 304.518 L755.323 304.518 L755.323 300.583 Q753.865 302.944 751.689 304.079 Q749.513 305.19 746.365 305.19 Q742.383 305.19 740.022 302.967 Q737.684 300.722 737.684 296.972 Q737.684 292.597 740.601 290.375 Q743.541 288.153 749.351 288.153 L755.323 288.153 L755.323 287.736 Q755.323 284.796 753.379 283.199 Q751.457 281.579 747.962 281.579 Q745.74 281.579 743.633 282.111 Q741.527 282.643 739.583 283.708 L739.583 279.773 Q741.92 278.87 744.12 278.431 Q746.319 277.968 748.402 277.968 Q754.027 277.968 756.805 280.884 Q759.582 283.801 759.582 289.727 Z" fill="#000000" fill-rule="nonzero" fill-opacity="1" /><path clip-path="url(#clip540)" d="M786.967 291.579 Q786.967 286.88 785.022 284.218 Q783.101 281.532 779.721 281.532 Q776.342 281.532 774.397 284.218 Q772.476 286.88 772.476 291.579 Q772.476 296.278 774.397 298.963 Q776.342 301.625 779.721 301.625 Q783.101 301.625 785.022 298.963 Q786.967 296.278 786.967 291.579 M772.476 282.528 Q773.818 280.213 775.856 279.102 Q777.916 277.968 780.763 277.968 Q785.485 277.968 788.425 281.718 Q791.388 285.468 791.388 291.579 Q791.388 297.69 788.425 301.44 Q785.485 305.19 780.763 305.19 Q777.916 305.19 775.856 304.079 Q773.818 302.944 772.476 300.629 L772.476 304.518 L768.194 304.518 L768.194 268.5 L772.476 268.5 L772.476 282.528 Z" fill="#000000" fill-rule="nonzero" fill-opacity="1" /><path clip-path="url(#clip540)" d="M798.008 294.287 L798.008 278.593 L802.267 278.593 L802.267 294.125 Q802.267 297.805 803.703 299.657 Q805.138 301.486 808.008 301.486 Q811.457 301.486 813.448 299.287 Q815.462 297.088 815.462 293.292 L815.462 278.593 L819.721 278.593 L819.721 304.518 L815.462 304.518 L815.462 300.537 Q813.911 302.898 811.851 304.055 Q809.814 305.19 807.105 305.19 Q802.638 305.19 800.323 302.412 Q798.008 299.634 798.008 294.287 M808.726 277.968 L808.726 277.968 Z" fill="#000000" fill-rule="nonzero" fill-opacity="1" /><path clip-path="url(#clip540)" d="M850.045 288.87 L850.045 304.518 L845.786 304.518 L845.786 289.009 Q845.786 285.329 844.351 283.5 Q842.915 281.671 840.045 281.671 Q836.596 281.671 834.605 283.87 Q832.614 286.069 832.614 289.866 L832.614 304.518 L828.332 304.518 L828.332 278.593 L832.614 278.593 L832.614 282.62 Q834.142 280.282 836.202 279.125 Q838.286 277.968 840.994 277.968 Q845.462 277.968 847.753 280.745 Q850.045 283.5 850.045 288.87 Z" fill="#000000" fill-rule="nonzero" fill-opacity="1" /><path clip-path="url(#clip540)" d="M875.6 282.528 L875.6 268.5 L879.86 268.5 L879.86 304.518 L875.6 304.518 L875.6 300.629 Q874.258 302.944 872.198 304.079 Q870.161 305.19 867.29 305.19 Q862.591 305.19 859.628 301.44 Q856.688 297.69 856.688 291.579 Q856.688 285.468 859.628 281.718 Q862.591 277.968 867.29 277.968 Q870.161 277.968 872.198 279.102 Q874.258 280.213 875.6 282.528 M861.087 291.579 Q861.087 296.278 863.008 298.963 Q864.952 301.625 868.332 301.625 Q871.711 301.625 873.656 298.963 Q875.6 296.278 875.6 291.579 Q875.6 286.88 873.656 284.218 Q871.711 281.532 868.332 281.532 Q864.952 281.532 863.008 284.218 Q861.087 286.88 861.087 291.579 Z" fill="#000000" fill-rule="nonzero" fill-opacity="1" /><path clip-path="url(#clip540)" d="M900.415 291.486 Q895.253 291.486 893.262 292.667 Q891.272 293.847 891.272 296.694 Q891.272 298.963 892.753 300.305 Q894.258 301.625 896.827 301.625 Q900.369 301.625 902.498 299.125 Q904.651 296.602 904.651 292.435 L904.651 291.486 L900.415 291.486 M908.91 289.727 L908.91 304.518 L904.651 304.518 L904.651 300.583 Q903.193 302.944 901.017 304.079 Q898.841 305.19 895.693 305.19 Q891.711 305.19 889.35 302.967 Q887.012 300.722 887.012 296.972 Q887.012 292.597 889.929 290.375 Q892.869 288.153 898.679 288.153 L904.651 288.153 L904.651 287.736 Q904.651 284.796 902.707 283.199 Q900.785 281.579 897.29 281.579 Q895.068 281.579 892.961 282.111 Q890.855 282.643 888.91 283.708 L888.91 279.773 Q891.248 278.87 893.447 278.431 Q895.647 277.968 897.73 277.968 Q903.355 277.968 906.133 280.884 Q908.91 283.801 908.91 289.727 Z" fill="#000000" fill-rule="nonzero" fill-opacity="1" /><path clip-path="url(#clip540)" d="M939.234 288.87 L939.234 304.518 L934.975 304.518 L934.975 289.009 Q934.975 285.329 933.54 283.5 Q932.105 281.671 929.234 281.671 Q925.785 281.671 923.795 283.87 Q921.804 286.069 921.804 289.866 L921.804 304.518 L917.521 304.518 L917.521 278.593 L921.804 278.593 L921.804 282.62 Q923.332 280.282 925.392 279.125 Q927.475 277.968 930.183 277.968 Q934.651 277.968 936.943 280.745 Q939.234 283.5 939.234 288.87 Z" fill="#000000" fill-rule="nonzero" fill-opacity="1" /><path clip-path="url(#clip540)" d="M966.387 279.588 L966.387 283.569 Q964.581 282.574 962.753 282.088 Q960.947 281.579 959.095 281.579 Q954.952 281.579 952.66 284.218 Q950.368 286.833 950.368 291.579 Q950.368 296.324 952.66 298.963 Q954.952 301.579 959.095 301.579 Q960.947 301.579 962.753 301.092 Q964.581 300.583 966.387 299.588 L966.387 303.523 Q964.604 304.356 962.683 304.773 Q960.785 305.19 958.632 305.19 Q952.776 305.19 949.327 301.509 Q945.878 297.829 945.878 291.579 Q945.878 285.236 949.35 281.602 Q952.845 277.968 958.91 277.968 Q960.878 277.968 962.753 278.384 Q964.628 278.778 966.387 279.588 Z" fill="#000000" fill-rule="nonzero" fill-opacity="1" /><path clip-path="url(#clip540)" d="M995.97 290.491 L995.97 292.574 L976.387 292.574 Q976.665 296.972 979.026 299.287 Q981.41 301.579 985.646 301.579 Q988.1 301.579 990.391 300.977 Q992.706 300.375 994.975 299.171 L994.975 303.199 Q992.683 304.171 990.276 304.68 Q987.868 305.19 985.391 305.19 Q979.188 305.19 975.554 301.579 Q971.942 297.967 971.942 291.81 Q971.942 285.444 975.368 281.718 Q978.817 277.968 984.651 277.968 Q989.882 277.968 992.915 281.347 Q995.97 284.704 995.97 290.491 M991.711 289.241 Q991.665 285.745 989.743 283.662 Q987.845 281.579 984.697 281.579 Q981.132 281.579 978.979 283.593 Q976.85 285.606 976.526 289.264 L991.711 289.241 Z" fill="#000000" fill-rule="nonzero" fill-opacity="1" /><path clip-path="url(#clip540)" d="M1035.09 282.528 L1035.09 268.5 L1039.35 268.5 L1039.35 304.518 L1035.09 304.518 L1035.09 300.629 Q1033.75 302.944 1031.69 304.079 Q1029.65 305.19 1026.78 305.19 Q1022.08 305.19 1019.12 301.44 Q1016.18 297.69 1016.18 291.579 Q1016.18 285.468 1019.12 281.718 Q1022.08 277.968 1026.78 277.968 Q1029.65 277.968 1031.69 279.102 Q1033.75 280.213 1035.09 282.528 M1020.58 291.579 Q1020.58 296.278 1022.5 298.963 Q1024.44 301.625 1027.82 301.625 Q1031.2 301.625 1033.15 298.963 Q1035.09 296.278 1035.09 291.579 Q1035.09 286.88 1033.15 284.218 Q1031.2 281.532 1027.82 281.532 Q1024.44 281.532 1022.5 284.218 Q1020.58 286.88 1020.58 291.579 Z" fill="#000000" fill-rule="nonzero" fill-opacity="1" /><path clip-path="url(#clip540)" d="M1059.9 291.486 Q1054.74 291.486 1052.75 292.667 Q1050.76 293.847 1050.76 296.694 Q1050.76 298.963 1052.24 300.305 Q1053.75 301.625 1056.32 301.625 Q1059.86 301.625 1061.99 299.125 Q1064.14 296.602 1064.14 292.435 L1064.14 291.486 L1059.9 291.486 M1068.4 289.727 L1068.4 304.518 L1064.14 304.518 L1064.14 300.583 Q1062.68 302.944 1060.51 304.079 Q1058.33 305.19 1055.18 305.19 Q1051.2 305.19 1048.84 302.967 Q1046.5 300.722 1046.5 296.972 Q1046.5 292.597 1049.42 290.375 Q1052.36 288.153 1058.17 288.153 L1064.14 288.153 L1064.14 287.736 Q1064.14 284.796 1062.2 283.199 Q1060.28 281.579 1056.78 281.579 Q1054.56 281.579 1052.45 282.111 Q1050.34 282.643 1048.4 283.708 L1048.4 279.773 Q1050.74 278.87 1052.94 278.431 Q1055.14 277.968 1057.22 277.968 Q1062.84 277.968 1065.62 280.884 Q1068.4 283.801 1068.4 289.727 Z" fill="#000000" fill-rule="nonzero" fill-opacity="1" /><path clip-path="url(#clip540)" d="M1081.39 271.232 L1081.39 278.593 L1090.16 278.593 L1090.16 281.903 L1081.39 281.903 L1081.39 295.977 Q1081.39 299.148 1082.24 300.051 Q1083.12 300.954 1085.78 300.954 L1090.16 300.954 L1090.16 304.518 L1085.78 304.518 Q1080.85 304.518 1078.98 302.69 Q1077.1 300.838 1077.1 295.977 L1077.1 281.903 L1073.98 281.903 L1073.98 278.593 L1077.1 278.593 L1077.1 271.232 L1081.39 271.232 Z" fill="#000000" fill-rule="nonzero" fill-opacity="1" /><path clip-path="url(#clip540)" d="M1107.54 291.486 Q1102.38 291.486 1100.39 292.667 Q1098.4 293.847 1098.4 296.694 Q1098.4 298.963 1099.88 300.305 Q1101.39 301.625 1103.96 301.625 Q1107.5 301.625 1109.63 299.125 Q1111.78 296.602 1111.78 292.435 L1111.78 291.486 L1107.54 291.486 M1116.04 289.727 L1116.04 304.518 L1111.78 304.518 L1111.78 300.583 Q1110.32 302.944 1108.15 304.079 Q1105.97 305.19 1102.82 305.19 Q1098.84 305.19 1096.48 302.967 Q1094.14 300.722 1094.14 296.972 Q1094.14 292.597 1097.06 290.375 Q1100 288.153 1105.81 288.153 L1111.78 288.153 L1111.78 287.736 Q1111.78 284.796 1109.84 283.199 Q1107.91 281.579 1104.42 281.579 Q1102.2 281.579 1100.09 282.111 Q1097.98 282.643 1096.04 283.708 L1096.04 279.773 Q1098.38 278.87 1100.58 278.431 Q1102.78 277.968 1104.86 277.968 Q1110.48 277.968 1113.26 280.884 Q1116.04 283.801 1116.04 289.727 Z" fill="#000000" fill-rule="nonzero" fill-opacity="1" /><polyline clip-path="url(#clip540)" style="stroke:#009af9; stroke-linecap:round; stroke-linejoin:round; stroke-width:4; stroke-opacity:1; fill:none" points="335.16,339.078 496.015,339.078 "/>
<path clip-path="url(#clip540)" d="M522.824 321.798 L527.5 321.798 L527.5 356.358 L522.824 356.358 L522.824 321.798 Z" fill="#000000" fill-rule="nonzero" fill-opacity="1" /><path clip-path="url(#clip540)" d="M558.171 340.71 L558.171 356.358 L553.912 356.358 L553.912 340.849 Q553.912 337.169 552.477 335.34 Q551.042 333.511 548.172 333.511 Q544.722 333.511 542.732 335.71 Q540.741 337.909 540.741 341.706 L540.741 356.358 L536.459 356.358 L536.459 330.433 L540.741 330.433 L540.741 334.46 Q542.269 332.122 544.329 330.965 Q546.412 329.808 549.121 329.808 Q553.588 329.808 555.88 332.585 Q558.171 335.34 558.171 340.71 Z" fill="#000000" fill-rule="nonzero" fill-opacity="1" /><path clip-path="url(#clip540)" d="M579.792 320.34 L579.792 323.882 L575.718 323.882 Q573.426 323.882 572.523 324.808 Q571.644 325.734 571.644 328.141 L571.644 330.433 L578.657 330.433 L578.657 333.743 L571.644 333.743 L571.644 356.358 L567.361 356.358 L567.361 333.743 L563.287 333.743 L563.287 330.433 L567.361 330.433 L567.361 328.627 Q567.361 324.298 569.375 322.331 Q571.389 320.34 575.764 320.34 L579.792 320.34 Z" fill="#000000" fill-rule="nonzero" fill-opacity="1" /><path clip-path="url(#clip540)" d="M605.532 342.331 L605.532 344.414 L585.949 344.414 Q586.227 348.812 588.588 351.127 Q590.972 353.419 595.208 353.419 Q597.662 353.419 599.954 352.817 Q602.268 352.215 604.537 351.011 L604.537 355.039 Q602.245 356.011 599.838 356.52 Q597.431 357.03 594.954 357.03 Q588.75 357.03 585.116 353.419 Q581.505 349.807 581.505 343.65 Q581.505 337.284 584.931 333.558 Q588.38 329.808 594.213 329.808 Q599.444 329.808 602.477 333.187 Q605.532 336.544 605.532 342.331 M601.273 341.081 Q601.227 337.585 599.306 335.502 Q597.407 333.419 594.259 333.419 Q590.694 333.419 588.542 335.433 Q586.412 337.446 586.088 341.104 L601.273 341.081 Z" fill="#000000" fill-rule="nonzero" fill-opacity="1" /><path clip-path="url(#clip540)" d="M627.546 334.414 Q626.829 333.997 625.972 333.812 Q625.139 333.604 624.12 333.604 Q620.509 333.604 618.565 335.965 Q616.643 338.303 616.643 342.701 L616.643 356.358 L612.361 356.358 L612.361 330.433 L616.643 330.433 L616.643 334.46 Q617.986 332.099 620.139 330.965 Q622.292 329.808 625.37 329.808 Q625.81 329.808 626.342 329.877 Q626.875 329.923 627.523 330.039 L627.546 334.414 Z" fill="#000000" fill-rule="nonzero" fill-opacity="1" /><path clip-path="url(#clip540)" d="M646.203 334.414 Q645.486 333.997 644.629 333.812 Q643.796 333.604 642.778 333.604 Q639.166 333.604 637.222 335.965 Q635.301 338.303 635.301 342.701 L635.301 356.358 L631.018 356.358 L631.018 330.433 L635.301 330.433 L635.301 334.46 Q636.643 332.099 638.796 330.965 Q640.949 329.808 644.028 329.808 Q644.467 329.808 645 329.877 Q645.532 329.923 646.18 330.039 L646.203 334.414 Z" fill="#000000" fill-rule="nonzero" fill-opacity="1" /><path clip-path="url(#clip540)" d="M671.805 342.331 L671.805 344.414 L652.222 344.414 Q652.5 348.812 654.861 351.127 Q657.245 353.419 661.481 353.419 Q663.935 353.419 666.226 352.817 Q668.541 352.215 670.81 351.011 L670.81 355.039 Q668.518 356.011 666.111 356.52 Q663.703 357.03 661.226 357.03 Q655.023 357.03 651.389 353.419 Q647.777 349.807 647.777 343.65 Q647.777 337.284 651.203 333.558 Q654.652 329.808 660.486 329.808 Q665.717 329.808 668.75 333.187 Q671.805 336.544 671.805 342.331 M667.546 341.081 Q667.5 337.585 665.578 335.502 Q663.68 333.419 660.532 333.419 Q656.967 333.419 654.814 335.433 Q652.685 337.446 652.361 341.104 L667.546 341.081 Z" fill="#000000" fill-rule="nonzero" fill-opacity="1" /><path clip-path="url(#clip540)" d="M695.856 334.368 L695.856 320.34 L700.115 320.34 L700.115 356.358 L695.856 356.358 L695.856 352.469 Q694.513 354.784 692.453 355.919 Q690.416 357.03 687.546 357.03 Q682.847 357.03 679.884 353.28 Q676.944 349.53 676.944 343.419 Q676.944 337.308 679.884 333.558 Q682.847 329.808 687.546 329.808 Q690.416 329.808 692.453 330.942 Q694.513 332.053 695.856 334.368 M681.342 343.419 Q681.342 348.118 683.263 350.803 Q685.208 353.465 688.587 353.465 Q691.967 353.465 693.911 350.803 Q695.856 348.118 695.856 343.419 Q695.856 338.72 693.911 336.058 Q691.967 333.372 688.587 333.372 Q685.208 333.372 683.263 336.058 Q681.342 338.72 681.342 343.419 Z" fill="#000000" fill-rule="nonzero" fill-opacity="1" /><path clip-path="url(#clip540)" d="M728.078 352.469 L728.078 366.219 L723.796 366.219 L723.796 330.433 L728.078 330.433 L728.078 334.368 Q729.421 332.053 731.458 330.942 Q733.518 329.808 736.365 329.808 Q741.087 329.808 744.027 333.558 Q746.99 337.308 746.99 343.419 Q746.99 349.53 744.027 353.28 Q741.087 357.03 736.365 357.03 Q733.518 357.03 731.458 355.919 Q729.421 354.784 728.078 352.469 M742.569 343.419 Q742.569 338.72 740.624 336.058 Q738.703 333.372 735.323 333.372 Q731.944 333.372 729.999 336.058 Q728.078 338.72 728.078 343.419 Q728.078 348.118 729.999 350.803 Q731.944 353.465 735.323 353.465 Q738.703 353.465 740.624 350.803 Q742.569 348.118 742.569 343.419 Z" fill="#000000" fill-rule="nonzero" fill-opacity="1" /><path clip-path="url(#clip540)" d="M769.073 334.414 Q768.356 333.997 767.499 333.812 Q766.666 333.604 765.647 333.604 Q762.036 333.604 760.092 335.965 Q758.17 338.303 758.17 342.701 L758.17 356.358 L753.888 356.358 L753.888 330.433 L758.17 330.433 L758.17 334.46 Q759.513 332.099 761.666 330.965 Q763.819 329.808 766.897 329.808 Q767.337 329.808 767.869 329.877 Q768.402 329.923 769.05 330.039 L769.073 334.414 Z" fill="#000000" fill-rule="nonzero" fill-opacity="1" /><path clip-path="url(#clip540)" d="M794.675 342.331 L794.675 344.414 L775.092 344.414 Q775.369 348.812 777.73 351.127 Q780.115 353.419 784.351 353.419 Q786.805 353.419 789.096 352.817 Q791.411 352.215 793.679 351.011 L793.679 355.039 Q791.388 356.011 788.98 356.52 Q786.573 357.03 784.096 357.03 Q777.893 357.03 774.258 353.419 Q770.647 349.807 770.647 343.65 Q770.647 337.284 774.073 333.558 Q777.522 329.808 783.355 329.808 Q788.587 329.808 791.619 333.187 Q794.675 336.544 794.675 342.331 M790.416 341.081 Q790.369 337.585 788.448 335.502 Q786.55 333.419 783.402 333.419 Q779.837 333.419 777.684 335.433 Q775.555 337.446 775.231 341.104 L790.416 341.081 Z" fill="#000000" fill-rule="nonzero" fill-opacity="1" /><path clip-path="url(#clip540)" d="M812.453 358.766 Q810.647 363.395 808.934 364.807 Q807.221 366.219 804.351 366.219 L800.948 366.219 L800.948 362.655 L803.448 362.655 Q805.207 362.655 806.179 361.821 Q807.152 360.988 808.332 357.886 L809.096 355.942 L798.61 330.433 L803.124 330.433 L811.226 350.71 L819.327 330.433 L823.841 330.433 L812.453 358.766 Z" fill="#000000" fill-rule="nonzero" fill-opacity="1" /><path clip-path="url(#clip540)" d="M856.573 343.326 Q851.411 343.326 849.42 344.507 Q847.429 345.687 847.429 348.534 Q847.429 350.803 848.911 352.145 Q850.415 353.465 852.985 353.465 Q856.526 353.465 858.656 350.965 Q860.809 348.442 860.809 344.275 L860.809 343.326 L856.573 343.326 M865.068 341.567 L865.068 356.358 L860.809 356.358 L860.809 352.423 Q859.35 354.784 857.175 355.919 Q854.999 357.03 851.85 357.03 Q847.869 357.03 845.508 354.807 Q843.17 352.562 843.17 348.812 Q843.17 344.437 846.087 342.215 Q849.026 339.993 854.837 339.993 L860.809 339.993 L860.809 339.576 Q860.809 336.636 858.864 335.039 Q856.943 333.419 853.448 333.419 Q851.225 333.419 849.119 333.951 Q847.013 334.483 845.068 335.548 L845.068 331.613 Q847.406 330.71 849.605 330.271 Q851.804 329.808 853.887 329.808 Q859.512 329.808 862.29 332.724 Q865.068 335.641 865.068 341.567 Z" fill="#000000" fill-rule="nonzero" fill-opacity="1" /><path clip-path="url(#clip540)" d="M892.452 343.419 Q892.452 338.72 890.508 336.058 Q888.586 333.372 885.207 333.372 Q881.827 333.372 879.883 336.058 Q877.961 338.72 877.961 343.419 Q877.961 348.118 879.883 350.803 Q881.827 353.465 885.207 353.465 Q888.586 353.465 890.508 350.803 Q892.452 348.118 892.452 343.419 M877.961 334.368 Q879.304 332.053 881.341 330.942 Q883.401 329.808 886.248 329.808 Q890.971 329.808 893.91 333.558 Q896.873 337.308 896.873 343.419 Q896.873 349.53 893.91 353.28 Q890.971 357.03 886.248 357.03 Q883.401 357.03 881.341 355.919 Q879.304 354.784 877.961 352.469 L877.961 356.358 L873.679 356.358 L873.679 320.34 L877.961 320.34 L877.961 334.368 Z" fill="#000000" fill-rule="nonzero" fill-opacity="1" /><path clip-path="url(#clip540)" d="M903.494 346.127 L903.494 330.433 L907.753 330.433 L907.753 345.965 Q907.753 349.645 909.188 351.497 Q910.623 353.326 913.494 353.326 Q916.943 353.326 918.933 351.127 Q920.947 348.928 920.947 345.132 L920.947 330.433 L925.207 330.433 L925.207 356.358 L920.947 356.358 L920.947 352.377 Q919.396 354.738 917.336 355.895 Q915.299 357.03 912.591 357.03 Q908.123 357.03 905.809 354.252 Q903.494 351.474 903.494 346.127 M914.211 329.808 L914.211 329.808 Z" fill="#000000" fill-rule="nonzero" fill-opacity="1" /><path clip-path="url(#clip540)" d="M955.53 340.71 L955.53 356.358 L951.271 356.358 L951.271 340.849 Q951.271 337.169 949.836 335.34 Q948.401 333.511 945.531 333.511 Q942.081 333.511 940.091 335.71 Q938.1 337.909 938.1 341.706 L938.1 356.358 L933.818 356.358 L933.818 330.433 L938.1 330.433 L938.1 334.46 Q939.628 332.122 941.688 330.965 Q943.771 329.808 946.48 329.808 Q950.947 329.808 953.239 332.585 Q955.53 335.34 955.53 340.71 Z" fill="#000000" fill-rule="nonzero" fill-opacity="1" /><path clip-path="url(#clip540)" d="M981.086 334.368 L981.086 320.34 L985.345 320.34 L985.345 356.358 L981.086 356.358 L981.086 352.469 Q979.743 354.784 977.683 355.919 Q975.646 357.03 972.776 357.03 Q968.077 357.03 965.114 353.28 Q962.174 349.53 962.174 343.419 Q962.174 337.308 965.114 333.558 Q968.077 329.808 972.776 329.808 Q975.646 329.808 977.683 330.942 Q979.743 332.053 981.086 334.368 M966.572 343.419 Q966.572 348.118 968.493 350.803 Q970.438 353.465 973.817 353.465 Q977.197 353.465 979.141 350.803 Q981.086 348.118 981.086 343.419 Q981.086 338.72 979.141 336.058 Q977.197 333.372 973.817 333.372 Q970.438 333.372 968.493 336.058 Q966.572 338.72 966.572 343.419 Z" fill="#000000" fill-rule="nonzero" fill-opacity="1" /><path clip-path="url(#clip540)" d="M1005.9 343.326 Q1000.74 343.326 998.748 344.507 Q996.757 345.687 996.757 348.534 Q996.757 350.803 998.239 352.145 Q999.743 353.465 1002.31 353.465 Q1005.85 353.465 1007.98 350.965 Q1010.14 348.442 1010.14 344.275 L1010.14 343.326 L1005.9 343.326 M1014.4 341.567 L1014.4 356.358 L1010.14 356.358 L1010.14 352.423 Q1008.68 354.784 1006.5 355.919 Q1004.33 357.03 1001.18 357.03 Q997.197 357.03 994.836 354.807 Q992.498 352.562 992.498 348.812 Q992.498 344.437 995.415 342.215 Q998.354 339.993 1004.16 339.993 L1010.14 339.993 L1010.14 339.576 Q1010.14 336.636 1008.19 335.039 Q1006.27 333.419 1002.78 333.419 Q1000.55 333.419 998.447 333.951 Q996.34 334.483 994.396 335.548 L994.396 331.613 Q996.734 330.71 998.933 330.271 Q1001.13 329.808 1003.22 329.808 Q1008.84 329.808 1011.62 332.724 Q1014.4 335.641 1014.4 341.567 Z" fill="#000000" fill-rule="nonzero" fill-opacity="1" /><path clip-path="url(#clip540)" d="M1044.72 340.71 L1044.72 356.358 L1040.46 356.358 L1040.46 340.849 Q1040.46 337.169 1039.03 335.34 Q1037.59 333.511 1034.72 333.511 Q1031.27 333.511 1029.28 335.71 Q1027.29 337.909 1027.29 341.706 L1027.29 356.358 L1023.01 356.358 L1023.01 330.433 L1027.29 330.433 L1027.29 334.46 Q1028.82 332.122 1030.88 330.965 Q1032.96 329.808 1035.67 329.808 Q1040.14 329.808 1042.43 332.585 Q1044.72 335.34 1044.72 340.71 Z" fill="#000000" fill-rule="nonzero" fill-opacity="1" /><path clip-path="url(#clip540)" d="M1071.87 331.428 L1071.87 335.409 Q1070.07 334.414 1068.24 333.928 Q1066.43 333.419 1064.58 333.419 Q1060.44 333.419 1058.15 336.058 Q1055.85 338.673 1055.85 343.419 Q1055.85 348.164 1058.15 350.803 Q1060.44 353.419 1064.58 353.419 Q1066.43 353.419 1068.24 352.932 Q1070.07 352.423 1071.87 351.428 L1071.87 355.363 Q1070.09 356.196 1068.17 356.613 Q1066.27 357.03 1064.12 357.03 Q1058.26 357.03 1054.81 353.349 Q1051.36 349.669 1051.36 343.419 Q1051.36 337.076 1054.84 333.442 Q1058.33 329.808 1064.4 329.808 Q1066.36 329.808 1068.24 330.224 Q1070.11 330.618 1071.87 331.428 Z" fill="#000000" fill-rule="nonzero" fill-opacity="1" /><path clip-path="url(#clip540)" d="M1101.46 342.331 L1101.46 344.414 L1081.87 344.414 Q1082.15 348.812 1084.51 351.127 Q1086.9 353.419 1091.13 353.419 Q1093.59 353.419 1095.88 352.817 Q1098.19 352.215 1100.46 351.011 L1100.46 355.039 Q1098.17 356.011 1095.76 356.52 Q1093.35 357.03 1090.88 357.03 Q1084.67 357.03 1081.04 353.419 Q1077.43 349.807 1077.43 343.65 Q1077.43 337.284 1080.85 333.558 Q1084.3 329.808 1090.14 329.808 Q1095.37 329.808 1098.4 333.187 Q1101.46 336.544 1101.46 342.331 M1097.2 341.081 Q1097.15 337.585 1095.23 335.502 Q1093.33 333.419 1090.18 333.419 Q1086.62 333.419 1084.46 335.433 Q1082.34 337.446 1082.01 341.104 L1097.2 341.081 Z" fill="#000000" fill-rule="nonzero" fill-opacity="1" /><polyline clip-path="url(#clip540)" style="stroke:#e26f46; stroke-linecap:round; stroke-linejoin:round; stroke-width:4; stroke-opacity:1; fill:none" points="335.16,390.918 496.015,390.918 "/>
<path clip-path="url(#clip540)" d="M522.824 373.638 L527.5 373.638 L527.5 408.198 L522.824 408.198 L522.824 373.638 Z" fill="#000000" fill-rule="nonzero" fill-opacity="1" /><path clip-path="url(#clip540)" d="M558.171 392.55 L558.171 408.198 L553.912 408.198 L553.912 392.689 Q553.912 389.009 552.477 387.18 Q551.042 385.351 548.172 385.351 Q544.722 385.351 542.732 387.55 Q540.741 389.749 540.741 393.546 L540.741 408.198 L536.459 408.198 L536.459 382.273 L540.741 382.273 L540.741 386.3 Q542.269 383.962 544.329 382.805 Q546.412 381.648 549.121 381.648 Q553.588 381.648 555.88 384.425 Q558.171 387.18 558.171 392.55 Z" fill="#000000" fill-rule="nonzero" fill-opacity="1" /><path clip-path="url(#clip540)" d="M579.792 372.18 L579.792 375.722 L575.718 375.722 Q573.426 375.722 572.523 376.648 Q571.644 377.574 571.644 379.981 L571.644 382.273 L578.657 382.273 L578.657 385.583 L571.644 385.583 L571.644 408.198 L567.361 408.198 L567.361 385.583 L563.287 385.583 L563.287 382.273 L567.361 382.273 L567.361 380.467 Q567.361 376.138 569.375 374.171 Q571.389 372.18 575.764 372.18 L579.792 372.18 Z" fill="#000000" fill-rule="nonzero" fill-opacity="1" /><path clip-path="url(#clip540)" d="M605.532 394.171 L605.532 396.254 L585.949 396.254 Q586.227 400.652 588.588 402.967 Q590.972 405.259 595.208 405.259 Q597.662 405.259 599.954 404.657 Q602.268 404.055 604.537 402.851 L604.537 406.879 Q602.245 407.851 599.838 408.36 Q597.431 408.87 594.954 408.87 Q588.75 408.87 585.116 405.259 Q581.505 401.647 581.505 395.49 Q581.505 389.124 584.931 385.398 Q588.38 381.648 594.213 381.648 Q599.444 381.648 602.477 385.027 Q605.532 388.384 605.532 394.171 M601.273 392.921 Q601.227 389.425 599.306 387.342 Q597.407 385.259 594.259 385.259 Q590.694 385.259 588.542 387.273 Q586.412 389.286 586.088 392.944 L601.273 392.921 Z" fill="#000000" fill-rule="nonzero" fill-opacity="1" /><path clip-path="url(#clip540)" d="M627.546 386.254 Q626.829 385.837 625.972 385.652 Q625.139 385.444 624.12 385.444 Q620.509 385.444 618.565 387.805 Q616.643 390.143 616.643 394.541 L616.643 408.198 L612.361 408.198 L612.361 382.273 L616.643 382.273 L616.643 386.3 Q617.986 383.939 620.139 382.805 Q622.292 381.648 625.37 381.648 Q625.81 381.648 626.342 381.717 Q626.875 381.763 627.523 381.879 L627.546 386.254 Z" fill="#000000" fill-rule="nonzero" fill-opacity="1" /><path clip-path="url(#clip540)" d="M646.203 386.254 Q645.486 385.837 644.629 385.652 Q643.796 385.444 642.778 385.444 Q639.166 385.444 637.222 387.805 Q635.301 390.143 635.301 394.541 L635.301 408.198 L631.018 408.198 L631.018 382.273 L635.301 382.273 L635.301 386.3 Q636.643 383.939 638.796 382.805 Q640.949 381.648 644.028 381.648 Q644.467 381.648 645 381.717 Q645.532 381.763 646.18 381.879 L646.203 386.254 Z" fill="#000000" fill-rule="nonzero" fill-opacity="1" /><path clip-path="url(#clip540)" d="M671.805 394.171 L671.805 396.254 L652.222 396.254 Q652.5 400.652 654.861 402.967 Q657.245 405.259 661.481 405.259 Q663.935 405.259 666.226 404.657 Q668.541 404.055 670.81 402.851 L670.81 406.879 Q668.518 407.851 666.111 408.36 Q663.703 408.87 661.226 408.87 Q655.023 408.87 651.389 405.259 Q647.777 401.647 647.777 395.49 Q647.777 389.124 651.203 385.398 Q654.652 381.648 660.486 381.648 Q665.717 381.648 668.75 385.027 Q671.805 388.384 671.805 394.171 M667.546 392.921 Q667.5 389.425 665.578 387.342 Q663.68 385.259 660.532 385.259 Q656.967 385.259 654.814 387.273 Q652.685 389.286 652.361 392.944 L667.546 392.921 Z" fill="#000000" fill-rule="nonzero" fill-opacity="1" /><path clip-path="url(#clip540)" d="M695.856 386.208 L695.856 372.18 L700.115 372.18 L700.115 408.198 L695.856 408.198 L695.856 404.309 Q694.513 406.624 692.453 407.759 Q690.416 408.87 687.546 408.87 Q682.847 408.87 679.884 405.12 Q676.944 401.37 676.944 395.259 Q676.944 389.148 679.884 385.398 Q682.847 381.648 687.546 381.648 Q690.416 381.648 692.453 382.782 Q694.513 383.893 695.856 386.208 M681.342 395.259 Q681.342 399.958 683.263 402.643 Q685.208 405.305 688.587 405.305 Q691.967 405.305 693.911 402.643 Q695.856 399.958 695.856 395.259 Q695.856 390.56 693.911 387.898 Q691.967 385.212 688.587 385.212 Q685.208 385.212 683.263 387.898 Q681.342 390.56 681.342 395.259 Z" fill="#000000" fill-rule="nonzero" fill-opacity="1" /><path clip-path="url(#clip540)" d="M728.078 404.309 L728.078 418.059 L723.796 418.059 L723.796 382.273 L728.078 382.273 L728.078 386.208 Q729.421 383.893 731.458 382.782 Q733.518 381.648 736.365 381.648 Q741.087 381.648 744.027 385.398 Q746.99 389.148 746.99 395.259 Q746.99 401.37 744.027 405.12 Q741.087 408.87 736.365 408.87 Q733.518 408.87 731.458 407.759 Q729.421 406.624 728.078 404.309 M742.569 395.259 Q742.569 390.56 740.624 387.898 Q738.703 385.212 735.323 385.212 Q731.944 385.212 729.999 387.898 Q728.078 390.56 728.078 395.259 Q728.078 399.958 729.999 402.643 Q731.944 405.305 735.323 405.305 Q738.703 405.305 740.624 402.643 Q742.569 399.958 742.569 395.259 Z" fill="#000000" fill-rule="nonzero" fill-opacity="1" /><path clip-path="url(#clip540)" d="M769.073 386.254 Q768.356 385.837 767.499 385.652 Q766.666 385.444 765.647 385.444 Q762.036 385.444 760.092 387.805 Q758.17 390.143 758.17 394.541 L758.17 408.198 L753.888 408.198 L753.888 382.273 L758.17 382.273 L758.17 386.3 Q759.513 383.939 761.666 382.805 Q763.819 381.648 766.897 381.648 Q767.337 381.648 767.869 381.717 Q768.402 381.763 769.05 381.879 L769.073 386.254 Z" fill="#000000" fill-rule="nonzero" fill-opacity="1" /><path clip-path="url(#clip540)" d="M794.675 394.171 L794.675 396.254 L775.092 396.254 Q775.369 400.652 777.73 402.967 Q780.115 405.259 784.351 405.259 Q786.805 405.259 789.096 404.657 Q791.411 404.055 793.679 402.851 L793.679 406.879 Q791.388 407.851 788.98 408.36 Q786.573 408.87 784.096 408.87 Q777.893 408.87 774.258 405.259 Q770.647 401.647 770.647 395.49 Q770.647 389.124 774.073 385.398 Q777.522 381.648 783.355 381.648 Q788.587 381.648 791.619 385.027 Q794.675 388.384 794.675 394.171 M790.416 392.921 Q790.369 389.425 788.448 387.342 Q786.55 385.259 783.402 385.259 Q779.837 385.259 777.684 387.273 Q775.555 389.286 775.231 392.944 L790.416 392.921 Z" fill="#000000" fill-rule="nonzero" fill-opacity="1" /><path clip-path="url(#clip540)" d="M818.726 386.208 L818.726 372.18 L822.985 372.18 L822.985 408.198 L818.726 408.198 L818.726 404.309 Q817.383 406.624 815.323 407.759 Q813.286 408.87 810.416 408.87 Q805.716 408.87 802.754 405.12 Q799.814 401.37 799.814 395.259 Q799.814 389.148 802.754 385.398 Q805.716 381.648 810.416 381.648 Q813.286 381.648 815.323 382.782 Q817.383 383.893 818.726 386.208 M804.212 395.259 Q804.212 399.958 806.133 402.643 Q808.078 405.305 811.457 405.305 Q814.837 405.305 816.781 402.643 Q818.726 399.958 818.726 395.259 Q818.726 390.56 816.781 387.898 Q814.837 385.212 811.457 385.212 Q808.078 385.212 806.133 387.898 Q804.212 390.56 804.212 395.259 Z" fill="#000000" fill-rule="nonzero" fill-opacity="1" /><path clip-path="url(#clip540)" d="M843.54 395.166 Q838.378 395.166 836.388 396.347 Q834.397 397.527 834.397 400.374 Q834.397 402.643 835.878 403.985 Q837.383 405.305 839.952 405.305 Q843.494 405.305 845.624 402.805 Q847.776 400.282 847.776 396.115 L847.776 395.166 L843.54 395.166 M852.036 393.407 L852.036 408.198 L847.776 408.198 L847.776 404.263 Q846.318 406.624 844.142 407.759 Q841.966 408.87 838.818 408.87 Q834.837 408.87 832.476 406.647 Q830.138 404.402 830.138 400.652 Q830.138 396.277 833.054 394.055 Q835.994 391.833 841.804 391.833 L847.776 391.833 L847.776 391.416 Q847.776 388.476 845.832 386.879 Q843.911 385.259 840.415 385.259 Q838.193 385.259 836.087 385.791 Q833.98 386.323 832.036 387.388 L832.036 383.453 Q834.374 382.55 836.573 382.111 Q838.772 381.648 840.855 381.648 Q846.48 381.648 849.258 384.564 Q852.036 387.481 852.036 393.407 Z" fill="#000000" fill-rule="nonzero" fill-opacity="1" /><path clip-path="url(#clip540)" d="M865.022 374.912 L865.022 382.273 L873.795 382.273 L873.795 385.583 L865.022 385.583 L865.022 399.657 Q865.022 402.828 865.878 403.731 Q866.758 404.634 869.42 404.634 L873.795 404.634 L873.795 408.198 L869.42 408.198 Q864.489 408.198 862.614 406.37 Q860.739 404.518 860.739 399.657 L860.739 385.583 L857.614 385.583 L857.614 382.273 L860.739 382.273 L860.739 374.912 L865.022 374.912 Z" fill="#000000" fill-rule="nonzero" fill-opacity="1" /><path clip-path="url(#clip540)" d="M889.443 385.259 Q886.017 385.259 884.026 387.944 Q882.035 390.606 882.035 395.259 Q882.035 399.911 884.003 402.597 Q885.994 405.259 889.443 405.259 Q892.846 405.259 894.836 402.573 Q896.827 399.888 896.827 395.259 Q896.827 390.652 894.836 387.967 Q892.846 385.259 889.443 385.259 M889.443 381.648 Q894.998 381.648 898.17 385.259 Q901.341 388.87 901.341 395.259 Q901.341 401.624 898.17 405.259 Q894.998 408.87 889.443 408.87 Q883.864 408.87 880.693 405.259 Q877.545 401.624 877.545 395.259 Q877.545 388.87 880.693 385.259 Q883.864 381.648 889.443 381.648 Z" fill="#000000" fill-rule="nonzero" fill-opacity="1" /><path clip-path="url(#clip540)" d="M923.424 386.254 Q922.707 385.837 921.85 385.652 Q921.017 385.444 919.998 385.444 Q916.387 385.444 914.443 387.805 Q912.521 390.143 912.521 394.541 L912.521 408.198 L908.239 408.198 L908.239 382.273 L912.521 382.273 L912.521 386.3 Q913.864 383.939 916.017 382.805 Q918.17 381.648 921.248 381.648 Q921.688 381.648 922.22 381.717 Q922.753 381.763 923.401 381.879 L923.424 386.254 Z" fill="#000000" fill-rule="nonzero" fill-opacity="1" /><path clip-path="url(#clip540)" d="M954.743 395.166 Q949.581 395.166 947.591 396.347 Q945.6 397.527 945.6 400.374 Q945.6 402.643 947.081 403.985 Q948.586 405.305 951.155 405.305 Q954.697 405.305 956.827 402.805 Q958.98 400.282 958.98 396.115 L958.98 395.166 L954.743 395.166 M963.239 393.407 L963.239 408.198 L958.98 408.198 L958.98 404.263 Q957.521 406.624 955.345 407.759 Q953.169 408.87 950.021 408.87 Q946.04 408.87 943.679 406.647 Q941.341 404.402 941.341 400.652 Q941.341 396.277 944.257 394.055 Q947.197 391.833 953.007 391.833 L958.98 391.833 L958.98 391.416 Q958.98 388.476 957.035 386.879 Q955.114 385.259 951.618 385.259 Q949.396 385.259 947.29 385.791 Q945.183 386.323 943.239 387.388 L943.239 383.453 Q945.577 382.55 947.776 382.111 Q949.975 381.648 952.058 381.648 Q957.683 381.648 960.461 384.564 Q963.239 387.481 963.239 393.407 Z" fill="#000000" fill-rule="nonzero" fill-opacity="1" /><path clip-path="url(#clip540)" d="M990.623 395.259 Q990.623 390.56 988.678 387.898 Q986.757 385.212 983.378 385.212 Q979.998 385.212 978.053 387.898 Q976.132 390.56 976.132 395.259 Q976.132 399.958 978.053 402.643 Q979.998 405.305 983.378 405.305 Q986.757 405.305 988.678 402.643 Q990.623 399.958 990.623 395.259 M976.132 386.208 Q977.475 383.893 979.512 382.782 Q981.572 381.648 984.419 381.648 Q989.141 381.648 992.081 385.398 Q995.044 389.148 995.044 395.259 Q995.044 401.37 992.081 405.12 Q989.141 408.87 984.419 408.87 Q981.572 408.87 979.512 407.759 Q977.475 406.624 976.132 404.309 L976.132 408.198 L971.85 408.198 L971.85 372.18 L976.132 372.18 L976.132 386.208 Z" fill="#000000" fill-rule="nonzero" fill-opacity="1" /><path clip-path="url(#clip540)" d="M1001.66 397.967 L1001.66 382.273 L1005.92 382.273 L1005.92 397.805 Q1005.92 401.485 1007.36 403.337 Q1008.79 405.166 1011.66 405.166 Q1015.11 405.166 1017.1 402.967 Q1019.12 400.768 1019.12 396.972 L1019.12 382.273 L1023.38 382.273 L1023.38 408.198 L1019.12 408.198 L1019.12 404.217 Q1017.57 406.578 1015.51 407.735 Q1013.47 408.87 1010.76 408.87 Q1006.29 408.87 1003.98 406.092 Q1001.66 403.314 1001.66 397.967 M1012.38 381.648 L1012.38 381.648 Z" fill="#000000" fill-rule="nonzero" fill-opacity="1" /><path clip-path="url(#clip540)" d="M1053.7 392.55 L1053.7 408.198 L1049.44 408.198 L1049.44 392.689 Q1049.44 389.009 1048.01 387.18 Q1046.57 385.351 1043.7 385.351 Q1040.25 385.351 1038.26 387.55 Q1036.27 389.749 1036.27 393.546 L1036.27 408.198 L1031.99 408.198 L1031.99 382.273 L1036.27 382.273 L1036.27 386.3 Q1037.8 383.962 1039.86 382.805 Q1041.94 381.648 1044.65 381.648 Q1049.12 381.648 1051.41 384.425 Q1053.7 387.18 1053.7 392.55 Z" fill="#000000" fill-rule="nonzero" fill-opacity="1" /><path clip-path="url(#clip540)" d="M1079.26 386.208 L1079.26 372.18 L1083.52 372.18 L1083.52 408.198 L1079.26 408.198 L1079.26 404.309 Q1077.91 406.624 1075.85 407.759 Q1073.82 408.87 1070.95 408.87 Q1066.25 408.87 1063.28 405.12 Q1060.34 401.37 1060.34 395.259 Q1060.34 389.148 1063.28 385.398 Q1066.25 381.648 1070.95 381.648 Q1073.82 381.648 1075.85 382.782 Q1077.91 383.893 1079.26 386.208 M1064.74 395.259 Q1064.74 399.958 1066.66 402.643 Q1068.61 405.305 1071.99 405.305 Q1075.37 405.305 1077.31 402.643 Q1079.26 399.958 1079.26 395.259 Q1079.26 390.56 1077.31 387.898 Q1075.37 385.212 1071.99 385.212 Q1068.61 385.212 1066.66 387.898 Q1064.74 390.56 1064.74 395.259 Z" fill="#000000" fill-rule="nonzero" fill-opacity="1" /><path clip-path="url(#clip540)" d="M1104.07 395.166 Q1098.91 395.166 1096.92 396.347 Q1094.93 397.527 1094.93 400.374 Q1094.93 402.643 1096.41 403.985 Q1097.91 405.305 1100.48 405.305 Q1104.03 405.305 1106.15 402.805 Q1108.31 400.282 1108.31 396.115 L1108.31 395.166 L1104.07 395.166 M1112.57 393.407 L1112.57 408.198 L1108.31 408.198 L1108.31 404.263 Q1106.85 406.624 1104.67 407.759 Q1102.5 408.87 1099.35 408.87 Q1095.37 408.87 1093.01 406.647 Q1090.67 404.402 1090.67 400.652 Q1090.67 396.277 1093.59 394.055 Q1096.53 391.833 1102.34 391.833 L1108.31 391.833 L1108.31 391.416 Q1108.31 388.476 1106.36 386.879 Q1104.44 385.259 1100.95 385.259 Q1098.72 385.259 1096.62 385.791 Q1094.51 386.323 1092.57 387.388 L1092.57 383.453 Q1094.9 382.55 1097.1 382.111 Q1099.3 381.648 1101.39 381.648 Q1107.01 381.648 1109.79 384.564 Q1112.57 387.481 1112.57 393.407 Z" fill="#000000" fill-rule="nonzero" fill-opacity="1" /><path clip-path="url(#clip540)" d="M1142.89 392.55 L1142.89 408.198 L1138.63 408.198 L1138.63 392.689 Q1138.63 389.009 1137.2 387.18 Q1135.76 385.351 1132.89 385.351 Q1129.44 385.351 1127.45 387.55 Q1125.46 389.749 1125.46 393.546 L1125.46 408.198 L1121.18 408.198 L1121.18 382.273 L1125.46 382.273 L1125.46 386.3 Q1126.99 383.962 1129.05 382.805 Q1131.13 381.648 1133.84 381.648 Q1138.31 381.648 1140.6 384.425 Q1142.89 387.18 1142.89 392.55 Z" fill="#000000" fill-rule="nonzero" fill-opacity="1" /><path clip-path="url(#clip540)" d="M1170.04 383.268 L1170.04 387.249 Q1168.24 386.254 1166.41 385.768 Q1164.6 385.259 1162.75 385.259 Q1158.61 385.259 1156.32 387.898 Q1154.02 390.513 1154.02 395.259 Q1154.02 400.004 1156.32 402.643 Q1158.61 405.259 1162.75 405.259 Q1164.6 405.259 1166.41 404.772 Q1168.24 404.263 1170.04 403.268 L1170.04 407.203 Q1168.26 408.036 1166.34 408.453 Q1164.44 408.87 1162.29 408.87 Q1156.43 408.87 1152.98 405.189 Q1149.53 401.509 1149.53 395.259 Q1149.53 388.916 1153.01 385.282 Q1156.5 381.648 1162.57 381.648 Q1164.53 381.648 1166.41 382.064 Q1168.28 382.458 1170.04 383.268 Z" fill="#000000" fill-rule="nonzero" fill-opacity="1" /><path clip-path="url(#clip540)" d="M1199.63 394.171 L1199.63 396.254 L1180.04 396.254 Q1180.32 400.652 1182.68 402.967 Q1185.07 405.259 1189.3 405.259 Q1191.76 405.259 1194.05 404.657 Q1196.36 404.055 1198.63 402.851 L1198.63 406.879 Q1196.34 407.851 1193.93 408.36 Q1191.52 408.87 1189.05 408.87 Q1182.84 408.87 1179.21 405.259 Q1175.6 401.647 1175.6 395.49 Q1175.6 389.124 1179.02 385.398 Q1182.47 381.648 1188.31 381.648 Q1193.54 381.648 1196.57 385.027 Q1199.63 388.384 1199.63 394.171 M1195.37 392.921 Q1195.32 389.425 1193.4 387.342 Q1191.5 385.259 1188.35 385.259 Q1184.79 385.259 1182.64 387.273 Q1180.51 389.286 1180.18 392.944 L1195.37 392.921 Z" fill="#000000" fill-rule="nonzero" fill-opacity="1" /></svg>
