<?xml version="1.0" encoding="utf-8"?>
<svg xmlns="http://www.w3.org/2000/svg" xmlns:xlink="http://www.w3.org/1999/xlink" width="672" height="480" viewBox="0 0 2688 1920">
<defs>
  <clipPath id="clip300">
    <rect x="0" y="0" width="2688" height="1920"/>
  </clipPath>
</defs>
<path clip-path="url(#clip300)" d="M0 1920 L2688 1920 L2688 -4.26326e-14 L0 -4.26326e-14  Z" fill="#ffffff" fill-rule="evenodd" fill-opacity="1"/>
<defs>
  <clipPath id="clip301">
    <rect x="537" y="0" width="1883" height="1883"/>
  </clipPath>
</defs>
<path clip-path="url(#clip300)" d="M189.154 1800.78 L2640.76 1800.78 L2640.76 47.2441 L189.154 47.2441  Z" fill="#ffffff" fill-rule="evenodd" fill-opacity="1"/>
<defs>
  <clipPath id="clip302">
    <rect x="189" y="47" width="2453" height="1755"/>
  </clipPath>
</defs>
<polyline clip-path="url(#clip302)" style="stroke:#000000; stroke-linecap:round; stroke-linejoin:round; stroke-width:2; stroke-opacity:0.1; fill:none" points="258.539,1800.78 258.539,47.2441 "/>
<polyline clip-path="url(#clip302)" style="stroke:#000000; stroke-linecap:round; stroke-linejoin:round; stroke-width:2; stroke-opacity:0.1; fill:none" points="836.747,1800.78 836.747,47.2441 "/>
<polyline clip-path="url(#clip302)" style="stroke:#000000; stroke-linecap:round; stroke-linejoin:round; stroke-width:2; stroke-opacity:0.1; fill:none" points="1414.95,1800.78 1414.95,47.2441 "/>
<polyline clip-path="url(#clip302)" style="stroke:#000000; stroke-linecap:round; stroke-linejoin:round; stroke-width:2; stroke-opacity:0.1; fill:none" points="1993.16,1800.78 1993.16,47.2441 "/>
<polyline clip-path="url(#clip302)" style="stroke:#000000; stroke-linecap:round; stroke-linejoin:round; stroke-width:2; stroke-opacity:0.1; fill:none" points="2571.37,1800.78 2571.37,47.2441 "/>
<polyline clip-path="url(#clip300)" style="stroke:#000000; stroke-linecap:round; stroke-linejoin:round; stroke-width:4; stroke-opacity:1; fill:none" points="189.154,1800.78 2640.76,1800.78 "/>
<polyline clip-path="url(#clip300)" style="stroke:#000000; stroke-linecap:round; stroke-linejoin:round; stroke-width:4; stroke-opacity:1; fill:none" points="258.539,1800.78 258.539,1781.88 "/>
<polyline clip-path="url(#clip300)" style="stroke:#000000; stroke-linecap:round; stroke-linejoin:round; stroke-width:4; stroke-opacity:1; fill:none" points="836.747,1800.78 836.747,1781.88 "/>
<polyline clip-path="url(#clip300)" style="stroke:#000000; stroke-linecap:round; stroke-linejoin:round; stroke-width:4; stroke-opacity:1; fill:none" points="1414.95,1800.78 1414.95,1781.88 "/>
<polyline clip-path="url(#clip300)" style="stroke:#000000; stroke-linecap:round; stroke-linejoin:round; stroke-width:4; stroke-opacity:1; fill:none" points="1993.16,1800.78 1993.16,1781.88 "/>
<polyline clip-path="url(#clip300)" style="stroke:#000000; stroke-linecap:round; stroke-linejoin:round; stroke-width:4; stroke-opacity:1; fill:none" points="2571.37,1800.78 2571.37,1781.88 "/>
<path clip-path="url(#clip300)" d="M258.539 1834 Q254.928 1834 253.099 1837.57 Q251.294 1841.11 251.294 1848.24 Q251.294 1855.34 253.099 1858.91 Q254.928 1862.45 258.539 1862.45 Q262.173 1862.45 263.979 1858.91 Q265.807 1855.34 265.807 1848.24 Q265.807 1841.11 263.979 1837.57 Q262.173 1834 258.539 1834 M258.539 1830.3 Q264.349 1830.3 267.405 1834.9 Q270.483 1839.49 270.483 1848.24 Q270.483 1856.96 267.405 1861.57 Q264.349 1866.15 258.539 1866.15 Q252.729 1866.15 249.65 1861.57 Q246.595 1856.96 246.595 1848.24 Q246.595 1839.49 249.65 1834.9 Q252.729 1830.3 258.539 1830.3 Z" fill="#000000" fill-rule="nonzero" fill-opacity="1" /><path clip-path="url(#clip300)" d="M827.025 1830.92 L845.381 1830.92 L845.381 1834.86 L831.307 1834.86 L831.307 1843.33 Q832.326 1842.98 833.344 1842.82 Q834.363 1842.64 835.381 1842.64 Q841.168 1842.64 844.548 1845.81 Q847.927 1848.98 847.927 1854.4 Q847.927 1859.97 844.455 1863.08 Q840.983 1866.15 834.664 1866.15 Q832.488 1866.15 830.219 1865.78 Q827.974 1865.41 825.566 1864.67 L825.566 1859.97 Q827.65 1861.11 829.872 1861.66 Q832.094 1862.22 834.571 1862.22 Q838.576 1862.22 840.914 1860.11 Q843.252 1858.01 843.252 1854.4 Q843.252 1850.78 840.914 1848.68 Q838.576 1846.57 834.571 1846.57 Q832.696 1846.57 830.821 1846.99 Q828.969 1847.4 827.025 1848.28 L827.025 1830.92 Z" fill="#000000" fill-rule="nonzero" fill-opacity="1" /><path clip-path="url(#clip300)" d="M1389.64 1861.55 L1397.28 1861.55 L1397.28 1835.18 L1388.97 1836.85 L1388.97 1832.59 L1397.24 1830.92 L1401.91 1830.92 L1401.91 1861.55 L1409.55 1861.55 L1409.55 1865.48 L1389.64 1865.48 L1389.64 1861.55 Z" fill="#000000" fill-rule="nonzero" fill-opacity="1" /><path clip-path="url(#clip300)" d="M1428.99 1834 Q1425.38 1834 1423.55 1837.57 Q1421.75 1841.11 1421.75 1848.24 Q1421.75 1855.34 1423.55 1858.91 Q1425.38 1862.45 1428.99 1862.45 Q1432.63 1862.45 1434.43 1858.91 Q1436.26 1855.34 1436.26 1848.24 Q1436.26 1841.11 1434.43 1837.57 Q1432.63 1834 1428.99 1834 M1428.99 1830.3 Q1434.8 1830.3 1437.86 1834.9 Q1440.94 1839.49 1440.94 1848.24 Q1440.94 1856.96 1437.86 1861.57 Q1434.8 1866.15 1428.99 1866.15 Q1423.18 1866.15 1420.11 1861.57 Q1417.05 1856.96 1417.05 1848.24 Q1417.05 1839.49 1420.11 1834.9 Q1423.18 1830.3 1428.99 1830.3 Z" fill="#000000" fill-rule="nonzero" fill-opacity="1" /><path clip-path="url(#clip300)" d="M1968.35 1861.55 L1975.99 1861.55 L1975.99 1835.18 L1967.68 1836.85 L1967.68 1832.59 L1975.94 1830.92 L1980.62 1830.92 L1980.62 1861.55 L1988.26 1861.55 L1988.26 1865.48 L1968.35 1865.48 L1968.35 1861.55 Z" fill="#000000" fill-rule="nonzero" fill-opacity="1" /><path clip-path="url(#clip300)" d="M1997.75 1830.92 L2016.1 1830.92 L2016.1 1834.86 L2002.03 1834.86 L2002.03 1843.33 Q2003.05 1842.98 2004.07 1842.82 Q2005.08 1842.64 2006.1 1842.64 Q2011.89 1842.64 2015.27 1845.81 Q2018.65 1848.98 2018.65 1854.4 Q2018.65 1859.97 2015.18 1863.08 Q2011.7 1866.15 2005.39 1866.15 Q2003.21 1866.15 2000.94 1865.78 Q1998.7 1865.41 1996.29 1864.67 L1996.29 1859.97 Q1998.37 1861.11 2000.59 1861.66 Q2002.82 1862.22 2005.29 1862.22 Q2009.3 1862.22 2011.64 1860.11 Q2013.97 1858.01 2013.97 1854.4 Q2013.97 1850.78 2011.64 1848.68 Q2009.3 1846.57 2005.29 1846.57 Q2003.42 1846.57 2001.54 1846.99 Q1999.69 1847.4 1997.75 1848.28 L1997.75 1830.92 Z" fill="#000000" fill-rule="nonzero" fill-opacity="1" /><path clip-path="url(#clip300)" d="M2550.14 1861.55 L2566.46 1861.55 L2566.46 1865.48 L2544.52 1865.48 L2544.52 1861.55 Q2547.18 1858.79 2551.76 1854.16 Q2556.37 1849.51 2557.55 1848.17 Q2559.8 1845.65 2560.68 1843.91 Q2561.58 1842.15 2561.58 1840.46 Q2561.58 1837.71 2559.63 1835.97 Q2557.71 1834.23 2554.61 1834.23 Q2552.41 1834.23 2549.96 1835 Q2547.53 1835.76 2544.75 1837.31 L2544.75 1832.59 Q2547.57 1831.46 2550.03 1830.88 Q2552.48 1830.3 2554.52 1830.3 Q2559.89 1830.3 2563.08 1832.98 Q2566.28 1835.67 2566.28 1840.16 Q2566.28 1842.29 2565.47 1844.21 Q2564.68 1846.11 2562.57 1848.7 Q2562 1849.37 2558.89 1852.59 Q2555.79 1855.78 2550.14 1861.55 Z" fill="#000000" fill-rule="nonzero" fill-opacity="1" /><path clip-path="url(#clip300)" d="M2586.28 1834 Q2582.67 1834 2580.84 1837.57 Q2579.03 1841.11 2579.03 1848.24 Q2579.03 1855.34 2580.84 1858.91 Q2582.67 1862.45 2586.28 1862.45 Q2589.91 1862.45 2591.72 1858.91 Q2593.55 1855.34 2593.55 1848.24 Q2593.55 1841.11 2591.72 1837.57 Q2589.91 1834 2586.28 1834 M2586.28 1830.3 Q2592.09 1830.3 2595.14 1834.9 Q2598.22 1839.49 2598.22 1848.24 Q2598.22 1856.96 2595.14 1861.57 Q2592.09 1866.15 2586.28 1866.15 Q2580.47 1866.15 2577.39 1861.57 Q2574.33 1856.96 2574.33 1848.24 Q2574.33 1839.49 2577.39 1834.9 Q2580.47 1830.3 2586.28 1830.3 Z" fill="#000000" fill-rule="nonzero" fill-opacity="1" /><polyline clip-path="url(#clip302)" style="stroke:#000000; stroke-linecap:round; stroke-linejoin:round; stroke-width:2; stroke-opacity:0.1; fill:none" points="189.154,1759.46 2640.76,1759.46 "/>
<polyline clip-path="url(#clip302)" style="stroke:#000000; stroke-linecap:round; stroke-linejoin:round; stroke-width:2; stroke-opacity:0.1; fill:none" points="189.154,1343.82 2640.76,1343.82 "/>
<polyline clip-path="url(#clip302)" style="stroke:#000000; stroke-linecap:round; stroke-linejoin:round; stroke-width:2; stroke-opacity:0.1; fill:none" points="189.154,928.168 2640.76,928.168 "/>
<polyline clip-path="url(#clip302)" style="stroke:#000000; stroke-linecap:round; stroke-linejoin:round; stroke-width:2; stroke-opacity:0.1; fill:none" points="189.154,512.52 2640.76,512.52 "/>
<polyline clip-path="url(#clip302)" style="stroke:#000000; stroke-linecap:round; stroke-linejoin:round; stroke-width:2; stroke-opacity:0.1; fill:none" points="189.154,96.8718 2640.76,96.8718 "/>
<polyline clip-path="url(#clip300)" style="stroke:#000000; stroke-linecap:round; stroke-linejoin:round; stroke-width:4; stroke-opacity:1; fill:none" points="189.154,1800.78 189.154,47.2441 "/>
<polyline clip-path="url(#clip300)" style="stroke:#000000; stroke-linecap:round; stroke-linejoin:round; stroke-width:4; stroke-opacity:1; fill:none" points="189.154,1759.46 208.052,1759.46 "/>
<polyline clip-path="url(#clip300)" style="stroke:#000000; stroke-linecap:round; stroke-linejoin:round; stroke-width:4; stroke-opacity:1; fill:none" points="189.154,1343.82 208.052,1343.82 "/>
<polyline clip-path="url(#clip300)" style="stroke:#000000; stroke-linecap:round; stroke-linejoin:round; stroke-width:4; stroke-opacity:1; fill:none" points="189.154,928.168 208.052,928.168 "/>
<polyline clip-path="url(#clip300)" style="stroke:#000000; stroke-linecap:round; stroke-linejoin:round; stroke-width:4; stroke-opacity:1; fill:none" points="189.154,512.52 208.052,512.52 "/>
<polyline clip-path="url(#clip300)" style="stroke:#000000; stroke-linecap:round; stroke-linejoin:round; stroke-width:4; stroke-opacity:1; fill:none" points="189.154,96.8718 208.052,96.8718 "/>
<path clip-path="url(#clip300)" d="M61.4965 1745.26 Q57.8854 1745.26 56.0567 1748.83 Q54.2512 1752.37 54.2512 1759.5 Q54.2512 1766.61 56.0567 1770.17 Q57.8854 1773.71 61.4965 1773.71 Q65.1307 1773.71 66.9363 1770.17 Q68.765 1766.61 68.765 1759.5 Q68.765 1752.37 66.9363 1748.83 Q65.1307 1745.26 61.4965 1745.26 M61.4965 1741.56 Q67.3067 1741.56 70.3622 1746.17 Q73.4409 1750.75 73.4409 1759.5 Q73.4409 1768.23 70.3622 1772.83 Q67.3067 1777.42 61.4965 1777.42 Q55.6864 1777.42 52.6077 1772.83 Q49.5521 1768.23 49.5521 1759.5 Q49.5521 1750.75 52.6077 1746.17 Q55.6864 1741.56 61.4965 1741.56 Z" fill="#000000" fill-rule="nonzero" fill-opacity="1" /><path clip-path="url(#clip300)" d="M81.6584 1770.86 L86.5427 1770.86 L86.5427 1776.74 L81.6584 1776.74 L81.6584 1770.86 Z" fill="#000000" fill-rule="nonzero" fill-opacity="1" /><path clip-path="url(#clip300)" d="M106.728 1745.26 Q103.117 1745.26 101.288 1748.83 Q99.4824 1752.37 99.4824 1759.5 Q99.4824 1766.61 101.288 1770.17 Q103.117 1773.71 106.728 1773.71 Q110.362 1773.71 112.168 1770.17 Q113.996 1766.61 113.996 1759.5 Q113.996 1752.37 112.168 1748.83 Q110.362 1745.26 106.728 1745.26 M106.728 1741.56 Q112.538 1741.56 115.593 1746.17 Q118.672 1750.75 118.672 1759.5 Q118.672 1768.23 115.593 1772.83 Q112.538 1777.42 106.728 1777.42 Q100.918 1777.42 97.8389 1772.83 Q94.7834 1768.23 94.7834 1759.5 Q94.7834 1750.75 97.8389 1746.17 Q100.918 1741.56 106.728 1741.56 Z" fill="#000000" fill-rule="nonzero" fill-opacity="1" /><path clip-path="url(#clip300)" d="M136.89 1745.26 Q133.279 1745.26 131.45 1748.83 Q129.644 1752.37 129.644 1759.5 Q129.644 1766.61 131.45 1770.17 Q133.279 1773.71 136.89 1773.71 Q140.524 1773.71 142.329 1770.17 Q144.158 1766.61 144.158 1759.5 Q144.158 1752.37 142.329 1748.83 Q140.524 1745.26 136.89 1745.26 M136.89 1741.56 Q142.7 1741.56 145.755 1746.17 Q148.834 1750.75 148.834 1759.5 Q148.834 1768.23 145.755 1772.83 Q142.7 1777.42 136.89 1777.42 Q131.079 1777.42 128.001 1772.83 Q124.945 1768.23 124.945 1759.5 Q124.945 1750.75 128.001 1746.17 Q131.079 1741.56 136.89 1741.56 Z" fill="#000000" fill-rule="nonzero" fill-opacity="1" /><path clip-path="url(#clip300)" d="M62.4919 1329.61 Q58.8808 1329.61 57.0521 1333.18 Q55.2465 1336.72 55.2465 1343.85 Q55.2465 1350.96 57.0521 1354.52 Q58.8808 1358.06 62.4919 1358.06 Q66.1261 1358.06 67.9317 1354.52 Q69.7604 1350.96 69.7604 1343.85 Q69.7604 1336.72 67.9317 1333.18 Q66.1261 1329.61 62.4919 1329.61 M62.4919 1325.91 Q68.302 1325.91 71.3576 1330.52 Q74.4363 1335.1 74.4363 1343.85 Q74.4363 1352.58 71.3576 1357.18 Q68.302 1361.77 62.4919 1361.77 Q56.6817 1361.77 53.603 1357.18 Q50.5475 1352.58 50.5475 1343.85 Q50.5475 1335.1 53.603 1330.52 Q56.6817 1325.91 62.4919 1325.91 Z" fill="#000000" fill-rule="nonzero" fill-opacity="1" /><path clip-path="url(#clip300)" d="M82.6538 1355.22 L87.538 1355.22 L87.538 1361.1 L82.6538 1361.1 L82.6538 1355.22 Z" fill="#000000" fill-rule="nonzero" fill-opacity="1" /><path clip-path="url(#clip300)" d="M101.751 1357.16 L118.07 1357.16 L118.07 1361.1 L96.126 1361.1 L96.126 1357.16 Q98.788 1354.41 103.371 1349.78 Q107.978 1345.12 109.158 1343.78 Q111.404 1341.26 112.283 1339.52 Q113.186 1337.76 113.186 1336.07 Q113.186 1333.32 111.242 1331.58 Q109.32 1329.85 106.218 1329.85 Q104.019 1329.85 101.566 1330.61 Q99.1352 1331.37 96.3574 1332.92 L96.3574 1328.2 Q99.1815 1327.07 101.635 1326.49 Q104.089 1325.91 106.126 1325.91 Q111.496 1325.91 114.691 1328.6 Q117.885 1331.28 117.885 1335.77 Q117.885 1337.9 117.075 1339.82 Q116.288 1341.72 114.181 1344.31 Q113.603 1344.98 110.501 1348.2 Q107.399 1351.4 101.751 1357.16 Z" fill="#000000" fill-rule="nonzero" fill-opacity="1" /><path clip-path="url(#clip300)" d="M127.931 1326.54 L146.288 1326.54 L146.288 1330.47 L132.214 1330.47 L132.214 1338.94 Q133.232 1338.6 134.251 1338.43 Q135.269 1338.25 136.288 1338.25 Q142.075 1338.25 145.454 1341.42 Q148.834 1344.59 148.834 1350.01 Q148.834 1355.59 145.362 1358.69 Q141.89 1361.77 135.57 1361.77 Q133.394 1361.77 131.126 1361.4 Q128.88 1361.03 126.473 1360.29 L126.473 1355.59 Q128.556 1356.72 130.779 1357.28 Q133.001 1357.83 135.478 1357.83 Q139.482 1357.83 141.82 1355.73 Q144.158 1353.62 144.158 1350.01 Q144.158 1346.4 141.82 1344.29 Q139.482 1342.18 135.478 1342.18 Q133.603 1342.18 131.728 1342.6 Q129.876 1343.02 127.931 1343.9 L127.931 1326.54 Z" fill="#000000" fill-rule="nonzero" fill-opacity="1" /><path clip-path="url(#clip300)" d="M61.4965 913.967 Q57.8854 913.967 56.0567 917.531 Q54.2512 921.073 54.2512 928.203 Q54.2512 935.309 56.0567 938.874 Q57.8854 942.415 61.4965 942.415 Q65.1307 942.415 66.9363 938.874 Q68.765 935.309 68.765 928.203 Q68.765 921.073 66.9363 917.531 Q65.1307 913.967 61.4965 913.967 M61.4965 910.263 Q67.3067 910.263 70.3622 914.869 Q73.4409 919.453 73.4409 928.203 Q73.4409 936.929 70.3622 941.536 Q67.3067 946.119 61.4965 946.119 Q55.6864 946.119 52.6077 941.536 Q49.5521 936.929 49.5521 928.203 Q49.5521 919.453 52.6077 914.869 Q55.6864 910.263 61.4965 910.263 Z" fill="#000000" fill-rule="nonzero" fill-opacity="1" /><path clip-path="url(#clip300)" d="M81.6584 939.568 L86.5427 939.568 L86.5427 945.448 L81.6584 945.448 L81.6584 939.568 Z" fill="#000000" fill-rule="nonzero" fill-opacity="1" /><path clip-path="url(#clip300)" d="M96.7741 910.888 L115.13 910.888 L115.13 914.823 L101.056 914.823 L101.056 923.295 Q102.075 922.948 103.094 922.786 Q104.112 922.601 105.131 922.601 Q110.918 922.601 114.297 925.772 Q117.677 928.943 117.677 934.36 Q117.677 939.939 114.205 943.04 Q110.732 946.119 104.413 946.119 Q102.237 946.119 99.9685 945.749 Q97.7232 945.378 95.3158 944.638 L95.3158 939.939 Q97.3991 941.073 99.6213 941.628 Q101.844 942.184 104.32 942.184 Q108.325 942.184 110.663 940.077 Q113.001 937.971 113.001 934.36 Q113.001 930.749 110.663 928.642 Q108.325 926.536 104.32 926.536 Q102.445 926.536 100.57 926.953 Q98.7185 927.369 96.7741 928.249 L96.7741 910.888 Z" fill="#000000" fill-rule="nonzero" fill-opacity="1" /><path clip-path="url(#clip300)" d="M136.89 913.967 Q133.279 913.967 131.45 917.531 Q129.644 921.073 129.644 928.203 Q129.644 935.309 131.45 938.874 Q133.279 942.415 136.89 942.415 Q140.524 942.415 142.329 938.874 Q144.158 935.309 144.158 928.203 Q144.158 921.073 142.329 917.531 Q140.524 913.967 136.89 913.967 M136.89 910.263 Q142.7 910.263 145.755 914.869 Q148.834 919.453 148.834 928.203 Q148.834 936.929 145.755 941.536 Q142.7 946.119 136.89 946.119 Q131.079 946.119 128.001 941.536 Q124.945 936.929 124.945 928.203 Q124.945 919.453 128.001 914.869 Q131.079 910.263 136.89 910.263 Z" fill="#000000" fill-rule="nonzero" fill-opacity="1" /><path clip-path="url(#clip300)" d="M62.4919 498.318 Q58.8808 498.318 57.0521 501.883 Q55.2465 505.425 55.2465 512.555 Q55.2465 519.661 57.0521 523.226 Q58.8808 526.767 62.4919 526.767 Q66.1261 526.767 67.9317 523.226 Q69.7604 519.661 69.7604 512.555 Q69.7604 505.425 67.9317 501.883 Q66.1261 498.318 62.4919 498.318 M62.4919 494.615 Q68.302 494.615 71.3576 499.221 Q74.4363 503.805 74.4363 512.555 Q74.4363 521.281 71.3576 525.888 Q68.302 530.471 62.4919 530.471 Q56.6817 530.471 53.603 525.888 Q50.5475 521.281 50.5475 512.555 Q50.5475 503.805 53.603 499.221 Q56.6817 494.615 62.4919 494.615 Z" fill="#000000" fill-rule="nonzero" fill-opacity="1" /><path clip-path="url(#clip300)" d="M82.6538 523.92 L87.538 523.92 L87.538 529.8 L82.6538 529.8 L82.6538 523.92 Z" fill="#000000" fill-rule="nonzero" fill-opacity="1" /><path clip-path="url(#clip300)" d="M96.5426 495.24 L118.765 495.24 L118.765 497.231 L106.218 529.8 L101.334 529.8 L113.14 499.175 L96.5426 499.175 L96.5426 495.24 Z" fill="#000000" fill-rule="nonzero" fill-opacity="1" /><path clip-path="url(#clip300)" d="M127.931 495.24 L146.288 495.24 L146.288 499.175 L132.214 499.175 L132.214 507.647 Q133.232 507.3 134.251 507.138 Q135.269 506.953 136.288 506.953 Q142.075 506.953 145.454 510.124 Q148.834 513.295 148.834 518.712 Q148.834 524.291 145.362 527.392 Q141.89 530.471 135.57 530.471 Q133.394 530.471 131.126 530.101 Q128.88 529.73 126.473 528.99 L126.473 524.291 Q128.556 525.425 130.779 525.98 Q133.001 526.536 135.478 526.536 Q139.482 526.536 141.82 524.429 Q144.158 522.323 144.158 518.712 Q144.158 515.101 141.82 512.994 Q139.482 510.888 135.478 510.888 Q133.603 510.888 131.728 511.305 Q129.876 511.721 127.931 512.601 L127.931 495.24 Z" fill="#000000" fill-rule="nonzero" fill-opacity="1" /><path clip-path="url(#clip300)" d="M52.3067 110.217 L59.9456 110.217 L59.9456 83.851 L51.6354 85.5177 L51.6354 81.2584 L59.8993 79.5918 L64.5752 79.5918 L64.5752 110.217 L72.214 110.217 L72.214 114.152 L52.3067 114.152 L52.3067 110.217 Z" fill="#000000" fill-rule="nonzero" fill-opacity="1" /><path clip-path="url(#clip300)" d="M81.6584 108.272 L86.5427 108.272 L86.5427 114.152 L81.6584 114.152 L81.6584 108.272 Z" fill="#000000" fill-rule="nonzero" fill-opacity="1" /><path clip-path="url(#clip300)" d="M106.728 82.6705 Q103.117 82.6705 101.288 86.2353 Q99.4824 89.7769 99.4824 96.9065 Q99.4824 104.013 101.288 107.578 Q103.117 111.119 106.728 111.119 Q110.362 111.119 112.168 107.578 Q113.996 104.013 113.996 96.9065 Q113.996 89.7769 112.168 86.2353 Q110.362 82.6705 106.728 82.6705 M106.728 78.9668 Q112.538 78.9668 115.593 83.5732 Q118.672 88.1565 118.672 96.9065 Q118.672 105.633 115.593 110.24 Q112.538 114.823 106.728 114.823 Q100.918 114.823 97.8389 110.24 Q94.7834 105.633 94.7834 96.9065 Q94.7834 88.1565 97.8389 83.5732 Q100.918 78.9668 106.728 78.9668 Z" fill="#000000" fill-rule="nonzero" fill-opacity="1" /><path clip-path="url(#clip300)" d="M136.89 82.6705 Q133.279 82.6705 131.45 86.2353 Q129.644 89.7769 129.644 96.9065 Q129.644 104.013 131.45 107.578 Q133.279 111.119 136.89 111.119 Q140.524 111.119 142.329 107.578 Q144.158 104.013 144.158 96.9065 Q144.158 89.7769 142.329 86.2353 Q140.524 82.6705 136.89 82.6705 M136.89 78.9668 Q142.7 78.9668 145.755 83.5732 Q148.834 88.1565 148.834 96.9065 Q148.834 105.633 145.755 110.24 Q142.7 114.823 136.89 114.823 Q131.079 114.823 128.001 110.24 Q124.945 105.633 124.945 96.9065 Q124.945 88.1565 128.001 83.5732 Q131.079 78.9668 136.89 78.9668 Z" fill="#000000" fill-rule="nonzero" fill-opacity="1" /><polyline clip-path="url(#clip302)" style="stroke:#009af9; stroke-linecap:round; stroke-linejoin:round; stroke-width:4; stroke-opacity:1; fill:none" points="258.539,1751.15 281.901,1749.3 305.263,1747.04 328.625,1744.29 351.987,1740.93 375.349,1736.84 398.711,1731.85 422.073,1725.8 445.434,1718.45 468.796,1709.54 492.158,1698.77 515.52,1685.78 538.882,1670.18 562.244,1651.48 585.606,1629.2 608.968,1602.79 632.33,1571.68 655.692,1535.31 679.054,1493.16 702.416,1444.83 725.778,1390.04 749.14,1328.76 772.502,1261.23 795.864,1188.03 819.226,1110.07 842.587,1028.59 865.949,945.115 889.311,861.293 912.673,778.818 936.035,699.273 959.397,624.019 982.759,554.111 1006.12,490.262 1029.48,432.844 1052.84,381.924 1076.21,337.323 1099.57,298.678 1122.93,265.507 1146.29,237.265 1169.65,213.384 1193.02,193.307 1216.38,176.512 1239.74,162.52 1263.1,150.901 1286.46,141.282 1309.83,133.337 1333.19,126.787 1356.55,121.395 1379.91,116.964 1403.27,113.325 1426.64,110.339 1450,107.892 1473.36,105.887 1496.72,104.245 1520.08,102.902 1543.45,101.802 1566.81,100.902 1590.17,100.166 1613.53,99.5647 1636.89,99.0728 1660.26,98.6706 1683.62,98.3419 1706.98,98.0731 1730.34,97.8535 1753.7,97.674 1777.07,97.5273 1800.43,97.4074 1823.79,97.3095 1847.15,97.2294 1870.51,97.164 1893.87,97.1106 1917.24,97.0669 1940.6,97.0312 1963.96,97.002 1987.32,96.9782 2010.68,96.9587 2034.05,96.9428 2057.41,96.9298 2080.77,96.9192 2104.13,96.9105 2127.49,96.9034 2150.86,96.8976 2174.22,96.8929 2197.58,96.889 2220.94,96.8859 2244.3,96.8833 2267.67,96.8812 2291.03,96.8795 2314.39,96.8781 2337.75,96.8769 2361.11,96.876 2384.48,96.8752 2407.84,96.8746 2431.2,96.8741 2454.56,96.8736 2477.92,96.8733 2501.29,96.873 2524.65,96.8728 2548.01,96.8726 2571.37,96.8724 "/>
<path clip-path="url(#clip300)" d="M270.874 209.375 L568.465 209.375 L568.465 105.695 L270.874 105.695  Z" fill="#ffffff" fill-rule="evenodd" fill-opacity="1"/>
<polyline clip-path="url(#clip300)" style="stroke:#000000; stroke-linecap:round; stroke-linejoin:round; stroke-width:4; stroke-opacity:1; fill:none" points="270.874,209.375 568.465,209.375 568.465,105.695 270.874,105.695 270.874,209.375 "/>
<polyline clip-path="url(#clip300)" style="stroke:#009af9; stroke-linecap:round; stroke-linejoin:round; stroke-width:4; stroke-opacity:1; fill:none" points="298.114,157.535 461.554,157.535 "/>
<path clip-path="url(#clip300)" d="M502.637 177.223 Q500.831 181.852 499.118 183.264 Q497.405 184.676 494.535 184.676 L491.132 184.676 L491.132 181.112 L493.632 181.112 Q495.391 181.112 496.364 180.278 Q497.336 179.445 498.516 176.343 L499.28 174.399 L488.794 148.889 L493.308 148.889 L501.41 169.167 L509.512 148.889 L514.026 148.889 L502.637 177.223 Z" fill="#000000" fill-rule="nonzero" fill-opacity="1" /><path clip-path="url(#clip300)" d="M521.317 170.88 L528.956 170.88 L528.956 144.515 L520.646 146.181 L520.646 141.922 L528.91 140.255 L533.586 140.255 L533.586 170.88 L541.225 170.88 L541.225 174.815 L521.317 174.815 L521.317 170.88 Z" fill="#000000" fill-rule="nonzero" fill-opacity="1" /></svg>
