<?xml version="1.0" encoding="utf-8"?>
<svg xmlns="http://www.w3.org/2000/svg" xmlns:xlink="http://www.w3.org/1999/xlink" width="672" height="480" viewBox="0 0 2688 1920">
<defs>
  <clipPath id="clip400">
    <rect x="0" y="0" width="2688" height="1920"/>
  </clipPath>
</defs>
<path clip-path="url(#clip400)" d="M0 1920 L2688 1920 L2688 -4.26326e-14 L0 -4.26326e-14  Z" fill="#ffffff" fill-rule="evenodd" fill-opacity="1"/>
<defs>
  <clipPath id="clip401">
    <rect x="537" y="0" width="1883" height="1883"/>
  </clipPath>
</defs>
<path clip-path="url(#clip400)" d="M197.999 1734.12 L2640.76 1734.12 L2640.76 47.2441 L197.999 47.2441  Z" fill="#ffffff" fill-rule="evenodd" fill-opacity="1"/>
<defs>
  <clipPath id="clip402">
    <rect x="197" y="47" width="2444" height="1688"/>
  </clipPath>
</defs>
<polyline clip-path="url(#clip402)" style="stroke:#000000; stroke-linecap:round; stroke-linejoin:round; stroke-width:2; stroke-opacity:0.1; fill:none" points="197.999,1734.12 197.999,47.2441 "/>
<polyline clip-path="url(#clip402)" style="stroke:#000000; stroke-linecap:round; stroke-linejoin:round; stroke-width:2; stroke-opacity:0.1; fill:none" points="686.551,1734.12 686.551,47.2441 "/>
<polyline clip-path="url(#clip402)" style="stroke:#000000; stroke-linecap:round; stroke-linejoin:round; stroke-width:2; stroke-opacity:0.1; fill:none" points="1175.1,1734.12 1175.1,47.2441 "/>
<polyline clip-path="url(#clip402)" style="stroke:#000000; stroke-linecap:round; stroke-linejoin:round; stroke-width:2; stroke-opacity:0.1; fill:none" points="1663.65,1734.12 1663.65,47.2441 "/>
<polyline clip-path="url(#clip402)" style="stroke:#000000; stroke-linecap:round; stroke-linejoin:round; stroke-width:2; stroke-opacity:0.1; fill:none" points="2152.2,1734.12 2152.2,47.2441 "/>
<polyline clip-path="url(#clip402)" style="stroke:#000000; stroke-linecap:round; stroke-linejoin:round; stroke-width:2; stroke-opacity:0.1; fill:none" points="2640.76,1734.12 2640.76,47.2441 "/>
<polyline clip-path="url(#clip400)" style="stroke:#000000; stroke-linecap:round; stroke-linejoin:round; stroke-width:4; stroke-opacity:1; fill:none" points="197.999,1734.12 2640.76,1734.12 "/>
<polyline clip-path="url(#clip400)" style="stroke:#000000; stroke-linecap:round; stroke-linejoin:round; stroke-width:4; stroke-opacity:1; fill:none" points="197.999,1734.12 197.999,1715.22 "/>
<polyline clip-path="url(#clip400)" style="stroke:#000000; stroke-linecap:round; stroke-linejoin:round; stroke-width:4; stroke-opacity:1; fill:none" points="686.551,1734.12 686.551,1715.22 "/>
<polyline clip-path="url(#clip400)" style="stroke:#000000; stroke-linecap:round; stroke-linejoin:round; stroke-width:4; stroke-opacity:1; fill:none" points="1175.1,1734.12 1175.1,1715.22 "/>
<polyline clip-path="url(#clip400)" style="stroke:#000000; stroke-linecap:round; stroke-linejoin:round; stroke-width:4; stroke-opacity:1; fill:none" points="1663.65,1734.12 1663.65,1715.22 "/>
<polyline clip-path="url(#clip400)" style="stroke:#000000; stroke-linecap:round; stroke-linejoin:round; stroke-width:4; stroke-opacity:1; fill:none" points="2152.2,1734.12 2152.2,1715.22 "/>
<polyline clip-path="url(#clip400)" style="stroke:#000000; stroke-linecap:round; stroke-linejoin:round; stroke-width:4; stroke-opacity:1; fill:none" points="2640.76,1734.12 2640.76,1715.22 "/>
<path clip-path="url(#clip400)" d="M197.999 1767.34 Q194.388 1767.34 192.56 1770.9 Q190.754 1774.45 190.754 1781.58 Q190.754 1788.68 192.56 1792.25 Q194.388 1795.79 197.999 1795.79 Q201.634 1795.79 203.439 1792.25 Q205.268 1788.68 205.268 1781.58 Q205.268 1774.45 203.439 1770.9 Q201.634 1767.34 197.999 1767.34 M197.999 1763.64 Q203.81 1763.64 206.865 1768.24 Q209.944 1772.83 209.944 1781.58 Q209.944 1790.3 206.865 1794.91 Q203.81 1799.49 197.999 1799.49 Q192.189 1799.49 189.111 1794.91 Q186.055 1790.3 186.055 1781.58 Q186.055 1772.83 189.111 1768.24 Q192.189 1763.64 197.999 1763.64 Z" fill="#000000" fill-rule="nonzero" fill-opacity="1" /><path clip-path="url(#clip400)" d="M676.933 1794.89 L684.572 1794.89 L684.572 1768.52 L676.261 1770.19 L676.261 1765.93 L684.525 1764.26 L689.201 1764.26 L689.201 1794.89 L696.84 1794.89 L696.84 1798.82 L676.933 1798.82 L676.933 1794.89 Z" fill="#000000" fill-rule="nonzero" fill-opacity="1" /><path clip-path="url(#clip400)" d="M1169.75 1794.89 L1186.07 1794.89 L1186.07 1798.82 L1164.13 1798.82 L1164.13 1794.89 Q1166.79 1792.13 1171.38 1787.5 Q1175.98 1782.85 1177.16 1781.51 Q1179.41 1778.98 1180.29 1777.25 Q1181.19 1775.49 1181.19 1773.8 Q1181.19 1771.04 1179.25 1769.31 Q1177.32 1767.57 1174.22 1767.57 Q1172.02 1767.57 1169.57 1768.34 Q1167.14 1769.1 1164.36 1770.65 L1164.36 1765.93 Q1167.19 1764.79 1169.64 1764.21 Q1172.09 1763.64 1174.13 1763.64 Q1179.5 1763.64 1182.69 1766.32 Q1185.89 1769.01 1185.89 1773.5 Q1185.89 1775.63 1185.08 1777.55 Q1184.29 1779.45 1182.19 1782.04 Q1181.61 1782.71 1178.5 1785.93 Q1175.4 1789.12 1169.75 1794.89 Z" fill="#000000" fill-rule="nonzero" fill-opacity="1" /><path clip-path="url(#clip400)" d="M1667.9 1780.19 Q1671.26 1780.9 1673.13 1783.17 Q1675.03 1785.44 1675.03 1788.77 Q1675.03 1793.89 1671.51 1796.69 Q1667.99 1799.49 1661.51 1799.49 Q1659.34 1799.49 1657.02 1799.05 Q1654.73 1798.64 1652.28 1797.78 L1652.28 1793.27 Q1654.22 1794.4 1656.54 1794.98 Q1658.85 1795.56 1661.37 1795.56 Q1665.77 1795.56 1668.06 1793.82 Q1670.38 1792.08 1670.38 1788.77 Q1670.38 1785.72 1668.23 1784.01 Q1666.1 1782.27 1662.28 1782.27 L1658.25 1782.27 L1658.25 1778.43 L1662.46 1778.43 Q1665.91 1778.43 1667.74 1777.06 Q1669.57 1775.67 1669.57 1773.08 Q1669.57 1770.42 1667.67 1769.01 Q1665.79 1767.57 1662.28 1767.57 Q1660.35 1767.57 1658.16 1767.99 Q1655.96 1768.4 1653.32 1769.28 L1653.32 1765.12 Q1655.98 1764.38 1658.29 1764.01 Q1660.63 1763.64 1662.69 1763.64 Q1668.02 1763.64 1671.12 1766.07 Q1674.22 1768.47 1674.22 1772.59 Q1674.22 1775.46 1672.58 1777.46 Q1670.93 1779.42 1667.9 1780.19 Z" fill="#000000" fill-rule="nonzero" fill-opacity="1" /><path clip-path="url(#clip400)" d="M2155.21 1768.34 L2143.41 1786.78 L2155.21 1786.78 L2155.21 1768.34 M2153.99 1764.26 L2159.87 1764.26 L2159.87 1786.78 L2164.8 1786.78 L2164.8 1790.67 L2159.87 1790.67 L2159.87 1798.82 L2155.21 1798.82 L2155.21 1790.67 L2139.61 1790.67 L2139.61 1786.16 L2153.99 1764.26 Z" fill="#000000" fill-rule="nonzero" fill-opacity="1" /><path clip-path="url(#clip400)" d="M2631.03 1764.26 L2649.39 1764.26 L2649.39 1768.2 L2635.32 1768.2 L2635.32 1776.67 Q2636.33 1776.32 2637.35 1776.16 Q2638.37 1775.97 2639.39 1775.97 Q2645.18 1775.97 2648.56 1779.15 Q2651.94 1782.32 2651.94 1787.73 Q2651.94 1793.31 2648.46 1796.41 Q2644.99 1799.49 2638.67 1799.49 Q2636.5 1799.49 2634.23 1799.12 Q2631.98 1798.75 2629.58 1798.01 L2629.58 1793.31 Q2631.66 1794.45 2633.88 1795 Q2636.1 1795.56 2638.58 1795.56 Q2642.58 1795.56 2644.92 1793.45 Q2647.26 1791.34 2647.26 1787.73 Q2647.26 1784.12 2644.92 1782.02 Q2642.58 1779.91 2638.58 1779.91 Q2636.71 1779.91 2634.83 1780.33 Q2632.98 1780.74 2631.03 1781.62 L2631.03 1764.26 Z" fill="#000000" fill-rule="nonzero" fill-opacity="1" /><path clip-path="url(#clip400)" d="M1418.44 1837.53 L1418.44 1847.65 L1430.5 1847.65 L1430.5 1852.2 L1418.44 1852.2 L1418.44 1871.56 Q1418.44 1875.92 1419.62 1877.16 Q1420.83 1878.4 1424.49 1878.4 L1430.5 1878.4 L1430.5 1883.3 L1424.49 1883.3 Q1417.71 1883.3 1415.13 1880.79 Q1412.55 1878.24 1412.55 1871.56 L1412.55 1852.2 L1408.25 1852.2 L1408.25 1847.65 L1412.55 1847.65 L1412.55 1837.53 L1418.44 1837.53 Z" fill="#000000" fill-rule="nonzero" fill-opacity="1" /><polyline clip-path="url(#clip402)" style="stroke:#000000; stroke-linecap:round; stroke-linejoin:round; stroke-width:2; stroke-opacity:0.1; fill:none" points="197.999,1216.23 2640.76,1216.23 "/>
<polyline clip-path="url(#clip402)" style="stroke:#000000; stroke-linecap:round; stroke-linejoin:round; stroke-width:2; stroke-opacity:0.1; fill:none" points="197.999,511.279 2640.76,511.279 "/>
<polyline clip-path="url(#clip400)" style="stroke:#000000; stroke-linecap:round; stroke-linejoin:round; stroke-width:4; stroke-opacity:1; fill:none" points="197.999,1734.12 197.999,47.2441 "/>
<polyline clip-path="url(#clip400)" style="stroke:#000000; stroke-linecap:round; stroke-linejoin:round; stroke-width:4; stroke-opacity:1; fill:none" points="197.999,1216.23 216.897,1216.23 "/>
<polyline clip-path="url(#clip400)" style="stroke:#000000; stroke-linecap:round; stroke-linejoin:round; stroke-width:4; stroke-opacity:1; fill:none" points="197.999,511.279 216.897,511.279 "/>
<path clip-path="url(#clip400)" d="M50.2234 1236.02 L57.8623 1236.02 L57.8623 1209.66 L49.5521 1211.33 L49.5521 1207.07 L57.816 1205.4 L62.4919 1205.4 L62.4919 1236.02 L70.1307 1236.02 L70.1307 1239.96 L50.2234 1239.96 L50.2234 1236.02 Z" fill="#000000" fill-rule="nonzero" fill-opacity="1" /><path clip-path="url(#clip400)" d="M89.5751 1208.48 Q85.964 1208.48 84.1353 1212.04 Q82.3297 1215.58 82.3297 1222.71 Q82.3297 1229.82 84.1353 1233.39 Q85.964 1236.93 89.5751 1236.93 Q93.2093 1236.93 95.0148 1233.39 Q96.8435 1229.82 96.8435 1222.71 Q96.8435 1215.58 95.0148 1212.04 Q93.2093 1208.48 89.5751 1208.48 M89.5751 1204.77 Q95.3852 1204.77 98.4408 1209.38 Q101.519 1213.96 101.519 1222.71 Q101.519 1231.44 98.4408 1236.05 Q95.3852 1240.63 89.5751 1240.63 Q83.7649 1240.63 80.6862 1236.05 Q77.6307 1231.44 77.6307 1222.71 Q77.6307 1213.96 80.6862 1209.38 Q83.7649 1204.77 89.5751 1204.77 Z" fill="#000000" fill-rule="nonzero" fill-opacity="1" /><path clip-path="url(#clip400)" d="M111.224 1186.97 Q108.29 1186.97 106.804 1189.87 Q105.337 1192.74 105.337 1198.54 Q105.337 1204.31 106.804 1207.21 Q108.29 1210.09 111.224 1210.09 Q114.177 1210.09 115.644 1207.21 Q117.13 1204.31 117.13 1198.54 Q117.13 1192.74 115.644 1189.87 Q114.177 1186.97 111.224 1186.97 M111.224 1183.96 Q115.945 1183.96 118.428 1187.7 Q120.929 1191.43 120.929 1198.54 Q120.929 1205.63 118.428 1209.37 Q115.945 1213.09 111.224 1213.09 Q106.503 1213.09 104.002 1209.37 Q101.519 1205.63 101.519 1198.54 Q101.519 1191.43 104.002 1187.7 Q106.503 1183.96 111.224 1183.96 Z" fill="#000000" fill-rule="nonzero" fill-opacity="1" /><path clip-path="url(#clip400)" d="M127.606 1207.77 L131.574 1207.77 L131.574 1212.55 L127.606 1212.55 L127.606 1207.77 Z" fill="#000000" fill-rule="nonzero" fill-opacity="1" /><path clip-path="url(#clip400)" d="M147.975 1186.97 Q145.041 1186.97 143.555 1189.87 Q142.088 1192.74 142.088 1198.54 Q142.088 1204.31 143.555 1207.21 Q145.041 1210.09 147.975 1210.09 Q150.927 1210.09 152.394 1207.21 Q153.88 1204.31 153.88 1198.54 Q153.88 1192.74 152.394 1189.87 Q150.927 1186.97 147.975 1186.97 M147.975 1183.96 Q152.695 1183.96 155.178 1187.7 Q157.679 1191.43 157.679 1198.54 Q157.679 1205.63 155.178 1209.37 Q152.695 1213.09 147.975 1213.09 Q143.254 1213.09 140.752 1209.37 Q138.27 1205.63 138.27 1198.54 Q138.27 1191.43 140.752 1187.7 Q143.254 1183.96 147.975 1183.96 Z" fill="#000000" fill-rule="nonzero" fill-opacity="1" /><path clip-path="url(#clip400)" d="M51.0322 531.072 L58.671 531.072 L58.671 504.706 L50.3609 506.373 L50.3609 502.114 L58.6247 500.447 L63.3006 500.447 L63.3006 531.072 L70.9395 531.072 L70.9395 535.007 L51.0322 535.007 L51.0322 531.072 Z" fill="#000000" fill-rule="nonzero" fill-opacity="1" /><path clip-path="url(#clip400)" d="M90.3838 503.526 Q86.7727 503.526 84.944 507.091 Q83.1385 510.632 83.1385 517.762 Q83.1385 524.868 84.944 528.433 Q86.7727 531.975 90.3838 531.975 Q94.018 531.975 95.8236 528.433 Q97.6523 524.868 97.6523 517.762 Q97.6523 510.632 95.8236 507.091 Q94.018 503.526 90.3838 503.526 M90.3838 499.822 Q96.1939 499.822 99.2495 504.429 Q102.328 509.012 102.328 517.762 Q102.328 526.489 99.2495 531.095 Q96.1939 535.678 90.3838 535.678 Q84.5736 535.678 81.495 531.095 Q78.4394 526.489 78.4394 517.762 Q78.4394 509.012 81.495 504.429 Q84.5736 499.822 90.3838 499.822 Z" fill="#000000" fill-rule="nonzero" fill-opacity="1" /><path clip-path="url(#clip400)" d="M112.033 482.018 Q109.099 482.018 107.613 484.915 Q106.146 487.792 106.146 493.585 Q106.146 499.359 107.613 502.255 Q109.099 505.133 112.033 505.133 Q114.986 505.133 116.453 502.255 Q117.939 499.359 117.939 493.585 Q117.939 487.792 116.453 484.915 Q114.986 482.018 112.033 482.018 M112.033 479.009 Q116.754 479.009 119.236 482.752 Q121.738 486.476 121.738 493.585 Q121.738 500.675 119.236 504.418 Q116.754 508.142 112.033 508.142 Q107.312 508.142 104.811 504.418 Q102.328 500.675 102.328 493.585 Q102.328 486.476 104.811 482.752 Q107.312 479.009 112.033 479.009 Z" fill="#000000" fill-rule="nonzero" fill-opacity="1" /><path clip-path="url(#clip400)" d="M128.415 502.82 L132.383 502.82 L132.383 507.597 L128.415 507.597 L128.415 502.82 Z" fill="#000000" fill-rule="nonzero" fill-opacity="1" /><path clip-path="url(#clip400)" d="M140.696 479.517 L155.611 479.517 L155.611 482.714 L144.175 482.714 L144.175 489.598 Q145.003 489.316 145.831 489.184 Q146.658 489.033 147.486 489.033 Q152.188 489.033 154.934 491.61 Q157.679 494.187 157.679 498.588 Q157.679 503.12 154.858 505.641 Q152.037 508.142 146.903 508.142 Q145.135 508.142 143.291 507.841 Q141.467 507.54 139.511 506.938 L139.511 503.12 Q141.204 504.042 143.009 504.493 Q144.815 504.945 146.827 504.945 Q150.081 504.945 151.981 503.233 Q153.88 501.522 153.88 498.588 Q153.88 495.654 151.981 493.942 Q150.081 492.231 146.827 492.231 Q145.304 492.231 143.78 492.569 Q142.276 492.908 140.696 493.623 L140.696 479.517 Z" fill="#000000" fill-rule="nonzero" fill-opacity="1" /><polyline clip-path="url(#clip402)" style="stroke:#009af9; stroke-linecap:round; stroke-linejoin:round; stroke-width:4; stroke-opacity:1; fill:none" points="197.999,791.808 246.855,808.137 295.71,817.927 344.565,821.775 393.42,820.271 442.275,813.986 491.13,803.464 539.985,789.213 588.84,771.713 637.696,751.414 686.551,728.738 735.406,704.08 784.261,677.825 833.116,650.342 881.971,621.993 930.826,593.124 979.682,564.087 1028.54,535.251 1077.39,506.994 1126.25,479.692 1175.1,453.74 1223.96,429.578 1272.81,407.638 1321.67,388.348 1370.52,372.148 1419.38,359.442 1468.23,350.643 1517.09,346.113 1565.94,346.044 1614.8,350.488 1663.65,359.354 1712.51,372.399 1761.36,389.191 1810.22,409.076 1859.07,431.332 1907.93,455.183 1956.78,479.765 2005.64,504.254 2054.49,527.969 2103.35,550.258 2152.2,570.581 2201.06,588.553 2249.91,603.983 2298.77,616.784 2347.63,626.821 2396.48,634.097 2445.34,638.673 2494.19,640.66 2543.05,640.221 2591.9,637.547 2640.76,632.821 "/>
<polyline clip-path="url(#clip402)" style="stroke:#e26f46; stroke-linecap:round; stroke-linejoin:round; stroke-width:4; stroke-opacity:1; fill:none" points="197.999,791.808 246.855,837.113 295.71,881.668 344.565,924.963 393.42,966.577 442.275,1006.15 491.13,1043.35 539.985,1077.9 588.84,1109.51 637.696,1137.94 686.551,1162.93 735.406,1184.24 784.261,1201.63 833.116,1214.89 881.971,1223.83 930.826,1228.25 979.682,1228.02 1028.54,1223.04 1077.39,1213.29 1126.25,1198.78 1175.1,1179.66 1223.96,1156.12 1272.81,1128.53 1321.67,1097.43 1370.52,1063.47 1419.38,1027.33 1468.23,990.025 1517.09,952.673 1565.94,916.353 1614.8,882.069 1663.65,850.769 1712.51,823.364 1761.36,800.58 1810.22,782.91 1859.07,770.587 1907.93,763.586 1956.78,761.658 2005.64,764.394 2054.49,771.267 2103.35,781.722 2152.2,795.209 2201.06,811.148 2249.91,828.894 2298.77,847.858 2347.63,867.644 2396.48,887.791 2445.34,907.884 2494.19,927.565 2543.05,946.545 2591.9,964.567 2640.76,981.356 "/>
<circle clip-path="url(#clip402)" cx="197.999" cy="834.409" r="14.4" fill="#009af9" fill-rule="evenodd" fill-opacity="1" stroke="#000000" stroke-opacity="1" stroke-width="3.84"/>
<circle clip-path="url(#clip402)" cx="246.855" cy="706.71" r="14.4" fill="#009af9" fill-rule="evenodd" fill-opacity="1" stroke="#000000" stroke-opacity="1" stroke-width="3.84"/>
<circle clip-path="url(#clip402)" cx="295.71" cy="838.468" r="14.4" fill="#009af9" fill-rule="evenodd" fill-opacity="1" stroke="#000000" stroke-opacity="1" stroke-width="3.84"/>
<circle clip-path="url(#clip402)" cx="344.565" cy="1142.33" r="14.4" fill="#009af9" fill-rule="evenodd" fill-opacity="1" stroke="#000000" stroke-opacity="1" stroke-width="3.84"/>
<circle clip-path="url(#clip402)" cx="393.42" cy="719.799" r="14.4" fill="#009af9" fill-rule="evenodd" fill-opacity="1" stroke="#000000" stroke-opacity="1" stroke-width="3.84"/>
<circle clip-path="url(#clip402)" cx="442.275" cy="855.004" r="14.4" fill="#009af9" fill-rule="evenodd" fill-opacity="1" stroke="#000000" stroke-opacity="1" stroke-width="3.84"/>
<circle clip-path="url(#clip402)" cx="491.13" cy="567.922" r="14.4" fill="#009af9" fill-rule="evenodd" fill-opacity="1" stroke="#000000" stroke-opacity="1" stroke-width="3.84"/>
<circle clip-path="url(#clip402)" cx="539.985" cy="831.562" r="14.4" fill="#009af9" fill-rule="evenodd" fill-opacity="1" stroke="#000000" stroke-opacity="1" stroke-width="3.84"/>
<circle clip-path="url(#clip402)" cx="588.84" cy="684.509" r="14.4" fill="#009af9" fill-rule="evenodd" fill-opacity="1" stroke="#000000" stroke-opacity="1" stroke-width="3.84"/>
<circle clip-path="url(#clip402)" cx="637.696" cy="906.833" r="14.4" fill="#009af9" fill-rule="evenodd" fill-opacity="1" stroke="#000000" stroke-opacity="1" stroke-width="3.84"/>
<circle clip-path="url(#clip402)" cx="686.551" cy="830.23" r="14.4" fill="#009af9" fill-rule="evenodd" fill-opacity="1" stroke="#000000" stroke-opacity="1" stroke-width="3.84"/>
<circle clip-path="url(#clip402)" cx="735.406" cy="413.521" r="14.4" fill="#009af9" fill-rule="evenodd" fill-opacity="1" stroke="#000000" stroke-opacity="1" stroke-width="3.84"/>
<circle clip-path="url(#clip402)" cx="784.261" cy="482.475" r="14.4" fill="#009af9" fill-rule="evenodd" fill-opacity="1" stroke="#000000" stroke-opacity="1" stroke-width="3.84"/>
<circle clip-path="url(#clip402)" cx="833.116" cy="456.534" r="14.4" fill="#009af9" fill-rule="evenodd" fill-opacity="1" stroke="#000000" stroke-opacity="1" stroke-width="3.84"/>
<circle clip-path="url(#clip402)" cx="881.971" cy="99.4734" r="14.4" fill="#009af9" fill-rule="evenodd" fill-opacity="1" stroke="#000000" stroke-opacity="1" stroke-width="3.84"/>
<circle clip-path="url(#clip402)" cx="930.826" cy="94.9858" r="14.4" fill="#009af9" fill-rule="evenodd" fill-opacity="1" stroke="#000000" stroke-opacity="1" stroke-width="3.84"/>
<circle clip-path="url(#clip402)" cx="979.682" cy="325.484" r="14.4" fill="#009af9" fill-rule="evenodd" fill-opacity="1" stroke="#000000" stroke-opacity="1" stroke-width="3.84"/>
<circle clip-path="url(#clip402)" cx="1028.54" cy="391.509" r="14.4" fill="#009af9" fill-rule="evenodd" fill-opacity="1" stroke="#000000" stroke-opacity="1" stroke-width="3.84"/>
<circle clip-path="url(#clip402)" cx="1077.39" cy="503.766" r="14.4" fill="#009af9" fill-rule="evenodd" fill-opacity="1" stroke="#000000" stroke-opacity="1" stroke-width="3.84"/>
<circle clip-path="url(#clip402)" cx="1126.25" cy="246.992" r="14.4" fill="#009af9" fill-rule="evenodd" fill-opacity="1" stroke="#000000" stroke-opacity="1" stroke-width="3.84"/>
<circle clip-path="url(#clip402)" cx="1175.1" cy="390.122" r="14.4" fill="#009af9" fill-rule="evenodd" fill-opacity="1" stroke="#000000" stroke-opacity="1" stroke-width="3.84"/>
<circle clip-path="url(#clip402)" cx="1223.96" cy="482.698" r="14.4" fill="#009af9" fill-rule="evenodd" fill-opacity="1" stroke="#000000" stroke-opacity="1" stroke-width="3.84"/>
<circle clip-path="url(#clip402)" cx="1272.81" cy="583.886" r="14.4" fill="#009af9" fill-rule="evenodd" fill-opacity="1" stroke="#000000" stroke-opacity="1" stroke-width="3.84"/>
<circle clip-path="url(#clip402)" cx="1321.67" cy="144.168" r="14.4" fill="#009af9" fill-rule="evenodd" fill-opacity="1" stroke="#000000" stroke-opacity="1" stroke-width="3.84"/>
<circle clip-path="url(#clip402)" cx="1370.52" cy="184.608" r="14.4" fill="#009af9" fill-rule="evenodd" fill-opacity="1" stroke="#000000" stroke-opacity="1" stroke-width="3.84"/>
<circle clip-path="url(#clip402)" cx="1419.38" cy="150.071" r="14.4" fill="#009af9" fill-rule="evenodd" fill-opacity="1" stroke="#000000" stroke-opacity="1" stroke-width="3.84"/>
<circle clip-path="url(#clip402)" cx="1468.23" cy="860.698" r="14.4" fill="#009af9" fill-rule="evenodd" fill-opacity="1" stroke="#000000" stroke-opacity="1" stroke-width="3.84"/>
<circle clip-path="url(#clip402)" cx="1517.09" cy="614.733" r="14.4" fill="#009af9" fill-rule="evenodd" fill-opacity="1" stroke="#000000" stroke-opacity="1" stroke-width="3.84"/>
<circle clip-path="url(#clip402)" cx="1565.94" cy="853.908" r="14.4" fill="#009af9" fill-rule="evenodd" fill-opacity="1" stroke="#000000" stroke-opacity="1" stroke-width="3.84"/>
<circle clip-path="url(#clip402)" cx="1614.8" cy="583.169" r="14.4" fill="#009af9" fill-rule="evenodd" fill-opacity="1" stroke="#000000" stroke-opacity="1" stroke-width="3.84"/>
<circle clip-path="url(#clip402)" cx="1663.65" cy="887.944" r="14.4" fill="#009af9" fill-rule="evenodd" fill-opacity="1" stroke="#000000" stroke-opacity="1" stroke-width="3.84"/>
<circle clip-path="url(#clip402)" cx="1712.51" cy="1061.3" r="14.4" fill="#009af9" fill-rule="evenodd" fill-opacity="1" stroke="#000000" stroke-opacity="1" stroke-width="3.84"/>
<circle clip-path="url(#clip402)" cx="1761.36" cy="819.714" r="14.4" fill="#009af9" fill-rule="evenodd" fill-opacity="1" stroke="#000000" stroke-opacity="1" stroke-width="3.84"/>
<circle clip-path="url(#clip402)" cx="1810.22" cy="502.216" r="14.4" fill="#009af9" fill-rule="evenodd" fill-opacity="1" stroke="#000000" stroke-opacity="1" stroke-width="3.84"/>
<circle clip-path="url(#clip402)" cx="1859.07" cy="1098.78" r="14.4" fill="#009af9" fill-rule="evenodd" fill-opacity="1" stroke="#000000" stroke-opacity="1" stroke-width="3.84"/>
<circle clip-path="url(#clip402)" cx="1907.93" cy="761.896" r="14.4" fill="#009af9" fill-rule="evenodd" fill-opacity="1" stroke="#000000" stroke-opacity="1" stroke-width="3.84"/>
<circle clip-path="url(#clip402)" cx="1956.78" cy="585.8" r="14.4" fill="#009af9" fill-rule="evenodd" fill-opacity="1" stroke="#000000" stroke-opacity="1" stroke-width="3.84"/>
<circle clip-path="url(#clip402)" cx="2005.64" cy="785.33" r="14.4" fill="#009af9" fill-rule="evenodd" fill-opacity="1" stroke="#000000" stroke-opacity="1" stroke-width="3.84"/>
<circle clip-path="url(#clip402)" cx="2054.49" cy="796.665" r="14.4" fill="#009af9" fill-rule="evenodd" fill-opacity="1" stroke="#000000" stroke-opacity="1" stroke-width="3.84"/>
<circle clip-path="url(#clip402)" cx="2103.35" cy="805.236" r="14.4" fill="#009af9" fill-rule="evenodd" fill-opacity="1" stroke="#000000" stroke-opacity="1" stroke-width="3.84"/>
<circle clip-path="url(#clip402)" cx="2152.2" cy="490.803" r="14.4" fill="#009af9" fill-rule="evenodd" fill-opacity="1" stroke="#000000" stroke-opacity="1" stroke-width="3.84"/>
<circle clip-path="url(#clip402)" cx="2201.06" cy="629.148" r="14.4" fill="#009af9" fill-rule="evenodd" fill-opacity="1" stroke="#000000" stroke-opacity="1" stroke-width="3.84"/>
<circle clip-path="url(#clip402)" cx="2249.91" cy="470.659" r="14.4" fill="#009af9" fill-rule="evenodd" fill-opacity="1" stroke="#000000" stroke-opacity="1" stroke-width="3.84"/>
<circle clip-path="url(#clip402)" cx="2298.77" cy="613.204" r="14.4" fill="#009af9" fill-rule="evenodd" fill-opacity="1" stroke="#000000" stroke-opacity="1" stroke-width="3.84"/>
<circle clip-path="url(#clip402)" cx="2347.63" cy="372.047" r="14.4" fill="#009af9" fill-rule="evenodd" fill-opacity="1" stroke="#000000" stroke-opacity="1" stroke-width="3.84"/>
<circle clip-path="url(#clip402)" cx="2396.48" cy="304.585" r="14.4" fill="#009af9" fill-rule="evenodd" fill-opacity="1" stroke="#000000" stroke-opacity="1" stroke-width="3.84"/>
<circle clip-path="url(#clip402)" cx="2445.34" cy="502.088" r="14.4" fill="#009af9" fill-rule="evenodd" fill-opacity="1" stroke="#000000" stroke-opacity="1" stroke-width="3.84"/>
<circle clip-path="url(#clip402)" cx="2494.19" cy="166.285" r="14.4" fill="#009af9" fill-rule="evenodd" fill-opacity="1" stroke="#000000" stroke-opacity="1" stroke-width="3.84"/>
<circle clip-path="url(#clip402)" cx="2543.05" cy="278.018" r="14.4" fill="#009af9" fill-rule="evenodd" fill-opacity="1" stroke="#000000" stroke-opacity="1" stroke-width="3.84"/>
<circle clip-path="url(#clip402)" cx="2591.9" cy="356.587" r="14.4" fill="#009af9" fill-rule="evenodd" fill-opacity="1" stroke="#000000" stroke-opacity="1" stroke-width="3.84"/>
<circle clip-path="url(#clip402)" cx="2640.76" cy="153.463" r="14.4" fill="#009af9" fill-rule="evenodd" fill-opacity="1" stroke="#000000" stroke-opacity="1" stroke-width="3.84"/>
<circle clip-path="url(#clip402)" cx="197.999" cy="619.064" r="14.4" fill="#e26f46" fill-rule="evenodd" fill-opacity="1" stroke="#000000" stroke-opacity="1" stroke-width="3.84"/>
<circle clip-path="url(#clip402)" cx="246.855" cy="488.669" r="14.4" fill="#e26f46" fill-rule="evenodd" fill-opacity="1" stroke="#000000" stroke-opacity="1" stroke-width="3.84"/>
<circle clip-path="url(#clip402)" cx="295.71" cy="707.753" r="14.4" fill="#e26f46" fill-rule="evenodd" fill-opacity="1" stroke="#000000" stroke-opacity="1" stroke-width="3.84"/>
<circle clip-path="url(#clip402)" cx="344.565" cy="1380.58" r="14.4" fill="#e26f46" fill-rule="evenodd" fill-opacity="1" stroke="#000000" stroke-opacity="1" stroke-width="3.84"/>
<circle clip-path="url(#clip402)" cx="393.42" cy="1218.82" r="14.4" fill="#e26f46" fill-rule="evenodd" fill-opacity="1" stroke="#000000" stroke-opacity="1" stroke-width="3.84"/>
<circle clip-path="url(#clip402)" cx="442.275" cy="1019.5" r="14.4" fill="#e26f46" fill-rule="evenodd" fill-opacity="1" stroke="#000000" stroke-opacity="1" stroke-width="3.84"/>
<circle clip-path="url(#clip402)" cx="491.13" cy="1134.41" r="14.4" fill="#e26f46" fill-rule="evenodd" fill-opacity="1" stroke="#000000" stroke-opacity="1" stroke-width="3.84"/>
<circle clip-path="url(#clip402)" cx="539.985" cy="1218.58" r="14.4" fill="#e26f46" fill-rule="evenodd" fill-opacity="1" stroke="#000000" stroke-opacity="1" stroke-width="3.84"/>
<circle clip-path="url(#clip402)" cx="588.84" cy="1489.12" r="14.4" fill="#e26f46" fill-rule="evenodd" fill-opacity="1" stroke="#000000" stroke-opacity="1" stroke-width="3.84"/>
<circle clip-path="url(#clip402)" cx="637.696" cy="1296.44" r="14.4" fill="#e26f46" fill-rule="evenodd" fill-opacity="1" stroke="#000000" stroke-opacity="1" stroke-width="3.84"/>
<circle clip-path="url(#clip402)" cx="686.551" cy="1616.74" r="14.4" fill="#e26f46" fill-rule="evenodd" fill-opacity="1" stroke="#000000" stroke-opacity="1" stroke-width="3.84"/>
<circle clip-path="url(#clip402)" cx="735.406" cy="1435.61" r="14.4" fill="#e26f46" fill-rule="evenodd" fill-opacity="1" stroke="#000000" stroke-opacity="1" stroke-width="3.84"/>
<circle clip-path="url(#clip402)" cx="784.261" cy="1479.52" r="14.4" fill="#e26f46" fill-rule="evenodd" fill-opacity="1" stroke="#000000" stroke-opacity="1" stroke-width="3.84"/>
<circle clip-path="url(#clip402)" cx="833.116" cy="1686.38" r="14.4" fill="#e26f46" fill-rule="evenodd" fill-opacity="1" stroke="#000000" stroke-opacity="1" stroke-width="3.84"/>
<circle clip-path="url(#clip402)" cx="881.971" cy="1552.06" r="14.4" fill="#e26f46" fill-rule="evenodd" fill-opacity="1" stroke="#000000" stroke-opacity="1" stroke-width="3.84"/>
<circle clip-path="url(#clip402)" cx="930.826" cy="1445.83" r="14.4" fill="#e26f46" fill-rule="evenodd" fill-opacity="1" stroke="#000000" stroke-opacity="1" stroke-width="3.84"/>
<circle clip-path="url(#clip402)" cx="979.682" cy="1152.94" r="14.4" fill="#e26f46" fill-rule="evenodd" fill-opacity="1" stroke="#000000" stroke-opacity="1" stroke-width="3.84"/>
<circle clip-path="url(#clip402)" cx="1028.54" cy="1201.11" r="14.4" fill="#e26f46" fill-rule="evenodd" fill-opacity="1" stroke="#000000" stroke-opacity="1" stroke-width="3.84"/>
<circle clip-path="url(#clip402)" cx="1077.39" cy="1042.99" r="14.4" fill="#e26f46" fill-rule="evenodd" fill-opacity="1" stroke="#000000" stroke-opacity="1" stroke-width="3.84"/>
<circle clip-path="url(#clip402)" cx="1126.25" cy="957.586" r="14.4" fill="#e26f46" fill-rule="evenodd" fill-opacity="1" stroke="#000000" stroke-opacity="1" stroke-width="3.84"/>
<circle clip-path="url(#clip402)" cx="1175.1" cy="1234.05" r="14.4" fill="#e26f46" fill-rule="evenodd" fill-opacity="1" stroke="#000000" stroke-opacity="1" stroke-width="3.84"/>
<circle clip-path="url(#clip402)" cx="1223.96" cy="626.525" r="14.4" fill="#e26f46" fill-rule="evenodd" fill-opacity="1" stroke="#000000" stroke-opacity="1" stroke-width="3.84"/>
<circle clip-path="url(#clip402)" cx="1272.81" cy="824.362" r="14.4" fill="#e26f46" fill-rule="evenodd" fill-opacity="1" stroke="#000000" stroke-opacity="1" stroke-width="3.84"/>
<circle clip-path="url(#clip402)" cx="1321.67" cy="754.802" r="14.4" fill="#e26f46" fill-rule="evenodd" fill-opacity="1" stroke="#000000" stroke-opacity="1" stroke-width="3.84"/>
<circle clip-path="url(#clip402)" cx="1370.52" cy="677.574" r="14.4" fill="#e26f46" fill-rule="evenodd" fill-opacity="1" stroke="#000000" stroke-opacity="1" stroke-width="3.84"/>
<circle clip-path="url(#clip402)" cx="1419.38" cy="589.51" r="14.4" fill="#e26f46" fill-rule="evenodd" fill-opacity="1" stroke="#000000" stroke-opacity="1" stroke-width="3.84"/>
<circle clip-path="url(#clip402)" cx="1468.23" cy="476.248" r="14.4" fill="#e26f46" fill-rule="evenodd" fill-opacity="1" stroke="#000000" stroke-opacity="1" stroke-width="3.84"/>
<circle clip-path="url(#clip402)" cx="1517.09" cy="615.275" r="14.4" fill="#e26f46" fill-rule="evenodd" fill-opacity="1" stroke="#000000" stroke-opacity="1" stroke-width="3.84"/>
<circle clip-path="url(#clip402)" cx="1565.94" cy="532.486" r="14.4" fill="#e26f46" fill-rule="evenodd" fill-opacity="1" stroke="#000000" stroke-opacity="1" stroke-width="3.84"/>
<circle clip-path="url(#clip402)" cx="1614.8" cy="817.074" r="14.4" fill="#e26f46" fill-rule="evenodd" fill-opacity="1" stroke="#000000" stroke-opacity="1" stroke-width="3.84"/>
<circle clip-path="url(#clip402)" cx="1663.65" cy="877.343" r="14.4" fill="#e26f46" fill-rule="evenodd" fill-opacity="1" stroke="#000000" stroke-opacity="1" stroke-width="3.84"/>
<circle clip-path="url(#clip402)" cx="1712.51" cy="713.575" r="14.4" fill="#e26f46" fill-rule="evenodd" fill-opacity="1" stroke="#000000" stroke-opacity="1" stroke-width="3.84"/>
<circle clip-path="url(#clip402)" cx="1761.36" cy="740.275" r="14.4" fill="#e26f46" fill-rule="evenodd" fill-opacity="1" stroke="#000000" stroke-opacity="1" stroke-width="3.84"/>
<circle clip-path="url(#clip402)" cx="1810.22" cy="1219.56" r="14.4" fill="#e26f46" fill-rule="evenodd" fill-opacity="1" stroke="#000000" stroke-opacity="1" stroke-width="3.84"/>
<circle clip-path="url(#clip402)" cx="1859.07" cy="951.465" r="14.4" fill="#e26f46" fill-rule="evenodd" fill-opacity="1" stroke="#000000" stroke-opacity="1" stroke-width="3.84"/>
<circle clip-path="url(#clip402)" cx="1907.93" cy="878.603" r="14.4" fill="#e26f46" fill-rule="evenodd" fill-opacity="1" stroke="#000000" stroke-opacity="1" stroke-width="3.84"/>
<circle clip-path="url(#clip402)" cx="1956.78" cy="828.32" r="14.4" fill="#e26f46" fill-rule="evenodd" fill-opacity="1" stroke="#000000" stroke-opacity="1" stroke-width="3.84"/>
<circle clip-path="url(#clip402)" cx="2005.64" cy="1301.09" r="14.4" fill="#e26f46" fill-rule="evenodd" fill-opacity="1" stroke="#000000" stroke-opacity="1" stroke-width="3.84"/>
<circle clip-path="url(#clip402)" cx="2054.49" cy="1369.46" r="14.4" fill="#e26f46" fill-rule="evenodd" fill-opacity="1" stroke="#000000" stroke-opacity="1" stroke-width="3.84"/>
<circle clip-path="url(#clip402)" cx="2103.35" cy="901.442" r="14.4" fill="#e26f46" fill-rule="evenodd" fill-opacity="1" stroke="#000000" stroke-opacity="1" stroke-width="3.84"/>
<circle clip-path="url(#clip402)" cx="2152.2" cy="1393.45" r="14.4" fill="#e26f46" fill-rule="evenodd" fill-opacity="1" stroke="#000000" stroke-opacity="1" stroke-width="3.84"/>
<circle clip-path="url(#clip402)" cx="2201.06" cy="1399.9" r="14.4" fill="#e26f46" fill-rule="evenodd" fill-opacity="1" stroke="#000000" stroke-opacity="1" stroke-width="3.84"/>
<circle clip-path="url(#clip402)" cx="2249.91" cy="1405.1" r="14.4" fill="#e26f46" fill-rule="evenodd" fill-opacity="1" stroke="#000000" stroke-opacity="1" stroke-width="3.84"/>
<circle clip-path="url(#clip402)" cx="2298.77" cy="1472.58" r="14.4" fill="#e26f46" fill-rule="evenodd" fill-opacity="1" stroke="#000000" stroke-opacity="1" stroke-width="3.84"/>
<circle clip-path="url(#clip402)" cx="2347.63" cy="1495.9" r="14.4" fill="#e26f46" fill-rule="evenodd" fill-opacity="1" stroke="#000000" stroke-opacity="1" stroke-width="3.84"/>
<circle clip-path="url(#clip402)" cx="2396.48" cy="1471.49" r="14.4" fill="#e26f46" fill-rule="evenodd" fill-opacity="1" stroke="#000000" stroke-opacity="1" stroke-width="3.84"/>
<circle clip-path="url(#clip402)" cx="2445.34" cy="1271.09" r="14.4" fill="#e26f46" fill-rule="evenodd" fill-opacity="1" stroke="#000000" stroke-opacity="1" stroke-width="3.84"/>
<circle clip-path="url(#clip402)" cx="2494.19" cy="1109.64" r="14.4" fill="#e26f46" fill-rule="evenodd" fill-opacity="1" stroke="#000000" stroke-opacity="1" stroke-width="3.84"/>
<circle clip-path="url(#clip402)" cx="2543.05" cy="1134.96" r="14.4" fill="#e26f46" fill-rule="evenodd" fill-opacity="1" stroke="#000000" stroke-opacity="1" stroke-width="3.84"/>
<circle clip-path="url(#clip402)" cx="2591.9" cy="1031.66" r="14.4" fill="#e26f46" fill-rule="evenodd" fill-opacity="1" stroke="#000000" stroke-opacity="1" stroke-width="3.84"/>
<circle clip-path="url(#clip402)" cx="2640.76" cy="1144.47" r="14.4" fill="#e26f46" fill-rule="evenodd" fill-opacity="1" stroke="#000000" stroke-opacity="1" stroke-width="3.84"/>
<path clip-path="url(#clip400)" d="M279.425 362.673 L1200.5 362.673 L1200.5 103.473 L279.425 103.473  Z" fill="#ffffff" fill-rule="evenodd" fill-opacity="1"/>
<polyline clip-path="url(#clip400)" style="stroke:#000000; stroke-linecap:round; stroke-linejoin:round; stroke-width:4; stroke-opacity:1; fill:none" points="279.425,362.673 1200.5,362.673 1200.5,103.473 279.425,103.473 279.425,362.673 "/>
<polyline clip-path="url(#clip400)" style="stroke:#009af9; stroke-linecap:round; stroke-linejoin:round; stroke-width:4; stroke-opacity:1; fill:none" points="306.566,155.313 469.417,155.313 "/>
<path clip-path="url(#clip400)" d="M496.559 138.033 L501.234 138.033 L501.234 172.593 L496.559 172.593 L496.559 138.033 Z" fill="#000000" fill-rule="nonzero" fill-opacity="1" /><path clip-path="url(#clip400)" d="M531.906 156.945 L531.906 172.593 L527.646 172.593 L527.646 157.084 Q527.646 153.403 526.211 151.575 Q524.776 149.746 521.906 149.746 Q518.457 149.746 516.466 151.945 Q514.475 154.144 514.475 157.94 L514.475 172.593 L510.193 172.593 L510.193 146.667 L514.475 146.667 L514.475 150.695 Q516.003 148.357 518.063 147.2 Q520.146 146.042 522.855 146.042 Q527.322 146.042 529.614 148.82 Q531.906 151.575 531.906 156.945 Z" fill="#000000" fill-rule="nonzero" fill-opacity="1" /><path clip-path="url(#clip400)" d="M553.526 136.575 L553.526 140.117 L549.452 140.117 Q547.16 140.117 546.257 141.042 Q545.378 141.968 545.378 144.376 L545.378 146.667 L552.392 146.667 L552.392 149.978 L545.378 149.978 L545.378 172.593 L541.095 172.593 L541.095 149.978 L537.021 149.978 L537.021 146.667 L541.095 146.667 L541.095 144.862 Q541.095 140.533 543.109 138.566 Q545.123 136.575 549.498 136.575 L553.526 136.575 Z" fill="#000000" fill-rule="nonzero" fill-opacity="1" /><path clip-path="url(#clip400)" d="M579.266 158.565 L579.266 160.649 L559.683 160.649 Q559.961 165.047 562.322 167.362 Q564.706 169.653 568.942 169.653 Q571.396 169.653 573.688 169.052 Q576.003 168.45 578.271 167.246 L578.271 171.274 Q575.979 172.246 573.572 172.755 Q571.165 173.264 568.688 173.264 Q562.484 173.264 558.85 169.653 Q555.239 166.042 555.239 159.885 Q555.239 153.519 558.665 149.792 Q562.114 146.042 567.947 146.042 Q573.179 146.042 576.211 149.422 Q579.266 152.778 579.266 158.565 M575.007 157.315 Q574.961 153.82 573.04 151.737 Q571.141 149.653 567.993 149.653 Q564.429 149.653 562.276 151.667 Q560.146 153.681 559.822 157.339 L575.007 157.315 Z" fill="#000000" fill-rule="nonzero" fill-opacity="1" /><path clip-path="url(#clip400)" d="M601.28 150.649 Q600.563 150.232 599.706 150.047 Q598.873 149.839 597.854 149.839 Q594.243 149.839 592.299 152.2 Q590.378 154.538 590.378 158.936 L590.378 172.593 L586.095 172.593 L586.095 146.667 L590.378 146.667 L590.378 150.695 Q591.72 148.334 593.873 147.2 Q596.026 146.042 599.104 146.042 Q599.544 146.042 600.077 146.112 Q600.609 146.158 601.257 146.274 L601.28 150.649 Z" fill="#000000" fill-rule="nonzero" fill-opacity="1" /><path clip-path="url(#clip400)" d="M619.938 150.649 Q619.22 150.232 618.363 150.047 Q617.53 149.839 616.512 149.839 Q612.901 149.839 610.956 152.2 Q609.035 154.538 609.035 158.936 L609.035 172.593 L604.752 172.593 L604.752 146.667 L609.035 146.667 L609.035 150.695 Q610.377 148.334 612.53 147.2 Q614.683 146.042 617.762 146.042 Q618.201 146.042 618.734 146.112 Q619.266 146.158 619.914 146.274 L619.938 150.649 Z" fill="#000000" fill-rule="nonzero" fill-opacity="1" /><path clip-path="url(#clip400)" d="M645.539 158.565 L645.539 160.649 L625.956 160.649 Q626.234 165.047 628.595 167.362 Q630.979 169.653 635.215 169.653 Q637.669 169.653 639.961 169.052 Q642.275 168.45 644.544 167.246 L644.544 171.274 Q642.252 172.246 639.845 172.755 Q637.437 173.264 634.961 173.264 Q628.757 173.264 625.123 169.653 Q621.512 166.042 621.512 159.885 Q621.512 153.519 624.938 149.792 Q628.387 146.042 634.22 146.042 Q639.451 146.042 642.484 149.422 Q645.539 152.778 645.539 158.565 M641.28 157.315 Q641.234 153.82 639.312 151.737 Q637.414 149.653 634.266 149.653 Q630.701 149.653 628.549 151.667 Q626.419 153.681 626.095 157.339 L641.28 157.315 Z" fill="#000000" fill-rule="nonzero" fill-opacity="1" /><path clip-path="url(#clip400)" d="M669.59 150.603 L669.59 136.575 L673.849 136.575 L673.849 172.593 L669.59 172.593 L669.59 168.704 Q668.247 171.019 666.187 172.153 Q664.15 173.264 661.28 173.264 Q656.581 173.264 653.618 169.515 Q650.678 165.765 650.678 159.653 Q650.678 153.542 653.618 149.792 Q656.581 146.042 661.28 146.042 Q664.15 146.042 666.187 147.177 Q668.247 148.288 669.59 150.603 M655.076 159.653 Q655.076 164.352 656.998 167.038 Q658.942 169.7 662.322 169.7 Q665.701 169.7 667.646 167.038 Q669.59 164.352 669.59 159.653 Q669.59 154.954 667.646 152.292 Q665.701 149.607 662.322 149.607 Q658.942 149.607 656.998 152.292 Q655.076 154.954 655.076 159.653 Z" fill="#000000" fill-rule="nonzero" fill-opacity="1" /><path clip-path="url(#clip400)" d="M701.812 168.704 L701.812 182.454 L697.53 182.454 L697.53 146.667 L701.812 146.667 L701.812 150.603 Q703.155 148.288 705.192 147.177 Q707.252 146.042 710.099 146.042 Q714.821 146.042 717.761 149.792 Q720.724 153.542 720.724 159.653 Q720.724 165.765 717.761 169.515 Q714.821 173.264 710.099 173.264 Q707.252 173.264 705.192 172.153 Q703.155 171.019 701.812 168.704 M716.303 159.653 Q716.303 154.954 714.358 152.292 Q712.437 149.607 709.057 149.607 Q705.678 149.607 703.733 152.292 Q701.812 154.954 701.812 159.653 Q701.812 164.352 703.733 167.038 Q705.678 169.7 709.057 169.7 Q712.437 169.7 714.358 167.038 Q716.303 164.352 716.303 159.653 Z" fill="#000000" fill-rule="nonzero" fill-opacity="1" /><path clip-path="url(#clip400)" d="M742.807 150.649 Q742.09 150.232 741.233 150.047 Q740.4 149.839 739.381 149.839 Q735.77 149.839 733.826 152.2 Q731.905 154.538 731.905 158.936 L731.905 172.593 L727.622 172.593 L727.622 146.667 L731.905 146.667 L731.905 150.695 Q733.247 148.334 735.4 147.2 Q737.553 146.042 740.631 146.042 Q741.071 146.042 741.604 146.112 Q742.136 146.158 742.784 146.274 L742.807 150.649 Z" fill="#000000" fill-rule="nonzero" fill-opacity="1" /><path clip-path="url(#clip400)" d="M768.409 158.565 L768.409 160.649 L748.826 160.649 Q749.104 165.047 751.465 167.362 Q753.849 169.653 758.085 169.653 Q760.539 169.653 762.83 169.052 Q765.145 168.45 767.414 167.246 L767.414 171.274 Q765.122 172.246 762.715 172.755 Q760.307 173.264 757.83 173.264 Q751.627 173.264 747.992 169.653 Q744.381 166.042 744.381 159.885 Q744.381 153.519 747.807 149.792 Q751.256 146.042 757.09 146.042 Q762.321 146.042 765.353 149.422 Q768.409 152.778 768.409 158.565 M764.15 157.315 Q764.103 153.82 762.182 151.737 Q760.284 149.653 757.136 149.653 Q753.571 149.653 751.418 151.667 Q749.289 153.681 748.965 157.339 L764.15 157.315 Z" fill="#000000" fill-rule="nonzero" fill-opacity="1" /><path clip-path="url(#clip400)" d="M792.46 150.603 L792.46 136.575 L796.719 136.575 L796.719 172.593 L792.46 172.593 L792.46 168.704 Q791.117 171.019 789.057 172.153 Q787.02 173.264 784.15 173.264 Q779.451 173.264 776.488 169.515 Q773.548 165.765 773.548 159.653 Q773.548 153.542 776.488 149.792 Q779.451 146.042 784.15 146.042 Q787.02 146.042 789.057 147.177 Q791.117 148.288 792.46 150.603 M777.946 159.653 Q777.946 164.352 779.867 167.038 Q781.812 169.7 785.191 169.7 Q788.571 169.7 790.515 167.038 Q792.46 164.352 792.46 159.653 Q792.46 154.954 790.515 152.292 Q788.571 149.607 785.191 149.607 Q781.812 149.607 779.867 152.292 Q777.946 154.954 777.946 159.653 Z" fill="#000000" fill-rule="nonzero" fill-opacity="1" /><path clip-path="url(#clip400)" d="M817.274 159.561 Q812.112 159.561 810.122 160.741 Q808.131 161.922 808.131 164.769 Q808.131 167.038 809.612 168.38 Q811.117 169.7 813.686 169.7 Q817.228 169.7 819.358 167.2 Q821.511 164.677 821.511 160.51 L821.511 159.561 L817.274 159.561 M825.77 157.802 L825.77 172.593 L821.511 172.593 L821.511 168.658 Q820.052 171.019 817.876 172.153 Q815.7 173.264 812.552 173.264 Q808.571 173.264 806.21 171.042 Q803.872 168.797 803.872 165.047 Q803.872 160.672 806.788 158.45 Q809.728 156.228 815.538 156.228 L821.511 156.228 L821.511 155.811 Q821.511 152.871 819.566 151.274 Q817.645 149.653 814.149 149.653 Q811.927 149.653 809.821 150.186 Q807.714 150.718 805.77 151.783 L805.77 147.848 Q808.108 146.945 810.307 146.505 Q812.506 146.042 814.589 146.042 Q820.214 146.042 822.992 148.959 Q825.77 151.876 825.77 157.802 Z" fill="#000000" fill-rule="nonzero" fill-opacity="1" /><path clip-path="url(#clip400)" d="M838.756 139.306 L838.756 146.667 L847.529 146.667 L847.529 149.978 L838.756 149.978 L838.756 164.052 Q838.756 167.223 839.612 168.126 Q840.492 169.028 843.154 169.028 L847.529 169.028 L847.529 172.593 L843.154 172.593 Q838.223 172.593 836.348 170.764 Q834.473 168.913 834.473 164.052 L834.473 149.978 L831.348 149.978 L831.348 146.667 L834.473 146.667 L834.473 139.306 L838.756 139.306 Z" fill="#000000" fill-rule="nonzero" fill-opacity="1" /><path clip-path="url(#clip400)" d="M863.177 149.653 Q859.751 149.653 857.76 152.339 Q855.77 155.001 855.77 159.653 Q855.77 164.306 857.737 166.991 Q859.728 169.653 863.177 169.653 Q866.58 169.653 868.57 166.968 Q870.561 164.283 870.561 159.653 Q870.561 155.047 868.57 152.362 Q866.58 149.653 863.177 149.653 M863.177 146.042 Q868.732 146.042 871.904 149.653 Q875.075 153.265 875.075 159.653 Q875.075 166.019 871.904 169.653 Q868.732 173.264 863.177 173.264 Q857.598 173.264 854.427 169.653 Q851.279 166.019 851.279 159.653 Q851.279 153.265 854.427 149.653 Q857.598 146.042 863.177 146.042 Z" fill="#000000" fill-rule="nonzero" fill-opacity="1" /><path clip-path="url(#clip400)" d="M897.158 150.649 Q896.441 150.232 895.584 150.047 Q894.751 149.839 893.732 149.839 Q890.121 149.839 888.177 152.2 Q886.256 154.538 886.256 158.936 L886.256 172.593 L881.973 172.593 L881.973 146.667 L886.256 146.667 L886.256 150.695 Q887.598 148.334 889.751 147.2 Q891.904 146.042 894.982 146.042 Q895.422 146.042 895.955 146.112 Q896.487 146.158 897.135 146.274 L897.158 150.649 Z" fill="#000000" fill-rule="nonzero" fill-opacity="1" /><path clip-path="url(#clip400)" d="M928.478 159.561 Q923.316 159.561 921.325 160.741 Q919.334 161.922 919.334 164.769 Q919.334 167.038 920.816 168.38 Q922.32 169.7 924.89 169.7 Q928.431 169.7 930.561 167.2 Q932.714 164.677 932.714 160.51 L932.714 159.561 L928.478 159.561 M936.973 157.802 L936.973 172.593 L932.714 172.593 L932.714 168.658 Q931.255 171.019 929.079 172.153 Q926.903 173.264 923.755 173.264 Q919.774 173.264 917.413 171.042 Q915.075 168.797 915.075 165.047 Q915.075 160.672 917.991 158.45 Q920.931 156.228 926.741 156.228 L932.714 156.228 L932.714 155.811 Q932.714 152.871 930.769 151.274 Q928.848 149.653 925.353 149.653 Q923.13 149.653 921.024 150.186 Q918.917 150.718 916.973 151.783 L916.973 147.848 Q919.311 146.945 921.51 146.505 Q923.709 146.042 925.792 146.042 Q931.417 146.042 934.195 148.959 Q936.973 151.876 936.973 157.802 Z" fill="#000000" fill-rule="nonzero" fill-opacity="1" /><path clip-path="url(#clip400)" d="M964.357 159.653 Q964.357 154.954 962.413 152.292 Q960.491 149.607 957.112 149.607 Q953.732 149.607 951.788 152.292 Q949.866 154.954 949.866 159.653 Q949.866 164.352 951.788 167.038 Q953.732 169.7 957.112 169.7 Q960.491 169.7 962.413 167.038 Q964.357 164.352 964.357 159.653 M949.866 150.603 Q951.209 148.288 953.246 147.177 Q955.306 146.042 958.153 146.042 Q962.876 146.042 965.815 149.792 Q968.778 153.542 968.778 159.653 Q968.778 165.765 965.815 169.515 Q962.876 173.264 958.153 173.264 Q955.306 173.264 953.246 172.153 Q951.209 171.019 949.866 168.704 L949.866 172.593 L945.584 172.593 L945.584 136.575 L949.866 136.575 L949.866 150.603 Z" fill="#000000" fill-rule="nonzero" fill-opacity="1" /><path clip-path="url(#clip400)" d="M975.399 162.362 L975.399 146.667 L979.658 146.667 L979.658 162.2 Q979.658 165.88 981.093 167.732 Q982.528 169.561 985.399 169.561 Q988.848 169.561 990.838 167.362 Q992.852 165.163 992.852 161.366 L992.852 146.667 L997.111 146.667 L997.111 172.593 L992.852 172.593 L992.852 168.612 Q991.301 170.973 989.241 172.13 Q987.204 173.264 984.496 173.264 Q980.028 173.264 977.713 170.487 Q975.399 167.709 975.399 162.362 M986.116 146.042 L986.116 146.042 Z" fill="#000000" fill-rule="nonzero" fill-opacity="1" /><path clip-path="url(#clip400)" d="M1027.44 156.945 L1027.44 172.593 L1023.18 172.593 L1023.18 157.084 Q1023.18 153.403 1021.74 151.575 Q1020.31 149.746 1017.44 149.746 Q1013.99 149.746 1012 151.945 Q1010 154.144 1010 157.94 L1010 172.593 L1005.72 172.593 L1005.72 146.667 L1010 146.667 L1010 150.695 Q1011.53 148.357 1013.59 147.2 Q1015.68 146.042 1018.38 146.042 Q1022.85 146.042 1025.14 148.82 Q1027.44 151.575 1027.44 156.945 Z" fill="#000000" fill-rule="nonzero" fill-opacity="1" /><path clip-path="url(#clip400)" d="M1052.99 150.603 L1052.99 136.575 L1057.25 136.575 L1057.25 172.593 L1052.99 172.593 L1052.99 168.704 Q1051.65 171.019 1049.59 172.153 Q1047.55 173.264 1044.68 173.264 Q1039.98 173.264 1037.02 169.515 Q1034.08 165.765 1034.08 159.653 Q1034.08 153.542 1037.02 149.792 Q1039.98 146.042 1044.68 146.042 Q1047.55 146.042 1049.59 147.177 Q1051.65 148.288 1052.99 150.603 M1038.48 159.653 Q1038.48 164.352 1040.4 167.038 Q1042.34 169.7 1045.72 169.7 Q1049.1 169.7 1051.05 167.038 Q1052.99 164.352 1052.99 159.653 Q1052.99 154.954 1051.05 152.292 Q1049.1 149.607 1045.72 149.607 Q1042.34 149.607 1040.4 152.292 Q1038.48 154.954 1038.48 159.653 Z" fill="#000000" fill-rule="nonzero" fill-opacity="1" /><path clip-path="url(#clip400)" d="M1077.81 159.561 Q1072.64 159.561 1070.65 160.741 Q1068.66 161.922 1068.66 164.769 Q1068.66 167.038 1070.14 168.38 Q1071.65 169.7 1074.22 169.7 Q1077.76 169.7 1079.89 167.2 Q1082.04 164.677 1082.04 160.51 L1082.04 159.561 L1077.81 159.561 M1086.3 157.802 L1086.3 172.593 L1082.04 172.593 L1082.04 168.658 Q1080.58 171.019 1078.41 172.153 Q1076.23 173.264 1073.08 173.264 Q1069.1 173.264 1066.74 171.042 Q1064.4 168.797 1064.4 165.047 Q1064.4 160.672 1067.32 158.45 Q1070.26 156.228 1076.07 156.228 L1082.04 156.228 L1082.04 155.811 Q1082.04 152.871 1080.1 151.274 Q1078.18 149.653 1074.68 149.653 Q1072.46 149.653 1070.35 150.186 Q1068.25 150.718 1066.3 151.783 L1066.3 147.848 Q1068.64 146.945 1070.84 146.505 Q1073.04 146.042 1075.12 146.042 Q1080.75 146.042 1083.52 148.959 Q1086.3 151.876 1086.3 157.802 Z" fill="#000000" fill-rule="nonzero" fill-opacity="1" /><path clip-path="url(#clip400)" d="M1116.62 156.945 L1116.62 172.593 L1112.37 172.593 L1112.37 157.084 Q1112.37 153.403 1110.93 151.575 Q1109.5 149.746 1106.62 149.746 Q1103.18 149.746 1101.18 151.945 Q1099.19 154.144 1099.19 157.94 L1099.19 172.593 L1094.91 172.593 L1094.91 146.667 L1099.19 146.667 L1099.19 150.695 Q1100.72 148.357 1102.78 147.2 Q1104.87 146.042 1107.57 146.042 Q1112.04 146.042 1114.33 148.82 Q1116.62 151.575 1116.62 156.945 Z" fill="#000000" fill-rule="nonzero" fill-opacity="1" /><path clip-path="url(#clip400)" d="M1143.78 147.663 L1143.78 151.644 Q1141.97 150.649 1140.14 150.163 Q1138.34 149.653 1136.49 149.653 Q1132.34 149.653 1130.05 152.292 Q1127.76 154.908 1127.76 159.653 Q1127.76 164.399 1130.05 167.038 Q1132.34 169.653 1136.49 169.653 Q1138.34 169.653 1140.14 169.167 Q1141.97 168.658 1143.78 167.663 L1143.78 171.598 Q1141.99 172.431 1140.07 172.848 Q1138.18 173.264 1136.02 173.264 Q1130.17 173.264 1126.72 169.584 Q1123.27 165.903 1123.27 159.653 Q1123.27 153.311 1126.74 149.677 Q1130.24 146.042 1136.3 146.042 Q1138.27 146.042 1140.14 146.459 Q1142.02 146.853 1143.78 147.663 Z" fill="#000000" fill-rule="nonzero" fill-opacity="1" /><path clip-path="url(#clip400)" d="M1173.36 158.565 L1173.36 160.649 L1153.78 160.649 Q1154.06 165.047 1156.42 167.362 Q1158.8 169.653 1163.04 169.653 Q1165.49 169.653 1167.78 169.052 Q1170.1 168.45 1172.37 167.246 L1172.37 171.274 Q1170.07 172.246 1167.67 172.755 Q1165.26 173.264 1162.78 173.264 Q1156.58 173.264 1152.94 169.653 Q1149.33 166.042 1149.33 159.885 Q1149.33 153.519 1152.76 149.792 Q1156.21 146.042 1162.04 146.042 Q1167.27 146.042 1170.3 149.422 Q1173.36 152.778 1173.36 158.565 M1169.1 157.315 Q1169.05 153.82 1167.13 151.737 Q1165.24 149.653 1162.09 149.653 Q1158.52 149.653 1156.37 151.667 Q1154.24 153.681 1153.92 157.339 L1169.1 157.315 Z" fill="#000000" fill-rule="nonzero" fill-opacity="1" /><polyline clip-path="url(#clip400)" style="stroke:#e26f46; stroke-linecap:round; stroke-linejoin:round; stroke-width:4; stroke-opacity:1; fill:none" points="306.566,207.153 469.417,207.153 "/>
<path clip-path="url(#clip400)" d="M496.559 189.873 L501.234 189.873 L501.234 224.433 L496.559 224.433 L496.559 189.873 Z" fill="#000000" fill-rule="nonzero" fill-opacity="1" /><path clip-path="url(#clip400)" d="M531.906 208.785 L531.906 224.433 L527.646 224.433 L527.646 208.924 Q527.646 205.243 526.211 203.415 Q524.776 201.586 521.906 201.586 Q518.457 201.586 516.466 203.785 Q514.475 205.984 514.475 209.78 L514.475 224.433 L510.193 224.433 L510.193 198.507 L514.475 198.507 L514.475 202.535 Q516.003 200.197 518.063 199.04 Q520.146 197.882 522.855 197.882 Q527.322 197.882 529.614 200.66 Q531.906 203.415 531.906 208.785 Z" fill="#000000" fill-rule="nonzero" fill-opacity="1" /><path clip-path="url(#clip400)" d="M553.526 188.415 L553.526 191.957 L549.452 191.957 Q547.16 191.957 546.257 192.882 Q545.378 193.808 545.378 196.216 L545.378 198.507 L552.392 198.507 L552.392 201.818 L545.378 201.818 L545.378 224.433 L541.095 224.433 L541.095 201.818 L537.021 201.818 L537.021 198.507 L541.095 198.507 L541.095 196.702 Q541.095 192.373 543.109 190.406 Q545.123 188.415 549.498 188.415 L553.526 188.415 Z" fill="#000000" fill-rule="nonzero" fill-opacity="1" /><path clip-path="url(#clip400)" d="M579.266 210.405 L579.266 212.489 L559.683 212.489 Q559.961 216.887 562.322 219.202 Q564.706 221.493 568.942 221.493 Q571.396 221.493 573.688 220.892 Q576.003 220.29 578.271 219.086 L578.271 223.114 Q575.979 224.086 573.572 224.595 Q571.165 225.104 568.688 225.104 Q562.484 225.104 558.85 221.493 Q555.239 217.882 555.239 211.725 Q555.239 205.359 558.665 201.632 Q562.114 197.882 567.947 197.882 Q573.179 197.882 576.211 201.262 Q579.266 204.618 579.266 210.405 M575.007 209.155 Q574.961 205.66 573.04 203.577 Q571.141 201.493 567.993 201.493 Q564.429 201.493 562.276 203.507 Q560.146 205.521 559.822 209.179 L575.007 209.155 Z" fill="#000000" fill-rule="nonzero" fill-opacity="1" /><path clip-path="url(#clip400)" d="M601.28 202.489 Q600.563 202.072 599.706 201.887 Q598.873 201.679 597.854 201.679 Q594.243 201.679 592.299 204.04 Q590.378 206.378 590.378 210.776 L590.378 224.433 L586.095 224.433 L586.095 198.507 L590.378 198.507 L590.378 202.535 Q591.72 200.174 593.873 199.04 Q596.026 197.882 599.104 197.882 Q599.544 197.882 600.077 197.952 Q600.609 197.998 601.257 198.114 L601.28 202.489 Z" fill="#000000" fill-rule="nonzero" fill-opacity="1" /><path clip-path="url(#clip400)" d="M619.938 202.489 Q619.22 202.072 618.363 201.887 Q617.53 201.679 616.512 201.679 Q612.901 201.679 610.956 204.04 Q609.035 206.378 609.035 210.776 L609.035 224.433 L604.752 224.433 L604.752 198.507 L609.035 198.507 L609.035 202.535 Q610.377 200.174 612.53 199.04 Q614.683 197.882 617.762 197.882 Q618.201 197.882 618.734 197.952 Q619.266 197.998 619.914 198.114 L619.938 202.489 Z" fill="#000000" fill-rule="nonzero" fill-opacity="1" /><path clip-path="url(#clip400)" d="M645.539 210.405 L645.539 212.489 L625.956 212.489 Q626.234 216.887 628.595 219.202 Q630.979 221.493 635.215 221.493 Q637.669 221.493 639.961 220.892 Q642.275 220.29 644.544 219.086 L644.544 223.114 Q642.252 224.086 639.845 224.595 Q637.437 225.104 634.961 225.104 Q628.757 225.104 625.123 221.493 Q621.512 217.882 621.512 211.725 Q621.512 205.359 624.938 201.632 Q628.387 197.882 634.22 197.882 Q639.451 197.882 642.484 201.262 Q645.539 204.618 645.539 210.405 M641.28 209.155 Q641.234 205.66 639.312 203.577 Q637.414 201.493 634.266 201.493 Q630.701 201.493 628.549 203.507 Q626.419 205.521 626.095 209.179 L641.28 209.155 Z" fill="#000000" fill-rule="nonzero" fill-opacity="1" /><path clip-path="url(#clip400)" d="M669.59 202.443 L669.59 188.415 L673.849 188.415 L673.849 224.433 L669.59 224.433 L669.59 220.544 Q668.247 222.859 666.187 223.993 Q664.15 225.104 661.28 225.104 Q656.581 225.104 653.618 221.355 Q650.678 217.605 650.678 211.493 Q650.678 205.382 653.618 201.632 Q656.581 197.882 661.28 197.882 Q664.15 197.882 666.187 199.017 Q668.247 200.128 669.59 202.443 M655.076 211.493 Q655.076 216.192 656.998 218.878 Q658.942 221.54 662.322 221.54 Q665.701 221.54 667.646 218.878 Q669.59 216.192 669.59 211.493 Q669.59 206.794 667.646 204.132 Q665.701 201.447 662.322 201.447 Q658.942 201.447 656.998 204.132 Q655.076 206.794 655.076 211.493 Z" fill="#000000" fill-rule="nonzero" fill-opacity="1" /><path clip-path="url(#clip400)" d="M701.812 220.544 L701.812 234.294 L697.53 234.294 L697.53 198.507 L701.812 198.507 L701.812 202.443 Q703.155 200.128 705.192 199.017 Q707.252 197.882 710.099 197.882 Q714.821 197.882 717.761 201.632 Q720.724 205.382 720.724 211.493 Q720.724 217.605 717.761 221.355 Q714.821 225.104 710.099 225.104 Q707.252 225.104 705.192 223.993 Q703.155 222.859 701.812 220.544 M716.303 211.493 Q716.303 206.794 714.358 204.132 Q712.437 201.447 709.057 201.447 Q705.678 201.447 703.733 204.132 Q701.812 206.794 701.812 211.493 Q701.812 216.192 703.733 218.878 Q705.678 221.54 709.057 221.54 Q712.437 221.54 714.358 218.878 Q716.303 216.192 716.303 211.493 Z" fill="#000000" fill-rule="nonzero" fill-opacity="1" /><path clip-path="url(#clip400)" d="M742.807 202.489 Q742.09 202.072 741.233 201.887 Q740.4 201.679 739.381 201.679 Q735.77 201.679 733.826 204.04 Q731.905 206.378 731.905 210.776 L731.905 224.433 L727.622 224.433 L727.622 198.507 L731.905 198.507 L731.905 202.535 Q733.247 200.174 735.4 199.04 Q737.553 197.882 740.631 197.882 Q741.071 197.882 741.604 197.952 Q742.136 197.998 742.784 198.114 L742.807 202.489 Z" fill="#000000" fill-rule="nonzero" fill-opacity="1" /><path clip-path="url(#clip400)" d="M768.409 210.405 L768.409 212.489 L748.826 212.489 Q749.104 216.887 751.465 219.202 Q753.849 221.493 758.085 221.493 Q760.539 221.493 762.83 220.892 Q765.145 220.29 767.414 219.086 L767.414 223.114 Q765.122 224.086 762.715 224.595 Q760.307 225.104 757.83 225.104 Q751.627 225.104 747.992 221.493 Q744.381 217.882 744.381 211.725 Q744.381 205.359 747.807 201.632 Q751.256 197.882 757.09 197.882 Q762.321 197.882 765.353 201.262 Q768.409 204.618 768.409 210.405 M764.15 209.155 Q764.103 205.66 762.182 203.577 Q760.284 201.493 757.136 201.493 Q753.571 201.493 751.418 203.507 Q749.289 205.521 748.965 209.179 L764.15 209.155 Z" fill="#000000" fill-rule="nonzero" fill-opacity="1" /><path clip-path="url(#clip400)" d="M786.187 226.841 Q784.381 231.47 782.668 232.882 Q780.955 234.294 778.085 234.294 L774.682 234.294 L774.682 230.729 L777.182 230.729 Q778.941 230.729 779.914 229.896 Q780.886 229.063 782.066 225.961 L782.83 224.017 L772.344 198.507 L776.858 198.507 L784.96 218.785 L793.062 198.507 L797.575 198.507 L786.187 226.841 Z" fill="#000000" fill-rule="nonzero" fill-opacity="1" /><path clip-path="url(#clip400)" d="M830.307 211.401 Q825.145 211.401 823.154 212.581 Q821.163 213.762 821.163 216.609 Q821.163 218.878 822.645 220.22 Q824.149 221.54 826.719 221.54 Q830.26 221.54 832.39 219.04 Q834.543 216.517 834.543 212.35 L834.543 211.401 L830.307 211.401 M838.802 209.642 L838.802 224.433 L834.543 224.433 L834.543 220.498 Q833.085 222.859 830.909 223.993 Q828.733 225.104 825.585 225.104 Q821.603 225.104 819.242 222.882 Q816.904 220.637 816.904 216.887 Q816.904 212.512 819.821 210.29 Q822.761 208.068 828.571 208.068 L834.543 208.068 L834.543 207.651 Q834.543 204.711 832.598 203.114 Q830.677 201.493 827.182 201.493 Q824.96 201.493 822.853 202.026 Q820.747 202.558 818.802 203.623 L818.802 199.688 Q821.14 198.785 823.339 198.345 Q825.538 197.882 827.622 197.882 Q833.247 197.882 836.024 200.799 Q838.802 203.716 838.802 209.642 Z" fill="#000000" fill-rule="nonzero" fill-opacity="1" /><path clip-path="url(#clip400)" d="M866.186 211.493 Q866.186 206.794 864.242 204.132 Q862.32 201.447 858.941 201.447 Q855.561 201.447 853.617 204.132 Q851.696 206.794 851.696 211.493 Q851.696 216.192 853.617 218.878 Q855.561 221.54 858.941 221.54 Q862.32 221.54 864.242 218.878 Q866.186 216.192 866.186 211.493 M851.696 202.443 Q853.038 200.128 855.075 199.017 Q857.135 197.882 859.983 197.882 Q864.705 197.882 867.645 201.632 Q870.607 205.382 870.607 211.493 Q870.607 217.605 867.645 221.355 Q864.705 225.104 859.983 225.104 Q857.135 225.104 855.075 223.993 Q853.038 222.859 851.696 220.544 L851.696 224.433 L847.413 224.433 L847.413 188.415 L851.696 188.415 L851.696 202.443 Z" fill="#000000" fill-rule="nonzero" fill-opacity="1" /><path clip-path="url(#clip400)" d="M877.228 214.202 L877.228 198.507 L881.487 198.507 L881.487 214.04 Q881.487 217.72 882.922 219.572 Q884.357 221.401 887.228 221.401 Q890.677 221.401 892.668 219.202 Q894.681 217.003 894.681 213.206 L894.681 198.507 L898.941 198.507 L898.941 224.433 L894.681 224.433 L894.681 220.452 Q893.131 222.813 891.07 223.97 Q889.033 225.104 886.325 225.104 Q881.857 225.104 879.543 222.327 Q877.228 219.549 877.228 214.202 M887.945 197.882 L887.945 197.882 Z" fill="#000000" fill-rule="nonzero" fill-opacity="1" /><path clip-path="url(#clip400)" d="M929.265 208.785 L929.265 224.433 L925.005 224.433 L925.005 208.924 Q925.005 205.243 923.57 203.415 Q922.135 201.586 919.265 201.586 Q915.816 201.586 913.825 203.785 Q911.834 205.984 911.834 209.78 L911.834 224.433 L907.552 224.433 L907.552 198.507 L911.834 198.507 L911.834 202.535 Q913.362 200.197 915.422 199.04 Q917.505 197.882 920.214 197.882 Q924.681 197.882 926.973 200.66 Q929.265 203.415 929.265 208.785 Z" fill="#000000" fill-rule="nonzero" fill-opacity="1" /><path clip-path="url(#clip400)" d="M954.82 202.443 L954.82 188.415 L959.079 188.415 L959.079 224.433 L954.82 224.433 L954.82 220.544 Q953.477 222.859 951.417 223.993 Q949.38 225.104 946.51 225.104 Q941.811 225.104 938.848 221.355 Q935.908 217.605 935.908 211.493 Q935.908 205.382 938.848 201.632 Q941.811 197.882 946.51 197.882 Q949.38 197.882 951.417 199.017 Q953.477 200.128 954.82 202.443 M940.306 211.493 Q940.306 216.192 942.227 218.878 Q944.172 221.54 947.552 221.54 Q950.931 221.54 952.876 218.878 Q954.82 216.192 954.82 211.493 Q954.82 206.794 952.876 204.132 Q950.931 201.447 947.552 201.447 Q944.172 201.447 942.227 204.132 Q940.306 206.794 940.306 211.493 Z" fill="#000000" fill-rule="nonzero" fill-opacity="1" /><path clip-path="url(#clip400)" d="M979.635 211.401 Q974.473 211.401 972.482 212.581 Q970.491 213.762 970.491 216.609 Q970.491 218.878 971.973 220.22 Q973.477 221.54 976.047 221.54 Q979.588 221.54 981.718 219.04 Q983.871 216.517 983.871 212.35 L983.871 211.401 L979.635 211.401 M988.13 209.642 L988.13 224.433 L983.871 224.433 L983.871 220.498 Q982.412 222.859 980.237 223.993 Q978.061 225.104 974.912 225.104 Q970.931 225.104 968.57 222.882 Q966.232 220.637 966.232 216.887 Q966.232 212.512 969.149 210.29 Q972.088 208.068 977.899 208.068 L983.871 208.068 L983.871 207.651 Q983.871 204.711 981.926 203.114 Q980.005 201.493 976.51 201.493 Q974.287 201.493 972.181 202.026 Q970.075 202.558 968.13 203.623 L968.13 199.688 Q970.468 198.785 972.667 198.345 Q974.866 197.882 976.95 197.882 Q982.574 197.882 985.352 200.799 Q988.13 203.716 988.13 209.642 Z" fill="#000000" fill-rule="nonzero" fill-opacity="1" /><path clip-path="url(#clip400)" d="M1018.45 208.785 L1018.45 224.433 L1014.19 224.433 L1014.19 208.924 Q1014.19 205.243 1012.76 203.415 Q1011.32 201.586 1008.45 201.586 Q1005 201.586 1003.01 203.785 Q1001.02 205.984 1001.02 209.78 L1001.02 224.433 L996.741 224.433 L996.741 198.507 L1001.02 198.507 L1001.02 202.535 Q1002.55 200.197 1004.61 199.04 Q1006.69 197.882 1009.4 197.882 Q1013.87 197.882 1016.16 200.66 Q1018.45 203.415 1018.45 208.785 Z" fill="#000000" fill-rule="nonzero" fill-opacity="1" /><path clip-path="url(#clip400)" d="M1045.61 199.503 L1045.61 203.484 Q1043.8 202.489 1041.97 202.003 Q1040.17 201.493 1038.31 201.493 Q1034.17 201.493 1031.88 204.132 Q1029.59 206.748 1029.59 211.493 Q1029.59 216.239 1031.88 218.878 Q1034.17 221.493 1038.31 221.493 Q1040.17 221.493 1041.97 221.007 Q1043.8 220.498 1045.61 219.503 L1045.61 223.438 Q1043.82 224.271 1041.9 224.688 Q1040 225.104 1037.85 225.104 Q1032 225.104 1028.55 221.424 Q1025.1 217.743 1025.1 211.493 Q1025.1 205.151 1028.57 201.517 Q1032.06 197.882 1038.13 197.882 Q1040.1 197.882 1041.97 198.299 Q1043.85 198.693 1045.61 199.503 Z" fill="#000000" fill-rule="nonzero" fill-opacity="1" /><path clip-path="url(#clip400)" d="M1075.19 210.405 L1075.19 212.489 L1055.61 212.489 Q1055.88 216.887 1058.25 219.202 Q1060.63 221.493 1064.87 221.493 Q1067.32 221.493 1069.61 220.892 Q1071.93 220.29 1074.19 219.086 L1074.19 223.114 Q1071.9 224.086 1069.5 224.595 Q1067.09 225.104 1064.61 225.104 Q1058.41 225.104 1054.77 221.493 Q1051.16 217.882 1051.16 211.725 Q1051.16 205.359 1054.59 201.632 Q1058.04 197.882 1063.87 197.882 Q1069.1 197.882 1072.13 201.262 Q1075.19 204.618 1075.19 210.405 M1070.93 209.155 Q1070.88 205.66 1068.96 203.577 Q1067.06 201.493 1063.92 201.493 Q1060.35 201.493 1058.2 203.507 Q1056.07 205.521 1055.75 209.179 L1070.93 209.155 Z" fill="#000000" fill-rule="nonzero" fill-opacity="1" /><circle clip-path="url(#clip400)" cx="387.992" cy="258.993" r="20.48" fill="#009af9" fill-rule="evenodd" fill-opacity="1" stroke="#000000" stroke-opacity="1" stroke-width="5.46133"/>
<path clip-path="url(#clip400)" d="M501.234 245.556 L501.234 258.542 L507.114 258.542 Q510.378 258.542 512.16 256.852 Q513.943 255.162 513.943 252.037 Q513.943 248.935 512.16 247.246 Q510.378 245.556 507.114 245.556 L501.234 245.556 M496.559 241.713 L507.114 241.713 Q512.924 241.713 515.887 244.352 Q518.873 246.968 518.873 252.037 Q518.873 257.153 515.887 259.769 Q512.924 262.384 507.114 262.384 L501.234 262.384 L501.234 276.273 L496.559 276.273 L496.559 241.713 Z" fill="#000000" fill-rule="nonzero" fill-opacity="1" /><path clip-path="url(#clip400)" d="M539.151 254.329 Q538.433 253.912 537.577 253.727 Q536.744 253.519 535.725 253.519 Q532.114 253.519 530.169 255.88 Q528.248 258.218 528.248 262.616 L528.248 276.273 L523.966 276.273 L523.966 250.347 L528.248 250.347 L528.248 254.375 Q529.591 252.014 531.744 250.88 Q533.896 249.722 536.975 249.722 Q537.415 249.722 537.947 249.792 Q538.48 249.838 539.128 249.954 L539.151 254.329 Z" fill="#000000" fill-rule="nonzero" fill-opacity="1" /><path clip-path="url(#clip400)" d="M564.753 262.245 L564.753 264.329 L545.169 264.329 Q545.447 268.727 547.808 271.042 Q550.193 273.333 554.429 273.333 Q556.882 273.333 559.174 272.732 Q561.489 272.13 563.757 270.926 L563.757 274.954 Q561.466 275.926 559.058 276.435 Q556.651 276.944 554.174 276.944 Q547.97 276.944 544.336 273.333 Q540.725 269.722 540.725 263.565 Q540.725 257.199 544.151 253.472 Q547.6 249.722 553.433 249.722 Q558.665 249.722 561.697 253.102 Q564.753 256.458 564.753 262.245 M560.493 260.995 Q560.447 257.5 558.526 255.417 Q556.628 253.333 553.48 253.333 Q549.915 253.333 547.762 255.347 Q545.632 257.361 545.308 261.019 L560.493 260.995 Z" fill="#000000" fill-rule="nonzero" fill-opacity="1" /><path clip-path="url(#clip400)" d="M588.803 254.283 L588.803 240.255 L593.063 240.255 L593.063 276.273 L588.803 276.273 L588.803 272.384 Q587.461 274.699 585.401 275.833 Q583.364 276.944 580.493 276.944 Q575.794 276.944 572.831 273.195 Q569.892 269.445 569.892 263.333 Q569.892 257.222 572.831 253.472 Q575.794 249.722 580.493 249.722 Q583.364 249.722 585.401 250.857 Q587.461 251.968 588.803 254.283 M574.29 263.333 Q574.29 268.032 576.211 270.718 Q578.155 273.38 581.535 273.38 Q584.915 273.38 586.859 270.718 Q588.803 268.032 588.803 263.333 Q588.803 258.634 586.859 255.972 Q584.915 253.287 581.535 253.287 Q578.155 253.287 576.211 255.972 Q574.29 258.634 574.29 263.333 Z" fill="#000000" fill-rule="nonzero" fill-opacity="1" /><path clip-path="url(#clip400)" d="M613.618 263.241 Q608.456 263.241 606.465 264.421 Q604.475 265.602 604.475 268.449 Q604.475 270.718 605.956 272.06 Q607.461 273.38 610.03 273.38 Q613.572 273.38 615.701 270.88 Q617.854 268.357 617.854 264.19 L617.854 263.241 L613.618 263.241 M622.113 261.482 L622.113 276.273 L617.854 276.273 L617.854 272.338 Q616.396 274.699 614.22 275.833 Q612.044 276.944 608.896 276.944 Q604.914 276.944 602.553 274.722 Q600.215 272.477 600.215 268.727 Q600.215 264.352 603.132 262.13 Q606.072 259.908 611.882 259.908 L617.854 259.908 L617.854 259.491 Q617.854 256.551 615.91 254.954 Q613.988 253.333 610.493 253.333 Q608.271 253.333 606.164 253.866 Q604.058 254.398 602.114 255.463 L602.114 251.528 Q604.452 250.625 606.651 250.185 Q608.85 249.722 610.933 249.722 Q616.558 249.722 619.336 252.639 Q622.113 255.556 622.113 261.482 Z" fill="#000000" fill-rule="nonzero" fill-opacity="1" /><path clip-path="url(#clip400)" d="M635.099 242.986 L635.099 250.347 L643.873 250.347 L643.873 253.658 L635.099 253.658 L635.099 267.732 Q635.099 270.903 635.956 271.806 Q636.836 272.708 639.498 272.708 L643.873 272.708 L643.873 276.273 L639.498 276.273 Q634.567 276.273 632.692 274.444 Q630.817 272.593 630.817 267.732 L630.817 253.658 L627.692 253.658 L627.692 250.347 L630.817 250.347 L630.817 242.986 L635.099 242.986 Z" fill="#000000" fill-rule="nonzero" fill-opacity="1" /><path clip-path="url(#clip400)" d="M659.521 253.333 Q656.095 253.333 654.104 256.019 Q652.113 258.681 652.113 263.333 Q652.113 267.986 654.081 270.671 Q656.072 273.333 659.521 273.333 Q662.923 273.333 664.914 270.648 Q666.905 267.963 666.905 263.333 Q666.905 258.727 664.914 256.042 Q662.923 253.333 659.521 253.333 M659.521 249.722 Q665.076 249.722 668.247 253.333 Q671.419 256.945 671.419 263.333 Q671.419 269.699 668.247 273.333 Q665.076 276.944 659.521 276.944 Q653.942 276.944 650.771 273.333 Q647.623 269.699 647.623 263.333 Q647.623 256.945 650.771 253.333 Q653.942 249.722 659.521 249.722 Z" fill="#000000" fill-rule="nonzero" fill-opacity="1" /><path clip-path="url(#clip400)" d="M693.502 254.329 Q692.784 253.912 691.928 253.727 Q691.095 253.519 690.076 253.519 Q686.465 253.519 684.521 255.88 Q682.599 258.218 682.599 262.616 L682.599 276.273 L678.317 276.273 L678.317 250.347 L682.599 250.347 L682.599 254.375 Q683.942 252.014 686.095 250.88 Q688.247 249.722 691.326 249.722 Q691.766 249.722 692.298 249.792 Q692.831 249.838 693.479 249.954 L693.502 254.329 Z" fill="#000000" fill-rule="nonzero" fill-opacity="1" /><path clip-path="url(#clip400)" d="M724.821 263.241 Q719.659 263.241 717.668 264.421 Q715.678 265.602 715.678 268.449 Q715.678 270.718 717.159 272.06 Q718.664 273.38 721.233 273.38 Q724.775 273.38 726.905 270.88 Q729.057 268.357 729.057 264.19 L729.057 263.241 L724.821 263.241 M733.317 261.482 L733.317 276.273 L729.057 276.273 L729.057 272.338 Q727.599 274.699 725.423 275.833 Q723.247 276.944 720.099 276.944 Q716.118 276.944 713.756 274.722 Q711.419 272.477 711.419 268.727 Q711.419 264.352 714.335 262.13 Q717.275 259.908 723.085 259.908 L729.057 259.908 L729.057 259.491 Q729.057 256.551 727.113 254.954 Q725.192 253.333 721.696 253.333 Q719.474 253.333 717.368 253.866 Q715.261 254.398 713.317 255.463 L713.317 251.528 Q715.655 250.625 717.854 250.185 Q720.053 249.722 722.136 249.722 Q727.761 249.722 730.539 252.639 Q733.317 255.556 733.317 261.482 Z" fill="#000000" fill-rule="nonzero" fill-opacity="1" /><path clip-path="url(#clip400)" d="M760.701 263.333 Q760.701 258.634 758.756 255.972 Q756.835 253.287 753.455 253.287 Q750.076 253.287 748.131 255.972 Q746.21 258.634 746.21 263.333 Q746.21 268.032 748.131 270.718 Q750.076 273.38 753.455 273.38 Q756.835 273.38 758.756 270.718 Q760.701 268.032 760.701 263.333 M746.21 254.283 Q747.553 251.968 749.59 250.857 Q751.65 249.722 754.497 249.722 Q759.219 249.722 762.159 253.472 Q765.122 257.222 765.122 263.333 Q765.122 269.445 762.159 273.195 Q759.219 276.944 754.497 276.944 Q751.65 276.944 749.59 275.833 Q747.553 274.699 746.21 272.384 L746.21 276.273 L741.928 276.273 L741.928 240.255 L746.21 240.255 L746.21 254.283 Z" fill="#000000" fill-rule="nonzero" fill-opacity="1" /><path clip-path="url(#clip400)" d="M771.742 266.042 L771.742 250.347 L776.002 250.347 L776.002 265.88 Q776.002 269.56 777.437 271.412 Q778.872 273.241 781.742 273.241 Q785.191 273.241 787.182 271.042 Q789.196 268.843 789.196 265.046 L789.196 250.347 L793.455 250.347 L793.455 276.273 L789.196 276.273 L789.196 272.292 Q787.645 274.653 785.585 275.81 Q783.548 276.944 780.839 276.944 Q776.372 276.944 774.057 274.167 Q771.742 271.389 771.742 266.042 M782.46 249.722 L782.46 249.722 Z" fill="#000000" fill-rule="nonzero" fill-opacity="1" /><path clip-path="url(#clip400)" d="M823.779 260.625 L823.779 276.273 L819.52 276.273 L819.52 260.764 Q819.52 257.083 818.085 255.255 Q816.649 253.426 813.779 253.426 Q810.33 253.426 808.339 255.625 Q806.349 257.824 806.349 261.62 L806.349 276.273 L802.066 276.273 L802.066 250.347 L806.349 250.347 L806.349 254.375 Q807.876 252.037 809.937 250.88 Q812.02 249.722 814.728 249.722 Q819.196 249.722 821.487 252.5 Q823.779 255.255 823.779 260.625 Z" fill="#000000" fill-rule="nonzero" fill-opacity="1" /><path clip-path="url(#clip400)" d="M849.334 254.283 L849.334 240.255 L853.594 240.255 L853.594 276.273 L849.334 276.273 L849.334 272.384 Q847.992 274.699 845.932 275.833 Q843.895 276.944 841.024 276.944 Q836.325 276.944 833.362 273.195 Q830.423 269.445 830.423 263.333 Q830.423 257.222 833.362 253.472 Q836.325 249.722 841.024 249.722 Q843.895 249.722 845.932 250.857 Q847.992 251.968 849.334 254.283 M834.821 263.333 Q834.821 268.032 836.742 270.718 Q838.686 273.38 842.066 273.38 Q845.446 273.38 847.39 270.718 Q849.334 268.032 849.334 263.333 Q849.334 258.634 847.39 255.972 Q845.446 253.287 842.066 253.287 Q838.686 253.287 836.742 255.972 Q834.821 258.634 834.821 263.333 Z" fill="#000000" fill-rule="nonzero" fill-opacity="1" /><path clip-path="url(#clip400)" d="M874.149 263.241 Q868.987 263.241 866.996 264.421 Q865.006 265.602 865.006 268.449 Q865.006 270.718 866.487 272.06 Q867.992 273.38 870.561 273.38 Q874.103 273.38 876.232 270.88 Q878.385 268.357 878.385 264.19 L878.385 263.241 L874.149 263.241 M882.644 261.482 L882.644 276.273 L878.385 276.273 L878.385 272.338 Q876.927 274.699 874.751 275.833 Q872.575 276.944 869.427 276.944 Q865.445 276.944 863.084 274.722 Q860.746 272.477 860.746 268.727 Q860.746 264.352 863.663 262.13 Q866.603 259.908 872.413 259.908 L878.385 259.908 L878.385 259.491 Q878.385 256.551 876.441 254.954 Q874.52 253.333 871.024 253.333 Q868.802 253.333 866.695 253.866 Q864.589 254.398 862.645 255.463 L862.645 251.528 Q864.983 250.625 867.182 250.185 Q869.381 249.722 871.464 249.722 Q877.089 249.722 879.867 252.639 Q882.644 255.556 882.644 261.482 Z" fill="#000000" fill-rule="nonzero" fill-opacity="1" /><path clip-path="url(#clip400)" d="M912.968 260.625 L912.968 276.273 L908.709 276.273 L908.709 260.764 Q908.709 257.083 907.274 255.255 Q905.839 253.426 902.968 253.426 Q899.519 253.426 897.529 255.625 Q895.538 257.824 895.538 261.62 L895.538 276.273 L891.256 276.273 L891.256 250.347 L895.538 250.347 L895.538 254.375 Q897.066 252.037 899.126 250.88 Q901.209 249.722 903.917 249.722 Q908.385 249.722 910.677 252.5 Q912.968 255.255 912.968 260.625 Z" fill="#000000" fill-rule="nonzero" fill-opacity="1" /><path clip-path="url(#clip400)" d="M940.121 251.343 L940.121 255.324 Q938.315 254.329 936.487 253.843 Q934.681 253.333 932.829 253.333 Q928.686 253.333 926.394 255.972 Q924.103 258.588 924.103 263.333 Q924.103 268.079 926.394 270.718 Q928.686 273.333 932.829 273.333 Q934.681 273.333 936.487 272.847 Q938.315 272.338 940.121 271.343 L940.121 275.278 Q938.339 276.111 936.417 276.528 Q934.519 276.944 932.366 276.944 Q926.51 276.944 923.061 273.264 Q919.612 269.583 919.612 263.333 Q919.612 256.991 923.084 253.357 Q926.579 249.722 932.644 249.722 Q934.612 249.722 936.487 250.139 Q938.362 250.533 940.121 251.343 Z" fill="#000000" fill-rule="nonzero" fill-opacity="1" /><path clip-path="url(#clip400)" d="M969.704 262.245 L969.704 264.329 L950.121 264.329 Q950.399 268.727 952.76 271.042 Q955.144 273.333 959.38 273.333 Q961.834 273.333 964.126 272.732 Q966.44 272.13 968.709 270.926 L968.709 274.954 Q966.417 275.926 964.01 276.435 Q961.602 276.944 959.126 276.944 Q952.922 276.944 949.288 273.333 Q945.677 269.722 945.677 263.565 Q945.677 257.199 949.102 253.472 Q952.551 249.722 958.385 249.722 Q963.616 249.722 966.649 253.102 Q969.704 256.458 969.704 262.245 M965.445 260.995 Q965.399 257.5 963.477 255.417 Q961.579 253.333 958.431 253.333 Q954.866 253.333 952.714 255.347 Q950.584 257.361 950.26 261.019 L965.445 260.995 Z" fill="#000000" fill-rule="nonzero" fill-opacity="1" /><path clip-path="url(#clip400)" d="M1008.82 254.283 L1008.82 240.255 L1013.08 240.255 L1013.08 276.273 L1008.82 276.273 L1008.82 272.384 Q1007.48 274.699 1005.42 275.833 Q1003.38 276.944 1000.51 276.944 Q995.815 276.944 992.852 273.195 Q989.912 269.445 989.912 263.333 Q989.912 257.222 992.852 253.472 Q995.815 249.722 1000.51 249.722 Q1003.38 249.722 1005.42 250.857 Q1007.48 251.968 1008.82 254.283 M994.311 263.333 Q994.311 268.032 996.232 270.718 Q998.176 273.38 1001.56 273.38 Q1004.94 273.38 1006.88 270.718 Q1008.82 268.032 1008.82 263.333 Q1008.82 258.634 1006.88 255.972 Q1004.94 253.287 1001.56 253.287 Q998.176 253.287 996.232 255.972 Q994.311 258.634 994.311 263.333 Z" fill="#000000" fill-rule="nonzero" fill-opacity="1" /><path clip-path="url(#clip400)" d="M1033.64 263.241 Q1028.48 263.241 1026.49 264.421 Q1024.5 265.602 1024.5 268.449 Q1024.5 270.718 1025.98 272.06 Q1027.48 273.38 1030.05 273.38 Q1033.59 273.38 1035.72 270.88 Q1037.88 268.357 1037.88 264.19 L1037.88 263.241 L1033.64 263.241 M1042.13 261.482 L1042.13 276.273 L1037.88 276.273 L1037.88 272.338 Q1036.42 274.699 1034.24 275.833 Q1032.06 276.944 1028.92 276.944 Q1024.94 276.944 1022.57 274.722 Q1020.24 272.477 1020.24 268.727 Q1020.24 264.352 1023.15 262.13 Q1026.09 259.908 1031.9 259.908 L1037.88 259.908 L1037.88 259.491 Q1037.88 256.551 1035.93 254.954 Q1034.01 253.333 1030.51 253.333 Q1028.29 253.333 1026.19 253.866 Q1024.08 254.398 1022.13 255.463 L1022.13 251.528 Q1024.47 250.625 1026.67 250.185 Q1028.87 249.722 1030.95 249.722 Q1036.58 249.722 1039.36 252.639 Q1042.13 255.556 1042.13 261.482 Z" fill="#000000" fill-rule="nonzero" fill-opacity="1" /><path clip-path="url(#clip400)" d="M1055.12 242.986 L1055.12 250.347 L1063.89 250.347 L1063.89 253.658 L1055.12 253.658 L1055.12 267.732 Q1055.12 270.903 1055.98 271.806 Q1056.86 272.708 1059.52 272.708 L1063.89 272.708 L1063.89 276.273 L1059.52 276.273 Q1054.59 276.273 1052.71 274.444 Q1050.84 272.593 1050.84 267.732 L1050.84 253.658 L1047.71 253.658 L1047.71 250.347 L1050.84 250.347 L1050.84 242.986 L1055.12 242.986 Z" fill="#000000" fill-rule="nonzero" fill-opacity="1" /><path clip-path="url(#clip400)" d="M1081.28 263.241 Q1076.12 263.241 1074.12 264.421 Q1072.13 265.602 1072.13 268.449 Q1072.13 270.718 1073.62 272.06 Q1075.12 273.38 1077.69 273.38 Q1081.23 273.38 1083.36 270.88 Q1085.51 268.357 1085.51 264.19 L1085.51 263.241 L1081.28 263.241 M1089.77 261.482 L1089.77 276.273 L1085.51 276.273 L1085.51 272.338 Q1084.06 274.699 1081.88 275.833 Q1079.7 276.944 1076.56 276.944 Q1072.57 276.944 1070.21 274.722 Q1067.87 272.477 1067.87 268.727 Q1067.87 264.352 1070.79 262.13 Q1073.73 259.908 1079.54 259.908 L1085.51 259.908 L1085.51 259.491 Q1085.51 256.551 1083.57 254.954 Q1081.65 253.333 1078.15 253.333 Q1075.93 253.333 1073.82 253.866 Q1071.72 254.398 1069.77 255.463 L1069.77 251.528 Q1072.11 250.625 1074.31 250.185 Q1076.51 249.722 1078.59 249.722 Q1084.22 249.722 1087 252.639 Q1089.77 255.556 1089.77 261.482 Z" fill="#000000" fill-rule="nonzero" fill-opacity="1" /><circle clip-path="url(#clip400)" cx="387.992" cy="310.833" r="20.48" fill="#e26f46" fill-rule="evenodd" fill-opacity="1" stroke="#000000" stroke-opacity="1" stroke-width="5.46133"/>
<path clip-path="url(#clip400)" d="M501.234 297.396 L501.234 310.382 L507.114 310.382 Q510.378 310.382 512.16 308.692 Q513.943 307.002 513.943 303.877 Q513.943 300.775 512.16 299.086 Q510.378 297.396 507.114 297.396 L501.234 297.396 M496.559 293.553 L507.114 293.553 Q512.924 293.553 515.887 296.192 Q518.873 298.808 518.873 303.877 Q518.873 308.993 515.887 311.609 Q512.924 314.224 507.114 314.224 L501.234 314.224 L501.234 328.113 L496.559 328.113 L496.559 293.553 Z" fill="#000000" fill-rule="nonzero" fill-opacity="1" /><path clip-path="url(#clip400)" d="M539.151 306.169 Q538.433 305.752 537.577 305.567 Q536.744 305.359 535.725 305.359 Q532.114 305.359 530.169 307.72 Q528.248 310.058 528.248 314.456 L528.248 328.113 L523.966 328.113 L523.966 302.187 L528.248 302.187 L528.248 306.215 Q529.591 303.854 531.744 302.72 Q533.896 301.562 536.975 301.562 Q537.415 301.562 537.947 301.632 Q538.48 301.678 539.128 301.794 L539.151 306.169 Z" fill="#000000" fill-rule="nonzero" fill-opacity="1" /><path clip-path="url(#clip400)" d="M564.753 314.085 L564.753 316.169 L545.169 316.169 Q545.447 320.567 547.808 322.882 Q550.193 325.173 554.429 325.173 Q556.882 325.173 559.174 324.572 Q561.489 323.97 563.757 322.766 L563.757 326.794 Q561.466 327.766 559.058 328.275 Q556.651 328.784 554.174 328.784 Q547.97 328.784 544.336 325.173 Q540.725 321.562 540.725 315.405 Q540.725 309.039 544.151 305.312 Q547.6 301.562 553.433 301.562 Q558.665 301.562 561.697 304.942 Q564.753 308.298 564.753 314.085 M560.493 312.835 Q560.447 309.34 558.526 307.257 Q556.628 305.173 553.48 305.173 Q549.915 305.173 547.762 307.187 Q545.632 309.201 545.308 312.859 L560.493 312.835 Z" fill="#000000" fill-rule="nonzero" fill-opacity="1" /><path clip-path="url(#clip400)" d="M582.53 330.521 Q580.725 335.15 579.012 336.562 Q577.299 337.974 574.429 337.974 L571.026 337.974 L571.026 334.409 L573.526 334.409 Q575.285 334.409 576.257 333.576 Q577.229 332.743 578.41 329.641 L579.174 327.697 L568.688 302.187 L573.202 302.187 L581.303 322.465 L589.405 302.187 L593.919 302.187 L582.53 330.521 Z" fill="#000000" fill-rule="nonzero" fill-opacity="1" /><path clip-path="url(#clip400)" d="M626.65 315.081 Q621.488 315.081 619.498 316.261 Q617.507 317.442 617.507 320.289 Q617.507 322.558 618.988 323.9 Q620.493 325.22 623.063 325.22 Q626.604 325.22 628.734 322.72 Q630.887 320.197 630.887 316.03 L630.887 315.081 L626.65 315.081 M635.146 313.322 L635.146 328.113 L630.887 328.113 L630.887 324.178 Q629.428 326.539 627.252 327.673 Q625.076 328.784 621.928 328.784 Q617.947 328.784 615.586 326.562 Q613.248 324.317 613.248 320.567 Q613.248 316.192 616.164 313.97 Q619.104 311.748 624.914 311.748 L630.887 311.748 L630.887 311.331 Q630.887 308.391 628.942 306.794 Q627.021 305.173 623.525 305.173 Q621.303 305.173 619.197 305.706 Q617.09 306.238 615.146 307.303 L615.146 303.368 Q617.484 302.465 619.683 302.025 Q621.882 301.562 623.965 301.562 Q629.59 301.562 632.368 304.479 Q635.146 307.396 635.146 313.322 Z" fill="#000000" fill-rule="nonzero" fill-opacity="1" /><path clip-path="url(#clip400)" d="M662.53 315.173 Q662.53 310.474 660.585 307.812 Q658.664 305.127 655.285 305.127 Q651.905 305.127 649.961 307.812 Q648.039 310.474 648.039 315.173 Q648.039 319.872 649.961 322.558 Q651.905 325.22 655.285 325.22 Q658.664 325.22 660.585 322.558 Q662.53 319.872 662.53 315.173 M648.039 306.123 Q649.382 303.808 651.419 302.697 Q653.479 301.562 656.326 301.562 Q661.048 301.562 663.988 305.312 Q666.951 309.062 666.951 315.173 Q666.951 321.285 663.988 325.035 Q661.048 328.784 656.326 328.784 Q653.479 328.784 651.419 327.673 Q649.382 326.539 648.039 324.224 L648.039 328.113 L643.757 328.113 L643.757 292.095 L648.039 292.095 L648.039 306.123 Z" fill="#000000" fill-rule="nonzero" fill-opacity="1" /><path clip-path="url(#clip400)" d="M673.572 317.882 L673.572 302.187 L677.831 302.187 L677.831 317.72 Q677.831 321.4 679.266 323.252 Q680.701 325.081 683.571 325.081 Q687.021 325.081 689.011 322.882 Q691.025 320.683 691.025 316.886 L691.025 302.187 L695.284 302.187 L695.284 328.113 L691.025 328.113 L691.025 324.132 Q689.474 326.493 687.414 327.65 Q685.377 328.784 682.669 328.784 Q678.201 328.784 675.886 326.007 Q673.572 323.229 673.572 317.882 M684.289 301.562 L684.289 301.562 Z" fill="#000000" fill-rule="nonzero" fill-opacity="1" /><path clip-path="url(#clip400)" d="M725.608 312.465 L725.608 328.113 L721.349 328.113 L721.349 312.604 Q721.349 308.923 719.914 307.095 Q718.479 305.266 715.608 305.266 Q712.159 305.266 710.169 307.465 Q708.178 309.664 708.178 313.46 L708.178 328.113 L703.895 328.113 L703.895 302.187 L708.178 302.187 L708.178 306.215 Q709.706 303.877 711.766 302.72 Q713.849 301.562 716.557 301.562 Q721.025 301.562 723.317 304.34 Q725.608 307.095 725.608 312.465 Z" fill="#000000" fill-rule="nonzero" fill-opacity="1" /><path clip-path="url(#clip400)" d="M751.164 306.123 L751.164 292.095 L755.423 292.095 L755.423 328.113 L751.164 328.113 L751.164 324.224 Q749.821 326.539 747.761 327.673 Q745.724 328.784 742.854 328.784 Q738.154 328.784 735.192 325.035 Q732.252 321.285 732.252 315.173 Q732.252 309.062 735.192 305.312 Q738.154 301.562 742.854 301.562 Q745.724 301.562 747.761 302.697 Q749.821 303.808 751.164 306.123 M736.65 315.173 Q736.65 319.872 738.571 322.558 Q740.516 325.22 743.895 325.22 Q747.275 325.22 749.219 322.558 Q751.164 319.872 751.164 315.173 Q751.164 310.474 749.219 307.812 Q747.275 305.127 743.895 305.127 Q740.516 305.127 738.571 307.812 Q736.65 310.474 736.65 315.173 Z" fill="#000000" fill-rule="nonzero" fill-opacity="1" /><path clip-path="url(#clip400)" d="M775.978 315.081 Q770.816 315.081 768.826 316.261 Q766.835 317.442 766.835 320.289 Q766.835 322.558 768.316 323.9 Q769.821 325.22 772.39 325.22 Q775.932 325.22 778.062 322.72 Q780.214 320.197 780.214 316.03 L780.214 315.081 L775.978 315.081 M784.474 313.322 L784.474 328.113 L780.214 328.113 L780.214 324.178 Q778.756 326.539 776.58 327.673 Q774.404 328.784 771.256 328.784 Q767.275 328.784 764.914 326.562 Q762.576 324.317 762.576 320.567 Q762.576 316.192 765.492 313.97 Q768.432 311.748 774.242 311.748 L780.214 311.748 L780.214 311.331 Q780.214 308.391 778.27 306.794 Q776.349 305.173 772.853 305.173 Q770.631 305.173 768.525 305.706 Q766.418 306.238 764.474 307.303 L764.474 303.368 Q766.812 302.465 769.011 302.025 Q771.21 301.562 773.293 301.562 Q778.918 301.562 781.696 304.479 Q784.474 307.396 784.474 313.322 Z" fill="#000000" fill-rule="nonzero" fill-opacity="1" /><path clip-path="url(#clip400)" d="M814.798 312.465 L814.798 328.113 L810.538 328.113 L810.538 312.604 Q810.538 308.923 809.103 307.095 Q807.668 305.266 804.798 305.266 Q801.349 305.266 799.358 307.465 Q797.367 309.664 797.367 313.46 L797.367 328.113 L793.085 328.113 L793.085 302.187 L797.367 302.187 L797.367 306.215 Q798.895 303.877 800.955 302.72 Q803.038 301.562 805.747 301.562 Q810.214 301.562 812.506 304.34 Q814.798 307.095 814.798 312.465 Z" fill="#000000" fill-rule="nonzero" fill-opacity="1" /><path clip-path="url(#clip400)" d="M841.95 303.183 L841.95 307.164 Q840.145 306.169 838.316 305.683 Q836.51 305.173 834.659 305.173 Q830.515 305.173 828.223 307.812 Q825.932 310.428 825.932 315.173 Q825.932 319.919 828.223 322.558 Q830.515 325.173 834.659 325.173 Q836.51 325.173 838.316 324.687 Q840.145 324.178 841.95 323.183 L841.95 327.118 Q840.168 327.951 838.247 328.368 Q836.348 328.784 834.196 328.784 Q828.339 328.784 824.89 325.104 Q821.441 321.423 821.441 315.173 Q821.441 308.831 824.913 305.197 Q828.409 301.562 834.473 301.562 Q836.441 301.562 838.316 301.979 Q840.191 302.373 841.95 303.183 Z" fill="#000000" fill-rule="nonzero" fill-opacity="1" /><path clip-path="url(#clip400)" d="M871.533 314.085 L871.533 316.169 L851.95 316.169 Q852.228 320.567 854.589 322.882 Q856.973 325.173 861.209 325.173 Q863.663 325.173 865.955 324.572 Q868.27 323.97 870.538 322.766 L870.538 326.794 Q868.246 327.766 865.839 328.275 Q863.432 328.784 860.955 328.784 Q854.751 328.784 851.117 325.173 Q847.506 321.562 847.506 315.405 Q847.506 309.039 850.932 305.312 Q854.381 301.562 860.214 301.562 Q865.445 301.562 868.478 304.942 Q871.533 308.298 871.533 314.085 M867.274 312.835 Q867.228 309.34 865.307 307.257 Q863.408 305.173 860.26 305.173 Q856.696 305.173 854.543 307.187 Q852.413 309.201 852.089 312.859 L867.274 312.835 Z" fill="#000000" fill-rule="nonzero" fill-opacity="1" /><path clip-path="url(#clip400)" d="M910.654 306.123 L910.654 292.095 L914.913 292.095 L914.913 328.113 L910.654 328.113 L910.654 324.224 Q909.311 326.539 907.251 327.673 Q905.214 328.784 902.343 328.784 Q897.644 328.784 894.681 325.035 Q891.742 321.285 891.742 315.173 Q891.742 309.062 894.681 305.312 Q897.644 301.562 902.343 301.562 Q905.214 301.562 907.251 302.697 Q909.311 303.808 910.654 306.123 M896.14 315.173 Q896.14 319.872 898.061 322.558 Q900.005 325.22 903.385 325.22 Q906.765 325.22 908.709 322.558 Q910.654 319.872 910.654 315.173 Q910.654 310.474 908.709 307.812 Q906.765 305.127 903.385 305.127 Q900.005 305.127 898.061 307.812 Q896.14 310.474 896.14 315.173 Z" fill="#000000" fill-rule="nonzero" fill-opacity="1" /><path clip-path="url(#clip400)" d="M935.468 315.081 Q930.306 315.081 928.316 316.261 Q926.325 317.442 926.325 320.289 Q926.325 322.558 927.806 323.9 Q929.311 325.22 931.88 325.22 Q935.422 325.22 937.552 322.72 Q939.704 320.197 939.704 316.03 L939.704 315.081 L935.468 315.081 M943.964 313.322 L943.964 328.113 L939.704 328.113 L939.704 324.178 Q938.246 326.539 936.07 327.673 Q933.894 328.784 930.746 328.784 Q926.765 328.784 924.403 326.562 Q922.066 324.317 922.066 320.567 Q922.066 316.192 924.982 313.97 Q927.922 311.748 933.732 311.748 L939.704 311.748 L939.704 311.331 Q939.704 308.391 937.76 306.794 Q935.839 305.173 932.343 305.173 Q930.121 305.173 928.015 305.706 Q925.908 306.238 923.964 307.303 L923.964 303.368 Q926.302 302.465 928.501 302.025 Q930.7 301.562 932.783 301.562 Q938.408 301.562 941.186 304.479 Q943.964 307.396 943.964 313.322 Z" fill="#000000" fill-rule="nonzero" fill-opacity="1" /><path clip-path="url(#clip400)" d="M956.95 294.826 L956.95 302.187 L965.723 302.187 L965.723 305.498 L956.95 305.498 L956.95 319.572 Q956.95 322.743 957.806 323.646 Q958.686 324.548 961.348 324.548 L965.723 324.548 L965.723 328.113 L961.348 328.113 Q956.417 328.113 954.542 326.284 Q952.667 324.433 952.667 319.572 L952.667 305.498 L949.542 305.498 L949.542 302.187 L952.667 302.187 L952.667 294.826 L956.95 294.826 Z" fill="#000000" fill-rule="nonzero" fill-opacity="1" /><path clip-path="url(#clip400)" d="M983.107 315.081 Q977.945 315.081 975.954 316.261 Q973.963 317.442 973.963 320.289 Q973.963 322.558 975.445 323.9 Q976.95 325.22 979.519 325.22 Q983.061 325.22 985.19 322.72 Q987.343 320.197 987.343 316.03 L987.343 315.081 L983.107 315.081 M991.602 313.322 L991.602 328.113 L987.343 328.113 L987.343 324.178 Q985.885 326.539 983.709 327.673 Q981.533 328.784 978.385 328.784 Q974.403 328.784 972.042 326.562 Q969.704 324.317 969.704 320.567 Q969.704 316.192 972.621 313.97 Q975.561 311.748 981.371 311.748 L987.343 311.748 L987.343 311.331 Q987.343 308.391 985.399 306.794 Q983.477 305.173 979.982 305.173 Q977.76 305.173 975.653 305.706 Q973.547 306.238 971.602 307.303 L971.602 303.368 Q973.94 302.465 976.139 302.025 Q978.338 301.562 980.422 301.562 Q986.047 301.562 988.824 304.479 Q991.602 307.396 991.602 313.322 Z" fill="#000000" fill-rule="nonzero" fill-opacity="1" /></svg>
