<?xml version="1.0" encoding="utf-8"?>
<svg xmlns="http://www.w3.org/2000/svg" xmlns:xlink="http://www.w3.org/1999/xlink" width="672" height="480" viewBox="0 0 2688 1920">
<defs>
  <clipPath id="clip340">
    <rect x="0" y="0" width="2688" height="1920"/>
  </clipPath>
</defs>
<path clip-path="url(#clip340)" d="M0 1920 L2688 1920 L2688 -4.26326e-14 L0 -4.26326e-14  Z" fill="#ffffff" fill-rule="evenodd" fill-opacity="1"/>
<defs>
  <clipPath id="clip341">
    <rect x="537" y="0" width="1883" height="1883"/>
  </clipPath>
</defs>
<path clip-path="url(#clip340)" d="M197.999 1734.12 L2640.76 1734.12 L2640.76 47.2441 L197.999 47.2441  Z" fill="#ffffff" fill-rule="evenodd" fill-opacity="1"/>
<defs>
  <clipPath id="clip342">
    <rect x="197" y="47" width="2444" height="1688"/>
  </clipPath>
</defs>
<polyline clip-path="url(#clip342)" style="stroke:#000000; stroke-linecap:round; stroke-linejoin:round; stroke-width:2; stroke-opacity:0.1; fill:none" points="197.999,1734.12 197.999,47.2441 "/>
<polyline clip-path="url(#clip342)" style="stroke:#000000; stroke-linecap:round; stroke-linejoin:round; stroke-width:2; stroke-opacity:0.1; fill:none" points="686.551,1734.12 686.551,47.2441 "/>
<polyline clip-path="url(#clip342)" style="stroke:#000000; stroke-linecap:round; stroke-linejoin:round; stroke-width:2; stroke-opacity:0.1; fill:none" points="1175.1,1734.12 1175.1,47.2441 "/>
<polyline clip-path="url(#clip342)" style="stroke:#000000; stroke-linecap:round; stroke-linejoin:round; stroke-width:2; stroke-opacity:0.1; fill:none" points="1663.65,1734.12 1663.65,47.2441 "/>
<polyline clip-path="url(#clip342)" style="stroke:#000000; stroke-linecap:round; stroke-linejoin:round; stroke-width:2; stroke-opacity:0.1; fill:none" points="2152.2,1734.12 2152.2,47.2441 "/>
<polyline clip-path="url(#clip342)" style="stroke:#000000; stroke-linecap:round; stroke-linejoin:round; stroke-width:2; stroke-opacity:0.1; fill:none" points="2640.76,1734.12 2640.76,47.2441 "/>
<polyline clip-path="url(#clip340)" style="stroke:#000000; stroke-linecap:round; stroke-linejoin:round; stroke-width:4; stroke-opacity:1; fill:none" points="197.999,1734.12 2640.76,1734.12 "/>
<polyline clip-path="url(#clip340)" style="stroke:#000000; stroke-linecap:round; stroke-linejoin:round; stroke-width:4; stroke-opacity:1; fill:none" points="197.999,1734.12 197.999,1715.22 "/>
<polyline clip-path="url(#clip340)" style="stroke:#000000; stroke-linecap:round; stroke-linejoin:round; stroke-width:4; stroke-opacity:1; fill:none" points="686.551,1734.12 686.551,1715.22 "/>
<polyline clip-path="url(#clip340)" style="stroke:#000000; stroke-linecap:round; stroke-linejoin:round; stroke-width:4; stroke-opacity:1; fill:none" points="1175.1,1734.12 1175.1,1715.22 "/>
<polyline clip-path="url(#clip340)" style="stroke:#000000; stroke-linecap:round; stroke-linejoin:round; stroke-width:4; stroke-opacity:1; fill:none" points="1663.65,1734.12 1663.65,1715.22 "/>
<polyline clip-path="url(#clip340)" style="stroke:#000000; stroke-linecap:round; stroke-linejoin:round; stroke-width:4; stroke-opacity:1; fill:none" points="2152.2,1734.12 2152.2,1715.22 "/>
<polyline clip-path="url(#clip340)" style="stroke:#000000; stroke-linecap:round; stroke-linejoin:round; stroke-width:4; stroke-opacity:1; fill:none" points="2640.76,1734.12 2640.76,1715.22 "/>
<path clip-path="url(#clip340)" d="M197.999 1767.34 Q194.388 1767.34 192.56 1770.9 Q190.754 1774.45 190.754 1781.58 Q190.754 1788.68 192.56 1792.25 Q194.388 1795.79 197.999 1795.79 Q201.634 1795.79 203.439 1792.25 Q205.268 1788.68 205.268 1781.58 Q205.268 1774.45 203.439 1770.9 Q201.634 1767.34 197.999 1767.34 M197.999 1763.64 Q203.81 1763.64 206.865 1768.24 Q209.944 1772.83 209.944 1781.58 Q209.944 1790.3 206.865 1794.91 Q203.81 1799.49 197.999 1799.49 Q192.189 1799.49 189.111 1794.91 Q186.055 1790.3 186.055 1781.58 Q186.055 1772.83 189.111 1768.24 Q192.189 1763.64 197.999 1763.64 Z" fill="#000000" fill-rule="nonzero" fill-opacity="1" /><path clip-path="url(#clip340)" d="M676.933 1794.89 L684.572 1794.89 L684.572 1768.52 L676.261 1770.19 L676.261 1765.93 L684.525 1764.26 L689.201 1764.26 L689.201 1794.89 L696.84 1794.89 L696.84 1798.82 L676.933 1798.82 L676.933 1794.89 Z" fill="#000000" fill-rule="nonzero" fill-opacity="1" /><path clip-path="url(#clip340)" d="M1169.75 1794.89 L1186.07 1794.89 L1186.07 1798.82 L1164.13 1798.82 L1164.13 1794.89 Q1166.79 1792.13 1171.38 1787.5 Q1175.98 1782.85 1177.16 1781.51 Q1179.41 1778.98 1180.29 1777.25 Q1181.19 1775.49 1181.19 1773.8 Q1181.19 1771.04 1179.25 1769.31 Q1177.32 1767.57 1174.22 1767.57 Q1172.02 1767.57 1169.57 1768.34 Q1167.14 1769.1 1164.36 1770.65 L1164.36 1765.93 Q1167.19 1764.79 1169.64 1764.21 Q1172.09 1763.64 1174.13 1763.64 Q1179.5 1763.64 1182.69 1766.32 Q1185.89 1769.01 1185.89 1773.5 Q1185.89 1775.63 1185.08 1777.55 Q1184.29 1779.45 1182.19 1782.04 Q1181.61 1782.71 1178.5 1785.93 Q1175.4 1789.12 1169.75 1794.89 Z" fill="#000000" fill-rule="nonzero" fill-opacity="1" /><path clip-path="url(#clip340)" d="M1667.9 1780.19 Q1671.26 1780.9 1673.13 1783.17 Q1675.03 1785.44 1675.03 1788.77 Q1675.03 1793.89 1671.51 1796.69 Q1667.99 1799.49 1661.51 1799.49 Q1659.34 1799.49 1657.02 1799.05 Q1654.73 1798.64 1652.28 1797.78 L1652.28 1793.27 Q1654.22 1794.4 1656.54 1794.98 Q1658.85 1795.56 1661.37 1795.56 Q1665.77 1795.56 1668.06 1793.82 Q1670.38 1792.08 1670.38 1788.77 Q1670.38 1785.72 1668.23 1784.01 Q1666.1 1782.27 1662.28 1782.27 L1658.25 1782.27 L1658.25 1778.43 L1662.46 1778.43 Q1665.91 1778.43 1667.74 1777.06 Q1669.57 1775.67 1669.57 1773.08 Q1669.57 1770.42 1667.67 1769.01 Q1665.79 1767.57 1662.28 1767.57 Q1660.35 1767.57 1658.16 1767.99 Q1655.96 1768.4 1653.32 1769.28 L1653.32 1765.12 Q1655.98 1764.38 1658.29 1764.01 Q1660.63 1763.64 1662.69 1763.64 Q1668.02 1763.64 1671.12 1766.07 Q1674.22 1768.47 1674.22 1772.59 Q1674.22 1775.46 1672.58 1777.46 Q1670.93 1779.42 1667.9 1780.19 Z" fill="#000000" fill-rule="nonzero" fill-opacity="1" /><path clip-path="url(#clip340)" d="M2155.21 1768.34 L2143.41 1786.78 L2155.21 1786.78 L2155.21 1768.34 M2153.99 1764.26 L2159.87 1764.26 L2159.87 1786.78 L2164.8 1786.78 L2164.8 1790.67 L2159.87 1790.67 L2159.87 1798.82 L2155.21 1798.82 L2155.21 1790.67 L2139.61 1790.67 L2139.61 1786.16 L2153.99 1764.26 Z" fill="#000000" fill-rule="nonzero" fill-opacity="1" /><path clip-path="url(#clip340)" d="M2631.03 1764.26 L2649.39 1764.26 L2649.39 1768.2 L2635.32 1768.2 L2635.32 1776.67 Q2636.33 1776.32 2637.35 1776.16 Q2638.37 1775.97 2639.39 1775.97 Q2645.18 1775.97 2648.56 1779.15 Q2651.94 1782.32 2651.94 1787.73 Q2651.94 1793.31 2648.46 1796.41 Q2644.99 1799.49 2638.67 1799.49 Q2636.5 1799.49 2634.23 1799.12 Q2631.98 1798.75 2629.58 1798.01 L2629.58 1793.31 Q2631.66 1794.45 2633.88 1795 Q2636.1 1795.56 2638.58 1795.56 Q2642.58 1795.56 2644.92 1793.45 Q2647.26 1791.34 2647.26 1787.73 Q2647.26 1784.12 2644.92 1782.02 Q2642.58 1779.91 2638.58 1779.91 Q2636.71 1779.91 2634.83 1780.33 Q2632.98 1780.74 2631.03 1781.62 L2631.03 1764.26 Z" fill="#000000" fill-rule="nonzero" fill-opacity="1" /><path clip-path="url(#clip340)" d="M1418.44 1837.53 L1418.44 1847.65 L1430.5 1847.65 L1430.5 1852.2 L1418.44 1852.2 L1418.44 1871.56 Q1418.44 1875.92 1419.62 1877.16 Q1420.83 1878.4 1424.49 1878.4 L1430.5 1878.4 L1430.5 1883.3 L1424.49 1883.3 Q1417.71 1883.3 1415.13 1880.79 Q1412.55 1878.24 1412.55 1871.56 L1412.55 1852.2 L1408.25 1852.2 L1408.25 1847.65 L1412.55 1847.65 L1412.55 1837.53 L1418.44 1837.53 Z" fill="#000000" fill-rule="nonzero" fill-opacity="1" /><polyline clip-path="url(#clip342)" style="stroke:#000000; stroke-linecap:round; stroke-linejoin:round; stroke-width:2; stroke-opacity:0.1; fill:none" points="197.999,1216.23 2640.76,1216.23 "/>
<polyline clip-path="url(#clip342)" style="stroke:#000000; stroke-linecap:round; stroke-linejoin:round; stroke-width:2; stroke-opacity:0.1; fill:none" points="197.999,511.279 2640.76,511.279 "/>
<polyline clip-path="url(#clip340)" style="stroke:#000000; stroke-linecap:round; stroke-linejoin:round; stroke-width:4; stroke-opacity:1; fill:none" points="197.999,1734.12 197.999,47.2441 "/>
<polyline clip-path="url(#clip340)" style="stroke:#000000; stroke-linecap:round; stroke-linejoin:round; stroke-width:4; stroke-opacity:1; fill:none" points="197.999,1216.23 216.897,1216.23 "/>
<polyline clip-path="url(#clip340)" style="stroke:#000000; stroke-linecap:round; stroke-linejoin:round; stroke-width:4; stroke-opacity:1; fill:none" points="197.999,511.279 216.897,511.279 "/>
<path clip-path="url(#clip340)" d="M50.2234 1236.02 L57.8623 1236.02 L57.8623 1209.66 L49.5521 1211.33 L49.5521 1207.07 L57.816 1205.4 L62.4919 1205.4 L62.4919 1236.02 L70.1307 1236.02 L70.1307 1239.96 L50.2234 1239.96 L50.2234 1236.02 Z" fill="#000000" fill-rule="nonzero" fill-opacity="1" /><path clip-path="url(#clip340)" d="M89.5751 1208.48 Q85.964 1208.48 84.1353 1212.04 Q82.3297 1215.58 82.3297 1222.71 Q82.3297 1229.82 84.1353 1233.39 Q85.964 1236.93 89.5751 1236.93 Q93.2093 1236.93 95.0148 1233.39 Q96.8435 1229.82 96.8435 1222.71 Q96.8435 1215.58 95.0148 1212.04 Q93.2093 1208.48 89.5751 1208.48 M89.5751 1204.77 Q95.3852 1204.77 98.4408 1209.38 Q101.519 1213.96 101.519 1222.71 Q101.519 1231.44 98.4408 1236.05 Q95.3852 1240.63 89.5751 1240.63 Q83.7649 1240.63 80.6862 1236.05 Q77.6307 1231.44 77.6307 1222.71 Q77.6307 1213.96 80.6862 1209.38 Q83.7649 1204.77 89.5751 1204.77 Z" fill="#000000" fill-rule="nonzero" fill-opacity="1" /><path clip-path="url(#clip340)" d="M111.224 1186.97 Q108.29 1186.97 106.804 1189.87 Q105.337 1192.74 105.337 1198.54 Q105.337 1204.31 106.804 1207.21 Q108.29 1210.09 111.224 1210.09 Q114.177 1210.09 115.644 1207.21 Q117.13 1204.31 117.13 1198.54 Q117.13 1192.74 115.644 1189.87 Q114.177 1186.97 111.224 1186.97 M111.224 1183.96 Q115.945 1183.96 118.428 1187.7 Q120.929 1191.43 120.929 1198.54 Q120.929 1205.63 118.428 1209.37 Q115.945 1213.09 111.224 1213.09 Q106.503 1213.09 104.002 1209.37 Q101.519 1205.63 101.519 1198.54 Q101.519 1191.43 104.002 1187.7 Q106.503 1183.96 111.224 1183.96 Z" fill="#000000" fill-rule="nonzero" fill-opacity="1" /><path clip-path="url(#clip340)" d="M127.606 1207.77 L131.574 1207.77 L131.574 1212.55 L127.606 1212.55 L127.606 1207.77 Z" fill="#000000" fill-rule="nonzero" fill-opacity="1" /><path clip-path="url(#clip340)" d="M147.975 1186.97 Q145.041 1186.97 143.555 1189.87 Q142.088 1192.74 142.088 1198.54 Q142.088 1204.31 143.555 1207.21 Q145.041 1210.09 147.975 1210.09 Q150.927 1210.09 152.394 1207.21 Q153.88 1204.31 153.88 1198.54 Q153.88 1192.74 152.394 1189.87 Q150.927 1186.97 147.975 1186.97 M147.975 1183.96 Q152.695 1183.96 155.178 1187.7 Q157.679 1191.43 157.679 1198.54 Q157.679 1205.63 155.178 1209.37 Q152.695 1213.09 147.975 1213.09 Q143.254 1213.09 140.752 1209.37 Q138.27 1205.63 138.27 1198.54 Q138.27 1191.43 140.752 1187.7 Q143.254 1183.96 147.975 1183.96 Z" fill="#000000" fill-rule="nonzero" fill-opacity="1" /><path clip-path="url(#clip340)" d="M51.0322 531.072 L58.671 531.072 L58.671 504.706 L50.3609 506.373 L50.3609 502.114 L58.6247 500.447 L63.3006 500.447 L63.3006 531.072 L70.9395 531.072 L70.9395 535.007 L51.0322 535.007 L51.0322 531.072 Z" fill="#000000" fill-rule="nonzero" fill-opacity="1" /><path clip-path="url(#clip340)" d="M90.3838 503.526 Q86.7727 503.526 84.944 507.091 Q83.1385 510.632 83.1385 517.762 Q83.1385 524.868 84.944 528.433 Q86.7727 531.975 90.3838 531.975 Q94.018 531.975 95.8236 528.433 Q97.6523 524.868 97.6523 517.762 Q97.6523 510.632 95.8236 507.091 Q94.018 503.526 90.3838 503.526 M90.3838 499.822 Q96.1939 499.822 99.2495 504.429 Q102.328 509.012 102.328 517.762 Q102.328 526.489 99.2495 531.095 Q96.1939 535.678 90.3838 535.678 Q84.5736 535.678 81.495 531.095 Q78.4394 526.489 78.4394 517.762 Q78.4394 509.012 81.495 504.429 Q84.5736 499.822 90.3838 499.822 Z" fill="#000000" fill-rule="nonzero" fill-opacity="1" /><path clip-path="url(#clip340)" d="M112.033 482.018 Q109.099 482.018 107.613 484.915 Q106.146 487.792 106.146 493.585 Q106.146 499.359 107.613 502.255 Q109.099 505.133 112.033 505.133 Q114.986 505.133 116.453 502.255 Q117.939 499.359 117.939 493.585 Q117.939 487.792 116.453 484.915 Q114.986 482.018 112.033 482.018 M112.033 479.009 Q116.754 479.009 119.236 482.752 Q121.738 486.476 121.738 493.585 Q121.738 500.675 119.236 504.418 Q116.754 508.142 112.033 508.142 Q107.312 508.142 104.811 504.418 Q102.328 500.675 102.328 493.585 Q102.328 486.476 104.811 482.752 Q107.312 479.009 112.033 479.009 Z" fill="#000000" fill-rule="nonzero" fill-opacity="1" /><path clip-path="url(#clip340)" d="M128.415 502.82 L132.383 502.82 L132.383 507.597 L128.415 507.597 L128.415 502.82 Z" fill="#000000" fill-rule="nonzero" fill-opacity="1" /><path clip-path="url(#clip340)" d="M140.696 479.517 L155.611 479.517 L155.611 482.714 L144.175 482.714 L144.175 489.598 Q145.003 489.316 145.831 489.184 Q146.658 489.033 147.486 489.033 Q152.188 489.033 154.934 491.61 Q157.679 494.187 157.679 498.588 Q157.679 503.12 154.858 505.641 Q152.037 508.142 146.903 508.142 Q145.135 508.142 143.291 507.841 Q141.467 507.54 139.511 506.938 L139.511 503.12 Q141.204 504.042 143.009 504.493 Q144.815 504.945 146.827 504.945 Q150.081 504.945 151.981 503.233 Q153.88 501.522 153.88 498.588 Q153.88 495.654 151.981 493.942 Q150.081 492.231 146.827 492.231 Q145.304 492.231 143.78 492.569 Q142.276 492.908 140.696 493.623 L140.696 479.517 Z" fill="#000000" fill-rule="nonzero" fill-opacity="1" /><circle clip-path="url(#clip342)" cx="197.999" cy="834.409" r="14.4" fill="#009af9" fill-rule="evenodd" fill-opacity="1" stroke="#000000" stroke-opacity="1" stroke-width="3.84"/>
<circle clip-path="url(#clip342)" cx="246.855" cy="706.71" r="14.4" fill="#009af9" fill-rule="evenodd" fill-opacity="1" stroke="#000000" stroke-opacity="1" stroke-width="3.84"/>
<circle clip-path="url(#clip342)" cx="295.71" cy="838.468" r="14.4" fill="#009af9" fill-rule="evenodd" fill-opacity="1" stroke="#000000" stroke-opacity="1" stroke-width="3.84"/>
<circle clip-path="url(#clip342)" cx="344.565" cy="1142.33" r="14.4" fill="#009af9" fill-rule="evenodd" fill-opacity="1" stroke="#000000" stroke-opacity="1" stroke-width="3.84"/>
<circle clip-path="url(#clip342)" cx="393.42" cy="719.799" r="14.4" fill="#009af9" fill-rule="evenodd" fill-opacity="1" stroke="#000000" stroke-opacity="1" stroke-width="3.84"/>
<circle clip-path="url(#clip342)" cx="442.275" cy="855.004" r="14.4" fill="#009af9" fill-rule="evenodd" fill-opacity="1" stroke="#000000" stroke-opacity="1" stroke-width="3.84"/>
<circle clip-path="url(#clip342)" cx="491.13" cy="567.922" r="14.4" fill="#009af9" fill-rule="evenodd" fill-opacity="1" stroke="#000000" stroke-opacity="1" stroke-width="3.84"/>
<circle clip-path="url(#clip342)" cx="539.985" cy="831.562" r="14.4" fill="#009af9" fill-rule="evenodd" fill-opacity="1" stroke="#000000" stroke-opacity="1" stroke-width="3.84"/>
<circle clip-path="url(#clip342)" cx="588.84" cy="684.509" r="14.4" fill="#009af9" fill-rule="evenodd" fill-opacity="1" stroke="#000000" stroke-opacity="1" stroke-width="3.84"/>
<circle clip-path="url(#clip342)" cx="637.696" cy="906.833" r="14.4" fill="#009af9" fill-rule="evenodd" fill-opacity="1" stroke="#000000" stroke-opacity="1" stroke-width="3.84"/>
<circle clip-path="url(#clip342)" cx="686.551" cy="830.23" r="14.4" fill="#009af9" fill-rule="evenodd" fill-opacity="1" stroke="#000000" stroke-opacity="1" stroke-width="3.84"/>
<circle clip-path="url(#clip342)" cx="735.406" cy="413.521" r="14.4" fill="#009af9" fill-rule="evenodd" fill-opacity="1" stroke="#000000" stroke-opacity="1" stroke-width="3.84"/>
<circle clip-path="url(#clip342)" cx="784.261" cy="482.475" r="14.4" fill="#009af9" fill-rule="evenodd" fill-opacity="1" stroke="#000000" stroke-opacity="1" stroke-width="3.84"/>
<circle clip-path="url(#clip342)" cx="833.116" cy="456.534" r="14.4" fill="#009af9" fill-rule="evenodd" fill-opacity="1" stroke="#000000" stroke-opacity="1" stroke-width="3.84"/>
<circle clip-path="url(#clip342)" cx="881.971" cy="99.4734" r="14.4" fill="#009af9" fill-rule="evenodd" fill-opacity="1" stroke="#000000" stroke-opacity="1" stroke-width="3.84"/>
<circle clip-path="url(#clip342)" cx="930.826" cy="94.9858" r="14.4" fill="#009af9" fill-rule="evenodd" fill-opacity="1" stroke="#000000" stroke-opacity="1" stroke-width="3.84"/>
<circle clip-path="url(#clip342)" cx="979.682" cy="325.484" r="14.4" fill="#009af9" fill-rule="evenodd" fill-opacity="1" stroke="#000000" stroke-opacity="1" stroke-width="3.84"/>
<circle clip-path="url(#clip342)" cx="1028.54" cy="391.509" r="14.4" fill="#009af9" fill-rule="evenodd" fill-opacity="1" stroke="#000000" stroke-opacity="1" stroke-width="3.84"/>
<circle clip-path="url(#clip342)" cx="1077.39" cy="503.766" r="14.4" fill="#009af9" fill-rule="evenodd" fill-opacity="1" stroke="#000000" stroke-opacity="1" stroke-width="3.84"/>
<circle clip-path="url(#clip342)" cx="1126.25" cy="246.992" r="14.4" fill="#009af9" fill-rule="evenodd" fill-opacity="1" stroke="#000000" stroke-opacity="1" stroke-width="3.84"/>
<circle clip-path="url(#clip342)" cx="1175.1" cy="390.122" r="14.4" fill="#009af9" fill-rule="evenodd" fill-opacity="1" stroke="#000000" stroke-opacity="1" stroke-width="3.84"/>
<circle clip-path="url(#clip342)" cx="1223.96" cy="482.698" r="14.4" fill="#009af9" fill-rule="evenodd" fill-opacity="1" stroke="#000000" stroke-opacity="1" stroke-width="3.84"/>
<circle clip-path="url(#clip342)" cx="1272.81" cy="583.886" r="14.4" fill="#009af9" fill-rule="evenodd" fill-opacity="1" stroke="#000000" stroke-opacity="1" stroke-width="3.84"/>
<circle clip-path="url(#clip342)" cx="1321.67" cy="144.168" r="14.4" fill="#009af9" fill-rule="evenodd" fill-opacity="1" stroke="#000000" stroke-opacity="1" stroke-width="3.84"/>
<circle clip-path="url(#clip342)" cx="1370.52" cy="184.608" r="14.4" fill="#009af9" fill-rule="evenodd" fill-opacity="1" stroke="#000000" stroke-opacity="1" stroke-width="3.84"/>
<circle clip-path="url(#clip342)" cx="1419.38" cy="150.071" r="14.4" fill="#009af9" fill-rule="evenodd" fill-opacity="1" stroke="#000000" stroke-opacity="1" stroke-width="3.84"/>
<circle clip-path="url(#clip342)" cx="1468.23" cy="860.698" r="14.4" fill="#009af9" fill-rule="evenodd" fill-opacity="1" stroke="#000000" stroke-opacity="1" stroke-width="3.84"/>
<circle clip-path="url(#clip342)" cx="1517.09" cy="614.733" r="14.4" fill="#009af9" fill-rule="evenodd" fill-opacity="1" stroke="#000000" stroke-opacity="1" stroke-width="3.84"/>
<circle clip-path="url(#clip342)" cx="1565.94" cy="853.908" r="14.4" fill="#009af9" fill-rule="evenodd" fill-opacity="1" stroke="#000000" stroke-opacity="1" stroke-width="3.84"/>
<circle clip-path="url(#clip342)" cx="1614.8" cy="583.169" r="14.4" fill="#009af9" fill-rule="evenodd" fill-opacity="1" stroke="#000000" stroke-opacity="1" stroke-width="3.84"/>
<circle clip-path="url(#clip342)" cx="1663.65" cy="887.944" r="14.4" fill="#009af9" fill-rule="evenodd" fill-opacity="1" stroke="#000000" stroke-opacity="1" stroke-width="3.84"/>
<circle clip-path="url(#clip342)" cx="1712.51" cy="1061.3" r="14.4" fill="#009af9" fill-rule="evenodd" fill-opacity="1" stroke="#000000" stroke-opacity="1" stroke-width="3.84"/>
<circle clip-path="url(#clip342)" cx="1761.36" cy="819.714" r="14.4" fill="#009af9" fill-rule="evenodd" fill-opacity="1" stroke="#000000" stroke-opacity="1" stroke-width="3.84"/>
<circle clip-path="url(#clip342)" cx="1810.22" cy="502.216" r="14.4" fill="#009af9" fill-rule="evenodd" fill-opacity="1" stroke="#000000" stroke-opacity="1" stroke-width="3.84"/>
<circle clip-path="url(#clip342)" cx="1859.07" cy="1098.78" r="14.4" fill="#009af9" fill-rule="evenodd" fill-opacity="1" stroke="#000000" stroke-opacity="1" stroke-width="3.84"/>
<circle clip-path="url(#clip342)" cx="1907.93" cy="761.896" r="14.4" fill="#009af9" fill-rule="evenodd" fill-opacity="1" stroke="#000000" stroke-opacity="1" stroke-width="3.84"/>
<circle clip-path="url(#clip342)" cx="1956.78" cy="585.8" r="14.4" fill="#009af9" fill-rule="evenodd" fill-opacity="1" stroke="#000000" stroke-opacity="1" stroke-width="3.84"/>
<circle clip-path="url(#clip342)" cx="2005.64" cy="785.33" r="14.4" fill="#009af9" fill-rule="evenodd" fill-opacity="1" stroke="#000000" stroke-opacity="1" stroke-width="3.84"/>
<circle clip-path="url(#clip342)" cx="2054.49" cy="796.665" r="14.4" fill="#009af9" fill-rule="evenodd" fill-opacity="1" stroke="#000000" stroke-opacity="1" stroke-width="3.84"/>
<circle clip-path="url(#clip342)" cx="2103.35" cy="805.236" r="14.4" fill="#009af9" fill-rule="evenodd" fill-opacity="1" stroke="#000000" stroke-opacity="1" stroke-width="3.84"/>
<circle clip-path="url(#clip342)" cx="2152.2" cy="490.803" r="14.4" fill="#009af9" fill-rule="evenodd" fill-opacity="1" stroke="#000000" stroke-opacity="1" stroke-width="3.84"/>
<circle clip-path="url(#clip342)" cx="2201.06" cy="629.148" r="14.4" fill="#009af9" fill-rule="evenodd" fill-opacity="1" stroke="#000000" stroke-opacity="1" stroke-width="3.84"/>
<circle clip-path="url(#clip342)" cx="2249.91" cy="470.659" r="14.4" fill="#009af9" fill-rule="evenodd" fill-opacity="1" stroke="#000000" stroke-opacity="1" stroke-width="3.84"/>
<circle clip-path="url(#clip342)" cx="2298.77" cy="613.204" r="14.4" fill="#009af9" fill-rule="evenodd" fill-opacity="1" stroke="#000000" stroke-opacity="1" stroke-width="3.84"/>
<circle clip-path="url(#clip342)" cx="2347.63" cy="372.047" r="14.4" fill="#009af9" fill-rule="evenodd" fill-opacity="1" stroke="#000000" stroke-opacity="1" stroke-width="3.84"/>
<circle clip-path="url(#clip342)" cx="2396.48" cy="304.585" r="14.4" fill="#009af9" fill-rule="evenodd" fill-opacity="1" stroke="#000000" stroke-opacity="1" stroke-width="3.84"/>
<circle clip-path="url(#clip342)" cx="2445.34" cy="502.088" r="14.4" fill="#009af9" fill-rule="evenodd" fill-opacity="1" stroke="#000000" stroke-opacity="1" stroke-width="3.84"/>
<circle clip-path="url(#clip342)" cx="2494.19" cy="166.285" r="14.4" fill="#009af9" fill-rule="evenodd" fill-opacity="1" stroke="#000000" stroke-opacity="1" stroke-width="3.84"/>
<circle clip-path="url(#clip342)" cx="2543.05" cy="278.018" r="14.4" fill="#009af9" fill-rule="evenodd" fill-opacity="1" stroke="#000000" stroke-opacity="1" stroke-width="3.84"/>
<circle clip-path="url(#clip342)" cx="2591.9" cy="356.587" r="14.4" fill="#009af9" fill-rule="evenodd" fill-opacity="1" stroke="#000000" stroke-opacity="1" stroke-width="3.84"/>
<circle clip-path="url(#clip342)" cx="2640.76" cy="153.463" r="14.4" fill="#009af9" fill-rule="evenodd" fill-opacity="1" stroke="#000000" stroke-opacity="1" stroke-width="3.84"/>
<circle clip-path="url(#clip342)" cx="197.999" cy="619.064" r="14.4" fill="#e26f46" fill-rule="evenodd" fill-opacity="1" stroke="#000000" stroke-opacity="1" stroke-width="3.84"/>
<circle clip-path="url(#clip342)" cx="246.855" cy="488.669" r="14.4" fill="#e26f46" fill-rule="evenodd" fill-opacity="1" stroke="#000000" stroke-opacity="1" stroke-width="3.84"/>
<circle clip-path="url(#clip342)" cx="295.71" cy="707.753" r="14.4" fill="#e26f46" fill-rule="evenodd" fill-opacity="1" stroke="#000000" stroke-opacity="1" stroke-width="3.84"/>
<circle clip-path="url(#clip342)" cx="344.565" cy="1380.58" r="14.4" fill="#e26f46" fill-rule="evenodd" fill-opacity="1" stroke="#000000" stroke-opacity="1" stroke-width="3.84"/>
<circle clip-path="url(#clip342)" cx="393.42" cy="1218.82" r="14.4" fill="#e26f46" fill-rule="evenodd" fill-opacity="1" stroke="#000000" stroke-opacity="1" stroke-width="3.84"/>
<circle clip-path="url(#clip342)" cx="442.275" cy="1019.5" r="14.4" fill="#e26f46" fill-rule="evenodd" fill-opacity="1" stroke="#000000" stroke-opacity="1" stroke-width="3.84"/>
<circle clip-path="url(#clip342)" cx="491.13" cy="1134.41" r="14.4" fill="#e26f46" fill-rule="evenodd" fill-opacity="1" stroke="#000000" stroke-opacity="1" stroke-width="3.84"/>
<circle clip-path="url(#clip342)" cx="539.985" cy="1218.58" r="14.4" fill="#e26f46" fill-rule="evenodd" fill-opacity="1" stroke="#000000" stroke-opacity="1" stroke-width="3.84"/>
<circle clip-path="url(#clip342)" cx="588.84" cy="1489.12" r="14.4" fill="#e26f46" fill-rule="evenodd" fill-opacity="1" stroke="#000000" stroke-opacity="1" stroke-width="3.84"/>
<circle clip-path="url(#clip342)" cx="637.696" cy="1296.44" r="14.4" fill="#e26f46" fill-rule="evenodd" fill-opacity="1" stroke="#000000" stroke-opacity="1" stroke-width="3.84"/>
<circle clip-path="url(#clip342)" cx="686.551" cy="1616.74" r="14.4" fill="#e26f46" fill-rule="evenodd" fill-opacity="1" stroke="#000000" stroke-opacity="1" stroke-width="3.84"/>
<circle clip-path="url(#clip342)" cx="735.406" cy="1435.61" r="14.4" fill="#e26f46" fill-rule="evenodd" fill-opacity="1" stroke="#000000" stroke-opacity="1" stroke-width="3.84"/>
<circle clip-path="url(#clip342)" cx="784.261" cy="1479.52" r="14.4" fill="#e26f46" fill-rule="evenodd" fill-opacity="1" stroke="#000000" stroke-opacity="1" stroke-width="3.84"/>
<circle clip-path="url(#clip342)" cx="833.116" cy="1686.38" r="14.4" fill="#e26f46" fill-rule="evenodd" fill-opacity="1" stroke="#000000" stroke-opacity="1" stroke-width="3.84"/>
<circle clip-path="url(#clip342)" cx="881.971" cy="1552.06" r="14.4" fill="#e26f46" fill-rule="evenodd" fill-opacity="1" stroke="#000000" stroke-opacity="1" stroke-width="3.84"/>
<circle clip-path="url(#clip342)" cx="930.826" cy="1445.83" r="14.4" fill="#e26f46" fill-rule="evenodd" fill-opacity="1" stroke="#000000" stroke-opacity="1" stroke-width="3.84"/>
<circle clip-path="url(#clip342)" cx="979.682" cy="1152.94" r="14.4" fill="#e26f46" fill-rule="evenodd" fill-opacity="1" stroke="#000000" stroke-opacity="1" stroke-width="3.84"/>
<circle clip-path="url(#clip342)" cx="1028.54" cy="1201.11" r="14.4" fill="#e26f46" fill-rule="evenodd" fill-opacity="1" stroke="#000000" stroke-opacity="1" stroke-width="3.84"/>
<circle clip-path="url(#clip342)" cx="1077.39" cy="1042.99" r="14.4" fill="#e26f46" fill-rule="evenodd" fill-opacity="1" stroke="#000000" stroke-opacity="1" stroke-width="3.84"/>
<circle clip-path="url(#clip342)" cx="1126.25" cy="957.586" r="14.4" fill="#e26f46" fill-rule="evenodd" fill-opacity="1" stroke="#000000" stroke-opacity="1" stroke-width="3.84"/>
<circle clip-path="url(#clip342)" cx="1175.1" cy="1234.05" r="14.4" fill="#e26f46" fill-rule="evenodd" fill-opacity="1" stroke="#000000" stroke-opacity="1" stroke-width="3.84"/>
<circle clip-path="url(#clip342)" cx="1223.96" cy="626.525" r="14.4" fill="#e26f46" fill-rule="evenodd" fill-opacity="1" stroke="#000000" stroke-opacity="1" stroke-width="3.84"/>
<circle clip-path="url(#clip342)" cx="1272.81" cy="824.362" r="14.4" fill="#e26f46" fill-rule="evenodd" fill-opacity="1" stroke="#000000" stroke-opacity="1" stroke-width="3.84"/>
<circle clip-path="url(#clip342)" cx="1321.67" cy="754.802" r="14.4" fill="#e26f46" fill-rule="evenodd" fill-opacity="1" stroke="#000000" stroke-opacity="1" stroke-width="3.84"/>
<circle clip-path="url(#clip342)" cx="1370.52" cy="677.574" r="14.4" fill="#e26f46" fill-rule="evenodd" fill-opacity="1" stroke="#000000" stroke-opacity="1" stroke-width="3.84"/>
<circle clip-path="url(#clip342)" cx="1419.38" cy="589.51" r="14.4" fill="#e26f46" fill-rule="evenodd" fill-opacity="1" stroke="#000000" stroke-opacity="1" stroke-width="3.84"/>
<circle clip-path="url(#clip342)" cx="1468.23" cy="476.248" r="14.4" fill="#e26f46" fill-rule="evenodd" fill-opacity="1" stroke="#000000" stroke-opacity="1" stroke-width="3.84"/>
<circle clip-path="url(#clip342)" cx="1517.09" cy="615.275" r="14.4" fill="#e26f46" fill-rule="evenodd" fill-opacity="1" stroke="#000000" stroke-opacity="1" stroke-width="3.84"/>
<circle clip-path="url(#clip342)" cx="1565.94" cy="532.486" r="14.4" fill="#e26f46" fill-rule="evenodd" fill-opacity="1" stroke="#000000" stroke-opacity="1" stroke-width="3.84"/>
<circle clip-path="url(#clip342)" cx="1614.8" cy="817.074" r="14.4" fill="#e26f46" fill-rule="evenodd" fill-opacity="1" stroke="#000000" stroke-opacity="1" stroke-width="3.84"/>
<circle clip-path="url(#clip342)" cx="1663.65" cy="877.343" r="14.4" fill="#e26f46" fill-rule="evenodd" fill-opacity="1" stroke="#000000" stroke-opacity="1" stroke-width="3.84"/>
<circle clip-path="url(#clip342)" cx="1712.51" cy="713.575" r="14.4" fill="#e26f46" fill-rule="evenodd" fill-opacity="1" stroke="#000000" stroke-opacity="1" stroke-width="3.84"/>
<circle clip-path="url(#clip342)" cx="1761.36" cy="740.275" r="14.4" fill="#e26f46" fill-rule="evenodd" fill-opacity="1" stroke="#000000" stroke-opacity="1" stroke-width="3.84"/>
<circle clip-path="url(#clip342)" cx="1810.22" cy="1219.56" r="14.4" fill="#e26f46" fill-rule="evenodd" fill-opacity="1" stroke="#000000" stroke-opacity="1" stroke-width="3.84"/>
<circle clip-path="url(#clip342)" cx="1859.07" cy="951.465" r="14.4" fill="#e26f46" fill-rule="evenodd" fill-opacity="1" stroke="#000000" stroke-opacity="1" stroke-width="3.84"/>
<circle clip-path="url(#clip342)" cx="1907.93" cy="878.603" r="14.4" fill="#e26f46" fill-rule="evenodd" fill-opacity="1" stroke="#000000" stroke-opacity="1" stroke-width="3.84"/>
<circle clip-path="url(#clip342)" cx="1956.78" cy="828.32" r="14.4" fill="#e26f46" fill-rule="evenodd" fill-opacity="1" stroke="#000000" stroke-opacity="1" stroke-width="3.84"/>
<circle clip-path="url(#clip342)" cx="2005.64" cy="1301.09" r="14.4" fill="#e26f46" fill-rule="evenodd" fill-opacity="1" stroke="#000000" stroke-opacity="1" stroke-width="3.84"/>
<circle clip-path="url(#clip342)" cx="2054.49" cy="1369.46" r="14.4" fill="#e26f46" fill-rule="evenodd" fill-opacity="1" stroke="#000000" stroke-opacity="1" stroke-width="3.84"/>
<circle clip-path="url(#clip342)" cx="2103.35" cy="901.442" r="14.4" fill="#e26f46" fill-rule="evenodd" fill-opacity="1" stroke="#000000" stroke-opacity="1" stroke-width="3.84"/>
<circle clip-path="url(#clip342)" cx="2152.2" cy="1393.45" r="14.4" fill="#e26f46" fill-rule="evenodd" fill-opacity="1" stroke="#000000" stroke-opacity="1" stroke-width="3.84"/>
<circle clip-path="url(#clip342)" cx="2201.06" cy="1399.9" r="14.4" fill="#e26f46" fill-rule="evenodd" fill-opacity="1" stroke="#000000" stroke-opacity="1" stroke-width="3.84"/>
<circle clip-path="url(#clip342)" cx="2249.91" cy="1405.1" r="14.4" fill="#e26f46" fill-rule="evenodd" fill-opacity="1" stroke="#000000" stroke-opacity="1" stroke-width="3.84"/>
<circle clip-path="url(#clip342)" cx="2298.77" cy="1472.58" r="14.4" fill="#e26f46" fill-rule="evenodd" fill-opacity="1" stroke="#000000" stroke-opacity="1" stroke-width="3.84"/>
<circle clip-path="url(#clip342)" cx="2347.63" cy="1495.9" r="14.4" fill="#e26f46" fill-rule="evenodd" fill-opacity="1" stroke="#000000" stroke-opacity="1" stroke-width="3.84"/>
<circle clip-path="url(#clip342)" cx="2396.48" cy="1471.49" r="14.4" fill="#e26f46" fill-rule="evenodd" fill-opacity="1" stroke="#000000" stroke-opacity="1" stroke-width="3.84"/>
<circle clip-path="url(#clip342)" cx="2445.34" cy="1271.09" r="14.4" fill="#e26f46" fill-rule="evenodd" fill-opacity="1" stroke="#000000" stroke-opacity="1" stroke-width="3.84"/>
<circle clip-path="url(#clip342)" cx="2494.19" cy="1109.64" r="14.4" fill="#e26f46" fill-rule="evenodd" fill-opacity="1" stroke="#000000" stroke-opacity="1" stroke-width="3.84"/>
<circle clip-path="url(#clip342)" cx="2543.05" cy="1134.96" r="14.4" fill="#e26f46" fill-rule="evenodd" fill-opacity="1" stroke="#000000" stroke-opacity="1" stroke-width="3.84"/>
<circle clip-path="url(#clip342)" cx="2591.9" cy="1031.66" r="14.4" fill="#e26f46" fill-rule="evenodd" fill-opacity="1" stroke="#000000" stroke-opacity="1" stroke-width="3.84"/>
<circle clip-path="url(#clip342)" cx="2640.76" cy="1144.47" r="14.4" fill="#e26f46" fill-rule="evenodd" fill-opacity="1" stroke="#000000" stroke-opacity="1" stroke-width="3.84"/>
<polyline clip-path="url(#clip342)" style="stroke:#009af9; stroke-linecap:round; stroke-linejoin:round; stroke-width:4; stroke-opacity:1; fill:none" points="197.999,791.808 246.855,762.17 295.71,734.946 344.565,710.014 393.42,687.246 442.275,666.514 491.13,647.684 539.985,630.625 588.84,615.207 637.696,601.304 686.551,588.792 735.406,577.552 784.261,567.476 833.116,558.457 881.971,550.396 930.826,543.2 979.682,536.785 1028.54,531.075 1077.39,525.998 1126.25,521.49 1175.1,517.488 1223.96,513.938 1272.81,510.791 1321.67,508.006 1370.52,505.545 1419.38,503.373 1468.23,501.456 1517.09,499.763 1565.94,498.269 1614.8,496.952 1663.65,495.794 1712.51,494.778 1761.36,493.888 1810.22,493.11 1859.07,492.43 1907.93,491.834 1956.78,491.312 2005.64,490.857 2054.49,490.462 2103.35,490.121 2152.2,489.828 2201.06,489.578 2249.91,489.365 2298.77,489.185 2347.63,489.033 2396.48,488.903 2445.34,488.795 2494.19,488.706 2543.05,488.634 2591.9,488.579 2640.76,488.539 "/>
<polyline clip-path="url(#clip342)" style="stroke:#e26f46; stroke-linecap:round; stroke-linejoin:round; stroke-width:4; stroke-opacity:1; fill:none" points="197.999,791.808 246.855,820.506 295.71,846.933 344.565,871.212 393.42,893.472 442.275,913.84 491.13,932.443 539.985,949.407 588.84,964.856 637.696,978.91 686.551,991.686 735.406,1003.29 784.261,1013.82 833.116,1023.39 881.971,1032.07 930.826,1039.97 979.682,1047.15 1028.54,1053.68 1077.39,1059.63 1126.25,1065.06 1175.1,1070.02 1223.96,1074.58 1272.81,1078.76 1321.67,1082.6 1370.52,1086.15 1419.38,1089.44 1468.23,1092.49 1517.09,1095.33 1565.94,1097.98 1614.8,1100.47 1663.65,1102.82 1712.51,1105.03 1761.36,1107.12 1810.22,1109.11 1859.07,1111 1907.93,1112.82 1956.78,1114.56 2005.64,1116.24 2054.49,1117.86 2103.35,1119.43 2152.2,1120.95 2201.06,1122.43 2249.91,1123.87 2298.77,1125.28 2347.63,1126.66 2396.48,1128.01 2445.34,1129.34 2494.19,1130.65 2543.05,1131.95 2591.9,1133.22 2640.76,1134.47 "/>
<path clip-path="url(#clip340)" d="M279.425 362.673 L1200.5 362.673 L1200.5 103.473 L279.425 103.473  Z" fill="#ffffff" fill-rule="evenodd" fill-opacity="1"/>
<polyline clip-path="url(#clip340)" style="stroke:#000000; stroke-linecap:round; stroke-linejoin:round; stroke-width:4; stroke-opacity:1; fill:none" points="279.425,362.673 1200.5,362.673 1200.5,103.473 279.425,103.473 279.425,362.673 "/>
<circle clip-path="url(#clip340)" cx="387.992" cy="155.313" r="20.48" fill="#009af9" fill-rule="evenodd" fill-opacity="1" stroke="#000000" stroke-opacity="1" stroke-width="5.46133"/>
<path clip-path="url(#clip340)" d="M501.234 141.876 L501.234 154.862 L507.114 154.862 Q510.378 154.862 512.16 153.172 Q513.943 151.482 513.943 148.357 Q513.943 145.255 512.16 143.566 Q510.378 141.876 507.114 141.876 L501.234 141.876 M496.559 138.033 L507.114 138.033 Q512.924 138.033 515.887 140.672 Q518.873 143.288 518.873 148.357 Q518.873 153.473 515.887 156.089 Q512.924 158.704 507.114 158.704 L501.234 158.704 L501.234 172.593 L496.559 172.593 L496.559 138.033 Z" fill="#000000" fill-rule="nonzero" fill-opacity="1" /><path clip-path="url(#clip340)" d="M539.151 150.649 Q538.433 150.232 537.577 150.047 Q536.744 149.839 535.725 149.839 Q532.114 149.839 530.169 152.2 Q528.248 154.538 528.248 158.936 L528.248 172.593 L523.966 172.593 L523.966 146.667 L528.248 146.667 L528.248 150.695 Q529.591 148.334 531.744 147.2 Q533.896 146.042 536.975 146.042 Q537.415 146.042 537.947 146.112 Q538.48 146.158 539.128 146.274 L539.151 150.649 Z" fill="#000000" fill-rule="nonzero" fill-opacity="1" /><path clip-path="url(#clip340)" d="M564.753 158.565 L564.753 160.649 L545.169 160.649 Q545.447 165.047 547.808 167.362 Q550.193 169.653 554.429 169.653 Q556.882 169.653 559.174 169.052 Q561.489 168.45 563.757 167.246 L563.757 171.274 Q561.466 172.246 559.058 172.755 Q556.651 173.264 554.174 173.264 Q547.97 173.264 544.336 169.653 Q540.725 166.042 540.725 159.885 Q540.725 153.519 544.151 149.792 Q547.6 146.042 553.433 146.042 Q558.665 146.042 561.697 149.422 Q564.753 152.778 564.753 158.565 M560.493 157.315 Q560.447 153.82 558.526 151.737 Q556.628 149.653 553.48 149.653 Q549.915 149.653 547.762 151.667 Q545.632 153.681 545.308 157.339 L560.493 157.315 Z" fill="#000000" fill-rule="nonzero" fill-opacity="1" /><path clip-path="url(#clip340)" d="M588.803 150.603 L588.803 136.575 L593.063 136.575 L593.063 172.593 L588.803 172.593 L588.803 168.704 Q587.461 171.019 585.401 172.153 Q583.364 173.264 580.493 173.264 Q575.794 173.264 572.831 169.515 Q569.892 165.765 569.892 159.653 Q569.892 153.542 572.831 149.792 Q575.794 146.042 580.493 146.042 Q583.364 146.042 585.401 147.177 Q587.461 148.288 588.803 150.603 M574.29 159.653 Q574.29 164.352 576.211 167.038 Q578.155 169.7 581.535 169.7 Q584.915 169.7 586.859 167.038 Q588.803 164.352 588.803 159.653 Q588.803 154.954 586.859 152.292 Q584.915 149.607 581.535 149.607 Q578.155 149.607 576.211 152.292 Q574.29 154.954 574.29 159.653 Z" fill="#000000" fill-rule="nonzero" fill-opacity="1" /><path clip-path="url(#clip340)" d="M613.618 159.561 Q608.456 159.561 606.465 160.741 Q604.475 161.922 604.475 164.769 Q604.475 167.038 605.956 168.38 Q607.461 169.7 610.03 169.7 Q613.572 169.7 615.701 167.2 Q617.854 164.677 617.854 160.51 L617.854 159.561 L613.618 159.561 M622.113 157.802 L622.113 172.593 L617.854 172.593 L617.854 168.658 Q616.396 171.019 614.22 172.153 Q612.044 173.264 608.896 173.264 Q604.914 173.264 602.553 171.042 Q600.215 168.797 600.215 165.047 Q600.215 160.672 603.132 158.45 Q606.072 156.228 611.882 156.228 L617.854 156.228 L617.854 155.811 Q617.854 152.871 615.91 151.274 Q613.988 149.653 610.493 149.653 Q608.271 149.653 606.164 150.186 Q604.058 150.718 602.114 151.783 L602.114 147.848 Q604.452 146.945 606.651 146.505 Q608.85 146.042 610.933 146.042 Q616.558 146.042 619.336 148.959 Q622.113 151.876 622.113 157.802 Z" fill="#000000" fill-rule="nonzero" fill-opacity="1" /><path clip-path="url(#clip340)" d="M635.099 139.306 L635.099 146.667 L643.873 146.667 L643.873 149.978 L635.099 149.978 L635.099 164.052 Q635.099 167.223 635.956 168.126 Q636.836 169.028 639.498 169.028 L643.873 169.028 L643.873 172.593 L639.498 172.593 Q634.567 172.593 632.692 170.764 Q630.817 168.913 630.817 164.052 L630.817 149.978 L627.692 149.978 L627.692 146.667 L630.817 146.667 L630.817 139.306 L635.099 139.306 Z" fill="#000000" fill-rule="nonzero" fill-opacity="1" /><path clip-path="url(#clip340)" d="M659.521 149.653 Q656.095 149.653 654.104 152.339 Q652.113 155.001 652.113 159.653 Q652.113 164.306 654.081 166.991 Q656.072 169.653 659.521 169.653 Q662.923 169.653 664.914 166.968 Q666.905 164.283 666.905 159.653 Q666.905 155.047 664.914 152.362 Q662.923 149.653 659.521 149.653 M659.521 146.042 Q665.076 146.042 668.247 149.653 Q671.419 153.265 671.419 159.653 Q671.419 166.019 668.247 169.653 Q665.076 173.264 659.521 173.264 Q653.942 173.264 650.771 169.653 Q647.623 166.019 647.623 159.653 Q647.623 153.265 650.771 149.653 Q653.942 146.042 659.521 146.042 Z" fill="#000000" fill-rule="nonzero" fill-opacity="1" /><path clip-path="url(#clip340)" d="M693.502 150.649 Q692.784 150.232 691.928 150.047 Q691.095 149.839 690.076 149.839 Q686.465 149.839 684.521 152.2 Q682.599 154.538 682.599 158.936 L682.599 172.593 L678.317 172.593 L678.317 146.667 L682.599 146.667 L682.599 150.695 Q683.942 148.334 686.095 147.2 Q688.247 146.042 691.326 146.042 Q691.766 146.042 692.298 146.112 Q692.831 146.158 693.479 146.274 L693.502 150.649 Z" fill="#000000" fill-rule="nonzero" fill-opacity="1" /><path clip-path="url(#clip340)" d="M724.821 159.561 Q719.659 159.561 717.668 160.741 Q715.678 161.922 715.678 164.769 Q715.678 167.038 717.159 168.38 Q718.664 169.7 721.233 169.7 Q724.775 169.7 726.905 167.2 Q729.057 164.677 729.057 160.51 L729.057 159.561 L724.821 159.561 M733.317 157.802 L733.317 172.593 L729.057 172.593 L729.057 168.658 Q727.599 171.019 725.423 172.153 Q723.247 173.264 720.099 173.264 Q716.118 173.264 713.756 171.042 Q711.419 168.797 711.419 165.047 Q711.419 160.672 714.335 158.45 Q717.275 156.228 723.085 156.228 L729.057 156.228 L729.057 155.811 Q729.057 152.871 727.113 151.274 Q725.192 149.653 721.696 149.653 Q719.474 149.653 717.368 150.186 Q715.261 150.718 713.317 151.783 L713.317 147.848 Q715.655 146.945 717.854 146.505 Q720.053 146.042 722.136 146.042 Q727.761 146.042 730.539 148.959 Q733.317 151.876 733.317 157.802 Z" fill="#000000" fill-rule="nonzero" fill-opacity="1" /><path clip-path="url(#clip340)" d="M760.701 159.653 Q760.701 154.954 758.756 152.292 Q756.835 149.607 753.455 149.607 Q750.076 149.607 748.131 152.292 Q746.21 154.954 746.21 159.653 Q746.21 164.352 748.131 167.038 Q750.076 169.7 753.455 169.7 Q756.835 169.7 758.756 167.038 Q760.701 164.352 760.701 159.653 M746.21 150.603 Q747.553 148.288 749.59 147.177 Q751.65 146.042 754.497 146.042 Q759.219 146.042 762.159 149.792 Q765.122 153.542 765.122 159.653 Q765.122 165.765 762.159 169.515 Q759.219 173.264 754.497 173.264 Q751.65 173.264 749.59 172.153 Q747.553 171.019 746.21 168.704 L746.21 172.593 L741.928 172.593 L741.928 136.575 L746.21 136.575 L746.21 150.603 Z" fill="#000000" fill-rule="nonzero" fill-opacity="1" /><path clip-path="url(#clip340)" d="M771.742 162.362 L771.742 146.667 L776.002 146.667 L776.002 162.2 Q776.002 165.88 777.437 167.732 Q778.872 169.561 781.742 169.561 Q785.191 169.561 787.182 167.362 Q789.196 165.163 789.196 161.366 L789.196 146.667 L793.455 146.667 L793.455 172.593 L789.196 172.593 L789.196 168.612 Q787.645 170.973 785.585 172.13 Q783.548 173.264 780.839 173.264 Q776.372 173.264 774.057 170.487 Q771.742 167.709 771.742 162.362 M782.46 146.042 L782.46 146.042 Z" fill="#000000" fill-rule="nonzero" fill-opacity="1" /><path clip-path="url(#clip340)" d="M823.779 156.945 L823.779 172.593 L819.52 172.593 L819.52 157.084 Q819.52 153.403 818.085 151.575 Q816.649 149.746 813.779 149.746 Q810.33 149.746 808.339 151.945 Q806.349 154.144 806.349 157.94 L806.349 172.593 L802.066 172.593 L802.066 146.667 L806.349 146.667 L806.349 150.695 Q807.876 148.357 809.937 147.2 Q812.02 146.042 814.728 146.042 Q819.196 146.042 821.487 148.82 Q823.779 151.575 823.779 156.945 Z" fill="#000000" fill-rule="nonzero" fill-opacity="1" /><path clip-path="url(#clip340)" d="M849.334 150.603 L849.334 136.575 L853.594 136.575 L853.594 172.593 L849.334 172.593 L849.334 168.704 Q847.992 171.019 845.932 172.153 Q843.895 173.264 841.024 173.264 Q836.325 173.264 833.362 169.515 Q830.423 165.765 830.423 159.653 Q830.423 153.542 833.362 149.792 Q836.325 146.042 841.024 146.042 Q843.895 146.042 845.932 147.177 Q847.992 148.288 849.334 150.603 M834.821 159.653 Q834.821 164.352 836.742 167.038 Q838.686 169.7 842.066 169.7 Q845.446 169.7 847.39 167.038 Q849.334 164.352 849.334 159.653 Q849.334 154.954 847.39 152.292 Q845.446 149.607 842.066 149.607 Q838.686 149.607 836.742 152.292 Q834.821 154.954 834.821 159.653 Z" fill="#000000" fill-rule="nonzero" fill-opacity="1" /><path clip-path="url(#clip340)" d="M874.149 159.561 Q868.987 159.561 866.996 160.741 Q865.006 161.922 865.006 164.769 Q865.006 167.038 866.487 168.38 Q867.992 169.7 870.561 169.7 Q874.103 169.7 876.232 167.2 Q878.385 164.677 878.385 160.51 L878.385 159.561 L874.149 159.561 M882.644 157.802 L882.644 172.593 L878.385 172.593 L878.385 168.658 Q876.927 171.019 874.751 172.153 Q872.575 173.264 869.427 173.264 Q865.445 173.264 863.084 171.042 Q860.746 168.797 860.746 165.047 Q860.746 160.672 863.663 158.45 Q866.603 156.228 872.413 156.228 L878.385 156.228 L878.385 155.811 Q878.385 152.871 876.441 151.274 Q874.52 149.653 871.024 149.653 Q868.802 149.653 866.695 150.186 Q864.589 150.718 862.645 151.783 L862.645 147.848 Q864.983 146.945 867.182 146.505 Q869.381 146.042 871.464 146.042 Q877.089 146.042 879.867 148.959 Q882.644 151.876 882.644 157.802 Z" fill="#000000" fill-rule="nonzero" fill-opacity="1" /><path clip-path="url(#clip340)" d="M912.968 156.945 L912.968 172.593 L908.709 172.593 L908.709 157.084 Q908.709 153.403 907.274 151.575 Q905.839 149.746 902.968 149.746 Q899.519 149.746 897.529 151.945 Q895.538 154.144 895.538 157.94 L895.538 172.593 L891.256 172.593 L891.256 146.667 L895.538 146.667 L895.538 150.695 Q897.066 148.357 899.126 147.2 Q901.209 146.042 903.917 146.042 Q908.385 146.042 910.677 148.82 Q912.968 151.575 912.968 156.945 Z" fill="#000000" fill-rule="nonzero" fill-opacity="1" /><path clip-path="url(#clip340)" d="M940.121 147.663 L940.121 151.644 Q938.315 150.649 936.487 150.163 Q934.681 149.653 932.829 149.653 Q928.686 149.653 926.394 152.292 Q924.103 154.908 924.103 159.653 Q924.103 164.399 926.394 167.038 Q928.686 169.653 932.829 169.653 Q934.681 169.653 936.487 169.167 Q938.315 168.658 940.121 167.663 L940.121 171.598 Q938.339 172.431 936.417 172.848 Q934.519 173.264 932.366 173.264 Q926.51 173.264 923.061 169.584 Q919.612 165.903 919.612 159.653 Q919.612 153.311 923.084 149.677 Q926.579 146.042 932.644 146.042 Q934.612 146.042 936.487 146.459 Q938.362 146.853 940.121 147.663 Z" fill="#000000" fill-rule="nonzero" fill-opacity="1" /><path clip-path="url(#clip340)" d="M969.704 158.565 L969.704 160.649 L950.121 160.649 Q950.399 165.047 952.76 167.362 Q955.144 169.653 959.38 169.653 Q961.834 169.653 964.126 169.052 Q966.44 168.45 968.709 167.246 L968.709 171.274 Q966.417 172.246 964.01 172.755 Q961.602 173.264 959.126 173.264 Q952.922 173.264 949.288 169.653 Q945.677 166.042 945.677 159.885 Q945.677 153.519 949.102 149.792 Q952.551 146.042 958.385 146.042 Q963.616 146.042 966.649 149.422 Q969.704 152.778 969.704 158.565 M965.445 157.315 Q965.399 153.82 963.477 151.737 Q961.579 149.653 958.431 149.653 Q954.866 149.653 952.714 151.667 Q950.584 153.681 950.26 157.339 L965.445 157.315 Z" fill="#000000" fill-rule="nonzero" fill-opacity="1" /><path clip-path="url(#clip340)" d="M1008.82 150.603 L1008.82 136.575 L1013.08 136.575 L1013.08 172.593 L1008.82 172.593 L1008.82 168.704 Q1007.48 171.019 1005.42 172.153 Q1003.38 173.264 1000.51 173.264 Q995.815 173.264 992.852 169.515 Q989.912 165.765 989.912 159.653 Q989.912 153.542 992.852 149.792 Q995.815 146.042 1000.51 146.042 Q1003.38 146.042 1005.42 147.177 Q1007.48 148.288 1008.82 150.603 M994.311 159.653 Q994.311 164.352 996.232 167.038 Q998.176 169.7 1001.56 169.7 Q1004.94 169.7 1006.88 167.038 Q1008.82 164.352 1008.82 159.653 Q1008.82 154.954 1006.88 152.292 Q1004.94 149.607 1001.56 149.607 Q998.176 149.607 996.232 152.292 Q994.311 154.954 994.311 159.653 Z" fill="#000000" fill-rule="nonzero" fill-opacity="1" /><path clip-path="url(#clip340)" d="M1033.64 159.561 Q1028.48 159.561 1026.49 160.741 Q1024.5 161.922 1024.5 164.769 Q1024.5 167.038 1025.98 168.38 Q1027.48 169.7 1030.05 169.7 Q1033.59 169.7 1035.72 167.2 Q1037.88 164.677 1037.88 160.51 L1037.88 159.561 L1033.64 159.561 M1042.13 157.802 L1042.13 172.593 L1037.88 172.593 L1037.88 168.658 Q1036.42 171.019 1034.24 172.153 Q1032.06 173.264 1028.92 173.264 Q1024.94 173.264 1022.57 171.042 Q1020.24 168.797 1020.24 165.047 Q1020.24 160.672 1023.15 158.45 Q1026.09 156.228 1031.9 156.228 L1037.88 156.228 L1037.88 155.811 Q1037.88 152.871 1035.93 151.274 Q1034.01 149.653 1030.51 149.653 Q1028.29 149.653 1026.19 150.186 Q1024.08 150.718 1022.13 151.783 L1022.13 147.848 Q1024.47 146.945 1026.67 146.505 Q1028.87 146.042 1030.95 146.042 Q1036.58 146.042 1039.36 148.959 Q1042.13 151.876 1042.13 157.802 Z" fill="#000000" fill-rule="nonzero" fill-opacity="1" /><path clip-path="url(#clip340)" d="M1055.12 139.306 L1055.12 146.667 L1063.89 146.667 L1063.89 149.978 L1055.12 149.978 L1055.12 164.052 Q1055.12 167.223 1055.98 168.126 Q1056.86 169.028 1059.52 169.028 L1063.89 169.028 L1063.89 172.593 L1059.52 172.593 Q1054.59 172.593 1052.71 170.764 Q1050.84 168.913 1050.84 164.052 L1050.84 149.978 L1047.71 149.978 L1047.71 146.667 L1050.84 146.667 L1050.84 139.306 L1055.12 139.306 Z" fill="#000000" fill-rule="nonzero" fill-opacity="1" /><path clip-path="url(#clip340)" d="M1081.28 159.561 Q1076.12 159.561 1074.12 160.741 Q1072.13 161.922 1072.13 164.769 Q1072.13 167.038 1073.62 168.38 Q1075.12 169.7 1077.69 169.7 Q1081.23 169.7 1083.36 167.2 Q1085.51 164.677 1085.51 160.51 L1085.51 159.561 L1081.28 159.561 M1089.77 157.802 L1089.77 172.593 L1085.51 172.593 L1085.51 168.658 Q1084.06 171.019 1081.88 172.153 Q1079.7 173.264 1076.56 173.264 Q1072.57 173.264 1070.21 171.042 Q1067.87 168.797 1067.87 165.047 Q1067.87 160.672 1070.79 158.45 Q1073.73 156.228 1079.54 156.228 L1085.51 156.228 L1085.51 155.811 Q1085.51 152.871 1083.57 151.274 Q1081.65 149.653 1078.15 149.653 Q1075.93 149.653 1073.82 150.186 Q1071.72 150.718 1069.77 151.783 L1069.77 147.848 Q1072.11 146.945 1074.31 146.505 Q1076.51 146.042 1078.59 146.042 Q1084.22 146.042 1087 148.959 Q1089.77 151.876 1089.77 157.802 Z" fill="#000000" fill-rule="nonzero" fill-opacity="1" /><circle clip-path="url(#clip340)" cx="387.992" cy="207.153" r="20.48" fill="#e26f46" fill-rule="evenodd" fill-opacity="1" stroke="#000000" stroke-opacity="1" stroke-width="5.46133"/>
<path clip-path="url(#clip340)" d="M501.234 193.716 L501.234 206.702 L507.114 206.702 Q510.378 206.702 512.16 205.012 Q513.943 203.322 513.943 200.197 Q513.943 197.095 512.16 195.406 Q510.378 193.716 507.114 193.716 L501.234 193.716 M496.559 189.873 L507.114 189.873 Q512.924 189.873 515.887 192.512 Q518.873 195.128 518.873 200.197 Q518.873 205.313 515.887 207.929 Q512.924 210.544 507.114 210.544 L501.234 210.544 L501.234 224.433 L496.559 224.433 L496.559 189.873 Z" fill="#000000" fill-rule="nonzero" fill-opacity="1" /><path clip-path="url(#clip340)" d="M539.151 202.489 Q538.433 202.072 537.577 201.887 Q536.744 201.679 535.725 201.679 Q532.114 201.679 530.169 204.04 Q528.248 206.378 528.248 210.776 L528.248 224.433 L523.966 224.433 L523.966 198.507 L528.248 198.507 L528.248 202.535 Q529.591 200.174 531.744 199.04 Q533.896 197.882 536.975 197.882 Q537.415 197.882 537.947 197.952 Q538.48 197.998 539.128 198.114 L539.151 202.489 Z" fill="#000000" fill-rule="nonzero" fill-opacity="1" /><path clip-path="url(#clip340)" d="M564.753 210.405 L564.753 212.489 L545.169 212.489 Q545.447 216.887 547.808 219.202 Q550.193 221.493 554.429 221.493 Q556.882 221.493 559.174 220.892 Q561.489 220.29 563.757 219.086 L563.757 223.114 Q561.466 224.086 559.058 224.595 Q556.651 225.104 554.174 225.104 Q547.97 225.104 544.336 221.493 Q540.725 217.882 540.725 211.725 Q540.725 205.359 544.151 201.632 Q547.6 197.882 553.433 197.882 Q558.665 197.882 561.697 201.262 Q564.753 204.618 564.753 210.405 M560.493 209.155 Q560.447 205.66 558.526 203.577 Q556.628 201.493 553.48 201.493 Q549.915 201.493 547.762 203.507 Q545.632 205.521 545.308 209.179 L560.493 209.155 Z" fill="#000000" fill-rule="nonzero" fill-opacity="1" /><path clip-path="url(#clip340)" d="M582.53 226.841 Q580.725 231.47 579.012 232.882 Q577.299 234.294 574.429 234.294 L571.026 234.294 L571.026 230.729 L573.526 230.729 Q575.285 230.729 576.257 229.896 Q577.229 229.063 578.41 225.961 L579.174 224.017 L568.688 198.507 L573.202 198.507 L581.303 218.785 L589.405 198.507 L593.919 198.507 L582.53 226.841 Z" fill="#000000" fill-rule="nonzero" fill-opacity="1" /><path clip-path="url(#clip340)" d="M626.65 211.401 Q621.488 211.401 619.498 212.581 Q617.507 213.762 617.507 216.609 Q617.507 218.878 618.988 220.22 Q620.493 221.54 623.063 221.54 Q626.604 221.54 628.734 219.04 Q630.887 216.517 630.887 212.35 L630.887 211.401 L626.65 211.401 M635.146 209.642 L635.146 224.433 L630.887 224.433 L630.887 220.498 Q629.428 222.859 627.252 223.993 Q625.076 225.104 621.928 225.104 Q617.947 225.104 615.586 222.882 Q613.248 220.637 613.248 216.887 Q613.248 212.512 616.164 210.29 Q619.104 208.068 624.914 208.068 L630.887 208.068 L630.887 207.651 Q630.887 204.711 628.942 203.114 Q627.021 201.493 623.525 201.493 Q621.303 201.493 619.197 202.026 Q617.09 202.558 615.146 203.623 L615.146 199.688 Q617.484 198.785 619.683 198.345 Q621.882 197.882 623.965 197.882 Q629.59 197.882 632.368 200.799 Q635.146 203.716 635.146 209.642 Z" fill="#000000" fill-rule="nonzero" fill-opacity="1" /><path clip-path="url(#clip340)" d="M662.53 211.493 Q662.53 206.794 660.585 204.132 Q658.664 201.447 655.285 201.447 Q651.905 201.447 649.961 204.132 Q648.039 206.794 648.039 211.493 Q648.039 216.192 649.961 218.878 Q651.905 221.54 655.285 221.54 Q658.664 221.54 660.585 218.878 Q662.53 216.192 662.53 211.493 M648.039 202.443 Q649.382 200.128 651.419 199.017 Q653.479 197.882 656.326 197.882 Q661.048 197.882 663.988 201.632 Q666.951 205.382 666.951 211.493 Q666.951 217.605 663.988 221.355 Q661.048 225.104 656.326 225.104 Q653.479 225.104 651.419 223.993 Q649.382 222.859 648.039 220.544 L648.039 224.433 L643.757 224.433 L643.757 188.415 L648.039 188.415 L648.039 202.443 Z" fill="#000000" fill-rule="nonzero" fill-opacity="1" /><path clip-path="url(#clip340)" d="M673.572 214.202 L673.572 198.507 L677.831 198.507 L677.831 214.04 Q677.831 217.72 679.266 219.572 Q680.701 221.401 683.571 221.401 Q687.021 221.401 689.011 219.202 Q691.025 217.003 691.025 213.206 L691.025 198.507 L695.284 198.507 L695.284 224.433 L691.025 224.433 L691.025 220.452 Q689.474 222.813 687.414 223.97 Q685.377 225.104 682.669 225.104 Q678.201 225.104 675.886 222.327 Q673.572 219.549 673.572 214.202 M684.289 197.882 L684.289 197.882 Z" fill="#000000" fill-rule="nonzero" fill-opacity="1" /><path clip-path="url(#clip340)" d="M725.608 208.785 L725.608 224.433 L721.349 224.433 L721.349 208.924 Q721.349 205.243 719.914 203.415 Q718.479 201.586 715.608 201.586 Q712.159 201.586 710.169 203.785 Q708.178 205.984 708.178 209.78 L708.178 224.433 L703.895 224.433 L703.895 198.507 L708.178 198.507 L708.178 202.535 Q709.706 200.197 711.766 199.04 Q713.849 197.882 716.557 197.882 Q721.025 197.882 723.317 200.66 Q725.608 203.415 725.608 208.785 Z" fill="#000000" fill-rule="nonzero" fill-opacity="1" /><path clip-path="url(#clip340)" d="M751.164 202.443 L751.164 188.415 L755.423 188.415 L755.423 224.433 L751.164 224.433 L751.164 220.544 Q749.821 222.859 747.761 223.993 Q745.724 225.104 742.854 225.104 Q738.154 225.104 735.192 221.355 Q732.252 217.605 732.252 211.493 Q732.252 205.382 735.192 201.632 Q738.154 197.882 742.854 197.882 Q745.724 197.882 747.761 199.017 Q749.821 200.128 751.164 202.443 M736.65 211.493 Q736.65 216.192 738.571 218.878 Q740.516 221.54 743.895 221.54 Q747.275 221.54 749.219 218.878 Q751.164 216.192 751.164 211.493 Q751.164 206.794 749.219 204.132 Q747.275 201.447 743.895 201.447 Q740.516 201.447 738.571 204.132 Q736.65 206.794 736.65 211.493 Z" fill="#000000" fill-rule="nonzero" fill-opacity="1" /><path clip-path="url(#clip340)" d="M775.978 211.401 Q770.816 211.401 768.826 212.581 Q766.835 213.762 766.835 216.609 Q766.835 218.878 768.316 220.22 Q769.821 221.54 772.39 221.54 Q775.932 221.54 778.062 219.04 Q780.214 216.517 780.214 212.35 L780.214 211.401 L775.978 211.401 M784.474 209.642 L784.474 224.433 L780.214 224.433 L780.214 220.498 Q778.756 222.859 776.58 223.993 Q774.404 225.104 771.256 225.104 Q767.275 225.104 764.914 222.882 Q762.576 220.637 762.576 216.887 Q762.576 212.512 765.492 210.29 Q768.432 208.068 774.242 208.068 L780.214 208.068 L780.214 207.651 Q780.214 204.711 778.27 203.114 Q776.349 201.493 772.853 201.493 Q770.631 201.493 768.525 202.026 Q766.418 202.558 764.474 203.623 L764.474 199.688 Q766.812 198.785 769.011 198.345 Q771.21 197.882 773.293 197.882 Q778.918 197.882 781.696 200.799 Q784.474 203.716 784.474 209.642 Z" fill="#000000" fill-rule="nonzero" fill-opacity="1" /><path clip-path="url(#clip340)" d="M814.798 208.785 L814.798 224.433 L810.538 224.433 L810.538 208.924 Q810.538 205.243 809.103 203.415 Q807.668 201.586 804.798 201.586 Q801.349 201.586 799.358 203.785 Q797.367 205.984 797.367 209.78 L797.367 224.433 L793.085 224.433 L793.085 198.507 L797.367 198.507 L797.367 202.535 Q798.895 200.197 800.955 199.04 Q803.038 197.882 805.747 197.882 Q810.214 197.882 812.506 200.66 Q814.798 203.415 814.798 208.785 Z" fill="#000000" fill-rule="nonzero" fill-opacity="1" /><path clip-path="url(#clip340)" d="M841.95 199.503 L841.95 203.484 Q840.145 202.489 838.316 202.003 Q836.51 201.493 834.659 201.493 Q830.515 201.493 828.223 204.132 Q825.932 206.748 825.932 211.493 Q825.932 216.239 828.223 218.878 Q830.515 221.493 834.659 221.493 Q836.51 221.493 838.316 221.007 Q840.145 220.498 841.95 219.503 L841.95 223.438 Q840.168 224.271 838.247 224.688 Q836.348 225.104 834.196 225.104 Q828.339 225.104 824.89 221.424 Q821.441 217.743 821.441 211.493 Q821.441 205.151 824.913 201.517 Q828.409 197.882 834.473 197.882 Q836.441 197.882 838.316 198.299 Q840.191 198.693 841.95 199.503 Z" fill="#000000" fill-rule="nonzero" fill-opacity="1" /><path clip-path="url(#clip340)" d="M871.533 210.405 L871.533 212.489 L851.95 212.489 Q852.228 216.887 854.589 219.202 Q856.973 221.493 861.209 221.493 Q863.663 221.493 865.955 220.892 Q868.27 220.29 870.538 219.086 L870.538 223.114 Q868.246 224.086 865.839 224.595 Q863.432 225.104 860.955 225.104 Q854.751 225.104 851.117 221.493 Q847.506 217.882 847.506 211.725 Q847.506 205.359 850.932 201.632 Q854.381 197.882 860.214 197.882 Q865.445 197.882 868.478 201.262 Q871.533 204.618 871.533 210.405 M867.274 209.155 Q867.228 205.66 865.307 203.577 Q863.408 201.493 860.26 201.493 Q856.696 201.493 854.543 203.507 Q852.413 205.521 852.089 209.179 L867.274 209.155 Z" fill="#000000" fill-rule="nonzero" fill-opacity="1" /><path clip-path="url(#clip340)" d="M910.654 202.443 L910.654 188.415 L914.913 188.415 L914.913 224.433 L910.654 224.433 L910.654 220.544 Q909.311 222.859 907.251 223.993 Q905.214 225.104 902.343 225.104 Q897.644 225.104 894.681 221.355 Q891.742 217.605 891.742 211.493 Q891.742 205.382 894.681 201.632 Q897.644 197.882 902.343 197.882 Q905.214 197.882 907.251 199.017 Q909.311 200.128 910.654 202.443 M896.14 211.493 Q896.14 216.192 898.061 218.878 Q900.005 221.54 903.385 221.54 Q906.765 221.54 908.709 218.878 Q910.654 216.192 910.654 211.493 Q910.654 206.794 908.709 204.132 Q906.765 201.447 903.385 201.447 Q900.005 201.447 898.061 204.132 Q896.14 206.794 896.14 211.493 Z" fill="#000000" fill-rule="nonzero" fill-opacity="1" /><path clip-path="url(#clip340)" d="M935.468 211.401 Q930.306 211.401 928.316 212.581 Q926.325 213.762 926.325 216.609 Q926.325 218.878 927.806 220.22 Q929.311 221.54 931.88 221.54 Q935.422 221.54 937.552 219.04 Q939.704 216.517 939.704 212.35 L939.704 211.401 L935.468 211.401 M943.964 209.642 L943.964 224.433 L939.704 224.433 L939.704 220.498 Q938.246 222.859 936.07 223.993 Q933.894 225.104 930.746 225.104 Q926.765 225.104 924.403 222.882 Q922.066 220.637 922.066 216.887 Q922.066 212.512 924.982 210.29 Q927.922 208.068 933.732 208.068 L939.704 208.068 L939.704 207.651 Q939.704 204.711 937.76 203.114 Q935.839 201.493 932.343 201.493 Q930.121 201.493 928.015 202.026 Q925.908 202.558 923.964 203.623 L923.964 199.688 Q926.302 198.785 928.501 198.345 Q930.7 197.882 932.783 197.882 Q938.408 197.882 941.186 200.799 Q943.964 203.716 943.964 209.642 Z" fill="#000000" fill-rule="nonzero" fill-opacity="1" /><path clip-path="url(#clip340)" d="M956.95 191.146 L956.95 198.507 L965.723 198.507 L965.723 201.818 L956.95 201.818 L956.95 215.892 Q956.95 219.063 957.806 219.966 Q958.686 220.868 961.348 220.868 L965.723 220.868 L965.723 224.433 L961.348 224.433 Q956.417 224.433 954.542 222.604 Q952.667 220.753 952.667 215.892 L952.667 201.818 L949.542 201.818 L949.542 198.507 L952.667 198.507 L952.667 191.146 L956.95 191.146 Z" fill="#000000" fill-rule="nonzero" fill-opacity="1" /><path clip-path="url(#clip340)" d="M983.107 211.401 Q977.945 211.401 975.954 212.581 Q973.963 213.762 973.963 216.609 Q973.963 218.878 975.445 220.22 Q976.95 221.54 979.519 221.54 Q983.061 221.54 985.19 219.04 Q987.343 216.517 987.343 212.35 L987.343 211.401 L983.107 211.401 M991.602 209.642 L991.602 224.433 L987.343 224.433 L987.343 220.498 Q985.885 222.859 983.709 223.993 Q981.533 225.104 978.385 225.104 Q974.403 225.104 972.042 222.882 Q969.704 220.637 969.704 216.887 Q969.704 212.512 972.621 210.29 Q975.561 208.068 981.371 208.068 L987.343 208.068 L987.343 207.651 Q987.343 204.711 985.399 203.114 Q983.477 201.493 979.982 201.493 Q977.76 201.493 975.653 202.026 Q973.547 202.558 971.602 203.623 L971.602 199.688 Q973.94 198.785 976.139 198.345 Q978.338 197.882 980.422 197.882 Q986.047 197.882 988.824 200.799 Q991.602 203.716 991.602 209.642 Z" fill="#000000" fill-rule="nonzero" fill-opacity="1" /><polyline clip-path="url(#clip340)" style="stroke:#009af9; stroke-linecap:round; stroke-linejoin:round; stroke-width:4; stroke-opacity:1; fill:none" points="306.566,258.993 469.417,258.993 "/>
<path clip-path="url(#clip340)" d="M496.559 241.713 L501.234 241.713 L501.234 276.273 L496.559 276.273 L496.559 241.713 Z" fill="#000000" fill-rule="nonzero" fill-opacity="1" /><path clip-path="url(#clip340)" d="M531.906 260.625 L531.906 276.273 L527.646 276.273 L527.646 260.764 Q527.646 257.083 526.211 255.255 Q524.776 253.426 521.906 253.426 Q518.457 253.426 516.466 255.625 Q514.475 257.824 514.475 261.62 L514.475 276.273 L510.193 276.273 L510.193 250.347 L514.475 250.347 L514.475 254.375 Q516.003 252.037 518.063 250.88 Q520.146 249.722 522.855 249.722 Q527.322 249.722 529.614 252.5 Q531.906 255.255 531.906 260.625 Z" fill="#000000" fill-rule="nonzero" fill-opacity="1" /><path clip-path="url(#clip340)" d="M553.526 240.255 L553.526 243.797 L549.452 243.797 Q547.16 243.797 546.257 244.722 Q545.378 245.648 545.378 248.056 L545.378 250.347 L552.392 250.347 L552.392 253.658 L545.378 253.658 L545.378 276.273 L541.095 276.273 L541.095 253.658 L537.021 253.658 L537.021 250.347 L541.095 250.347 L541.095 248.542 Q541.095 244.213 543.109 242.246 Q545.123 240.255 549.498 240.255 L553.526 240.255 Z" fill="#000000" fill-rule="nonzero" fill-opacity="1" /><path clip-path="url(#clip340)" d="M579.266 262.245 L579.266 264.329 L559.683 264.329 Q559.961 268.727 562.322 271.042 Q564.706 273.333 568.942 273.333 Q571.396 273.333 573.688 272.732 Q576.003 272.13 578.271 270.926 L578.271 274.954 Q575.979 275.926 573.572 276.435 Q571.165 276.944 568.688 276.944 Q562.484 276.944 558.85 273.333 Q555.239 269.722 555.239 263.565 Q555.239 257.199 558.665 253.472 Q562.114 249.722 567.947 249.722 Q573.179 249.722 576.211 253.102 Q579.266 256.458 579.266 262.245 M575.007 260.995 Q574.961 257.5 573.04 255.417 Q571.141 253.333 567.993 253.333 Q564.429 253.333 562.276 255.347 Q560.146 257.361 559.822 261.019 L575.007 260.995 Z" fill="#000000" fill-rule="nonzero" fill-opacity="1" /><path clip-path="url(#clip340)" d="M601.28 254.329 Q600.563 253.912 599.706 253.727 Q598.873 253.519 597.854 253.519 Q594.243 253.519 592.299 255.88 Q590.378 258.218 590.378 262.616 L590.378 276.273 L586.095 276.273 L586.095 250.347 L590.378 250.347 L590.378 254.375 Q591.72 252.014 593.873 250.88 Q596.026 249.722 599.104 249.722 Q599.544 249.722 600.077 249.792 Q600.609 249.838 601.257 249.954 L601.28 254.329 Z" fill="#000000" fill-rule="nonzero" fill-opacity="1" /><path clip-path="url(#clip340)" d="M619.938 254.329 Q619.22 253.912 618.363 253.727 Q617.53 253.519 616.512 253.519 Q612.901 253.519 610.956 255.88 Q609.035 258.218 609.035 262.616 L609.035 276.273 L604.752 276.273 L604.752 250.347 L609.035 250.347 L609.035 254.375 Q610.377 252.014 612.53 250.88 Q614.683 249.722 617.762 249.722 Q618.201 249.722 618.734 249.792 Q619.266 249.838 619.914 249.954 L619.938 254.329 Z" fill="#000000" fill-rule="nonzero" fill-opacity="1" /><path clip-path="url(#clip340)" d="M645.539 262.245 L645.539 264.329 L625.956 264.329 Q626.234 268.727 628.595 271.042 Q630.979 273.333 635.215 273.333 Q637.669 273.333 639.961 272.732 Q642.275 272.13 644.544 270.926 L644.544 274.954 Q642.252 275.926 639.845 276.435 Q637.437 276.944 634.961 276.944 Q628.757 276.944 625.123 273.333 Q621.512 269.722 621.512 263.565 Q621.512 257.199 624.938 253.472 Q628.387 249.722 634.22 249.722 Q639.451 249.722 642.484 253.102 Q645.539 256.458 645.539 262.245 M641.28 260.995 Q641.234 257.5 639.312 255.417 Q637.414 253.333 634.266 253.333 Q630.701 253.333 628.549 255.347 Q626.419 257.361 626.095 261.019 L641.28 260.995 Z" fill="#000000" fill-rule="nonzero" fill-opacity="1" /><path clip-path="url(#clip340)" d="M669.59 254.283 L669.59 240.255 L673.849 240.255 L673.849 276.273 L669.59 276.273 L669.59 272.384 Q668.247 274.699 666.187 275.833 Q664.15 276.944 661.28 276.944 Q656.581 276.944 653.618 273.195 Q650.678 269.445 650.678 263.333 Q650.678 257.222 653.618 253.472 Q656.581 249.722 661.28 249.722 Q664.15 249.722 666.187 250.857 Q668.247 251.968 669.59 254.283 M655.076 263.333 Q655.076 268.032 656.998 270.718 Q658.942 273.38 662.322 273.38 Q665.701 273.38 667.646 270.718 Q669.59 268.032 669.59 263.333 Q669.59 258.634 667.646 255.972 Q665.701 253.287 662.322 253.287 Q658.942 253.287 656.998 255.972 Q655.076 258.634 655.076 263.333 Z" fill="#000000" fill-rule="nonzero" fill-opacity="1" /><path clip-path="url(#clip340)" d="M701.812 272.384 L701.812 286.134 L697.53 286.134 L697.53 250.347 L701.812 250.347 L701.812 254.283 Q703.155 251.968 705.192 250.857 Q707.252 249.722 710.099 249.722 Q714.821 249.722 717.761 253.472 Q720.724 257.222 720.724 263.333 Q720.724 269.445 717.761 273.195 Q714.821 276.944 710.099 276.944 Q707.252 276.944 705.192 275.833 Q703.155 274.699 701.812 272.384 M716.303 263.333 Q716.303 258.634 714.358 255.972 Q712.437 253.287 709.057 253.287 Q705.678 253.287 703.733 255.972 Q701.812 258.634 701.812 263.333 Q701.812 268.032 703.733 270.718 Q705.678 273.38 709.057 273.38 Q712.437 273.38 714.358 270.718 Q716.303 268.032 716.303 263.333 Z" fill="#000000" fill-rule="nonzero" fill-opacity="1" /><path clip-path="url(#clip340)" d="M742.807 254.329 Q742.09 253.912 741.233 253.727 Q740.4 253.519 739.381 253.519 Q735.77 253.519 733.826 255.88 Q731.905 258.218 731.905 262.616 L731.905 276.273 L727.622 276.273 L727.622 250.347 L731.905 250.347 L731.905 254.375 Q733.247 252.014 735.4 250.88 Q737.553 249.722 740.631 249.722 Q741.071 249.722 741.604 249.792 Q742.136 249.838 742.784 249.954 L742.807 254.329 Z" fill="#000000" fill-rule="nonzero" fill-opacity="1" /><path clip-path="url(#clip340)" d="M768.409 262.245 L768.409 264.329 L748.826 264.329 Q749.104 268.727 751.465 271.042 Q753.849 273.333 758.085 273.333 Q760.539 273.333 762.83 272.732 Q765.145 272.13 767.414 270.926 L767.414 274.954 Q765.122 275.926 762.715 276.435 Q760.307 276.944 757.83 276.944 Q751.627 276.944 747.992 273.333 Q744.381 269.722 744.381 263.565 Q744.381 257.199 747.807 253.472 Q751.256 249.722 757.09 249.722 Q762.321 249.722 765.353 253.102 Q768.409 256.458 768.409 262.245 M764.15 260.995 Q764.103 257.5 762.182 255.417 Q760.284 253.333 757.136 253.333 Q753.571 253.333 751.418 255.347 Q749.289 257.361 748.965 261.019 L764.15 260.995 Z" fill="#000000" fill-rule="nonzero" fill-opacity="1" /><path clip-path="url(#clip340)" d="M792.46 254.283 L792.46 240.255 L796.719 240.255 L796.719 276.273 L792.46 276.273 L792.46 272.384 Q791.117 274.699 789.057 275.833 Q787.02 276.944 784.15 276.944 Q779.451 276.944 776.488 273.195 Q773.548 269.445 773.548 263.333 Q773.548 257.222 776.488 253.472 Q779.451 249.722 784.15 249.722 Q787.02 249.722 789.057 250.857 Q791.117 251.968 792.46 254.283 M777.946 263.333 Q777.946 268.032 779.867 270.718 Q781.812 273.38 785.191 273.38 Q788.571 273.38 790.515 270.718 Q792.46 268.032 792.46 263.333 Q792.46 258.634 790.515 255.972 Q788.571 253.287 785.191 253.287 Q781.812 253.287 779.867 255.972 Q777.946 258.634 777.946 263.333 Z" fill="#000000" fill-rule="nonzero" fill-opacity="1" /><path clip-path="url(#clip340)" d="M817.274 263.241 Q812.112 263.241 810.122 264.421 Q808.131 265.602 808.131 268.449 Q808.131 270.718 809.612 272.06 Q811.117 273.38 813.686 273.38 Q817.228 273.38 819.358 270.88 Q821.511 268.357 821.511 264.19 L821.511 263.241 L817.274 263.241 M825.77 261.482 L825.77 276.273 L821.511 276.273 L821.511 272.338 Q820.052 274.699 817.876 275.833 Q815.7 276.944 812.552 276.944 Q808.571 276.944 806.21 274.722 Q803.872 272.477 803.872 268.727 Q803.872 264.352 806.788 262.13 Q809.728 259.908 815.538 259.908 L821.511 259.908 L821.511 259.491 Q821.511 256.551 819.566 254.954 Q817.645 253.333 814.149 253.333 Q811.927 253.333 809.821 253.866 Q807.714 254.398 805.77 255.463 L805.77 251.528 Q808.108 250.625 810.307 250.185 Q812.506 249.722 814.589 249.722 Q820.214 249.722 822.992 252.639 Q825.77 255.556 825.77 261.482 Z" fill="#000000" fill-rule="nonzero" fill-opacity="1" /><path clip-path="url(#clip340)" d="M838.756 242.986 L838.756 250.347 L847.529 250.347 L847.529 253.658 L838.756 253.658 L838.756 267.732 Q838.756 270.903 839.612 271.806 Q840.492 272.708 843.154 272.708 L847.529 272.708 L847.529 276.273 L843.154 276.273 Q838.223 276.273 836.348 274.444 Q834.473 272.593 834.473 267.732 L834.473 253.658 L831.348 253.658 L831.348 250.347 L834.473 250.347 L834.473 242.986 L838.756 242.986 Z" fill="#000000" fill-rule="nonzero" fill-opacity="1" /><path clip-path="url(#clip340)" d="M863.177 253.333 Q859.751 253.333 857.76 256.019 Q855.77 258.681 855.77 263.333 Q855.77 267.986 857.737 270.671 Q859.728 273.333 863.177 273.333 Q866.58 273.333 868.57 270.648 Q870.561 267.963 870.561 263.333 Q870.561 258.727 868.57 256.042 Q866.58 253.333 863.177 253.333 M863.177 249.722 Q868.732 249.722 871.904 253.333 Q875.075 256.945 875.075 263.333 Q875.075 269.699 871.904 273.333 Q868.732 276.944 863.177 276.944 Q857.598 276.944 854.427 273.333 Q851.279 269.699 851.279 263.333 Q851.279 256.945 854.427 253.333 Q857.598 249.722 863.177 249.722 Z" fill="#000000" fill-rule="nonzero" fill-opacity="1" /><path clip-path="url(#clip340)" d="M897.158 254.329 Q896.441 253.912 895.584 253.727 Q894.751 253.519 893.732 253.519 Q890.121 253.519 888.177 255.88 Q886.256 258.218 886.256 262.616 L886.256 276.273 L881.973 276.273 L881.973 250.347 L886.256 250.347 L886.256 254.375 Q887.598 252.014 889.751 250.88 Q891.904 249.722 894.982 249.722 Q895.422 249.722 895.955 249.792 Q896.487 249.838 897.135 249.954 L897.158 254.329 Z" fill="#000000" fill-rule="nonzero" fill-opacity="1" /><path clip-path="url(#clip340)" d="M928.478 263.241 Q923.316 263.241 921.325 264.421 Q919.334 265.602 919.334 268.449 Q919.334 270.718 920.816 272.06 Q922.32 273.38 924.89 273.38 Q928.431 273.38 930.561 270.88 Q932.714 268.357 932.714 264.19 L932.714 263.241 L928.478 263.241 M936.973 261.482 L936.973 276.273 L932.714 276.273 L932.714 272.338 Q931.255 274.699 929.079 275.833 Q926.903 276.944 923.755 276.944 Q919.774 276.944 917.413 274.722 Q915.075 272.477 915.075 268.727 Q915.075 264.352 917.991 262.13 Q920.931 259.908 926.741 259.908 L932.714 259.908 L932.714 259.491 Q932.714 256.551 930.769 254.954 Q928.848 253.333 925.353 253.333 Q923.13 253.333 921.024 253.866 Q918.917 254.398 916.973 255.463 L916.973 251.528 Q919.311 250.625 921.51 250.185 Q923.709 249.722 925.792 249.722 Q931.417 249.722 934.195 252.639 Q936.973 255.556 936.973 261.482 Z" fill="#000000" fill-rule="nonzero" fill-opacity="1" /><path clip-path="url(#clip340)" d="M964.357 263.333 Q964.357 258.634 962.413 255.972 Q960.491 253.287 957.112 253.287 Q953.732 253.287 951.788 255.972 Q949.866 258.634 949.866 263.333 Q949.866 268.032 951.788 270.718 Q953.732 273.38 957.112 273.38 Q960.491 273.38 962.413 270.718 Q964.357 268.032 964.357 263.333 M949.866 254.283 Q951.209 251.968 953.246 250.857 Q955.306 249.722 958.153 249.722 Q962.876 249.722 965.815 253.472 Q968.778 257.222 968.778 263.333 Q968.778 269.445 965.815 273.195 Q962.876 276.944 958.153 276.944 Q955.306 276.944 953.246 275.833 Q951.209 274.699 949.866 272.384 L949.866 276.273 L945.584 276.273 L945.584 240.255 L949.866 240.255 L949.866 254.283 Z" fill="#000000" fill-rule="nonzero" fill-opacity="1" /><path clip-path="url(#clip340)" d="M975.399 266.042 L975.399 250.347 L979.658 250.347 L979.658 265.88 Q979.658 269.56 981.093 271.412 Q982.528 273.241 985.399 273.241 Q988.848 273.241 990.838 271.042 Q992.852 268.843 992.852 265.046 L992.852 250.347 L997.111 250.347 L997.111 276.273 L992.852 276.273 L992.852 272.292 Q991.301 274.653 989.241 275.81 Q987.204 276.944 984.496 276.944 Q980.028 276.944 977.713 274.167 Q975.399 271.389 975.399 266.042 M986.116 249.722 L986.116 249.722 Z" fill="#000000" fill-rule="nonzero" fill-opacity="1" /><path clip-path="url(#clip340)" d="M1027.44 260.625 L1027.44 276.273 L1023.18 276.273 L1023.18 260.764 Q1023.18 257.083 1021.74 255.255 Q1020.31 253.426 1017.44 253.426 Q1013.99 253.426 1012 255.625 Q1010 257.824 1010 261.62 L1010 276.273 L1005.72 276.273 L1005.72 250.347 L1010 250.347 L1010 254.375 Q1011.53 252.037 1013.59 250.88 Q1015.68 249.722 1018.38 249.722 Q1022.85 249.722 1025.14 252.5 Q1027.44 255.255 1027.44 260.625 Z" fill="#000000" fill-rule="nonzero" fill-opacity="1" /><path clip-path="url(#clip340)" d="M1052.99 254.283 L1052.99 240.255 L1057.25 240.255 L1057.25 276.273 L1052.99 276.273 L1052.99 272.384 Q1051.65 274.699 1049.59 275.833 Q1047.55 276.944 1044.68 276.944 Q1039.98 276.944 1037.02 273.195 Q1034.08 269.445 1034.08 263.333 Q1034.08 257.222 1037.02 253.472 Q1039.98 249.722 1044.68 249.722 Q1047.55 249.722 1049.59 250.857 Q1051.65 251.968 1052.99 254.283 M1038.48 263.333 Q1038.48 268.032 1040.4 270.718 Q1042.34 273.38 1045.72 273.38 Q1049.1 273.38 1051.05 270.718 Q1052.99 268.032 1052.99 263.333 Q1052.99 258.634 1051.05 255.972 Q1049.1 253.287 1045.72 253.287 Q1042.34 253.287 1040.4 255.972 Q1038.48 258.634 1038.48 263.333 Z" fill="#000000" fill-rule="nonzero" fill-opacity="1" /><path clip-path="url(#clip340)" d="M1077.81 263.241 Q1072.64 263.241 1070.65 264.421 Q1068.66 265.602 1068.66 268.449 Q1068.66 270.718 1070.14 272.06 Q1071.65 273.38 1074.22 273.38 Q1077.76 273.38 1079.89 270.88 Q1082.04 268.357 1082.04 264.19 L1082.04 263.241 L1077.81 263.241 M1086.3 261.482 L1086.3 276.273 L1082.04 276.273 L1082.04 272.338 Q1080.58 274.699 1078.41 275.833 Q1076.23 276.944 1073.08 276.944 Q1069.1 276.944 1066.74 274.722 Q1064.4 272.477 1064.4 268.727 Q1064.4 264.352 1067.32 262.13 Q1070.26 259.908 1076.07 259.908 L1082.04 259.908 L1082.04 259.491 Q1082.04 256.551 1080.1 254.954 Q1078.18 253.333 1074.68 253.333 Q1072.46 253.333 1070.35 253.866 Q1068.25 254.398 1066.3 255.463 L1066.3 251.528 Q1068.64 250.625 1070.84 250.185 Q1073.04 249.722 1075.12 249.722 Q1080.75 249.722 1083.52 252.639 Q1086.3 255.556 1086.3 261.482 Z" fill="#000000" fill-rule="nonzero" fill-opacity="1" /><path clip-path="url(#clip340)" d="M1116.62 260.625 L1116.62 276.273 L1112.37 276.273 L1112.37 260.764 Q1112.37 257.083 1110.93 255.255 Q1109.5 253.426 1106.62 253.426 Q1103.18 253.426 1101.18 255.625 Q1099.19 257.824 1099.19 261.62 L1099.19 276.273 L1094.91 276.273 L1094.91 250.347 L1099.19 250.347 L1099.19 254.375 Q1100.72 252.037 1102.78 250.88 Q1104.87 249.722 1107.57 249.722 Q1112.04 249.722 1114.33 252.5 Q1116.62 255.255 1116.62 260.625 Z" fill="#000000" fill-rule="nonzero" fill-opacity="1" /><path clip-path="url(#clip340)" d="M1143.78 251.343 L1143.78 255.324 Q1141.97 254.329 1140.14 253.843 Q1138.34 253.333 1136.49 253.333 Q1132.34 253.333 1130.05 255.972 Q1127.76 258.588 1127.76 263.333 Q1127.76 268.079 1130.05 270.718 Q1132.34 273.333 1136.49 273.333 Q1138.34 273.333 1140.14 272.847 Q1141.97 272.338 1143.78 271.343 L1143.78 275.278 Q1141.99 276.111 1140.07 276.528 Q1138.18 276.944 1136.02 276.944 Q1130.17 276.944 1126.72 273.264 Q1123.27 269.583 1123.27 263.333 Q1123.27 256.991 1126.74 253.357 Q1130.24 249.722 1136.3 249.722 Q1138.27 249.722 1140.14 250.139 Q1142.02 250.533 1143.78 251.343 Z" fill="#000000" fill-rule="nonzero" fill-opacity="1" /><path clip-path="url(#clip340)" d="M1173.36 262.245 L1173.36 264.329 L1153.78 264.329 Q1154.06 268.727 1156.42 271.042 Q1158.8 273.333 1163.04 273.333 Q1165.49 273.333 1167.78 272.732 Q1170.1 272.13 1172.37 270.926 L1172.37 274.954 Q1170.07 275.926 1167.67 276.435 Q1165.26 276.944 1162.78 276.944 Q1156.58 276.944 1152.94 273.333 Q1149.33 269.722 1149.33 263.565 Q1149.33 257.199 1152.76 253.472 Q1156.21 249.722 1162.04 249.722 Q1167.27 249.722 1170.3 253.102 Q1173.36 256.458 1173.36 262.245 M1169.1 260.995 Q1169.05 257.5 1167.13 255.417 Q1165.24 253.333 1162.09 253.333 Q1158.52 253.333 1156.37 255.347 Q1154.24 257.361 1153.92 261.019 L1169.1 260.995 Z" fill="#000000" fill-rule="nonzero" fill-opacity="1" /><polyline clip-path="url(#clip340)" style="stroke:#e26f46; stroke-linecap:round; stroke-linejoin:round; stroke-width:4; stroke-opacity:1; fill:none" points="306.566,310.833 469.417,310.833 "/>
<path clip-path="url(#clip340)" d="M496.559 293.553 L501.234 293.553 L501.234 328.113 L496.559 328.113 L496.559 293.553 Z" fill="#000000" fill-rule="nonzero" fill-opacity="1" /><path clip-path="url(#clip340)" d="M531.906 312.465 L531.906 328.113 L527.646 328.113 L527.646 312.604 Q527.646 308.923 526.211 307.095 Q524.776 305.266 521.906 305.266 Q518.457 305.266 516.466 307.465 Q514.475 309.664 514.475 313.46 L514.475 328.113 L510.193 328.113 L510.193 302.187 L514.475 302.187 L514.475 306.215 Q516.003 303.877 518.063 302.72 Q520.146 301.562 522.855 301.562 Q527.322 301.562 529.614 304.34 Q531.906 307.095 531.906 312.465 Z" fill="#000000" fill-rule="nonzero" fill-opacity="1" /><path clip-path="url(#clip340)" d="M553.526 292.095 L553.526 295.637 L549.452 295.637 Q547.16 295.637 546.257 296.562 Q545.378 297.488 545.378 299.896 L545.378 302.187 L552.392 302.187 L552.392 305.498 L545.378 305.498 L545.378 328.113 L541.095 328.113 L541.095 305.498 L537.021 305.498 L537.021 302.187 L541.095 302.187 L541.095 300.382 Q541.095 296.053 543.109 294.086 Q545.123 292.095 549.498 292.095 L553.526 292.095 Z" fill="#000000" fill-rule="nonzero" fill-opacity="1" /><path clip-path="url(#clip340)" d="M579.266 314.085 L579.266 316.169 L559.683 316.169 Q559.961 320.567 562.322 322.882 Q564.706 325.173 568.942 325.173 Q571.396 325.173 573.688 324.572 Q576.003 323.97 578.271 322.766 L578.271 326.794 Q575.979 327.766 573.572 328.275 Q571.165 328.784 568.688 328.784 Q562.484 328.784 558.85 325.173 Q555.239 321.562 555.239 315.405 Q555.239 309.039 558.665 305.312 Q562.114 301.562 567.947 301.562 Q573.179 301.562 576.211 304.942 Q579.266 308.298 579.266 314.085 M575.007 312.835 Q574.961 309.34 573.04 307.257 Q571.141 305.173 567.993 305.173 Q564.429 305.173 562.276 307.187 Q560.146 309.201 559.822 312.859 L575.007 312.835 Z" fill="#000000" fill-rule="nonzero" fill-opacity="1" /><path clip-path="url(#clip340)" d="M601.28 306.169 Q600.563 305.752 599.706 305.567 Q598.873 305.359 597.854 305.359 Q594.243 305.359 592.299 307.72 Q590.378 310.058 590.378 314.456 L590.378 328.113 L586.095 328.113 L586.095 302.187 L590.378 302.187 L590.378 306.215 Q591.72 303.854 593.873 302.72 Q596.026 301.562 599.104 301.562 Q599.544 301.562 600.077 301.632 Q600.609 301.678 601.257 301.794 L601.28 306.169 Z" fill="#000000" fill-rule="nonzero" fill-opacity="1" /><path clip-path="url(#clip340)" d="M619.938 306.169 Q619.22 305.752 618.363 305.567 Q617.53 305.359 616.512 305.359 Q612.901 305.359 610.956 307.72 Q609.035 310.058 609.035 314.456 L609.035 328.113 L604.752 328.113 L604.752 302.187 L609.035 302.187 L609.035 306.215 Q610.377 303.854 612.53 302.72 Q614.683 301.562 617.762 301.562 Q618.201 301.562 618.734 301.632 Q619.266 301.678 619.914 301.794 L619.938 306.169 Z" fill="#000000" fill-rule="nonzero" fill-opacity="1" /><path clip-path="url(#clip340)" d="M645.539 314.085 L645.539 316.169 L625.956 316.169 Q626.234 320.567 628.595 322.882 Q630.979 325.173 635.215 325.173 Q637.669 325.173 639.961 324.572 Q642.275 323.97 644.544 322.766 L644.544 326.794 Q642.252 327.766 639.845 328.275 Q637.437 328.784 634.961 328.784 Q628.757 328.784 625.123 325.173 Q621.512 321.562 621.512 315.405 Q621.512 309.039 624.938 305.312 Q628.387 301.562 634.22 301.562 Q639.451 301.562 642.484 304.942 Q645.539 308.298 645.539 314.085 M641.28 312.835 Q641.234 309.34 639.312 307.257 Q637.414 305.173 634.266 305.173 Q630.701 305.173 628.549 307.187 Q626.419 309.201 626.095 312.859 L641.28 312.835 Z" fill="#000000" fill-rule="nonzero" fill-opacity="1" /><path clip-path="url(#clip340)" d="M669.59 306.123 L669.59 292.095 L673.849 292.095 L673.849 328.113 L669.59 328.113 L669.59 324.224 Q668.247 326.539 666.187 327.673 Q664.15 328.784 661.28 328.784 Q656.581 328.784 653.618 325.035 Q650.678 321.285 650.678 315.173 Q650.678 309.062 653.618 305.312 Q656.581 301.562 661.28 301.562 Q664.15 301.562 666.187 302.697 Q668.247 303.808 669.59 306.123 M655.076 315.173 Q655.076 319.872 656.998 322.558 Q658.942 325.22 662.322 325.22 Q665.701 325.22 667.646 322.558 Q669.59 319.872 669.59 315.173 Q669.59 310.474 667.646 307.812 Q665.701 305.127 662.322 305.127 Q658.942 305.127 656.998 307.812 Q655.076 310.474 655.076 315.173 Z" fill="#000000" fill-rule="nonzero" fill-opacity="1" /><path clip-path="url(#clip340)" d="M701.812 324.224 L701.812 337.974 L697.53 337.974 L697.53 302.187 L701.812 302.187 L701.812 306.123 Q703.155 303.808 705.192 302.697 Q707.252 301.562 710.099 301.562 Q714.821 301.562 717.761 305.312 Q720.724 309.062 720.724 315.173 Q720.724 321.285 717.761 325.035 Q714.821 328.784 710.099 328.784 Q707.252 328.784 705.192 327.673 Q703.155 326.539 701.812 324.224 M716.303 315.173 Q716.303 310.474 714.358 307.812 Q712.437 305.127 709.057 305.127 Q705.678 305.127 703.733 307.812 Q701.812 310.474 701.812 315.173 Q701.812 319.872 703.733 322.558 Q705.678 325.22 709.057 325.22 Q712.437 325.22 714.358 322.558 Q716.303 319.872 716.303 315.173 Z" fill="#000000" fill-rule="nonzero" fill-opacity="1" /><path clip-path="url(#clip340)" d="M742.807 306.169 Q742.09 305.752 741.233 305.567 Q740.4 305.359 739.381 305.359 Q735.77 305.359 733.826 307.72 Q731.905 310.058 731.905 314.456 L731.905 328.113 L727.622 328.113 L727.622 302.187 L731.905 302.187 L731.905 306.215 Q733.247 303.854 735.4 302.72 Q737.553 301.562 740.631 301.562 Q741.071 301.562 741.604 301.632 Q742.136 301.678 742.784 301.794 L742.807 306.169 Z" fill="#000000" fill-rule="nonzero" fill-opacity="1" /><path clip-path="url(#clip340)" d="M768.409 314.085 L768.409 316.169 L748.826 316.169 Q749.104 320.567 751.465 322.882 Q753.849 325.173 758.085 325.173 Q760.539 325.173 762.83 324.572 Q765.145 323.97 767.414 322.766 L767.414 326.794 Q765.122 327.766 762.715 328.275 Q760.307 328.784 757.83 328.784 Q751.627 328.784 747.992 325.173 Q744.381 321.562 744.381 315.405 Q744.381 309.039 747.807 305.312 Q751.256 301.562 757.09 301.562 Q762.321 301.562 765.353 304.942 Q768.409 308.298 768.409 314.085 M764.15 312.835 Q764.103 309.34 762.182 307.257 Q760.284 305.173 757.136 305.173 Q753.571 305.173 751.418 307.187 Q749.289 309.201 748.965 312.859 L764.15 312.835 Z" fill="#000000" fill-rule="nonzero" fill-opacity="1" /><path clip-path="url(#clip340)" d="M786.187 330.521 Q784.381 335.15 782.668 336.562 Q780.955 337.974 778.085 337.974 L774.682 337.974 L774.682 334.409 L777.182 334.409 Q778.941 334.409 779.914 333.576 Q780.886 332.743 782.066 329.641 L782.83 327.697 L772.344 302.187 L776.858 302.187 L784.96 322.465 L793.062 302.187 L797.575 302.187 L786.187 330.521 Z" fill="#000000" fill-rule="nonzero" fill-opacity="1" /><path clip-path="url(#clip340)" d="M830.307 315.081 Q825.145 315.081 823.154 316.261 Q821.163 317.442 821.163 320.289 Q821.163 322.558 822.645 323.9 Q824.149 325.22 826.719 325.22 Q830.26 325.22 832.39 322.72 Q834.543 320.197 834.543 316.03 L834.543 315.081 L830.307 315.081 M838.802 313.322 L838.802 328.113 L834.543 328.113 L834.543 324.178 Q833.085 326.539 830.909 327.673 Q828.733 328.784 825.585 328.784 Q821.603 328.784 819.242 326.562 Q816.904 324.317 816.904 320.567 Q816.904 316.192 819.821 313.97 Q822.761 311.748 828.571 311.748 L834.543 311.748 L834.543 311.331 Q834.543 308.391 832.598 306.794 Q830.677 305.173 827.182 305.173 Q824.96 305.173 822.853 305.706 Q820.747 306.238 818.802 307.303 L818.802 303.368 Q821.14 302.465 823.339 302.025 Q825.538 301.562 827.622 301.562 Q833.247 301.562 836.024 304.479 Q838.802 307.396 838.802 313.322 Z" fill="#000000" fill-rule="nonzero" fill-opacity="1" /><path clip-path="url(#clip340)" d="M866.186 315.173 Q866.186 310.474 864.242 307.812 Q862.32 305.127 858.941 305.127 Q855.561 305.127 853.617 307.812 Q851.696 310.474 851.696 315.173 Q851.696 319.872 853.617 322.558 Q855.561 325.22 858.941 325.22 Q862.32 325.22 864.242 322.558 Q866.186 319.872 866.186 315.173 M851.696 306.123 Q853.038 303.808 855.075 302.697 Q857.135 301.562 859.983 301.562 Q864.705 301.562 867.645 305.312 Q870.607 309.062 870.607 315.173 Q870.607 321.285 867.645 325.035 Q864.705 328.784 859.983 328.784 Q857.135 328.784 855.075 327.673 Q853.038 326.539 851.696 324.224 L851.696 328.113 L847.413 328.113 L847.413 292.095 L851.696 292.095 L851.696 306.123 Z" fill="#000000" fill-rule="nonzero" fill-opacity="1" /><path clip-path="url(#clip340)" d="M877.228 317.882 L877.228 302.187 L881.487 302.187 L881.487 317.72 Q881.487 321.4 882.922 323.252 Q884.357 325.081 887.228 325.081 Q890.677 325.081 892.668 322.882 Q894.681 320.683 894.681 316.886 L894.681 302.187 L898.941 302.187 L898.941 328.113 L894.681 328.113 L894.681 324.132 Q893.131 326.493 891.07 327.65 Q889.033 328.784 886.325 328.784 Q881.857 328.784 879.543 326.007 Q877.228 323.229 877.228 317.882 M887.945 301.562 L887.945 301.562 Z" fill="#000000" fill-rule="nonzero" fill-opacity="1" /><path clip-path="url(#clip340)" d="M929.265 312.465 L929.265 328.113 L925.005 328.113 L925.005 312.604 Q925.005 308.923 923.57 307.095 Q922.135 305.266 919.265 305.266 Q915.816 305.266 913.825 307.465 Q911.834 309.664 911.834 313.46 L911.834 328.113 L907.552 328.113 L907.552 302.187 L911.834 302.187 L911.834 306.215 Q913.362 303.877 915.422 302.72 Q917.505 301.562 920.214 301.562 Q924.681 301.562 926.973 304.34 Q929.265 307.095 929.265 312.465 Z" fill="#000000" fill-rule="nonzero" fill-opacity="1" /><path clip-path="url(#clip340)" d="M954.82 306.123 L954.82 292.095 L959.079 292.095 L959.079 328.113 L954.82 328.113 L954.82 324.224 Q953.477 326.539 951.417 327.673 Q949.38 328.784 946.51 328.784 Q941.811 328.784 938.848 325.035 Q935.908 321.285 935.908 315.173 Q935.908 309.062 938.848 305.312 Q941.811 301.562 946.51 301.562 Q949.38 301.562 951.417 302.697 Q953.477 303.808 954.82 306.123 M940.306 315.173 Q940.306 319.872 942.227 322.558 Q944.172 325.22 947.552 325.22 Q950.931 325.22 952.876 322.558 Q954.82 319.872 954.82 315.173 Q954.82 310.474 952.876 307.812 Q950.931 305.127 947.552 305.127 Q944.172 305.127 942.227 307.812 Q940.306 310.474 940.306 315.173 Z" fill="#000000" fill-rule="nonzero" fill-opacity="1" /><path clip-path="url(#clip340)" d="M979.635 315.081 Q974.473 315.081 972.482 316.261 Q970.491 317.442 970.491 320.289 Q970.491 322.558 971.973 323.9 Q973.477 325.22 976.047 325.22 Q979.588 325.22 981.718 322.72 Q983.871 320.197 983.871 316.03 L983.871 315.081 L979.635 315.081 M988.13 313.322 L988.13 328.113 L983.871 328.113 L983.871 324.178 Q982.412 326.539 980.237 327.673 Q978.061 328.784 974.912 328.784 Q970.931 328.784 968.57 326.562 Q966.232 324.317 966.232 320.567 Q966.232 316.192 969.149 313.97 Q972.088 311.748 977.899 311.748 L983.871 311.748 L983.871 311.331 Q983.871 308.391 981.926 306.794 Q980.005 305.173 976.51 305.173 Q974.287 305.173 972.181 305.706 Q970.075 306.238 968.13 307.303 L968.13 303.368 Q970.468 302.465 972.667 302.025 Q974.866 301.562 976.95 301.562 Q982.574 301.562 985.352 304.479 Q988.13 307.396 988.13 313.322 Z" fill="#000000" fill-rule="nonzero" fill-opacity="1" /><path clip-path="url(#clip340)" d="M1018.45 312.465 L1018.45 328.113 L1014.19 328.113 L1014.19 312.604 Q1014.19 308.923 1012.76 307.095 Q1011.32 305.266 1008.45 305.266 Q1005 305.266 1003.01 307.465 Q1001.02 309.664 1001.02 313.46 L1001.02 328.113 L996.741 328.113 L996.741 302.187 L1001.02 302.187 L1001.02 306.215 Q1002.55 303.877 1004.61 302.72 Q1006.69 301.562 1009.4 301.562 Q1013.87 301.562 1016.16 304.34 Q1018.45 307.095 1018.45 312.465 Z" fill="#000000" fill-rule="nonzero" fill-opacity="1" /><path clip-path="url(#clip340)" d="M1045.61 303.183 L1045.61 307.164 Q1043.8 306.169 1041.97 305.683 Q1040.17 305.173 1038.31 305.173 Q1034.17 305.173 1031.88 307.812 Q1029.59 310.428 1029.59 315.173 Q1029.59 319.919 1031.88 322.558 Q1034.17 325.173 1038.31 325.173 Q1040.17 325.173 1041.97 324.687 Q1043.8 324.178 1045.61 323.183 L1045.61 327.118 Q1043.82 327.951 1041.9 328.368 Q1040 328.784 1037.85 328.784 Q1032 328.784 1028.55 325.104 Q1025.1 321.423 1025.1 315.173 Q1025.1 308.831 1028.57 305.197 Q1032.06 301.562 1038.13 301.562 Q1040.1 301.562 1041.97 301.979 Q1043.85 302.373 1045.61 303.183 Z" fill="#000000" fill-rule="nonzero" fill-opacity="1" /><path clip-path="url(#clip340)" d="M1075.19 314.085 L1075.19 316.169 L1055.61 316.169 Q1055.88 320.567 1058.25 322.882 Q1060.63 325.173 1064.87 325.173 Q1067.32 325.173 1069.61 324.572 Q1071.93 323.97 1074.19 322.766 L1074.19 326.794 Q1071.9 327.766 1069.5 328.275 Q1067.09 328.784 1064.61 328.784 Q1058.41 328.784 1054.77 325.173 Q1051.16 321.562 1051.16 315.405 Q1051.16 309.039 1054.59 305.312 Q1058.04 301.562 1063.87 301.562 Q1069.1 301.562 1072.13 304.942 Q1075.19 308.298 1075.19 314.085 M1070.93 312.835 Q1070.88 309.34 1068.96 307.257 Q1067.06 305.173 1063.92 305.173 Q1060.35 305.173 1058.2 307.187 Q1056.07 309.201 1055.75 312.859 L1070.93 312.835 Z" fill="#000000" fill-rule="nonzero" fill-opacity="1" /></svg>
