<?xml version="1.0" encoding="utf-8"?>
<svg xmlns="http://www.w3.org/2000/svg" xmlns:xlink="http://www.w3.org/1999/xlink" width="672" height="480" viewBox="0 0 2688 1920">
<defs>
  <clipPath id="clip460">
    <rect x="0" y="0" width="2688" height="1920"/>
  </clipPath>
</defs>
<path clip-path="url(#clip460)" d="M0 1920 L2688 1920 L2688 -4.26326e-14 L0 -4.26326e-14  Z" fill="#ffffff" fill-rule="evenodd" fill-opacity="1"/>
<defs>
  <clipPath id="clip461">
    <rect x="537" y="0" width="1883" height="1883"/>
  </clipPath>
</defs>
<path clip-path="url(#clip460)" d="M196.816 1734.12 L1315.84 1734.12 L1315.84 47.2441 L196.816 47.2441  Z" fill="#ffffff" fill-rule="evenodd" fill-opacity="1"/>
<defs>
  <clipPath id="clip462">
    <rect x="196" y="47" width="1120" height="1688"/>
  </clipPath>
</defs>
<polyline clip-path="url(#clip462)" style="stroke:#000000; stroke-linecap:round; stroke-linejoin:round; stroke-width:2; stroke-opacity:0.1; fill:none" points="241.653,1734.12 241.653,47.2441 "/>
<polyline clip-path="url(#clip462)" style="stroke:#000000; stroke-linecap:round; stroke-linejoin:round; stroke-width:2; stroke-opacity:0.1; fill:none" points="424.649,1734.12 424.649,47.2441 "/>
<polyline clip-path="url(#clip462)" style="stroke:#000000; stroke-linecap:round; stroke-linejoin:round; stroke-width:2; stroke-opacity:0.1; fill:none" points="607.645,1734.12 607.645,47.2441 "/>
<polyline clip-path="url(#clip462)" style="stroke:#000000; stroke-linecap:round; stroke-linejoin:round; stroke-width:2; stroke-opacity:0.1; fill:none" points="790.641,1734.12 790.641,47.2441 "/>
<polyline clip-path="url(#clip462)" style="stroke:#000000; stroke-linecap:round; stroke-linejoin:round; stroke-width:2; stroke-opacity:0.1; fill:none" points="973.637,1734.12 973.637,47.2441 "/>
<polyline clip-path="url(#clip462)" style="stroke:#000000; stroke-linecap:round; stroke-linejoin:round; stroke-width:2; stroke-opacity:0.1; fill:none" points="1156.63,1734.12 1156.63,47.2441 "/>
<polyline clip-path="url(#clip460)" style="stroke:#000000; stroke-linecap:round; stroke-linejoin:round; stroke-width:4; stroke-opacity:1; fill:none" points="196.816,1734.12 1315.84,1734.12 "/>
<polyline clip-path="url(#clip460)" style="stroke:#000000; stroke-linecap:round; stroke-linejoin:round; stroke-width:4; stroke-opacity:1; fill:none" points="241.653,1734.12 241.653,1715.22 "/>
<polyline clip-path="url(#clip460)" style="stroke:#000000; stroke-linecap:round; stroke-linejoin:round; stroke-width:4; stroke-opacity:1; fill:none" points="424.649,1734.12 424.649,1715.22 "/>
<polyline clip-path="url(#clip460)" style="stroke:#000000; stroke-linecap:round; stroke-linejoin:round; stroke-width:4; stroke-opacity:1; fill:none" points="607.645,1734.12 607.645,1715.22 "/>
<polyline clip-path="url(#clip460)" style="stroke:#000000; stroke-linecap:round; stroke-linejoin:round; stroke-width:4; stroke-opacity:1; fill:none" points="790.641,1734.12 790.641,1715.22 "/>
<polyline clip-path="url(#clip460)" style="stroke:#000000; stroke-linecap:round; stroke-linejoin:round; stroke-width:4; stroke-opacity:1; fill:none" points="973.637,1734.12 973.637,1715.22 "/>
<polyline clip-path="url(#clip460)" style="stroke:#000000; stroke-linecap:round; stroke-linejoin:round; stroke-width:4; stroke-opacity:1; fill:none" points="1156.63,1734.12 1156.63,1715.22 "/>
<path clip-path="url(#clip460)" d="M219.535 1767.34 Q215.924 1767.34 214.095 1770.9 Q212.289 1774.45 212.289 1781.58 Q212.289 1788.68 214.095 1792.25 Q215.924 1795.79 219.535 1795.79 Q223.169 1795.79 224.975 1792.25 Q226.803 1788.68 226.803 1781.58 Q226.803 1774.45 224.975 1770.9 Q223.169 1767.34 219.535 1767.34 M219.535 1763.64 Q225.345 1763.64 228.4 1768.24 Q231.479 1772.83 231.479 1781.58 Q231.479 1790.3 228.4 1794.91 Q225.345 1799.49 219.535 1799.49 Q213.725 1799.49 210.646 1794.91 Q207.59 1790.3 207.59 1781.58 Q207.59 1772.83 210.646 1768.24 Q213.725 1763.64 219.535 1763.64 Z" fill="#000000" fill-rule="nonzero" fill-opacity="1" /><path clip-path="url(#clip460)" d="M239.697 1792.94 L244.581 1792.94 L244.581 1798.82 L239.697 1798.82 L239.697 1792.94 Z" fill="#000000" fill-rule="nonzero" fill-opacity="1" /><path clip-path="url(#clip460)" d="M254.812 1764.26 L273.169 1764.26 L273.169 1768.2 L259.095 1768.2 L259.095 1776.67 Q260.113 1776.32 261.132 1776.16 Q262.15 1775.97 263.169 1775.97 Q268.956 1775.97 272.335 1779.15 Q275.715 1782.32 275.715 1787.73 Q275.715 1793.31 272.243 1796.41 Q268.771 1799.49 262.451 1799.49 Q260.275 1799.49 258.007 1799.12 Q255.761 1798.75 253.354 1798.01 L253.354 1793.31 Q255.437 1794.45 257.66 1795 Q259.882 1795.56 262.359 1795.56 Q266.363 1795.56 268.701 1793.45 Q271.039 1791.34 271.039 1787.73 Q271.039 1784.12 268.701 1782.02 Q266.363 1779.91 262.359 1779.91 Q260.484 1779.91 258.609 1780.33 Q256.757 1780.74 254.812 1781.62 L254.812 1764.26 Z" fill="#000000" fill-rule="nonzero" fill-opacity="1" /><path clip-path="url(#clip460)" d="M391.802 1794.89 L399.441 1794.89 L399.441 1768.52 L391.13 1770.19 L391.13 1765.93 L399.394 1764.26 L404.07 1764.26 L404.07 1794.89 L411.709 1794.89 L411.709 1798.82 L391.802 1798.82 L391.802 1794.89 Z" fill="#000000" fill-rule="nonzero" fill-opacity="1" /><path clip-path="url(#clip460)" d="M421.153 1792.94 L426.038 1792.94 L426.038 1798.82 L421.153 1798.82 L421.153 1792.94 Z" fill="#000000" fill-rule="nonzero" fill-opacity="1" /><path clip-path="url(#clip460)" d="M446.223 1767.34 Q442.612 1767.34 440.783 1770.9 Q438.977 1774.45 438.977 1781.58 Q438.977 1788.68 440.783 1792.25 Q442.612 1795.79 446.223 1795.79 Q449.857 1795.79 451.663 1792.25 Q453.491 1788.68 453.491 1781.58 Q453.491 1774.45 451.663 1770.9 Q449.857 1767.34 446.223 1767.34 M446.223 1763.64 Q452.033 1763.64 455.088 1768.24 Q458.167 1772.83 458.167 1781.58 Q458.167 1790.3 455.088 1794.91 Q452.033 1799.49 446.223 1799.49 Q440.413 1799.49 437.334 1794.91 Q434.278 1790.3 434.278 1781.58 Q434.278 1772.83 437.334 1768.24 Q440.413 1763.64 446.223 1763.64 Z" fill="#000000" fill-rule="nonzero" fill-opacity="1" /><path clip-path="url(#clip460)" d="M575.296 1794.89 L582.934 1794.89 L582.934 1768.52 L574.624 1770.19 L574.624 1765.93 L582.888 1764.26 L587.564 1764.26 L587.564 1794.89 L595.203 1794.89 L595.203 1798.82 L575.296 1798.82 L575.296 1794.89 Z" fill="#000000" fill-rule="nonzero" fill-opacity="1" /><path clip-path="url(#clip460)" d="M604.647 1792.94 L609.531 1792.94 L609.531 1798.82 L604.647 1798.82 L604.647 1792.94 Z" fill="#000000" fill-rule="nonzero" fill-opacity="1" /><path clip-path="url(#clip460)" d="M619.763 1764.26 L638.119 1764.26 L638.119 1768.2 L624.045 1768.2 L624.045 1776.67 Q625.064 1776.32 626.082 1776.16 Q627.101 1775.97 628.119 1775.97 Q633.906 1775.97 637.286 1779.15 Q640.666 1782.32 640.666 1787.73 Q640.666 1793.31 637.193 1796.41 Q633.721 1799.49 627.402 1799.49 Q625.226 1799.49 622.957 1799.12 Q620.712 1798.75 618.305 1798.01 L618.305 1793.31 Q620.388 1794.45 622.61 1795 Q624.832 1795.56 627.309 1795.56 Q631.314 1795.56 633.652 1793.45 Q635.99 1791.34 635.99 1787.73 Q635.99 1784.12 633.652 1782.02 Q631.314 1779.91 627.309 1779.91 Q625.434 1779.91 623.559 1780.33 Q621.707 1780.74 619.763 1781.62 L619.763 1764.26 Z" fill="#000000" fill-rule="nonzero" fill-opacity="1" /><path clip-path="url(#clip460)" d="M761.88 1794.89 L778.199 1794.89 L778.199 1798.82 L756.255 1798.82 L756.255 1794.89 Q758.917 1792.13 763.5 1787.5 Q768.106 1782.85 769.287 1781.51 Q771.532 1778.98 772.412 1777.25 Q773.315 1775.49 773.315 1773.8 Q773.315 1771.04 771.37 1769.31 Q769.449 1767.57 766.347 1767.57 Q764.148 1767.57 761.694 1768.34 Q759.264 1769.1 756.486 1770.65 L756.486 1765.93 Q759.31 1764.79 761.764 1764.21 Q764.218 1763.64 766.255 1763.64 Q771.625 1763.64 774.819 1766.32 Q778.014 1769.01 778.014 1773.5 Q778.014 1775.63 777.204 1777.55 Q776.417 1779.45 774.31 1782.04 Q773.731 1782.71 770.63 1785.93 Q767.528 1789.12 761.88 1794.89 Z" fill="#000000" fill-rule="nonzero" fill-opacity="1" /><path clip-path="url(#clip460)" d="M788.014 1792.94 L792.898 1792.94 L792.898 1798.82 L788.014 1798.82 L788.014 1792.94 Z" fill="#000000" fill-rule="nonzero" fill-opacity="1" /><path clip-path="url(#clip460)" d="M813.083 1767.34 Q809.472 1767.34 807.643 1770.9 Q805.838 1774.45 805.838 1781.58 Q805.838 1788.68 807.643 1792.25 Q809.472 1795.79 813.083 1795.79 Q816.717 1795.79 818.523 1792.25 Q820.352 1788.68 820.352 1781.58 Q820.352 1774.45 818.523 1770.9 Q816.717 1767.34 813.083 1767.34 M813.083 1763.64 Q818.893 1763.64 821.949 1768.24 Q825.027 1772.83 825.027 1781.58 Q825.027 1790.3 821.949 1794.91 Q818.893 1799.49 813.083 1799.49 Q807.273 1799.49 804.194 1794.91 Q801.139 1790.3 801.139 1781.58 Q801.139 1772.83 804.194 1768.24 Q807.273 1763.64 813.083 1763.64 Z" fill="#000000" fill-rule="nonzero" fill-opacity="1" /><path clip-path="url(#clip460)" d="M945.373 1794.89 L961.693 1794.89 L961.693 1798.82 L939.748 1798.82 L939.748 1794.89 Q942.41 1792.13 946.994 1787.5 Q951.6 1782.85 952.781 1781.51 Q955.026 1778.98 955.906 1777.25 Q956.809 1775.49 956.809 1773.8 Q956.809 1771.04 954.864 1769.31 Q952.943 1767.57 949.841 1767.57 Q947.642 1767.57 945.188 1768.34 Q942.758 1769.1 939.98 1770.65 L939.98 1765.93 Q942.804 1764.79 945.258 1764.21 Q947.711 1763.64 949.748 1763.64 Q955.119 1763.64 958.313 1766.32 Q961.508 1769.01 961.508 1773.5 Q961.508 1775.63 960.697 1777.55 Q959.91 1779.45 957.804 1782.04 Q957.225 1782.71 954.123 1785.93 Q951.022 1789.12 945.373 1794.89 Z" fill="#000000" fill-rule="nonzero" fill-opacity="1" /><path clip-path="url(#clip460)" d="M971.508 1792.94 L976.392 1792.94 L976.392 1798.82 L971.508 1798.82 L971.508 1792.94 Z" fill="#000000" fill-rule="nonzero" fill-opacity="1" /><path clip-path="url(#clip460)" d="M986.623 1764.26 L1004.98 1764.26 L1004.98 1768.2 L990.906 1768.2 L990.906 1776.67 Q991.924 1776.32 992.943 1776.16 Q993.961 1775.97 994.98 1775.97 Q1000.77 1775.97 1004.15 1779.15 Q1007.53 1782.32 1007.53 1787.73 Q1007.53 1793.31 1004.05 1796.41 Q1000.58 1799.49 994.262 1799.49 Q992.086 1799.49 989.818 1799.12 Q987.572 1798.75 985.165 1798.01 L985.165 1793.31 Q987.248 1794.45 989.47 1795 Q991.693 1795.56 994.169 1795.56 Q998.174 1795.56 1000.51 1793.45 Q1002.85 1791.34 1002.85 1787.73 Q1002.85 1784.12 1000.51 1782.02 Q998.174 1779.91 994.169 1779.91 Q992.294 1779.91 990.419 1780.33 Q988.568 1780.74 986.623 1781.62 L986.623 1764.26 Z" fill="#000000" fill-rule="nonzero" fill-opacity="1" /><path clip-path="url(#clip460)" d="M1137.94 1780.19 Q1141.3 1780.9 1143.17 1783.17 Q1145.07 1785.44 1145.07 1788.77 Q1145.07 1793.89 1141.55 1796.69 Q1138.03 1799.49 1131.55 1799.49 Q1129.38 1799.49 1127.06 1799.05 Q1124.77 1798.64 1122.32 1797.78 L1122.32 1793.27 Q1124.26 1794.4 1126.58 1794.98 Q1128.89 1795.56 1131.41 1795.56 Q1135.81 1795.56 1138.1 1793.82 Q1140.42 1792.08 1140.42 1788.77 Q1140.42 1785.72 1138.27 1784.01 Q1136.14 1782.27 1132.32 1782.27 L1128.29 1782.27 L1128.29 1778.43 L1132.5 1778.43 Q1135.95 1778.43 1137.78 1777.06 Q1139.61 1775.67 1139.61 1773.08 Q1139.61 1770.42 1137.71 1769.01 Q1135.83 1767.57 1132.32 1767.57 Q1130.39 1767.57 1128.2 1767.99 Q1126 1768.4 1123.36 1769.28 L1123.36 1765.12 Q1126.02 1764.38 1128.33 1764.01 Q1130.67 1763.64 1132.73 1763.64 Q1138.06 1763.64 1141.16 1766.07 Q1144.26 1768.47 1144.26 1772.59 Q1144.26 1775.46 1142.62 1777.46 Q1140.97 1779.42 1137.94 1780.19 Z" fill="#000000" fill-rule="nonzero" fill-opacity="1" /><path clip-path="url(#clip460)" d="M1153.94 1792.94 L1158.82 1792.94 L1158.82 1798.82 L1153.94 1798.82 L1153.94 1792.94 Z" fill="#000000" fill-rule="nonzero" fill-opacity="1" /><path clip-path="url(#clip460)" d="M1179.01 1767.34 Q1175.39 1767.34 1173.57 1770.9 Q1171.76 1774.45 1171.76 1781.58 Q1171.76 1788.68 1173.57 1792.25 Q1175.39 1795.79 1179.01 1795.79 Q1182.64 1795.79 1184.45 1792.25 Q1186.27 1788.68 1186.27 1781.58 Q1186.27 1774.45 1184.45 1770.9 Q1182.64 1767.34 1179.01 1767.34 M1179.01 1763.64 Q1184.82 1763.64 1187.87 1768.24 Q1190.95 1772.83 1190.95 1781.58 Q1190.95 1790.3 1187.87 1794.91 Q1184.82 1799.49 1179.01 1799.49 Q1173.2 1799.49 1170.12 1794.91 Q1167.06 1790.3 1167.06 1781.58 Q1167.06 1772.83 1170.12 1768.24 Q1173.2 1763.64 1179.01 1763.64 Z" fill="#000000" fill-rule="nonzero" fill-opacity="1" /><path clip-path="url(#clip460)" d="M437.47 1841.06 L437.47 1858.92 L445.555 1858.92 Q450.043 1858.92 452.494 1856.6 Q454.944 1854.27 454.944 1849.98 Q454.944 1845.71 452.494 1843.39 Q450.043 1841.06 445.555 1841.06 L437.47 1841.06 M431.041 1835.78 L445.555 1835.78 Q453.544 1835.78 457.618 1839.41 Q461.724 1843.01 461.724 1849.98 Q461.724 1857.01 457.618 1860.61 Q453.544 1864.2 445.555 1864.2 L437.47 1864.2 L437.47 1883.3 L431.041 1883.3 L431.041 1835.78 Z" fill="#000000" fill-rule="nonzero" fill-opacity="1" /><path clip-path="url(#clip460)" d="M489.606 1853.13 Q488.619 1852.55 487.441 1852.3 Q486.295 1852.01 484.895 1852.01 Q479.93 1852.01 477.256 1855.26 Q474.614 1858.47 474.614 1864.52 L474.614 1883.3 L468.726 1883.3 L468.726 1847.65 L474.614 1847.65 L474.614 1853.19 Q476.46 1849.94 479.42 1848.39 Q482.381 1846.79 486.614 1846.79 Q487.218 1846.79 487.951 1846.89 Q488.683 1846.95 489.574 1847.11 L489.606 1853.13 Z" fill="#000000" fill-rule="nonzero" fill-opacity="1" /><path clip-path="url(#clip460)" d="M524.808 1864.01 L524.808 1866.88 L497.881 1866.88 Q498.263 1872.92 501.509 1876.11 Q504.788 1879.26 510.612 1879.26 Q513.986 1879.26 517.137 1878.43 Q520.32 1877.6 523.439 1875.95 L523.439 1881.49 Q520.288 1882.82 516.978 1883.52 Q513.668 1884.22 510.262 1884.22 Q501.732 1884.22 496.735 1879.26 Q491.77 1874.29 491.77 1865.83 Q491.77 1857.07 496.481 1851.95 Q501.223 1846.79 509.244 1846.79 Q516.437 1846.79 520.607 1851.44 Q524.808 1856.06 524.808 1864.01 M518.952 1862.29 Q518.888 1857.49 516.246 1854.62 Q513.636 1851.76 509.307 1851.76 Q504.406 1851.76 501.446 1854.53 Q498.518 1857.3 498.072 1862.33 L518.952 1862.29 Z" fill="#000000" fill-rule="nonzero" fill-opacity="1" /><path clip-path="url(#clip460)" d="M557.878 1853.06 L557.878 1833.78 L563.734 1833.78 L563.734 1883.3 L557.878 1883.3 L557.878 1877.95 Q556.032 1881.14 553.199 1882.7 Q550.398 1884.22 546.451 1884.22 Q539.99 1884.22 535.916 1879.07 Q531.874 1873.91 531.874 1865.51 Q531.874 1857.11 535.916 1851.95 Q539.99 1846.79 546.451 1846.79 Q550.398 1846.79 553.199 1848.35 Q556.032 1849.88 557.878 1853.06 M537.921 1865.51 Q537.921 1871.97 540.563 1875.66 Q543.237 1879.32 547.884 1879.32 Q552.531 1879.32 555.204 1875.66 Q557.878 1871.97 557.878 1865.51 Q557.878 1859.05 555.204 1855.39 Q552.531 1851.7 547.884 1851.7 Q543.237 1851.7 540.563 1855.39 Q537.921 1859.05 537.921 1865.51 Z" fill="#000000" fill-rule="nonzero" fill-opacity="1" /><path clip-path="url(#clip460)" d="M591.998 1865.38 Q584.9 1865.38 582.163 1867 Q579.426 1868.63 579.426 1872.54 Q579.426 1875.66 581.463 1877.51 Q583.532 1879.32 587.065 1879.32 Q591.934 1879.32 594.863 1875.88 Q597.823 1872.42 597.823 1866.69 L597.823 1865.38 L591.998 1865.38 M603.679 1862.96 L603.679 1883.3 L597.823 1883.3 L597.823 1877.89 Q595.817 1881.14 592.826 1882.7 Q589.834 1884.22 585.505 1884.22 Q580.03 1884.22 576.784 1881.17 Q573.569 1878.08 573.569 1872.92 Q573.569 1866.91 577.58 1863.85 Q581.622 1860.8 589.611 1860.8 L597.823 1860.8 L597.823 1860.23 Q597.823 1856.18 595.149 1853.99 Q592.507 1851.76 587.701 1851.76 Q584.646 1851.76 581.749 1852.49 Q578.853 1853.22 576.179 1854.69 L576.179 1849.28 Q579.394 1848.03 582.418 1847.43 Q585.441 1846.79 588.306 1846.79 Q596.04 1846.79 599.86 1850.8 Q603.679 1854.81 603.679 1862.96 Z" fill="#000000" fill-rule="nonzero" fill-opacity="1" /><path clip-path="url(#clip460)" d="M621.535 1837.53 L621.535 1847.65 L633.598 1847.65 L633.598 1852.2 L621.535 1852.2 L621.535 1871.56 Q621.535 1875.92 622.713 1877.16 Q623.922 1878.4 627.582 1878.4 L633.598 1878.4 L633.598 1883.3 L627.582 1883.3 Q620.803 1883.3 618.225 1880.79 Q615.647 1878.24 615.647 1871.56 L615.647 1852.2 L611.35 1852.2 L611.35 1847.65 L615.647 1847.65 L615.647 1837.53 L621.535 1837.53 Z" fill="#000000" fill-rule="nonzero" fill-opacity="1" /><path clip-path="url(#clip460)" d="M655.114 1851.76 Q650.403 1851.76 647.666 1855.45 Q644.929 1859.11 644.929 1865.51 Q644.929 1871.91 647.634 1875.6 Q650.372 1879.26 655.114 1879.26 Q659.793 1879.26 662.53 1875.57 Q665.267 1871.87 665.267 1865.51 Q665.267 1859.17 662.53 1855.48 Q659.793 1851.76 655.114 1851.76 M655.114 1846.79 Q662.753 1846.79 667.113 1851.76 Q671.474 1856.72 671.474 1865.51 Q671.474 1874.26 667.113 1879.26 Q662.753 1884.22 655.114 1884.22 Q647.443 1884.22 643.083 1879.26 Q638.754 1874.26 638.754 1865.51 Q638.754 1856.72 643.083 1851.76 Q647.443 1846.79 655.114 1846.79 Z" fill="#000000" fill-rule="nonzero" fill-opacity="1" /><path clip-path="url(#clip460)" d="M701.838 1853.13 Q700.852 1852.55 699.674 1852.3 Q698.528 1852.01 697.128 1852.01 Q692.162 1852.01 689.489 1855.26 Q686.847 1858.47 686.847 1864.52 L686.847 1883.3 L680.959 1883.3 L680.959 1847.65 L686.847 1847.65 L686.847 1853.19 Q688.693 1849.94 691.653 1848.39 Q694.613 1846.79 698.846 1846.79 Q699.451 1846.79 700.183 1846.89 Q700.915 1846.95 701.806 1847.11 L701.838 1853.13 Z" fill="#000000" fill-rule="nonzero" fill-opacity="1" /><path clip-path="url(#clip460)" d="M744.902 1865.38 Q737.805 1865.38 735.067 1867 Q732.33 1868.63 732.33 1872.54 Q732.33 1875.66 734.367 1877.51 Q736.436 1879.32 739.969 1879.32 Q744.839 1879.32 747.767 1875.88 Q750.727 1872.42 750.727 1866.69 L750.727 1865.38 L744.902 1865.38 M756.583 1862.96 L756.583 1883.3 L750.727 1883.3 L750.727 1877.89 Q748.722 1881.14 745.73 1882.7 Q742.738 1884.22 738.409 1884.22 Q732.935 1884.22 729.688 1881.17 Q726.474 1878.08 726.474 1872.92 Q726.474 1866.91 730.484 1863.85 Q734.526 1860.8 742.515 1860.8 L750.727 1860.8 L750.727 1860.23 Q750.727 1856.18 748.053 1853.99 Q745.412 1851.76 740.605 1851.76 Q737.55 1851.76 734.653 1852.49 Q731.757 1853.22 729.084 1854.69 L729.084 1849.28 Q732.298 1848.03 735.322 1847.43 Q738.346 1846.79 741.21 1846.79 Q748.945 1846.79 752.764 1850.8 Q756.583 1854.81 756.583 1862.96 Z" fill="#000000" fill-rule="nonzero" fill-opacity="1" /><path clip-path="url(#clip460)" d="M794.237 1865.51 Q794.237 1859.05 791.563 1855.39 Q788.921 1851.7 784.274 1851.7 Q779.627 1851.7 776.954 1855.39 Q774.312 1859.05 774.312 1865.51 Q774.312 1871.97 776.954 1875.66 Q779.627 1879.32 784.274 1879.32 Q788.921 1879.32 791.563 1875.66 Q794.237 1871.97 794.237 1865.51 M774.312 1853.06 Q776.158 1849.88 778.959 1848.35 Q781.792 1846.79 785.706 1846.79 Q792.199 1846.79 796.242 1851.95 Q800.316 1857.11 800.316 1865.51 Q800.316 1873.91 796.242 1879.07 Q792.199 1884.22 785.706 1884.22 Q781.792 1884.22 778.959 1882.7 Q776.158 1881.14 774.312 1877.95 L774.312 1883.3 L768.424 1883.3 L768.424 1833.78 L774.312 1833.78 L774.312 1853.06 Z" fill="#000000" fill-rule="nonzero" fill-opacity="1" /><path clip-path="url(#clip460)" d="M809.419 1869.23 L809.419 1847.65 L815.275 1847.65 L815.275 1869.01 Q815.275 1874.07 817.249 1876.62 Q819.222 1879.13 823.169 1879.13 Q827.911 1879.13 830.648 1876.11 Q833.417 1873.08 833.417 1867.86 L833.417 1847.65 L839.274 1847.65 L839.274 1883.3 L833.417 1883.3 L833.417 1877.83 Q831.285 1881.07 828.452 1882.66 Q825.651 1884.22 821.927 1884.22 Q815.784 1884.22 812.602 1880.4 Q809.419 1876.59 809.419 1869.23 M824.155 1846.79 L824.155 1846.79 Z" fill="#000000" fill-rule="nonzero" fill-opacity="1" /><path clip-path="url(#clip460)" d="M880.969 1861.78 L880.969 1883.3 L875.113 1883.3 L875.113 1861.98 Q875.113 1856.92 873.139 1854.4 Q871.166 1851.89 867.219 1851.89 Q862.477 1851.89 859.74 1854.91 Q857.002 1857.93 857.002 1863.15 L857.002 1883.3 L851.114 1883.3 L851.114 1847.65 L857.002 1847.65 L857.002 1853.19 Q859.103 1849.98 861.936 1848.39 Q864.8 1846.79 868.524 1846.79 Q874.667 1846.79 877.818 1850.61 Q880.969 1854.4 880.969 1861.78 Z" fill="#000000" fill-rule="nonzero" fill-opacity="1" /><path clip-path="url(#clip460)" d="M916.108 1853.06 L916.108 1833.78 L921.964 1833.78 L921.964 1883.3 L916.108 1883.3 L916.108 1877.95 Q914.262 1881.14 911.429 1882.7 Q908.628 1884.22 904.682 1884.22 Q898.22 1884.22 894.146 1879.07 Q890.104 1873.91 890.104 1865.51 Q890.104 1857.11 894.146 1851.95 Q898.22 1846.79 904.682 1846.79 Q908.628 1846.79 911.429 1848.35 Q914.262 1849.88 916.108 1853.06 M896.151 1865.51 Q896.151 1871.97 898.793 1875.66 Q901.467 1879.32 906.114 1879.32 Q910.761 1879.32 913.434 1875.66 Q916.108 1871.97 916.108 1865.51 Q916.108 1859.05 913.434 1855.39 Q910.761 1851.7 906.114 1851.7 Q901.467 1851.7 898.793 1855.39 Q896.151 1859.05 896.151 1865.51 Z" fill="#000000" fill-rule="nonzero" fill-opacity="1" /><path clip-path="url(#clip460)" d="M950.228 1865.38 Q943.13 1865.38 940.393 1867 Q937.656 1868.63 937.656 1872.54 Q937.656 1875.66 939.693 1877.51 Q941.762 1879.32 945.295 1879.32 Q950.164 1879.32 953.093 1875.88 Q956.053 1872.42 956.053 1866.69 L956.053 1865.38 L950.228 1865.38 M961.909 1862.96 L961.909 1883.3 L956.053 1883.3 L956.053 1877.89 Q954.048 1881.14 951.056 1882.7 Q948.064 1884.22 943.735 1884.22 Q938.261 1884.22 935.014 1881.17 Q931.799 1878.08 931.799 1872.92 Q931.799 1866.91 935.81 1863.85 Q939.852 1860.8 947.841 1860.8 L956.053 1860.8 L956.053 1860.23 Q956.053 1856.18 953.379 1853.99 Q950.737 1851.76 945.931 1851.76 Q942.876 1851.76 939.979 1852.49 Q937.083 1853.22 934.409 1854.69 L934.409 1849.28 Q937.624 1848.03 940.648 1847.43 Q943.671 1846.79 946.536 1846.79 Q954.27 1846.79 958.09 1850.8 Q961.909 1854.81 961.909 1862.96 Z" fill="#000000" fill-rule="nonzero" fill-opacity="1" /><path clip-path="url(#clip460)" d="M1003.6 1861.78 L1003.6 1883.3 L997.748 1883.3 L997.748 1861.98 Q997.748 1856.92 995.775 1854.4 Q993.801 1851.89 989.855 1851.89 Q985.112 1851.89 982.375 1854.91 Q979.638 1857.93 979.638 1863.15 L979.638 1883.3 L973.749 1883.3 L973.749 1847.65 L979.638 1847.65 L979.638 1853.19 Q981.738 1849.98 984.571 1848.39 Q987.436 1846.79 991.16 1846.79 Q997.303 1846.79 1000.45 1850.61 Q1003.6 1854.4 1003.6 1861.78 Z" fill="#000000" fill-rule="nonzero" fill-opacity="1" /><path clip-path="url(#clip460)" d="M1040.94 1849.02 L1040.94 1854.5 Q1038.46 1853.13 1035.94 1852.46 Q1033.46 1851.76 1030.91 1851.76 Q1025.22 1851.76 1022.07 1855.39 Q1018.91 1858.98 1018.91 1865.51 Q1018.91 1872.03 1022.07 1875.66 Q1025.22 1879.26 1030.91 1879.26 Q1033.46 1879.26 1035.94 1878.59 Q1038.46 1877.89 1040.94 1876.52 L1040.94 1881.93 Q1038.49 1883.08 1035.85 1883.65 Q1033.24 1884.22 1030.28 1884.22 Q1022.22 1884.22 1017.48 1879.16 Q1012.74 1874.1 1012.74 1865.51 Q1012.74 1856.79 1017.51 1851.79 Q1022.32 1846.79 1030.66 1846.79 Q1033.36 1846.79 1035.94 1847.37 Q1038.52 1847.91 1040.94 1849.02 Z" fill="#000000" fill-rule="nonzero" fill-opacity="1" /><path clip-path="url(#clip460)" d="M1081.62 1864.01 L1081.62 1866.88 L1054.69 1866.88 Q1055.07 1872.92 1058.32 1876.11 Q1061.6 1879.26 1067.42 1879.26 Q1070.79 1879.26 1073.95 1878.43 Q1077.13 1877.6 1080.25 1875.95 L1080.25 1881.49 Q1077.1 1882.82 1073.79 1883.52 Q1070.48 1884.22 1067.07 1884.22 Q1058.54 1884.22 1053.54 1879.26 Q1048.58 1874.29 1048.58 1865.83 Q1048.58 1857.07 1053.29 1851.95 Q1058.03 1846.79 1066.05 1846.79 Q1073.25 1846.79 1077.41 1851.44 Q1081.62 1856.06 1081.62 1864.01 M1075.76 1862.29 Q1075.7 1857.49 1073.05 1854.62 Q1070.44 1851.76 1066.12 1851.76 Q1061.21 1851.76 1058.25 1854.53 Q1055.33 1857.3 1054.88 1862.33 L1075.76 1862.29 Z" fill="#000000" fill-rule="nonzero" fill-opacity="1" /><polyline clip-path="url(#clip462)" style="stroke:#000000; stroke-linecap:round; stroke-linejoin:round; stroke-width:2; stroke-opacity:0.1; fill:none" points="196.816,1498.37 1315.84,1498.37 "/>
<polyline clip-path="url(#clip462)" style="stroke:#000000; stroke-linecap:round; stroke-linejoin:round; stroke-width:2; stroke-opacity:0.1; fill:none" points="196.816,1228.62 1315.84,1228.62 "/>
<polyline clip-path="url(#clip462)" style="stroke:#000000; stroke-linecap:round; stroke-linejoin:round; stroke-width:2; stroke-opacity:0.1; fill:none" points="196.816,958.865 1315.84,958.865 "/>
<polyline clip-path="url(#clip462)" style="stroke:#000000; stroke-linecap:round; stroke-linejoin:round; stroke-width:2; stroke-opacity:0.1; fill:none" points="196.816,689.111 1315.84,689.111 "/>
<polyline clip-path="url(#clip462)" style="stroke:#000000; stroke-linecap:round; stroke-linejoin:round; stroke-width:2; stroke-opacity:0.1; fill:none" points="196.816,419.358 1315.84,419.358 "/>
<polyline clip-path="url(#clip462)" style="stroke:#000000; stroke-linecap:round; stroke-linejoin:round; stroke-width:2; stroke-opacity:0.1; fill:none" points="196.816,149.604 1315.84,149.604 "/>
<polyline clip-path="url(#clip460)" style="stroke:#000000; stroke-linecap:round; stroke-linejoin:round; stroke-width:4; stroke-opacity:1; fill:none" points="196.816,1734.12 196.816,47.2441 "/>
<polyline clip-path="url(#clip460)" style="stroke:#000000; stroke-linecap:round; stroke-linejoin:round; stroke-width:4; stroke-opacity:1; fill:none" points="196.816,1498.37 215.714,1498.37 "/>
<polyline clip-path="url(#clip460)" style="stroke:#000000; stroke-linecap:round; stroke-linejoin:round; stroke-width:4; stroke-opacity:1; fill:none" points="196.816,1228.62 215.714,1228.62 "/>
<polyline clip-path="url(#clip460)" style="stroke:#000000; stroke-linecap:round; stroke-linejoin:round; stroke-width:4; stroke-opacity:1; fill:none" points="196.816,958.865 215.714,958.865 "/>
<polyline clip-path="url(#clip460)" style="stroke:#000000; stroke-linecap:round; stroke-linejoin:round; stroke-width:4; stroke-opacity:1; fill:none" points="196.816,689.111 215.714,689.111 "/>
<polyline clip-path="url(#clip460)" style="stroke:#000000; stroke-linecap:round; stroke-linejoin:round; stroke-width:4; stroke-opacity:1; fill:none" points="196.816,419.358 215.714,419.358 "/>
<polyline clip-path="url(#clip460)" style="stroke:#000000; stroke-linecap:round; stroke-linejoin:round; stroke-width:4; stroke-opacity:1; fill:none" points="196.816,149.604 215.714,149.604 "/>
<path clip-path="url(#clip460)" d="M49.5521 1498.82 L79.2279 1498.82 L79.2279 1502.76 L49.5521 1502.76 L49.5521 1498.82 Z" fill="#000000" fill-rule="nonzero" fill-opacity="1" /><path clip-path="url(#clip460)" d="M103.487 1497.02 Q106.843 1497.74 108.718 1500 Q110.617 1502.27 110.617 1505.61 Q110.617 1510.72 107.098 1513.52 Q103.58 1516.32 97.0982 1516.32 Q94.9223 1516.32 92.6075 1515.88 Q90.3158 1515.47 87.8621 1514.61 L87.8621 1510.1 Q89.8065 1511.23 92.1213 1511.81 Q94.4361 1512.39 96.9593 1512.39 Q101.357 1512.39 103.649 1510.65 Q105.964 1508.92 105.964 1505.61 Q105.964 1502.55 103.811 1500.84 Q101.681 1499.1 97.8621 1499.1 L93.8343 1499.1 L93.8343 1495.26 L98.0472 1495.26 Q101.496 1495.26 103.325 1493.89 Q105.154 1492.5 105.154 1489.91 Q105.154 1487.25 103.256 1485.84 Q101.381 1484.4 97.8621 1484.4 Q95.9408 1484.4 93.7417 1484.82 Q91.5426 1485.24 88.9038 1486.12 L88.9038 1481.95 Q91.5658 1481.21 93.8806 1480.84 Q96.2185 1480.47 98.2787 1480.47 Q103.603 1480.47 106.705 1482.9 Q109.806 1485.31 109.806 1489.43 Q109.806 1492.3 108.163 1494.29 Q106.519 1496.25 103.487 1497.02 Z" fill="#000000" fill-rule="nonzero" fill-opacity="1" /><path clip-path="url(#clip460)" d="M119.482 1509.77 L124.367 1509.77 L124.367 1515.65 L119.482 1515.65 L119.482 1509.77 Z" fill="#000000" fill-rule="nonzero" fill-opacity="1" /><path clip-path="url(#clip460)" d="M144.552 1484.17 Q140.941 1484.17 139.112 1487.74 Q137.306 1491.28 137.306 1498.41 Q137.306 1505.51 139.112 1509.08 Q140.941 1512.62 144.552 1512.62 Q148.186 1512.62 149.991 1509.08 Q151.82 1505.51 151.82 1498.41 Q151.82 1491.28 149.991 1487.74 Q148.186 1484.17 144.552 1484.17 M144.552 1480.47 Q150.362 1480.47 153.417 1485.07 Q156.496 1489.66 156.496 1498.41 Q156.496 1507.13 153.417 1511.74 Q150.362 1516.32 144.552 1516.32 Q138.741 1516.32 135.663 1511.74 Q132.607 1507.13 132.607 1498.41 Q132.607 1489.66 135.663 1485.07 Q138.741 1480.47 144.552 1480.47 Z" fill="#000000" fill-rule="nonzero" fill-opacity="1" /><path clip-path="url(#clip460)" d="M50.5475 1229.07 L80.2233 1229.07 L80.2233 1233.01 L50.5475 1233.01 L50.5475 1229.07 Z" fill="#000000" fill-rule="nonzero" fill-opacity="1" /><path clip-path="url(#clip460)" d="M94.3436 1241.96 L110.663 1241.96 L110.663 1245.9 L88.7186 1245.9 L88.7186 1241.96 Q91.3806 1239.21 95.9639 1234.58 Q100.57 1229.93 101.751 1228.58 Q103.996 1226.06 104.876 1224.32 Q105.779 1222.57 105.779 1220.88 Q105.779 1218.12 103.834 1216.39 Q101.913 1214.65 98.8111 1214.65 Q96.6121 1214.65 94.1584 1215.41 Q91.7278 1216.18 88.9501 1217.73 L88.9501 1213.01 Q91.7741 1211.87 94.2278 1211.29 Q96.6815 1210.71 98.7185 1210.71 Q104.089 1210.71 107.283 1213.4 Q110.478 1216.08 110.478 1220.57 Q110.478 1222.7 109.668 1224.63 Q108.881 1226.52 106.774 1229.12 Q106.195 1229.79 103.094 1233.01 Q99.9917 1236.2 94.3436 1241.96 Z" fill="#000000" fill-rule="nonzero" fill-opacity="1" /><path clip-path="url(#clip460)" d="M120.478 1240.02 L125.362 1240.02 L125.362 1245.9 L120.478 1245.9 L120.478 1240.02 Z" fill="#000000" fill-rule="nonzero" fill-opacity="1" /><path clip-path="url(#clip460)" d="M135.593 1211.34 L153.95 1211.34 L153.95 1215.27 L139.876 1215.27 L139.876 1223.75 Q140.894 1223.4 141.913 1223.24 Q142.931 1223.05 143.95 1223.05 Q149.737 1223.05 153.116 1226.22 Q156.496 1229.39 156.496 1234.81 Q156.496 1240.39 153.024 1243.49 Q149.552 1246.57 143.232 1246.57 Q141.056 1246.57 138.788 1246.2 Q136.542 1245.83 134.135 1245.09 L134.135 1240.39 Q136.218 1241.52 138.441 1242.08 Q140.663 1242.64 143.14 1242.64 Q147.144 1242.64 149.482 1240.53 Q151.82 1238.42 151.82 1234.81 Q151.82 1231.2 149.482 1229.09 Q147.144 1226.99 143.14 1226.99 Q141.265 1226.99 139.39 1227.4 Q137.538 1227.82 135.593 1228.7 L135.593 1211.34 Z" fill="#000000" fill-rule="nonzero" fill-opacity="1" /><path clip-path="url(#clip460)" d="M49.5521 959.317 L79.2279 959.317 L79.2279 963.252 L49.5521 963.252 L49.5521 959.317 Z" fill="#000000" fill-rule="nonzero" fill-opacity="1" /><path clip-path="url(#clip460)" d="M93.3482 972.21 L109.668 972.21 L109.668 976.145 L87.7232 976.145 L87.7232 972.21 Q90.3852 969.455 94.9685 964.826 Q99.575 960.173 100.756 958.83 Q103.001 956.307 103.881 954.571 Q104.783 952.812 104.783 951.122 Q104.783 948.368 102.839 946.631 Q100.918 944.895 97.8158 944.895 Q95.6167 944.895 93.163 945.659 Q90.7325 946.423 87.9547 947.974 L87.9547 943.252 Q90.7788 942.118 93.2324 941.539 Q95.6861 940.96 97.7232 940.96 Q103.094 940.96 106.288 943.645 Q109.482 946.331 109.482 950.821 Q109.482 952.951 108.672 954.872 Q107.885 956.77 105.779 959.363 Q105.2 960.034 102.098 963.252 Q98.9963 966.446 93.3482 972.21 Z" fill="#000000" fill-rule="nonzero" fill-opacity="1" /><path clip-path="url(#clip460)" d="M119.482 970.266 L124.367 970.266 L124.367 976.145 L119.482 976.145 L119.482 970.266 Z" fill="#000000" fill-rule="nonzero" fill-opacity="1" /><path clip-path="url(#clip460)" d="M144.552 944.664 Q140.941 944.664 139.112 948.229 Q137.306 951.77 137.306 958.9 Q137.306 966.006 139.112 969.571 Q140.941 973.113 144.552 973.113 Q148.186 973.113 149.991 969.571 Q151.82 966.006 151.82 958.9 Q151.82 951.77 149.991 948.229 Q148.186 944.664 144.552 944.664 M144.552 940.96 Q150.362 940.96 153.417 945.567 Q156.496 950.15 156.496 958.9 Q156.496 967.627 153.417 972.233 Q150.362 976.816 144.552 976.816 Q138.741 976.816 135.663 972.233 Q132.607 967.627 132.607 958.9 Q132.607 950.15 135.663 945.567 Q138.741 940.96 144.552 940.96 Z" fill="#000000" fill-rule="nonzero" fill-opacity="1" /><path clip-path="url(#clip460)" d="M50.5475 689.563 L80.2233 689.563 L80.2233 693.498 L50.5475 693.498 L50.5475 689.563 Z" fill="#000000" fill-rule="nonzero" fill-opacity="1" /><path clip-path="url(#clip460)" d="M91.126 702.456 L98.7648 702.456 L98.7648 676.091 L90.4547 677.757 L90.4547 673.498 L98.7185 671.831 L103.394 671.831 L103.394 702.456 L111.033 702.456 L111.033 706.391 L91.126 706.391 L91.126 702.456 Z" fill="#000000" fill-rule="nonzero" fill-opacity="1" /><path clip-path="url(#clip460)" d="M120.478 700.512 L125.362 700.512 L125.362 706.391 L120.478 706.391 L120.478 700.512 Z" fill="#000000" fill-rule="nonzero" fill-opacity="1" /><path clip-path="url(#clip460)" d="M135.593 671.831 L153.95 671.831 L153.95 675.767 L139.876 675.767 L139.876 684.239 Q140.894 683.892 141.913 683.73 Q142.931 683.544 143.95 683.544 Q149.737 683.544 153.116 686.716 Q156.496 689.887 156.496 695.304 Q156.496 700.882 153.024 703.984 Q149.552 707.063 143.232 707.063 Q141.056 707.063 138.788 706.692 Q136.542 706.322 134.135 705.581 L134.135 700.882 Q136.218 702.016 138.441 702.572 Q140.663 703.128 143.14 703.128 Q147.144 703.128 149.482 701.021 Q151.82 698.915 151.82 695.304 Q151.82 691.692 149.482 689.586 Q147.144 687.48 143.14 687.48 Q141.265 687.48 139.39 687.896 Q137.538 688.313 135.593 689.192 L135.593 671.831 Z" fill="#000000" fill-rule="nonzero" fill-opacity="1" /><path clip-path="url(#clip460)" d="M49.5521 419.809 L79.2279 419.809 L79.2279 423.744 L49.5521 423.744 L49.5521 419.809 Z" fill="#000000" fill-rule="nonzero" fill-opacity="1" /><path clip-path="url(#clip460)" d="M90.1306 432.703 L97.7695 432.703 L97.7695 406.337 L89.4593 408.004 L89.4593 403.744 L97.7232 402.078 L102.399 402.078 L102.399 432.703 L110.038 432.703 L110.038 436.638 L90.1306 436.638 L90.1306 432.703 Z" fill="#000000" fill-rule="nonzero" fill-opacity="1" /><path clip-path="url(#clip460)" d="M119.482 430.758 L124.367 430.758 L124.367 436.638 L119.482 436.638 L119.482 430.758 Z" fill="#000000" fill-rule="nonzero" fill-opacity="1" /><path clip-path="url(#clip460)" d="M144.552 405.156 Q140.941 405.156 139.112 408.721 Q137.306 412.263 137.306 419.392 Q137.306 426.499 139.112 430.064 Q140.941 433.605 144.552 433.605 Q148.186 433.605 149.991 430.064 Q151.82 426.499 151.82 419.392 Q151.82 412.263 149.991 408.721 Q148.186 405.156 144.552 405.156 M144.552 401.453 Q150.362 401.453 153.417 406.059 Q156.496 410.642 156.496 419.392 Q156.496 428.119 153.417 432.726 Q150.362 437.309 144.552 437.309 Q138.741 437.309 135.663 432.726 Q132.607 428.119 132.607 419.392 Q132.607 410.642 135.663 406.059 Q138.741 401.453 144.552 401.453 Z" fill="#000000" fill-rule="nonzero" fill-opacity="1" /><path clip-path="url(#clip460)" d="M50.5475 150.055 L80.2233 150.055 L80.2233 153.991 L50.5475 153.991 L50.5475 150.055 Z" fill="#000000" fill-rule="nonzero" fill-opacity="1" /><path clip-path="url(#clip460)" d="M100.316 135.403 Q96.7047 135.403 94.876 138.967 Q93.0704 142.509 93.0704 149.639 Q93.0704 156.745 94.876 160.31 Q96.7047 163.852 100.316 163.852 Q103.95 163.852 105.756 160.31 Q107.584 156.745 107.584 149.639 Q107.584 142.509 105.756 138.967 Q103.95 135.403 100.316 135.403 M100.316 131.699 Q106.126 131.699 109.181 136.305 Q112.26 140.889 112.26 149.639 Q112.26 158.366 109.181 162.972 Q106.126 167.555 100.316 167.555 Q94.5056 167.555 91.4269 162.972 Q88.3714 158.366 88.3714 149.639 Q88.3714 140.889 91.4269 136.305 Q94.5056 131.699 100.316 131.699 Z" fill="#000000" fill-rule="nonzero" fill-opacity="1" /><path clip-path="url(#clip460)" d="M120.478 161.004 L125.362 161.004 L125.362 166.884 L120.478 166.884 L120.478 161.004 Z" fill="#000000" fill-rule="nonzero" fill-opacity="1" /><path clip-path="url(#clip460)" d="M135.593 132.324 L153.95 132.324 L153.95 136.259 L139.876 136.259 L139.876 144.731 Q140.894 144.384 141.913 144.222 Q142.931 144.037 143.95 144.037 Q149.737 144.037 153.116 147.208 Q156.496 150.379 156.496 155.796 Q156.496 161.375 153.024 164.477 Q149.552 167.555 143.232 167.555 Q141.056 167.555 138.788 167.185 Q136.542 166.815 134.135 166.074 L134.135 161.375 Q136.218 162.509 138.441 163.065 Q140.663 163.62 143.14 163.62 Q147.144 163.62 149.482 161.514 Q151.82 159.407 151.82 155.796 Q151.82 152.185 149.482 150.079 Q147.144 147.972 143.14 147.972 Q141.265 147.972 139.39 148.389 Q137.538 148.805 135.593 149.685 L135.593 132.324 Z" fill="#000000" fill-rule="nonzero" fill-opacity="1" /><polyline clip-path="url(#clip462)" style="stroke:#009af9; stroke-linecap:round; stroke-linejoin:round; stroke-width:4; stroke-opacity:1; fill:none" points="228.487,130.196 239.15,145.915 249.813,161.634 260.477,177.353 271.14,193.072 281.804,208.791 292.467,224.51 303.131,240.229 313.794,255.948 324.458,271.667 335.121,287.386 345.785,303.105 356.448,318.824 367.112,334.543 377.775,350.262 388.439,365.981 399.102,381.7 409.766,397.419 420.429,413.138 431.093,428.857 441.756,444.576 452.42,460.295 463.083,476.013 473.747,491.732 484.41,507.451 495.073,523.17 505.737,538.889 516.4,554.608 527.064,570.327 537.727,586.046 548.391,601.765 559.054,617.484 569.718,633.203 580.381,648.922 591.045,664.641 601.708,680.36 612.372,696.079 623.035,711.798 633.699,727.517 644.362,743.236 655.026,758.955 665.689,774.674 676.353,790.393 687.016,806.112 697.68,821.831 708.343,837.55 719.007,853.269 729.67,868.988 740.334,884.707 750.997,900.426 761.66,916.145 772.324,931.864 782.987,947.583 793.651,963.302 804.314,979.021 814.978,994.74 825.641,1010.46 836.305,1026.18 846.968,1041.9 857.632,1057.62 868.295,1073.33 878.959,1089.05 889.622,1104.77 900.286,1120.49 910.949,1136.21 921.613,1151.93 932.276,1167.65 942.94,1183.37 953.603,1199.09 964.267,1214.81 974.93,1230.52 985.594,1246.24 996.257,1261.96 1006.92,1277.68 1017.58,1293.4 1028.25,1309.12 1038.91,1324.84 1049.57,1340.56 1060.24,1356.28 1070.9,1372 1081.56,1387.71 1092.23,1403.43 1102.89,1419.15 1113.56,1434.87 1124.22,1450.59 1134.88,1466.31 1145.55,1482.03 1156.21,1497.75 1166.87,1513.47 1177.54,1529.19 1188.2,1544.9 1198.86,1560.62 1209.53,1576.34 1220.19,1592.06 1230.85,1607.78 1241.52,1623.5 1252.18,1639.22 1262.84,1654.94 1273.51,1670.66 1284.17,1686.38 "/>
<polyline clip-path="url(#clip462)" style="stroke:#bbbbbb; stroke-linecap:round; stroke-linejoin:round; stroke-width:4; stroke-opacity:1; fill:none" points="228.487,94.9858 239.15,107.282 249.813,119.579 260.477,131.875 271.14,144.171 281.804,156.468 292.467,168.764 303.131,181.06 313.794,193.357 324.458,205.653 335.121,217.95 345.785,230.246 356.448,242.542 367.112,254.839 377.775,267.135 388.439,279.431 399.102,291.728 409.766,304.024 420.429,316.321 431.093,328.617 441.756,340.913 452.42,353.21 463.083,365.506 473.747,377.803 484.41,390.099 495.073,402.395 505.737,414.692 516.4,426.988 527.064,439.284 537.727,451.581 548.391,463.877 559.054,476.174 569.718,488.47 580.381,500.766 591.045,513.063 601.708,525.359 612.372,537.655 623.035,549.952 633.699,562.248 644.362,574.545 655.026,586.841 665.689,599.137 676.353,611.434 687.016,623.73 697.68,636.027 708.343,648.323 719.007,660.619 729.67,672.916 740.334,685.212 750.997,697.508 761.66,709.805 772.324,722.101 782.987,734.398 793.651,746.694 804.314,758.99 814.978,771.287 825.641,783.583 836.305,795.879 846.968,808.176 857.632,820.472 868.295,832.769 878.959,845.065 889.622,857.361 900.286,869.658 910.949,881.954 921.613,894.251 932.276,906.547 942.94,918.843 953.603,931.14 964.267,943.436 974.93,955.732 985.594,968.029 996.257,980.325 1006.92,992.622 1017.58,1004.92 1028.25,1017.21 1038.91,1029.51 1049.57,1041.81 1060.24,1054.1 1070.9,1066.4 1081.56,1078.7 1092.23,1090.99 1102.89,1103.29 1113.56,1115.59 1124.22,1127.88 1134.88,1140.18 1145.55,1152.47 1156.21,1164.77 1166.87,1177.07 1177.54,1189.36 1188.2,1201.66 1198.86,1213.96 1209.53,1226.25 1220.19,1238.55 1230.85,1250.85 1241.52,1263.14 1252.18,1275.44 1262.84,1287.73 1273.51,1300.03 1284.17,1312.33 "/>
<path clip-path="url(#clip460)" d="M612.521 258.993 L1278.54 258.993 L1278.54 103.473 L612.521 103.473  Z" fill="#ffffff" fill-rule="evenodd" fill-opacity="1"/>
<polyline clip-path="url(#clip460)" style="stroke:#000000; stroke-linecap:round; stroke-linejoin:round; stroke-width:4; stroke-opacity:1; fill:none" points="612.521,258.993 1278.54,258.993 1278.54,103.473 612.521,103.473 612.521,258.993 "/>
<polyline clip-path="url(#clip460)" style="stroke:#009af9; stroke-linecap:round; stroke-linejoin:round; stroke-width:4; stroke-opacity:1; fill:none" points="624.954,155.313 699.556,155.313 "/>
<path clip-path="url(#clip460)" d="M711.99 138.033 L741.226 138.033 L741.226 141.968 L728.957 141.968 L728.957 172.593 L724.258 172.593 L724.258 141.968 L711.99 141.968 L711.99 138.033 Z" fill="#000000" fill-rule="nonzero" fill-opacity="1" /><path clip-path="url(#clip460)" d="M753.61 150.649 Q752.892 150.232 752.036 150.047 Q751.202 149.839 750.184 149.839 Q746.573 149.839 744.628 152.2 Q742.707 154.538 742.707 158.936 L742.707 172.593 L738.425 172.593 L738.425 146.667 L742.707 146.667 L742.707 150.695 Q744.05 148.334 746.202 147.2 Q748.355 146.042 751.434 146.042 Q751.874 146.042 752.406 146.112 Q752.938 146.158 753.587 146.274 L753.61 150.649 Z" fill="#000000" fill-rule="nonzero" fill-opacity="1" /><path clip-path="url(#clip460)" d="M757.637 162.362 L757.637 146.667 L761.897 146.667 L761.897 162.2 Q761.897 165.88 763.332 167.732 Q764.767 169.561 767.637 169.561 Q771.086 169.561 773.077 167.362 Q775.091 165.163 775.091 161.366 L775.091 146.667 L779.35 146.667 L779.35 172.593 L775.091 172.593 L775.091 168.612 Q773.54 170.973 771.48 172.13 Q769.443 173.264 766.735 173.264 Q762.267 173.264 759.952 170.487 Q757.637 167.709 757.637 162.362 M768.355 146.042 L768.355 146.042 Z" fill="#000000" fill-rule="nonzero" fill-opacity="1" /><path clip-path="url(#clip460)" d="M810.299 158.565 L810.299 160.649 L790.716 160.649 Q790.994 165.047 793.355 167.362 Q795.739 169.653 799.975 169.653 Q802.429 169.653 804.721 169.052 Q807.035 168.45 809.304 167.246 L809.304 171.274 Q807.012 172.246 804.605 172.755 Q802.197 173.264 799.721 173.264 Q793.517 173.264 789.883 169.653 Q786.272 166.042 786.272 159.885 Q786.272 153.519 789.698 149.792 Q793.147 146.042 798.98 146.042 Q804.211 146.042 807.244 149.422 Q810.299 152.778 810.299 158.565 M806.04 157.315 Q805.994 153.82 804.072 151.737 Q802.174 149.653 799.026 149.653 Q795.461 149.653 793.309 151.667 Q791.179 153.681 790.855 157.339 L806.04 157.315 Z" fill="#000000" fill-rule="nonzero" fill-opacity="1" /><path clip-path="url(#clip460)" d="M845.484 136.575 L845.484 140.117 L841.41 140.117 Q839.119 140.117 838.216 141.042 Q837.336 141.968 837.336 144.376 L837.336 146.667 L844.35 146.667 L844.35 149.978 L837.336 149.978 L837.336 172.593 L833.054 172.593 L833.054 149.978 L828.98 149.978 L828.98 146.667 L833.054 146.667 L833.054 144.862 Q833.054 140.533 835.068 138.566 Q837.082 136.575 841.456 136.575 L845.484 136.575 Z" fill="#000000" fill-rule="nonzero" fill-opacity="1" /><path clip-path="url(#clip460)" d="M848.609 162.362 L848.609 146.667 L852.868 146.667 L852.868 162.2 Q852.868 165.88 854.304 167.732 Q855.739 169.561 858.609 169.561 Q862.058 169.561 864.049 167.362 Q866.063 165.163 866.063 161.366 L866.063 146.667 L870.322 146.667 L870.322 172.593 L866.063 172.593 L866.063 168.612 Q864.512 170.973 862.452 172.13 Q860.415 173.264 857.706 173.264 Q853.239 173.264 850.924 170.487 Q848.609 167.709 848.609 162.362 M859.327 146.042 L859.327 146.042 Z" fill="#000000" fill-rule="nonzero" fill-opacity="1" /><path clip-path="url(#clip460)" d="M900.646 156.945 L900.646 172.593 L896.387 172.593 L896.387 157.084 Q896.387 153.403 894.952 151.575 Q893.516 149.746 890.646 149.746 Q887.197 149.746 885.206 151.945 Q883.216 154.144 883.216 157.94 L883.216 172.593 L878.933 172.593 L878.933 146.667 L883.216 146.667 L883.216 150.695 Q884.743 148.357 886.803 147.2 Q888.887 146.042 891.595 146.042 Q896.063 146.042 898.354 148.82 Q900.646 151.575 900.646 156.945 Z" fill="#000000" fill-rule="nonzero" fill-opacity="1" /><path clip-path="url(#clip460)" d="M927.799 147.663 L927.799 151.644 Q925.993 150.649 924.164 150.163 Q922.359 149.653 920.507 149.653 Q916.363 149.653 914.072 152.292 Q911.78 154.908 911.78 159.653 Q911.78 164.399 914.072 167.038 Q916.363 169.653 920.507 169.653 Q922.359 169.653 924.164 169.167 Q925.993 168.658 927.799 167.663 L927.799 171.598 Q926.016 172.431 924.095 172.848 Q922.197 173.264 920.044 173.264 Q914.188 173.264 910.739 169.584 Q907.289 165.903 907.289 159.653 Q907.289 153.311 910.762 149.677 Q914.257 146.042 920.322 146.042 Q922.289 146.042 924.164 146.459 Q926.039 146.853 927.799 147.663 Z" fill="#000000" fill-rule="nonzero" fill-opacity="1" /><path clip-path="url(#clip460)" d="M939.419 139.306 L939.419 146.667 L948.192 146.667 L948.192 149.978 L939.419 149.978 L939.419 164.052 Q939.419 167.223 940.275 168.126 Q941.155 169.028 943.817 169.028 L948.192 169.028 L948.192 172.593 L943.817 172.593 Q938.887 172.593 937.012 170.764 Q935.137 168.913 935.137 164.052 L935.137 149.978 L932.012 149.978 L932.012 146.667 L935.137 146.667 L935.137 139.306 L939.419 139.306 Z" fill="#000000" fill-rule="nonzero" fill-opacity="1" /><path clip-path="url(#clip460)" d="M953.794 146.667 L958.053 146.667 L958.053 172.593 L953.794 172.593 L953.794 146.667 M953.794 136.575 L958.053 136.575 L958.053 141.968 L953.794 141.968 L953.794 136.575 Z" fill="#000000" fill-rule="nonzero" fill-opacity="1" /><path clip-path="url(#clip460)" d="M977.011 149.653 Q973.585 149.653 971.595 152.339 Q969.604 155.001 969.604 159.653 Q969.604 164.306 971.572 166.991 Q973.562 169.653 977.011 169.653 Q980.414 169.653 982.405 166.968 Q984.396 164.283 984.396 159.653 Q984.396 155.047 982.405 152.362 Q980.414 149.653 977.011 149.653 M977.011 146.042 Q982.567 146.042 985.738 149.653 Q988.909 153.265 988.909 159.653 Q988.909 166.019 985.738 169.653 Q982.567 173.264 977.011 173.264 Q971.433 173.264 968.261 169.653 Q965.113 166.019 965.113 159.653 Q965.113 153.265 968.261 149.653 Q971.433 146.042 977.011 146.042 Z" fill="#000000" fill-rule="nonzero" fill-opacity="1" /><path clip-path="url(#clip460)" d="M1017.52 156.945 L1017.52 172.593 L1013.26 172.593 L1013.26 157.084 Q1013.26 153.403 1011.83 151.575 Q1010.39 149.746 1007.52 149.746 Q1004.07 149.746 1002.08 151.945 Q1000.09 154.144 1000.09 157.94 L1000.09 172.593 L995.808 172.593 L995.808 146.667 L1000.09 146.667 L1000.09 150.695 Q1001.62 148.357 1003.68 147.2 Q1005.76 146.042 1008.47 146.042 Q1012.94 146.042 1015.23 148.82 Q1017.52 151.575 1017.52 156.945 Z" fill="#000000" fill-rule="nonzero" fill-opacity="1" /><path clip-path="url(#clip460)" d="M1037.8 159.561 Q1032.64 159.561 1030.65 160.741 Q1028.65 161.922 1028.65 164.769 Q1028.65 167.038 1030.14 168.38 Q1031.64 169.7 1034.21 169.7 Q1037.75 169.7 1039.88 167.2 Q1042.03 164.677 1042.03 160.51 L1042.03 159.561 L1037.8 159.561 M1046.29 157.802 L1046.29 172.593 L1042.03 172.593 L1042.03 168.658 Q1040.58 171.019 1038.4 172.153 Q1036.22 173.264 1033.08 173.264 Q1029.09 173.264 1026.73 171.042 Q1024.4 168.797 1024.4 165.047 Q1024.4 160.672 1027.31 158.45 Q1030.25 156.228 1036.06 156.228 L1042.03 156.228 L1042.03 155.811 Q1042.03 152.871 1040.09 151.274 Q1038.17 149.653 1034.67 149.653 Q1032.45 149.653 1030.34 150.186 Q1028.24 150.718 1026.29 151.783 L1026.29 147.848 Q1028.63 146.945 1030.83 146.505 Q1033.03 146.042 1035.11 146.042 Q1040.74 146.042 1043.52 148.959 Q1046.29 151.876 1046.29 157.802 Z" fill="#000000" fill-rule="nonzero" fill-opacity="1" /><path clip-path="url(#clip460)" d="M1055.07 136.575 L1059.33 136.575 L1059.33 172.593 L1055.07 172.593 L1055.07 136.575 Z" fill="#000000" fill-rule="nonzero" fill-opacity="1" /><path clip-path="url(#clip460)" d="M1096.43 136.575 L1096.43 140.117 L1092.36 140.117 Q1090.07 140.117 1089.16 141.042 Q1088.28 141.968 1088.28 144.376 L1088.28 146.667 L1095.3 146.667 L1095.3 149.978 L1088.28 149.978 L1088.28 172.593 L1084 172.593 L1084 149.978 L1079.93 149.978 L1079.93 146.667 L1084 146.667 L1084 144.862 Q1084 140.533 1086.02 138.566 Q1088.03 136.575 1092.4 136.575 L1096.43 136.575 Z" fill="#000000" fill-rule="nonzero" fill-opacity="1" /><path clip-path="url(#clip460)" d="M1110.04 149.653 Q1106.62 149.653 1104.63 152.339 Q1102.64 155.001 1102.64 159.653 Q1102.64 164.306 1104.6 166.991 Q1106.59 169.653 1110.04 169.653 Q1113.45 169.653 1115.44 166.968 Q1117.43 164.283 1117.43 159.653 Q1117.43 155.047 1115.44 152.362 Q1113.45 149.653 1110.04 149.653 M1110.04 146.042 Q1115.6 146.042 1118.77 149.653 Q1121.94 153.265 1121.94 159.653 Q1121.94 166.019 1118.77 169.653 Q1115.6 173.264 1110.04 173.264 Q1104.46 173.264 1101.29 169.653 Q1098.14 166.019 1098.14 159.653 Q1098.14 153.265 1101.29 149.653 Q1104.46 146.042 1110.04 146.042 Z" fill="#000000" fill-rule="nonzero" fill-opacity="1" /><path clip-path="url(#clip460)" d="M1144.02 150.649 Q1143.31 150.232 1142.45 150.047 Q1141.62 149.839 1140.6 149.839 Q1136.99 149.839 1135.04 152.2 Q1133.12 154.538 1133.12 158.936 L1133.12 172.593 L1128.84 172.593 L1128.84 146.667 L1133.12 146.667 L1133.12 150.695 Q1134.46 148.334 1136.62 147.2 Q1138.77 146.042 1141.85 146.042 Q1142.29 146.042 1142.82 146.112 Q1143.35 146.158 1144 146.274 L1144.02 150.649 Z" fill="#000000" fill-rule="nonzero" fill-opacity="1" /><path clip-path="url(#clip460)" d="M1167.84 151.644 Q1169.44 148.774 1171.66 147.408 Q1173.89 146.042 1176.89 146.042 Q1180.95 146.042 1183.14 148.89 Q1185.34 151.714 1185.34 156.945 L1185.34 172.593 L1181.06 172.593 L1181.06 157.084 Q1181.06 153.357 1179.74 151.552 Q1178.42 149.746 1175.71 149.746 Q1172.4 149.746 1170.48 151.945 Q1168.56 154.144 1168.56 157.94 L1168.56 172.593 L1164.28 172.593 L1164.28 157.084 Q1164.28 153.334 1162.96 151.552 Q1161.64 149.746 1158.89 149.746 Q1155.62 149.746 1153.7 151.968 Q1151.78 154.167 1151.78 157.94 L1151.78 172.593 L1147.5 172.593 L1147.5 146.667 L1151.78 146.667 L1151.78 150.695 Q1153.24 148.311 1155.27 147.177 Q1157.31 146.042 1160.11 146.042 Q1162.94 146.042 1164.9 147.478 Q1166.89 148.913 1167.84 151.644 Z" fill="#000000" fill-rule="nonzero" fill-opacity="1" /><polyline clip-path="url(#clip460)" style="stroke:#bbbbbb; stroke-linecap:round; stroke-linejoin:round; stroke-width:4; stroke-opacity:1; fill:none" points="624.954,207.153 699.556,207.153 "/>
<path clip-path="url(#clip460)" d="M711.99 189.873 L716.665 189.873 L716.665 224.433 L711.99 224.433 L711.99 189.873 Z" fill="#000000" fill-rule="nonzero" fill-opacity="1" /><path clip-path="url(#clip460)" d="M747.337 208.785 L747.337 224.433 L743.077 224.433 L743.077 208.924 Q743.077 205.243 741.642 203.415 Q740.207 201.586 737.337 201.586 Q733.888 201.586 731.897 203.785 Q729.906 205.984 729.906 209.78 L729.906 224.433 L725.624 224.433 L725.624 198.507 L729.906 198.507 L729.906 202.535 Q731.434 200.197 733.494 199.04 Q735.577 197.882 738.286 197.882 Q742.753 197.882 745.045 200.66 Q747.337 203.415 747.337 208.785 Z" fill="#000000" fill-rule="nonzero" fill-opacity="1" /><path clip-path="url(#clip460)" d="M768.957 188.415 L768.957 191.957 L764.883 191.957 Q762.591 191.957 761.688 192.882 Q760.809 193.808 760.809 196.216 L760.809 198.507 L767.823 198.507 L767.823 201.818 L760.809 201.818 L760.809 224.433 L756.526 224.433 L756.526 201.818 L752.452 201.818 L752.452 198.507 L756.526 198.507 L756.526 196.702 Q756.526 192.373 758.54 190.406 Q760.554 188.415 764.929 188.415 L768.957 188.415 Z" fill="#000000" fill-rule="nonzero" fill-opacity="1" /><path clip-path="url(#clip460)" d="M794.697 210.405 L794.697 212.489 L775.114 212.489 Q775.392 216.887 777.753 219.202 Q780.137 221.493 784.373 221.493 Q786.827 221.493 789.119 220.892 Q791.434 220.29 793.702 219.086 L793.702 223.114 Q791.41 224.086 789.003 224.595 Q786.596 225.104 784.119 225.104 Q777.915 225.104 774.281 221.493 Q770.67 217.882 770.67 211.725 Q770.67 205.359 774.096 201.632 Q777.545 197.882 783.378 197.882 Q788.61 197.882 791.642 201.262 Q794.697 204.618 794.697 210.405 M790.438 209.155 Q790.392 205.66 788.471 203.577 Q786.573 201.493 783.424 201.493 Q779.86 201.493 777.707 203.507 Q775.577 205.521 775.253 209.179 L790.438 209.155 Z" fill="#000000" fill-rule="nonzero" fill-opacity="1" /><path clip-path="url(#clip460)" d="M816.711 202.489 Q815.994 202.072 815.137 201.887 Q814.304 201.679 813.285 201.679 Q809.674 201.679 807.73 204.04 Q805.809 206.378 805.809 210.776 L805.809 224.433 L801.526 224.433 L801.526 198.507 L805.809 198.507 L805.809 202.535 Q807.151 200.174 809.304 199.04 Q811.457 197.882 814.535 197.882 Q814.975 197.882 815.508 197.952 Q816.04 197.998 816.688 198.114 L816.711 202.489 Z" fill="#000000" fill-rule="nonzero" fill-opacity="1" /><path clip-path="url(#clip460)" d="M835.369 202.489 Q834.651 202.072 833.794 201.887 Q832.961 201.679 831.943 201.679 Q828.332 201.679 826.387 204.04 Q824.466 206.378 824.466 210.776 L824.466 224.433 L820.183 224.433 L820.183 198.507 L824.466 198.507 L824.466 202.535 Q825.808 200.174 827.961 199.04 Q830.114 197.882 833.193 197.882 Q833.632 197.882 834.165 197.952 Q834.697 197.998 835.345 198.114 L835.369 202.489 Z" fill="#000000" fill-rule="nonzero" fill-opacity="1" /><path clip-path="url(#clip460)" d="M860.97 210.405 L860.97 212.489 L841.387 212.489 Q841.665 216.887 844.026 219.202 Q846.41 221.493 850.646 221.493 Q853.1 221.493 855.392 220.892 Q857.706 220.29 859.975 219.086 L859.975 223.114 Q857.683 224.086 855.276 224.595 Q852.868 225.104 850.392 225.104 Q844.188 225.104 840.554 221.493 Q836.943 217.882 836.943 211.725 Q836.943 205.359 840.369 201.632 Q843.818 197.882 849.651 197.882 Q854.882 197.882 857.915 201.262 Q860.97 204.618 860.97 210.405 M856.711 209.155 Q856.665 205.66 854.743 203.577 Q852.845 201.493 849.697 201.493 Q846.132 201.493 843.98 203.507 Q841.85 205.521 841.526 209.179 L856.711 209.155 Z" fill="#000000" fill-rule="nonzero" fill-opacity="1" /><path clip-path="url(#clip460)" d="M885.021 202.443 L885.021 188.415 L889.28 188.415 L889.28 224.433 L885.021 224.433 L885.021 220.544 Q883.678 222.859 881.618 223.993 Q879.581 225.104 876.711 225.104 Q872.012 225.104 869.049 221.355 Q866.109 217.605 866.109 211.493 Q866.109 205.382 869.049 201.632 Q872.012 197.882 876.711 197.882 Q879.581 197.882 881.618 199.017 Q883.678 200.128 885.021 202.443 M870.507 211.493 Q870.507 216.192 872.429 218.878 Q874.373 221.54 877.753 221.54 Q881.132 221.54 883.077 218.878 Q885.021 216.192 885.021 211.493 Q885.021 206.794 883.077 204.132 Q881.132 201.447 877.753 201.447 Q874.373 201.447 872.429 204.132 Q870.507 206.794 870.507 211.493 Z" fill="#000000" fill-rule="nonzero" fill-opacity="1" /><path clip-path="url(#clip460)" d="M926.248 188.415 L926.248 191.957 L922.174 191.957 Q919.882 191.957 918.979 192.882 Q918.1 193.808 918.1 196.216 L918.1 198.507 L925.113 198.507 L925.113 201.818 L918.1 201.818 L918.1 224.433 L913.817 224.433 L913.817 201.818 L909.743 201.818 L909.743 198.507 L913.817 198.507 L913.817 196.702 Q913.817 192.373 915.831 190.406 Q917.845 188.415 922.22 188.415 L926.248 188.415 Z" fill="#000000" fill-rule="nonzero" fill-opacity="1" /><path clip-path="url(#clip460)" d="M929.373 214.202 L929.373 198.507 L933.632 198.507 L933.632 214.04 Q933.632 217.72 935.067 219.572 Q936.502 221.401 939.373 221.401 Q942.822 221.401 944.812 219.202 Q946.826 217.003 946.826 213.206 L946.826 198.507 L951.086 198.507 L951.086 224.433 L946.826 224.433 L946.826 220.452 Q945.275 222.813 943.215 223.97 Q941.178 225.104 938.47 225.104 Q934.002 225.104 931.687 222.327 Q929.373 219.549 929.373 214.202 M940.09 197.882 L940.09 197.882 Z" fill="#000000" fill-rule="nonzero" fill-opacity="1" /><path clip-path="url(#clip460)" d="M981.409 208.785 L981.409 224.433 L977.15 224.433 L977.15 208.924 Q977.15 205.243 975.715 203.415 Q974.28 201.586 971.409 201.586 Q967.96 201.586 965.97 203.785 Q963.979 205.984 963.979 209.78 L963.979 224.433 L959.697 224.433 L959.697 198.507 L963.979 198.507 L963.979 202.535 Q965.507 200.197 967.567 199.04 Q969.65 197.882 972.359 197.882 Q976.826 197.882 979.118 200.66 Q981.409 203.415 981.409 208.785 Z" fill="#000000" fill-rule="nonzero" fill-opacity="1" /><path clip-path="url(#clip460)" d="M1008.56 199.503 L1008.56 203.484 Q1006.76 202.489 1004.93 202.003 Q1003.12 201.493 1001.27 201.493 Q997.127 201.493 994.835 204.132 Q992.544 206.748 992.544 211.493 Q992.544 216.239 994.835 218.878 Q997.127 221.493 1001.27 221.493 Q1003.12 221.493 1004.93 221.007 Q1006.76 220.498 1008.56 219.503 L1008.56 223.438 Q1006.78 224.271 1004.86 224.688 Q1002.96 225.104 1000.81 225.104 Q994.951 225.104 991.502 221.424 Q988.053 217.743 988.053 211.493 Q988.053 205.151 991.525 201.517 Q995.02 197.882 1001.09 197.882 Q1003.05 197.882 1004.93 198.299 Q1006.8 198.693 1008.56 199.503 Z" fill="#000000" fill-rule="nonzero" fill-opacity="1" /><path clip-path="url(#clip460)" d="M1020.18 191.146 L1020.18 198.507 L1028.96 198.507 L1028.96 201.818 L1020.18 201.818 L1020.18 215.892 Q1020.18 219.063 1021.04 219.966 Q1021.92 220.868 1024.58 220.868 L1028.96 220.868 L1028.96 224.433 L1024.58 224.433 Q1019.65 224.433 1017.77 222.604 Q1015.9 220.753 1015.9 215.892 L1015.9 201.818 L1012.78 201.818 L1012.78 198.507 L1015.9 198.507 L1015.9 191.146 L1020.18 191.146 Z" fill="#000000" fill-rule="nonzero" fill-opacity="1" /><path clip-path="url(#clip460)" d="M1034.56 198.507 L1038.82 198.507 L1038.82 224.433 L1034.56 224.433 L1034.56 198.507 M1034.56 188.415 L1038.82 188.415 L1038.82 193.808 L1034.56 193.808 L1034.56 188.415 Z" fill="#000000" fill-rule="nonzero" fill-opacity="1" /><path clip-path="url(#clip460)" d="M1057.77 201.493 Q1054.35 201.493 1052.36 204.179 Q1050.37 206.841 1050.37 211.493 Q1050.37 216.146 1052.33 218.831 Q1054.33 221.493 1057.77 221.493 Q1061.18 221.493 1063.17 218.808 Q1065.16 216.123 1065.16 211.493 Q1065.16 206.887 1063.17 204.202 Q1061.18 201.493 1057.77 201.493 M1057.77 197.882 Q1063.33 197.882 1066.5 201.493 Q1069.67 205.105 1069.67 211.493 Q1069.67 217.859 1066.5 221.493 Q1063.33 225.104 1057.77 225.104 Q1052.2 225.104 1049.02 221.493 Q1045.88 217.859 1045.88 211.493 Q1045.88 205.105 1049.02 201.493 Q1052.2 197.882 1057.77 197.882 Z" fill="#000000" fill-rule="nonzero" fill-opacity="1" /><path clip-path="url(#clip460)" d="M1098.28 208.785 L1098.28 224.433 L1094.02 224.433 L1094.02 208.924 Q1094.02 205.243 1092.59 203.415 Q1091.15 201.586 1088.28 201.586 Q1084.83 201.586 1082.84 203.785 Q1080.85 205.984 1080.85 209.78 L1080.85 224.433 L1076.57 224.433 L1076.57 198.507 L1080.85 198.507 L1080.85 202.535 Q1082.38 200.197 1084.44 199.04 Q1086.52 197.882 1089.23 197.882 Q1093.7 197.882 1095.99 200.66 Q1098.28 203.415 1098.28 208.785 Z" fill="#000000" fill-rule="nonzero" fill-opacity="1" /><path clip-path="url(#clip460)" d="M1118.56 211.401 Q1113.4 211.401 1111.41 212.581 Q1109.42 213.762 1109.42 216.609 Q1109.42 218.878 1110.9 220.22 Q1112.4 221.54 1114.97 221.54 Q1118.52 221.54 1120.64 219.04 Q1122.8 216.517 1122.8 212.35 L1122.8 211.401 L1118.56 211.401 M1127.06 209.642 L1127.06 224.433 L1122.8 224.433 L1122.8 220.498 Q1121.34 222.859 1119.16 223.993 Q1116.99 225.104 1113.84 225.104 Q1109.86 225.104 1107.5 222.882 Q1105.16 220.637 1105.16 216.887 Q1105.16 212.512 1108.08 210.29 Q1111.02 208.068 1116.83 208.068 L1122.8 208.068 L1122.8 207.651 Q1122.8 204.711 1120.85 203.114 Q1118.93 201.493 1115.44 201.493 Q1113.21 201.493 1111.11 202.026 Q1109 202.558 1107.06 203.623 L1107.06 199.688 Q1109.39 198.785 1111.59 198.345 Q1113.79 197.882 1115.88 197.882 Q1121.5 197.882 1124.28 200.799 Q1127.06 203.716 1127.06 209.642 Z" fill="#000000" fill-rule="nonzero" fill-opacity="1" /><path clip-path="url(#clip460)" d="M1135.83 188.415 L1140.09 188.415 L1140.09 224.433 L1135.83 224.433 L1135.83 188.415 Z" fill="#000000" fill-rule="nonzero" fill-opacity="1" /><path clip-path="url(#clip460)" d="M1177.2 188.415 L1177.2 191.957 L1173.12 191.957 Q1170.83 191.957 1169.93 192.882 Q1169.05 193.808 1169.05 196.216 L1169.05 198.507 L1176.06 198.507 L1176.06 201.818 L1169.05 201.818 L1169.05 224.433 L1164.76 224.433 L1164.76 201.818 L1160.69 201.818 L1160.69 198.507 L1164.76 198.507 L1164.76 196.702 Q1164.76 192.373 1166.78 190.406 Q1168.79 188.415 1173.17 188.415 L1177.2 188.415 Z" fill="#000000" fill-rule="nonzero" fill-opacity="1" /><path clip-path="url(#clip460)" d="M1190.81 201.493 Q1187.38 201.493 1185.39 204.179 Q1183.4 206.841 1183.4 211.493 Q1183.4 216.146 1185.37 218.831 Q1187.36 221.493 1190.81 221.493 Q1194.21 221.493 1196.2 218.808 Q1198.19 216.123 1198.19 211.493 Q1198.19 206.887 1196.2 204.202 Q1194.21 201.493 1190.81 201.493 M1190.81 197.882 Q1196.36 197.882 1199.53 201.493 Q1202.7 205.105 1202.7 211.493 Q1202.7 217.859 1199.53 221.493 Q1196.36 225.104 1190.81 225.104 Q1185.23 225.104 1182.06 221.493 Q1178.91 217.859 1178.91 211.493 Q1178.91 205.105 1182.06 201.493 Q1185.23 197.882 1190.81 197.882 Z" fill="#000000" fill-rule="nonzero" fill-opacity="1" /><path clip-path="url(#clip460)" d="M1224.79 202.489 Q1224.07 202.072 1223.21 201.887 Q1222.38 201.679 1221.36 201.679 Q1217.75 201.679 1215.81 204.04 Q1213.89 206.378 1213.89 210.776 L1213.89 224.433 L1209.6 224.433 L1209.6 198.507 L1213.89 198.507 L1213.89 202.535 Q1215.23 200.174 1217.38 199.04 Q1219.53 197.882 1222.61 197.882 Q1223.05 197.882 1223.58 197.952 Q1224.12 197.998 1224.76 198.114 L1224.79 202.489 Z" fill="#000000" fill-rule="nonzero" fill-opacity="1" /><path clip-path="url(#clip460)" d="M1248.61 203.484 Q1250.2 200.614 1252.43 199.248 Q1254.65 197.882 1257.66 197.882 Q1261.71 197.882 1263.91 200.73 Q1266.11 203.554 1266.11 208.785 L1266.11 224.433 L1261.82 224.433 L1261.82 208.924 Q1261.82 205.197 1260.51 203.392 Q1259.19 201.586 1256.48 201.586 Q1253.17 201.586 1251.25 203.785 Q1249.32 205.984 1249.32 209.78 L1249.32 224.433 L1245.04 224.433 L1245.04 208.924 Q1245.04 205.174 1243.72 203.392 Q1242.4 201.586 1239.65 201.586 Q1236.38 201.586 1234.46 203.808 Q1232.54 206.007 1232.54 209.78 L1232.54 224.433 L1228.26 224.433 L1228.26 198.507 L1232.54 198.507 L1232.54 202.535 Q1234 200.151 1236.04 199.017 Q1238.07 197.882 1240.88 197.882 Q1243.7 197.882 1245.67 199.318 Q1247.66 200.753 1248.61 203.484 Z" fill="#000000" fill-rule="nonzero" fill-opacity="1" /><path clip-path="url(#clip460)" d="M1521.73 1734.12 L2640.76 1734.12 L2640.76 47.2441 L1521.73 47.2441  Z" fill="#ffffff" fill-rule="evenodd" fill-opacity="1"/>
<defs>
  <clipPath id="clip463">
    <rect x="1521" y="47" width="1120" height="1688"/>
  </clipPath>
</defs>
<polyline clip-path="url(#clip463)" style="stroke:#000000; stroke-linecap:round; stroke-linejoin:round; stroke-width:2; stroke-opacity:0.1; fill:none" points="1526.92,1734.12 1526.92,47.2441 "/>
<polyline clip-path="url(#clip463)" style="stroke:#000000; stroke-linecap:round; stroke-linejoin:round; stroke-width:2; stroke-opacity:0.1; fill:none" points="1733.39,1734.12 1733.39,47.2441 "/>
<polyline clip-path="url(#clip463)" style="stroke:#000000; stroke-linecap:round; stroke-linejoin:round; stroke-width:2; stroke-opacity:0.1; fill:none" points="1939.87,1734.12 1939.87,47.2441 "/>
<polyline clip-path="url(#clip463)" style="stroke:#000000; stroke-linecap:round; stroke-linejoin:round; stroke-width:2; stroke-opacity:0.1; fill:none" points="2146.34,1734.12 2146.34,47.2441 "/>
<polyline clip-path="url(#clip463)" style="stroke:#000000; stroke-linecap:round; stroke-linejoin:round; stroke-width:2; stroke-opacity:0.1; fill:none" points="2352.82,1734.12 2352.82,47.2441 "/>
<polyline clip-path="url(#clip463)" style="stroke:#000000; stroke-linecap:round; stroke-linejoin:round; stroke-width:2; stroke-opacity:0.1; fill:none" points="2559.3,1734.12 2559.3,47.2441 "/>
<polyline clip-path="url(#clip460)" style="stroke:#000000; stroke-linecap:round; stroke-linejoin:round; stroke-width:4; stroke-opacity:1; fill:none" points="1521.73,1734.12 2640.76,1734.12 "/>
<polyline clip-path="url(#clip460)" style="stroke:#000000; stroke-linecap:round; stroke-linejoin:round; stroke-width:4; stroke-opacity:1; fill:none" points="1526.92,1734.12 1526.92,1715.22 "/>
<polyline clip-path="url(#clip460)" style="stroke:#000000; stroke-linecap:round; stroke-linejoin:round; stroke-width:4; stroke-opacity:1; fill:none" points="1733.39,1734.12 1733.39,1715.22 "/>
<polyline clip-path="url(#clip460)" style="stroke:#000000; stroke-linecap:round; stroke-linejoin:round; stroke-width:4; stroke-opacity:1; fill:none" points="1939.87,1734.12 1939.87,1715.22 "/>
<polyline clip-path="url(#clip460)" style="stroke:#000000; stroke-linecap:round; stroke-linejoin:round; stroke-width:4; stroke-opacity:1; fill:none" points="2146.34,1734.12 2146.34,1715.22 "/>
<polyline clip-path="url(#clip460)" style="stroke:#000000; stroke-linecap:round; stroke-linejoin:round; stroke-width:4; stroke-opacity:1; fill:none" points="2352.82,1734.12 2352.82,1715.22 "/>
<polyline clip-path="url(#clip460)" style="stroke:#000000; stroke-linecap:round; stroke-linejoin:round; stroke-width:4; stroke-opacity:1; fill:none" points="2559.3,1734.12 2559.3,1715.22 "/>
<path clip-path="url(#clip460)" d="M1517.3 1794.89 L1524.94 1794.89 L1524.94 1768.52 L1516.63 1770.19 L1516.63 1765.93 L1524.89 1764.26 L1529.57 1764.26 L1529.57 1794.89 L1537.2 1794.89 L1537.2 1798.82 L1517.3 1798.82 L1517.3 1794.89 Z" fill="#000000" fill-rule="nonzero" fill-opacity="1" /><path clip-path="url(#clip460)" d="M1728.04 1794.89 L1744.36 1794.89 L1744.36 1798.82 L1722.42 1798.82 L1722.42 1794.89 Q1725.08 1792.13 1729.66 1787.5 Q1734.27 1782.85 1735.45 1781.51 Q1737.7 1778.98 1738.58 1777.25 Q1739.48 1775.49 1739.48 1773.8 Q1739.48 1771.04 1737.53 1769.31 Q1735.61 1767.57 1732.51 1767.57 Q1730.31 1767.57 1727.86 1768.34 Q1725.43 1769.1 1722.65 1770.65 L1722.65 1765.93 Q1725.47 1764.79 1727.93 1764.21 Q1730.38 1763.64 1732.42 1763.64 Q1737.79 1763.64 1740.98 1766.32 Q1744.18 1769.01 1744.18 1773.5 Q1744.18 1775.63 1743.37 1777.55 Q1742.58 1779.45 1740.47 1782.04 Q1739.9 1782.71 1736.79 1785.93 Q1733.69 1789.12 1728.04 1794.89 Z" fill="#000000" fill-rule="nonzero" fill-opacity="1" /><path clip-path="url(#clip460)" d="M1944.12 1780.19 Q1947.47 1780.9 1949.35 1783.17 Q1951.24 1785.44 1951.24 1788.77 Q1951.24 1793.89 1947.73 1796.69 Q1944.21 1799.49 1937.73 1799.49 Q1935.55 1799.49 1933.24 1799.05 Q1930.94 1798.64 1928.49 1797.78 L1928.49 1793.27 Q1930.43 1794.4 1932.75 1794.98 Q1935.06 1795.56 1937.59 1795.56 Q1941.99 1795.56 1944.28 1793.82 Q1946.59 1792.08 1946.59 1788.77 Q1946.59 1785.72 1944.44 1784.01 Q1942.31 1782.27 1938.49 1782.27 L1934.46 1782.27 L1934.46 1778.43 L1938.68 1778.43 Q1942.12 1778.43 1943.95 1777.06 Q1945.78 1775.67 1945.78 1773.08 Q1945.78 1770.42 1943.88 1769.01 Q1942.01 1767.57 1938.49 1767.57 Q1936.57 1767.57 1934.37 1767.99 Q1932.17 1768.4 1929.53 1769.28 L1929.53 1765.12 Q1932.19 1764.38 1934.51 1764.01 Q1936.85 1763.64 1938.91 1763.64 Q1944.23 1763.64 1947.33 1766.07 Q1950.43 1768.47 1950.43 1772.59 Q1950.43 1775.46 1948.79 1777.46 Q1947.15 1779.42 1944.12 1780.19 Z" fill="#000000" fill-rule="nonzero" fill-opacity="1" /><path clip-path="url(#clip460)" d="M2149.35 1768.34 L2137.55 1786.78 L2149.35 1786.78 L2149.35 1768.34 M2148.13 1764.26 L2154.01 1764.26 L2154.01 1786.78 L2158.94 1786.78 L2158.94 1790.67 L2154.01 1790.67 L2154.01 1798.82 L2149.35 1798.82 L2149.35 1790.67 L2133.75 1790.67 L2133.75 1786.16 L2148.13 1764.26 Z" fill="#000000" fill-rule="nonzero" fill-opacity="1" /><path clip-path="url(#clip460)" d="M2343.1 1764.26 L2361.45 1764.26 L2361.45 1768.2 L2347.38 1768.2 L2347.38 1776.67 Q2348.4 1776.32 2349.42 1776.16 Q2350.44 1775.97 2351.45 1775.97 Q2357.24 1775.97 2360.62 1779.15 Q2364 1782.32 2364 1787.73 Q2364 1793.31 2360.53 1796.41 Q2357.06 1799.49 2350.74 1799.49 Q2348.56 1799.49 2346.29 1799.12 Q2344.05 1798.75 2341.64 1798.01 L2341.64 1793.31 Q2343.72 1794.45 2345.95 1795 Q2348.17 1795.56 2350.64 1795.56 Q2354.65 1795.56 2356.99 1793.45 Q2359.32 1791.34 2359.32 1787.73 Q2359.32 1784.12 2356.99 1782.02 Q2354.65 1779.91 2350.64 1779.91 Q2348.77 1779.91 2346.89 1780.33 Q2345.04 1780.74 2343.1 1781.62 L2343.1 1764.26 Z" fill="#000000" fill-rule="nonzero" fill-opacity="1" /><path clip-path="url(#clip460)" d="M2559.7 1779.68 Q2556.55 1779.68 2554.7 1781.83 Q2552.87 1783.98 2552.87 1787.73 Q2552.87 1791.46 2554.7 1793.64 Q2556.55 1795.79 2559.7 1795.79 Q2562.85 1795.79 2564.68 1793.64 Q2566.53 1791.46 2566.53 1787.73 Q2566.53 1783.98 2564.68 1781.83 Q2562.85 1779.68 2559.7 1779.68 M2568.98 1765.02 L2568.98 1769.28 Q2567.22 1768.45 2565.42 1768.01 Q2563.64 1767.57 2561.88 1767.57 Q2557.25 1767.57 2554.79 1770.7 Q2552.36 1773.82 2552.02 1780.14 Q2553.38 1778.13 2555.44 1777.06 Q2557.5 1775.97 2559.98 1775.97 Q2565.19 1775.97 2568.2 1779.15 Q2571.23 1782.29 2571.23 1787.73 Q2571.23 1793.06 2568.08 1796.27 Q2564.93 1799.49 2559.7 1799.49 Q2553.71 1799.49 2550.53 1794.91 Q2547.36 1790.3 2547.36 1781.58 Q2547.36 1773.38 2551.25 1768.52 Q2555.14 1763.64 2561.69 1763.64 Q2563.45 1763.64 2565.23 1763.98 Q2567.04 1764.33 2568.98 1765.02 Z" fill="#000000" fill-rule="nonzero" fill-opacity="1" /><path clip-path="url(#clip460)" d="M1829.88 1841.06 L1829.88 1858.92 L1837.96 1858.92 Q1842.45 1858.92 1844.9 1856.6 Q1847.35 1854.27 1847.35 1849.98 Q1847.35 1845.71 1844.9 1843.39 Q1842.45 1841.06 1837.96 1841.06 L1829.88 1841.06 M1823.45 1835.78 L1837.96 1835.78 Q1845.95 1835.78 1850.02 1839.41 Q1854.13 1843.01 1854.13 1849.98 Q1854.13 1857.01 1850.02 1860.61 Q1845.95 1864.2 1837.96 1864.2 L1829.88 1864.2 L1829.88 1883.3 L1823.45 1883.3 L1823.45 1835.78 Z" fill="#000000" fill-rule="nonzero" fill-opacity="1" /><path clip-path="url(#clip460)" d="M1882.01 1853.13 Q1881.03 1852.55 1879.85 1852.3 Q1878.7 1852.01 1877.3 1852.01 Q1872.34 1852.01 1869.66 1855.26 Q1867.02 1858.47 1867.02 1864.52 L1867.02 1883.3 L1861.13 1883.3 L1861.13 1847.65 L1867.02 1847.65 L1867.02 1853.19 Q1868.87 1849.94 1871.83 1848.39 Q1874.79 1846.79 1879.02 1846.79 Q1879.63 1846.79 1880.36 1846.89 Q1881.09 1846.95 1881.98 1847.11 L1882.01 1853.13 Z" fill="#000000" fill-rule="nonzero" fill-opacity="1" /><path clip-path="url(#clip460)" d="M1917.21 1864.01 L1917.21 1866.88 L1890.29 1866.88 Q1890.67 1872.92 1893.92 1876.11 Q1897.19 1879.26 1903.02 1879.26 Q1906.39 1879.26 1909.54 1878.43 Q1912.73 1877.6 1915.85 1875.95 L1915.85 1881.49 Q1912.7 1882.82 1909.39 1883.52 Q1906.07 1884.22 1902.67 1884.22 Q1894.14 1884.22 1889.14 1879.26 Q1884.18 1874.29 1884.18 1865.83 Q1884.18 1857.07 1888.89 1851.95 Q1893.63 1846.79 1901.65 1846.79 Q1908.84 1846.79 1913.01 1851.44 Q1917.21 1856.06 1917.21 1864.01 M1911.36 1862.29 Q1911.29 1857.49 1908.65 1854.62 Q1906.04 1851.76 1901.71 1851.76 Q1896.81 1851.76 1893.85 1854.53 Q1890.92 1857.3 1890.48 1862.33 L1911.36 1862.29 Z" fill="#000000" fill-rule="nonzero" fill-opacity="1" /><path clip-path="url(#clip460)" d="M1941.66 1886.61 Q1939.18 1892.98 1936.82 1894.92 Q1934.47 1896.86 1930.52 1896.86 L1925.84 1896.86 L1925.84 1891.96 L1929.28 1891.96 Q1931.7 1891.96 1933.03 1890.81 Q1934.37 1889.67 1935.99 1885.4 L1937.04 1882.73 L1922.63 1847.65 L1928.83 1847.65 L1939.97 1875.53 L1951.11 1847.65 L1957.32 1847.65 L1941.66 1886.61 Z" fill="#000000" fill-rule="nonzero" fill-opacity="1" /><path clip-path="url(#clip460)" d="M2002.32 1865.38 Q1995.23 1865.38 1992.49 1867 Q1989.75 1868.63 1989.75 1872.54 Q1989.75 1875.66 1991.79 1877.51 Q1993.86 1879.32 1997.39 1879.32 Q2002.26 1879.32 2005.19 1875.88 Q2008.15 1872.42 2008.15 1866.69 L2008.15 1865.38 L2002.32 1865.38 M2014.01 1862.96 L2014.01 1883.3 L2008.15 1883.3 L2008.15 1877.89 Q2006.14 1881.14 2003.15 1882.7 Q2000.16 1884.22 1995.83 1884.22 Q1990.36 1884.22 1987.11 1881.17 Q1983.9 1878.08 1983.9 1872.92 Q1983.9 1866.91 1987.91 1863.85 Q1991.95 1860.8 1999.94 1860.8 L2008.15 1860.8 L2008.15 1860.23 Q2008.15 1856.18 2005.48 1853.99 Q2002.83 1851.76 1998.03 1851.76 Q1994.97 1851.76 1992.08 1852.49 Q1989.18 1853.22 1986.51 1854.69 L1986.51 1849.28 Q1989.72 1848.03 1992.74 1847.43 Q1995.77 1846.79 1998.63 1846.79 Q2006.37 1846.79 2010.19 1850.8 Q2014.01 1854.81 2014.01 1862.96 Z" fill="#000000" fill-rule="nonzero" fill-opacity="1" /><path clip-path="url(#clip460)" d="M2051.66 1865.51 Q2051.66 1859.05 2048.98 1855.39 Q2046.34 1851.7 2041.7 1851.7 Q2037.05 1851.7 2034.38 1855.39 Q2031.73 1859.05 2031.73 1865.51 Q2031.73 1871.97 2034.38 1875.66 Q2037.05 1879.32 2041.7 1879.32 Q2046.34 1879.32 2048.98 1875.66 Q2051.66 1871.97 2051.66 1865.51 M2031.73 1853.06 Q2033.58 1849.88 2036.38 1848.35 Q2039.21 1846.79 2043.13 1846.79 Q2049.62 1846.79 2053.66 1851.95 Q2057.74 1857.11 2057.74 1865.51 Q2057.74 1873.91 2053.66 1879.07 Q2049.62 1884.22 2043.13 1884.22 Q2039.21 1884.22 2036.38 1882.7 Q2033.58 1881.14 2031.73 1877.95 L2031.73 1883.3 L2025.85 1883.3 L2025.85 1833.78 L2031.73 1833.78 L2031.73 1853.06 Z" fill="#000000" fill-rule="nonzero" fill-opacity="1" /><path clip-path="url(#clip460)" d="M2066.84 1869.23 L2066.84 1847.65 L2072.7 1847.65 L2072.7 1869.01 Q2072.7 1874.07 2074.67 1876.62 Q2076.64 1879.13 2080.59 1879.13 Q2085.33 1879.13 2088.07 1876.11 Q2090.84 1873.08 2090.84 1867.86 L2090.84 1847.65 L2096.7 1847.65 L2096.7 1883.3 L2090.84 1883.3 L2090.84 1877.83 Q2088.71 1881.07 2085.87 1882.66 Q2083.07 1884.22 2079.35 1884.22 Q2073.21 1884.22 2070.02 1880.4 Q2066.84 1876.59 2066.84 1869.23 M2081.58 1846.79 L2081.58 1846.79 Z" fill="#000000" fill-rule="nonzero" fill-opacity="1" /><path clip-path="url(#clip460)" d="M2138.39 1861.78 L2138.39 1883.3 L2132.53 1883.3 L2132.53 1861.98 Q2132.53 1856.92 2130.56 1854.4 Q2128.59 1851.89 2124.64 1851.89 Q2119.9 1851.89 2117.16 1854.91 Q2114.42 1857.93 2114.42 1863.15 L2114.42 1883.3 L2108.54 1883.3 L2108.54 1847.65 L2114.42 1847.65 L2114.42 1853.19 Q2116.53 1849.98 2119.36 1848.39 Q2122.22 1846.79 2125.95 1846.79 Q2132.09 1846.79 2135.24 1850.61 Q2138.39 1854.4 2138.39 1861.78 Z" fill="#000000" fill-rule="nonzero" fill-opacity="1" /><path clip-path="url(#clip460)" d="M2173.53 1853.06 L2173.53 1833.78 L2179.39 1833.78 L2179.39 1883.3 L2173.53 1883.3 L2173.53 1877.95 Q2171.68 1881.14 2168.85 1882.7 Q2166.05 1884.22 2162.1 1884.22 Q2155.64 1884.22 2151.57 1879.07 Q2147.53 1873.91 2147.53 1865.51 Q2147.53 1857.11 2151.57 1851.95 Q2155.64 1846.79 2162.1 1846.79 Q2166.05 1846.79 2168.85 1848.35 Q2171.68 1849.88 2173.53 1853.06 M2153.57 1865.51 Q2153.57 1871.97 2156.22 1875.66 Q2158.89 1879.32 2163.54 1879.32 Q2168.18 1879.32 2170.86 1875.66 Q2173.53 1871.97 2173.53 1865.51 Q2173.53 1859.05 2170.86 1855.39 Q2168.18 1851.7 2163.54 1851.7 Q2158.89 1851.7 2156.22 1855.39 Q2153.57 1859.05 2153.57 1865.51 Z" fill="#000000" fill-rule="nonzero" fill-opacity="1" /><path clip-path="url(#clip460)" d="M2207.65 1865.38 Q2200.55 1865.38 2197.82 1867 Q2195.08 1868.63 2195.08 1872.54 Q2195.08 1875.66 2197.11 1877.51 Q2199.18 1879.32 2202.72 1879.32 Q2207.59 1879.32 2210.51 1875.88 Q2213.47 1872.42 2213.47 1866.69 L2213.47 1865.38 L2207.65 1865.38 M2219.33 1862.96 L2219.33 1883.3 L2213.47 1883.3 L2213.47 1877.89 Q2211.47 1881.14 2208.48 1882.7 Q2205.49 1884.22 2201.16 1884.22 Q2195.68 1884.22 2192.44 1881.17 Q2189.22 1878.08 2189.22 1872.92 Q2189.22 1866.91 2193.23 1863.85 Q2197.27 1860.8 2205.26 1860.8 L2213.47 1860.8 L2213.47 1860.23 Q2213.47 1856.18 2210.8 1853.99 Q2208.16 1851.76 2203.35 1851.76 Q2200.3 1851.76 2197.4 1852.49 Q2194.51 1853.22 2191.83 1854.69 L2191.83 1849.28 Q2195.05 1848.03 2198.07 1847.43 Q2201.09 1846.79 2203.96 1846.79 Q2211.69 1846.79 2215.51 1850.8 Q2219.33 1854.81 2219.33 1862.96 Z" fill="#000000" fill-rule="nonzero" fill-opacity="1" /><path clip-path="url(#clip460)" d="M2261.03 1861.78 L2261.03 1883.3 L2255.17 1883.3 L2255.17 1861.98 Q2255.17 1856.92 2253.2 1854.4 Q2251.22 1851.89 2247.28 1851.89 Q2242.53 1851.89 2239.8 1854.91 Q2237.06 1857.93 2237.06 1863.15 L2237.06 1883.3 L2231.17 1883.3 L2231.17 1847.65 L2237.06 1847.65 L2237.06 1853.19 Q2239.16 1849.98 2241.99 1848.39 Q2244.86 1846.79 2248.58 1846.79 Q2254.72 1846.79 2257.88 1850.61 Q2261.03 1854.4 2261.03 1861.78 Z" fill="#000000" fill-rule="nonzero" fill-opacity="1" /><path clip-path="url(#clip460)" d="M2298.36 1849.02 L2298.36 1854.5 Q2295.88 1853.13 2293.36 1852.46 Q2290.88 1851.76 2288.34 1851.76 Q2282.64 1851.76 2279.49 1855.39 Q2276.34 1858.98 2276.34 1865.51 Q2276.34 1872.03 2279.49 1875.66 Q2282.64 1879.26 2288.34 1879.26 Q2290.88 1879.26 2293.36 1878.59 Q2295.88 1877.89 2298.36 1876.52 L2298.36 1881.93 Q2295.91 1883.08 2293.27 1883.65 Q2290.66 1884.22 2287.7 1884.22 Q2279.65 1884.22 2274.9 1879.16 Q2270.16 1874.1 2270.16 1865.51 Q2270.16 1856.79 2274.94 1851.79 Q2279.74 1846.79 2288.08 1846.79 Q2290.79 1846.79 2293.36 1847.37 Q2295.94 1847.91 2298.36 1849.02 Z" fill="#000000" fill-rule="nonzero" fill-opacity="1" /><path clip-path="url(#clip460)" d="M2339.04 1864.01 L2339.04 1866.88 L2312.11 1866.88 Q2312.49 1872.92 2315.74 1876.11 Q2319.02 1879.26 2324.84 1879.26 Q2328.22 1879.26 2331.37 1878.43 Q2334.55 1877.6 2337.67 1875.95 L2337.67 1881.49 Q2334.52 1882.82 2331.21 1883.52 Q2327.9 1884.22 2324.49 1884.22 Q2315.96 1884.22 2310.97 1879.26 Q2306 1874.29 2306 1865.83 Q2306 1857.07 2310.71 1851.95 Q2315.45 1846.79 2323.47 1846.79 Q2330.67 1846.79 2334.84 1851.44 Q2339.04 1856.06 2339.04 1864.01 M2333.18 1862.29 Q2333.12 1857.49 2330.48 1854.62 Q2327.87 1851.76 2323.54 1851.76 Q2318.64 1851.76 2315.68 1854.53 Q2312.75 1857.3 2312.3 1862.33 L2333.18 1862.29 Z" fill="#000000" fill-rule="nonzero" fill-opacity="1" /><polyline clip-path="url(#clip463)" style="stroke:#000000; stroke-linecap:round; stroke-linejoin:round; stroke-width:2; stroke-opacity:0.1; fill:none" points="1521.73,1517.95 2640.76,1517.95 "/>
<polyline clip-path="url(#clip463)" style="stroke:#000000; stroke-linecap:round; stroke-linejoin:round; stroke-width:2; stroke-opacity:0.1; fill:none" points="1521.73,1268.18 2640.76,1268.18 "/>
<polyline clip-path="url(#clip463)" style="stroke:#000000; stroke-linecap:round; stroke-linejoin:round; stroke-width:2; stroke-opacity:0.1; fill:none" points="1521.73,1018.4 2640.76,1018.4 "/>
<polyline clip-path="url(#clip463)" style="stroke:#000000; stroke-linecap:round; stroke-linejoin:round; stroke-width:2; stroke-opacity:0.1; fill:none" points="1521.73,768.622 2640.76,768.622 "/>
<polyline clip-path="url(#clip463)" style="stroke:#000000; stroke-linecap:round; stroke-linejoin:round; stroke-width:2; stroke-opacity:0.1; fill:none" points="1521.73,518.844 2640.76,518.844 "/>
<polyline clip-path="url(#clip463)" style="stroke:#000000; stroke-linecap:round; stroke-linejoin:round; stroke-width:2; stroke-opacity:0.1; fill:none" points="1521.73,269.066 2640.76,269.066 "/>
<polyline clip-path="url(#clip460)" style="stroke:#000000; stroke-linecap:round; stroke-linejoin:round; stroke-width:4; stroke-opacity:1; fill:none" points="1521.73,1734.12 1521.73,47.2441 "/>
<polyline clip-path="url(#clip460)" style="stroke:#000000; stroke-linecap:round; stroke-linejoin:round; stroke-width:4; stroke-opacity:1; fill:none" points="1521.73,1517.95 1540.63,1517.95 "/>
<polyline clip-path="url(#clip460)" style="stroke:#000000; stroke-linecap:round; stroke-linejoin:round; stroke-width:4; stroke-opacity:1; fill:none" points="1521.73,1268.18 1540.63,1268.18 "/>
<polyline clip-path="url(#clip460)" style="stroke:#000000; stroke-linecap:round; stroke-linejoin:round; stroke-width:4; stroke-opacity:1; fill:none" points="1521.73,1018.4 1540.63,1018.4 "/>
<polyline clip-path="url(#clip460)" style="stroke:#000000; stroke-linecap:round; stroke-linejoin:round; stroke-width:4; stroke-opacity:1; fill:none" points="1521.73,768.622 1540.63,768.622 "/>
<polyline clip-path="url(#clip460)" style="stroke:#000000; stroke-linecap:round; stroke-linejoin:round; stroke-width:4; stroke-opacity:1; fill:none" points="1521.73,518.844 1540.63,518.844 "/>
<polyline clip-path="url(#clip460)" style="stroke:#000000; stroke-linecap:round; stroke-linejoin:round; stroke-width:4; stroke-opacity:1; fill:none" points="1521.73,269.066 1540.63,269.066 "/>
<path clip-path="url(#clip460)" d="M1425.23 1503.75 Q1421.62 1503.75 1419.79 1507.32 Q1417.98 1510.86 1417.98 1517.99 Q1417.98 1525.1 1419.79 1528.66 Q1421.62 1532.2 1425.23 1532.2 Q1428.86 1532.2 1430.67 1528.66 Q1432.5 1525.1 1432.5 1517.99 Q1432.5 1510.86 1430.67 1507.32 Q1428.86 1503.75 1425.23 1503.75 M1425.23 1500.05 Q1431.04 1500.05 1434.1 1504.66 Q1437.17 1509.24 1437.17 1517.99 Q1437.17 1526.72 1434.1 1531.32 Q1431.04 1535.91 1425.23 1535.91 Q1419.42 1535.91 1416.34 1531.32 Q1413.29 1526.72 1413.29 1517.99 Q1413.29 1509.24 1416.34 1504.66 Q1419.42 1500.05 1425.23 1500.05 Z" fill="#000000" fill-rule="nonzero" fill-opacity="1" /><path clip-path="url(#clip460)" d="M1445.39 1529.36 L1450.28 1529.36 L1450.28 1535.23 L1445.39 1535.23 L1445.39 1529.36 Z" fill="#000000" fill-rule="nonzero" fill-opacity="1" /><path clip-path="url(#clip460)" d="M1460.51 1500.67 L1478.86 1500.67 L1478.86 1504.61 L1464.79 1504.61 L1464.79 1513.08 Q1465.81 1512.74 1466.83 1512.57 Q1467.85 1512.39 1468.86 1512.39 Q1474.65 1512.39 1478.03 1515.56 Q1481.41 1518.73 1481.41 1524.15 Q1481.41 1529.73 1477.94 1532.83 Q1474.47 1535.91 1468.15 1535.91 Q1465.97 1535.91 1463.7 1535.54 Q1461.46 1535.17 1459.05 1534.42 L1459.05 1529.73 Q1461.13 1530.86 1463.35 1531.42 Q1465.58 1531.97 1468.05 1531.97 Q1472.06 1531.97 1474.4 1529.86 Q1476.73 1527.76 1476.73 1524.15 Q1476.73 1520.54 1474.4 1518.43 Q1472.06 1516.32 1468.05 1516.32 Q1466.18 1516.32 1464.3 1516.74 Q1462.45 1517.16 1460.51 1518.04 L1460.51 1500.67 Z" fill="#000000" fill-rule="nonzero" fill-opacity="1" /><path clip-path="url(#clip460)" d="M1415.05 1281.52 L1422.68 1281.52 L1422.68 1255.16 L1414.37 1256.82 L1414.37 1252.56 L1422.64 1250.9 L1427.31 1250.9 L1427.31 1281.52 L1434.95 1281.52 L1434.95 1285.46 L1415.05 1285.46 L1415.05 1281.52 Z" fill="#000000" fill-rule="nonzero" fill-opacity="1" /><path clip-path="url(#clip460)" d="M1444.4 1279.58 L1449.28 1279.58 L1449.28 1285.46 L1444.4 1285.46 L1444.4 1279.58 Z" fill="#000000" fill-rule="nonzero" fill-opacity="1" /><path clip-path="url(#clip460)" d="M1469.47 1253.98 Q1465.85 1253.98 1464.03 1257.54 Q1462.22 1261.08 1462.22 1268.21 Q1462.22 1275.32 1464.03 1278.88 Q1465.85 1282.42 1469.47 1282.42 Q1473.1 1282.42 1474.91 1278.88 Q1476.73 1275.32 1476.73 1268.21 Q1476.73 1261.08 1474.91 1257.54 Q1473.1 1253.98 1469.47 1253.98 M1469.47 1250.27 Q1475.28 1250.27 1478.33 1254.88 Q1481.41 1259.46 1481.41 1268.21 Q1481.41 1276.94 1478.33 1281.55 Q1475.28 1286.13 1469.47 1286.13 Q1463.66 1286.13 1460.58 1281.55 Q1457.52 1276.94 1457.52 1268.21 Q1457.52 1259.46 1460.58 1254.88 Q1463.66 1250.27 1469.47 1250.27 Z" fill="#000000" fill-rule="nonzero" fill-opacity="1" /><path clip-path="url(#clip460)" d="M1416.04 1031.74 L1423.68 1031.74 L1423.68 1005.38 L1415.37 1007.05 L1415.37 1002.79 L1423.63 1001.12 L1428.31 1001.12 L1428.31 1031.74 L1435.95 1031.74 L1435.95 1035.68 L1416.04 1035.68 L1416.04 1031.74 Z" fill="#000000" fill-rule="nonzero" fill-opacity="1" /><path clip-path="url(#clip460)" d="M1445.39 1029.8 L1450.28 1029.8 L1450.28 1035.68 L1445.39 1035.68 L1445.39 1029.8 Z" fill="#000000" fill-rule="nonzero" fill-opacity="1" /><path clip-path="url(#clip460)" d="M1460.51 1001.12 L1478.86 1001.12 L1478.86 1005.05 L1464.79 1005.05 L1464.79 1013.53 Q1465.81 1013.18 1466.83 1013.02 Q1467.85 1012.83 1468.86 1012.83 Q1474.65 1012.83 1478.03 1016 Q1481.41 1019.17 1481.41 1024.59 Q1481.41 1030.17 1477.94 1033.27 Q1474.47 1036.35 1468.15 1036.35 Q1465.97 1036.35 1463.7 1035.98 Q1461.46 1035.61 1459.05 1034.87 L1459.05 1030.17 Q1461.13 1031.3 1463.35 1031.86 Q1465.58 1032.42 1468.05 1032.42 Q1472.06 1032.42 1474.4 1030.31 Q1476.73 1028.2 1476.73 1024.59 Q1476.73 1020.98 1474.4 1018.87 Q1472.06 1016.77 1468.05 1016.77 Q1466.18 1016.77 1464.3 1017.18 Q1462.45 1017.6 1460.51 1018.48 L1460.51 1001.12 Z" fill="#000000" fill-rule="nonzero" fill-opacity="1" /><path clip-path="url(#clip460)" d="M1418.26 781.967 L1434.58 781.967 L1434.58 785.902 L1412.64 785.902 L1412.64 781.967 Q1415.3 779.212 1419.88 774.582 Q1424.49 769.93 1425.67 768.587 Q1427.92 766.064 1428.79 764.328 Q1429.7 762.569 1429.7 760.879 Q1429.7 758.124 1427.75 756.388 Q1425.83 754.652 1422.73 754.652 Q1420.53 754.652 1418.08 755.416 Q1415.65 756.18 1412.87 757.731 L1412.87 753.008 Q1415.69 751.874 1418.15 751.295 Q1420.6 750.717 1422.64 750.717 Q1428.01 750.717 1431.2 753.402 Q1434.4 756.087 1434.4 760.578 Q1434.4 762.707 1433.59 764.629 Q1432.8 766.527 1430.69 769.119 Q1430.11 769.791 1427.01 773.008 Q1423.91 776.203 1418.26 781.967 Z" fill="#000000" fill-rule="nonzero" fill-opacity="1" /><path clip-path="url(#clip460)" d="M1444.4 780.022 L1449.28 780.022 L1449.28 785.902 L1444.4 785.902 L1444.4 780.022 Z" fill="#000000" fill-rule="nonzero" fill-opacity="1" /><path clip-path="url(#clip460)" d="M1469.47 754.42 Q1465.85 754.42 1464.03 757.985 Q1462.22 761.527 1462.22 768.656 Q1462.22 775.763 1464.03 779.328 Q1465.85 782.869 1469.47 782.869 Q1473.1 782.869 1474.91 779.328 Q1476.73 775.763 1476.73 768.656 Q1476.73 761.527 1474.91 757.985 Q1473.1 754.42 1469.47 754.42 M1469.47 750.717 Q1475.28 750.717 1478.33 755.323 Q1481.41 759.907 1481.41 768.656 Q1481.41 777.383 1478.33 781.99 Q1475.28 786.573 1469.47 786.573 Q1463.66 786.573 1460.58 781.99 Q1457.52 777.383 1457.52 768.656 Q1457.52 759.907 1460.58 755.323 Q1463.66 750.717 1469.47 750.717 Z" fill="#000000" fill-rule="nonzero" fill-opacity="1" /><path clip-path="url(#clip460)" d="M1419.26 532.189 L1435.58 532.189 L1435.58 536.124 L1413.63 536.124 L1413.63 532.189 Q1416.3 529.434 1420.88 524.805 Q1425.48 520.152 1426.67 518.809 Q1428.91 516.286 1429.79 514.55 Q1430.69 512.791 1430.69 511.101 Q1430.69 508.346 1428.75 506.61 Q1426.83 504.874 1423.73 504.874 Q1421.53 504.874 1419.07 505.638 Q1416.64 506.402 1413.86 507.953 L1413.86 503.231 Q1416.69 502.096 1419.14 501.518 Q1421.6 500.939 1423.63 500.939 Q1429 500.939 1432.2 503.624 Q1435.39 506.309 1435.39 510.8 Q1435.39 512.93 1434.58 514.851 Q1433.79 516.749 1431.69 519.342 Q1431.11 520.013 1428.01 523.231 Q1424.91 526.425 1419.26 532.189 Z" fill="#000000" fill-rule="nonzero" fill-opacity="1" /><path clip-path="url(#clip460)" d="M1445.39 530.244 L1450.28 530.244 L1450.28 536.124 L1445.39 536.124 L1445.39 530.244 Z" fill="#000000" fill-rule="nonzero" fill-opacity="1" /><path clip-path="url(#clip460)" d="M1460.51 501.564 L1478.86 501.564 L1478.86 505.499 L1464.79 505.499 L1464.79 513.971 Q1465.81 513.624 1466.83 513.462 Q1467.85 513.277 1468.86 513.277 Q1474.65 513.277 1478.03 516.448 Q1481.41 519.62 1481.41 525.036 Q1481.41 530.615 1477.94 533.717 Q1474.47 536.795 1468.15 536.795 Q1465.97 536.795 1463.7 536.425 Q1461.46 536.055 1459.05 535.314 L1459.05 530.615 Q1461.13 531.749 1463.35 532.305 Q1465.58 532.86 1468.05 532.86 Q1472.06 532.86 1474.4 530.754 Q1476.73 528.647 1476.73 525.036 Q1476.73 521.425 1474.4 519.319 Q1472.06 517.212 1468.05 517.212 Q1466.18 517.212 1464.3 517.629 Q1462.45 518.045 1460.51 518.925 L1460.51 501.564 Z" fill="#000000" fill-rule="nonzero" fill-opacity="1" /><path clip-path="url(#clip460)" d="M1428.4 267.712 Q1431.76 268.43 1433.63 270.698 Q1435.53 272.967 1435.53 276.3 Q1435.53 281.416 1432.01 284.217 Q1428.49 287.018 1422.01 287.018 Q1419.84 287.018 1417.52 286.578 Q1415.23 286.161 1412.78 285.305 L1412.78 280.791 Q1414.72 281.925 1417.04 282.504 Q1419.35 283.082 1421.87 283.082 Q1426.27 283.082 1428.56 281.346 Q1430.88 279.61 1430.88 276.3 Q1430.88 273.245 1428.73 271.532 Q1426.6 269.796 1422.78 269.796 L1418.75 269.796 L1418.75 265.953 L1422.96 265.953 Q1426.41 265.953 1428.24 264.587 Q1430.07 263.198 1430.07 260.606 Q1430.07 257.944 1428.17 256.532 Q1426.3 255.097 1422.78 255.097 Q1420.86 255.097 1418.66 255.513 Q1416.46 255.93 1413.82 256.809 L1413.82 252.643 Q1416.48 251.902 1418.8 251.532 Q1421.13 251.161 1423.19 251.161 Q1428.52 251.161 1431.62 253.592 Q1434.72 255.999 1434.72 260.12 Q1434.72 262.99 1433.08 264.981 Q1431.43 266.948 1428.4 267.712 Z" fill="#000000" fill-rule="nonzero" fill-opacity="1" /><path clip-path="url(#clip460)" d="M1444.4 280.467 L1449.28 280.467 L1449.28 286.346 L1444.4 286.346 L1444.4 280.467 Z" fill="#000000" fill-rule="nonzero" fill-opacity="1" /><path clip-path="url(#clip460)" d="M1469.47 254.865 Q1465.85 254.865 1464.03 258.43 Q1462.22 261.971 1462.22 269.101 Q1462.22 276.208 1464.03 279.772 Q1465.85 283.314 1469.47 283.314 Q1473.1 283.314 1474.91 279.772 Q1476.73 276.208 1476.73 269.101 Q1476.73 261.971 1474.91 258.43 Q1473.1 254.865 1469.47 254.865 M1469.47 251.161 Q1475.28 251.161 1478.33 255.768 Q1481.41 260.351 1481.41 269.101 Q1481.41 277.828 1478.33 282.434 Q1475.28 287.018 1469.47 287.018 Q1463.66 287.018 1460.58 282.434 Q1457.52 277.828 1457.52 269.101 Q1457.52 260.351 1460.58 255.768 Q1463.66 251.161 1469.47 251.161 Z" fill="#000000" fill-rule="nonzero" fill-opacity="1" /><polyline clip-path="url(#clip463)" style="stroke:#009af9; stroke-linecap:round; stroke-linejoin:round; stroke-width:4; stroke-opacity:1; fill:none" points="1553.4,1535.93 1564.06,1521.37 1574.73,1506.82 1585.39,1492.26 1596.05,1477.71 1606.72,1463.15 1617.38,1448.6 1628.05,1434.04 1638.71,1419.49 1649.37,1404.93 1660.04,1390.38 1670.7,1375.82 1681.36,1361.27 1692.03,1346.71 1702.69,1332.16 1713.35,1317.6 1724.02,1303.05 1734.68,1288.49 1745.34,1273.94 1756.01,1259.38 1766.67,1244.83 1777.33,1230.27 1788,1215.72 1798.66,1201.16 1809.32,1186.61 1819.99,1172.05 1830.65,1157.5 1841.31,1142.94 1851.98,1128.39 1862.64,1113.83 1873.31,1099.28 1883.97,1084.72 1894.63,1070.17 1905.3,1055.61 1915.96,1041.06 1926.62,1026.5 1937.29,1011.95 1947.95,997.393 1958.61,982.838 1969.28,968.283 1979.94,953.728 1990.6,939.173 2001.27,924.618 2011.93,910.063 2022.59,895.508 2033.26,880.953 2043.92,866.398 2054.58,851.843 2065.25,837.288 2075.91,822.733 2086.57,808.178 2097.24,793.623 2107.9,779.068 2118.57,764.513 2129.23,749.959 2139.89,735.404 2150.56,720.849 2161.22,706.294 2171.88,691.739 2182.55,677.184 2193.21,662.629 2203.87,648.074 2214.54,633.519 2225.2,618.964 2235.86,604.409 2246.53,589.854 2257.19,575.299 2267.85,560.744 2278.52,546.189 2289.18,531.634 2299.84,517.079 2310.51,502.524 2321.17,487.969 2331.83,473.414 2342.5,458.86 2353.16,444.305 2363.83,429.75 2374.49,415.195 2385.15,400.64 2395.82,386.085 2406.48,371.53 2417.14,356.975 2427.81,342.42 2438.47,327.865 2449.13,313.31 2459.8,298.755 2470.46,284.2 2481.12,269.645 2491.79,255.09 2502.45,240.535 2513.11,225.98 2523.78,211.425 2534.44,196.87 2545.1,182.315 2555.77,167.761 2566.43,153.206 2577.09,138.651 2587.76,124.096 2598.42,109.541 2609.09,94.9858 "/>
<polyline clip-path="url(#clip463)" style="stroke:#bbbbbb; stroke-linecap:round; stroke-linejoin:round; stroke-width:4; stroke-opacity:1; fill:none" points="1553.4,1686.38 1564.06,1675.43 1574.73,1664.49 1585.39,1653.54 1596.05,1642.6 1606.72,1631.66 1617.38,1620.71 1628.05,1609.77 1638.71,1598.82 1649.37,1587.88 1660.04,1576.94 1670.7,1565.99 1681.36,1555.05 1692.03,1544.1 1702.69,1533.16 1713.35,1522.22 1724.02,1511.27 1734.68,1500.33 1745.34,1489.39 1756.01,1478.44 1766.67,1467.5 1777.33,1456.55 1788,1445.61 1798.66,1434.67 1809.32,1423.72 1819.99,1412.78 1830.65,1401.83 1841.31,1390.89 1851.98,1379.95 1862.64,1369 1873.31,1358.06 1883.97,1347.11 1894.63,1336.17 1905.3,1325.23 1915.96,1314.28 1926.62,1303.34 1937.29,1292.4 1947.95,1281.45 1958.61,1270.51 1969.28,1259.56 1979.94,1248.62 1990.6,1237.68 2001.27,1226.73 2011.93,1215.79 2022.59,1204.84 2033.26,1193.9 2043.92,1182.96 2054.58,1172.01 2065.25,1161.07 2075.91,1150.13 2086.57,1139.18 2097.24,1128.24 2107.9,1117.29 2118.57,1106.35 2129.23,1095.41 2139.89,1084.46 2150.56,1073.52 2161.22,1062.57 2171.88,1051.63 2182.55,1040.69 2193.21,1029.74 2203.87,1018.8 2214.54,1007.85 2225.2,996.911 2235.86,985.967 2246.53,975.023 2257.19,964.079 2267.85,953.135 2278.52,942.191 2289.18,931.247 2299.84,920.304 2310.51,909.36 2321.17,898.416 2331.83,887.472 2342.5,876.528 2353.16,865.584 2363.83,854.64 2374.49,843.696 2385.15,832.753 2395.82,821.809 2406.48,810.865 2417.14,799.921 2427.81,788.977 2438.47,778.033 2449.13,767.089 2459.8,756.145 2470.46,745.201 2481.12,734.258 2491.79,723.314 2502.45,712.37 2513.11,701.426 2523.78,690.482 2534.44,679.538 2545.1,668.594 2555.77,657.65 2566.43,646.707 2577.09,635.763 2587.76,624.819 2598.42,613.875 2609.09,602.931 "/>
</svg>
