<?xml version="1.0" encoding="utf-8"?>
<svg xmlns="http://www.w3.org/2000/svg" xmlns:xlink="http://www.w3.org/1999/xlink" width="672" height="480" viewBox="0 0 2688 1920">
<defs>
  <clipPath id="clip900">
    <rect x="0" y="0" width="2688" height="1920"/>
  </clipPath>
</defs>
<path clip-path="url(#clip900)" d="M0 1920 L2688 1920 L2688 -4.26326e-14 L0 -4.26326e-14  Z" fill="#ffffff" fill-rule="evenodd" fill-opacity="1"/>
<defs>
  <clipPath id="clip901">
    <rect x="537" y="0" width="1883" height="1883"/>
  </clipPath>
</defs>
<path clip-path="url(#clip900)" d="M190.984 1800.78 L2640.76 1800.78 L2640.76 127.792 L190.984 127.792  Z" fill="#ffffff" fill-rule="evenodd" fill-opacity="1"/>
<defs>
  <clipPath id="clip902">
    <rect x="190" y="127" width="2451" height="1674"/>
  </clipPath>
</defs>
<polyline clip-path="url(#clip902)" style="stroke:#000000; stroke-linecap:round; stroke-linejoin:round; stroke-width:2; stroke-opacity:0.1; fill:none" points="260.317,1800.78 260.317,127.792 "/>
<polyline clip-path="url(#clip902)" style="stroke:#000000; stroke-linecap:round; stroke-linejoin:round; stroke-width:2; stroke-opacity:0.1; fill:none" points="722.538,1800.78 722.538,127.792 "/>
<polyline clip-path="url(#clip902)" style="stroke:#000000; stroke-linecap:round; stroke-linejoin:round; stroke-width:2; stroke-opacity:0.1; fill:none" points="1184.76,1800.78 1184.76,127.792 "/>
<polyline clip-path="url(#clip902)" style="stroke:#000000; stroke-linecap:round; stroke-linejoin:round; stroke-width:2; stroke-opacity:0.1; fill:none" points="1646.98,1800.78 1646.98,127.792 "/>
<polyline clip-path="url(#clip902)" style="stroke:#000000; stroke-linecap:round; stroke-linejoin:round; stroke-width:2; stroke-opacity:0.1; fill:none" points="2109.2,1800.78 2109.2,127.792 "/>
<polyline clip-path="url(#clip902)" style="stroke:#000000; stroke-linecap:round; stroke-linejoin:round; stroke-width:2; stroke-opacity:0.1; fill:none" points="2571.42,1800.78 2571.42,127.792 "/>
<polyline clip-path="url(#clip900)" style="stroke:#000000; stroke-linecap:round; stroke-linejoin:round; stroke-width:4; stroke-opacity:1; fill:none" points="190.984,1800.78 2640.76,1800.78 "/>
<polyline clip-path="url(#clip900)" style="stroke:#000000; stroke-linecap:round; stroke-linejoin:round; stroke-width:4; stroke-opacity:1; fill:none" points="260.317,1800.78 260.317,1781.88 "/>
<polyline clip-path="url(#clip900)" style="stroke:#000000; stroke-linecap:round; stroke-linejoin:round; stroke-width:4; stroke-opacity:1; fill:none" points="722.538,1800.78 722.538,1781.88 "/>
<polyline clip-path="url(#clip900)" style="stroke:#000000; stroke-linecap:round; stroke-linejoin:round; stroke-width:4; stroke-opacity:1; fill:none" points="1184.76,1800.78 1184.76,1781.88 "/>
<polyline clip-path="url(#clip900)" style="stroke:#000000; stroke-linecap:round; stroke-linejoin:round; stroke-width:4; stroke-opacity:1; fill:none" points="1646.98,1800.78 1646.98,1781.88 "/>
<polyline clip-path="url(#clip900)" style="stroke:#000000; stroke-linecap:round; stroke-linejoin:round; stroke-width:4; stroke-opacity:1; fill:none" points="2109.2,1800.78 2109.2,1781.88 "/>
<polyline clip-path="url(#clip900)" style="stroke:#000000; stroke-linecap:round; stroke-linejoin:round; stroke-width:4; stroke-opacity:1; fill:none" points="2571.42,1800.78 2571.42,1781.88 "/>
<path clip-path="url(#clip900)" d="M260.317 1834 Q256.706 1834 254.878 1837.57 Q253.072 1841.11 253.072 1848.24 Q253.072 1855.34 254.878 1858.91 Q256.706 1862.45 260.317 1862.45 Q263.952 1862.45 265.757 1858.91 Q267.586 1855.34 267.586 1848.24 Q267.586 1841.11 265.757 1837.57 Q263.952 1834 260.317 1834 M260.317 1830.3 Q266.127 1830.3 269.183 1834.9 Q272.262 1839.49 272.262 1848.24 Q272.262 1856.96 269.183 1861.57 Q266.127 1866.15 260.317 1866.15 Q254.507 1866.15 251.428 1861.57 Q248.373 1856.96 248.373 1848.24 Q248.373 1839.49 251.428 1834.9 Q254.507 1830.3 260.317 1830.3 Z" fill="#000000" fill-rule="nonzero" fill-opacity="1" /><path clip-path="url(#clip900)" d="M712.92 1861.55 L720.559 1861.55 L720.559 1835.18 L712.249 1836.85 L712.249 1832.59 L720.513 1830.92 L725.189 1830.92 L725.189 1861.55 L732.828 1861.55 L732.828 1865.48 L712.92 1865.48 L712.92 1861.55 Z" fill="#000000" fill-rule="nonzero" fill-opacity="1" /><path clip-path="url(#clip900)" d="M1179.41 1861.55 L1195.73 1861.55 L1195.73 1865.48 L1173.79 1865.48 L1173.79 1861.55 Q1176.45 1858.79 1181.03 1854.16 Q1185.64 1849.51 1186.82 1848.17 Q1189.07 1845.65 1189.94 1843.91 Q1190.85 1842.15 1190.85 1840.46 Q1190.85 1837.71 1188.9 1835.97 Q1186.98 1834.23 1183.88 1834.23 Q1181.68 1834.23 1179.23 1835 Q1176.8 1835.76 1174.02 1837.31 L1174.02 1832.59 Q1176.84 1831.46 1179.3 1830.88 Q1181.75 1830.3 1183.79 1830.3 Q1189.16 1830.3 1192.35 1832.98 Q1195.55 1835.67 1195.55 1840.16 Q1195.55 1842.29 1194.74 1844.21 Q1193.95 1846.11 1191.84 1848.7 Q1191.26 1849.37 1188.16 1852.59 Q1185.06 1855.78 1179.41 1861.55 Z" fill="#000000" fill-rule="nonzero" fill-opacity="1" /><path clip-path="url(#clip900)" d="M1651.23 1846.85 Q1654.58 1847.57 1656.46 1849.84 Q1658.36 1852.1 1658.36 1855.44 Q1658.36 1860.55 1654.84 1863.35 Q1651.32 1866.15 1644.84 1866.15 Q1642.66 1866.15 1640.35 1865.71 Q1638.06 1865.3 1635.6 1864.44 L1635.6 1859.93 Q1637.55 1861.06 1639.86 1861.64 Q1642.18 1862.22 1644.7 1862.22 Q1649.1 1862.22 1651.39 1860.48 Q1653.71 1858.75 1653.71 1855.44 Q1653.71 1852.38 1651.55 1850.67 Q1649.42 1848.93 1645.6 1848.93 L1641.58 1848.93 L1641.58 1845.09 L1645.79 1845.09 Q1649.24 1845.09 1651.07 1843.72 Q1652.89 1842.34 1652.89 1839.74 Q1652.89 1837.08 1651 1835.67 Q1649.12 1834.23 1645.6 1834.23 Q1643.68 1834.23 1641.48 1834.65 Q1639.28 1835.07 1636.64 1835.95 L1636.64 1831.78 Q1639.31 1831.04 1641.62 1830.67 Q1643.96 1830.3 1646.02 1830.3 Q1651.34 1830.3 1654.45 1832.73 Q1657.55 1835.14 1657.55 1839.26 Q1657.55 1842.13 1655.9 1844.12 Q1654.26 1846.09 1651.23 1846.85 Z" fill="#000000" fill-rule="nonzero" fill-opacity="1" /><path clip-path="url(#clip900)" d="M2112.21 1835 L2100.41 1853.45 L2112.21 1853.45 L2112.21 1835 M2110.98 1830.92 L2116.86 1830.92 L2116.86 1853.45 L2121.79 1853.45 L2121.79 1857.34 L2116.86 1857.34 L2116.86 1865.48 L2112.21 1865.48 L2112.21 1857.34 L2096.61 1857.34 L2096.61 1852.82 L2110.98 1830.92 Z" fill="#000000" fill-rule="nonzero" fill-opacity="1" /><path clip-path="url(#clip900)" d="M2561.7 1830.92 L2580.06 1830.92 L2580.06 1834.86 L2565.98 1834.86 L2565.98 1843.33 Q2567 1842.98 2568.02 1842.82 Q2569.04 1842.64 2570.06 1842.64 Q2575.84 1842.64 2579.22 1845.81 Q2582.6 1848.98 2582.6 1854.4 Q2582.6 1859.97 2579.13 1863.08 Q2575.66 1866.15 2569.34 1866.15 Q2567.16 1866.15 2564.89 1865.78 Q2562.65 1865.41 2560.24 1864.67 L2560.24 1859.97 Q2562.33 1861.11 2564.55 1861.66 Q2566.77 1862.22 2569.25 1862.22 Q2573.25 1862.22 2575.59 1860.11 Q2577.93 1858.01 2577.93 1854.4 Q2577.93 1850.78 2575.59 1848.68 Q2573.25 1846.57 2569.25 1846.57 Q2567.37 1846.57 2565.5 1846.99 Q2563.65 1847.4 2561.7 1848.28 L2561.7 1830.92 Z" fill="#000000" fill-rule="nonzero" fill-opacity="1" /><polyline clip-path="url(#clip902)" style="stroke:#000000; stroke-linecap:round; stroke-linejoin:round; stroke-width:2; stroke-opacity:0.1; fill:none" points="190.984,1567.2 2640.76,1567.2 "/>
<polyline clip-path="url(#clip902)" style="stroke:#000000; stroke-linecap:round; stroke-linejoin:round; stroke-width:2; stroke-opacity:0.1; fill:none" points="190.984,791.792 2640.76,791.792 "/>
<polyline clip-path="url(#clip900)" style="stroke:#000000; stroke-linecap:round; stroke-linejoin:round; stroke-width:4; stroke-opacity:1; fill:none" points="190.984,1800.78 190.984,127.792 "/>
<polyline clip-path="url(#clip900)" style="stroke:#000000; stroke-linecap:round; stroke-linejoin:round; stroke-width:4; stroke-opacity:1; fill:none" points="190.984,1567.2 209.882,1567.2 "/>
<polyline clip-path="url(#clip900)" style="stroke:#000000; stroke-linecap:round; stroke-linejoin:round; stroke-width:4; stroke-opacity:1; fill:none" points="190.984,791.792 209.882,791.792 "/>
<path clip-path="url(#clip900)" d="M50.2234 1586.99 L57.8623 1586.99 L57.8623 1560.62 L49.5521 1562.29 L49.5521 1558.03 L57.816 1556.36 L62.4919 1556.36 L62.4919 1586.99 L70.1307 1586.99 L70.1307 1590.92 L50.2234 1590.92 L50.2234 1586.99 Z" fill="#000000" fill-rule="nonzero" fill-opacity="1" /><path clip-path="url(#clip900)" d="M89.5751 1559.44 Q85.964 1559.44 84.1353 1563.01 Q82.3297 1566.55 82.3297 1573.68 Q82.3297 1580.79 84.1353 1584.35 Q85.964 1587.89 89.5751 1587.89 Q93.2093 1587.89 95.0148 1584.35 Q96.8435 1580.79 96.8435 1573.68 Q96.8435 1566.55 95.0148 1563.01 Q93.2093 1559.44 89.5751 1559.44 M89.5751 1555.74 Q95.3852 1555.74 98.4408 1560.35 Q101.519 1564.93 101.519 1573.68 Q101.519 1582.41 98.4408 1587.01 Q95.3852 1591.6 89.5751 1591.6 Q83.7649 1591.6 80.6862 1587.01 Q77.6307 1582.41 77.6307 1573.68 Q77.6307 1564.93 80.6862 1560.35 Q83.7649 1555.74 89.5751 1555.74 Z" fill="#000000" fill-rule="nonzero" fill-opacity="1" /><path clip-path="url(#clip900)" d="M101.519 1549.84 L125.631 1549.84 L125.631 1553.04 L101.519 1553.04 L101.519 1549.84 Z" fill="#000000" fill-rule="nonzero" fill-opacity="1" /><path clip-path="url(#clip900)" d="M134.489 1560.32 L140.696 1560.32 L140.696 1538.89 L133.944 1540.25 L133.944 1536.79 L140.658 1535.43 L144.458 1535.43 L144.458 1560.32 L150.664 1560.32 L150.664 1563.51 L134.489 1563.51 L134.489 1560.32 Z" fill="#000000" fill-rule="nonzero" fill-opacity="1" /><path clip-path="url(#clip900)" d="M79.9585 811.584 L87.5974 811.584 L87.5974 785.219 L79.2872 786.886 L79.2872 782.626 L87.5511 780.96 L92.227 780.96 L92.227 811.584 L99.8658 811.584 L99.8658 815.52 L79.9585 815.52 L79.9585 811.584 Z" fill="#000000" fill-rule="nonzero" fill-opacity="1" /><path clip-path="url(#clip900)" d="M119.31 784.038 Q115.699 784.038 113.87 787.603 Q112.065 791.145 112.065 798.274 Q112.065 805.381 113.87 808.946 Q115.699 812.487 119.31 812.487 Q122.944 812.487 124.75 808.946 Q126.579 805.381 126.579 798.274 Q126.579 791.145 124.75 787.603 Q122.944 784.038 119.31 784.038 M119.31 780.335 Q125.12 780.335 128.176 784.941 Q131.255 789.524 131.255 798.274 Q131.255 807.001 128.176 811.608 Q125.12 816.191 119.31 816.191 Q113.5 816.191 110.421 811.608 Q107.366 807.001 107.366 798.274 Q107.366 789.524 110.421 784.941 Q113.5 780.335 119.31 780.335 Z" fill="#000000" fill-rule="nonzero" fill-opacity="1" /><path clip-path="url(#clip900)" d="M140.959 762.531 Q138.025 762.531 136.54 765.427 Q135.073 768.305 135.073 774.097 Q135.073 779.871 136.54 782.768 Q138.025 785.645 140.959 785.645 Q143.912 785.645 145.379 782.768 Q146.865 779.871 146.865 774.097 Q146.865 768.305 145.379 765.427 Q143.912 762.531 140.959 762.531 M140.959 759.521 Q145.68 759.521 148.163 763.264 Q150.664 766.988 150.664 774.097 Q150.664 781.188 148.163 784.931 Q145.68 788.655 140.959 788.655 Q136.239 788.655 133.737 784.931 Q131.255 781.188 131.255 774.097 Q131.255 766.988 133.737 763.264 Q136.239 759.521 140.959 759.521 Z" fill="#000000" fill-rule="nonzero" fill-opacity="1" /><path clip-path="url(#clip900)" d="M1315.89 27.2059 L1323.35 27.2059 L1323.35 72.576 L1315.89 72.576 L1315.89 27.2059 M1315.89 9.54393 L1323.35 9.54393 L1323.35 18.9825 L1315.89 18.9825 L1315.89 9.54393 Z" fill="#000000" fill-rule="nonzero" fill-opacity="1" /><path clip-path="url(#clip900)" d="M1346.32 14.324 L1346.32 27.2059 L1361.67 27.2059 L1361.67 32.9987 L1346.32 32.9987 L1346.32 57.6282 Q1346.32 63.1779 1347.81 64.7578 Q1349.35 66.3376 1354.01 66.3376 L1361.67 66.3376 L1361.67 72.576 L1354.01 72.576 Q1345.38 72.576 1342.1 69.3758 Q1338.82 66.1351 1338.82 57.6282 L1338.82 32.9987 L1333.35 32.9987 L1333.35 27.2059 L1338.82 27.2059 L1338.82 14.324 L1346.32 14.324 Z" fill="#000000" fill-rule="nonzero" fill-opacity="1" /><path clip-path="url(#clip900)" d="M1372.53 62.2867 L1381.07 62.2867 L1381.07 72.576 L1372.53 72.576 L1372.53 62.2867 Z" fill="#000000" fill-rule="nonzero" fill-opacity="1" /><path clip-path="url(#clip900)" d="M1426.12 62.2867 L1434.67 62.2867 L1434.67 72.576 L1426.12 72.576 L1426.12 62.2867 M1426.12 29.6769 L1434.67 29.6769 L1434.67 39.9662 L1426.12 39.9662 L1426.12 29.6769 Z" fill="#000000" fill-rule="nonzero" fill-opacity="1" /><path clip-path="url(#clip900)" d="M1481.01 65.6895 L1494.38 65.6895 L1494.38 19.5497 L1479.83 22.4663 L1479.83 15.0127 L1494.3 12.096 L1502.48 12.096 L1502.48 65.6895 L1515.85 65.6895 L1515.85 72.576 L1481.01 72.576 L1481.01 65.6895 Z" fill="#000000" fill-rule="nonzero" fill-opacity="1" /><circle clip-path="url(#clip902)" cx="260.317" cy="581.801" r="14.4" fill="#009af9" fill-rule="evenodd" fill-opacity="1" stroke="#000000" stroke-opacity="1" stroke-width="3.84"/>
<circle clip-path="url(#clip902)" cx="306.539" cy="511.57" r="14.4" fill="#009af9" fill-rule="evenodd" fill-opacity="1" stroke="#000000" stroke-opacity="1" stroke-width="3.84"/>
<circle clip-path="url(#clip902)" cx="352.762" cy="584.033" r="14.4" fill="#009af9" fill-rule="evenodd" fill-opacity="1" stroke="#000000" stroke-opacity="1" stroke-width="3.84"/>
<circle clip-path="url(#clip902)" cx="398.984" cy="751.149" r="14.4" fill="#009af9" fill-rule="evenodd" fill-opacity="1" stroke="#000000" stroke-opacity="1" stroke-width="3.84"/>
<circle clip-path="url(#clip902)" cx="445.206" cy="518.769" r="14.4" fill="#009af9" fill-rule="evenodd" fill-opacity="1" stroke="#000000" stroke-opacity="1" stroke-width="3.84"/>
<circle clip-path="url(#clip902)" cx="491.428" cy="593.128" r="14.4" fill="#009af9" fill-rule="evenodd" fill-opacity="1" stroke="#000000" stroke-opacity="1" stroke-width="3.84"/>
<circle clip-path="url(#clip902)" cx="537.65" cy="435.242" r="14.4" fill="#009af9" fill-rule="evenodd" fill-opacity="1" stroke="#000000" stroke-opacity="1" stroke-width="3.84"/>
<circle clip-path="url(#clip902)" cx="583.872" cy="580.235" r="14.4" fill="#009af9" fill-rule="evenodd" fill-opacity="1" stroke="#000000" stroke-opacity="1" stroke-width="3.84"/>
<circle clip-path="url(#clip902)" cx="630.094" cy="499.361" r="14.4" fill="#009af9" fill-rule="evenodd" fill-opacity="1" stroke="#000000" stroke-opacity="1" stroke-width="3.84"/>
<circle clip-path="url(#clip902)" cx="676.316" cy="621.632" r="14.4" fill="#009af9" fill-rule="evenodd" fill-opacity="1" stroke="#000000" stroke-opacity="1" stroke-width="3.84"/>
<circle clip-path="url(#clip902)" cx="722.538" cy="579.503" r="14.4" fill="#009af9" fill-rule="evenodd" fill-opacity="1" stroke="#000000" stroke-opacity="1" stroke-width="3.84"/>
<circle clip-path="url(#clip902)" cx="768.761" cy="350.325" r="14.4" fill="#009af9" fill-rule="evenodd" fill-opacity="1" stroke="#000000" stroke-opacity="1" stroke-width="3.84"/>
<circle clip-path="url(#clip902)" cx="814.983" cy="388.248" r="14.4" fill="#009af9" fill-rule="evenodd" fill-opacity="1" stroke="#000000" stroke-opacity="1" stroke-width="3.84"/>
<circle clip-path="url(#clip902)" cx="861.205" cy="373.982" r="14.4" fill="#009af9" fill-rule="evenodd" fill-opacity="1" stroke="#000000" stroke-opacity="1" stroke-width="3.84"/>
<circle clip-path="url(#clip902)" cx="907.427" cy="177.609" r="14.4" fill="#009af9" fill-rule="evenodd" fill-opacity="1" stroke="#000000" stroke-opacity="1" stroke-width="3.84"/>
<circle clip-path="url(#clip902)" cx="953.649" cy="175.141" r="14.4" fill="#009af9" fill-rule="evenodd" fill-opacity="1" stroke="#000000" stroke-opacity="1" stroke-width="3.84"/>
<circle clip-path="url(#clip902)" cx="999.871" cy="301.908" r="14.4" fill="#009af9" fill-rule="evenodd" fill-opacity="1" stroke="#000000" stroke-opacity="1" stroke-width="3.84"/>
<circle clip-path="url(#clip902)" cx="1046.09" cy="338.219" r="14.4" fill="#009af9" fill-rule="evenodd" fill-opacity="1" stroke="#000000" stroke-opacity="1" stroke-width="3.84"/>
<circle clip-path="url(#clip902)" cx="1092.32" cy="399.958" r="14.4" fill="#009af9" fill-rule="evenodd" fill-opacity="1" stroke="#000000" stroke-opacity="1" stroke-width="3.84"/>
<circle clip-path="url(#clip902)" cx="1138.54" cy="258.74" r="14.4" fill="#009af9" fill-rule="evenodd" fill-opacity="1" stroke="#000000" stroke-opacity="1" stroke-width="3.84"/>
<circle clip-path="url(#clip902)" cx="1184.76" cy="337.457" r="14.4" fill="#009af9" fill-rule="evenodd" fill-opacity="1" stroke="#000000" stroke-opacity="1" stroke-width="3.84"/>
<circle clip-path="url(#clip902)" cx="1230.98" cy="388.37" r="14.4" fill="#009af9" fill-rule="evenodd" fill-opacity="1" stroke="#000000" stroke-opacity="1" stroke-width="3.84"/>
<circle clip-path="url(#clip902)" cx="1277.2" cy="444.021" r="14.4" fill="#009af9" fill-rule="evenodd" fill-opacity="1" stroke="#000000" stroke-opacity="1" stroke-width="3.84"/>
<circle clip-path="url(#clip902)" cx="1323.43" cy="202.19" r="14.4" fill="#009af9" fill-rule="evenodd" fill-opacity="1" stroke="#000000" stroke-opacity="1" stroke-width="3.84"/>
<circle clip-path="url(#clip902)" cx="1369.65" cy="224.43" r="14.4" fill="#009af9" fill-rule="evenodd" fill-opacity="1" stroke="#000000" stroke-opacity="1" stroke-width="3.84"/>
<circle clip-path="url(#clip902)" cx="1415.87" cy="205.436" r="14.4" fill="#009af9" fill-rule="evenodd" fill-opacity="1" stroke="#000000" stroke-opacity="1" stroke-width="3.84"/>
<circle clip-path="url(#clip902)" cx="1462.09" cy="596.259" r="14.4" fill="#009af9" fill-rule="evenodd" fill-opacity="1" stroke="#000000" stroke-opacity="1" stroke-width="3.84"/>
<circle clip-path="url(#clip902)" cx="1508.31" cy="460.986" r="14.4" fill="#009af9" fill-rule="evenodd" fill-opacity="1" stroke="#000000" stroke-opacity="1" stroke-width="3.84"/>
<circle clip-path="url(#clip902)" cx="1554.54" cy="592.525" r="14.4" fill="#009af9" fill-rule="evenodd" fill-opacity="1" stroke="#000000" stroke-opacity="1" stroke-width="3.84"/>
<circle clip-path="url(#clip902)" cx="1600.76" cy="443.627" r="14.4" fill="#009af9" fill-rule="evenodd" fill-opacity="1" stroke="#000000" stroke-opacity="1" stroke-width="3.84"/>
<circle clip-path="url(#clip902)" cx="1646.98" cy="611.244" r="14.4" fill="#009af9" fill-rule="evenodd" fill-opacity="1" stroke="#000000" stroke-opacity="1" stroke-width="3.84"/>
<circle clip-path="url(#clip902)" cx="1693.2" cy="706.583" r="14.4" fill="#009af9" fill-rule="evenodd" fill-opacity="1" stroke="#000000" stroke-opacity="1" stroke-width="3.84"/>
<circle clip-path="url(#clip902)" cx="1739.42" cy="573.719" r="14.4" fill="#009af9" fill-rule="evenodd" fill-opacity="1" stroke="#000000" stroke-opacity="1" stroke-width="3.84"/>
<circle clip-path="url(#clip902)" cx="1785.65" cy="399.105" r="14.4" fill="#009af9" fill-rule="evenodd" fill-opacity="1" stroke="#000000" stroke-opacity="1" stroke-width="3.84"/>
<circle clip-path="url(#clip902)" cx="1831.87" cy="727.198" r="14.4" fill="#009af9" fill-rule="evenodd" fill-opacity="1" stroke="#000000" stroke-opacity="1" stroke-width="3.84"/>
<circle clip-path="url(#clip902)" cx="1878.09" cy="541.921" r="14.4" fill="#009af9" fill-rule="evenodd" fill-opacity="1" stroke="#000000" stroke-opacity="1" stroke-width="3.84"/>
<circle clip-path="url(#clip902)" cx="1924.31" cy="445.074" r="14.4" fill="#009af9" fill-rule="evenodd" fill-opacity="1" stroke="#000000" stroke-opacity="1" stroke-width="3.84"/>
<circle clip-path="url(#clip902)" cx="1970.54" cy="554.809" r="14.4" fill="#009af9" fill-rule="evenodd" fill-opacity="1" stroke="#000000" stroke-opacity="1" stroke-width="3.84"/>
<circle clip-path="url(#clip902)" cx="2016.76" cy="561.043" r="14.4" fill="#009af9" fill-rule="evenodd" fill-opacity="1" stroke="#000000" stroke-opacity="1" stroke-width="3.84"/>
<circle clip-path="url(#clip902)" cx="2062.98" cy="565.757" r="14.4" fill="#009af9" fill-rule="evenodd" fill-opacity="1" stroke="#000000" stroke-opacity="1" stroke-width="3.84"/>
<circle clip-path="url(#clip902)" cx="2109.2" cy="392.828" r="14.4" fill="#009af9" fill-rule="evenodd" fill-opacity="1" stroke="#000000" stroke-opacity="1" stroke-width="3.84"/>
<circle clip-path="url(#clip902)" cx="2155.42" cy="468.914" r="14.4" fill="#009af9" fill-rule="evenodd" fill-opacity="1" stroke="#000000" stroke-opacity="1" stroke-width="3.84"/>
<circle clip-path="url(#clip902)" cx="2201.65" cy="381.75" r="14.4" fill="#009af9" fill-rule="evenodd" fill-opacity="1" stroke="#000000" stroke-opacity="1" stroke-width="3.84"/>
<circle clip-path="url(#clip902)" cx="2247.87" cy="460.145" r="14.4" fill="#009af9" fill-rule="evenodd" fill-opacity="1" stroke="#000000" stroke-opacity="1" stroke-width="3.84"/>
<circle clip-path="url(#clip902)" cx="2294.09" cy="327.516" r="14.4" fill="#009af9" fill-rule="evenodd" fill-opacity="1" stroke="#000000" stroke-opacity="1" stroke-width="3.84"/>
<circle clip-path="url(#clip902)" cx="2340.31" cy="290.414" r="14.4" fill="#009af9" fill-rule="evenodd" fill-opacity="1" stroke="#000000" stroke-opacity="1" stroke-width="3.84"/>
<circle clip-path="url(#clip902)" cx="2386.53" cy="399.034" r="14.4" fill="#009af9" fill-rule="evenodd" fill-opacity="1" stroke="#000000" stroke-opacity="1" stroke-width="3.84"/>
<circle clip-path="url(#clip902)" cx="2432.76" cy="214.353" r="14.4" fill="#009af9" fill-rule="evenodd" fill-opacity="1" stroke="#000000" stroke-opacity="1" stroke-width="3.84"/>
<circle clip-path="url(#clip902)" cx="2478.98" cy="275.803" r="14.4" fill="#009af9" fill-rule="evenodd" fill-opacity="1" stroke="#000000" stroke-opacity="1" stroke-width="3.84"/>
<circle clip-path="url(#clip902)" cx="2525.2" cy="319.013" r="14.4" fill="#009af9" fill-rule="evenodd" fill-opacity="1" stroke="#000000" stroke-opacity="1" stroke-width="3.84"/>
<circle clip-path="url(#clip902)" cx="2571.42" cy="207.302" r="14.4" fill="#009af9" fill-rule="evenodd" fill-opacity="1" stroke="#000000" stroke-opacity="1" stroke-width="3.84"/>
<circle clip-path="url(#clip902)" cx="260.317" cy="463.368" r="14.4" fill="#e26f46" fill-rule="evenodd" fill-opacity="1" stroke="#000000" stroke-opacity="1" stroke-width="3.84"/>
<circle clip-path="url(#clip902)" cx="306.539" cy="391.655" r="14.4" fill="#e26f46" fill-rule="evenodd" fill-opacity="1" stroke="#000000" stroke-opacity="1" stroke-width="3.84"/>
<circle clip-path="url(#clip902)" cx="352.762" cy="512.144" r="14.4" fill="#e26f46" fill-rule="evenodd" fill-opacity="1" stroke="#000000" stroke-opacity="1" stroke-width="3.84"/>
<circle clip-path="url(#clip902)" cx="398.984" cy="882.177" r="14.4" fill="#e26f46" fill-rule="evenodd" fill-opacity="1" stroke="#000000" stroke-opacity="1" stroke-width="3.84"/>
<circle clip-path="url(#clip902)" cx="445.206" cy="793.217" r="14.4" fill="#e26f46" fill-rule="evenodd" fill-opacity="1" stroke="#000000" stroke-opacity="1" stroke-width="3.84"/>
<circle clip-path="url(#clip902)" cx="491.428" cy="683.593" r="14.4" fill="#e26f46" fill-rule="evenodd" fill-opacity="1" stroke="#000000" stroke-opacity="1" stroke-width="3.84"/>
<circle clip-path="url(#clip902)" cx="537.65" cy="746.795" r="14.4" fill="#e26f46" fill-rule="evenodd" fill-opacity="1" stroke="#000000" stroke-opacity="1" stroke-width="3.84"/>
<circle clip-path="url(#clip902)" cx="583.872" cy="793.081" r="14.4" fill="#e26f46" fill-rule="evenodd" fill-opacity="1" stroke="#000000" stroke-opacity="1" stroke-width="3.84"/>
<circle clip-path="url(#clip902)" cx="630.094" cy="941.872" r="14.4" fill="#e26f46" fill-rule="evenodd" fill-opacity="1" stroke="#000000" stroke-opacity="1" stroke-width="3.84"/>
<circle clip-path="url(#clip902)" cx="676.316" cy="835.902" r="14.4" fill="#e26f46" fill-rule="evenodd" fill-opacity="1" stroke="#000000" stroke-opacity="1" stroke-width="3.84"/>
<circle clip-path="url(#clip902)" cx="722.538" cy="1012.06" r="14.4" fill="#e26f46" fill-rule="evenodd" fill-opacity="1" stroke="#000000" stroke-opacity="1" stroke-width="3.84"/>
<circle clip-path="url(#clip902)" cx="768.761" cy="912.445" r="14.4" fill="#e26f46" fill-rule="evenodd" fill-opacity="1" stroke="#000000" stroke-opacity="1" stroke-width="3.84"/>
<circle clip-path="url(#clip902)" cx="814.983" cy="936.593" r="14.4" fill="#e26f46" fill-rule="evenodd" fill-opacity="1" stroke="#000000" stroke-opacity="1" stroke-width="3.84"/>
<circle clip-path="url(#clip902)" cx="861.205" cy="1050.36" r="14.4" fill="#e26f46" fill-rule="evenodd" fill-opacity="1" stroke="#000000" stroke-opacity="1" stroke-width="3.84"/>
<circle clip-path="url(#clip902)" cx="907.427" cy="976.489" r="14.4" fill="#e26f46" fill-rule="evenodd" fill-opacity="1" stroke="#000000" stroke-opacity="1" stroke-width="3.84"/>
<circle clip-path="url(#clip902)" cx="953.649" cy="918.065" r="14.4" fill="#e26f46" fill-rule="evenodd" fill-opacity="1" stroke="#000000" stroke-opacity="1" stroke-width="3.84"/>
<circle clip-path="url(#clip902)" cx="999.871" cy="756.985" r="14.4" fill="#e26f46" fill-rule="evenodd" fill-opacity="1" stroke="#000000" stroke-opacity="1" stroke-width="3.84"/>
<circle clip-path="url(#clip902)" cx="1046.09" cy="783.477" r="14.4" fill="#e26f46" fill-rule="evenodd" fill-opacity="1" stroke="#000000" stroke-opacity="1" stroke-width="3.84"/>
<circle clip-path="url(#clip902)" cx="1092.32" cy="696.516" r="14.4" fill="#e26f46" fill-rule="evenodd" fill-opacity="1" stroke="#000000" stroke-opacity="1" stroke-width="3.84"/>
<circle clip-path="url(#clip902)" cx="1138.54" cy="649.545" r="14.4" fill="#e26f46" fill-rule="evenodd" fill-opacity="1" stroke="#000000" stroke-opacity="1" stroke-width="3.84"/>
<circle clip-path="url(#clip902)" cx="1184.76" cy="801.591" r="14.4" fill="#e26f46" fill-rule="evenodd" fill-opacity="1" stroke="#000000" stroke-opacity="1" stroke-width="3.84"/>
<circle clip-path="url(#clip902)" cx="1230.98" cy="467.471" r="14.4" fill="#e26f46" fill-rule="evenodd" fill-opacity="1" stroke="#000000" stroke-opacity="1" stroke-width="3.84"/>
<circle clip-path="url(#clip902)" cx="1277.2" cy="576.275" r="14.4" fill="#e26f46" fill-rule="evenodd" fill-opacity="1" stroke="#000000" stroke-opacity="1" stroke-width="3.84"/>
<circle clip-path="url(#clip902)" cx="1323.43" cy="538.02" r="14.4" fill="#e26f46" fill-rule="evenodd" fill-opacity="1" stroke="#000000" stroke-opacity="1" stroke-width="3.84"/>
<circle clip-path="url(#clip902)" cx="1369.65" cy="495.547" r="14.4" fill="#e26f46" fill-rule="evenodd" fill-opacity="1" stroke="#000000" stroke-opacity="1" stroke-width="3.84"/>
<circle clip-path="url(#clip902)" cx="1415.87" cy="447.114" r="14.4" fill="#e26f46" fill-rule="evenodd" fill-opacity="1" stroke="#000000" stroke-opacity="1" stroke-width="3.84"/>
<circle clip-path="url(#clip902)" cx="1462.09" cy="384.824" r="14.4" fill="#e26f46" fill-rule="evenodd" fill-opacity="1" stroke="#000000" stroke-opacity="1" stroke-width="3.84"/>
<circle clip-path="url(#clip902)" cx="1508.31" cy="461.284" r="14.4" fill="#e26f46" fill-rule="evenodd" fill-opacity="1" stroke="#000000" stroke-opacity="1" stroke-width="3.84"/>
<circle clip-path="url(#clip902)" cx="1554.54" cy="415.752" r="14.4" fill="#e26f46" fill-rule="evenodd" fill-opacity="1" stroke="#000000" stroke-opacity="1" stroke-width="3.84"/>
<circle clip-path="url(#clip902)" cx="1600.76" cy="572.267" r="14.4" fill="#e26f46" fill-rule="evenodd" fill-opacity="1" stroke="#000000" stroke-opacity="1" stroke-width="3.84"/>
<circle clip-path="url(#clip902)" cx="1646.98" cy="605.413" r="14.4" fill="#e26f46" fill-rule="evenodd" fill-opacity="1" stroke="#000000" stroke-opacity="1" stroke-width="3.84"/>
<circle clip-path="url(#clip902)" cx="1693.2" cy="515.346" r="14.4" fill="#e26f46" fill-rule="evenodd" fill-opacity="1" stroke="#000000" stroke-opacity="1" stroke-width="3.84"/>
<circle clip-path="url(#clip902)" cx="1739.42" cy="530.03" r="14.4" fill="#e26f46" fill-rule="evenodd" fill-opacity="1" stroke="#000000" stroke-opacity="1" stroke-width="3.84"/>
<circle clip-path="url(#clip902)" cx="1785.65" cy="793.625" r="14.4" fill="#e26f46" fill-rule="evenodd" fill-opacity="1" stroke="#000000" stroke-opacity="1" stroke-width="3.84"/>
<circle clip-path="url(#clip902)" cx="1831.87" cy="646.178" r="14.4" fill="#e26f46" fill-rule="evenodd" fill-opacity="1" stroke="#000000" stroke-opacity="1" stroke-width="3.84"/>
<circle clip-path="url(#clip902)" cx="1878.09" cy="606.106" r="14.4" fill="#e26f46" fill-rule="evenodd" fill-opacity="1" stroke="#000000" stroke-opacity="1" stroke-width="3.84"/>
<circle clip-path="url(#clip902)" cx="1924.31" cy="578.452" r="14.4" fill="#e26f46" fill-rule="evenodd" fill-opacity="1" stroke="#000000" stroke-opacity="1" stroke-width="3.84"/>
<circle clip-path="url(#clip902)" cx="1970.54" cy="838.46" r="14.4" fill="#e26f46" fill-rule="evenodd" fill-opacity="1" stroke="#000000" stroke-opacity="1" stroke-width="3.84"/>
<circle clip-path="url(#clip902)" cx="2016.76" cy="876.065" r="14.4" fill="#e26f46" fill-rule="evenodd" fill-opacity="1" stroke="#000000" stroke-opacity="1" stroke-width="3.84"/>
<circle clip-path="url(#clip902)" cx="2062.98" cy="618.667" r="14.4" fill="#e26f46" fill-rule="evenodd" fill-opacity="1" stroke="#000000" stroke-opacity="1" stroke-width="3.84"/>
<circle clip-path="url(#clip902)" cx="2109.2" cy="889.258" r="14.4" fill="#e26f46" fill-rule="evenodd" fill-opacity="1" stroke="#000000" stroke-opacity="1" stroke-width="3.84"/>
<circle clip-path="url(#clip902)" cx="2155.42" cy="892.806" r="14.4" fill="#e26f46" fill-rule="evenodd" fill-opacity="1" stroke="#000000" stroke-opacity="1" stroke-width="3.84"/>
<circle clip-path="url(#clip902)" cx="2201.65" cy="895.662" r="14.4" fill="#e26f46" fill-rule="evenodd" fill-opacity="1" stroke="#000000" stroke-opacity="1" stroke-width="3.84"/>
<circle clip-path="url(#clip902)" cx="2247.87" cy="932.774" r="14.4" fill="#e26f46" fill-rule="evenodd" fill-opacity="1" stroke="#000000" stroke-opacity="1" stroke-width="3.84"/>
<circle clip-path="url(#clip902)" cx="2294.09" cy="945.602" r="14.4" fill="#e26f46" fill-rule="evenodd" fill-opacity="1" stroke="#000000" stroke-opacity="1" stroke-width="3.84"/>
<circle clip-path="url(#clip902)" cx="2340.31" cy="932.176" r="14.4" fill="#e26f46" fill-rule="evenodd" fill-opacity="1" stroke="#000000" stroke-opacity="1" stroke-width="3.84"/>
<circle clip-path="url(#clip902)" cx="2386.53" cy="821.961" r="14.4" fill="#e26f46" fill-rule="evenodd" fill-opacity="1" stroke="#000000" stroke-opacity="1" stroke-width="3.84"/>
<circle clip-path="url(#clip902)" cx="2432.76" cy="733.169" r="14.4" fill="#e26f46" fill-rule="evenodd" fill-opacity="1" stroke="#000000" stroke-opacity="1" stroke-width="3.84"/>
<circle clip-path="url(#clip902)" cx="2478.98" cy="747.098" r="14.4" fill="#e26f46" fill-rule="evenodd" fill-opacity="1" stroke="#000000" stroke-opacity="1" stroke-width="3.84"/>
<circle clip-path="url(#clip902)" cx="2525.2" cy="690.286" r="14.4" fill="#e26f46" fill-rule="evenodd" fill-opacity="1" stroke="#000000" stroke-opacity="1" stroke-width="3.84"/>
<circle clip-path="url(#clip902)" cx="2571.42" cy="752.324" r="14.4" fill="#e26f46" fill-rule="evenodd" fill-opacity="1" stroke="#000000" stroke-opacity="1" stroke-width="3.84"/>
<polyline clip-path="url(#clip902)" style="stroke:#009af9; stroke-linecap:round; stroke-linejoin:round; stroke-width:4; stroke-opacity:1; fill:none" points="260.317,581.801 306.539,681.061 352.762,776.401 398.984,865.794 445.206,948.076 491.428,1022.7 537.65,1089.53 583.872,1148.71 630.094,1200.53 676.316,1245.38 722.538,1283.69 768.761,1315.91 814.983,1342.49 861.205,1363.87 907.427,1380.48 953.649,1392.69 999.871,1400.89 1046.09,1405.42 1092.32,1406.59 1138.54,1404.7 1184.76,1400.02 1230.98,1392.8 1277.2,1383.26 1323.43,1371.62 1369.65,1358.05 1415.87,1342.75 1462.09,1325.86 1508.31,1307.52 1554.54,1287.88 1600.76,1267.05 1646.98,1245.14 1693.2,1222.25 1739.42,1198.47 1785.65,1173.88 1831.87,1148.56 1878.09,1122.58 1924.31,1096 1970.54,1068.87 2016.76,1041.25 2062.98,1013.19 2109.2,984.73 2155.42,955.906 2201.65,926.758 2247.87,897.318 2294.09,867.618 2340.31,837.686 2386.53,807.548 2432.76,777.231 2478.98,746.757 2525.2,716.149 2571.42,685.428 "/>
<polyline clip-path="url(#clip902)" style="stroke:#e26f46; stroke-linecap:round; stroke-linejoin:round; stroke-width:4; stroke-opacity:1; fill:none" points="260.317,463.368 306.539,469.855 352.762,483.183 398.984,501.404 445.206,523.11 491.428,547.308 537.65,573.305 583.872,600.614 630.094,628.892 676.316,657.892 722.538,687.435 768.761,717.389 814.983,747.655 861.205,778.155 907.427,808.829 953.649,839.628 999.871,870.513 1046.09,901.45 1092.32,932.41 1138.54,963.367 1184.76,994.298 1230.98,1025.18 1277.2,1055.99 1323.43,1086.71 1369.65,1117.31 1415.87,1147.78 1462.09,1178.1 1508.31,1208.23 1554.54,1238.16 1600.76,1267.86 1646.98,1297.29 1693.2,1326.43 1739.42,1355.25 1785.65,1383.7 1831.87,1411.76 1878.09,1439.37 1924.31,1466.48 1970.54,1493.05 2016.76,1519.02 2062.98,1544.33 2109.2,1568.9 2155.42,1592.66 2201.65,1615.54 2247.87,1637.43 2294.09,1658.24 2340.31,1677.85 2386.53,1696.16 2432.76,1713.02 2478.98,1728.3 2525.2,1741.82 2571.42,1753.43 "/>
<path clip-path="url(#clip900)" d="M272.643 442.758 L1194.42 442.758 L1194.42 183.558 L272.643 183.558  Z" fill="#ffffff" fill-rule="evenodd" fill-opacity="1"/>
<polyline clip-path="url(#clip900)" style="stroke:#000000; stroke-linecap:round; stroke-linejoin:round; stroke-width:4; stroke-opacity:1; fill:none" points="272.643,442.758 1194.42,442.758 1194.42,183.558 272.643,183.558 272.643,442.758 "/>
<circle clip-path="url(#clip900)" cx="381.522" cy="235.398" r="20.48" fill="#009af9" fill-rule="evenodd" fill-opacity="1" stroke="#000000" stroke-opacity="1" stroke-width="5.46133"/>
<path clip-path="url(#clip900)" d="M495.077 221.961 L495.077 234.947 L500.956 234.947 Q504.22 234.947 506.002 233.257 Q507.785 231.567 507.785 228.442 Q507.785 225.341 506.002 223.651 Q504.22 221.961 500.956 221.961 L495.077 221.961 M490.401 218.118 L500.956 218.118 Q506.766 218.118 509.729 220.757 Q512.715 223.373 512.715 228.442 Q512.715 233.558 509.729 236.174 Q506.766 238.79 500.956 238.79 L495.077 238.79 L495.077 252.678 L490.401 252.678 L490.401 218.118 Z" fill="#000000" fill-rule="nonzero" fill-opacity="1" /><path clip-path="url(#clip900)" d="M532.993 230.734 Q532.275 230.317 531.419 230.132 Q530.586 229.924 529.567 229.924 Q525.956 229.924 524.012 232.285 Q522.09 234.623 522.09 239.021 L522.09 252.678 L517.808 252.678 L517.808 226.753 L522.09 226.753 L522.09 230.78 Q523.433 228.419 525.586 227.285 Q527.738 226.128 530.817 226.128 Q531.257 226.128 531.789 226.197 Q532.322 226.243 532.97 226.359 L532.993 230.734 Z" fill="#000000" fill-rule="nonzero" fill-opacity="1" /><path clip-path="url(#clip900)" d="M558.595 238.651 L558.595 240.734 L539.012 240.734 Q539.289 245.132 541.65 247.447 Q544.035 249.739 548.271 249.739 Q550.724 249.739 553.016 249.137 Q555.331 248.535 557.599 247.331 L557.599 251.359 Q555.308 252.331 552.9 252.84 Q550.493 253.35 548.016 253.35 Q541.812 253.35 538.178 249.739 Q534.567 246.127 534.567 239.97 Q534.567 233.604 537.993 229.878 Q541.442 226.128 547.275 226.128 Q552.507 226.128 555.539 229.507 Q558.595 232.864 558.595 238.651 M554.336 237.401 Q554.289 233.905 552.368 231.822 Q550.47 229.739 547.322 229.739 Q543.757 229.739 541.604 231.753 Q539.475 233.766 539.15 237.424 L554.336 237.401 Z" fill="#000000" fill-rule="nonzero" fill-opacity="1" /><path clip-path="url(#clip900)" d="M576.372 255.086 Q574.567 259.715 572.854 261.127 Q571.141 262.539 568.271 262.539 L564.868 262.539 L564.868 258.975 L567.368 258.975 Q569.127 258.975 570.099 258.141 Q571.072 257.308 572.252 254.206 L573.016 252.262 L562.53 226.753 L567.044 226.753 L575.146 247.03 L583.247 226.753 L587.761 226.753 L576.372 255.086 Z" fill="#000000" fill-rule="nonzero" fill-opacity="1" /><path clip-path="url(#clip900)" d="M620.493 239.646 Q615.331 239.646 613.34 240.827 Q611.349 242.007 611.349 244.854 Q611.349 247.123 612.831 248.465 Q614.335 249.785 616.905 249.785 Q620.446 249.785 622.576 247.285 Q624.729 244.762 624.729 240.595 L624.729 239.646 L620.493 239.646 M628.988 237.887 L628.988 252.678 L624.729 252.678 L624.729 248.743 Q623.27 251.104 621.094 252.239 Q618.919 253.35 615.77 253.35 Q611.789 253.35 609.428 251.127 Q607.09 248.882 607.09 245.132 Q607.09 240.757 610.007 238.535 Q612.946 236.313 618.756 236.313 L624.729 236.313 L624.729 235.896 Q624.729 232.956 622.784 231.359 Q620.863 229.739 617.368 229.739 Q615.145 229.739 613.039 230.271 Q610.932 230.803 608.988 231.868 L608.988 227.933 Q611.326 227.03 613.525 226.591 Q615.724 226.128 617.807 226.128 Q623.432 226.128 626.21 229.044 Q628.988 231.961 628.988 237.887 Z" fill="#000000" fill-rule="nonzero" fill-opacity="1" /><path clip-path="url(#clip900)" d="M656.372 239.739 Q656.372 235.04 654.428 232.378 Q652.506 229.692 649.127 229.692 Q645.747 229.692 643.803 232.378 Q641.881 235.04 641.881 239.739 Q641.881 244.438 643.803 247.123 Q645.747 249.785 649.127 249.785 Q652.506 249.785 654.428 247.123 Q656.372 244.438 656.372 239.739 M641.881 230.688 Q643.224 228.373 645.261 227.262 Q647.321 226.128 650.168 226.128 Q654.891 226.128 657.83 229.878 Q660.793 233.628 660.793 239.739 Q660.793 245.85 657.83 249.6 Q654.891 253.35 650.168 253.35 Q647.321 253.35 645.261 252.239 Q643.224 251.104 641.881 248.789 L641.881 252.678 L637.599 252.678 L637.599 216.66 L641.881 216.66 L641.881 230.688 Z" fill="#000000" fill-rule="nonzero" fill-opacity="1" /><path clip-path="url(#clip900)" d="M667.414 242.447 L667.414 226.753 L671.673 226.753 L671.673 242.285 Q671.673 245.965 673.108 247.817 Q674.543 249.646 677.414 249.646 Q680.863 249.646 682.853 247.447 Q684.867 245.248 684.867 241.452 L684.867 226.753 L689.126 226.753 L689.126 252.678 L684.867 252.678 L684.867 248.697 Q683.316 251.058 681.256 252.215 Q679.219 253.35 676.511 253.35 Q672.043 253.35 669.728 250.572 Q667.414 247.794 667.414 242.447 M678.131 226.128 L678.131 226.128 Z" fill="#000000" fill-rule="nonzero" fill-opacity="1" /><path clip-path="url(#clip900)" d="M719.45 237.03 L719.45 252.678 L715.191 252.678 L715.191 237.169 Q715.191 233.489 713.756 231.66 Q712.321 229.831 709.45 229.831 Q706.001 229.831 704.011 232.03 Q702.02 234.229 702.02 238.026 L702.02 252.678 L697.738 252.678 L697.738 226.753 L702.02 226.753 L702.02 230.78 Q703.548 228.442 705.608 227.285 Q707.691 226.128 710.4 226.128 Q714.867 226.128 717.159 228.905 Q719.45 231.66 719.45 237.03 Z" fill="#000000" fill-rule="nonzero" fill-opacity="1" /><path clip-path="url(#clip900)" d="M745.006 230.688 L745.006 216.66 L749.265 216.66 L749.265 252.678 L745.006 252.678 L745.006 248.789 Q743.663 251.104 741.603 252.239 Q739.566 253.35 736.696 253.35 Q731.997 253.35 729.034 249.6 Q726.094 245.85 726.094 239.739 Q726.094 233.628 729.034 229.878 Q731.997 226.128 736.696 226.128 Q739.566 226.128 741.603 227.262 Q743.663 228.373 745.006 230.688 M730.492 239.739 Q730.492 244.438 732.413 247.123 Q734.358 249.785 737.737 249.785 Q741.117 249.785 743.061 247.123 Q745.006 244.438 745.006 239.739 Q745.006 235.04 743.061 232.378 Q741.117 229.692 737.737 229.692 Q734.358 229.692 732.413 232.378 Q730.492 235.04 730.492 239.739 Z" fill="#000000" fill-rule="nonzero" fill-opacity="1" /><path clip-path="url(#clip900)" d="M769.82 239.646 Q764.658 239.646 762.668 240.827 Q760.677 242.007 760.677 244.854 Q760.677 247.123 762.158 248.465 Q763.663 249.785 766.233 249.785 Q769.774 249.785 771.904 247.285 Q774.057 244.762 774.057 240.595 L774.057 239.646 L769.82 239.646 M778.316 237.887 L778.316 252.678 L774.057 252.678 L774.057 248.743 Q772.598 251.104 770.422 252.239 Q768.246 253.35 765.098 253.35 Q761.117 253.35 758.756 251.127 Q756.418 248.882 756.418 245.132 Q756.418 240.757 759.334 238.535 Q762.274 236.313 768.084 236.313 L774.057 236.313 L774.057 235.896 Q774.057 232.956 772.112 231.359 Q770.191 229.739 766.696 229.739 Q764.473 229.739 762.367 230.271 Q760.26 230.803 758.316 231.868 L758.316 227.933 Q760.654 227.03 762.853 226.591 Q765.052 226.128 767.135 226.128 Q772.76 226.128 775.538 229.044 Q778.316 231.961 778.316 237.887 Z" fill="#000000" fill-rule="nonzero" fill-opacity="1" /><path clip-path="url(#clip900)" d="M808.64 237.03 L808.64 252.678 L804.38 252.678 L804.38 237.169 Q804.38 233.489 802.945 231.66 Q801.51 229.831 798.64 229.831 Q795.191 229.831 793.2 232.03 Q791.209 234.229 791.209 238.026 L791.209 252.678 L786.927 252.678 L786.927 226.753 L791.209 226.753 L791.209 230.78 Q792.737 228.442 794.797 227.285 Q796.881 226.128 799.589 226.128 Q804.056 226.128 806.348 228.905 Q808.64 231.66 808.64 237.03 Z" fill="#000000" fill-rule="nonzero" fill-opacity="1" /><path clip-path="url(#clip900)" d="M835.792 227.748 L835.792 231.729 Q833.987 230.734 832.158 230.248 Q830.353 229.739 828.501 229.739 Q824.357 229.739 822.066 232.378 Q819.774 234.993 819.774 239.739 Q819.774 244.484 822.066 247.123 Q824.357 249.739 828.501 249.739 Q830.353 249.739 832.158 249.252 Q833.987 248.743 835.792 247.748 L835.792 251.683 Q834.01 252.516 832.089 252.933 Q830.191 253.35 828.038 253.35 Q822.181 253.35 818.732 249.669 Q815.283 245.989 815.283 239.739 Q815.283 233.396 818.755 229.762 Q822.251 226.128 828.316 226.128 Q830.283 226.128 832.158 226.544 Q834.033 226.938 835.792 227.748 Z" fill="#000000" fill-rule="nonzero" fill-opacity="1" /><path clip-path="url(#clip900)" d="M865.376 238.651 L865.376 240.734 L845.792 240.734 Q846.07 245.132 848.431 247.447 Q850.815 249.739 855.052 249.739 Q857.505 249.739 859.797 249.137 Q862.112 248.535 864.38 247.331 L864.38 251.359 Q862.089 252.331 859.681 252.84 Q857.274 253.35 854.797 253.35 Q848.593 253.35 844.959 249.739 Q841.348 246.127 841.348 239.97 Q841.348 233.604 844.774 229.878 Q848.223 226.128 854.056 226.128 Q859.288 226.128 862.32 229.507 Q865.376 232.864 865.376 238.651 M861.116 237.401 Q861.07 233.905 859.149 231.822 Q857.251 229.739 854.102 229.739 Q850.538 229.739 848.385 231.753 Q846.255 233.766 845.931 237.424 L861.116 237.401 Z" fill="#000000" fill-rule="nonzero" fill-opacity="1" /><path clip-path="url(#clip900)" d="M904.496 230.688 L904.496 216.66 L908.755 216.66 L908.755 252.678 L904.496 252.678 L904.496 248.789 Q903.153 251.104 901.093 252.239 Q899.056 253.35 896.186 253.35 Q891.487 253.35 888.524 249.6 Q885.584 245.85 885.584 239.739 Q885.584 233.628 888.524 229.878 Q891.487 226.128 896.186 226.128 Q899.056 226.128 901.093 227.262 Q903.153 228.373 904.496 230.688 M889.982 239.739 Q889.982 244.438 891.903 247.123 Q893.848 249.785 897.227 249.785 Q900.607 249.785 902.551 247.123 Q904.496 244.438 904.496 239.739 Q904.496 235.04 902.551 232.378 Q900.607 229.692 897.227 229.692 Q893.848 229.692 891.903 232.378 Q889.982 235.04 889.982 239.739 Z" fill="#000000" fill-rule="nonzero" fill-opacity="1" /><path clip-path="url(#clip900)" d="M929.31 239.646 Q924.148 239.646 922.158 240.827 Q920.167 242.007 920.167 244.854 Q920.167 247.123 921.648 248.465 Q923.153 249.785 925.722 249.785 Q929.264 249.785 931.394 247.285 Q933.546 244.762 933.546 240.595 L933.546 239.646 L929.31 239.646 M937.806 237.887 L937.806 252.678 L933.546 252.678 L933.546 248.743 Q932.088 251.104 929.912 252.239 Q927.736 253.35 924.588 253.35 Q920.607 253.35 918.246 251.127 Q915.908 248.882 915.908 245.132 Q915.908 240.757 918.824 238.535 Q921.764 236.313 927.574 236.313 L933.546 236.313 L933.546 235.896 Q933.546 232.956 931.602 231.359 Q929.681 229.739 926.185 229.739 Q923.963 229.739 921.857 230.271 Q919.75 230.803 917.806 231.868 L917.806 227.933 Q920.144 227.03 922.343 226.591 Q924.542 226.128 926.625 226.128 Q932.25 226.128 935.028 229.044 Q937.806 231.961 937.806 237.887 Z" fill="#000000" fill-rule="nonzero" fill-opacity="1" /><path clip-path="url(#clip900)" d="M950.792 219.392 L950.792 226.753 L959.565 226.753 L959.565 230.063 L950.792 230.063 L950.792 244.137 Q950.792 247.308 951.648 248.211 Q952.528 249.114 955.19 249.114 L959.565 249.114 L959.565 252.678 L955.19 252.678 Q950.259 252.678 948.384 250.85 Q946.509 248.998 946.509 244.137 L946.509 230.063 L943.384 230.063 L943.384 226.753 L946.509 226.753 L946.509 219.392 L950.792 219.392 Z" fill="#000000" fill-rule="nonzero" fill-opacity="1" /><path clip-path="url(#clip900)" d="M976.949 239.646 Q971.787 239.646 969.796 240.827 Q967.806 242.007 967.806 244.854 Q967.806 247.123 969.287 248.465 Q970.792 249.785 973.361 249.785 Q976.903 249.785 979.032 247.285 Q981.185 244.762 981.185 240.595 L981.185 239.646 L976.949 239.646 M985.444 237.887 L985.444 252.678 L981.185 252.678 L981.185 248.743 Q979.727 251.104 977.551 252.239 Q975.375 253.35 972.227 253.35 Q968.245 253.35 965.884 251.127 Q963.546 248.882 963.546 245.132 Q963.546 240.757 966.463 238.535 Q969.403 236.313 975.213 236.313 L981.185 236.313 L981.185 235.896 Q981.185 232.956 979.241 231.359 Q977.319 229.739 973.824 229.739 Q971.602 229.739 969.495 230.271 Q967.389 230.803 965.444 231.868 L965.444 227.933 Q967.782 227.03 969.981 226.591 Q972.181 226.128 974.264 226.128 Q979.889 226.128 982.667 229.044 Q985.444 231.961 985.444 237.887 Z" fill="#000000" fill-rule="nonzero" fill-opacity="1" /><circle clip-path="url(#clip900)" cx="381.522" cy="287.238" r="20.48" fill="#e26f46" fill-rule="evenodd" fill-opacity="1" stroke="#000000" stroke-opacity="1" stroke-width="5.46133"/>
<path clip-path="url(#clip900)" d="M495.077 273.801 L495.077 286.787 L500.956 286.787 Q504.22 286.787 506.002 285.097 Q507.785 283.407 507.785 280.282 Q507.785 277.181 506.002 275.491 Q504.22 273.801 500.956 273.801 L495.077 273.801 M490.401 269.958 L500.956 269.958 Q506.766 269.958 509.729 272.597 Q512.715 275.213 512.715 280.282 Q512.715 285.398 509.729 288.014 Q506.766 290.63 500.956 290.63 L495.077 290.63 L495.077 304.518 L490.401 304.518 L490.401 269.958 Z" fill="#000000" fill-rule="nonzero" fill-opacity="1" /><path clip-path="url(#clip900)" d="M532.993 282.574 Q532.275 282.157 531.419 281.972 Q530.586 281.764 529.567 281.764 Q525.956 281.764 524.012 284.125 Q522.09 286.463 522.09 290.861 L522.09 304.518 L517.808 304.518 L517.808 278.593 L522.09 278.593 L522.09 282.62 Q523.433 280.259 525.586 279.125 Q527.738 277.968 530.817 277.968 Q531.257 277.968 531.789 278.037 Q532.322 278.083 532.97 278.199 L532.993 282.574 Z" fill="#000000" fill-rule="nonzero" fill-opacity="1" /><path clip-path="url(#clip900)" d="M558.595 290.491 L558.595 292.574 L539.012 292.574 Q539.289 296.972 541.65 299.287 Q544.035 301.579 548.271 301.579 Q550.724 301.579 553.016 300.977 Q555.331 300.375 557.599 299.171 L557.599 303.199 Q555.308 304.171 552.9 304.68 Q550.493 305.19 548.016 305.19 Q541.812 305.19 538.178 301.579 Q534.567 297.967 534.567 291.81 Q534.567 285.444 537.993 281.718 Q541.442 277.968 547.275 277.968 Q552.507 277.968 555.539 281.347 Q558.595 284.704 558.595 290.491 M554.336 289.241 Q554.289 285.745 552.368 283.662 Q550.47 281.579 547.322 281.579 Q543.757 281.579 541.604 283.593 Q539.475 285.606 539.15 289.264 L554.336 289.241 Z" fill="#000000" fill-rule="nonzero" fill-opacity="1" /><path clip-path="url(#clip900)" d="M582.646 282.528 L582.646 268.5 L586.905 268.5 L586.905 304.518 L582.646 304.518 L582.646 300.629 Q581.303 302.944 579.243 304.079 Q577.206 305.19 574.335 305.19 Q569.636 305.19 566.673 301.44 Q563.734 297.69 563.734 291.579 Q563.734 285.468 566.673 281.718 Q569.636 277.968 574.335 277.968 Q577.206 277.968 579.243 279.102 Q581.303 280.213 582.646 282.528 M568.132 291.579 Q568.132 296.278 570.053 298.963 Q571.997 301.625 575.377 301.625 Q578.757 301.625 580.701 298.963 Q582.646 296.278 582.646 291.579 Q582.646 286.88 580.701 284.218 Q578.757 281.532 575.377 281.532 Q571.997 281.532 570.053 284.218 Q568.132 286.88 568.132 291.579 Z" fill="#000000" fill-rule="nonzero" fill-opacity="1" /><path clip-path="url(#clip900)" d="M607.46 291.486 Q602.298 291.486 600.308 292.667 Q598.317 293.847 598.317 296.694 Q598.317 298.963 599.798 300.305 Q601.303 301.625 603.872 301.625 Q607.414 301.625 609.544 299.125 Q611.696 296.602 611.696 292.435 L611.696 291.486 L607.46 291.486 M615.956 289.727 L615.956 304.518 L611.696 304.518 L611.696 300.583 Q610.238 302.944 608.062 304.079 Q605.886 305.19 602.738 305.19 Q598.757 305.19 596.395 302.967 Q594.058 300.722 594.058 296.972 Q594.058 292.597 596.974 290.375 Q599.914 288.153 605.724 288.153 L611.696 288.153 L611.696 287.736 Q611.696 284.796 609.752 283.199 Q607.831 281.579 604.335 281.579 Q602.113 281.579 600.007 282.111 Q597.9 282.643 595.956 283.708 L595.956 279.773 Q598.294 278.87 600.493 278.431 Q602.692 277.968 604.775 277.968 Q610.4 277.968 613.178 280.884 Q615.956 283.801 615.956 289.727 Z" fill="#000000" fill-rule="nonzero" fill-opacity="1" /><path clip-path="url(#clip900)" d="M628.942 271.232 L628.942 278.593 L637.715 278.593 L637.715 281.903 L628.942 281.903 L628.942 295.977 Q628.942 299.148 629.798 300.051 Q630.678 300.954 633.34 300.954 L637.715 300.954 L637.715 304.518 L633.34 304.518 Q628.409 304.518 626.534 302.69 Q624.659 300.838 624.659 295.977 L624.659 281.903 L621.534 281.903 L621.534 278.593 L624.659 278.593 L624.659 271.232 L628.942 271.232 Z" fill="#000000" fill-rule="nonzero" fill-opacity="1" /><path clip-path="url(#clip900)" d="M653.363 281.579 Q649.937 281.579 647.946 284.264 Q645.955 286.926 645.955 291.579 Q645.955 296.231 647.923 298.917 Q649.914 301.579 653.363 301.579 Q656.766 301.579 658.756 298.893 Q660.747 296.208 660.747 291.579 Q660.747 286.972 658.756 284.287 Q656.766 281.579 653.363 281.579 M653.363 277.968 Q658.918 277.968 662.09 281.579 Q665.261 285.19 665.261 291.579 Q665.261 297.944 662.09 301.579 Q658.918 305.19 653.363 305.19 Q647.784 305.19 644.613 301.579 Q641.465 297.944 641.465 291.579 Q641.465 285.19 644.613 281.579 Q647.784 277.968 653.363 277.968 Z" fill="#000000" fill-rule="nonzero" fill-opacity="1" /><path clip-path="url(#clip900)" d="M687.344 282.574 Q686.626 282.157 685.77 281.972 Q684.937 281.764 683.918 281.764 Q680.307 281.764 678.363 284.125 Q676.441 286.463 676.441 290.861 L676.441 304.518 L672.159 304.518 L672.159 278.593 L676.441 278.593 L676.441 282.62 Q677.784 280.259 679.937 279.125 Q682.089 277.968 685.168 277.968 Q685.608 277.968 686.14 278.037 Q686.673 278.083 687.321 278.199 L687.344 282.574 Z" fill="#000000" fill-rule="nonzero" fill-opacity="1" /><path clip-path="url(#clip900)" d="M718.663 291.486 Q713.501 291.486 711.511 292.667 Q709.52 293.847 709.52 296.694 Q709.52 298.963 711.001 300.305 Q712.506 301.625 715.075 301.625 Q718.617 301.625 720.747 299.125 Q722.899 296.602 722.899 292.435 L722.899 291.486 L718.663 291.486 M727.159 289.727 L727.159 304.518 L722.899 304.518 L722.899 300.583 Q721.441 302.944 719.265 304.079 Q717.089 305.19 713.941 305.19 Q709.96 305.19 707.599 302.967 Q705.261 300.722 705.261 296.972 Q705.261 292.597 708.177 290.375 Q711.117 288.153 716.927 288.153 L722.899 288.153 L722.899 287.736 Q722.899 284.796 720.955 283.199 Q719.034 281.579 715.538 281.579 Q713.316 281.579 711.21 282.111 Q709.103 282.643 707.159 283.708 L707.159 279.773 Q709.497 278.87 711.696 278.431 Q713.895 277.968 715.978 277.968 Q721.603 277.968 724.381 280.884 Q727.159 283.801 727.159 289.727 Z" fill="#000000" fill-rule="nonzero" fill-opacity="1" /><path clip-path="url(#clip900)" d="M754.543 291.579 Q754.543 286.88 752.598 284.218 Q750.677 281.532 747.297 281.532 Q743.918 281.532 741.973 284.218 Q740.052 286.88 740.052 291.579 Q740.052 296.278 741.973 298.963 Q743.918 301.625 747.297 301.625 Q750.677 301.625 752.598 298.963 Q754.543 296.278 754.543 291.579 M740.052 282.528 Q741.395 280.213 743.432 279.102 Q745.492 277.968 748.339 277.968 Q753.061 277.968 756.001 281.718 Q758.964 285.468 758.964 291.579 Q758.964 297.69 756.001 301.44 Q753.061 305.19 748.339 305.19 Q745.492 305.19 743.432 304.079 Q741.395 302.944 740.052 300.629 L740.052 304.518 L735.77 304.518 L735.77 268.5 L740.052 268.5 L740.052 282.528 Z" fill="#000000" fill-rule="nonzero" fill-opacity="1" /><path clip-path="url(#clip900)" d="M765.584 294.287 L765.584 278.593 L769.844 278.593 L769.844 294.125 Q769.844 297.805 771.279 299.657 Q772.714 301.486 775.584 301.486 Q779.033 301.486 781.024 299.287 Q783.038 297.088 783.038 293.292 L783.038 278.593 L787.297 278.593 L787.297 304.518 L783.038 304.518 L783.038 300.537 Q781.487 302.898 779.427 304.055 Q777.39 305.19 774.682 305.19 Q770.214 305.19 767.899 302.412 Q765.584 299.634 765.584 294.287 M776.302 277.968 L776.302 277.968 Z" fill="#000000" fill-rule="nonzero" fill-opacity="1" /><path clip-path="url(#clip900)" d="M817.621 288.87 L817.621 304.518 L813.362 304.518 L813.362 289.009 Q813.362 285.329 811.927 283.5 Q810.492 281.671 807.621 281.671 Q804.172 281.671 802.181 283.87 Q800.191 286.069 800.191 289.866 L800.191 304.518 L795.908 304.518 L795.908 278.593 L800.191 278.593 L800.191 282.62 Q801.718 280.282 803.779 279.125 Q805.862 277.968 808.57 277.968 Q813.038 277.968 815.33 280.745 Q817.621 283.5 817.621 288.87 Z" fill="#000000" fill-rule="nonzero" fill-opacity="1" /><path clip-path="url(#clip900)" d="M843.177 282.528 L843.177 268.5 L847.436 268.5 L847.436 304.518 L843.177 304.518 L843.177 300.629 Q841.834 302.944 839.774 304.079 Q837.737 305.19 834.866 305.19 Q830.167 305.19 827.204 301.44 Q824.265 297.69 824.265 291.579 Q824.265 285.468 827.204 281.718 Q830.167 277.968 834.866 277.968 Q837.737 277.968 839.774 279.102 Q841.834 280.213 843.177 282.528 M828.663 291.579 Q828.663 296.278 830.584 298.963 Q832.528 301.625 835.908 301.625 Q839.288 301.625 841.232 298.963 Q843.177 296.278 843.177 291.579 Q843.177 286.88 841.232 284.218 Q839.288 281.532 835.908 281.532 Q832.528 281.532 830.584 284.218 Q828.663 286.88 828.663 291.579 Z" fill="#000000" fill-rule="nonzero" fill-opacity="1" /><path clip-path="url(#clip900)" d="M867.991 291.486 Q862.829 291.486 860.839 292.667 Q858.848 293.847 858.848 296.694 Q858.848 298.963 860.329 300.305 Q861.834 301.625 864.403 301.625 Q867.945 301.625 870.075 299.125 Q872.227 296.602 872.227 292.435 L872.227 291.486 L867.991 291.486 M876.487 289.727 L876.487 304.518 L872.227 304.518 L872.227 300.583 Q870.769 302.944 868.593 304.079 Q866.417 305.19 863.269 305.19 Q859.288 305.19 856.927 302.967 Q854.589 300.722 854.589 296.972 Q854.589 292.597 857.505 290.375 Q860.445 288.153 866.255 288.153 L872.227 288.153 L872.227 287.736 Q872.227 284.796 870.283 283.199 Q868.362 281.579 864.866 281.579 Q862.644 281.579 860.538 282.111 Q858.431 282.643 856.487 283.708 L856.487 279.773 Q858.825 278.87 861.024 278.431 Q863.223 277.968 865.306 277.968 Q870.931 277.968 873.709 280.884 Q876.487 283.801 876.487 289.727 Z" fill="#000000" fill-rule="nonzero" fill-opacity="1" /><path clip-path="url(#clip900)" d="M906.81 288.87 L906.81 304.518 L902.551 304.518 L902.551 289.009 Q902.551 285.329 901.116 283.5 Q899.681 281.671 896.811 281.671 Q893.361 281.671 891.371 283.87 Q889.38 286.069 889.38 289.866 L889.38 304.518 L885.098 304.518 L885.098 278.593 L889.38 278.593 L889.38 282.62 Q890.908 280.282 892.968 279.125 Q895.051 277.968 897.76 277.968 Q902.227 277.968 904.519 280.745 Q906.81 283.5 906.81 288.87 Z" fill="#000000" fill-rule="nonzero" fill-opacity="1" /><path clip-path="url(#clip900)" d="M933.963 279.588 L933.963 283.569 Q932.158 282.574 930.329 282.088 Q928.523 281.579 926.672 281.579 Q922.528 281.579 920.236 284.218 Q917.945 286.833 917.945 291.579 Q917.945 296.324 920.236 298.963 Q922.528 301.579 926.672 301.579 Q928.523 301.579 930.329 301.092 Q932.158 300.583 933.963 299.588 L933.963 303.523 Q932.181 304.356 930.259 304.773 Q928.361 305.19 926.209 305.19 Q920.352 305.19 916.903 301.509 Q913.454 297.829 913.454 291.579 Q913.454 285.236 916.926 281.602 Q920.422 277.968 926.486 277.968 Q928.454 277.968 930.329 278.384 Q932.204 278.778 933.963 279.588 Z" fill="#000000" fill-rule="nonzero" fill-opacity="1" /><path clip-path="url(#clip900)" d="M963.546 290.491 L963.546 292.574 L943.963 292.574 Q944.241 296.972 946.602 299.287 Q948.986 301.579 953.222 301.579 Q955.676 301.579 957.968 300.977 Q960.282 300.375 962.551 299.171 L962.551 303.199 Q960.259 304.171 957.852 304.68 Q955.444 305.19 952.968 305.19 Q946.764 305.19 943.13 301.579 Q939.519 297.967 939.519 291.81 Q939.519 285.444 942.945 281.718 Q946.394 277.968 952.227 277.968 Q957.458 277.968 960.491 281.347 Q963.546 284.704 963.546 290.491 M959.287 289.241 Q959.241 285.745 957.319 283.662 Q955.421 281.579 952.273 281.579 Q948.708 281.579 946.556 283.593 Q944.426 285.606 944.102 289.264 L959.287 289.241 Z" fill="#000000" fill-rule="nonzero" fill-opacity="1" /><path clip-path="url(#clip900)" d="M1002.67 282.528 L1002.67 268.5 L1006.93 268.5 L1006.93 304.518 L1002.67 304.518 L1002.67 300.629 Q1001.32 302.944 999.264 304.079 Q997.227 305.19 994.356 305.19 Q989.657 305.19 986.694 301.44 Q983.755 297.69 983.755 291.579 Q983.755 285.468 986.694 281.718 Q989.657 277.968 994.356 277.968 Q997.227 277.968 999.264 279.102 Q1001.32 280.213 1002.67 282.528 M988.153 291.579 Q988.153 296.278 990.074 298.963 Q992.018 301.625 995.398 301.625 Q998.778 301.625 1000.72 298.963 Q1002.67 296.278 1002.67 291.579 Q1002.67 286.88 1000.72 284.218 Q998.778 281.532 995.398 281.532 Q992.018 281.532 990.074 284.218 Q988.153 286.88 988.153 291.579 Z" fill="#000000" fill-rule="nonzero" fill-opacity="1" /><path clip-path="url(#clip900)" d="M1027.48 291.486 Q1022.32 291.486 1020.33 292.667 Q1018.34 293.847 1018.34 296.694 Q1018.34 298.963 1019.82 300.305 Q1021.32 301.625 1023.89 301.625 Q1027.43 301.625 1029.56 299.125 Q1031.72 296.602 1031.72 292.435 L1031.72 291.486 L1027.48 291.486 M1035.98 289.727 L1035.98 304.518 L1031.72 304.518 L1031.72 300.583 Q1030.26 302.944 1028.08 304.079 Q1025.91 305.19 1022.76 305.19 Q1018.78 305.19 1016.42 302.967 Q1014.08 300.722 1014.08 296.972 Q1014.08 292.597 1017 290.375 Q1019.93 288.153 1025.75 288.153 L1031.72 288.153 L1031.72 287.736 Q1031.72 284.796 1029.77 283.199 Q1027.85 281.579 1024.36 281.579 Q1022.13 281.579 1020.03 282.111 Q1017.92 282.643 1015.98 283.708 L1015.98 279.773 Q1018.31 278.87 1020.51 278.431 Q1022.71 277.968 1024.8 277.968 Q1030.42 277.968 1033.2 280.884 Q1035.98 283.801 1035.98 289.727 Z" fill="#000000" fill-rule="nonzero" fill-opacity="1" /><path clip-path="url(#clip900)" d="M1048.96 271.232 L1048.96 278.593 L1057.74 278.593 L1057.74 281.903 L1048.96 281.903 L1048.96 295.977 Q1048.96 299.148 1049.82 300.051 Q1050.7 300.954 1053.36 300.954 L1057.74 300.954 L1057.74 304.518 L1053.36 304.518 Q1048.43 304.518 1046.56 302.69 Q1044.68 300.838 1044.68 295.977 L1044.68 281.903 L1041.56 281.903 L1041.56 278.593 L1044.68 278.593 L1044.68 271.232 L1048.96 271.232 Z" fill="#000000" fill-rule="nonzero" fill-opacity="1" /><path clip-path="url(#clip900)" d="M1075.12 291.486 Q1069.96 291.486 1067.97 292.667 Q1065.98 293.847 1065.98 296.694 Q1065.98 298.963 1067.46 300.305 Q1068.96 301.625 1071.53 301.625 Q1075.07 301.625 1077.2 299.125 Q1079.36 296.602 1079.36 292.435 L1079.36 291.486 L1075.12 291.486 M1083.62 289.727 L1083.62 304.518 L1079.36 304.518 L1079.36 300.583 Q1077.9 302.944 1075.72 304.079 Q1073.55 305.19 1070.4 305.19 Q1066.42 305.19 1064.06 302.967 Q1061.72 300.722 1061.72 296.972 Q1061.72 292.597 1064.63 290.375 Q1067.57 288.153 1073.38 288.153 L1079.36 288.153 L1079.36 287.736 Q1079.36 284.796 1077.41 283.199 Q1075.49 281.579 1071.99 281.579 Q1069.77 281.579 1067.67 282.111 Q1065.56 282.643 1063.62 283.708 L1063.62 279.773 Q1065.95 278.87 1068.15 278.431 Q1070.35 277.968 1072.43 277.968 Q1078.06 277.968 1080.84 280.884 Q1083.62 283.801 1083.62 289.727 Z" fill="#000000" fill-rule="nonzero" fill-opacity="1" /><polyline clip-path="url(#clip900)" style="stroke:#009af9; stroke-linecap:round; stroke-linejoin:round; stroke-width:4; stroke-opacity:1; fill:none" points="299.863,339.078 463.181,339.078 "/>
<path clip-path="url(#clip900)" d="M490.401 321.798 L495.077 321.798 L495.077 356.358 L490.401 356.358 L490.401 321.798 Z" fill="#000000" fill-rule="nonzero" fill-opacity="1" /><path clip-path="url(#clip900)" d="M525.748 340.71 L525.748 356.358 L521.488 356.358 L521.488 340.849 Q521.488 337.169 520.053 335.34 Q518.618 333.511 515.748 333.511 Q512.299 333.511 510.308 335.71 Q508.317 337.909 508.317 341.706 L508.317 356.358 L504.035 356.358 L504.035 330.433 L508.317 330.433 L508.317 334.46 Q509.845 332.122 511.905 330.965 Q513.989 329.808 516.697 329.808 Q521.164 329.808 523.456 332.585 Q525.748 335.34 525.748 340.71 Z" fill="#000000" fill-rule="nonzero" fill-opacity="1" /><path clip-path="url(#clip900)" d="M547.368 320.34 L547.368 323.882 L543.294 323.882 Q541.002 323.882 540.099 324.808 Q539.22 325.734 539.22 328.141 L539.22 330.433 L546.234 330.433 L546.234 333.743 L539.22 333.743 L539.22 356.358 L534.937 356.358 L534.937 333.743 L530.863 333.743 L530.863 330.433 L534.937 330.433 L534.937 328.627 Q534.937 324.298 536.951 322.331 Q538.965 320.34 543.34 320.34 L547.368 320.34 Z" fill="#000000" fill-rule="nonzero" fill-opacity="1" /><path clip-path="url(#clip900)" d="M573.109 342.331 L573.109 344.414 L553.525 344.414 Q553.803 348.812 556.164 351.127 Q558.548 353.419 562.785 353.419 Q565.238 353.419 567.53 352.817 Q569.845 352.215 572.113 351.011 L572.113 355.039 Q569.822 356.011 567.414 356.52 Q565.007 357.03 562.53 357.03 Q556.326 357.03 552.692 353.419 Q549.081 349.807 549.081 343.65 Q549.081 337.284 552.507 333.558 Q555.956 329.808 561.789 329.808 Q567.021 329.808 570.053 333.187 Q573.109 336.544 573.109 342.331 M568.849 341.081 Q568.803 337.585 566.882 335.502 Q564.984 333.419 561.835 333.419 Q558.271 333.419 556.118 335.433 Q553.988 337.446 553.664 341.104 L568.849 341.081 Z" fill="#000000" fill-rule="nonzero" fill-opacity="1" /><path clip-path="url(#clip900)" d="M595.122 334.414 Q594.405 333.997 593.548 333.812 Q592.715 333.604 591.696 333.604 Q588.085 333.604 586.141 335.965 Q584.22 338.303 584.22 342.701 L584.22 356.358 L579.937 356.358 L579.937 330.433 L584.22 330.433 L584.22 334.46 Q585.562 332.099 587.715 330.965 Q589.868 329.808 592.946 329.808 Q593.386 329.808 593.919 329.877 Q594.451 329.923 595.099 330.039 L595.122 334.414 Z" fill="#000000" fill-rule="nonzero" fill-opacity="1" /><path clip-path="url(#clip900)" d="M613.78 334.414 Q613.062 333.997 612.206 333.812 Q611.372 333.604 610.354 333.604 Q606.743 333.604 604.798 335.965 Q602.877 338.303 602.877 342.701 L602.877 356.358 L598.595 356.358 L598.595 330.433 L602.877 330.433 L602.877 334.46 Q604.22 332.099 606.372 330.965 Q608.525 329.808 611.604 329.808 Q612.044 329.808 612.576 329.877 Q613.108 329.923 613.757 330.039 L613.78 334.414 Z" fill="#000000" fill-rule="nonzero" fill-opacity="1" /><path clip-path="url(#clip900)" d="M639.381 342.331 L639.381 344.414 L619.798 344.414 Q620.076 348.812 622.437 351.127 Q624.821 353.419 629.057 353.419 Q631.511 353.419 633.803 352.817 Q636.118 352.215 638.386 351.011 L638.386 355.039 Q636.094 356.011 633.687 356.52 Q631.28 357.03 628.803 357.03 Q622.599 357.03 618.965 353.419 Q615.354 349.807 615.354 343.65 Q615.354 337.284 618.78 333.558 Q622.229 329.808 628.062 329.808 Q633.293 329.808 636.326 333.187 Q639.381 336.544 639.381 342.331 M635.122 341.081 Q635.076 337.585 633.155 335.502 Q631.256 333.419 628.108 333.419 Q624.543 333.419 622.391 335.433 Q620.261 337.446 619.937 341.104 L635.122 341.081 Z" fill="#000000" fill-rule="nonzero" fill-opacity="1" /><path clip-path="url(#clip900)" d="M663.432 334.368 L663.432 320.34 L667.691 320.34 L667.691 356.358 L663.432 356.358 L663.432 352.469 Q662.09 354.784 660.029 355.919 Q657.992 357.03 655.122 357.03 Q650.423 357.03 647.46 353.28 Q644.52 349.53 644.52 343.419 Q644.52 337.308 647.46 333.558 Q650.423 329.808 655.122 329.808 Q657.992 329.808 660.029 330.942 Q662.09 332.053 663.432 334.368 M648.918 343.419 Q648.918 348.118 650.84 350.803 Q652.784 353.465 656.164 353.465 Q659.543 353.465 661.488 350.803 Q663.432 348.118 663.432 343.419 Q663.432 338.72 661.488 336.058 Q659.543 333.372 656.164 333.372 Q652.784 333.372 650.84 336.058 Q648.918 338.72 648.918 343.419 Z" fill="#000000" fill-rule="nonzero" fill-opacity="1" /><path clip-path="url(#clip900)" d="M695.654 352.469 L695.654 366.219 L691.372 366.219 L691.372 330.433 L695.654 330.433 L695.654 334.368 Q696.997 332.053 699.034 330.942 Q701.094 329.808 703.941 329.808 Q708.663 329.808 711.603 333.558 Q714.566 337.308 714.566 343.419 Q714.566 349.53 711.603 353.28 Q708.663 357.03 703.941 357.03 Q701.094 357.03 699.034 355.919 Q696.997 354.784 695.654 352.469 M710.145 343.419 Q710.145 338.72 708.2 336.058 Q706.279 333.372 702.9 333.372 Q699.52 333.372 697.576 336.058 Q695.654 338.72 695.654 343.419 Q695.654 348.118 697.576 350.803 Q699.52 353.465 702.9 353.465 Q706.279 353.465 708.2 350.803 Q710.145 348.118 710.145 343.419 Z" fill="#000000" fill-rule="nonzero" fill-opacity="1" /><path clip-path="url(#clip900)" d="M736.649 334.414 Q735.932 333.997 735.075 333.812 Q734.242 333.604 733.223 333.604 Q729.612 333.604 727.668 335.965 Q725.747 338.303 725.747 342.701 L725.747 356.358 L721.464 356.358 L721.464 330.433 L725.747 330.433 L725.747 334.46 Q727.089 332.099 729.242 330.965 Q731.395 329.808 734.473 329.808 Q734.913 329.808 735.446 329.877 Q735.978 329.923 736.626 330.039 L736.649 334.414 Z" fill="#000000" fill-rule="nonzero" fill-opacity="1" /><path clip-path="url(#clip900)" d="M762.251 342.331 L762.251 344.414 L742.668 344.414 Q742.946 348.812 745.307 351.127 Q747.691 353.419 751.927 353.419 Q754.381 353.419 756.672 352.817 Q758.987 352.215 761.256 351.011 L761.256 355.039 Q758.964 356.011 756.557 356.52 Q754.149 357.03 751.672 357.03 Q745.469 357.03 741.835 353.419 Q738.223 349.807 738.223 343.65 Q738.223 337.284 741.649 333.558 Q745.098 329.808 750.932 329.808 Q756.163 329.808 759.196 333.187 Q762.251 336.544 762.251 342.331 M757.992 341.081 Q757.946 337.585 756.024 335.502 Q754.126 333.419 750.978 333.419 Q747.413 333.419 745.26 335.433 Q743.131 337.446 742.807 341.104 L757.992 341.081 Z" fill="#000000" fill-rule="nonzero" fill-opacity="1" /><path clip-path="url(#clip900)" d="M780.029 358.766 Q778.223 363.395 776.51 364.807 Q774.797 366.219 771.927 366.219 L768.524 366.219 L768.524 362.655 L771.024 362.655 Q772.783 362.655 773.756 361.821 Q774.728 360.988 775.908 357.886 L776.672 355.942 L766.186 330.433 L770.7 330.433 L778.802 350.71 L786.904 330.433 L791.418 330.433 L780.029 358.766 Z" fill="#000000" fill-rule="nonzero" fill-opacity="1" /><path clip-path="url(#clip900)" d="M824.149 343.326 Q818.987 343.326 816.996 344.507 Q815.005 345.687 815.005 348.534 Q815.005 350.803 816.487 352.145 Q817.992 353.465 820.561 353.465 Q824.103 353.465 826.232 350.965 Q828.385 348.442 828.385 344.275 L828.385 343.326 L824.149 343.326 M832.644 341.567 L832.644 356.358 L828.385 356.358 L828.385 352.423 Q826.927 354.784 824.751 355.919 Q822.575 357.03 819.427 357.03 Q815.445 357.03 813.084 354.807 Q810.746 352.562 810.746 348.812 Q810.746 344.437 813.663 342.215 Q816.603 339.993 822.413 339.993 L828.385 339.993 L828.385 339.576 Q828.385 336.636 826.441 335.039 Q824.519 333.419 821.024 333.419 Q818.802 333.419 816.695 333.951 Q814.589 334.483 812.644 335.548 L812.644 331.613 Q814.982 330.71 817.181 330.271 Q819.38 329.808 821.464 329.808 Q827.089 329.808 829.866 332.724 Q832.644 335.641 832.644 341.567 Z" fill="#000000" fill-rule="nonzero" fill-opacity="1" /><path clip-path="url(#clip900)" d="M860.028 343.419 Q860.028 338.72 858.084 336.058 Q856.163 333.372 852.783 333.372 Q849.403 333.372 847.459 336.058 Q845.538 338.72 845.538 343.419 Q845.538 348.118 847.459 350.803 Q849.403 353.465 852.783 353.465 Q856.163 353.465 858.084 350.803 Q860.028 348.118 860.028 343.419 M845.538 334.368 Q846.88 332.053 848.917 330.942 Q850.977 329.808 853.825 329.808 Q858.547 329.808 861.487 333.558 Q864.45 337.308 864.45 343.419 Q864.45 349.53 861.487 353.28 Q858.547 357.03 853.825 357.03 Q850.977 357.03 848.917 355.919 Q846.88 354.784 845.538 352.469 L845.538 356.358 L841.255 356.358 L841.255 320.34 L845.538 320.34 L845.538 334.368 Z" fill="#000000" fill-rule="nonzero" fill-opacity="1" /><path clip-path="url(#clip900)" d="M871.07 346.127 L871.07 330.433 L875.329 330.433 L875.329 345.965 Q875.329 349.645 876.764 351.497 Q878.2 353.326 881.07 353.326 Q884.519 353.326 886.51 351.127 Q888.524 348.928 888.524 345.132 L888.524 330.433 L892.783 330.433 L892.783 356.358 L888.524 356.358 L888.524 352.377 Q886.973 354.738 884.912 355.895 Q882.875 357.03 880.167 357.03 Q875.7 357.03 873.385 354.252 Q871.07 351.474 871.07 346.127 M881.787 329.808 L881.787 329.808 Z" fill="#000000" fill-rule="nonzero" fill-opacity="1" /><path clip-path="url(#clip900)" d="M923.107 340.71 L923.107 356.358 L918.847 356.358 L918.847 340.849 Q918.847 337.169 917.412 335.34 Q915.977 333.511 913.107 333.511 Q909.658 333.511 907.667 335.71 Q905.676 337.909 905.676 341.706 L905.676 356.358 L901.394 356.358 L901.394 330.433 L905.676 330.433 L905.676 334.46 Q907.204 332.122 909.264 330.965 Q911.348 329.808 914.056 329.808 Q918.523 329.808 920.815 332.585 Q923.107 335.34 923.107 340.71 Z" fill="#000000" fill-rule="nonzero" fill-opacity="1" /><path clip-path="url(#clip900)" d="M948.662 334.368 L948.662 320.34 L952.921 320.34 L952.921 356.358 L948.662 356.358 L948.662 352.469 Q947.32 354.784 945.259 355.919 Q943.222 357.03 940.352 357.03 Q935.653 357.03 932.69 353.28 Q929.75 349.53 929.75 343.419 Q929.75 337.308 932.69 333.558 Q935.653 329.808 940.352 329.808 Q943.222 329.808 945.259 330.942 Q947.32 332.053 948.662 334.368 M934.148 343.419 Q934.148 348.118 936.07 350.803 Q938.014 353.465 941.394 353.465 Q944.773 353.465 946.718 350.803 Q948.662 348.118 948.662 343.419 Q948.662 338.72 946.718 336.058 Q944.773 333.372 941.394 333.372 Q938.014 333.372 936.07 336.058 Q934.148 338.72 934.148 343.419 Z" fill="#000000" fill-rule="nonzero" fill-opacity="1" /><path clip-path="url(#clip900)" d="M973.477 343.326 Q968.315 343.326 966.324 344.507 Q964.333 345.687 964.333 348.534 Q964.333 350.803 965.815 352.145 Q967.319 353.465 969.889 353.465 Q973.431 353.465 975.56 350.965 Q977.713 348.442 977.713 344.275 L977.713 343.326 L973.477 343.326 M981.972 341.567 L981.972 356.358 L977.713 356.358 L977.713 352.423 Q976.255 354.784 974.079 355.919 Q971.903 357.03 968.755 357.03 Q964.773 357.03 962.412 354.807 Q960.074 352.562 960.074 348.812 Q960.074 344.437 962.991 342.215 Q965.931 339.993 971.741 339.993 L977.713 339.993 L977.713 339.576 Q977.713 336.636 975.768 335.039 Q973.847 333.419 970.352 333.419 Q968.13 333.419 966.023 333.951 Q963.917 334.483 961.972 335.548 L961.972 331.613 Q964.31 330.71 966.509 330.271 Q968.708 329.808 970.792 329.808 Q976.417 329.808 979.194 332.724 Q981.972 335.641 981.972 341.567 Z" fill="#000000" fill-rule="nonzero" fill-opacity="1" /><path clip-path="url(#clip900)" d="M1012.3 340.71 L1012.3 356.358 L1008.04 356.358 L1008.04 340.849 Q1008.04 337.169 1006.6 335.34 Q1005.17 333.511 1002.3 333.511 Q998.847 333.511 996.856 335.71 Q994.866 337.909 994.866 341.706 L994.866 356.358 L990.583 356.358 L990.583 330.433 L994.866 330.433 L994.866 334.46 Q996.393 332.122 998.454 330.965 Q1000.54 329.808 1003.25 329.808 Q1007.71 329.808 1010 332.585 Q1012.3 335.34 1012.3 340.71 Z" fill="#000000" fill-rule="nonzero" fill-opacity="1" /><path clip-path="url(#clip900)" d="M1039.45 331.428 L1039.45 335.409 Q1037.64 334.414 1035.81 333.928 Q1034.01 333.419 1032.16 333.419 Q1028.01 333.419 1025.72 336.058 Q1023.43 338.673 1023.43 343.419 Q1023.43 348.164 1025.72 350.803 Q1028.01 353.419 1032.16 353.419 Q1034.01 353.419 1035.81 352.932 Q1037.64 352.423 1039.45 351.428 L1039.45 355.363 Q1037.67 356.196 1035.74 356.613 Q1033.85 357.03 1031.69 357.03 Q1025.84 357.03 1022.39 353.349 Q1018.94 349.669 1018.94 343.419 Q1018.94 337.076 1022.41 333.442 Q1025.91 329.808 1031.97 329.808 Q1033.94 329.808 1035.81 330.224 Q1037.69 330.618 1039.45 331.428 Z" fill="#000000" fill-rule="nonzero" fill-opacity="1" /><path clip-path="url(#clip900)" d="M1069.03 342.331 L1069.03 344.414 L1049.45 344.414 Q1049.73 348.812 1052.09 351.127 Q1054.47 353.419 1058.71 353.419 Q1061.16 353.419 1063.45 352.817 Q1065.77 352.215 1068.04 351.011 L1068.04 355.039 Q1065.74 356.011 1063.34 356.52 Q1060.93 357.03 1058.45 357.03 Q1052.25 357.03 1048.62 353.419 Q1045 349.807 1045 343.65 Q1045 337.284 1048.43 333.558 Q1051.88 329.808 1057.71 329.808 Q1062.94 329.808 1065.98 333.187 Q1069.03 336.544 1069.03 342.331 M1064.77 341.081 Q1064.73 337.585 1062.81 335.502 Q1060.91 333.419 1057.76 333.419 Q1054.19 333.419 1052.04 335.433 Q1049.91 337.446 1049.59 341.104 L1064.77 341.081 Z" fill="#000000" fill-rule="nonzero" fill-opacity="1" /><polyline clip-path="url(#clip900)" style="stroke:#e26f46; stroke-linecap:round; stroke-linejoin:round; stroke-width:4; stroke-opacity:1; fill:none" points="299.863,390.918 463.181,390.918 "/>
<path clip-path="url(#clip900)" d="M490.401 373.638 L495.077 373.638 L495.077 408.198 L490.401 408.198 L490.401 373.638 Z" fill="#000000" fill-rule="nonzero" fill-opacity="1" /><path clip-path="url(#clip900)" d="M525.748 392.55 L525.748 408.198 L521.488 408.198 L521.488 392.689 Q521.488 389.009 520.053 387.18 Q518.618 385.351 515.748 385.351 Q512.299 385.351 510.308 387.55 Q508.317 389.749 508.317 393.546 L508.317 408.198 L504.035 408.198 L504.035 382.273 L508.317 382.273 L508.317 386.3 Q509.845 383.962 511.905 382.805 Q513.989 381.648 516.697 381.648 Q521.164 381.648 523.456 384.425 Q525.748 387.18 525.748 392.55 Z" fill="#000000" fill-rule="nonzero" fill-opacity="1" /><path clip-path="url(#clip900)" d="M547.368 372.18 L547.368 375.722 L543.294 375.722 Q541.002 375.722 540.099 376.648 Q539.22 377.574 539.22 379.981 L539.22 382.273 L546.234 382.273 L546.234 385.583 L539.22 385.583 L539.22 408.198 L534.937 408.198 L534.937 385.583 L530.863 385.583 L530.863 382.273 L534.937 382.273 L534.937 380.467 Q534.937 376.138 536.951 374.171 Q538.965 372.18 543.34 372.18 L547.368 372.18 Z" fill="#000000" fill-rule="nonzero" fill-opacity="1" /><path clip-path="url(#clip900)" d="M573.109 394.171 L573.109 396.254 L553.525 396.254 Q553.803 400.652 556.164 402.967 Q558.548 405.259 562.785 405.259 Q565.238 405.259 567.53 404.657 Q569.845 404.055 572.113 402.851 L572.113 406.879 Q569.822 407.851 567.414 408.36 Q565.007 408.87 562.53 408.87 Q556.326 408.87 552.692 405.259 Q549.081 401.647 549.081 395.49 Q549.081 389.124 552.507 385.398 Q555.956 381.648 561.789 381.648 Q567.021 381.648 570.053 385.027 Q573.109 388.384 573.109 394.171 M568.849 392.921 Q568.803 389.425 566.882 387.342 Q564.984 385.259 561.835 385.259 Q558.271 385.259 556.118 387.273 Q553.988 389.286 553.664 392.944 L568.849 392.921 Z" fill="#000000" fill-rule="nonzero" fill-opacity="1" /><path clip-path="url(#clip900)" d="M595.122 386.254 Q594.405 385.837 593.548 385.652 Q592.715 385.444 591.696 385.444 Q588.085 385.444 586.141 387.805 Q584.22 390.143 584.22 394.541 L584.22 408.198 L579.937 408.198 L579.937 382.273 L584.22 382.273 L584.22 386.3 Q585.562 383.939 587.715 382.805 Q589.868 381.648 592.946 381.648 Q593.386 381.648 593.919 381.717 Q594.451 381.763 595.099 381.879 L595.122 386.254 Z" fill="#000000" fill-rule="nonzero" fill-opacity="1" /><path clip-path="url(#clip900)" d="M613.78 386.254 Q613.062 385.837 612.206 385.652 Q611.372 385.444 610.354 385.444 Q606.743 385.444 604.798 387.805 Q602.877 390.143 602.877 394.541 L602.877 408.198 L598.595 408.198 L598.595 382.273 L602.877 382.273 L602.877 386.3 Q604.22 383.939 606.372 382.805 Q608.525 381.648 611.604 381.648 Q612.044 381.648 612.576 381.717 Q613.108 381.763 613.757 381.879 L613.78 386.254 Z" fill="#000000" fill-rule="nonzero" fill-opacity="1" /><path clip-path="url(#clip900)" d="M639.381 394.171 L639.381 396.254 L619.798 396.254 Q620.076 400.652 622.437 402.967 Q624.821 405.259 629.057 405.259 Q631.511 405.259 633.803 404.657 Q636.118 404.055 638.386 402.851 L638.386 406.879 Q636.094 407.851 633.687 408.36 Q631.28 408.87 628.803 408.87 Q622.599 408.87 618.965 405.259 Q615.354 401.647 615.354 395.49 Q615.354 389.124 618.78 385.398 Q622.229 381.648 628.062 381.648 Q633.293 381.648 636.326 385.027 Q639.381 388.384 639.381 394.171 M635.122 392.921 Q635.076 389.425 633.155 387.342 Q631.256 385.259 628.108 385.259 Q624.543 385.259 622.391 387.273 Q620.261 389.286 619.937 392.944 L635.122 392.921 Z" fill="#000000" fill-rule="nonzero" fill-opacity="1" /><path clip-path="url(#clip900)" d="M663.432 386.208 L663.432 372.18 L667.691 372.18 L667.691 408.198 L663.432 408.198 L663.432 404.309 Q662.09 406.624 660.029 407.759 Q657.992 408.87 655.122 408.87 Q650.423 408.87 647.46 405.12 Q644.52 401.37 644.52 395.259 Q644.52 389.148 647.46 385.398 Q650.423 381.648 655.122 381.648 Q657.992 381.648 660.029 382.782 Q662.09 383.893 663.432 386.208 M648.918 395.259 Q648.918 399.958 650.84 402.643 Q652.784 405.305 656.164 405.305 Q659.543 405.305 661.488 402.643 Q663.432 399.958 663.432 395.259 Q663.432 390.56 661.488 387.898 Q659.543 385.212 656.164 385.212 Q652.784 385.212 650.84 387.898 Q648.918 390.56 648.918 395.259 Z" fill="#000000" fill-rule="nonzero" fill-opacity="1" /><path clip-path="url(#clip900)" d="M695.654 404.309 L695.654 418.059 L691.372 418.059 L691.372 382.273 L695.654 382.273 L695.654 386.208 Q696.997 383.893 699.034 382.782 Q701.094 381.648 703.941 381.648 Q708.663 381.648 711.603 385.398 Q714.566 389.148 714.566 395.259 Q714.566 401.37 711.603 405.12 Q708.663 408.87 703.941 408.87 Q701.094 408.87 699.034 407.759 Q696.997 406.624 695.654 404.309 M710.145 395.259 Q710.145 390.56 708.2 387.898 Q706.279 385.212 702.9 385.212 Q699.52 385.212 697.576 387.898 Q695.654 390.56 695.654 395.259 Q695.654 399.958 697.576 402.643 Q699.52 405.305 702.9 405.305 Q706.279 405.305 708.2 402.643 Q710.145 399.958 710.145 395.259 Z" fill="#000000" fill-rule="nonzero" fill-opacity="1" /><path clip-path="url(#clip900)" d="M736.649 386.254 Q735.932 385.837 735.075 385.652 Q734.242 385.444 733.223 385.444 Q729.612 385.444 727.668 387.805 Q725.747 390.143 725.747 394.541 L725.747 408.198 L721.464 408.198 L721.464 382.273 L725.747 382.273 L725.747 386.3 Q727.089 383.939 729.242 382.805 Q731.395 381.648 734.473 381.648 Q734.913 381.648 735.446 381.717 Q735.978 381.763 736.626 381.879 L736.649 386.254 Z" fill="#000000" fill-rule="nonzero" fill-opacity="1" /><path clip-path="url(#clip900)" d="M762.251 394.171 L762.251 396.254 L742.668 396.254 Q742.946 400.652 745.307 402.967 Q747.691 405.259 751.927 405.259 Q754.381 405.259 756.672 404.657 Q758.987 404.055 761.256 402.851 L761.256 406.879 Q758.964 407.851 756.557 408.36 Q754.149 408.87 751.672 408.87 Q745.469 408.87 741.835 405.259 Q738.223 401.647 738.223 395.49 Q738.223 389.124 741.649 385.398 Q745.098 381.648 750.932 381.648 Q756.163 381.648 759.196 385.027 Q762.251 388.384 762.251 394.171 M757.992 392.921 Q757.946 389.425 756.024 387.342 Q754.126 385.259 750.978 385.259 Q747.413 385.259 745.26 387.273 Q743.131 389.286 742.807 392.944 L757.992 392.921 Z" fill="#000000" fill-rule="nonzero" fill-opacity="1" /><path clip-path="url(#clip900)" d="M786.302 386.208 L786.302 372.18 L790.561 372.18 L790.561 408.198 L786.302 408.198 L786.302 404.309 Q784.959 406.624 782.899 407.759 Q780.862 408.87 777.992 408.87 Q773.293 408.87 770.33 405.12 Q767.39 401.37 767.39 395.259 Q767.39 389.148 770.33 385.398 Q773.293 381.648 777.992 381.648 Q780.862 381.648 782.899 382.782 Q784.959 383.893 786.302 386.208 M771.788 395.259 Q771.788 399.958 773.709 402.643 Q775.654 405.305 779.033 405.305 Q782.413 405.305 784.357 402.643 Q786.302 399.958 786.302 395.259 Q786.302 390.56 784.357 387.898 Q782.413 385.212 779.033 385.212 Q775.654 385.212 773.709 387.898 Q771.788 390.56 771.788 395.259 Z" fill="#000000" fill-rule="nonzero" fill-opacity="1" /><path clip-path="url(#clip900)" d="M811.117 395.166 Q805.955 395.166 803.964 396.347 Q801.973 397.527 801.973 400.374 Q801.973 402.643 803.455 403.985 Q804.959 405.305 807.529 405.305 Q811.07 405.305 813.2 402.805 Q815.353 400.282 815.353 396.115 L815.353 395.166 L811.117 395.166 M819.612 393.407 L819.612 408.198 L815.353 408.198 L815.353 404.263 Q813.894 406.624 811.718 407.759 Q809.542 408.87 806.394 408.87 Q802.413 408.87 800.052 406.647 Q797.714 404.402 797.714 400.652 Q797.714 396.277 800.631 394.055 Q803.57 391.833 809.38 391.833 L815.353 391.833 L815.353 391.416 Q815.353 388.476 813.408 386.879 Q811.487 385.259 807.992 385.259 Q805.769 385.259 803.663 385.791 Q801.556 386.323 799.612 387.388 L799.612 383.453 Q801.95 382.55 804.149 382.111 Q806.348 381.648 808.431 381.648 Q814.056 381.648 816.834 384.564 Q819.612 387.481 819.612 393.407 Z" fill="#000000" fill-rule="nonzero" fill-opacity="1" /><path clip-path="url(#clip900)" d="M832.598 374.912 L832.598 382.273 L841.371 382.273 L841.371 385.583 L832.598 385.583 L832.598 399.657 Q832.598 402.828 833.454 403.731 Q834.334 404.634 836.996 404.634 L841.371 404.634 L841.371 408.198 L836.996 408.198 Q832.066 408.198 830.191 406.37 Q828.316 404.518 828.316 399.657 L828.316 385.583 L825.191 385.583 L825.191 382.273 L828.316 382.273 L828.316 374.912 L832.598 374.912 Z" fill="#000000" fill-rule="nonzero" fill-opacity="1" /><path clip-path="url(#clip900)" d="M857.019 385.259 Q853.593 385.259 851.602 387.944 Q849.612 390.606 849.612 395.259 Q849.612 399.911 851.579 402.597 Q853.57 405.259 857.019 405.259 Q860.422 405.259 862.413 402.573 Q864.403 399.888 864.403 395.259 Q864.403 390.652 862.413 387.967 Q860.422 385.259 857.019 385.259 M857.019 381.648 Q862.575 381.648 865.746 385.259 Q868.917 388.87 868.917 395.259 Q868.917 401.624 865.746 405.259 Q862.575 408.87 857.019 408.87 Q851.44 408.87 848.269 405.259 Q845.121 401.624 845.121 395.259 Q845.121 388.87 848.269 385.259 Q851.44 381.648 857.019 381.648 Z" fill="#000000" fill-rule="nonzero" fill-opacity="1" /><path clip-path="url(#clip900)" d="M891 386.254 Q890.283 385.837 889.426 385.652 Q888.593 385.444 887.574 385.444 Q883.963 385.444 882.019 387.805 Q880.098 390.143 880.098 394.541 L880.098 408.198 L875.815 408.198 L875.815 382.273 L880.098 382.273 L880.098 386.3 Q881.44 383.939 883.593 382.805 Q885.746 381.648 888.824 381.648 Q889.264 381.648 889.797 381.717 Q890.329 381.763 890.977 381.879 L891 386.254 Z" fill="#000000" fill-rule="nonzero" fill-opacity="1" /><path clip-path="url(#clip900)" d="M922.32 395.166 Q917.158 395.166 915.167 396.347 Q913.176 397.527 913.176 400.374 Q913.176 402.643 914.658 403.985 Q916.162 405.305 918.732 405.305 Q922.273 405.305 924.403 402.805 Q926.556 400.282 926.556 396.115 L926.556 395.166 L922.32 395.166 M930.815 393.407 L930.815 408.198 L926.556 408.198 L926.556 404.263 Q925.097 406.624 922.922 407.759 Q920.746 408.87 917.597 408.87 Q913.616 408.87 911.255 406.647 Q908.917 404.402 908.917 400.652 Q908.917 396.277 911.834 394.055 Q914.773 391.833 920.584 391.833 L926.556 391.833 L926.556 391.416 Q926.556 388.476 924.611 386.879 Q922.69 385.259 919.195 385.259 Q916.972 385.259 914.866 385.791 Q912.76 386.323 910.815 387.388 L910.815 383.453 Q913.153 382.55 915.352 382.111 Q917.551 381.648 919.635 381.648 Q925.259 381.648 928.037 384.564 Q930.815 387.481 930.815 393.407 Z" fill="#000000" fill-rule="nonzero" fill-opacity="1" /><path clip-path="url(#clip900)" d="M958.199 395.259 Q958.199 390.56 956.255 387.898 Q954.333 385.212 950.954 385.212 Q947.574 385.212 945.63 387.898 Q943.708 390.56 943.708 395.259 Q943.708 399.958 945.63 402.643 Q947.574 405.305 950.954 405.305 Q954.333 405.305 956.255 402.643 Q958.199 399.958 958.199 395.259 M943.708 386.208 Q945.051 383.893 947.088 382.782 Q949.148 381.648 951.995 381.648 Q956.718 381.648 959.657 385.398 Q962.62 389.148 962.62 395.259 Q962.62 401.37 959.657 405.12 Q956.718 408.87 951.995 408.87 Q949.148 408.87 947.088 407.759 Q945.051 406.624 943.708 404.309 L943.708 408.198 L939.426 408.198 L939.426 372.18 L943.708 372.18 L943.708 386.208 Z" fill="#000000" fill-rule="nonzero" fill-opacity="1" /><path clip-path="url(#clip900)" d="M969.241 397.967 L969.241 382.273 L973.5 382.273 L973.5 397.805 Q973.5 401.485 974.935 403.337 Q976.37 405.166 979.241 405.166 Q982.69 405.166 984.68 402.967 Q986.694 400.768 986.694 396.972 L986.694 382.273 L990.954 382.273 L990.954 408.198 L986.694 408.198 L986.694 404.217 Q985.143 406.578 983.083 407.735 Q981.046 408.87 978.338 408.87 Q973.87 408.87 971.556 406.092 Q969.241 403.314 969.241 397.967 M979.958 381.648 L979.958 381.648 Z" fill="#000000" fill-rule="nonzero" fill-opacity="1" /><path clip-path="url(#clip900)" d="M1021.28 392.55 L1021.28 408.198 L1017.02 408.198 L1017.02 392.689 Q1017.02 389.009 1015.58 387.18 Q1014.15 385.351 1011.28 385.351 Q1007.83 385.351 1005.84 387.55 Q1003.85 389.749 1003.85 393.546 L1003.85 408.198 L999.565 408.198 L999.565 382.273 L1003.85 382.273 L1003.85 386.3 Q1005.37 383.962 1007.43 382.805 Q1009.52 381.648 1012.23 381.648 Q1016.69 381.648 1018.99 384.425 Q1021.28 387.18 1021.28 392.55 Z" fill="#000000" fill-rule="nonzero" fill-opacity="1" /><path clip-path="url(#clip900)" d="M1046.83 386.208 L1046.83 372.18 L1051.09 372.18 L1051.09 408.198 L1046.83 408.198 L1046.83 404.309 Q1045.49 406.624 1043.43 407.759 Q1041.39 408.87 1038.52 408.87 Q1033.82 408.87 1030.86 405.12 Q1027.92 401.37 1027.92 395.259 Q1027.92 389.148 1030.86 385.398 Q1033.82 381.648 1038.52 381.648 Q1041.39 381.648 1043.43 382.782 Q1045.49 383.893 1046.83 386.208 M1032.32 395.259 Q1032.32 399.958 1034.24 402.643 Q1036.18 405.305 1039.56 405.305 Q1042.94 405.305 1044.89 402.643 Q1046.83 399.958 1046.83 395.259 Q1046.83 390.56 1044.89 387.898 Q1042.94 385.212 1039.56 385.212 Q1036.18 385.212 1034.24 387.898 Q1032.32 390.56 1032.32 395.259 Z" fill="#000000" fill-rule="nonzero" fill-opacity="1" /><path clip-path="url(#clip900)" d="M1071.65 395.166 Q1066.49 395.166 1064.49 396.347 Q1062.5 397.527 1062.5 400.374 Q1062.5 402.643 1063.99 403.985 Q1065.49 405.305 1068.06 405.305 Q1071.6 405.305 1073.73 402.805 Q1075.88 400.282 1075.88 396.115 L1075.88 395.166 L1071.65 395.166 M1080.14 393.407 L1080.14 408.198 L1075.88 408.198 L1075.88 404.263 Q1074.43 406.624 1072.25 407.759 Q1070.07 408.87 1066.93 408.87 Q1062.94 408.87 1060.58 406.647 Q1058.24 404.402 1058.24 400.652 Q1058.24 396.277 1061.16 394.055 Q1064.1 391.833 1069.91 391.833 L1075.88 391.833 L1075.88 391.416 Q1075.88 388.476 1073.94 386.879 Q1072.02 385.259 1068.52 385.259 Q1066.3 385.259 1064.19 385.791 Q1062.09 386.323 1060.14 387.388 L1060.14 383.453 Q1062.48 382.55 1064.68 382.111 Q1066.88 381.648 1068.96 381.648 Q1074.59 381.648 1077.37 384.564 Q1080.14 387.481 1080.14 393.407 Z" fill="#000000" fill-rule="nonzero" fill-opacity="1" /><path clip-path="url(#clip900)" d="M1110.47 392.55 L1110.47 408.198 L1106.21 408.198 L1106.21 392.689 Q1106.21 389.009 1104.77 387.18 Q1103.34 385.351 1100.47 385.351 Q1097.02 385.351 1095.03 387.55 Q1093.04 389.749 1093.04 393.546 L1093.04 408.198 L1088.75 408.198 L1088.75 382.273 L1093.04 382.273 L1093.04 386.3 Q1094.56 383.962 1096.62 382.805 Q1098.71 381.648 1101.42 381.648 Q1105.88 381.648 1108.18 384.425 Q1110.47 387.18 1110.47 392.55 Z" fill="#000000" fill-rule="nonzero" fill-opacity="1" /><path clip-path="url(#clip900)" d="M1137.62 383.268 L1137.62 387.249 Q1135.81 386.254 1133.99 385.768 Q1132.18 385.259 1130.33 385.259 Q1126.18 385.259 1123.89 387.898 Q1121.6 390.513 1121.6 395.259 Q1121.6 400.004 1123.89 402.643 Q1126.18 405.259 1130.33 405.259 Q1132.18 405.259 1133.99 404.772 Q1135.81 404.263 1137.62 403.268 L1137.62 407.203 Q1135.84 408.036 1133.92 408.453 Q1132.02 408.87 1129.86 408.87 Q1124.01 408.87 1120.56 405.189 Q1117.11 401.509 1117.11 395.259 Q1117.11 388.916 1120.58 385.282 Q1124.08 381.648 1130.14 381.648 Q1132.11 381.648 1133.99 382.064 Q1135.86 382.458 1137.62 383.268 Z" fill="#000000" fill-rule="nonzero" fill-opacity="1" /><path clip-path="url(#clip900)" d="M1167.2 394.171 L1167.2 396.254 L1147.62 396.254 Q1147.9 400.652 1150.26 402.967 Q1152.64 405.259 1156.88 405.259 Q1159.33 405.259 1161.62 404.657 Q1163.94 404.055 1166.21 402.851 L1166.21 406.879 Q1163.92 407.851 1161.51 408.36 Q1159.1 408.87 1156.62 408.87 Q1150.42 408.87 1146.79 405.259 Q1143.17 401.647 1143.17 395.49 Q1143.17 389.124 1146.6 385.398 Q1150.05 381.648 1155.88 381.648 Q1161.11 381.648 1164.15 385.027 Q1167.2 388.384 1167.2 394.171 M1162.94 392.921 Q1162.9 389.425 1160.98 387.342 Q1159.08 385.259 1155.93 385.259 Q1152.36 385.259 1150.21 387.273 Q1148.08 389.286 1147.76 392.944 L1162.94 392.921 Z" fill="#000000" fill-rule="nonzero" fill-opacity="1" /></svg>
