<?xml version="1.0" encoding="utf-8"?>
<svg xmlns="http://www.w3.org/2000/svg" xmlns:xlink="http://www.w3.org/1999/xlink" width="672" height="480" viewBox="0 0 2688 1920">
<defs>
  <clipPath id="clip360">
    <rect x="0" y="0" width="2688" height="1920"/>
  </clipPath>
</defs>
<path clip-path="url(#clip360)" d="M0 1920 L2688 1920 L2688 -4.26326e-14 L0 -4.26326e-14  Z" fill="#ffffff" fill-rule="evenodd" fill-opacity="1"/>
<defs>
  <clipPath id="clip361">
    <rect x="537" y="0" width="1883" height="1883"/>
  </clipPath>
</defs>
<path clip-path="url(#clip360)" d="M189.154 1800.78 L2640.76 1800.78 L2640.76 47.2441 L189.154 47.2441  Z" fill="#ffffff" fill-rule="evenodd" fill-opacity="1"/>
<defs>
  <clipPath id="clip362">
    <rect x="189" y="47" width="2453" height="1755"/>
  </clipPath>
</defs>
<polyline clip-path="url(#clip362)" style="stroke:#000000; stroke-linecap:round; stroke-linejoin:round; stroke-width:2; stroke-opacity:0.1; fill:none" points="258.539,1800.78 258.539,47.2441 "/>
<polyline clip-path="url(#clip362)" style="stroke:#000000; stroke-linecap:round; stroke-linejoin:round; stroke-width:2; stroke-opacity:0.1; fill:none" points="836.747,1800.78 836.747,47.2441 "/>
<polyline clip-path="url(#clip362)" style="stroke:#000000; stroke-linecap:round; stroke-linejoin:round; stroke-width:2; stroke-opacity:0.1; fill:none" points="1414.95,1800.78 1414.95,47.2441 "/>
<polyline clip-path="url(#clip362)" style="stroke:#000000; stroke-linecap:round; stroke-linejoin:round; stroke-width:2; stroke-opacity:0.1; fill:none" points="1993.16,1800.78 1993.16,47.2441 "/>
<polyline clip-path="url(#clip362)" style="stroke:#000000; stroke-linecap:round; stroke-linejoin:round; stroke-width:2; stroke-opacity:0.1; fill:none" points="2571.37,1800.78 2571.37,47.2441 "/>
<polyline clip-path="url(#clip360)" style="stroke:#000000; stroke-linecap:round; stroke-linejoin:round; stroke-width:4; stroke-opacity:1; fill:none" points="189.154,1800.78 2640.76,1800.78 "/>
<polyline clip-path="url(#clip360)" style="stroke:#000000; stroke-linecap:round; stroke-linejoin:round; stroke-width:4; stroke-opacity:1; fill:none" points="258.539,1800.78 258.539,1781.88 "/>
<polyline clip-path="url(#clip360)" style="stroke:#000000; stroke-linecap:round; stroke-linejoin:round; stroke-width:4; stroke-opacity:1; fill:none" points="836.747,1800.78 836.747,1781.88 "/>
<polyline clip-path="url(#clip360)" style="stroke:#000000; stroke-linecap:round; stroke-linejoin:round; stroke-width:4; stroke-opacity:1; fill:none" points="1414.95,1800.78 1414.95,1781.88 "/>
<polyline clip-path="url(#clip360)" style="stroke:#000000; stroke-linecap:round; stroke-linejoin:round; stroke-width:4; stroke-opacity:1; fill:none" points="1993.16,1800.78 1993.16,1781.88 "/>
<polyline clip-path="url(#clip360)" style="stroke:#000000; stroke-linecap:round; stroke-linejoin:round; stroke-width:4; stroke-opacity:1; fill:none" points="2571.37,1800.78 2571.37,1781.88 "/>
<path clip-path="url(#clip360)" d="M258.539 1834 Q254.928 1834 253.099 1837.57 Q251.294 1841.11 251.294 1848.24 Q251.294 1855.34 253.099 1858.91 Q254.928 1862.45 258.539 1862.45 Q262.173 1862.45 263.979 1858.91 Q265.807 1855.34 265.807 1848.24 Q265.807 1841.11 263.979 1837.57 Q262.173 1834 258.539 1834 M258.539 1830.3 Q264.349 1830.3 267.405 1834.9 Q270.483 1839.49 270.483 1848.24 Q270.483 1856.96 267.405 1861.57 Q264.349 1866.15 258.539 1866.15 Q252.729 1866.15 249.65 1861.57 Q246.595 1856.96 246.595 1848.24 Q246.595 1839.49 249.65 1834.9 Q252.729 1830.3 258.539 1830.3 Z" fill="#000000" fill-rule="nonzero" fill-opacity="1" /><path clip-path="url(#clip360)" d="M827.025 1830.92 L845.381 1830.92 L845.381 1834.86 L831.307 1834.86 L831.307 1843.33 Q832.326 1842.98 833.344 1842.82 Q834.363 1842.64 835.381 1842.64 Q841.168 1842.64 844.548 1845.81 Q847.927 1848.98 847.927 1854.4 Q847.927 1859.97 844.455 1863.08 Q840.983 1866.15 834.664 1866.15 Q832.488 1866.15 830.219 1865.78 Q827.974 1865.41 825.566 1864.67 L825.566 1859.97 Q827.65 1861.11 829.872 1861.66 Q832.094 1862.22 834.571 1862.22 Q838.576 1862.22 840.914 1860.11 Q843.252 1858.01 843.252 1854.4 Q843.252 1850.78 840.914 1848.68 Q838.576 1846.57 834.571 1846.57 Q832.696 1846.57 830.821 1846.99 Q828.969 1847.4 827.025 1848.28 L827.025 1830.92 Z" fill="#000000" fill-rule="nonzero" fill-opacity="1" /><path clip-path="url(#clip360)" d="M1389.64 1861.55 L1397.28 1861.55 L1397.28 1835.18 L1388.97 1836.85 L1388.97 1832.59 L1397.24 1830.92 L1401.91 1830.92 L1401.91 1861.55 L1409.55 1861.55 L1409.55 1865.48 L1389.64 1865.48 L1389.64 1861.55 Z" fill="#000000" fill-rule="nonzero" fill-opacity="1" /><path clip-path="url(#clip360)" d="M1428.99 1834 Q1425.38 1834 1423.55 1837.57 Q1421.75 1841.11 1421.75 1848.24 Q1421.75 1855.34 1423.55 1858.91 Q1425.38 1862.45 1428.99 1862.45 Q1432.63 1862.45 1434.43 1858.91 Q1436.26 1855.34 1436.26 1848.24 Q1436.26 1841.11 1434.43 1837.57 Q1432.63 1834 1428.99 1834 M1428.99 1830.3 Q1434.8 1830.3 1437.86 1834.9 Q1440.94 1839.49 1440.94 1848.24 Q1440.94 1856.96 1437.86 1861.57 Q1434.8 1866.15 1428.99 1866.15 Q1423.18 1866.15 1420.11 1861.57 Q1417.05 1856.96 1417.05 1848.24 Q1417.05 1839.49 1420.11 1834.9 Q1423.18 1830.3 1428.99 1830.3 Z" fill="#000000" fill-rule="nonzero" fill-opacity="1" /><path clip-path="url(#clip360)" d="M1968.35 1861.55 L1975.99 1861.55 L1975.99 1835.18 L1967.68 1836.85 L1967.68 1832.59 L1975.94 1830.92 L1980.62 1830.92 L1980.62 1861.55 L1988.26 1861.55 L1988.26 1865.48 L1968.35 1865.48 L1968.35 1861.55 Z" fill="#000000" fill-rule="nonzero" fill-opacity="1" /><path clip-path="url(#clip360)" d="M1997.75 1830.92 L2016.1 1830.92 L2016.1 1834.86 L2002.03 1834.86 L2002.03 1843.33 Q2003.05 1842.98 2004.07 1842.82 Q2005.08 1842.64 2006.1 1842.64 Q2011.89 1842.64 2015.27 1845.81 Q2018.65 1848.98 2018.65 1854.4 Q2018.65 1859.97 2015.18 1863.08 Q2011.7 1866.15 2005.39 1866.15 Q2003.21 1866.15 2000.94 1865.78 Q1998.7 1865.41 1996.29 1864.67 L1996.29 1859.97 Q1998.37 1861.11 2000.59 1861.66 Q2002.82 1862.22 2005.29 1862.22 Q2009.3 1862.22 2011.64 1860.11 Q2013.97 1858.01 2013.97 1854.4 Q2013.97 1850.78 2011.64 1848.68 Q2009.3 1846.57 2005.29 1846.57 Q2003.42 1846.57 2001.54 1846.99 Q1999.69 1847.4 1997.75 1848.28 L1997.75 1830.92 Z" fill="#000000" fill-rule="nonzero" fill-opacity="1" /><path clip-path="url(#clip360)" d="M2550.14 1861.55 L2566.46 1861.55 L2566.46 1865.48 L2544.52 1865.48 L2544.52 1861.55 Q2547.18 1858.79 2551.76 1854.16 Q2556.37 1849.51 2557.55 1848.17 Q2559.8 1845.65 2560.68 1843.91 Q2561.58 1842.15 2561.58 1840.46 Q2561.58 1837.71 2559.63 1835.97 Q2557.71 1834.23 2554.61 1834.23 Q2552.41 1834.23 2549.96 1835 Q2547.53 1835.76 2544.75 1837.31 L2544.75 1832.59 Q2547.57 1831.46 2550.03 1830.88 Q2552.48 1830.3 2554.52 1830.3 Q2559.89 1830.3 2563.08 1832.98 Q2566.28 1835.67 2566.28 1840.16 Q2566.28 1842.29 2565.47 1844.21 Q2564.68 1846.11 2562.57 1848.7 Q2562 1849.37 2558.89 1852.59 Q2555.79 1855.78 2550.14 1861.55 Z" fill="#000000" fill-rule="nonzero" fill-opacity="1" /><path clip-path="url(#clip360)" d="M2586.28 1834 Q2582.67 1834 2580.84 1837.57 Q2579.03 1841.11 2579.03 1848.24 Q2579.03 1855.34 2580.84 1858.91 Q2582.67 1862.45 2586.28 1862.45 Q2589.91 1862.45 2591.72 1858.91 Q2593.55 1855.34 2593.55 1848.24 Q2593.55 1841.11 2591.72 1837.57 Q2589.91 1834 2586.28 1834 M2586.28 1830.3 Q2592.09 1830.3 2595.14 1834.9 Q2598.22 1839.49 2598.22 1848.24 Q2598.22 1856.96 2595.14 1861.57 Q2592.09 1866.15 2586.28 1866.15 Q2580.47 1866.15 2577.39 1861.57 Q2574.33 1856.96 2574.33 1848.24 Q2574.33 1839.49 2577.39 1834.9 Q2580.47 1830.3 2586.28 1830.3 Z" fill="#000000" fill-rule="nonzero" fill-opacity="1" /><polyline clip-path="url(#clip362)" style="stroke:#000000; stroke-linecap:round; stroke-linejoin:round; stroke-width:2; stroke-opacity:0.1; fill:none" points="189.154,1751.15 2640.76,1751.15 "/>
<polyline clip-path="url(#clip362)" style="stroke:#000000; stroke-linecap:round; stroke-linejoin:round; stroke-width:2; stroke-opacity:0.1; fill:none" points="189.154,1337.58 2640.76,1337.58 "/>
<polyline clip-path="url(#clip362)" style="stroke:#000000; stroke-linecap:round; stroke-linejoin:round; stroke-width:2; stroke-opacity:0.1; fill:none" points="189.154,924.011 2640.76,924.011 "/>
<polyline clip-path="url(#clip362)" style="stroke:#000000; stroke-linecap:round; stroke-linejoin:round; stroke-width:2; stroke-opacity:0.1; fill:none" points="189.154,510.441 2640.76,510.441 "/>
<polyline clip-path="url(#clip362)" style="stroke:#000000; stroke-linecap:round; stroke-linejoin:round; stroke-width:2; stroke-opacity:0.1; fill:none" points="189.154,96.871 2640.76,96.871 "/>
<polyline clip-path="url(#clip360)" style="stroke:#000000; stroke-linecap:round; stroke-linejoin:round; stroke-width:4; stroke-opacity:1; fill:none" points="189.154,1800.78 189.154,47.2441 "/>
<polyline clip-path="url(#clip360)" style="stroke:#000000; stroke-linecap:round; stroke-linejoin:round; stroke-width:4; stroke-opacity:1; fill:none" points="189.154,1751.15 208.052,1751.15 "/>
<polyline clip-path="url(#clip360)" style="stroke:#000000; stroke-linecap:round; stroke-linejoin:round; stroke-width:4; stroke-opacity:1; fill:none" points="189.154,1337.58 208.052,1337.58 "/>
<polyline clip-path="url(#clip360)" style="stroke:#000000; stroke-linecap:round; stroke-linejoin:round; stroke-width:4; stroke-opacity:1; fill:none" points="189.154,924.011 208.052,924.011 "/>
<polyline clip-path="url(#clip360)" style="stroke:#000000; stroke-linecap:round; stroke-linejoin:round; stroke-width:4; stroke-opacity:1; fill:none" points="189.154,510.441 208.052,510.441 "/>
<polyline clip-path="url(#clip360)" style="stroke:#000000; stroke-linecap:round; stroke-linejoin:round; stroke-width:4; stroke-opacity:1; fill:none" points="189.154,96.871 208.052,96.871 "/>
<path clip-path="url(#clip360)" d="M61.4965 1736.95 Q57.8854 1736.95 56.0567 1740.51 Q54.2512 1744.06 54.2512 1751.19 Q54.2512 1758.29 56.0567 1761.86 Q57.8854 1765.4 61.4965 1765.4 Q65.1307 1765.4 66.9363 1761.86 Q68.765 1758.29 68.765 1751.19 Q68.765 1744.06 66.9363 1740.51 Q65.1307 1736.95 61.4965 1736.95 M61.4965 1733.25 Q67.3067 1733.25 70.3622 1737.85 Q73.4409 1742.44 73.4409 1751.19 Q73.4409 1759.91 70.3622 1764.52 Q67.3067 1769.1 61.4965 1769.1 Q55.6864 1769.1 52.6077 1764.52 Q49.5521 1759.91 49.5521 1751.19 Q49.5521 1742.44 52.6077 1737.85 Q55.6864 1733.25 61.4965 1733.25 Z" fill="#000000" fill-rule="nonzero" fill-opacity="1" /><path clip-path="url(#clip360)" d="M81.6584 1762.55 L86.5427 1762.55 L86.5427 1768.43 L81.6584 1768.43 L81.6584 1762.55 Z" fill="#000000" fill-rule="nonzero" fill-opacity="1" /><path clip-path="url(#clip360)" d="M106.728 1736.95 Q103.117 1736.95 101.288 1740.51 Q99.4824 1744.06 99.4824 1751.19 Q99.4824 1758.29 101.288 1761.86 Q103.117 1765.4 106.728 1765.4 Q110.362 1765.4 112.168 1761.86 Q113.996 1758.29 113.996 1751.19 Q113.996 1744.06 112.168 1740.51 Q110.362 1736.95 106.728 1736.95 M106.728 1733.25 Q112.538 1733.25 115.593 1737.85 Q118.672 1742.44 118.672 1751.19 Q118.672 1759.91 115.593 1764.52 Q112.538 1769.1 106.728 1769.1 Q100.918 1769.1 97.8389 1764.52 Q94.7834 1759.91 94.7834 1751.19 Q94.7834 1742.44 97.8389 1737.85 Q100.918 1733.25 106.728 1733.25 Z" fill="#000000" fill-rule="nonzero" fill-opacity="1" /><path clip-path="url(#clip360)" d="M136.89 1736.95 Q133.279 1736.95 131.45 1740.51 Q129.644 1744.06 129.644 1751.19 Q129.644 1758.29 131.45 1761.86 Q133.279 1765.4 136.89 1765.4 Q140.524 1765.4 142.329 1761.86 Q144.158 1758.29 144.158 1751.19 Q144.158 1744.06 142.329 1740.51 Q140.524 1736.95 136.89 1736.95 M136.89 1733.25 Q142.7 1733.25 145.755 1737.85 Q148.834 1742.44 148.834 1751.19 Q148.834 1759.91 145.755 1764.52 Q142.7 1769.1 136.89 1769.1 Q131.079 1769.1 128.001 1764.52 Q124.945 1759.91 124.945 1751.19 Q124.945 1742.44 128.001 1737.85 Q131.079 1733.25 136.89 1733.25 Z" fill="#000000" fill-rule="nonzero" fill-opacity="1" /><path clip-path="url(#clip360)" d="M62.4919 1323.38 Q58.8808 1323.38 57.0521 1326.94 Q55.2465 1330.49 55.2465 1337.62 Q55.2465 1344.72 57.0521 1348.29 Q58.8808 1351.83 62.4919 1351.83 Q66.1261 1351.83 67.9317 1348.29 Q69.7604 1344.72 69.7604 1337.62 Q69.7604 1330.49 67.9317 1326.94 Q66.1261 1323.38 62.4919 1323.38 M62.4919 1319.68 Q68.302 1319.68 71.3576 1324.28 Q74.4363 1328.87 74.4363 1337.62 Q74.4363 1346.34 71.3576 1350.95 Q68.302 1355.53 62.4919 1355.53 Q56.6817 1355.53 53.603 1350.95 Q50.5475 1346.34 50.5475 1337.62 Q50.5475 1328.87 53.603 1324.28 Q56.6817 1319.68 62.4919 1319.68 Z" fill="#000000" fill-rule="nonzero" fill-opacity="1" /><path clip-path="url(#clip360)" d="M82.6538 1348.98 L87.538 1348.98 L87.538 1354.86 L82.6538 1354.86 L82.6538 1348.98 Z" fill="#000000" fill-rule="nonzero" fill-opacity="1" /><path clip-path="url(#clip360)" d="M101.751 1350.93 L118.07 1350.93 L118.07 1354.86 L96.126 1354.86 L96.126 1350.93 Q98.788 1348.17 103.371 1343.54 Q107.978 1338.89 109.158 1337.55 Q111.404 1335.02 112.283 1333.29 Q113.186 1331.53 113.186 1329.84 Q113.186 1327.08 111.242 1325.35 Q109.32 1323.61 106.218 1323.61 Q104.019 1323.61 101.566 1324.38 Q99.1352 1325.14 96.3574 1326.69 L96.3574 1321.97 Q99.1815 1320.83 101.635 1320.25 Q104.089 1319.68 106.126 1319.68 Q111.496 1319.68 114.691 1322.36 Q117.885 1325.05 117.885 1329.54 Q117.885 1331.67 117.075 1333.59 Q116.288 1335.49 114.181 1338.08 Q113.603 1338.75 110.501 1341.97 Q107.399 1345.16 101.751 1350.93 Z" fill="#000000" fill-rule="nonzero" fill-opacity="1" /><path clip-path="url(#clip360)" d="M127.931 1320.3 L146.288 1320.3 L146.288 1324.24 L132.214 1324.24 L132.214 1332.71 Q133.232 1332.36 134.251 1332.2 Q135.269 1332.01 136.288 1332.01 Q142.075 1332.01 145.454 1335.19 Q148.834 1338.36 148.834 1343.77 Q148.834 1349.35 145.362 1352.45 Q141.89 1355.53 135.57 1355.53 Q133.394 1355.53 131.126 1355.16 Q128.88 1354.79 126.473 1354.05 L126.473 1349.35 Q128.556 1350.49 130.779 1351.04 Q133.001 1351.6 135.478 1351.6 Q139.482 1351.6 141.82 1349.49 Q144.158 1347.38 144.158 1343.77 Q144.158 1340.16 141.82 1338.06 Q139.482 1335.95 135.478 1335.95 Q133.603 1335.95 131.728 1336.37 Q129.876 1336.78 127.931 1337.66 L127.931 1320.3 Z" fill="#000000" fill-rule="nonzero" fill-opacity="1" /><path clip-path="url(#clip360)" d="M61.4965 909.81 Q57.8854 909.81 56.0567 913.374 Q54.2512 916.916 54.2512 924.046 Q54.2512 931.152 56.0567 934.717 Q57.8854 938.259 61.4965 938.259 Q65.1307 938.259 66.9363 934.717 Q68.765 931.152 68.765 924.046 Q68.765 916.916 66.9363 913.374 Q65.1307 909.81 61.4965 909.81 M61.4965 906.106 Q67.3067 906.106 70.3622 910.712 Q73.4409 915.296 73.4409 924.046 Q73.4409 932.773 70.3622 937.379 Q67.3067 941.962 61.4965 941.962 Q55.6864 941.962 52.6077 937.379 Q49.5521 932.773 49.5521 924.046 Q49.5521 915.296 52.6077 910.712 Q55.6864 906.106 61.4965 906.106 Z" fill="#000000" fill-rule="nonzero" fill-opacity="1" /><path clip-path="url(#clip360)" d="M81.6584 935.411 L86.5427 935.411 L86.5427 941.291 L81.6584 941.291 L81.6584 935.411 Z" fill="#000000" fill-rule="nonzero" fill-opacity="1" /><path clip-path="url(#clip360)" d="M96.7741 906.731 L115.13 906.731 L115.13 910.666 L101.056 910.666 L101.056 919.138 Q102.075 918.791 103.094 918.629 Q104.112 918.444 105.131 918.444 Q110.918 918.444 114.297 921.615 Q117.677 924.786 117.677 930.203 Q117.677 935.782 114.205 938.884 Q110.732 941.962 104.413 941.962 Q102.237 941.962 99.9685 941.592 Q97.7232 941.222 95.3158 940.481 L95.3158 935.782 Q97.3991 936.916 99.6213 937.472 Q101.844 938.027 104.32 938.027 Q108.325 938.027 110.663 935.921 Q113.001 933.814 113.001 930.203 Q113.001 926.592 110.663 924.486 Q108.325 922.379 104.32 922.379 Q102.445 922.379 100.57 922.796 Q98.7185 923.212 96.7741 924.092 L96.7741 906.731 Z" fill="#000000" fill-rule="nonzero" fill-opacity="1" /><path clip-path="url(#clip360)" d="M136.89 909.81 Q133.279 909.81 131.45 913.374 Q129.644 916.916 129.644 924.046 Q129.644 931.152 131.45 934.717 Q133.279 938.259 136.89 938.259 Q140.524 938.259 142.329 934.717 Q144.158 931.152 144.158 924.046 Q144.158 916.916 142.329 913.374 Q140.524 909.81 136.89 909.81 M136.89 906.106 Q142.7 906.106 145.755 910.712 Q148.834 915.296 148.834 924.046 Q148.834 932.773 145.755 937.379 Q142.7 941.962 136.89 941.962 Q131.079 941.962 128.001 937.379 Q124.945 932.773 124.945 924.046 Q124.945 915.296 128.001 910.712 Q131.079 906.106 136.89 906.106 Z" fill="#000000" fill-rule="nonzero" fill-opacity="1" /><path clip-path="url(#clip360)" d="M62.4919 496.24 Q58.8808 496.24 57.0521 499.804 Q55.2465 503.346 55.2465 510.476 Q55.2465 517.582 57.0521 521.147 Q58.8808 524.689 62.4919 524.689 Q66.1261 524.689 67.9317 521.147 Q69.7604 517.582 69.7604 510.476 Q69.7604 503.346 67.9317 499.804 Q66.1261 496.24 62.4919 496.24 M62.4919 492.536 Q68.302 492.536 71.3576 497.142 Q74.4363 501.726 74.4363 510.476 Q74.4363 519.203 71.3576 523.809 Q68.302 528.392 62.4919 528.392 Q56.6817 528.392 53.603 523.809 Q50.5475 519.203 50.5475 510.476 Q50.5475 501.726 53.603 497.142 Q56.6817 492.536 62.4919 492.536 Z" fill="#000000" fill-rule="nonzero" fill-opacity="1" /><path clip-path="url(#clip360)" d="M82.6538 521.841 L87.538 521.841 L87.538 527.721 L82.6538 527.721 L82.6538 521.841 Z" fill="#000000" fill-rule="nonzero" fill-opacity="1" /><path clip-path="url(#clip360)" d="M96.5426 493.161 L118.765 493.161 L118.765 495.152 L106.218 527.721 L101.334 527.721 L113.14 497.096 L96.5426 497.096 L96.5426 493.161 Z" fill="#000000" fill-rule="nonzero" fill-opacity="1" /><path clip-path="url(#clip360)" d="M127.931 493.161 L146.288 493.161 L146.288 497.096 L132.214 497.096 L132.214 505.568 Q133.232 505.221 134.251 505.059 Q135.269 504.874 136.288 504.874 Q142.075 504.874 145.454 508.045 Q148.834 511.216 148.834 516.633 Q148.834 522.212 145.362 525.314 Q141.89 528.392 135.57 528.392 Q133.394 528.392 131.126 528.022 Q128.88 527.652 126.473 526.911 L126.473 522.212 Q128.556 523.346 130.779 523.902 Q133.001 524.457 135.478 524.457 Q139.482 524.457 141.82 522.351 Q144.158 520.244 144.158 516.633 Q144.158 513.022 141.82 510.916 Q139.482 508.809 135.478 508.809 Q133.603 508.809 131.728 509.226 Q129.876 509.642 127.931 510.522 L127.931 493.161 Z" fill="#000000" fill-rule="nonzero" fill-opacity="1" /><path clip-path="url(#clip360)" d="M52.3067 110.216 L59.9456 110.216 L59.9456 83.8503 L51.6354 85.5169 L51.6354 81.2577 L59.8993 79.591 L64.5752 79.591 L64.5752 110.216 L72.214 110.216 L72.214 114.151 L52.3067 114.151 L52.3067 110.216 Z" fill="#000000" fill-rule="nonzero" fill-opacity="1" /><path clip-path="url(#clip360)" d="M81.6584 108.271 L86.5427 108.271 L86.5427 114.151 L81.6584 114.151 L81.6584 108.271 Z" fill="#000000" fill-rule="nonzero" fill-opacity="1" /><path clip-path="url(#clip360)" d="M106.728 82.6697 Q103.117 82.6697 101.288 86.2345 Q99.4824 89.7762 99.4824 96.9057 Q99.4824 104.012 101.288 107.577 Q103.117 111.119 106.728 111.119 Q110.362 111.119 112.168 107.577 Q113.996 104.012 113.996 96.9057 Q113.996 89.7762 112.168 86.2345 Q110.362 82.6697 106.728 82.6697 M106.728 78.966 Q112.538 78.966 115.593 83.5725 Q118.672 88.1558 118.672 96.9057 Q118.672 105.633 115.593 110.239 Q112.538 114.822 106.728 114.822 Q100.918 114.822 97.8389 110.239 Q94.7834 105.633 94.7834 96.9057 Q94.7834 88.1558 97.8389 83.5725 Q100.918 78.966 106.728 78.966 Z" fill="#000000" fill-rule="nonzero" fill-opacity="1" /><path clip-path="url(#clip360)" d="M136.89 82.6697 Q133.279 82.6697 131.45 86.2345 Q129.644 89.7762 129.644 96.9057 Q129.644 104.012 131.45 107.577 Q133.279 111.119 136.89 111.119 Q140.524 111.119 142.329 107.577 Q144.158 104.012 144.158 96.9057 Q144.158 89.7762 142.329 86.2345 Q140.524 82.6697 136.89 82.6697 M136.89 78.966 Q142.7 78.966 145.755 83.5725 Q148.834 88.1558 148.834 96.9057 Q148.834 105.633 145.755 110.239 Q142.7 114.822 136.89 114.822 Q131.079 114.822 128.001 110.239 Q124.945 105.633 124.945 96.9057 Q124.945 88.1558 128.001 83.5725 Q131.079 78.966 136.89 78.966 Z" fill="#000000" fill-rule="nonzero" fill-opacity="1" /><polyline clip-path="url(#clip362)" style="stroke:#009af9; stroke-linecap:round; stroke-linejoin:round; stroke-width:4; stroke-opacity:1; fill:none" points="258.539,1751.15 281.901,1751.14 305.263,1751.12 328.625,1751.09 351.987,1751.05 375.349,1750.97 398.711,1750.86 422.073,1750.68 445.434,1750.42 468.796,1750.01 492.158,1749.41 515.52,1748.51 538.882,1747.18 562.244,1745.23 585.606,1742.41 608.968,1738.34 632.33,1732.54 655.692,1724.38 679.054,1713.04 702.416,1697.55 725.778,1676.73 749.14,1649.31 772.502,1613.99 795.864,1569.58 819.226,1515.2 842.587,1450.45 865.949,1375.61 889.311,1291.66 912.673,1200.35 936.035,1103.96 959.397,1005.16 982.759,906.657 1006.12,810.962 1029.48,720.181 1052.84,635.895 1076.21,559.122 1099.57,490.36 1122.93,429.666 1146.29,376.765 1169.65,331.149 1193.02,292.172 1216.38,259.122 1239.74,231.278 1263.1,207.945 1286.46,188.479 1309.83,172.299 1333.19,158.892 1356.55,147.81 1379.91,138.67 1403.27,131.143 1426.64,124.954 1450,119.871 1473.36,115.699 1496.72,112.279 1520.08,109.477 1543.45,107.182 1566.81,105.303 1590.17,103.765 1613.53,102.508 1636.89,101.479 1660.26,100.637 1683.62,99.9493 1706.98,99.3868 1730.34,98.9271 1753.7,98.5513 1777.07,98.2441 1800.43,97.9931 1823.79,97.7879 1847.15,97.6202 1870.51,97.4832 1893.87,97.3713 1917.24,97.2798 1940.6,97.205 1963.96,97.1439 1987.32,97.094 2010.68,97.0532 2034.05,97.0199 2057.41,96.9927 2080.77,96.9704 2104.13,96.9522 2127.49,96.9374 2150.86,96.9252 2174.22,96.9153 2197.58,96.9072 2220.94,96.9006 2244.3,96.8952 2267.67,96.8908 2291.03,96.8872 2314.39,96.8842 2337.75,96.8818 2361.11,96.8798 2384.48,96.8782 2407.84,96.8769 2431.2,96.8758 2454.56,96.8749 2477.92,96.8742 2501.29,96.8736 2524.65,96.8732 2548.01,96.8728 2571.37,96.8724 "/>
<path clip-path="url(#clip360)" d="M270.874 209.375 L568.465 209.375 L568.465 105.695 L270.874 105.695  Z" fill="#ffffff" fill-rule="evenodd" fill-opacity="1"/>
<polyline clip-path="url(#clip360)" style="stroke:#000000; stroke-linecap:round; stroke-linejoin:round; stroke-width:4; stroke-opacity:1; fill:none" points="270.874,209.375 568.465,209.375 568.465,105.695 270.874,105.695 270.874,209.375 "/>
<polyline clip-path="url(#clip360)" style="stroke:#009af9; stroke-linecap:round; stroke-linejoin:round; stroke-width:4; stroke-opacity:1; fill:none" points="298.114,157.535 461.554,157.535 "/>
<path clip-path="url(#clip360)" d="M502.637 177.223 Q500.831 181.852 499.118 183.264 Q497.405 184.676 494.535 184.676 L491.132 184.676 L491.132 181.112 L493.632 181.112 Q495.391 181.112 496.364 180.278 Q497.336 179.445 498.516 176.343 L499.28 174.399 L488.794 148.889 L493.308 148.889 L501.41 169.167 L509.512 148.889 L514.026 148.889 L502.637 177.223 Z" fill="#000000" fill-rule="nonzero" fill-opacity="1" /><path clip-path="url(#clip360)" d="M521.317 170.88 L528.956 170.88 L528.956 144.515 L520.646 146.181 L520.646 141.922 L528.91 140.255 L533.586 140.255 L533.586 170.88 L541.225 170.88 L541.225 174.815 L521.317 174.815 L521.317 170.88 Z" fill="#000000" fill-rule="nonzero" fill-opacity="1" /></svg>
