<?xml version="1.0" encoding="utf-8"?>
<svg xmlns="http://www.w3.org/2000/svg" xmlns:xlink="http://www.w3.org/1999/xlink" width="672" height="480" viewBox="0 0 2688 1920">
<defs>
  <clipPath id="clip480">
    <rect x="0" y="0" width="2688" height="1920"/>
  </clipPath>
</defs>
<path clip-path="url(#clip480)" d="M0 1920 L2688 1920 L2688 -4.26326e-14 L0 -4.26326e-14  Z" fill="#ffffff" fill-rule="evenodd" fill-opacity="1"/>
<defs>
  <clipPath id="clip481">
    <rect x="537" y="0" width="1883" height="1883"/>
  </clipPath>
</defs>
<path clip-path="url(#clip480)" d="M115.057 1734.12 L2640.76 1734.12 L2640.76 47.2441 L115.057 47.2441  Z" fill="#ffffff" fill-rule="evenodd" fill-opacity="1"/>
<defs>
  <clipPath id="clip482">
    <rect x="115" y="47" width="2527" height="1688"/>
  </clipPath>
</defs>
<polyline clip-path="url(#clip482)" style="stroke:#000000; stroke-linecap:round; stroke-linejoin:round; stroke-width:2; stroke-opacity:0.1; fill:none" points="115.057,1734.12 115.057,47.2441 "/>
<polyline clip-path="url(#clip482)" style="stroke:#000000; stroke-linecap:round; stroke-linejoin:round; stroke-width:2; stroke-opacity:0.1; fill:none" points="620.197,1734.12 620.197,47.2441 "/>
<polyline clip-path="url(#clip482)" style="stroke:#000000; stroke-linecap:round; stroke-linejoin:round; stroke-width:2; stroke-opacity:0.1; fill:none" points="1125.34,1734.12 1125.34,47.2441 "/>
<polyline clip-path="url(#clip482)" style="stroke:#000000; stroke-linecap:round; stroke-linejoin:round; stroke-width:2; stroke-opacity:0.1; fill:none" points="1630.48,1734.12 1630.48,47.2441 "/>
<polyline clip-path="url(#clip482)" style="stroke:#000000; stroke-linecap:round; stroke-linejoin:round; stroke-width:2; stroke-opacity:0.1; fill:none" points="2135.62,1734.12 2135.62,47.2441 "/>
<polyline clip-path="url(#clip482)" style="stroke:#000000; stroke-linecap:round; stroke-linejoin:round; stroke-width:2; stroke-opacity:0.1; fill:none" points="2640.76,1734.12 2640.76,47.2441 "/>
<polyline clip-path="url(#clip480)" style="stroke:#000000; stroke-linecap:round; stroke-linejoin:round; stroke-width:4; stroke-opacity:1; fill:none" points="115.057,1734.12 2640.76,1734.12 "/>
<polyline clip-path="url(#clip480)" style="stroke:#000000; stroke-linecap:round; stroke-linejoin:round; stroke-width:4; stroke-opacity:1; fill:none" points="115.057,1734.12 115.057,1715.22 "/>
<polyline clip-path="url(#clip480)" style="stroke:#000000; stroke-linecap:round; stroke-linejoin:round; stroke-width:4; stroke-opacity:1; fill:none" points="620.197,1734.12 620.197,1715.22 "/>
<polyline clip-path="url(#clip480)" style="stroke:#000000; stroke-linecap:round; stroke-linejoin:round; stroke-width:4; stroke-opacity:1; fill:none" points="1125.34,1734.12 1125.34,1715.22 "/>
<polyline clip-path="url(#clip480)" style="stroke:#000000; stroke-linecap:round; stroke-linejoin:round; stroke-width:4; stroke-opacity:1; fill:none" points="1630.48,1734.12 1630.48,1715.22 "/>
<polyline clip-path="url(#clip480)" style="stroke:#000000; stroke-linecap:round; stroke-linejoin:round; stroke-width:4; stroke-opacity:1; fill:none" points="2135.62,1734.12 2135.62,1715.22 "/>
<polyline clip-path="url(#clip480)" style="stroke:#000000; stroke-linecap:round; stroke-linejoin:round; stroke-width:4; stroke-opacity:1; fill:none" points="2640.76,1734.12 2640.76,1715.22 "/>
<path clip-path="url(#clip480)" d="M115.057 1767.34 Q111.446 1767.34 109.617 1770.9 Q107.812 1774.45 107.812 1781.58 Q107.812 1788.68 109.617 1792.25 Q111.446 1795.79 115.057 1795.79 Q118.691 1795.79 120.497 1792.25 Q122.326 1788.68 122.326 1781.58 Q122.326 1774.45 120.497 1770.9 Q118.691 1767.34 115.057 1767.34 M115.057 1763.64 Q120.867 1763.64 123.923 1768.24 Q127.002 1772.83 127.002 1781.58 Q127.002 1790.3 123.923 1794.91 Q120.867 1799.49 115.057 1799.49 Q109.247 1799.49 106.168 1794.91 Q103.113 1790.3 103.113 1781.58 Q103.113 1772.83 106.168 1768.24 Q109.247 1763.64 115.057 1763.64 Z" fill="#000000" fill-rule="nonzero" fill-opacity="1" /><path clip-path="url(#clip480)" d="M610.579 1794.89 L618.218 1794.89 L618.218 1768.52 L609.908 1770.19 L609.908 1765.93 L618.171 1764.26 L622.847 1764.26 L622.847 1794.89 L630.486 1794.89 L630.486 1798.82 L610.579 1798.82 L610.579 1794.89 Z" fill="#000000" fill-rule="nonzero" fill-opacity="1" /><path clip-path="url(#clip480)" d="M1119.99 1794.89 L1136.31 1794.89 L1136.31 1798.82 L1114.36 1798.82 L1114.36 1794.89 Q1117.03 1792.13 1121.61 1787.5 Q1126.22 1782.85 1127.4 1781.51 Q1129.64 1778.98 1130.52 1777.25 Q1131.42 1775.49 1131.42 1773.8 Q1131.42 1771.04 1129.48 1769.31 Q1127.56 1767.57 1124.46 1767.57 Q1122.26 1767.57 1119.8 1768.34 Q1117.37 1769.1 1114.6 1770.65 L1114.6 1765.93 Q1117.42 1764.79 1119.87 1764.21 Q1122.33 1763.64 1124.36 1763.64 Q1129.73 1763.64 1132.93 1766.32 Q1136.12 1769.01 1136.12 1773.5 Q1136.12 1775.63 1135.31 1777.55 Q1134.53 1779.45 1132.42 1782.04 Q1131.84 1782.71 1128.74 1785.93 Q1125.64 1789.12 1119.99 1794.89 Z" fill="#000000" fill-rule="nonzero" fill-opacity="1" /><path clip-path="url(#clip480)" d="M1634.72 1780.19 Q1638.08 1780.9 1639.96 1783.17 Q1641.85 1785.44 1641.85 1788.77 Q1641.85 1793.89 1638.34 1796.69 Q1634.82 1799.49 1628.34 1799.49 Q1626.16 1799.49 1623.84 1799.05 Q1621.55 1798.64 1619.1 1797.78 L1619.1 1793.27 Q1621.04 1794.4 1623.36 1794.98 Q1625.67 1795.56 1628.2 1795.56 Q1632.59 1795.56 1634.89 1793.82 Q1637.2 1792.08 1637.2 1788.77 Q1637.2 1785.72 1635.05 1784.01 Q1632.92 1782.27 1629.1 1782.27 L1625.07 1782.27 L1625.07 1778.43 L1629.28 1778.43 Q1632.73 1778.43 1634.56 1777.06 Q1636.39 1775.67 1636.39 1773.08 Q1636.39 1770.42 1634.49 1769.01 Q1632.62 1767.57 1629.1 1767.57 Q1627.18 1767.57 1624.98 1767.99 Q1622.78 1768.4 1620.14 1769.28 L1620.14 1765.12 Q1622.8 1764.38 1625.12 1764.01 Q1627.46 1763.64 1629.52 1763.64 Q1634.84 1763.64 1637.94 1766.07 Q1641.04 1768.47 1641.04 1772.59 Q1641.04 1775.46 1639.4 1777.46 Q1637.76 1779.42 1634.72 1780.19 Z" fill="#000000" fill-rule="nonzero" fill-opacity="1" /><path clip-path="url(#clip480)" d="M2138.63 1768.34 L2126.82 1786.78 L2138.63 1786.78 L2138.63 1768.34 M2137.4 1764.26 L2143.28 1764.26 L2143.28 1786.78 L2148.21 1786.78 L2148.21 1790.67 L2143.28 1790.67 L2143.28 1798.82 L2138.63 1798.82 L2138.63 1790.67 L2123.02 1790.67 L2123.02 1786.16 L2137.4 1764.26 Z" fill="#000000" fill-rule="nonzero" fill-opacity="1" /><path clip-path="url(#clip480)" d="M2631.03 1764.26 L2649.39 1764.26 L2649.39 1768.2 L2635.32 1768.2 L2635.32 1776.67 Q2636.33 1776.32 2637.35 1776.16 Q2638.37 1775.97 2639.39 1775.97 Q2645.18 1775.97 2648.56 1779.15 Q2651.94 1782.32 2651.94 1787.73 Q2651.94 1793.31 2648.46 1796.41 Q2644.99 1799.49 2638.67 1799.49 Q2636.5 1799.49 2634.23 1799.12 Q2631.98 1798.75 2629.58 1798.01 L2629.58 1793.31 Q2631.66 1794.45 2633.88 1795 Q2636.1 1795.56 2638.58 1795.56 Q2642.58 1795.56 2644.92 1793.45 Q2647.26 1791.34 2647.26 1787.73 Q2647.26 1784.12 2644.92 1782.02 Q2642.58 1779.91 2638.58 1779.91 Q2636.71 1779.91 2634.83 1780.33 Q2632.98 1780.74 2631.03 1781.62 L2631.03 1764.26 Z" fill="#000000" fill-rule="nonzero" fill-opacity="1" /><path clip-path="url(#clip480)" d="M1376.97 1837.53 L1376.97 1847.65 L1389.03 1847.65 L1389.03 1852.2 L1376.97 1852.2 L1376.97 1871.56 Q1376.97 1875.92 1378.15 1877.16 Q1379.35 1878.4 1383.02 1878.4 L1389.03 1878.4 L1389.03 1883.3 L1383.02 1883.3 Q1376.24 1883.3 1373.66 1880.79 Q1371.08 1878.24 1371.08 1871.56 L1371.08 1852.2 L1366.78 1852.2 L1366.78 1847.65 L1371.08 1847.65 L1371.08 1837.53 L1376.97 1837.53 Z" fill="#000000" fill-rule="nonzero" fill-opacity="1" /><polyline clip-path="url(#clip482)" style="stroke:#000000; stroke-linecap:round; stroke-linejoin:round; stroke-width:2; stroke-opacity:0.1; fill:none" points="115.057,1538.73 2640.76,1538.73 "/>
<polyline clip-path="url(#clip482)" style="stroke:#000000; stroke-linecap:round; stroke-linejoin:round; stroke-width:2; stroke-opacity:0.1; fill:none" points="115.057,1263.27 2640.76,1263.27 "/>
<polyline clip-path="url(#clip482)" style="stroke:#000000; stroke-linecap:round; stroke-linejoin:round; stroke-width:2; stroke-opacity:0.1; fill:none" points="115.057,987.804 2640.76,987.804 "/>
<polyline clip-path="url(#clip482)" style="stroke:#000000; stroke-linecap:round; stroke-linejoin:round; stroke-width:2; stroke-opacity:0.1; fill:none" points="115.057,712.34 2640.76,712.34 "/>
<polyline clip-path="url(#clip482)" style="stroke:#000000; stroke-linecap:round; stroke-linejoin:round; stroke-width:2; stroke-opacity:0.1; fill:none" points="115.057,436.875 2640.76,436.875 "/>
<polyline clip-path="url(#clip482)" style="stroke:#000000; stroke-linecap:round; stroke-linejoin:round; stroke-width:2; stroke-opacity:0.1; fill:none" points="115.057,161.41 2640.76,161.41 "/>
<polyline clip-path="url(#clip480)" style="stroke:#000000; stroke-linecap:round; stroke-linejoin:round; stroke-width:4; stroke-opacity:1; fill:none" points="115.057,1734.12 115.057,47.2441 "/>
<polyline clip-path="url(#clip480)" style="stroke:#000000; stroke-linecap:round; stroke-linejoin:round; stroke-width:4; stroke-opacity:1; fill:none" points="115.057,1538.73 133.955,1538.73 "/>
<polyline clip-path="url(#clip480)" style="stroke:#000000; stroke-linecap:round; stroke-linejoin:round; stroke-width:4; stroke-opacity:1; fill:none" points="115.057,1263.27 133.955,1263.27 "/>
<polyline clip-path="url(#clip480)" style="stroke:#000000; stroke-linecap:round; stroke-linejoin:round; stroke-width:4; stroke-opacity:1; fill:none" points="115.057,987.804 133.955,987.804 "/>
<polyline clip-path="url(#clip480)" style="stroke:#000000; stroke-linecap:round; stroke-linejoin:round; stroke-width:4; stroke-opacity:1; fill:none" points="115.057,712.34 133.955,712.34 "/>
<polyline clip-path="url(#clip480)" style="stroke:#000000; stroke-linecap:round; stroke-linejoin:round; stroke-width:4; stroke-opacity:1; fill:none" points="115.057,436.875 133.955,436.875 "/>
<polyline clip-path="url(#clip480)" style="stroke:#000000; stroke-linecap:round; stroke-linejoin:round; stroke-width:4; stroke-opacity:1; fill:none" points="115.057,161.41 133.955,161.41 "/>
<path clip-path="url(#clip480)" d="M54.8299 1552.08 L62.4687 1552.08 L62.4687 1525.71 L54.1586 1527.38 L54.1586 1523.12 L62.4224 1521.45 L67.0983 1521.45 L67.0983 1552.08 L74.7372 1552.08 L74.7372 1556.01 L54.8299 1556.01 L54.8299 1552.08 Z" fill="#000000" fill-rule="nonzero" fill-opacity="1" /><path clip-path="url(#clip480)" d="M58.4178 1276.61 L74.7372 1276.61 L74.7372 1280.55 L52.7928 1280.55 L52.7928 1276.61 Q55.4549 1273.86 60.0382 1269.23 Q64.6446 1264.58 65.8252 1263.23 Q68.0705 1260.71 68.9502 1258.97 Q69.8529 1257.22 69.8529 1255.53 Q69.8529 1252.77 67.9085 1251.04 Q65.9872 1249.3 62.8854 1249.3 Q60.6863 1249.3 58.2326 1250.06 Q55.8021 1250.83 53.0243 1252.38 L53.0243 1247.66 Q55.8484 1246.52 58.3021 1245.94 Q60.7558 1245.36 62.7928 1245.36 Q68.1631 1245.36 71.3576 1248.05 Q74.552 1250.73 74.552 1255.22 Q74.552 1257.35 73.7418 1259.28 Q72.9548 1261.17 70.8483 1263.77 Q70.2696 1264.44 67.1678 1267.66 Q64.0659 1270.85 58.4178 1276.61 Z" fill="#000000" fill-rule="nonzero" fill-opacity="1" /><path clip-path="url(#clip480)" d="M67.6076 986.45 Q70.964 987.168 72.839 989.436 Q74.7372 991.705 74.7372 995.038 Q74.7372 1000.15 71.2187 1002.95 Q67.7002 1005.76 61.2187 1005.76 Q59.0428 1005.76 56.728 1005.32 Q54.4364 1004.9 51.9827 1004.04 L51.9827 999.529 Q53.9271 1000.66 56.2419 1001.24 Q58.5567 1001.82 61.0798 1001.82 Q65.478 1001.82 67.7696 1000.08 Q70.0844 998.348 70.0844 995.038 Q70.0844 991.982 67.9317 990.269 Q65.802 988.533 61.9826 988.533 L57.9549 988.533 L57.9549 984.691 L62.1678 984.691 Q65.6169 984.691 67.4455 983.325 Q69.2742 981.936 69.2742 979.344 Q69.2742 976.682 67.3761 975.27 Q65.5011 973.834 61.9826 973.834 Q60.0613 973.834 57.8623 974.251 Q55.6632 974.668 53.0243 975.547 L53.0243 971.381 Q55.6864 970.64 58.0012 970.27 Q60.3391 969.899 62.3993 969.899 Q67.7233 969.899 70.8252 972.33 Q73.927 974.737 73.927 978.858 Q73.927 981.728 72.2835 983.719 Q70.64 985.686 67.6076 986.45 Z" fill="#000000" fill-rule="nonzero" fill-opacity="1" /><path clip-path="url(#clip480)" d="M65.1539 699.134 L53.3484 717.583 L65.1539 717.583 L65.1539 699.134 M63.927 695.06 L69.8066 695.06 L69.8066 717.583 L74.7372 717.583 L74.7372 721.472 L69.8066 721.472 L69.8066 729.62 L65.1539 729.62 L65.1539 721.472 L49.5521 721.472 L49.5521 716.958 L63.927 695.06 Z" fill="#000000" fill-rule="nonzero" fill-opacity="1" /><path clip-path="url(#clip480)" d="M53.8345 419.595 L72.1909 419.595 L72.1909 423.53 L58.1169 423.53 L58.1169 432.002 Q59.1354 431.655 60.1539 431.493 Q61.1724 431.308 62.1909 431.308 Q67.978 431.308 71.3576 434.479 Q74.7372 437.65 74.7372 443.067 Q74.7372 448.646 71.265 451.748 Q67.7928 454.826 61.4734 454.826 Q59.2974 454.826 57.0289 454.456 Q54.7836 454.086 52.3762 453.345 L52.3762 448.646 Q54.4595 449.78 56.6817 450.336 Q58.9039 450.891 61.3808 450.891 Q65.3854 450.891 67.7233 448.785 Q70.0613 446.678 70.0613 443.067 Q70.0613 439.456 67.7233 437.35 Q65.3854 435.243 61.3808 435.243 Q59.5058 435.243 57.6308 435.66 Q55.7789 436.076 53.8345 436.956 L53.8345 419.595 Z" fill="#000000" fill-rule="nonzero" fill-opacity="1" /><path clip-path="url(#clip480)" d="M63.2095 159.547 Q60.0613 159.547 58.2095 161.7 Q56.3808 163.852 56.3808 167.602 Q56.3808 171.329 58.2095 173.505 Q60.0613 175.658 63.2095 175.658 Q66.3576 175.658 68.1863 173.505 Q70.0381 171.329 70.0381 167.602 Q70.0381 163.852 68.1863 161.7 Q66.3576 159.547 63.2095 159.547 M72.4918 144.894 L72.4918 149.154 Q70.7326 148.32 68.927 147.88 Q67.1446 147.441 65.3854 147.441 Q60.7558 147.441 58.3021 150.566 Q55.8715 153.691 55.5243 160.01 Q56.89 157.996 58.9502 156.931 Q61.0104 155.843 63.4872 155.843 Q68.6955 155.843 71.7048 159.015 Q74.7372 162.163 74.7372 167.602 Q74.7372 172.927 71.589 176.144 Q68.4409 179.362 63.2095 179.362 Q57.2141 179.362 54.0428 174.778 Q50.8716 170.172 50.8716 161.445 Q50.8716 153.251 54.7604 148.39 Q58.6493 143.505 65.2002 143.505 Q66.9594 143.505 68.7418 143.853 Q70.5474 144.2 72.4918 144.894 Z" fill="#000000" fill-rule="nonzero" fill-opacity="1" /><polyline clip-path="url(#clip482)" style="stroke:#009af9; stroke-linecap:round; stroke-linejoin:round; stroke-width:4; stroke-opacity:0.3; fill:none" points="115.057,1263.27 165.571,1284.9 216.085,1295.73 266.599,1297.12 317.113,1290.09 367.627,1275.39 418.141,1253.52 468.655,1224.84 519.169,1189.56 569.683,1147.86 620.197,1099.95 670.711,1046.15 721.225,986.945 771.739,923.213 822.253,856.319 872.767,788.309 923.281,722.17 973.795,662.03 1024.31,612.975 1074.82,581.674 1125.34,574.458 1175.85,595.408 1226.36,646.071 1276.88,722.389 1327.39,815.725 1377.91,915.146 1428.42,1010.32 1478.93,1094.23 1529.45,1162.97 1579.96,1215.85 1630.48,1254.17 1680.99,1279.55 1731.5,1293.64 1782.02,1297.91 1832.53,1293.46 1883.05,1281.12 1933.56,1261.49 1984.07,1234.95 2034.59,1201.75 2085.1,1162.06 2135.62,1116.08 2186.13,1064.1 2236.64,1006.63 2287.16,944.209 2337.67,878.007 2388.19,809.969 2438.7,742.819 2489.21,680.105 2539.73,626.915 2590.24,589.275 2640.76,573.353 "/>
<polyline clip-path="url(#clip482)" style="stroke:#e26f46; stroke-linecap:round; stroke-linejoin:round; stroke-width:4; stroke-opacity:0.3; fill:none" points="115.057,1263.27 165.571,1317.82 216.085,1369.58 266.599,1416.81 317.113,1458.65 367.627,1494.83 418.141,1525.4 468.655,1550.64 519.169,1570.87 569.683,1586.38 620.197,1597.4 670.711,1604.04 721.225,1606.25 771.739,1603.8 822.253,1596.19 872.767,1582.68 923.281,1562.25 973.795,1533.63 1024.31,1495.48 1074.82,1446.59 1125.34,1387.18 1175.85,1319.62 1226.36,1248.61 1276.88,1182.38 1327.39,1129.96 1377.91,1098.73 1428.42,1091.78 1478.93,1108.23 1529.45,1144.09 1579.96,1192.11 1630.48,1245.76 1680.99,1300.71 1731.5,1353.62 1782.02,1402.47 1832.53,1446.15 1883.05,1484.13 1933.56,1516.37 1984.07,1543.25 2034.59,1565.05 2085.1,1582.06 2135.62,1594.5 2186.13,1602.54 2236.64,1606.16 2287.16,1605.22 2337.67,1599.34 2388.19,1587.86 2438.7,1569.81 2489.21,1544 2539.73,1508.99 2590.24,1463.61 2640.76,1407.6 "/>
<circle clip-path="url(#clip482)" cx="115.057" cy="1300.3" r="14.4" fill="#009af9" fill-rule="evenodd" fill-opacity="1" stroke="#000000" stroke-opacity="1" stroke-width="3.84"/>
<circle clip-path="url(#clip482)" cx="165.571" cy="1181.13" r="14.4" fill="#009af9" fill-rule="evenodd" fill-opacity="1" stroke="#000000" stroke-opacity="1" stroke-width="3.84"/>
<circle clip-path="url(#clip482)" cx="216.085" cy="1303.69" r="14.4" fill="#009af9" fill-rule="evenodd" fill-opacity="1" stroke="#000000" stroke-opacity="1" stroke-width="3.84"/>
<circle clip-path="url(#clip482)" cx="266.599" cy="1503.4" r="14.4" fill="#009af9" fill-rule="evenodd" fill-opacity="1" stroke="#000000" stroke-opacity="1" stroke-width="3.84"/>
<circle clip-path="url(#clip482)" cx="317.113" cy="1194.51" r="14.4" fill="#009af9" fill-rule="evenodd" fill-opacity="1" stroke="#000000" stroke-opacity="1" stroke-width="3.84"/>
<circle clip-path="url(#clip482)" cx="367.627" cy="1317.29" r="14.4" fill="#009af9" fill-rule="evenodd" fill-opacity="1" stroke="#000000" stroke-opacity="1" stroke-width="3.84"/>
<circle clip-path="url(#clip482)" cx="418.141" cy="1020.07" r="14.4" fill="#009af9" fill-rule="evenodd" fill-opacity="1" stroke="#000000" stroke-opacity="1" stroke-width="3.84"/>
<circle clip-path="url(#clip482)" cx="468.655" cy="1297.9" r="14.4" fill="#009af9" fill-rule="evenodd" fill-opacity="1" stroke="#000000" stroke-opacity="1" stroke-width="3.84"/>
<circle clip-path="url(#clip482)" cx="519.169" cy="1157.75" r="14.4" fill="#009af9" fill-rule="evenodd" fill-opacity="1" stroke="#000000" stroke-opacity="1" stroke-width="3.84"/>
<circle clip-path="url(#clip482)" cx="569.683" cy="1357.62" r="14.4" fill="#009af9" fill-rule="evenodd" fill-opacity="1" stroke="#000000" stroke-opacity="1" stroke-width="3.84"/>
<circle clip-path="url(#clip482)" cx="620.197" cy="1296.78" r="14.4" fill="#009af9" fill-rule="evenodd" fill-opacity="1" stroke="#000000" stroke-opacity="1" stroke-width="3.84"/>
<circle clip-path="url(#clip482)" cx="670.711" cy="792.311" r="14.4" fill="#009af9" fill-rule="evenodd" fill-opacity="1" stroke="#000000" stroke-opacity="1" stroke-width="3.84"/>
<circle clip-path="url(#clip482)" cx="721.225" cy="901.145" r="14.4" fill="#009af9" fill-rule="evenodd" fill-opacity="1" stroke="#000000" stroke-opacity="1" stroke-width="3.84"/>
<circle clip-path="url(#clip482)" cx="771.739" cy="861.633" r="14.4" fill="#009af9" fill-rule="evenodd" fill-opacity="1" stroke="#000000" stroke-opacity="1" stroke-width="3.84"/>
<circle clip-path="url(#clip482)" cx="822.253" cy="107.54" r="14.4" fill="#009af9" fill-rule="evenodd" fill-opacity="1" stroke="#000000" stroke-opacity="1" stroke-width="3.84"/>
<circle clip-path="url(#clip482)" cx="872.767" cy="94.9858" r="14.4" fill="#009af9" fill-rule="evenodd" fill-opacity="1" stroke="#000000" stroke-opacity="1" stroke-width="3.84"/>
<circle clip-path="url(#clip482)" cx="923.281" cy="634.299" r="14.4" fill="#009af9" fill-rule="evenodd" fill-opacity="1" stroke="#000000" stroke-opacity="1" stroke-width="3.84"/>
<circle clip-path="url(#clip482)" cx="973.795" cy="754.907" r="14.4" fill="#009af9" fill-rule="evenodd" fill-opacity="1" stroke="#000000" stroke-opacity="1" stroke-width="3.84"/>
<circle clip-path="url(#clip482)" cx="1024.31" cy="932.348" r="14.4" fill="#009af9" fill-rule="evenodd" fill-opacity="1" stroke="#000000" stroke-opacity="1" stroke-width="3.84"/>
<circle clip-path="url(#clip482)" cx="1074.82" cy="472.927" r="14.4" fill="#009af9" fill-rule="evenodd" fill-opacity="1" stroke="#000000" stroke-opacity="1" stroke-width="3.84"/>
<circle clip-path="url(#clip482)" cx="1125.34" cy="752.506" r="14.4" fill="#009af9" fill-rule="evenodd" fill-opacity="1" stroke="#000000" stroke-opacity="1" stroke-width="3.84"/>
<circle clip-path="url(#clip482)" cx="1175.85" cy="901.477" r="14.4" fill="#009af9" fill-rule="evenodd" fill-opacity="1" stroke="#000000" stroke-opacity="1" stroke-width="3.84"/>
<circle clip-path="url(#clip482)" cx="1226.36" cy="1040.51" r="14.4" fill="#009af9" fill-rule="evenodd" fill-opacity="1" stroke="#000000" stroke-opacity="1" stroke-width="3.84"/>
<circle clip-path="url(#clip482)" cx="1276.88" cy="227.677" r="14.4" fill="#009af9" fill-rule="evenodd" fill-opacity="1" stroke="#000000" stroke-opacity="1" stroke-width="3.84"/>
<circle clip-path="url(#clip482)" cx="1327.39" cy="329.072" r="14.4" fill="#009af9" fill-rule="evenodd" fill-opacity="1" stroke="#000000" stroke-opacity="1" stroke-width="3.84"/>
<circle clip-path="url(#clip482)" cx="1377.91" cy="242.897" r="14.4" fill="#009af9" fill-rule="evenodd" fill-opacity="1" stroke="#000000" stroke-opacity="1" stroke-width="3.84"/>
<circle clip-path="url(#clip482)" cx="1428.42" cy="1321.89" r="14.4" fill="#009af9" fill-rule="evenodd" fill-opacity="1" stroke="#000000" stroke-opacity="1" stroke-width="3.84"/>
<circle clip-path="url(#clip482)" cx="1478.93" cy="1078.52" r="14.4" fill="#009af9" fill-rule="evenodd" fill-opacity="1" stroke="#000000" stroke-opacity="1" stroke-width="3.84"/>
<circle clip-path="url(#clip482)" cx="1529.45" cy="1316.4" r="14.4" fill="#009af9" fill-rule="evenodd" fill-opacity="1" stroke="#000000" stroke-opacity="1" stroke-width="3.84"/>
<circle clip-path="url(#clip482)" cx="1579.96" cy="1039.6" r="14.4" fill="#009af9" fill-rule="evenodd" fill-opacity="1" stroke="#000000" stroke-opacity="1" stroke-width="3.84"/>
<circle clip-path="url(#clip482)" cx="1630.48" cy="1343.32" r="14.4" fill="#009af9" fill-rule="evenodd" fill-opacity="1" stroke="#000000" stroke-opacity="1" stroke-width="3.84"/>
<circle clip-path="url(#clip482)" cx="1680.99" cy="1459.42" r="14.4" fill="#009af9" fill-rule="evenodd" fill-opacity="1" stroke="#000000" stroke-opacity="1" stroke-width="3.84"/>
<circle clip-path="url(#clip482)" cx="1731.5" cy="1287.81" r="14.4" fill="#009af9" fill-rule="evenodd" fill-opacity="1" stroke="#000000" stroke-opacity="1" stroke-width="3.84"/>
<circle clip-path="url(#clip482)" cx="1782.02" cy="930.113" r="14.4" fill="#009af9" fill-rule="evenodd" fill-opacity="1" stroke="#000000" stroke-opacity="1" stroke-width="3.84"/>
<circle clip-path="url(#clip482)" cx="1832.53" cy="1480.49" r="14.4" fill="#009af9" fill-rule="evenodd" fill-opacity="1" stroke="#000000" stroke-opacity="1" stroke-width="3.84"/>
<circle clip-path="url(#clip482)" cx="1883.05" cy="1235.69" r="14.4" fill="#009af9" fill-rule="evenodd" fill-opacity="1" stroke="#000000" stroke-opacity="1" stroke-width="3.84"/>
<circle clip-path="url(#clip482)" cx="1933.56" cy="1042.92" r="14.4" fill="#009af9" fill-rule="evenodd" fill-opacity="1" stroke="#000000" stroke-opacity="1" stroke-width="3.84"/>
<circle clip-path="url(#clip482)" cx="1984.07" cy="1257.41" r="14.4" fill="#009af9" fill-rule="evenodd" fill-opacity="1" stroke="#000000" stroke-opacity="1" stroke-width="3.84"/>
<circle clip-path="url(#clip482)" cx="2034.59" cy="1267.62" r="14.4" fill="#009af9" fill-rule="evenodd" fill-opacity="1" stroke="#000000" stroke-opacity="1" stroke-width="3.84"/>
<circle clip-path="url(#clip482)" cx="2085.1" cy="1275.22" r="14.4" fill="#009af9" fill-rule="evenodd" fill-opacity="1" stroke="#000000" stroke-opacity="1" stroke-width="3.84"/>
<circle clip-path="url(#clip482)" cx="2135.62" cy="913.479" r="14.4" fill="#009af9" fill-rule="evenodd" fill-opacity="1" stroke="#000000" stroke-opacity="1" stroke-width="3.84"/>
<circle clip-path="url(#clip482)" cx="2186.13" cy="1095.63" r="14.4" fill="#009af9" fill-rule="evenodd" fill-opacity="1" stroke="#000000" stroke-opacity="1" stroke-width="3.84"/>
<circle clip-path="url(#clip482)" cx="2236.64" cy="883.355" r="14.4" fill="#009af9" fill-rule="evenodd" fill-opacity="1" stroke="#000000" stroke-opacity="1" stroke-width="3.84"/>
<circle clip-path="url(#clip482)" cx="2287.16" cy="1076.68" r="14.4" fill="#009af9" fill-rule="evenodd" fill-opacity="1" stroke="#000000" stroke-opacity="1" stroke-width="3.84"/>
<circle clip-path="url(#clip482)" cx="2337.67" cy="720.698" r="14.4" fill="#009af9" fill-rule="evenodd" fill-opacity="1" stroke="#000000" stroke-opacity="1" stroke-width="3.84"/>
<circle clip-path="url(#clip482)" cx="2388.19" cy="593.333" r="14.4" fill="#009af9" fill-rule="evenodd" fill-opacity="1" stroke="#000000" stroke-opacity="1" stroke-width="3.84"/>
<circle clip-path="url(#clip482)" cx="2438.7" cy="929.927" r="14.4" fill="#009af9" fill-rule="evenodd" fill-opacity="1" stroke="#000000" stroke-opacity="1" stroke-width="3.84"/>
<circle clip-path="url(#clip482)" cx="2489.21" cy="283.96" r="14.4" fill="#009af9" fill-rule="evenodd" fill-opacity="1" stroke="#000000" stroke-opacity="1" stroke-width="3.84"/>
<circle clip-path="url(#clip482)" cx="2539.73" cy="539.197" r="14.4" fill="#009af9" fill-rule="evenodd" fill-opacity="1" stroke="#000000" stroke-opacity="1" stroke-width="3.84"/>
<circle clip-path="url(#clip482)" cx="2590.24" cy="692.736" r="14.4" fill="#009af9" fill-rule="evenodd" fill-opacity="1" stroke="#000000" stroke-opacity="1" stroke-width="3.84"/>
<circle clip-path="url(#clip482)" cx="2640.76" cy="251.579" r="14.4" fill="#009af9" fill-rule="evenodd" fill-opacity="1" stroke="#000000" stroke-opacity="1" stroke-width="3.84"/>
<circle clip-path="url(#clip482)" cx="115.057" cy="1083.7" r="14.4" fill="#e26f46" fill-rule="evenodd" fill-opacity="1" stroke="#000000" stroke-opacity="1" stroke-width="3.84"/>
<circle clip-path="url(#clip482)" cx="165.571" cy="910.335" r="14.4" fill="#e26f46" fill-rule="evenodd" fill-opacity="1" stroke="#000000" stroke-opacity="1" stroke-width="3.84"/>
<circle clip-path="url(#clip482)" cx="216.085" cy="1182.2" r="14.4" fill="#e26f46" fill-rule="evenodd" fill-opacity="1" stroke="#000000" stroke-opacity="1" stroke-width="3.84"/>
<circle clip-path="url(#clip482)" cx="266.599" cy="1603.58" r="14.4" fill="#e26f46" fill-rule="evenodd" fill-opacity="1" stroke="#000000" stroke-opacity="1" stroke-width="3.84"/>
<circle clip-path="url(#clip482)" cx="317.113" cy="1539.9" r="14.4" fill="#e26f46" fill-rule="evenodd" fill-opacity="1" stroke="#000000" stroke-opacity="1" stroke-width="3.84"/>
<circle clip-path="url(#clip482)" cx="367.627" cy="1434.35" r="14.4" fill="#e26f46" fill-rule="evenodd" fill-opacity="1" stroke="#000000" stroke-opacity="1" stroke-width="3.84"/>
<circle clip-path="url(#clip482)" cx="418.141" cy="1499.35" r="14.4" fill="#e26f46" fill-rule="evenodd" fill-opacity="1" stroke="#000000" stroke-opacity="1" stroke-width="3.84"/>
<circle clip-path="url(#clip482)" cx="468.655" cy="1539.79" r="14.4" fill="#e26f46" fill-rule="evenodd" fill-opacity="1" stroke="#000000" stroke-opacity="1" stroke-width="3.84"/>
<circle clip-path="url(#clip482)" cx="519.169" cy="1637.79" r="14.4" fill="#e26f46" fill-rule="evenodd" fill-opacity="1" stroke="#000000" stroke-opacity="1" stroke-width="3.84"/>
<circle clip-path="url(#clip482)" cx="569.683" cy="1572.55" r="14.4" fill="#e26f46" fill-rule="evenodd" fill-opacity="1" stroke="#000000" stroke-opacity="1" stroke-width="3.84"/>
<circle clip-path="url(#clip482)" cx="620.197" cy="1670.98" r="14.4" fill="#e26f46" fill-rule="evenodd" fill-opacity="1" stroke="#000000" stroke-opacity="1" stroke-width="3.84"/>
<circle clip-path="url(#clip482)" cx="670.711" cy="1621.68" r="14.4" fill="#e26f46" fill-rule="evenodd" fill-opacity="1" stroke="#000000" stroke-opacity="1" stroke-width="3.84"/>
<circle clip-path="url(#clip482)" cx="721.225" cy="1635" r="14.4" fill="#e26f46" fill-rule="evenodd" fill-opacity="1" stroke="#000000" stroke-opacity="1" stroke-width="3.84"/>
<circle clip-path="url(#clip482)" cx="771.739" cy="1686.38" r="14.4" fill="#e26f46" fill-rule="evenodd" fill-opacity="1" stroke="#000000" stroke-opacity="1" stroke-width="3.84"/>
<circle clip-path="url(#clip482)" cx="822.253" cy="1655.02" r="14.4" fill="#e26f46" fill-rule="evenodd" fill-opacity="1" stroke="#000000" stroke-opacity="1" stroke-width="3.84"/>
<circle clip-path="url(#clip482)" cx="872.767" cy="1624.87" r="14.4" fill="#e26f46" fill-rule="evenodd" fill-opacity="1" stroke="#000000" stroke-opacity="1" stroke-width="3.84"/>
<circle clip-path="url(#clip482)" cx="923.281" cy="1508.74" r="14.4" fill="#e26f46" fill-rule="evenodd" fill-opacity="1" stroke="#000000" stroke-opacity="1" stroke-width="3.84"/>
<circle clip-path="url(#clip482)" cx="973.795" cy="1531.85" r="14.4" fill="#e26f46" fill-rule="evenodd" fill-opacity="1" stroke="#000000" stroke-opacity="1" stroke-width="3.84"/>
<circle clip-path="url(#clip482)" cx="1024.31" cy="1448.65" r="14.4" fill="#e26f46" fill-rule="evenodd" fill-opacity="1" stroke="#000000" stroke-opacity="1" stroke-width="3.84"/>
<circle clip-path="url(#clip482)" cx="1074.82" cy="1393.94" r="14.4" fill="#e26f46" fill-rule="evenodd" fill-opacity="1" stroke="#000000" stroke-opacity="1" stroke-width="3.84"/>
<circle clip-path="url(#clip482)" cx="1125.34" cy="1546.63" r="14.4" fill="#e26f46" fill-rule="evenodd" fill-opacity="1" stroke="#000000" stroke-opacity="1" stroke-width="3.84"/>
<circle clip-path="url(#clip482)" cx="1175.85" cy="1092.55" r="14.4" fill="#e26f46" fill-rule="evenodd" fill-opacity="1" stroke="#000000" stroke-opacity="1" stroke-width="3.84"/>
<circle clip-path="url(#clip482)" cx="1226.36" cy="1291.79" r="14.4" fill="#e26f46" fill-rule="evenodd" fill-opacity="1" stroke="#000000" stroke-opacity="1" stroke-width="3.84"/>
<circle clip-path="url(#clip482)" cx="1276.88" cy="1228.95" r="14.4" fill="#e26f46" fill-rule="evenodd" fill-opacity="1" stroke="#000000" stroke-opacity="1" stroke-width="3.84"/>
<circle clip-path="url(#clip482)" cx="1327.39" cy="1150.27" r="14.4" fill="#e26f46" fill-rule="evenodd" fill-opacity="1" stroke="#000000" stroke-opacity="1" stroke-width="3.84"/>
<circle clip-path="url(#clip482)" cx="1377.91" cy="1047.58" r="14.4" fill="#e26f46" fill-rule="evenodd" fill-opacity="1" stroke="#000000" stroke-opacity="1" stroke-width="3.84"/>
<circle clip-path="url(#clip482)" cx="1428.42" cy="891.813" r="14.4" fill="#e26f46" fill-rule="evenodd" fill-opacity="1" stroke="#000000" stroke-opacity="1" stroke-width="3.84"/>
<circle clip-path="url(#clip482)" cx="1478.93" cy="1079.17" r="14.4" fill="#e26f46" fill-rule="evenodd" fill-opacity="1" stroke="#000000" stroke-opacity="1" stroke-width="3.84"/>
<circle clip-path="url(#clip482)" cx="1529.45" cy="972.755" r="14.4" fill="#e26f46" fill-rule="evenodd" fill-opacity="1" stroke="#000000" stroke-opacity="1" stroke-width="3.84"/>
<circle clip-path="url(#clip482)" cx="1579.96" cy="1285.54" r="14.4" fill="#e26f46" fill-rule="evenodd" fill-opacity="1" stroke="#000000" stroke-opacity="1" stroke-width="3.84"/>
<circle clip-path="url(#clip482)" cx="1630.48" cy="1335.1" r="14.4" fill="#e26f46" fill-rule="evenodd" fill-opacity="1" stroke="#000000" stroke-opacity="1" stroke-width="3.84"/>
<circle clip-path="url(#clip482)" cx="1680.99" cy="1188.18" r="14.4" fill="#e26f46" fill-rule="evenodd" fill-opacity="1" stroke="#000000" stroke-opacity="1" stroke-width="3.84"/>
<circle clip-path="url(#clip482)" cx="1731.5" cy="1214.89" r="14.4" fill="#e26f46" fill-rule="evenodd" fill-opacity="1" stroke="#000000" stroke-opacity="1" stroke-width="3.84"/>
<circle clip-path="url(#clip482)" cx="1782.02" cy="1540.23" r="14.4" fill="#e26f46" fill-rule="evenodd" fill-opacity="1" stroke="#000000" stroke-opacity="1" stroke-width="3.84"/>
<circle clip-path="url(#clip482)" cx="1832.53" cy="1389.72" r="14.4" fill="#e26f46" fill-rule="evenodd" fill-opacity="1" stroke="#000000" stroke-opacity="1" stroke-width="3.84"/>
<circle clip-path="url(#clip482)" cx="1883.05" cy="1336.08" r="14.4" fill="#e26f46" fill-rule="evenodd" fill-opacity="1" stroke="#000000" stroke-opacity="1" stroke-width="3.84"/>
<circle clip-path="url(#clip482)" cx="1933.56" cy="1295.16" r="14.4" fill="#e26f46" fill-rule="evenodd" fill-opacity="1" stroke="#000000" stroke-opacity="1" stroke-width="3.84"/>
<circle clip-path="url(#clip482)" cx="1984.07" cy="1574.38" r="14.4" fill="#e26f46" fill-rule="evenodd" fill-opacity="1" stroke="#000000" stroke-opacity="1" stroke-width="3.84"/>
<circle clip-path="url(#clip482)" cx="2034.59" cy="1599.72" r="14.4" fill="#e26f46" fill-rule="evenodd" fill-opacity="1" stroke="#000000" stroke-opacity="1" stroke-width="3.84"/>
<circle clip-path="url(#clip482)" cx="2085.1" cy="1353.59" r="14.4" fill="#e26f46" fill-rule="evenodd" fill-opacity="1" stroke="#000000" stroke-opacity="1" stroke-width="3.84"/>
<circle clip-path="url(#clip482)" cx="2135.62" cy="1607.96" r="14.4" fill="#e26f46" fill-rule="evenodd" fill-opacity="1" stroke="#000000" stroke-opacity="1" stroke-width="3.84"/>
<circle clip-path="url(#clip482)" cx="2186.13" cy="1610.12" r="14.4" fill="#e26f46" fill-rule="evenodd" fill-opacity="1" stroke="#000000" stroke-opacity="1" stroke-width="3.84"/>
<circle clip-path="url(#clip482)" cx="2236.64" cy="1611.85" r="14.4" fill="#e26f46" fill-rule="evenodd" fill-opacity="1" stroke="#000000" stroke-opacity="1" stroke-width="3.84"/>
<circle clip-path="url(#clip482)" cx="2287.16" cy="1632.96" r="14.4" fill="#e26f46" fill-rule="evenodd" fill-opacity="1" stroke="#000000" stroke-opacity="1" stroke-width="3.84"/>
<circle clip-path="url(#clip482)" cx="2337.67" cy="1639.73" r="14.4" fill="#e26f46" fill-rule="evenodd" fill-opacity="1" stroke="#000000" stroke-opacity="1" stroke-width="3.84"/>
<circle clip-path="url(#clip482)" cx="2388.19" cy="1632.64" r="14.4" fill="#e26f46" fill-rule="evenodd" fill-opacity="1" stroke="#000000" stroke-opacity="1" stroke-width="3.84"/>
<circle clip-path="url(#clip482)" cx="2438.7" cy="1562.34" r="14.4" fill="#e26f46" fill-rule="evenodd" fill-opacity="1" stroke="#000000" stroke-opacity="1" stroke-width="3.84"/>
<circle clip-path="url(#clip482)" cx="2489.21" cy="1486.35" r="14.4" fill="#e26f46" fill-rule="evenodd" fill-opacity="1" stroke="#000000" stroke-opacity="1" stroke-width="3.84"/>
<circle clip-path="url(#clip482)" cx="2539.73" cy="1499.64" r="14.4" fill="#e26f46" fill-rule="evenodd" fill-opacity="1" stroke="#000000" stroke-opacity="1" stroke-width="3.84"/>
<circle clip-path="url(#clip482)" cx="2590.24" cy="1441.83" r="14.4" fill="#e26f46" fill-rule="evenodd" fill-opacity="1" stroke="#000000" stroke-opacity="1" stroke-width="3.84"/>
<circle clip-path="url(#clip482)" cx="2640.76" cy="1504.48" r="14.4" fill="#e26f46" fill-rule="evenodd" fill-opacity="1" stroke="#000000" stroke-opacity="1" stroke-width="3.84"/>
<path clip-path="url(#clip480)" d="M199.247 258.993 L540.914 258.993 L540.914 103.473 L199.247 103.473  Z" fill="#ffffff" fill-rule="evenodd" fill-opacity="1"/>
<polyline clip-path="url(#clip480)" style="stroke:#000000; stroke-linecap:round; stroke-linejoin:round; stroke-width:4; stroke-opacity:1; fill:none" points="199.247,258.993 540.914,258.993 540.914,103.473 199.247,103.473 199.247,258.993 "/>
<polyline clip-path="url(#clip480)" style="stroke:#009af9; stroke-linecap:round; stroke-linejoin:round; stroke-width:4; stroke-opacity:0.3; fill:none" points="227.31,155.313 395.69,155.313 "/>
<path clip-path="url(#clip480)" d="M423.754 162.362 L423.754 146.667 L428.013 146.667 L428.013 162.2 Q428.013 165.88 429.448 167.732 Q430.883 169.561 433.754 169.561 Q437.203 169.561 439.193 167.362 Q441.207 165.163 441.207 161.366 L441.207 146.667 L445.467 146.667 L445.467 172.593 L441.207 172.593 L441.207 168.612 Q439.656 170.973 437.596 172.13 Q435.559 173.264 432.851 173.264 Q428.383 173.264 426.068 170.487 Q423.754 167.709 423.754 162.362 M434.471 146.042 L434.471 146.042 Z" fill="#000000" fill-rule="nonzero" fill-opacity="1" /><path clip-path="url(#clip480)" d="M453.846 136.575 L463.661 136.575 L463.661 139.885 L458.105 139.885 L458.105 175.533 L463.661 175.533 L463.661 178.843 L453.846 178.843 L453.846 136.575 Z" fill="#000000" fill-rule="nonzero" fill-opacity="1" /><path clip-path="url(#clip480)" d="M474.147 168.658 L481.786 168.658 L481.786 142.292 L473.476 143.959 L473.476 139.7 L481.739 138.033 L486.415 138.033 L486.415 168.658 L494.054 168.658 L494.054 172.593 L474.147 172.593 L474.147 168.658 Z" fill="#000000" fill-rule="nonzero" fill-opacity="1" /><path clip-path="url(#clip480)" d="M512.85 136.575 L512.85 178.843 L503.036 178.843 L503.036 175.533 L508.568 175.533 L508.568 139.885 L503.036 139.885 L503.036 136.575 L512.85 136.575 Z" fill="#000000" fill-rule="nonzero" fill-opacity="1" /><polyline clip-path="url(#clip480)" style="stroke:#e26f46; stroke-linecap:round; stroke-linejoin:round; stroke-width:4; stroke-opacity:0.3; fill:none" points="227.31,207.153 395.69,207.153 "/>
<path clip-path="url(#clip480)" d="M423.754 214.202 L423.754 198.507 L428.013 198.507 L428.013 214.04 Q428.013 217.72 429.448 219.572 Q430.883 221.401 433.754 221.401 Q437.203 221.401 439.193 219.202 Q441.207 217.003 441.207 213.206 L441.207 198.507 L445.467 198.507 L445.467 224.433 L441.207 224.433 L441.207 220.452 Q439.656 222.813 437.596 223.97 Q435.559 225.104 432.851 225.104 Q428.383 225.104 426.068 222.327 Q423.754 219.549 423.754 214.202 M434.471 197.882 L434.471 197.882 Z" fill="#000000" fill-rule="nonzero" fill-opacity="1" /><path clip-path="url(#clip480)" d="M453.846 188.415 L463.661 188.415 L463.661 191.725 L458.105 191.725 L458.105 227.373 L463.661 227.373 L463.661 230.683 L453.846 230.683 L453.846 188.415 Z" fill="#000000" fill-rule="nonzero" fill-opacity="1" /><path clip-path="url(#clip480)" d="M477.365 220.498 L493.684 220.498 L493.684 224.433 L471.74 224.433 L471.74 220.498 Q474.402 217.743 478.985 213.114 Q483.591 208.461 484.772 207.118 Q487.017 204.595 487.897 202.859 Q488.8 201.1 488.8 199.41 Q488.8 196.656 486.855 194.919 Q484.934 193.183 481.832 193.183 Q479.633 193.183 477.179 193.947 Q474.749 194.711 471.971 196.262 L471.971 191.54 Q474.795 190.406 477.249 189.827 Q479.702 189.248 481.739 189.248 Q487.11 189.248 490.304 191.933 Q493.499 194.619 493.499 199.109 Q493.499 201.239 492.689 203.16 Q491.901 205.058 489.795 207.651 Q489.216 208.322 486.114 211.54 Q483.013 214.734 477.365 220.498 Z" fill="#000000" fill-rule="nonzero" fill-opacity="1" /><path clip-path="url(#clip480)" d="M512.85 188.415 L512.85 230.683 L503.036 230.683 L503.036 227.373 L508.568 227.373 L508.568 191.725 L503.036 191.725 L503.036 188.415 L512.85 188.415 Z" fill="#000000" fill-rule="nonzero" fill-opacity="1" /></svg>
