<?xml version="1.0" encoding="utf-8"?>
<svg xmlns="http://www.w3.org/2000/svg" xmlns:xlink="http://www.w3.org/1999/xlink" width="672" height="480" viewBox="0 0 2688 1920">
<defs>
  <clipPath id="clip280">
    <rect x="0" y="0" width="2688" height="1920"/>
  </clipPath>
</defs>
<path clip-path="url(#clip280)" d="M0 1920 L2688 1920 L2688 -4.26326e-14 L0 -4.26326e-14  Z" fill="#ffffff" fill-rule="evenodd" fill-opacity="1"/>
<defs>
  <clipPath id="clip281">
    <rect x="537" y="0" width="1883" height="1883"/>
  </clipPath>
</defs>
<path clip-path="url(#clip280)" d="M173.737 1734.12 L2640.76 1734.12 L2640.76 47.2441 L173.737 47.2441  Z" fill="#ffffff" fill-rule="evenodd" fill-opacity="1"/>
<defs>
  <clipPath id="clip282">
    <rect x="173" y="47" width="2468" height="1688"/>
  </clipPath>
</defs>
<polyline clip-path="url(#clip282)" style="stroke:#000000; stroke-linecap:round; stroke-linejoin:round; stroke-width:2; stroke-opacity:0.1; fill:none" points="173.737,1734.12 173.737,47.2441 "/>
<polyline clip-path="url(#clip282)" style="stroke:#000000; stroke-linecap:round; stroke-linejoin:round; stroke-width:2; stroke-opacity:0.1; fill:none" points="667.141,1734.12 667.141,47.2441 "/>
<polyline clip-path="url(#clip282)" style="stroke:#000000; stroke-linecap:round; stroke-linejoin:round; stroke-width:2; stroke-opacity:0.1; fill:none" points="1160.54,1734.12 1160.54,47.2441 "/>
<polyline clip-path="url(#clip282)" style="stroke:#000000; stroke-linecap:round; stroke-linejoin:round; stroke-width:2; stroke-opacity:0.1; fill:none" points="1653.95,1734.12 1653.95,47.2441 "/>
<polyline clip-path="url(#clip282)" style="stroke:#000000; stroke-linecap:round; stroke-linejoin:round; stroke-width:2; stroke-opacity:0.1; fill:none" points="2147.35,1734.12 2147.35,47.2441 "/>
<polyline clip-path="url(#clip282)" style="stroke:#000000; stroke-linecap:round; stroke-linejoin:round; stroke-width:2; stroke-opacity:0.1; fill:none" points="2640.76,1734.12 2640.76,47.2441 "/>
<polyline clip-path="url(#clip280)" style="stroke:#000000; stroke-linecap:round; stroke-linejoin:round; stroke-width:4; stroke-opacity:1; fill:none" points="173.737,1734.12 2640.76,1734.12 "/>
<polyline clip-path="url(#clip280)" style="stroke:#000000; stroke-linecap:round; stroke-linejoin:round; stroke-width:4; stroke-opacity:1; fill:none" points="173.737,1734.12 173.737,1715.22 "/>
<polyline clip-path="url(#clip280)" style="stroke:#000000; stroke-linecap:round; stroke-linejoin:round; stroke-width:4; stroke-opacity:1; fill:none" points="667.141,1734.12 667.141,1715.22 "/>
<polyline clip-path="url(#clip280)" style="stroke:#000000; stroke-linecap:round; stroke-linejoin:round; stroke-width:4; stroke-opacity:1; fill:none" points="1160.54,1734.12 1160.54,1715.22 "/>
<polyline clip-path="url(#clip280)" style="stroke:#000000; stroke-linecap:round; stroke-linejoin:round; stroke-width:4; stroke-opacity:1; fill:none" points="1653.95,1734.12 1653.95,1715.22 "/>
<polyline clip-path="url(#clip280)" style="stroke:#000000; stroke-linecap:round; stroke-linejoin:round; stroke-width:4; stroke-opacity:1; fill:none" points="2147.35,1734.12 2147.35,1715.22 "/>
<polyline clip-path="url(#clip280)" style="stroke:#000000; stroke-linecap:round; stroke-linejoin:round; stroke-width:4; stroke-opacity:1; fill:none" points="2640.76,1734.12 2640.76,1715.22 "/>
<path clip-path="url(#clip280)" d="M173.737 1767.34 Q170.126 1767.34 168.298 1770.9 Q166.492 1774.45 166.492 1781.58 Q166.492 1788.68 168.298 1792.25 Q170.126 1795.79 173.737 1795.79 Q177.372 1795.79 179.177 1792.25 Q181.006 1788.68 181.006 1781.58 Q181.006 1774.45 179.177 1770.9 Q177.372 1767.34 173.737 1767.34 M173.737 1763.64 Q179.548 1763.64 182.603 1768.24 Q185.682 1772.83 185.682 1781.58 Q185.682 1790.3 182.603 1794.91 Q179.548 1799.49 173.737 1799.49 Q167.927 1799.49 164.849 1794.91 Q161.793 1790.3 161.793 1781.58 Q161.793 1772.83 164.849 1768.24 Q167.927 1763.64 173.737 1763.64 Z" fill="#000000" fill-rule="nonzero" fill-opacity="1" /><path clip-path="url(#clip280)" d="M657.523 1794.89 L665.162 1794.89 L665.162 1768.52 L656.852 1770.19 L656.852 1765.93 L665.116 1764.26 L669.792 1764.26 L669.792 1794.89 L677.43 1794.89 L677.43 1798.82 L657.523 1798.82 L657.523 1794.89 Z" fill="#000000" fill-rule="nonzero" fill-opacity="1" /><path clip-path="url(#clip280)" d="M1155.2 1794.89 L1171.52 1794.89 L1171.52 1798.82 L1149.57 1798.82 L1149.57 1794.89 Q1152.23 1792.13 1156.82 1787.5 Q1161.42 1782.85 1162.6 1781.51 Q1164.85 1778.98 1165.73 1777.25 Q1166.63 1775.49 1166.63 1773.8 Q1166.63 1771.04 1164.69 1769.31 Q1162.77 1767.57 1159.67 1767.57 Q1157.47 1767.57 1155.01 1768.34 Q1152.58 1769.1 1149.8 1770.65 L1149.8 1765.93 Q1152.63 1764.79 1155.08 1764.21 Q1157.54 1763.64 1159.57 1763.64 Q1164.94 1763.64 1168.14 1766.32 Q1171.33 1769.01 1171.33 1773.5 Q1171.33 1775.63 1170.52 1777.55 Q1169.73 1779.45 1167.63 1782.04 Q1167.05 1782.71 1163.95 1785.93 Q1160.85 1789.12 1155.2 1794.89 Z" fill="#000000" fill-rule="nonzero" fill-opacity="1" /><path clip-path="url(#clip280)" d="M1658.2 1780.19 Q1661.55 1780.9 1663.43 1783.17 Q1665.33 1785.44 1665.33 1788.77 Q1665.33 1793.89 1661.81 1796.69 Q1658.29 1799.49 1651.81 1799.49 Q1649.63 1799.49 1647.32 1799.05 Q1645.02 1798.64 1642.57 1797.78 L1642.57 1793.27 Q1644.52 1794.4 1646.83 1794.98 Q1649.15 1795.56 1651.67 1795.56 Q1656.07 1795.56 1658.36 1793.82 Q1660.67 1792.08 1660.67 1788.77 Q1660.67 1785.72 1658.52 1784.01 Q1656.39 1782.27 1652.57 1782.27 L1648.54 1782.27 L1648.54 1778.43 L1652.76 1778.43 Q1656.21 1778.43 1658.03 1777.06 Q1659.86 1775.67 1659.86 1773.08 Q1659.86 1770.42 1657.96 1769.01 Q1656.09 1767.57 1652.57 1767.57 Q1650.65 1767.57 1648.45 1767.99 Q1646.25 1768.4 1643.61 1769.28 L1643.61 1765.12 Q1646.27 1764.38 1648.59 1764.01 Q1650.93 1763.64 1652.99 1763.64 Q1658.31 1763.64 1661.41 1766.07 Q1664.52 1768.47 1664.52 1772.59 Q1664.52 1775.46 1662.87 1777.46 Q1661.23 1779.42 1658.2 1780.19 Z" fill="#000000" fill-rule="nonzero" fill-opacity="1" /><path clip-path="url(#clip280)" d="M2150.36 1768.34 L2138.56 1786.78 L2150.36 1786.78 L2150.36 1768.34 M2149.13 1764.26 L2155.01 1764.26 L2155.01 1786.78 L2159.94 1786.78 L2159.94 1790.67 L2155.01 1790.67 L2155.01 1798.82 L2150.36 1798.82 L2150.36 1790.67 L2134.76 1790.67 L2134.76 1786.16 L2149.13 1764.26 Z" fill="#000000" fill-rule="nonzero" fill-opacity="1" /><path clip-path="url(#clip280)" d="M2631.03 1764.26 L2649.39 1764.26 L2649.39 1768.2 L2635.32 1768.2 L2635.32 1776.67 Q2636.33 1776.32 2637.35 1776.16 Q2638.37 1775.97 2639.39 1775.97 Q2645.18 1775.97 2648.56 1779.15 Q2651.94 1782.32 2651.94 1787.73 Q2651.94 1793.31 2648.46 1796.41 Q2644.99 1799.49 2638.67 1799.49 Q2636.5 1799.49 2634.23 1799.12 Q2631.98 1798.75 2629.58 1798.01 L2629.58 1793.31 Q2631.66 1794.45 2633.88 1795 Q2636.1 1795.56 2638.58 1795.56 Q2642.58 1795.56 2644.92 1793.45 Q2647.26 1791.34 2647.26 1787.73 Q2647.26 1784.12 2644.92 1782.02 Q2642.58 1779.91 2638.58 1779.91 Q2636.71 1779.91 2634.83 1780.33 Q2632.98 1780.74 2631.03 1781.62 L2631.03 1764.26 Z" fill="#000000" fill-rule="nonzero" fill-opacity="1" /><path clip-path="url(#clip280)" d="M1406.31 1837.53 L1406.31 1847.65 L1418.37 1847.65 L1418.37 1852.2 L1406.31 1852.2 L1406.31 1871.56 Q1406.31 1875.92 1407.49 1877.16 Q1408.69 1878.4 1412.36 1878.4 L1418.37 1878.4 L1418.37 1883.3 L1412.36 1883.3 Q1405.58 1883.3 1403 1880.79 Q1400.42 1878.24 1400.42 1871.56 L1400.42 1852.2 L1396.12 1852.2 L1396.12 1847.65 L1400.42 1847.65 L1400.42 1837.53 L1406.31 1837.53 Z" fill="#000000" fill-rule="nonzero" fill-opacity="1" /><polyline clip-path="url(#clip282)" style="stroke:#000000; stroke-linecap:round; stroke-linejoin:round; stroke-width:2; stroke-opacity:0.1; fill:none" points="173.737,1686.45 2640.76,1686.45 "/>
<polyline clip-path="url(#clip282)" style="stroke:#000000; stroke-linecap:round; stroke-linejoin:round; stroke-width:2; stroke-opacity:0.1; fill:none" points="173.737,1150.28 2640.76,1150.28 "/>
<polyline clip-path="url(#clip282)" style="stroke:#000000; stroke-linecap:round; stroke-linejoin:round; stroke-width:2; stroke-opacity:0.1; fill:none" points="173.737,614.113 2640.76,614.113 "/>
<polyline clip-path="url(#clip282)" style="stroke:#000000; stroke-linecap:round; stroke-linejoin:round; stroke-width:2; stroke-opacity:0.1; fill:none" points="173.737,77.9451 2640.76,77.9451 "/>
<polyline clip-path="url(#clip280)" style="stroke:#000000; stroke-linecap:round; stroke-linejoin:round; stroke-width:4; stroke-opacity:1; fill:none" points="173.737,1734.12 173.737,47.2441 "/>
<polyline clip-path="url(#clip280)" style="stroke:#000000; stroke-linecap:round; stroke-linejoin:round; stroke-width:4; stroke-opacity:1; fill:none" points="173.737,1686.45 192.635,1686.45 "/>
<polyline clip-path="url(#clip280)" style="stroke:#000000; stroke-linecap:round; stroke-linejoin:round; stroke-width:4; stroke-opacity:1; fill:none" points="173.737,1150.28 192.635,1150.28 "/>
<polyline clip-path="url(#clip280)" style="stroke:#000000; stroke-linecap:round; stroke-linejoin:round; stroke-width:4; stroke-opacity:1; fill:none" points="173.737,614.113 192.635,614.113 "/>
<polyline clip-path="url(#clip280)" style="stroke:#000000; stroke-linecap:round; stroke-linejoin:round; stroke-width:4; stroke-opacity:1; fill:none" points="173.737,77.9451 192.635,77.9451 "/>
<path clip-path="url(#clip280)" d="M121.473 1672.25 Q117.862 1672.25 116.033 1675.81 Q114.228 1679.35 114.228 1686.48 Q114.228 1693.59 116.033 1697.15 Q117.862 1700.7 121.473 1700.7 Q125.107 1700.7 126.913 1697.15 Q128.742 1693.59 128.742 1686.48 Q128.742 1679.35 126.913 1675.81 Q125.107 1672.25 121.473 1672.25 M121.473 1668.54 Q127.283 1668.54 130.339 1673.15 Q133.417 1677.73 133.417 1686.48 Q133.417 1695.21 130.339 1699.82 Q127.283 1704.4 121.473 1704.4 Q115.663 1704.4 112.584 1699.82 Q109.529 1695.21 109.529 1686.48 Q109.529 1677.73 112.584 1673.15 Q115.663 1668.54 121.473 1668.54 Z" fill="#000000" fill-rule="nonzero" fill-opacity="1" /><path clip-path="url(#clip280)" d="M51.9595 1163.62 L59.5984 1163.62 L59.5984 1137.26 L51.2882 1138.93 L51.2882 1134.67 L59.5521 1133 L64.228 1133 L64.228 1163.62 L71.8668 1163.62 L71.8668 1167.56 L51.9595 1167.56 L51.9595 1163.62 Z" fill="#000000" fill-rule="nonzero" fill-opacity="1" /><path clip-path="url(#clip280)" d="M91.3112 1136.08 Q87.7001 1136.08 85.8714 1139.64 Q84.0658 1143.19 84.0658 1150.31 Q84.0658 1157.42 85.8714 1160.99 Q87.7001 1164.53 91.3112 1164.53 Q94.9454 1164.53 96.7509 1160.99 Q98.5796 1157.42 98.5796 1150.31 Q98.5796 1143.19 96.7509 1139.64 Q94.9454 1136.08 91.3112 1136.08 M91.3112 1132.38 Q97.1213 1132.38 100.177 1136.98 Q103.256 1141.56 103.256 1150.31 Q103.256 1159.04 100.177 1163.65 Q97.1213 1168.23 91.3112 1168.23 Q85.501 1168.23 82.4223 1163.65 Q79.3668 1159.04 79.3668 1150.31 Q79.3668 1141.56 82.4223 1136.98 Q85.501 1132.38 91.3112 1132.38 Z" fill="#000000" fill-rule="nonzero" fill-opacity="1" /><path clip-path="url(#clip280)" d="M121.473 1136.08 Q117.862 1136.08 116.033 1139.64 Q114.228 1143.19 114.228 1150.31 Q114.228 1157.42 116.033 1160.99 Q117.862 1164.53 121.473 1164.53 Q125.107 1164.53 126.913 1160.99 Q128.742 1157.42 128.742 1150.31 Q128.742 1143.19 126.913 1139.64 Q125.107 1136.08 121.473 1136.08 M121.473 1132.38 Q127.283 1132.38 130.339 1136.98 Q133.417 1141.56 133.417 1150.31 Q133.417 1159.04 130.339 1163.65 Q127.283 1168.23 121.473 1168.23 Q115.663 1168.23 112.584 1163.65 Q109.529 1159.04 109.529 1150.31 Q109.529 1141.56 112.584 1136.98 Q115.663 1132.38 121.473 1132.38 Z" fill="#000000" fill-rule="nonzero" fill-opacity="1" /><path clip-path="url(#clip280)" d="M55.1771 627.457 L71.4965 627.457 L71.4965 631.393 L49.5521 631.393 L49.5521 627.457 Q52.2141 624.703 56.7975 620.073 Q61.4039 615.42 62.5845 614.078 Q64.8298 611.555 65.7094 609.819 Q66.6122 608.059 66.6122 606.37 Q66.6122 603.615 64.6678 601.879 Q62.7465 600.143 59.6447 600.143 Q57.4456 600.143 54.9919 600.907 Q52.5614 601.671 49.7836 603.221 L49.7836 598.499 Q52.6077 597.365 55.0614 596.786 Q57.515 596.208 59.5521 596.208 Q64.9224 596.208 68.1168 598.893 Q71.3113 601.578 71.3113 606.069 Q71.3113 608.198 70.5011 610.12 Q69.7141 612.018 67.6076 614.61 Q67.0289 615.282 63.927 618.499 Q60.8252 621.694 55.1771 627.457 Z" fill="#000000" fill-rule="nonzero" fill-opacity="1" /><path clip-path="url(#clip280)" d="M91.3112 599.911 Q87.7001 599.911 85.8714 603.476 Q84.0658 607.018 84.0658 614.147 Q84.0658 621.254 85.8714 624.819 Q87.7001 628.36 91.3112 628.36 Q94.9454 628.36 96.7509 624.819 Q98.5796 621.254 98.5796 614.147 Q98.5796 607.018 96.7509 603.476 Q94.9454 599.911 91.3112 599.911 M91.3112 596.208 Q97.1213 596.208 100.177 600.814 Q103.256 605.397 103.256 614.147 Q103.256 622.874 100.177 627.481 Q97.1213 632.064 91.3112 632.064 Q85.501 632.064 82.4223 627.481 Q79.3668 622.874 79.3668 614.147 Q79.3668 605.397 82.4223 600.814 Q85.501 596.208 91.3112 596.208 Z" fill="#000000" fill-rule="nonzero" fill-opacity="1" /><path clip-path="url(#clip280)" d="M121.473 599.911 Q117.862 599.911 116.033 603.476 Q114.228 607.018 114.228 614.147 Q114.228 621.254 116.033 624.819 Q117.862 628.36 121.473 628.36 Q125.107 628.36 126.913 624.819 Q128.742 621.254 128.742 614.147 Q128.742 607.018 126.913 603.476 Q125.107 599.911 121.473 599.911 M121.473 596.208 Q127.283 596.208 130.339 600.814 Q133.417 605.397 133.417 614.147 Q133.417 622.874 130.339 627.481 Q127.283 632.064 121.473 632.064 Q115.663 632.064 112.584 627.481 Q109.529 622.874 109.529 614.147 Q109.529 605.397 112.584 600.814 Q115.663 596.208 121.473 596.208 Z" fill="#000000" fill-rule="nonzero" fill-opacity="1" /><path clip-path="url(#clip280)" d="M65.3159 76.5909 Q68.6724 77.3085 70.5474 79.577 Q72.4455 81.8455 72.4455 85.1788 Q72.4455 90.2945 68.927 93.0955 Q65.4085 95.8964 58.9271 95.8964 Q56.7512 95.8964 54.4364 95.4566 Q52.1447 95.0399 49.691 94.1834 L49.691 89.6696 Q51.6354 90.8038 53.9503 91.3825 Q56.2651 91.9612 58.7882 91.9612 Q63.1863 91.9612 65.478 90.2251 Q67.7928 88.489 67.7928 85.1788 Q67.7928 82.1233 65.64 80.4103 Q63.5104 78.6742 59.691 78.6742 L55.6632 78.6742 L55.6632 74.8317 L59.8761 74.8317 Q63.3252 74.8317 65.1539 73.4659 Q66.9826 72.0771 66.9826 69.4845 Q66.9826 66.8225 65.0845 65.4104 Q63.2095 63.9752 59.691 63.9752 Q57.7697 63.9752 55.5706 64.3919 Q53.3715 64.8086 50.7327 65.6882 L50.7327 61.5216 Q53.3947 60.7808 55.7095 60.4104 Q58.0475 60.0401 60.1076 60.0401 Q65.4317 60.0401 68.5335 62.4706 Q71.6353 64.878 71.6353 68.9984 Q71.6353 71.8687 69.9918 73.8594 Q68.3483 75.827 65.3159 76.5909 Z" fill="#000000" fill-rule="nonzero" fill-opacity="1" /><path clip-path="url(#clip280)" d="M91.3112 63.7438 Q87.7001 63.7438 85.8714 67.3086 Q84.0658 70.8502 84.0658 77.9798 Q84.0658 85.0862 85.8714 88.651 Q87.7001 92.1927 91.3112 92.1927 Q94.9454 92.1927 96.7509 88.651 Q98.5796 85.0862 98.5796 77.9798 Q98.5796 70.8502 96.7509 67.3086 Q94.9454 63.7438 91.3112 63.7438 M91.3112 60.0401 Q97.1213 60.0401 100.177 64.6465 Q103.256 69.2298 103.256 77.9798 Q103.256 86.7066 100.177 91.3131 Q97.1213 95.8964 91.3112 95.8964 Q85.501 95.8964 82.4223 91.3131 Q79.3668 86.7066 79.3668 77.9798 Q79.3668 69.2298 82.4223 64.6465 Q85.501 60.0401 91.3112 60.0401 Z" fill="#000000" fill-rule="nonzero" fill-opacity="1" /><path clip-path="url(#clip280)" d="M121.473 63.7438 Q117.862 63.7438 116.033 67.3086 Q114.228 70.8502 114.228 77.9798 Q114.228 85.0862 116.033 88.651 Q117.862 92.1927 121.473 92.1927 Q125.107 92.1927 126.913 88.651 Q128.742 85.0862 128.742 77.9798 Q128.742 70.8502 126.913 67.3086 Q125.107 63.7438 121.473 63.7438 M121.473 60.0401 Q127.283 60.0401 130.339 64.6465 Q133.417 69.2298 133.417 77.9798 Q133.417 86.7066 130.339 91.3131 Q127.283 95.8964 121.473 95.8964 Q115.663 95.8964 112.584 91.3131 Q109.529 86.7066 109.529 77.9798 Q109.529 69.2298 112.584 64.6465 Q115.663 60.0401 121.473 60.0401 Z" fill="#000000" fill-rule="nonzero" fill-opacity="1" /><polyline clip-path="url(#clip282)" style="stroke:#009af9; stroke-linecap:round; stroke-linejoin:round; stroke-width:4; stroke-opacity:1; fill:none" points="173.737,1675.72 223.078,1674.6 272.418,1673.35 321.759,1671.97 371.099,1670.45 420.439,1668.77 469.78,1666.91 519.12,1664.85 568.46,1662.58 617.801,1660.07 667.141,1657.3 716.481,1654.23 765.822,1650.84 815.162,1647.1 864.503,1642.96 913.843,1638.39 963.183,1633.33 1012.52,1627.75 1061.86,1621.58 1111.2,1614.75 1160.54,1607.21 1209.89,1598.88 1259.23,1589.67 1308.57,1579.49 1357.91,1568.24 1407.25,1555.81 1456.59,1542.07 1505.93,1526.89 1555.27,1510.11 1604.61,1491.56 1653.95,1471.07 1703.29,1448.41 1752.63,1423.38 1801.97,1395.71 1851.31,1365.13 1900.65,1331.34 1949.99,1294 1999.33,1252.73 2048.67,1207.11 2098.01,1156.69 2147.35,1100.98 2196.69,1039.41 2246.03,971.366 2295.37,896.166 2344.71,813.047 2394.05,721.18 2443.39,619.658 2492.73,507.463 2542.08,383.471 2591.42,246.436 2640.76,94.9858 "/>
<polyline clip-path="url(#clip282)" style="stroke:#e26f46; stroke-linecap:round; stroke-linejoin:round; stroke-width:4; stroke-opacity:1; fill:none" points="173.737,1675.72 223.078,1676.74 272.418,1677.67 321.759,1678.5 371.099,1679.26 420.439,1679.94 469.78,1680.56 519.12,1681.12 568.46,1681.63 617.801,1682.09 667.141,1682.5 716.481,1682.88 765.822,1683.22 815.162,1683.53 864.503,1683.8 913.843,1684.05 963.183,1684.28 1012.52,1684.49 1061.86,1684.68 1111.2,1684.84 1160.54,1685 1209.89,1685.13 1259.23,1685.26 1308.57,1685.37 1357.91,1685.47 1407.25,1685.57 1456.59,1685.65 1505.93,1685.73 1555.27,1685.8 1604.61,1685.86 1653.95,1685.91 1703.29,1685.96 1752.63,1686.01 1801.97,1686.05 1851.31,1686.09 1900.65,1686.12 1949.99,1686.15 1999.33,1686.18 2048.67,1686.21 2098.01,1686.23 2147.35,1686.25 2196.69,1686.27 2246.03,1686.29 2295.37,1686.3 2344.71,1686.32 2394.05,1686.33 2443.39,1686.34 2492.73,1686.35 2542.08,1686.36 2591.42,1686.37 2640.76,1686.38 "/>
<path clip-path="url(#clip280)" d="M255.971 258.993 L591.77 258.993 L591.77 103.473 L255.971 103.473  Z" fill="#ffffff" fill-rule="evenodd" fill-opacity="1"/>
<polyline clip-path="url(#clip280)" style="stroke:#000000; stroke-linecap:round; stroke-linejoin:round; stroke-width:4; stroke-opacity:1; fill:none" points="255.971,258.993 591.77,258.993 591.77,103.473 255.971,103.473 255.971,258.993 "/>
<polyline clip-path="url(#clip280)" style="stroke:#009af9; stroke-linecap:round; stroke-linejoin:round; stroke-width:4; stroke-opacity:1; fill:none" points="283.383,155.313 447.851,155.313 "/>
<path clip-path="url(#clip280)" d="M475.262 162.362 L475.262 146.667 L479.521 146.667 L479.521 162.2 Q479.521 165.88 480.956 167.732 Q482.391 169.561 485.262 169.561 Q488.711 169.561 490.702 167.362 Q492.716 165.163 492.716 161.366 L492.716 146.667 L496.975 146.667 L496.975 172.593 L492.716 172.593 L492.716 168.612 Q491.165 170.973 489.104 172.13 Q487.067 173.264 484.359 173.264 Q479.892 173.264 477.577 170.487 Q475.262 167.709 475.262 162.362 M485.979 146.042 L485.979 146.042 Z" fill="#000000" fill-rule="nonzero" fill-opacity="1" /><path clip-path="url(#clip280)" d="M505.354 136.575 L515.169 136.575 L515.169 139.885 L509.614 139.885 L509.614 175.533 L515.169 175.533 L515.169 178.843 L505.354 178.843 L505.354 136.575 Z" fill="#000000" fill-rule="nonzero" fill-opacity="1" /><path clip-path="url(#clip280)" d="M525.655 168.658 L533.294 168.658 L533.294 142.292 L524.984 143.959 L524.984 139.7 L533.248 138.033 L537.924 138.033 L537.924 168.658 L545.562 168.658 L545.562 172.593 L525.655 172.593 L525.655 168.658 Z" fill="#000000" fill-rule="nonzero" fill-opacity="1" /><path clip-path="url(#clip280)" d="M564.359 136.575 L564.359 178.843 L554.544 178.843 L554.544 175.533 L560.076 175.533 L560.076 139.885 L554.544 139.885 L554.544 136.575 L564.359 136.575 Z" fill="#000000" fill-rule="nonzero" fill-opacity="1" /><polyline clip-path="url(#clip280)" style="stroke:#e26f46; stroke-linecap:round; stroke-linejoin:round; stroke-width:4; stroke-opacity:1; fill:none" points="283.383,207.153 447.851,207.153 "/>
<path clip-path="url(#clip280)" d="M475.262 214.202 L475.262 198.507 L479.521 198.507 L479.521 214.04 Q479.521 217.72 480.956 219.572 Q482.391 221.401 485.262 221.401 Q488.711 221.401 490.702 219.202 Q492.716 217.003 492.716 213.206 L492.716 198.507 L496.975 198.507 L496.975 224.433 L492.716 224.433 L492.716 220.452 Q491.165 222.813 489.104 223.97 Q487.067 225.104 484.359 225.104 Q479.892 225.104 477.577 222.327 Q475.262 219.549 475.262 214.202 M485.979 197.882 L485.979 197.882 Z" fill="#000000" fill-rule="nonzero" fill-opacity="1" /><path clip-path="url(#clip280)" d="M505.354 188.415 L515.169 188.415 L515.169 191.725 L509.614 191.725 L509.614 227.373 L515.169 227.373 L515.169 230.683 L505.354 230.683 L505.354 188.415 Z" fill="#000000" fill-rule="nonzero" fill-opacity="1" /><path clip-path="url(#clip280)" d="M528.873 220.498 L545.192 220.498 L545.192 224.433 L523.248 224.433 L523.248 220.498 Q525.91 217.743 530.493 213.114 Q535.1 208.461 536.28 207.118 Q538.525 204.595 539.405 202.859 Q540.308 201.1 540.308 199.41 Q540.308 196.656 538.363 194.919 Q536.442 193.183 533.34 193.183 Q531.141 193.183 528.688 193.947 Q526.257 194.711 523.479 196.262 L523.479 191.54 Q526.303 190.406 528.757 189.827 Q531.211 189.248 533.248 189.248 Q538.618 189.248 541.812 191.933 Q545.007 194.619 545.007 199.109 Q545.007 201.239 544.197 203.16 Q543.41 205.058 541.303 207.651 Q540.725 208.322 537.623 211.54 Q534.521 214.734 528.873 220.498 Z" fill="#000000" fill-rule="nonzero" fill-opacity="1" /><path clip-path="url(#clip280)" d="M564.359 188.415 L564.359 230.683 L554.544 230.683 L554.544 227.373 L560.076 227.373 L560.076 191.725 L554.544 191.725 L554.544 188.415 L564.359 188.415 Z" fill="#000000" fill-rule="nonzero" fill-opacity="1" /></svg>
