<?xml version="1.0" encoding="utf-8"?>
<svg xmlns="http://www.w3.org/2000/svg" xmlns:xlink="http://www.w3.org/1999/xlink" width="672" height="480" viewBox="0 0 2688 1920">
<defs>
  <clipPath id="clip740">
    <rect x="0" y="0" width="2688" height="1920"/>
  </clipPath>
</defs>
<path clip-path="url(#clip740)" d="M0 1920 L2688 1920 L2688 -4.26326e-14 L0 -4.26326e-14  Z" fill="#ffffff" fill-rule="evenodd" fill-opacity="1"/>
<defs>
  <clipPath id="clip741">
    <rect x="537" y="0" width="1883" height="1883"/>
  </clipPath>
</defs>
<path clip-path="url(#clip740)" d="M197.999 1800.78 L2640.76 1800.78 L2640.76 127.792 L197.999 127.792  Z" fill="#ffffff" fill-rule="evenodd" fill-opacity="1"/>
<defs>
  <clipPath id="clip742">
    <rect x="197" y="127" width="2444" height="1674"/>
  </clipPath>
</defs>
<polyline clip-path="url(#clip742)" style="stroke:#000000; stroke-linecap:round; stroke-linejoin:round; stroke-width:2; stroke-opacity:0.1; fill:none" points="267.134,1800.78 267.134,127.792 "/>
<polyline clip-path="url(#clip742)" style="stroke:#000000; stroke-linecap:round; stroke-linejoin:round; stroke-width:2; stroke-opacity:0.1; fill:none" points="728.032,1800.78 728.032,127.792 "/>
<polyline clip-path="url(#clip742)" style="stroke:#000000; stroke-linecap:round; stroke-linejoin:round; stroke-width:2; stroke-opacity:0.1; fill:none" points="1188.93,1800.78 1188.93,127.792 "/>
<polyline clip-path="url(#clip742)" style="stroke:#000000; stroke-linecap:round; stroke-linejoin:round; stroke-width:2; stroke-opacity:0.1; fill:none" points="1649.83,1800.78 1649.83,127.792 "/>
<polyline clip-path="url(#clip742)" style="stroke:#000000; stroke-linecap:round; stroke-linejoin:round; stroke-width:2; stroke-opacity:0.1; fill:none" points="2110.72,1800.78 2110.72,127.792 "/>
<polyline clip-path="url(#clip742)" style="stroke:#000000; stroke-linecap:round; stroke-linejoin:round; stroke-width:2; stroke-opacity:0.1; fill:none" points="2571.62,1800.78 2571.62,127.792 "/>
<polyline clip-path="url(#clip740)" style="stroke:#000000; stroke-linecap:round; stroke-linejoin:round; stroke-width:4; stroke-opacity:1; fill:none" points="197.999,1800.78 2640.76,1800.78 "/>
<polyline clip-path="url(#clip740)" style="stroke:#000000; stroke-linecap:round; stroke-linejoin:round; stroke-width:4; stroke-opacity:1; fill:none" points="267.134,1800.78 267.134,1781.88 "/>
<polyline clip-path="url(#clip740)" style="stroke:#000000; stroke-linecap:round; stroke-linejoin:round; stroke-width:4; stroke-opacity:1; fill:none" points="728.032,1800.78 728.032,1781.88 "/>
<polyline clip-path="url(#clip740)" style="stroke:#000000; stroke-linecap:round; stroke-linejoin:round; stroke-width:4; stroke-opacity:1; fill:none" points="1188.93,1800.78 1188.93,1781.88 "/>
<polyline clip-path="url(#clip740)" style="stroke:#000000; stroke-linecap:round; stroke-linejoin:round; stroke-width:4; stroke-opacity:1; fill:none" points="1649.83,1800.78 1649.83,1781.88 "/>
<polyline clip-path="url(#clip740)" style="stroke:#000000; stroke-linecap:round; stroke-linejoin:round; stroke-width:4; stroke-opacity:1; fill:none" points="2110.72,1800.78 2110.72,1781.88 "/>
<polyline clip-path="url(#clip740)" style="stroke:#000000; stroke-linecap:round; stroke-linejoin:round; stroke-width:4; stroke-opacity:1; fill:none" points="2571.62,1800.78 2571.62,1781.88 "/>
<path clip-path="url(#clip740)" d="M267.134 1834 Q263.523 1834 261.694 1837.57 Q259.889 1841.11 259.889 1848.24 Q259.889 1855.34 261.694 1858.91 Q263.523 1862.45 267.134 1862.45 Q270.768 1862.45 272.574 1858.91 Q274.403 1855.34 274.403 1848.24 Q274.403 1841.11 272.574 1837.57 Q270.768 1834 267.134 1834 M267.134 1830.3 Q272.944 1830.3 276 1834.9 Q279.078 1839.49 279.078 1848.24 Q279.078 1856.96 276 1861.57 Q272.944 1866.15 267.134 1866.15 Q261.324 1866.15 258.245 1861.57 Q255.19 1856.96 255.19 1848.24 Q255.19 1839.49 258.245 1834.9 Q261.324 1830.3 267.134 1830.3 Z" fill="#000000" fill-rule="nonzero" fill-opacity="1" /><path clip-path="url(#clip740)" d="M718.413 1861.55 L726.052 1861.55 L726.052 1835.18 L717.742 1836.85 L717.742 1832.59 L726.006 1830.92 L730.682 1830.92 L730.682 1861.55 L738.321 1861.55 L738.321 1865.48 L718.413 1865.48 L718.413 1861.55 Z" fill="#000000" fill-rule="nonzero" fill-opacity="1" /><path clip-path="url(#clip740)" d="M1183.58 1861.55 L1199.9 1861.55 L1199.9 1865.48 L1177.96 1865.48 L1177.96 1861.55 Q1180.62 1858.79 1185.2 1854.16 Q1189.81 1849.51 1190.99 1848.17 Q1193.23 1845.65 1194.11 1843.91 Q1195.02 1842.15 1195.02 1840.46 Q1195.02 1837.71 1193.07 1835.97 Q1191.15 1834.23 1188.05 1834.23 Q1185.85 1834.23 1183.4 1835 Q1180.97 1835.76 1178.19 1837.31 L1178.19 1832.59 Q1181.01 1831.46 1183.47 1830.88 Q1185.92 1830.3 1187.96 1830.3 Q1193.33 1830.3 1196.52 1832.98 Q1199.72 1835.67 1199.72 1840.16 Q1199.72 1842.29 1198.91 1844.21 Q1198.12 1846.11 1196.01 1848.7 Q1195.43 1849.37 1192.33 1852.59 Q1189.23 1855.78 1183.58 1861.55 Z" fill="#000000" fill-rule="nonzero" fill-opacity="1" /><path clip-path="url(#clip740)" d="M1654.07 1846.85 Q1657.43 1847.57 1659.31 1849.84 Q1661.2 1852.1 1661.2 1855.44 Q1661.2 1860.55 1657.69 1863.35 Q1654.17 1866.15 1647.69 1866.15 Q1645.51 1866.15 1643.19 1865.71 Q1640.9 1865.3 1638.45 1864.44 L1638.45 1859.93 Q1640.39 1861.06 1642.71 1861.64 Q1645.02 1862.22 1647.55 1862.22 Q1651.94 1862.22 1654.24 1860.48 Q1656.55 1858.75 1656.55 1855.44 Q1656.55 1852.38 1654.4 1850.67 Q1652.27 1848.93 1648.45 1848.93 L1644.42 1848.93 L1644.42 1845.09 L1648.63 1845.09 Q1652.08 1845.09 1653.91 1843.72 Q1655.74 1842.34 1655.74 1839.74 Q1655.74 1837.08 1653.84 1835.67 Q1651.97 1834.23 1648.45 1834.23 Q1646.53 1834.23 1644.33 1834.65 Q1642.13 1835.07 1639.49 1835.95 L1639.49 1831.78 Q1642.15 1831.04 1644.47 1830.67 Q1646.81 1830.3 1648.87 1830.3 Q1654.19 1830.3 1657.29 1832.73 Q1660.39 1835.14 1660.39 1839.26 Q1660.39 1842.13 1658.75 1844.12 Q1657.11 1846.09 1654.07 1846.85 Z" fill="#000000" fill-rule="nonzero" fill-opacity="1" /><path clip-path="url(#clip740)" d="M2113.73 1835 L2101.93 1853.45 L2113.73 1853.45 L2113.73 1835 M2112.51 1830.92 L2118.39 1830.92 L2118.39 1853.45 L2123.32 1853.45 L2123.32 1857.34 L2118.39 1857.34 L2118.39 1865.48 L2113.73 1865.48 L2113.73 1857.34 L2098.13 1857.34 L2098.13 1852.82 L2112.51 1830.92 Z" fill="#000000" fill-rule="nonzero" fill-opacity="1" /><path clip-path="url(#clip740)" d="M2561.9 1830.92 L2580.26 1830.92 L2580.26 1834.86 L2566.18 1834.86 L2566.18 1843.33 Q2567.2 1842.98 2568.22 1842.82 Q2569.24 1842.64 2570.26 1842.64 Q2576.04 1842.64 2579.42 1845.81 Q2582.8 1848.98 2582.8 1854.4 Q2582.8 1859.97 2579.33 1863.08 Q2575.86 1866.15 2569.54 1866.15 Q2567.36 1866.15 2565.09 1865.78 Q2562.85 1865.41 2560.44 1864.67 L2560.44 1859.97 Q2562.52 1861.11 2564.75 1861.66 Q2566.97 1862.22 2569.45 1862.22 Q2573.45 1862.22 2575.79 1860.11 Q2578.13 1858.01 2578.13 1854.4 Q2578.13 1850.78 2575.79 1848.68 Q2573.45 1846.57 2569.45 1846.57 Q2567.57 1846.57 2565.7 1846.99 Q2563.84 1847.4 2561.9 1848.28 L2561.9 1830.92 Z" fill="#000000" fill-rule="nonzero" fill-opacity="1" /><polyline clip-path="url(#clip742)" style="stroke:#000000; stroke-linecap:round; stroke-linejoin:round; stroke-width:2; stroke-opacity:0.1; fill:none" points="197.999,1287.16 2640.76,1287.16 "/>
<polyline clip-path="url(#clip742)" style="stroke:#000000; stroke-linecap:round; stroke-linejoin:round; stroke-width:2; stroke-opacity:0.1; fill:none" points="197.999,588.008 2640.76,588.008 "/>
<polyline clip-path="url(#clip740)" style="stroke:#000000; stroke-linecap:round; stroke-linejoin:round; stroke-width:4; stroke-opacity:1; fill:none" points="197.999,1800.78 197.999,127.792 "/>
<polyline clip-path="url(#clip740)" style="stroke:#000000; stroke-linecap:round; stroke-linejoin:round; stroke-width:4; stroke-opacity:1; fill:none" points="197.999,1287.16 216.897,1287.16 "/>
<polyline clip-path="url(#clip740)" style="stroke:#000000; stroke-linecap:round; stroke-linejoin:round; stroke-width:4; stroke-opacity:1; fill:none" points="197.999,588.008 216.897,588.008 "/>
<path clip-path="url(#clip740)" d="M50.2234 1306.95 L57.8623 1306.95 L57.8623 1280.58 L49.5521 1282.25 L49.5521 1277.99 L57.816 1276.32 L62.4919 1276.32 L62.4919 1306.95 L70.1307 1306.95 L70.1307 1310.88 L50.2234 1310.88 L50.2234 1306.95 Z" fill="#000000" fill-rule="nonzero" fill-opacity="1" /><path clip-path="url(#clip740)" d="M89.5751 1279.4 Q85.964 1279.4 84.1353 1282.97 Q82.3297 1286.51 82.3297 1293.64 Q82.3297 1300.75 84.1353 1304.31 Q85.964 1307.85 89.5751 1307.85 Q93.2093 1307.85 95.0148 1304.31 Q96.8435 1300.75 96.8435 1293.64 Q96.8435 1286.51 95.0148 1282.97 Q93.2093 1279.4 89.5751 1279.4 M89.5751 1275.7 Q95.3852 1275.7 98.4408 1280.31 Q101.519 1284.89 101.519 1293.64 Q101.519 1302.37 98.4408 1306.97 Q95.3852 1311.56 89.5751 1311.56 Q83.7649 1311.56 80.6862 1306.97 Q77.6307 1302.37 77.6307 1293.64 Q77.6307 1284.89 80.6862 1280.31 Q83.7649 1275.7 89.5751 1275.7 Z" fill="#000000" fill-rule="nonzero" fill-opacity="1" /><path clip-path="url(#clip740)" d="M111.224 1257.9 Q108.29 1257.9 106.804 1260.79 Q105.337 1263.67 105.337 1269.46 Q105.337 1275.24 106.804 1278.13 Q108.29 1281.01 111.224 1281.01 Q114.177 1281.01 115.644 1278.13 Q117.13 1275.24 117.13 1269.46 Q117.13 1263.67 115.644 1260.79 Q114.177 1257.9 111.224 1257.9 M111.224 1254.89 Q115.945 1254.89 118.428 1258.63 Q120.929 1262.35 120.929 1269.46 Q120.929 1276.55 118.428 1280.3 Q115.945 1284.02 111.224 1284.02 Q106.503 1284.02 104.002 1280.3 Q101.519 1276.55 101.519 1269.46 Q101.519 1262.35 104.002 1258.63 Q106.503 1254.89 111.224 1254.89 Z" fill="#000000" fill-rule="nonzero" fill-opacity="1" /><path clip-path="url(#clip740)" d="M127.606 1278.7 L131.574 1278.7 L131.574 1283.47 L127.606 1283.47 L127.606 1278.7 Z" fill="#000000" fill-rule="nonzero" fill-opacity="1" /><path clip-path="url(#clip740)" d="M147.975 1257.9 Q145.041 1257.9 143.555 1260.79 Q142.088 1263.67 142.088 1269.46 Q142.088 1275.24 143.555 1278.13 Q145.041 1281.01 147.975 1281.01 Q150.927 1281.01 152.394 1278.13 Q153.88 1275.24 153.88 1269.46 Q153.88 1263.67 152.394 1260.79 Q150.927 1257.9 147.975 1257.9 M147.975 1254.89 Q152.695 1254.89 155.178 1258.63 Q157.679 1262.35 157.679 1269.46 Q157.679 1276.55 155.178 1280.3 Q152.695 1284.02 147.975 1284.02 Q143.254 1284.02 140.752 1280.3 Q138.27 1276.55 138.27 1269.46 Q138.27 1262.35 140.752 1258.63 Q143.254 1254.89 147.975 1254.89 Z" fill="#000000" fill-rule="nonzero" fill-opacity="1" /><path clip-path="url(#clip740)" d="M51.0322 607.8 L58.671 607.8 L58.671 581.435 L50.3609 583.101 L50.3609 578.842 L58.6247 577.175 L63.3006 577.175 L63.3006 607.8 L70.9395 607.8 L70.9395 611.735 L51.0322 611.735 L51.0322 607.8 Z" fill="#000000" fill-rule="nonzero" fill-opacity="1" /><path clip-path="url(#clip740)" d="M90.3838 580.254 Q86.7727 580.254 84.944 583.819 Q83.1385 587.36 83.1385 594.49 Q83.1385 601.597 84.944 605.161 Q86.7727 608.703 90.3838 608.703 Q94.018 608.703 95.8236 605.161 Q97.6523 601.597 97.6523 594.49 Q97.6523 587.36 95.8236 583.819 Q94.018 580.254 90.3838 580.254 M90.3838 576.55 Q96.1939 576.55 99.2495 581.157 Q102.328 585.74 102.328 594.49 Q102.328 603.217 99.2495 607.823 Q96.1939 612.407 90.3838 612.407 Q84.5736 612.407 81.495 607.823 Q78.4394 603.217 78.4394 594.49 Q78.4394 585.74 81.495 581.157 Q84.5736 576.55 90.3838 576.55 Z" fill="#000000" fill-rule="nonzero" fill-opacity="1" /><path clip-path="url(#clip740)" d="M112.033 558.746 Q109.099 558.746 107.613 561.643 Q106.146 564.52 106.146 570.313 Q106.146 576.087 107.613 578.984 Q109.099 581.861 112.033 581.861 Q114.986 581.861 116.453 578.984 Q117.939 576.087 117.939 570.313 Q117.939 564.52 116.453 561.643 Q114.986 558.746 112.033 558.746 M112.033 555.737 Q116.754 555.737 119.236 559.48 Q121.738 563.204 121.738 570.313 Q121.738 577.404 119.236 581.146 Q116.754 584.87 112.033 584.87 Q107.312 584.87 104.811 581.146 Q102.328 577.404 102.328 570.313 Q102.328 563.204 104.811 559.48 Q107.312 555.737 112.033 555.737 Z" fill="#000000" fill-rule="nonzero" fill-opacity="1" /><path clip-path="url(#clip740)" d="M128.415 579.548 L132.383 579.548 L132.383 584.325 L128.415 584.325 L128.415 579.548 Z" fill="#000000" fill-rule="nonzero" fill-opacity="1" /><path clip-path="url(#clip740)" d="M140.696 556.245 L155.611 556.245 L155.611 559.442 L144.175 559.442 L144.175 566.326 Q145.003 566.044 145.831 565.912 Q146.658 565.762 147.486 565.762 Q152.188 565.762 154.934 568.338 Q157.679 570.915 157.679 575.316 Q157.679 579.849 154.858 582.369 Q152.037 584.87 146.903 584.87 Q145.135 584.87 143.291 584.569 Q141.467 584.269 139.511 583.667 L139.511 579.849 Q141.204 580.77 143.009 581.222 Q144.815 581.673 146.827 581.673 Q150.081 581.673 151.981 579.962 Q153.88 578.25 153.88 575.316 Q153.88 572.382 151.981 570.67 Q150.081 568.959 146.827 568.959 Q145.304 568.959 143.78 569.298 Q142.276 569.636 140.696 570.351 L140.696 556.245 Z" fill="#000000" fill-rule="nonzero" fill-opacity="1" /><path clip-path="url(#clip740)" d="M1266.62 27.2059 L1274.07 27.2059 L1274.07 72.576 L1266.62 72.576 L1266.62 27.2059 M1266.62 9.54393 L1274.07 9.54393 L1274.07 18.9825 L1266.62 18.9825 L1266.62 9.54393 Z" fill="#000000" fill-rule="nonzero" fill-opacity="1" /><path clip-path="url(#clip740)" d="M1297.04 14.324 L1297.04 27.2059 L1312.39 27.2059 L1312.39 32.9987 L1297.04 32.9987 L1297.04 57.6282 Q1297.04 63.1779 1298.54 64.7578 Q1300.08 66.3376 1304.74 66.3376 L1312.39 66.3376 L1312.39 72.576 L1304.74 72.576 Q1296.11 72.576 1292.83 69.3758 Q1289.55 66.1351 1289.55 57.6282 L1289.55 32.9987 L1284.08 32.9987 L1284.08 27.2059 L1289.55 27.2059 L1289.55 14.324 L1297.04 14.324 Z" fill="#000000" fill-rule="nonzero" fill-opacity="1" /><path clip-path="url(#clip740)" d="M1323.25 62.2867 L1331.8 62.2867 L1331.8 72.576 L1323.25 72.576 L1323.25 62.2867 Z" fill="#000000" fill-rule="nonzero" fill-opacity="1" /><path clip-path="url(#clip740)" d="M1376.84 62.2867 L1385.39 62.2867 L1385.39 72.576 L1376.84 72.576 L1376.84 62.2867 M1376.84 29.6769 L1385.39 29.6769 L1385.39 39.9662 L1376.84 39.9662 L1376.84 29.6769 Z" fill="#000000" fill-rule="nonzero" fill-opacity="1" /><path clip-path="url(#clip740)" d="M1455.11 39.9662 Q1460.98 41.222 1464.26 45.1919 Q1467.58 49.1618 1467.58 54.9951 Q1467.58 63.9476 1461.43 68.8492 Q1455.27 73.7508 1443.93 73.7508 Q1440.12 73.7508 1436.07 72.9811 Q1432.06 72.2519 1427.76 70.7531 L1427.76 62.8538 Q1431.17 64.8388 1435.22 65.8515 Q1439.27 66.8642 1443.68 66.8642 Q1451.38 66.8642 1455.39 63.826 Q1459.44 60.7879 1459.44 54.9951 Q1459.44 49.6479 1455.67 46.6502 Q1451.95 43.612 1445.26 43.612 L1438.21 43.612 L1438.21 36.8875 L1445.59 36.8875 Q1451.62 36.8875 1454.82 34.4975 Q1458.02 32.067 1458.02 27.5299 Q1458.02 22.8714 1454.7 20.4004 Q1451.42 17.8888 1445.26 17.8888 Q1441.9 17.8888 1438.05 18.618 Q1434.2 19.3471 1429.59 20.8865 L1429.59 13.5948 Q1434.24 12.2985 1438.3 11.6504 Q1442.39 11.0023 1445.99 11.0023 Q1455.31 11.0023 1460.74 15.2557 Q1466.17 19.4686 1466.17 26.6793 Q1466.17 31.7024 1463.29 35.1862 Q1460.41 38.6294 1455.11 39.9662 Z" fill="#000000" fill-rule="nonzero" fill-opacity="1" /><path clip-path="url(#clip740)" d="M1500.6 17.4837 Q1494.28 17.4837 1491.08 23.7221 Q1487.92 29.92 1487.92 42.3968 Q1487.92 54.833 1491.08 61.0714 Q1494.28 67.2693 1500.6 67.2693 Q1506.96 67.2693 1510.12 61.0714 Q1513.32 54.833 1513.32 42.3968 Q1513.32 29.92 1510.12 23.7221 Q1506.96 17.4837 1500.6 17.4837 M1500.6 11.0023 Q1510.77 11.0023 1516.11 19.0636 Q1521.5 27.0843 1521.5 42.3968 Q1521.5 57.6687 1516.11 65.73 Q1510.77 73.7508 1500.6 73.7508 Q1490.43 73.7508 1485.04 65.73 Q1479.7 57.6687 1479.7 42.3968 Q1479.7 27.0843 1485.04 19.0636 Q1490.43 11.0023 1500.6 11.0023 Z" fill="#000000" fill-rule="nonzero" fill-opacity="1" /><path clip-path="url(#clip740)" d="M1537.3 65.6895 L1550.67 65.6895 L1550.67 19.5497 L1536.12 22.4663 L1536.12 15.0127 L1550.59 12.096 L1558.77 12.096 L1558.77 65.6895 L1572.14 65.6895 L1572.14 72.576 L1537.3 72.576 L1537.3 65.6895 Z" fill="#000000" fill-rule="nonzero" fill-opacity="1" /><circle clip-path="url(#clip742)" cx="267.134" cy="908.477" r="14.4" fill="#009af9" fill-rule="evenodd" fill-opacity="1" stroke="#000000" stroke-opacity="1" stroke-width="3.84"/>
<circle clip-path="url(#clip742)" cx="313.224" cy="781.829" r="14.4" fill="#009af9" fill-rule="evenodd" fill-opacity="1" stroke="#000000" stroke-opacity="1" stroke-width="3.84"/>
<circle clip-path="url(#clip742)" cx="359.314" cy="912.503" r="14.4" fill="#009af9" fill-rule="evenodd" fill-opacity="1" stroke="#000000" stroke-opacity="1" stroke-width="3.84"/>
<circle clip-path="url(#clip742)" cx="405.403" cy="1213.86" r="14.4" fill="#009af9" fill-rule="evenodd" fill-opacity="1" stroke="#000000" stroke-opacity="1" stroke-width="3.84"/>
<circle clip-path="url(#clip742)" cx="451.493" cy="794.811" r="14.4" fill="#009af9" fill-rule="evenodd" fill-opacity="1" stroke="#000000" stroke-opacity="1" stroke-width="3.84"/>
<circle clip-path="url(#clip742)" cx="497.583" cy="928.903" r="14.4" fill="#009af9" fill-rule="evenodd" fill-opacity="1" stroke="#000000" stroke-opacity="1" stroke-width="3.84"/>
<circle clip-path="url(#clip742)" cx="543.673" cy="644.184" r="14.4" fill="#009af9" fill-rule="evenodd" fill-opacity="1" stroke="#000000" stroke-opacity="1" stroke-width="3.84"/>
<circle clip-path="url(#clip742)" cx="589.762" cy="905.653" r="14.4" fill="#009af9" fill-rule="evenodd" fill-opacity="1" stroke="#000000" stroke-opacity="1" stroke-width="3.84"/>
<circle clip-path="url(#clip742)" cx="635.852" cy="759.811" r="14.4" fill="#009af9" fill-rule="evenodd" fill-opacity="1" stroke="#000000" stroke-opacity="1" stroke-width="3.84"/>
<circle clip-path="url(#clip742)" cx="681.942" cy="980.305" r="14.4" fill="#009af9" fill-rule="evenodd" fill-opacity="1" stroke="#000000" stroke-opacity="1" stroke-width="3.84"/>
<circle clip-path="url(#clip742)" cx="728.032" cy="904.333" r="14.4" fill="#009af9" fill-rule="evenodd" fill-opacity="1" stroke="#000000" stroke-opacity="1" stroke-width="3.84"/>
<circle clip-path="url(#clip742)" cx="774.121" cy="491.054" r="14.4" fill="#009af9" fill-rule="evenodd" fill-opacity="1" stroke="#000000" stroke-opacity="1" stroke-width="3.84"/>
<circle clip-path="url(#clip742)" cx="820.211" cy="559.44" r="14.4" fill="#009af9" fill-rule="evenodd" fill-opacity="1" stroke="#000000" stroke-opacity="1" stroke-width="3.84"/>
<circle clip-path="url(#clip742)" cx="866.301" cy="533.713" r="14.4" fill="#009af9" fill-rule="evenodd" fill-opacity="1" stroke="#000000" stroke-opacity="1" stroke-width="3.84"/>
<circle clip-path="url(#clip742)" cx="912.39" cy="179.592" r="14.4" fill="#009af9" fill-rule="evenodd" fill-opacity="1" stroke="#000000" stroke-opacity="1" stroke-width="3.84"/>
<circle clip-path="url(#clip742)" cx="958.48" cy="175.141" r="14.4" fill="#009af9" fill-rule="evenodd" fill-opacity="1" stroke="#000000" stroke-opacity="1" stroke-width="3.84"/>
<circle clip-path="url(#clip742)" cx="1004.57" cy="403.741" r="14.4" fill="#009af9" fill-rule="evenodd" fill-opacity="1" stroke="#000000" stroke-opacity="1" stroke-width="3.84"/>
<circle clip-path="url(#clip742)" cx="1050.66" cy="469.223" r="14.4" fill="#009af9" fill-rule="evenodd" fill-opacity="1" stroke="#000000" stroke-opacity="1" stroke-width="3.84"/>
<circle clip-path="url(#clip742)" cx="1096.75" cy="580.557" r="14.4" fill="#009af9" fill-rule="evenodd" fill-opacity="1" stroke="#000000" stroke-opacity="1" stroke-width="3.84"/>
<circle clip-path="url(#clip742)" cx="1142.84" cy="325.896" r="14.4" fill="#009af9" fill-rule="evenodd" fill-opacity="1" stroke="#000000" stroke-opacity="1" stroke-width="3.84"/>
<circle clip-path="url(#clip742)" cx="1188.93" cy="467.848" r="14.4" fill="#009af9" fill-rule="evenodd" fill-opacity="1" stroke="#000000" stroke-opacity="1" stroke-width="3.84"/>
<circle clip-path="url(#clip742)" cx="1235.02" cy="559.661" r="14.4" fill="#009af9" fill-rule="evenodd" fill-opacity="1" stroke="#000000" stroke-opacity="1" stroke-width="3.84"/>
<circle clip-path="url(#clip742)" cx="1281.11" cy="660.017" r="14.4" fill="#009af9" fill-rule="evenodd" fill-opacity="1" stroke="#000000" stroke-opacity="1" stroke-width="3.84"/>
<circle clip-path="url(#clip742)" cx="1327.2" cy="223.919" r="14.4" fill="#009af9" fill-rule="evenodd" fill-opacity="1" stroke="#000000" stroke-opacity="1" stroke-width="3.84"/>
<circle clip-path="url(#clip742)" cx="1373.29" cy="264.025" r="14.4" fill="#009af9" fill-rule="evenodd" fill-opacity="1" stroke="#000000" stroke-opacity="1" stroke-width="3.84"/>
<circle clip-path="url(#clip742)" cx="1419.38" cy="229.772" r="14.4" fill="#009af9" fill-rule="evenodd" fill-opacity="1" stroke="#000000" stroke-opacity="1" stroke-width="3.84"/>
<circle clip-path="url(#clip742)" cx="1465.47" cy="934.55" r="14.4" fill="#009af9" fill-rule="evenodd" fill-opacity="1" stroke="#000000" stroke-opacity="1" stroke-width="3.84"/>
<circle clip-path="url(#clip742)" cx="1511.56" cy="690.609" r="14.4" fill="#009af9" fill-rule="evenodd" fill-opacity="1" stroke="#000000" stroke-opacity="1" stroke-width="3.84"/>
<circle clip-path="url(#clip742)" cx="1557.65" cy="927.816" r="14.4" fill="#009af9" fill-rule="evenodd" fill-opacity="1" stroke="#000000" stroke-opacity="1" stroke-width="3.84"/>
<circle clip-path="url(#clip742)" cx="1603.74" cy="659.305" r="14.4" fill="#009af9" fill-rule="evenodd" fill-opacity="1" stroke="#000000" stroke-opacity="1" stroke-width="3.84"/>
<circle clip-path="url(#clip742)" cx="1649.83" cy="961.572" r="14.4" fill="#009af9" fill-rule="evenodd" fill-opacity="1" stroke="#000000" stroke-opacity="1" stroke-width="3.84"/>
<circle clip-path="url(#clip742)" cx="1695.92" cy="1133.5" r="14.4" fill="#009af9" fill-rule="evenodd" fill-opacity="1" stroke="#000000" stroke-opacity="1" stroke-width="3.84"/>
<circle clip-path="url(#clip742)" cx="1742.01" cy="893.903" r="14.4" fill="#009af9" fill-rule="evenodd" fill-opacity="1" stroke="#000000" stroke-opacity="1" stroke-width="3.84"/>
<circle clip-path="url(#clip742)" cx="1788.1" cy="579.019" r="14.4" fill="#009af9" fill-rule="evenodd" fill-opacity="1" stroke="#000000" stroke-opacity="1" stroke-width="3.84"/>
<circle clip-path="url(#clip742)" cx="1834.19" cy="1170.67" r="14.4" fill="#009af9" fill-rule="evenodd" fill-opacity="1" stroke="#000000" stroke-opacity="1" stroke-width="3.84"/>
<circle clip-path="url(#clip742)" cx="1880.28" cy="836.562" r="14.4" fill="#009af9" fill-rule="evenodd" fill-opacity="1" stroke="#000000" stroke-opacity="1" stroke-width="3.84"/>
<circle clip-path="url(#clip742)" cx="1926.36" cy="661.915" r="14.4" fill="#009af9" fill-rule="evenodd" fill-opacity="1" stroke="#000000" stroke-opacity="1" stroke-width="3.84"/>
<circle clip-path="url(#clip742)" cx="1972.45" cy="859.803" r="14.4" fill="#009af9" fill-rule="evenodd" fill-opacity="1" stroke="#000000" stroke-opacity="1" stroke-width="3.84"/>
<circle clip-path="url(#clip742)" cx="2018.54" cy="871.044" r="14.4" fill="#009af9" fill-rule="evenodd" fill-opacity="1" stroke="#000000" stroke-opacity="1" stroke-width="3.84"/>
<circle clip-path="url(#clip742)" cx="2064.63" cy="879.544" r="14.4" fill="#009af9" fill-rule="evenodd" fill-opacity="1" stroke="#000000" stroke-opacity="1" stroke-width="3.84"/>
<circle clip-path="url(#clip742)" cx="2110.72" cy="567.7" r="14.4" fill="#009af9" fill-rule="evenodd" fill-opacity="1" stroke="#000000" stroke-opacity="1" stroke-width="3.84"/>
<circle clip-path="url(#clip742)" cx="2156.81" cy="704.906" r="14.4" fill="#009af9" fill-rule="evenodd" fill-opacity="1" stroke="#000000" stroke-opacity="1" stroke-width="3.84"/>
<circle clip-path="url(#clip742)" cx="2202.9" cy="547.722" r="14.4" fill="#009af9" fill-rule="evenodd" fill-opacity="1" stroke="#000000" stroke-opacity="1" stroke-width="3.84"/>
<circle clip-path="url(#clip742)" cx="2248.99" cy="689.093" r="14.4" fill="#009af9" fill-rule="evenodd" fill-opacity="1" stroke="#000000" stroke-opacity="1" stroke-width="3.84"/>
<circle clip-path="url(#clip742)" cx="2295.08" cy="449.921" r="14.4" fill="#009af9" fill-rule="evenodd" fill-opacity="1" stroke="#000000" stroke-opacity="1" stroke-width="3.84"/>
<circle clip-path="url(#clip742)" cx="2341.17" cy="383.014" r="14.4" fill="#009af9" fill-rule="evenodd" fill-opacity="1" stroke="#000000" stroke-opacity="1" stroke-width="3.84"/>
<circle clip-path="url(#clip742)" cx="2387.26" cy="578.892" r="14.4" fill="#009af9" fill-rule="evenodd" fill-opacity="1" stroke="#000000" stroke-opacity="1" stroke-width="3.84"/>
<circle clip-path="url(#clip742)" cx="2433.35" cy="245.854" r="14.4" fill="#009af9" fill-rule="evenodd" fill-opacity="1" stroke="#000000" stroke-opacity="1" stroke-width="3.84"/>
<circle clip-path="url(#clip742)" cx="2479.44" cy="356.667" r="14.4" fill="#009af9" fill-rule="evenodd" fill-opacity="1" stroke="#000000" stroke-opacity="1" stroke-width="3.84"/>
<circle clip-path="url(#clip742)" cx="2525.53" cy="434.588" r="14.4" fill="#009af9" fill-rule="evenodd" fill-opacity="1" stroke="#000000" stroke-opacity="1" stroke-width="3.84"/>
<circle clip-path="url(#clip742)" cx="2571.62" cy="233.137" r="14.4" fill="#009af9" fill-rule="evenodd" fill-opacity="1" stroke="#000000" stroke-opacity="1" stroke-width="3.84"/>
<circle clip-path="url(#clip742)" cx="267.134" cy="694.905" r="14.4" fill="#e26f46" fill-rule="evenodd" fill-opacity="1" stroke="#000000" stroke-opacity="1" stroke-width="3.84"/>
<circle clip-path="url(#clip742)" cx="313.224" cy="565.583" r="14.4" fill="#e26f46" fill-rule="evenodd" fill-opacity="1" stroke="#000000" stroke-opacity="1" stroke-width="3.84"/>
<circle clip-path="url(#clip742)" cx="359.314" cy="782.864" r="14.4" fill="#e26f46" fill-rule="evenodd" fill-opacity="1" stroke="#000000" stroke-opacity="1" stroke-width="3.84"/>
<circle clip-path="url(#clip742)" cx="405.403" cy="1450.15" r="14.4" fill="#e26f46" fill-rule="evenodd" fill-opacity="1" stroke="#000000" stroke-opacity="1" stroke-width="3.84"/>
<circle clip-path="url(#clip742)" cx="451.493" cy="1289.73" r="14.4" fill="#e26f46" fill-rule="evenodd" fill-opacity="1" stroke="#000000" stroke-opacity="1" stroke-width="3.84"/>
<circle clip-path="url(#clip742)" cx="497.583" cy="1092.04" r="14.4" fill="#e26f46" fill-rule="evenodd" fill-opacity="1" stroke="#000000" stroke-opacity="1" stroke-width="3.84"/>
<circle clip-path="url(#clip742)" cx="543.673" cy="1206.01" r="14.4" fill="#e26f46" fill-rule="evenodd" fill-opacity="1" stroke="#000000" stroke-opacity="1" stroke-width="3.84"/>
<circle clip-path="url(#clip742)" cx="589.762" cy="1289.48" r="14.4" fill="#e26f46" fill-rule="evenodd" fill-opacity="1" stroke="#000000" stroke-opacity="1" stroke-width="3.84"/>
<circle clip-path="url(#clip742)" cx="635.852" cy="1557.8" r="14.4" fill="#e26f46" fill-rule="evenodd" fill-opacity="1" stroke="#000000" stroke-opacity="1" stroke-width="3.84"/>
<circle clip-path="url(#clip742)" cx="681.942" cy="1366.7" r="14.4" fill="#e26f46" fill-rule="evenodd" fill-opacity="1" stroke="#000000" stroke-opacity="1" stroke-width="3.84"/>
<circle clip-path="url(#clip742)" cx="728.032" cy="1684.37" r="14.4" fill="#e26f46" fill-rule="evenodd" fill-opacity="1" stroke="#000000" stroke-opacity="1" stroke-width="3.84"/>
<circle clip-path="url(#clip742)" cx="774.121" cy="1504.73" r="14.4" fill="#e26f46" fill-rule="evenodd" fill-opacity="1" stroke="#000000" stroke-opacity="1" stroke-width="3.84"/>
<circle clip-path="url(#clip742)" cx="820.211" cy="1548.28" r="14.4" fill="#e26f46" fill-rule="evenodd" fill-opacity="1" stroke="#000000" stroke-opacity="1" stroke-width="3.84"/>
<circle clip-path="url(#clip742)" cx="866.301" cy="1753.43" r="14.4" fill="#e26f46" fill-rule="evenodd" fill-opacity="1" stroke="#000000" stroke-opacity="1" stroke-width="3.84"/>
<circle clip-path="url(#clip742)" cx="912.39" cy="1620.22" r="14.4" fill="#e26f46" fill-rule="evenodd" fill-opacity="1" stroke="#000000" stroke-opacity="1" stroke-width="3.84"/>
<circle clip-path="url(#clip742)" cx="958.48" cy="1514.87" r="14.4" fill="#e26f46" fill-rule="evenodd" fill-opacity="1" stroke="#000000" stroke-opacity="1" stroke-width="3.84"/>
<circle clip-path="url(#clip742)" cx="1004.57" cy="1224.39" r="14.4" fill="#e26f46" fill-rule="evenodd" fill-opacity="1" stroke="#000000" stroke-opacity="1" stroke-width="3.84"/>
<circle clip-path="url(#clip742)" cx="1050.66" cy="1272.16" r="14.4" fill="#e26f46" fill-rule="evenodd" fill-opacity="1" stroke="#000000" stroke-opacity="1" stroke-width="3.84"/>
<circle clip-path="url(#clip742)" cx="1096.75" cy="1115.34" r="14.4" fill="#e26f46" fill-rule="evenodd" fill-opacity="1" stroke="#000000" stroke-opacity="1" stroke-width="3.84"/>
<circle clip-path="url(#clip742)" cx="1142.84" cy="1030.64" r="14.4" fill="#e26f46" fill-rule="evenodd" fill-opacity="1" stroke="#000000" stroke-opacity="1" stroke-width="3.84"/>
<circle clip-path="url(#clip742)" cx="1188.93" cy="1304.83" r="14.4" fill="#e26f46" fill-rule="evenodd" fill-opacity="1" stroke="#000000" stroke-opacity="1" stroke-width="3.84"/>
<circle clip-path="url(#clip742)" cx="1235.02" cy="702.305" r="14.4" fill="#e26f46" fill-rule="evenodd" fill-opacity="1" stroke="#000000" stroke-opacity="1" stroke-width="3.84"/>
<circle clip-path="url(#clip742)" cx="1281.11" cy="898.513" r="14.4" fill="#e26f46" fill-rule="evenodd" fill-opacity="1" stroke="#000000" stroke-opacity="1" stroke-width="3.84"/>
<circle clip-path="url(#clip742)" cx="1327.2" cy="829.526" r="14.4" fill="#e26f46" fill-rule="evenodd" fill-opacity="1" stroke="#000000" stroke-opacity="1" stroke-width="3.84"/>
<circle clip-path="url(#clip742)" cx="1373.29" cy="752.933" r="14.4" fill="#e26f46" fill-rule="evenodd" fill-opacity="1" stroke="#000000" stroke-opacity="1" stroke-width="3.84"/>
<circle clip-path="url(#clip742)" cx="1419.38" cy="665.594" r="14.4" fill="#e26f46" fill-rule="evenodd" fill-opacity="1" stroke="#000000" stroke-opacity="1" stroke-width="3.84"/>
<circle clip-path="url(#clip742)" cx="1465.47" cy="553.265" r="14.4" fill="#e26f46" fill-rule="evenodd" fill-opacity="1" stroke="#000000" stroke-opacity="1" stroke-width="3.84"/>
<circle clip-path="url(#clip742)" cx="1511.56" cy="691.147" r="14.4" fill="#e26f46" fill-rule="evenodd" fill-opacity="1" stroke="#000000" stroke-opacity="1" stroke-width="3.84"/>
<circle clip-path="url(#clip742)" cx="1557.65" cy="609.039" r="14.4" fill="#e26f46" fill-rule="evenodd" fill-opacity="1" stroke="#000000" stroke-opacity="1" stroke-width="3.84"/>
<circle clip-path="url(#clip742)" cx="1603.74" cy="891.285" r="14.4" fill="#e26f46" fill-rule="evenodd" fill-opacity="1" stroke="#000000" stroke-opacity="1" stroke-width="3.84"/>
<circle clip-path="url(#clip742)" cx="1649.83" cy="951.058" r="14.4" fill="#e26f46" fill-rule="evenodd" fill-opacity="1" stroke="#000000" stroke-opacity="1" stroke-width="3.84"/>
<circle clip-path="url(#clip742)" cx="1695.92" cy="788.638" r="14.4" fill="#e26f46" fill-rule="evenodd" fill-opacity="1" stroke="#000000" stroke-opacity="1" stroke-width="3.84"/>
<circle clip-path="url(#clip742)" cx="1742.01" cy="815.118" r="14.4" fill="#e26f46" fill-rule="evenodd" fill-opacity="1" stroke="#000000" stroke-opacity="1" stroke-width="3.84"/>
<circle clip-path="url(#clip742)" cx="1788.1" cy="1290.46" r="14.4" fill="#e26f46" fill-rule="evenodd" fill-opacity="1" stroke="#000000" stroke-opacity="1" stroke-width="3.84"/>
<circle clip-path="url(#clip742)" cx="1834.19" cy="1024.57" r="14.4" fill="#e26f46" fill-rule="evenodd" fill-opacity="1" stroke="#000000" stroke-opacity="1" stroke-width="3.84"/>
<circle clip-path="url(#clip742)" cx="1880.28" cy="952.307" r="14.4" fill="#e26f46" fill-rule="evenodd" fill-opacity="1" stroke="#000000" stroke-opacity="1" stroke-width="3.84"/>
<circle clip-path="url(#clip742)" cx="1926.36" cy="902.438" r="14.4" fill="#e26f46" fill-rule="evenodd" fill-opacity="1" stroke="#000000" stroke-opacity="1" stroke-width="3.84"/>
<circle clip-path="url(#clip742)" cx="1972.45" cy="1371.31" r="14.4" fill="#e26f46" fill-rule="evenodd" fill-opacity="1" stroke="#000000" stroke-opacity="1" stroke-width="3.84"/>
<circle clip-path="url(#clip742)" cx="2018.54" cy="1439.13" r="14.4" fill="#e26f46" fill-rule="evenodd" fill-opacity="1" stroke="#000000" stroke-opacity="1" stroke-width="3.84"/>
<circle clip-path="url(#clip742)" cx="2064.63" cy="974.959" r="14.4" fill="#e26f46" fill-rule="evenodd" fill-opacity="1" stroke="#000000" stroke-opacity="1" stroke-width="3.84"/>
<circle clip-path="url(#clip742)" cx="2110.72" cy="1462.92" r="14.4" fill="#e26f46" fill-rule="evenodd" fill-opacity="1" stroke="#000000" stroke-opacity="1" stroke-width="3.84"/>
<circle clip-path="url(#clip742)" cx="2156.81" cy="1469.32" r="14.4" fill="#e26f46" fill-rule="evenodd" fill-opacity="1" stroke="#000000" stroke-opacity="1" stroke-width="3.84"/>
<circle clip-path="url(#clip742)" cx="2202.9" cy="1474.47" r="14.4" fill="#e26f46" fill-rule="evenodd" fill-opacity="1" stroke="#000000" stroke-opacity="1" stroke-width="3.84"/>
<circle clip-path="url(#clip742)" cx="2248.99" cy="1541.39" r="14.4" fill="#e26f46" fill-rule="evenodd" fill-opacity="1" stroke="#000000" stroke-opacity="1" stroke-width="3.84"/>
<circle clip-path="url(#clip742)" cx="2295.08" cy="1564.53" r="14.4" fill="#e26f46" fill-rule="evenodd" fill-opacity="1" stroke="#000000" stroke-opacity="1" stroke-width="3.84"/>
<circle clip-path="url(#clip742)" cx="2341.17" cy="1540.31" r="14.4" fill="#e26f46" fill-rule="evenodd" fill-opacity="1" stroke="#000000" stroke-opacity="1" stroke-width="3.84"/>
<circle clip-path="url(#clip742)" cx="2387.26" cy="1341.56" r="14.4" fill="#e26f46" fill-rule="evenodd" fill-opacity="1" stroke="#000000" stroke-opacity="1" stroke-width="3.84"/>
<circle clip-path="url(#clip742)" cx="2433.35" cy="1181.44" r="14.4" fill="#e26f46" fill-rule="evenodd" fill-opacity="1" stroke="#000000" stroke-opacity="1" stroke-width="3.84"/>
<circle clip-path="url(#clip742)" cx="2479.44" cy="1206.56" r="14.4" fill="#e26f46" fill-rule="evenodd" fill-opacity="1" stroke="#000000" stroke-opacity="1" stroke-width="3.84"/>
<circle clip-path="url(#clip742)" cx="2525.53" cy="1104.11" r="14.4" fill="#e26f46" fill-rule="evenodd" fill-opacity="1" stroke="#000000" stroke-opacity="1" stroke-width="3.84"/>
<circle clip-path="url(#clip742)" cx="2571.62" cy="1215.98" r="14.4" fill="#e26f46" fill-rule="evenodd" fill-opacity="1" stroke="#000000" stroke-opacity="1" stroke-width="3.84"/>
<polyline clip-path="url(#clip742)" style="stroke:#009af9; stroke-linecap:round; stroke-linejoin:round; stroke-width:4; stroke-opacity:1; fill:none" points="267.134,866.227 313.224,906.553 359.314,932.809 405.403,945.101 451.493,944.283 497.583,931.653 543.673,908.734 589.762,877.133 635.852,838.461 681.942,794.301 728.032,746.211 774.121,695.748 820.211,644.516 866.301,594.23 912.39,546.794 958.48,504.379 1004.57,469.486 1050.66,444.94 1096.75,433.74 1142.84,438.641 1188.93,461.459 1235.02,502.198 1281.11,558.415 1327.2,625.281 1373.29,696.495 1419.38,765.618 1465.47,827.23 1511.56,877.531 1557.65,914.405 1603.74,937.145 1649.83,946.077 1695.92,942.19 1742.01,926.856 1788.1,901.628 1834.19,868.119 1880.28,827.936 1926.36,782.655 1972.45,733.829 2018.54,683.021 2064.63,631.859 2110.72,582.095 2156.81,535.691 2202.9,494.898 2248.99,462.302 2295.08,440.795 2341.17,433.361 2387.26,442.601 2433.35,469.962 2479.44,514.877 2525.53,574.27 2571.62,642.834 "/>
<polyline clip-path="url(#clip742)" style="stroke:#e26f46; stroke-linecap:round; stroke-linejoin:round; stroke-width:4; stroke-opacity:1; fill:none" points="267.134,866.227 313.224,917.79 359.314,975.825 405.403,1037.44 451.493,1100.08 497.583,1161.47 543.673,1219.53 589.762,1272.3 635.852,1317.9 681.942,1354.5 728.032,1380.34 774.121,1393.73 820.211,1393.18 866.301,1377.5 912.39,1345.99 958.48,1298.75 1004.57,1237 1050.66,1163.41 1096.75,1082.38 1142.84,999.949 1188.93,923.22 1235.02,859.208 1281.11,813.422 1327.2,788.808 1373.29,785.532 1419.38,801.58 1465.47,833.707 1511.56,878.266 1557.65,931.729 1603.74,990.91 1649.83,1053 1695.92,1115.54 1742.01,1176.29 1788.1,1233.22 1834.19,1284.38 1880.28,1327.91 1926.36,1362 1972.45,1384.89 2018.54,1394.95 2064.63,1390.74 2110.72,1371.16 2156.81,1335.69 2202.9,1284.68 2248.99,1219.68 2295.08,1143.76 2341.17,1061.76 2387.26,980.06 2433.35,905.871 2479.44,845.962 2525.53,805.275 2571.62,786.049 "/>
<path clip-path="url(#clip740)" d="M279.425 442.758 L1200.5 442.758 L1200.5 183.558 L279.425 183.558  Z" fill="#ffffff" fill-rule="evenodd" fill-opacity="1"/>
<polyline clip-path="url(#clip740)" style="stroke:#000000; stroke-linecap:round; stroke-linejoin:round; stroke-width:4; stroke-opacity:1; fill:none" points="279.425,442.758 1200.5,442.758 1200.5,183.558 279.425,183.558 279.425,442.758 "/>
<circle clip-path="url(#clip740)" cx="387.992" cy="235.398" r="20.48" fill="#009af9" fill-rule="evenodd" fill-opacity="1" stroke="#000000" stroke-opacity="1" stroke-width="5.46133"/>
<path clip-path="url(#clip740)" d="M501.234 221.961 L501.234 234.947 L507.114 234.947 Q510.378 234.947 512.16 233.257 Q513.943 231.567 513.943 228.442 Q513.943 225.341 512.16 223.651 Q510.378 221.961 507.114 221.961 L501.234 221.961 M496.559 218.118 L507.114 218.118 Q512.924 218.118 515.887 220.757 Q518.873 223.373 518.873 228.442 Q518.873 233.558 515.887 236.174 Q512.924 238.79 507.114 238.79 L501.234 238.79 L501.234 252.678 L496.559 252.678 L496.559 218.118 Z" fill="#000000" fill-rule="nonzero" fill-opacity="1" /><path clip-path="url(#clip740)" d="M539.151 230.734 Q538.433 230.317 537.577 230.132 Q536.744 229.924 535.725 229.924 Q532.114 229.924 530.169 232.285 Q528.248 234.623 528.248 239.021 L528.248 252.678 L523.966 252.678 L523.966 226.753 L528.248 226.753 L528.248 230.78 Q529.591 228.419 531.744 227.285 Q533.896 226.128 536.975 226.128 Q537.415 226.128 537.947 226.197 Q538.48 226.243 539.128 226.359 L539.151 230.734 Z" fill="#000000" fill-rule="nonzero" fill-opacity="1" /><path clip-path="url(#clip740)" d="M564.753 238.651 L564.753 240.734 L545.169 240.734 Q545.447 245.132 547.808 247.447 Q550.193 249.739 554.429 249.739 Q556.882 249.739 559.174 249.137 Q561.489 248.535 563.757 247.331 L563.757 251.359 Q561.466 252.331 559.058 252.84 Q556.651 253.35 554.174 253.35 Q547.97 253.35 544.336 249.739 Q540.725 246.127 540.725 239.97 Q540.725 233.604 544.151 229.878 Q547.6 226.128 553.433 226.128 Q558.665 226.128 561.697 229.507 Q564.753 232.864 564.753 238.651 M560.493 237.401 Q560.447 233.905 558.526 231.822 Q556.628 229.739 553.48 229.739 Q549.915 229.739 547.762 231.753 Q545.632 233.766 545.308 237.424 L560.493 237.401 Z" fill="#000000" fill-rule="nonzero" fill-opacity="1" /><path clip-path="url(#clip740)" d="M582.53 255.086 Q580.725 259.715 579.012 261.127 Q577.299 262.539 574.429 262.539 L571.026 262.539 L571.026 258.975 L573.526 258.975 Q575.285 258.975 576.257 258.141 Q577.229 257.308 578.41 254.206 L579.174 252.262 L568.688 226.753 L573.202 226.753 L581.303 247.03 L589.405 226.753 L593.919 226.753 L582.53 255.086 Z" fill="#000000" fill-rule="nonzero" fill-opacity="1" /><path clip-path="url(#clip740)" d="M626.65 239.646 Q621.488 239.646 619.498 240.827 Q617.507 242.007 617.507 244.854 Q617.507 247.123 618.988 248.465 Q620.493 249.785 623.063 249.785 Q626.604 249.785 628.734 247.285 Q630.887 244.762 630.887 240.595 L630.887 239.646 L626.65 239.646 M635.146 237.887 L635.146 252.678 L630.887 252.678 L630.887 248.743 Q629.428 251.104 627.252 252.239 Q625.076 253.35 621.928 253.35 Q617.947 253.35 615.586 251.127 Q613.248 248.882 613.248 245.132 Q613.248 240.757 616.164 238.535 Q619.104 236.313 624.914 236.313 L630.887 236.313 L630.887 235.896 Q630.887 232.956 628.942 231.359 Q627.021 229.739 623.525 229.739 Q621.303 229.739 619.197 230.271 Q617.09 230.803 615.146 231.868 L615.146 227.933 Q617.484 227.03 619.683 226.591 Q621.882 226.128 623.965 226.128 Q629.59 226.128 632.368 229.044 Q635.146 231.961 635.146 237.887 Z" fill="#000000" fill-rule="nonzero" fill-opacity="1" /><path clip-path="url(#clip740)" d="M662.53 239.739 Q662.53 235.04 660.585 232.378 Q658.664 229.692 655.285 229.692 Q651.905 229.692 649.961 232.378 Q648.039 235.04 648.039 239.739 Q648.039 244.438 649.961 247.123 Q651.905 249.785 655.285 249.785 Q658.664 249.785 660.585 247.123 Q662.53 244.438 662.53 239.739 M648.039 230.688 Q649.382 228.373 651.419 227.262 Q653.479 226.128 656.326 226.128 Q661.048 226.128 663.988 229.878 Q666.951 233.628 666.951 239.739 Q666.951 245.85 663.988 249.6 Q661.048 253.35 656.326 253.35 Q653.479 253.35 651.419 252.239 Q649.382 251.104 648.039 248.789 L648.039 252.678 L643.757 252.678 L643.757 216.66 L648.039 216.66 L648.039 230.688 Z" fill="#000000" fill-rule="nonzero" fill-opacity="1" /><path clip-path="url(#clip740)" d="M673.572 242.447 L673.572 226.753 L677.831 226.753 L677.831 242.285 Q677.831 245.965 679.266 247.817 Q680.701 249.646 683.571 249.646 Q687.021 249.646 689.011 247.447 Q691.025 245.248 691.025 241.452 L691.025 226.753 L695.284 226.753 L695.284 252.678 L691.025 252.678 L691.025 248.697 Q689.474 251.058 687.414 252.215 Q685.377 253.35 682.669 253.35 Q678.201 253.35 675.886 250.572 Q673.572 247.794 673.572 242.447 M684.289 226.128 L684.289 226.128 Z" fill="#000000" fill-rule="nonzero" fill-opacity="1" /><path clip-path="url(#clip740)" d="M725.608 237.03 L725.608 252.678 L721.349 252.678 L721.349 237.169 Q721.349 233.489 719.914 231.66 Q718.479 229.831 715.608 229.831 Q712.159 229.831 710.169 232.03 Q708.178 234.229 708.178 238.026 L708.178 252.678 L703.895 252.678 L703.895 226.753 L708.178 226.753 L708.178 230.78 Q709.706 228.442 711.766 227.285 Q713.849 226.128 716.557 226.128 Q721.025 226.128 723.317 228.905 Q725.608 231.66 725.608 237.03 Z" fill="#000000" fill-rule="nonzero" fill-opacity="1" /><path clip-path="url(#clip740)" d="M751.164 230.688 L751.164 216.66 L755.423 216.66 L755.423 252.678 L751.164 252.678 L751.164 248.789 Q749.821 251.104 747.761 252.239 Q745.724 253.35 742.854 253.35 Q738.154 253.35 735.192 249.6 Q732.252 245.85 732.252 239.739 Q732.252 233.628 735.192 229.878 Q738.154 226.128 742.854 226.128 Q745.724 226.128 747.761 227.262 Q749.821 228.373 751.164 230.688 M736.65 239.739 Q736.65 244.438 738.571 247.123 Q740.516 249.785 743.895 249.785 Q747.275 249.785 749.219 247.123 Q751.164 244.438 751.164 239.739 Q751.164 235.04 749.219 232.378 Q747.275 229.692 743.895 229.692 Q740.516 229.692 738.571 232.378 Q736.65 235.04 736.65 239.739 Z" fill="#000000" fill-rule="nonzero" fill-opacity="1" /><path clip-path="url(#clip740)" d="M775.978 239.646 Q770.816 239.646 768.826 240.827 Q766.835 242.007 766.835 244.854 Q766.835 247.123 768.316 248.465 Q769.821 249.785 772.39 249.785 Q775.932 249.785 778.062 247.285 Q780.214 244.762 780.214 240.595 L780.214 239.646 L775.978 239.646 M784.474 237.887 L784.474 252.678 L780.214 252.678 L780.214 248.743 Q778.756 251.104 776.58 252.239 Q774.404 253.35 771.256 253.35 Q767.275 253.35 764.914 251.127 Q762.576 248.882 762.576 245.132 Q762.576 240.757 765.492 238.535 Q768.432 236.313 774.242 236.313 L780.214 236.313 L780.214 235.896 Q780.214 232.956 778.27 231.359 Q776.349 229.739 772.853 229.739 Q770.631 229.739 768.525 230.271 Q766.418 230.803 764.474 231.868 L764.474 227.933 Q766.812 227.03 769.011 226.591 Q771.21 226.128 773.293 226.128 Q778.918 226.128 781.696 229.044 Q784.474 231.961 784.474 237.887 Z" fill="#000000" fill-rule="nonzero" fill-opacity="1" /><path clip-path="url(#clip740)" d="M814.798 237.03 L814.798 252.678 L810.538 252.678 L810.538 237.169 Q810.538 233.489 809.103 231.66 Q807.668 229.831 804.798 229.831 Q801.349 229.831 799.358 232.03 Q797.367 234.229 797.367 238.026 L797.367 252.678 L793.085 252.678 L793.085 226.753 L797.367 226.753 L797.367 230.78 Q798.895 228.442 800.955 227.285 Q803.038 226.128 805.747 226.128 Q810.214 226.128 812.506 228.905 Q814.798 231.66 814.798 237.03 Z" fill="#000000" fill-rule="nonzero" fill-opacity="1" /><path clip-path="url(#clip740)" d="M841.95 227.748 L841.95 231.729 Q840.145 230.734 838.316 230.248 Q836.51 229.739 834.659 229.739 Q830.515 229.739 828.223 232.378 Q825.932 234.993 825.932 239.739 Q825.932 244.484 828.223 247.123 Q830.515 249.739 834.659 249.739 Q836.51 249.739 838.316 249.252 Q840.145 248.743 841.95 247.748 L841.95 251.683 Q840.168 252.516 838.247 252.933 Q836.348 253.35 834.196 253.35 Q828.339 253.35 824.89 249.669 Q821.441 245.989 821.441 239.739 Q821.441 233.396 824.913 229.762 Q828.409 226.128 834.473 226.128 Q836.441 226.128 838.316 226.544 Q840.191 226.938 841.95 227.748 Z" fill="#000000" fill-rule="nonzero" fill-opacity="1" /><path clip-path="url(#clip740)" d="M871.533 238.651 L871.533 240.734 L851.95 240.734 Q852.228 245.132 854.589 247.447 Q856.973 249.739 861.209 249.739 Q863.663 249.739 865.955 249.137 Q868.27 248.535 870.538 247.331 L870.538 251.359 Q868.246 252.331 865.839 252.84 Q863.432 253.35 860.955 253.35 Q854.751 253.35 851.117 249.739 Q847.506 246.127 847.506 239.97 Q847.506 233.604 850.932 229.878 Q854.381 226.128 860.214 226.128 Q865.445 226.128 868.478 229.507 Q871.533 232.864 871.533 238.651 M867.274 237.401 Q867.228 233.905 865.307 231.822 Q863.408 229.739 860.26 229.739 Q856.696 229.739 854.543 231.753 Q852.413 233.766 852.089 237.424 L867.274 237.401 Z" fill="#000000" fill-rule="nonzero" fill-opacity="1" /><path clip-path="url(#clip740)" d="M910.654 230.688 L910.654 216.66 L914.913 216.66 L914.913 252.678 L910.654 252.678 L910.654 248.789 Q909.311 251.104 907.251 252.239 Q905.214 253.35 902.343 253.35 Q897.644 253.35 894.681 249.6 Q891.742 245.85 891.742 239.739 Q891.742 233.628 894.681 229.878 Q897.644 226.128 902.343 226.128 Q905.214 226.128 907.251 227.262 Q909.311 228.373 910.654 230.688 M896.14 239.739 Q896.14 244.438 898.061 247.123 Q900.005 249.785 903.385 249.785 Q906.765 249.785 908.709 247.123 Q910.654 244.438 910.654 239.739 Q910.654 235.04 908.709 232.378 Q906.765 229.692 903.385 229.692 Q900.005 229.692 898.061 232.378 Q896.14 235.04 896.14 239.739 Z" fill="#000000" fill-rule="nonzero" fill-opacity="1" /><path clip-path="url(#clip740)" d="M935.468 239.646 Q930.306 239.646 928.316 240.827 Q926.325 242.007 926.325 244.854 Q926.325 247.123 927.806 248.465 Q929.311 249.785 931.88 249.785 Q935.422 249.785 937.552 247.285 Q939.704 244.762 939.704 240.595 L939.704 239.646 L935.468 239.646 M943.964 237.887 L943.964 252.678 L939.704 252.678 L939.704 248.743 Q938.246 251.104 936.07 252.239 Q933.894 253.35 930.746 253.35 Q926.765 253.35 924.403 251.127 Q922.066 248.882 922.066 245.132 Q922.066 240.757 924.982 238.535 Q927.922 236.313 933.732 236.313 L939.704 236.313 L939.704 235.896 Q939.704 232.956 937.76 231.359 Q935.839 229.739 932.343 229.739 Q930.121 229.739 928.015 230.271 Q925.908 230.803 923.964 231.868 L923.964 227.933 Q926.302 227.03 928.501 226.591 Q930.7 226.128 932.783 226.128 Q938.408 226.128 941.186 229.044 Q943.964 231.961 943.964 237.887 Z" fill="#000000" fill-rule="nonzero" fill-opacity="1" /><path clip-path="url(#clip740)" d="M956.95 219.392 L956.95 226.753 L965.723 226.753 L965.723 230.063 L956.95 230.063 L956.95 244.137 Q956.95 247.308 957.806 248.211 Q958.686 249.114 961.348 249.114 L965.723 249.114 L965.723 252.678 L961.348 252.678 Q956.417 252.678 954.542 250.85 Q952.667 248.998 952.667 244.137 L952.667 230.063 L949.542 230.063 L949.542 226.753 L952.667 226.753 L952.667 219.392 L956.95 219.392 Z" fill="#000000" fill-rule="nonzero" fill-opacity="1" /><path clip-path="url(#clip740)" d="M983.107 239.646 Q977.945 239.646 975.954 240.827 Q973.963 242.007 973.963 244.854 Q973.963 247.123 975.445 248.465 Q976.95 249.785 979.519 249.785 Q983.061 249.785 985.19 247.285 Q987.343 244.762 987.343 240.595 L987.343 239.646 L983.107 239.646 M991.602 237.887 L991.602 252.678 L987.343 252.678 L987.343 248.743 Q985.885 251.104 983.709 252.239 Q981.533 253.35 978.385 253.35 Q974.403 253.35 972.042 251.127 Q969.704 248.882 969.704 245.132 Q969.704 240.757 972.621 238.535 Q975.561 236.313 981.371 236.313 L987.343 236.313 L987.343 235.896 Q987.343 232.956 985.399 231.359 Q983.477 229.739 979.982 229.739 Q977.76 229.739 975.653 230.271 Q973.547 230.803 971.602 231.868 L971.602 227.933 Q973.94 227.03 976.139 226.591 Q978.338 226.128 980.422 226.128 Q986.047 226.128 988.824 229.044 Q991.602 231.961 991.602 237.887 Z" fill="#000000" fill-rule="nonzero" fill-opacity="1" /><circle clip-path="url(#clip740)" cx="387.992" cy="287.238" r="20.48" fill="#e26f46" fill-rule="evenodd" fill-opacity="1" stroke="#000000" stroke-opacity="1" stroke-width="5.46133"/>
<path clip-path="url(#clip740)" d="M501.234 273.801 L501.234 286.787 L507.114 286.787 Q510.378 286.787 512.16 285.097 Q513.943 283.407 513.943 280.282 Q513.943 277.181 512.16 275.491 Q510.378 273.801 507.114 273.801 L501.234 273.801 M496.559 269.958 L507.114 269.958 Q512.924 269.958 515.887 272.597 Q518.873 275.213 518.873 280.282 Q518.873 285.398 515.887 288.014 Q512.924 290.63 507.114 290.63 L501.234 290.63 L501.234 304.518 L496.559 304.518 L496.559 269.958 Z" fill="#000000" fill-rule="nonzero" fill-opacity="1" /><path clip-path="url(#clip740)" d="M539.151 282.574 Q538.433 282.157 537.577 281.972 Q536.744 281.764 535.725 281.764 Q532.114 281.764 530.169 284.125 Q528.248 286.463 528.248 290.861 L528.248 304.518 L523.966 304.518 L523.966 278.593 L528.248 278.593 L528.248 282.62 Q529.591 280.259 531.744 279.125 Q533.896 277.968 536.975 277.968 Q537.415 277.968 537.947 278.037 Q538.48 278.083 539.128 278.199 L539.151 282.574 Z" fill="#000000" fill-rule="nonzero" fill-opacity="1" /><path clip-path="url(#clip740)" d="M564.753 290.491 L564.753 292.574 L545.169 292.574 Q545.447 296.972 547.808 299.287 Q550.193 301.579 554.429 301.579 Q556.882 301.579 559.174 300.977 Q561.489 300.375 563.757 299.171 L563.757 303.199 Q561.466 304.171 559.058 304.68 Q556.651 305.19 554.174 305.19 Q547.97 305.19 544.336 301.579 Q540.725 297.967 540.725 291.81 Q540.725 285.444 544.151 281.718 Q547.6 277.968 553.433 277.968 Q558.665 277.968 561.697 281.347 Q564.753 284.704 564.753 290.491 M560.493 289.241 Q560.447 285.745 558.526 283.662 Q556.628 281.579 553.48 281.579 Q549.915 281.579 547.762 283.593 Q545.632 285.606 545.308 289.264 L560.493 289.241 Z" fill="#000000" fill-rule="nonzero" fill-opacity="1" /><path clip-path="url(#clip740)" d="M588.803 282.528 L588.803 268.5 L593.063 268.5 L593.063 304.518 L588.803 304.518 L588.803 300.629 Q587.461 302.944 585.401 304.079 Q583.364 305.19 580.493 305.19 Q575.794 305.19 572.831 301.44 Q569.892 297.69 569.892 291.579 Q569.892 285.468 572.831 281.718 Q575.794 277.968 580.493 277.968 Q583.364 277.968 585.401 279.102 Q587.461 280.213 588.803 282.528 M574.29 291.579 Q574.29 296.278 576.211 298.963 Q578.155 301.625 581.535 301.625 Q584.915 301.625 586.859 298.963 Q588.803 296.278 588.803 291.579 Q588.803 286.88 586.859 284.218 Q584.915 281.532 581.535 281.532 Q578.155 281.532 576.211 284.218 Q574.29 286.88 574.29 291.579 Z" fill="#000000" fill-rule="nonzero" fill-opacity="1" /><path clip-path="url(#clip740)" d="M613.618 291.486 Q608.456 291.486 606.465 292.667 Q604.475 293.847 604.475 296.694 Q604.475 298.963 605.956 300.305 Q607.461 301.625 610.03 301.625 Q613.572 301.625 615.701 299.125 Q617.854 296.602 617.854 292.435 L617.854 291.486 L613.618 291.486 M622.113 289.727 L622.113 304.518 L617.854 304.518 L617.854 300.583 Q616.396 302.944 614.22 304.079 Q612.044 305.19 608.896 305.19 Q604.914 305.19 602.553 302.967 Q600.215 300.722 600.215 296.972 Q600.215 292.597 603.132 290.375 Q606.072 288.153 611.882 288.153 L617.854 288.153 L617.854 287.736 Q617.854 284.796 615.91 283.199 Q613.988 281.579 610.493 281.579 Q608.271 281.579 606.164 282.111 Q604.058 282.643 602.114 283.708 L602.114 279.773 Q604.452 278.87 606.651 278.431 Q608.85 277.968 610.933 277.968 Q616.558 277.968 619.336 280.884 Q622.113 283.801 622.113 289.727 Z" fill="#000000" fill-rule="nonzero" fill-opacity="1" /><path clip-path="url(#clip740)" d="M635.099 271.232 L635.099 278.593 L643.873 278.593 L643.873 281.903 L635.099 281.903 L635.099 295.977 Q635.099 299.148 635.956 300.051 Q636.836 300.954 639.498 300.954 L643.873 300.954 L643.873 304.518 L639.498 304.518 Q634.567 304.518 632.692 302.69 Q630.817 300.838 630.817 295.977 L630.817 281.903 L627.692 281.903 L627.692 278.593 L630.817 278.593 L630.817 271.232 L635.099 271.232 Z" fill="#000000" fill-rule="nonzero" fill-opacity="1" /><path clip-path="url(#clip740)" d="M659.521 281.579 Q656.095 281.579 654.104 284.264 Q652.113 286.926 652.113 291.579 Q652.113 296.231 654.081 298.917 Q656.072 301.579 659.521 301.579 Q662.923 301.579 664.914 298.893 Q666.905 296.208 666.905 291.579 Q666.905 286.972 664.914 284.287 Q662.923 281.579 659.521 281.579 M659.521 277.968 Q665.076 277.968 668.247 281.579 Q671.419 285.19 671.419 291.579 Q671.419 297.944 668.247 301.579 Q665.076 305.19 659.521 305.19 Q653.942 305.19 650.771 301.579 Q647.623 297.944 647.623 291.579 Q647.623 285.19 650.771 281.579 Q653.942 277.968 659.521 277.968 Z" fill="#000000" fill-rule="nonzero" fill-opacity="1" /><path clip-path="url(#clip740)" d="M693.502 282.574 Q692.784 282.157 691.928 281.972 Q691.095 281.764 690.076 281.764 Q686.465 281.764 684.521 284.125 Q682.599 286.463 682.599 290.861 L682.599 304.518 L678.317 304.518 L678.317 278.593 L682.599 278.593 L682.599 282.62 Q683.942 280.259 686.095 279.125 Q688.247 277.968 691.326 277.968 Q691.766 277.968 692.298 278.037 Q692.831 278.083 693.479 278.199 L693.502 282.574 Z" fill="#000000" fill-rule="nonzero" fill-opacity="1" /><path clip-path="url(#clip740)" d="M724.821 291.486 Q719.659 291.486 717.668 292.667 Q715.678 293.847 715.678 296.694 Q715.678 298.963 717.159 300.305 Q718.664 301.625 721.233 301.625 Q724.775 301.625 726.905 299.125 Q729.057 296.602 729.057 292.435 L729.057 291.486 L724.821 291.486 M733.317 289.727 L733.317 304.518 L729.057 304.518 L729.057 300.583 Q727.599 302.944 725.423 304.079 Q723.247 305.19 720.099 305.19 Q716.118 305.19 713.756 302.967 Q711.419 300.722 711.419 296.972 Q711.419 292.597 714.335 290.375 Q717.275 288.153 723.085 288.153 L729.057 288.153 L729.057 287.736 Q729.057 284.796 727.113 283.199 Q725.192 281.579 721.696 281.579 Q719.474 281.579 717.368 282.111 Q715.261 282.643 713.317 283.708 L713.317 279.773 Q715.655 278.87 717.854 278.431 Q720.053 277.968 722.136 277.968 Q727.761 277.968 730.539 280.884 Q733.317 283.801 733.317 289.727 Z" fill="#000000" fill-rule="nonzero" fill-opacity="1" /><path clip-path="url(#clip740)" d="M760.701 291.579 Q760.701 286.88 758.756 284.218 Q756.835 281.532 753.455 281.532 Q750.076 281.532 748.131 284.218 Q746.21 286.88 746.21 291.579 Q746.21 296.278 748.131 298.963 Q750.076 301.625 753.455 301.625 Q756.835 301.625 758.756 298.963 Q760.701 296.278 760.701 291.579 M746.21 282.528 Q747.553 280.213 749.59 279.102 Q751.65 277.968 754.497 277.968 Q759.219 277.968 762.159 281.718 Q765.122 285.468 765.122 291.579 Q765.122 297.69 762.159 301.44 Q759.219 305.19 754.497 305.19 Q751.65 305.19 749.59 304.079 Q747.553 302.944 746.21 300.629 L746.21 304.518 L741.928 304.518 L741.928 268.5 L746.21 268.5 L746.21 282.528 Z" fill="#000000" fill-rule="nonzero" fill-opacity="1" /><path clip-path="url(#clip740)" d="M771.742 294.287 L771.742 278.593 L776.002 278.593 L776.002 294.125 Q776.002 297.805 777.437 299.657 Q778.872 301.486 781.742 301.486 Q785.191 301.486 787.182 299.287 Q789.196 297.088 789.196 293.292 L789.196 278.593 L793.455 278.593 L793.455 304.518 L789.196 304.518 L789.196 300.537 Q787.645 302.898 785.585 304.055 Q783.548 305.19 780.839 305.19 Q776.372 305.19 774.057 302.412 Q771.742 299.634 771.742 294.287 M782.46 277.968 L782.46 277.968 Z" fill="#000000" fill-rule="nonzero" fill-opacity="1" /><path clip-path="url(#clip740)" d="M823.779 288.87 L823.779 304.518 L819.52 304.518 L819.52 289.009 Q819.52 285.329 818.085 283.5 Q816.649 281.671 813.779 281.671 Q810.33 281.671 808.339 283.87 Q806.349 286.069 806.349 289.866 L806.349 304.518 L802.066 304.518 L802.066 278.593 L806.349 278.593 L806.349 282.62 Q807.876 280.282 809.937 279.125 Q812.02 277.968 814.728 277.968 Q819.196 277.968 821.487 280.745 Q823.779 283.5 823.779 288.87 Z" fill="#000000" fill-rule="nonzero" fill-opacity="1" /><path clip-path="url(#clip740)" d="M849.334 282.528 L849.334 268.5 L853.594 268.5 L853.594 304.518 L849.334 304.518 L849.334 300.629 Q847.992 302.944 845.932 304.079 Q843.895 305.19 841.024 305.19 Q836.325 305.19 833.362 301.44 Q830.423 297.69 830.423 291.579 Q830.423 285.468 833.362 281.718 Q836.325 277.968 841.024 277.968 Q843.895 277.968 845.932 279.102 Q847.992 280.213 849.334 282.528 M834.821 291.579 Q834.821 296.278 836.742 298.963 Q838.686 301.625 842.066 301.625 Q845.446 301.625 847.39 298.963 Q849.334 296.278 849.334 291.579 Q849.334 286.88 847.39 284.218 Q845.446 281.532 842.066 281.532 Q838.686 281.532 836.742 284.218 Q834.821 286.88 834.821 291.579 Z" fill="#000000" fill-rule="nonzero" fill-opacity="1" /><path clip-path="url(#clip740)" d="M874.149 291.486 Q868.987 291.486 866.996 292.667 Q865.006 293.847 865.006 296.694 Q865.006 298.963 866.487 300.305 Q867.992 301.625 870.561 301.625 Q874.103 301.625 876.232 299.125 Q878.385 296.602 878.385 292.435 L878.385 291.486 L874.149 291.486 M882.644 289.727 L882.644 304.518 L878.385 304.518 L878.385 300.583 Q876.927 302.944 874.751 304.079 Q872.575 305.19 869.427 305.19 Q865.445 305.19 863.084 302.967 Q860.746 300.722 860.746 296.972 Q860.746 292.597 863.663 290.375 Q866.603 288.153 872.413 288.153 L878.385 288.153 L878.385 287.736 Q878.385 284.796 876.441 283.199 Q874.52 281.579 871.024 281.579 Q868.802 281.579 866.695 282.111 Q864.589 282.643 862.645 283.708 L862.645 279.773 Q864.983 278.87 867.182 278.431 Q869.381 277.968 871.464 277.968 Q877.089 277.968 879.867 280.884 Q882.644 283.801 882.644 289.727 Z" fill="#000000" fill-rule="nonzero" fill-opacity="1" /><path clip-path="url(#clip740)" d="M912.968 288.87 L912.968 304.518 L908.709 304.518 L908.709 289.009 Q908.709 285.329 907.274 283.5 Q905.839 281.671 902.968 281.671 Q899.519 281.671 897.529 283.87 Q895.538 286.069 895.538 289.866 L895.538 304.518 L891.256 304.518 L891.256 278.593 L895.538 278.593 L895.538 282.62 Q897.066 280.282 899.126 279.125 Q901.209 277.968 903.917 277.968 Q908.385 277.968 910.677 280.745 Q912.968 283.5 912.968 288.87 Z" fill="#000000" fill-rule="nonzero" fill-opacity="1" /><path clip-path="url(#clip740)" d="M940.121 279.588 L940.121 283.569 Q938.315 282.574 936.487 282.088 Q934.681 281.579 932.829 281.579 Q928.686 281.579 926.394 284.218 Q924.103 286.833 924.103 291.579 Q924.103 296.324 926.394 298.963 Q928.686 301.579 932.829 301.579 Q934.681 301.579 936.487 301.092 Q938.315 300.583 940.121 299.588 L940.121 303.523 Q938.339 304.356 936.417 304.773 Q934.519 305.19 932.366 305.19 Q926.51 305.19 923.061 301.509 Q919.612 297.829 919.612 291.579 Q919.612 285.236 923.084 281.602 Q926.579 277.968 932.644 277.968 Q934.612 277.968 936.487 278.384 Q938.362 278.778 940.121 279.588 Z" fill="#000000" fill-rule="nonzero" fill-opacity="1" /><path clip-path="url(#clip740)" d="M969.704 290.491 L969.704 292.574 L950.121 292.574 Q950.399 296.972 952.76 299.287 Q955.144 301.579 959.38 301.579 Q961.834 301.579 964.126 300.977 Q966.44 300.375 968.709 299.171 L968.709 303.199 Q966.417 304.171 964.01 304.68 Q961.602 305.19 959.126 305.19 Q952.922 305.19 949.288 301.579 Q945.677 297.967 945.677 291.81 Q945.677 285.444 949.102 281.718 Q952.551 277.968 958.385 277.968 Q963.616 277.968 966.649 281.347 Q969.704 284.704 969.704 290.491 M965.445 289.241 Q965.399 285.745 963.477 283.662 Q961.579 281.579 958.431 281.579 Q954.866 281.579 952.714 283.593 Q950.584 285.606 950.26 289.264 L965.445 289.241 Z" fill="#000000" fill-rule="nonzero" fill-opacity="1" /><path clip-path="url(#clip740)" d="M1008.82 282.528 L1008.82 268.5 L1013.08 268.5 L1013.08 304.518 L1008.82 304.518 L1008.82 300.629 Q1007.48 302.944 1005.42 304.079 Q1003.38 305.19 1000.51 305.19 Q995.815 305.19 992.852 301.44 Q989.912 297.69 989.912 291.579 Q989.912 285.468 992.852 281.718 Q995.815 277.968 1000.51 277.968 Q1003.38 277.968 1005.42 279.102 Q1007.48 280.213 1008.82 282.528 M994.311 291.579 Q994.311 296.278 996.232 298.963 Q998.176 301.625 1001.56 301.625 Q1004.94 301.625 1006.88 298.963 Q1008.82 296.278 1008.82 291.579 Q1008.82 286.88 1006.88 284.218 Q1004.94 281.532 1001.56 281.532 Q998.176 281.532 996.232 284.218 Q994.311 286.88 994.311 291.579 Z" fill="#000000" fill-rule="nonzero" fill-opacity="1" /><path clip-path="url(#clip740)" d="M1033.64 291.486 Q1028.48 291.486 1026.49 292.667 Q1024.5 293.847 1024.5 296.694 Q1024.5 298.963 1025.98 300.305 Q1027.48 301.625 1030.05 301.625 Q1033.59 301.625 1035.72 299.125 Q1037.88 296.602 1037.88 292.435 L1037.88 291.486 L1033.64 291.486 M1042.13 289.727 L1042.13 304.518 L1037.88 304.518 L1037.88 300.583 Q1036.42 302.944 1034.24 304.079 Q1032.06 305.19 1028.92 305.19 Q1024.94 305.19 1022.57 302.967 Q1020.24 300.722 1020.24 296.972 Q1020.24 292.597 1023.15 290.375 Q1026.09 288.153 1031.9 288.153 L1037.88 288.153 L1037.88 287.736 Q1037.88 284.796 1035.93 283.199 Q1034.01 281.579 1030.51 281.579 Q1028.29 281.579 1026.19 282.111 Q1024.08 282.643 1022.13 283.708 L1022.13 279.773 Q1024.47 278.87 1026.67 278.431 Q1028.87 277.968 1030.95 277.968 Q1036.58 277.968 1039.36 280.884 Q1042.13 283.801 1042.13 289.727 Z" fill="#000000" fill-rule="nonzero" fill-opacity="1" /><path clip-path="url(#clip740)" d="M1055.12 271.232 L1055.12 278.593 L1063.89 278.593 L1063.89 281.903 L1055.12 281.903 L1055.12 295.977 Q1055.12 299.148 1055.98 300.051 Q1056.86 300.954 1059.52 300.954 L1063.89 300.954 L1063.89 304.518 L1059.52 304.518 Q1054.59 304.518 1052.71 302.69 Q1050.84 300.838 1050.84 295.977 L1050.84 281.903 L1047.71 281.903 L1047.71 278.593 L1050.84 278.593 L1050.84 271.232 L1055.12 271.232 Z" fill="#000000" fill-rule="nonzero" fill-opacity="1" /><path clip-path="url(#clip740)" d="M1081.28 291.486 Q1076.12 291.486 1074.12 292.667 Q1072.13 293.847 1072.13 296.694 Q1072.13 298.963 1073.62 300.305 Q1075.12 301.625 1077.69 301.625 Q1081.23 301.625 1083.36 299.125 Q1085.51 296.602 1085.51 292.435 L1085.51 291.486 L1081.28 291.486 M1089.77 289.727 L1089.77 304.518 L1085.51 304.518 L1085.51 300.583 Q1084.06 302.944 1081.88 304.079 Q1079.7 305.19 1076.56 305.19 Q1072.57 305.19 1070.21 302.967 Q1067.87 300.722 1067.87 296.972 Q1067.87 292.597 1070.79 290.375 Q1073.73 288.153 1079.54 288.153 L1085.51 288.153 L1085.51 287.736 Q1085.51 284.796 1083.57 283.199 Q1081.65 281.579 1078.15 281.579 Q1075.93 281.579 1073.82 282.111 Q1071.72 282.643 1069.77 283.708 L1069.77 279.773 Q1072.11 278.87 1074.31 278.431 Q1076.51 277.968 1078.59 277.968 Q1084.22 277.968 1087 280.884 Q1089.77 283.801 1089.77 289.727 Z" fill="#000000" fill-rule="nonzero" fill-opacity="1" /><polyline clip-path="url(#clip740)" style="stroke:#009af9; stroke-linecap:round; stroke-linejoin:round; stroke-width:4; stroke-opacity:1; fill:none" points="306.566,339.078 469.417,339.078 "/>
<path clip-path="url(#clip740)" d="M496.559 321.798 L501.234 321.798 L501.234 356.358 L496.559 356.358 L496.559 321.798 Z" fill="#000000" fill-rule="nonzero" fill-opacity="1" /><path clip-path="url(#clip740)" d="M531.906 340.71 L531.906 356.358 L527.646 356.358 L527.646 340.849 Q527.646 337.169 526.211 335.34 Q524.776 333.511 521.906 333.511 Q518.457 333.511 516.466 335.71 Q514.475 337.909 514.475 341.706 L514.475 356.358 L510.193 356.358 L510.193 330.433 L514.475 330.433 L514.475 334.46 Q516.003 332.122 518.063 330.965 Q520.146 329.808 522.855 329.808 Q527.322 329.808 529.614 332.585 Q531.906 335.34 531.906 340.71 Z" fill="#000000" fill-rule="nonzero" fill-opacity="1" /><path clip-path="url(#clip740)" d="M553.526 320.34 L553.526 323.882 L549.452 323.882 Q547.16 323.882 546.257 324.808 Q545.378 325.734 545.378 328.141 L545.378 330.433 L552.392 330.433 L552.392 333.743 L545.378 333.743 L545.378 356.358 L541.095 356.358 L541.095 333.743 L537.021 333.743 L537.021 330.433 L541.095 330.433 L541.095 328.627 Q541.095 324.298 543.109 322.331 Q545.123 320.34 549.498 320.34 L553.526 320.34 Z" fill="#000000" fill-rule="nonzero" fill-opacity="1" /><path clip-path="url(#clip740)" d="M579.266 342.331 L579.266 344.414 L559.683 344.414 Q559.961 348.812 562.322 351.127 Q564.706 353.419 568.942 353.419 Q571.396 353.419 573.688 352.817 Q576.003 352.215 578.271 351.011 L578.271 355.039 Q575.979 356.011 573.572 356.52 Q571.165 357.03 568.688 357.03 Q562.484 357.03 558.85 353.419 Q555.239 349.807 555.239 343.65 Q555.239 337.284 558.665 333.558 Q562.114 329.808 567.947 329.808 Q573.179 329.808 576.211 333.187 Q579.266 336.544 579.266 342.331 M575.007 341.081 Q574.961 337.585 573.04 335.502 Q571.141 333.419 567.993 333.419 Q564.429 333.419 562.276 335.433 Q560.146 337.446 559.822 341.104 L575.007 341.081 Z" fill="#000000" fill-rule="nonzero" fill-opacity="1" /><path clip-path="url(#clip740)" d="M601.28 334.414 Q600.563 333.997 599.706 333.812 Q598.873 333.604 597.854 333.604 Q594.243 333.604 592.299 335.965 Q590.378 338.303 590.378 342.701 L590.378 356.358 L586.095 356.358 L586.095 330.433 L590.378 330.433 L590.378 334.46 Q591.72 332.099 593.873 330.965 Q596.026 329.808 599.104 329.808 Q599.544 329.808 600.077 329.877 Q600.609 329.923 601.257 330.039 L601.28 334.414 Z" fill="#000000" fill-rule="nonzero" fill-opacity="1" /><path clip-path="url(#clip740)" d="M619.938 334.414 Q619.22 333.997 618.363 333.812 Q617.53 333.604 616.512 333.604 Q612.901 333.604 610.956 335.965 Q609.035 338.303 609.035 342.701 L609.035 356.358 L604.752 356.358 L604.752 330.433 L609.035 330.433 L609.035 334.46 Q610.377 332.099 612.53 330.965 Q614.683 329.808 617.762 329.808 Q618.201 329.808 618.734 329.877 Q619.266 329.923 619.914 330.039 L619.938 334.414 Z" fill="#000000" fill-rule="nonzero" fill-opacity="1" /><path clip-path="url(#clip740)" d="M645.539 342.331 L645.539 344.414 L625.956 344.414 Q626.234 348.812 628.595 351.127 Q630.979 353.419 635.215 353.419 Q637.669 353.419 639.961 352.817 Q642.275 352.215 644.544 351.011 L644.544 355.039 Q642.252 356.011 639.845 356.52 Q637.437 357.03 634.961 357.03 Q628.757 357.03 625.123 353.419 Q621.512 349.807 621.512 343.65 Q621.512 337.284 624.938 333.558 Q628.387 329.808 634.22 329.808 Q639.451 329.808 642.484 333.187 Q645.539 336.544 645.539 342.331 M641.28 341.081 Q641.234 337.585 639.312 335.502 Q637.414 333.419 634.266 333.419 Q630.701 333.419 628.549 335.433 Q626.419 337.446 626.095 341.104 L641.28 341.081 Z" fill="#000000" fill-rule="nonzero" fill-opacity="1" /><path clip-path="url(#clip740)" d="M669.59 334.368 L669.59 320.34 L673.849 320.34 L673.849 356.358 L669.59 356.358 L669.59 352.469 Q668.247 354.784 666.187 355.919 Q664.15 357.03 661.28 357.03 Q656.581 357.03 653.618 353.28 Q650.678 349.53 650.678 343.419 Q650.678 337.308 653.618 333.558 Q656.581 329.808 661.28 329.808 Q664.15 329.808 666.187 330.942 Q668.247 332.053 669.59 334.368 M655.076 343.419 Q655.076 348.118 656.998 350.803 Q658.942 353.465 662.322 353.465 Q665.701 353.465 667.646 350.803 Q669.59 348.118 669.59 343.419 Q669.59 338.72 667.646 336.058 Q665.701 333.372 662.322 333.372 Q658.942 333.372 656.998 336.058 Q655.076 338.72 655.076 343.419 Z" fill="#000000" fill-rule="nonzero" fill-opacity="1" /><path clip-path="url(#clip740)" d="M701.812 352.469 L701.812 366.219 L697.53 366.219 L697.53 330.433 L701.812 330.433 L701.812 334.368 Q703.155 332.053 705.192 330.942 Q707.252 329.808 710.099 329.808 Q714.821 329.808 717.761 333.558 Q720.724 337.308 720.724 343.419 Q720.724 349.53 717.761 353.28 Q714.821 357.03 710.099 357.03 Q707.252 357.03 705.192 355.919 Q703.155 354.784 701.812 352.469 M716.303 343.419 Q716.303 338.72 714.358 336.058 Q712.437 333.372 709.057 333.372 Q705.678 333.372 703.733 336.058 Q701.812 338.72 701.812 343.419 Q701.812 348.118 703.733 350.803 Q705.678 353.465 709.057 353.465 Q712.437 353.465 714.358 350.803 Q716.303 348.118 716.303 343.419 Z" fill="#000000" fill-rule="nonzero" fill-opacity="1" /><path clip-path="url(#clip740)" d="M742.807 334.414 Q742.09 333.997 741.233 333.812 Q740.4 333.604 739.381 333.604 Q735.77 333.604 733.826 335.965 Q731.905 338.303 731.905 342.701 L731.905 356.358 L727.622 356.358 L727.622 330.433 L731.905 330.433 L731.905 334.46 Q733.247 332.099 735.4 330.965 Q737.553 329.808 740.631 329.808 Q741.071 329.808 741.604 329.877 Q742.136 329.923 742.784 330.039 L742.807 334.414 Z" fill="#000000" fill-rule="nonzero" fill-opacity="1" /><path clip-path="url(#clip740)" d="M768.409 342.331 L768.409 344.414 L748.826 344.414 Q749.104 348.812 751.465 351.127 Q753.849 353.419 758.085 353.419 Q760.539 353.419 762.83 352.817 Q765.145 352.215 767.414 351.011 L767.414 355.039 Q765.122 356.011 762.715 356.52 Q760.307 357.03 757.83 357.03 Q751.627 357.03 747.992 353.419 Q744.381 349.807 744.381 343.65 Q744.381 337.284 747.807 333.558 Q751.256 329.808 757.09 329.808 Q762.321 329.808 765.353 333.187 Q768.409 336.544 768.409 342.331 M764.15 341.081 Q764.103 337.585 762.182 335.502 Q760.284 333.419 757.136 333.419 Q753.571 333.419 751.418 335.433 Q749.289 337.446 748.965 341.104 L764.15 341.081 Z" fill="#000000" fill-rule="nonzero" fill-opacity="1" /><path clip-path="url(#clip740)" d="M786.187 358.766 Q784.381 363.395 782.668 364.807 Q780.955 366.219 778.085 366.219 L774.682 366.219 L774.682 362.655 L777.182 362.655 Q778.941 362.655 779.914 361.821 Q780.886 360.988 782.066 357.886 L782.83 355.942 L772.344 330.433 L776.858 330.433 L784.96 350.71 L793.062 330.433 L797.575 330.433 L786.187 358.766 Z" fill="#000000" fill-rule="nonzero" fill-opacity="1" /><path clip-path="url(#clip740)" d="M830.307 343.326 Q825.145 343.326 823.154 344.507 Q821.163 345.687 821.163 348.534 Q821.163 350.803 822.645 352.145 Q824.149 353.465 826.719 353.465 Q830.26 353.465 832.39 350.965 Q834.543 348.442 834.543 344.275 L834.543 343.326 L830.307 343.326 M838.802 341.567 L838.802 356.358 L834.543 356.358 L834.543 352.423 Q833.085 354.784 830.909 355.919 Q828.733 357.03 825.585 357.03 Q821.603 357.03 819.242 354.807 Q816.904 352.562 816.904 348.812 Q816.904 344.437 819.821 342.215 Q822.761 339.993 828.571 339.993 L834.543 339.993 L834.543 339.576 Q834.543 336.636 832.598 335.039 Q830.677 333.419 827.182 333.419 Q824.96 333.419 822.853 333.951 Q820.747 334.483 818.802 335.548 L818.802 331.613 Q821.14 330.71 823.339 330.271 Q825.538 329.808 827.622 329.808 Q833.247 329.808 836.024 332.724 Q838.802 335.641 838.802 341.567 Z" fill="#000000" fill-rule="nonzero" fill-opacity="1" /><path clip-path="url(#clip740)" d="M866.186 343.419 Q866.186 338.72 864.242 336.058 Q862.32 333.372 858.941 333.372 Q855.561 333.372 853.617 336.058 Q851.696 338.72 851.696 343.419 Q851.696 348.118 853.617 350.803 Q855.561 353.465 858.941 353.465 Q862.32 353.465 864.242 350.803 Q866.186 348.118 866.186 343.419 M851.696 334.368 Q853.038 332.053 855.075 330.942 Q857.135 329.808 859.983 329.808 Q864.705 329.808 867.645 333.558 Q870.607 337.308 870.607 343.419 Q870.607 349.53 867.645 353.28 Q864.705 357.03 859.983 357.03 Q857.135 357.03 855.075 355.919 Q853.038 354.784 851.696 352.469 L851.696 356.358 L847.413 356.358 L847.413 320.34 L851.696 320.34 L851.696 334.368 Z" fill="#000000" fill-rule="nonzero" fill-opacity="1" /><path clip-path="url(#clip740)" d="M877.228 346.127 L877.228 330.433 L881.487 330.433 L881.487 345.965 Q881.487 349.645 882.922 351.497 Q884.357 353.326 887.228 353.326 Q890.677 353.326 892.668 351.127 Q894.681 348.928 894.681 345.132 L894.681 330.433 L898.941 330.433 L898.941 356.358 L894.681 356.358 L894.681 352.377 Q893.131 354.738 891.07 355.895 Q889.033 357.03 886.325 357.03 Q881.857 357.03 879.543 354.252 Q877.228 351.474 877.228 346.127 M887.945 329.808 L887.945 329.808 Z" fill="#000000" fill-rule="nonzero" fill-opacity="1" /><path clip-path="url(#clip740)" d="M929.265 340.71 L929.265 356.358 L925.005 356.358 L925.005 340.849 Q925.005 337.169 923.57 335.34 Q922.135 333.511 919.265 333.511 Q915.816 333.511 913.825 335.71 Q911.834 337.909 911.834 341.706 L911.834 356.358 L907.552 356.358 L907.552 330.433 L911.834 330.433 L911.834 334.46 Q913.362 332.122 915.422 330.965 Q917.505 329.808 920.214 329.808 Q924.681 329.808 926.973 332.585 Q929.265 335.34 929.265 340.71 Z" fill="#000000" fill-rule="nonzero" fill-opacity="1" /><path clip-path="url(#clip740)" d="M954.82 334.368 L954.82 320.34 L959.079 320.34 L959.079 356.358 L954.82 356.358 L954.82 352.469 Q953.477 354.784 951.417 355.919 Q949.38 357.03 946.51 357.03 Q941.811 357.03 938.848 353.28 Q935.908 349.53 935.908 343.419 Q935.908 337.308 938.848 333.558 Q941.811 329.808 946.51 329.808 Q949.38 329.808 951.417 330.942 Q953.477 332.053 954.82 334.368 M940.306 343.419 Q940.306 348.118 942.227 350.803 Q944.172 353.465 947.552 353.465 Q950.931 353.465 952.876 350.803 Q954.82 348.118 954.82 343.419 Q954.82 338.72 952.876 336.058 Q950.931 333.372 947.552 333.372 Q944.172 333.372 942.227 336.058 Q940.306 338.72 940.306 343.419 Z" fill="#000000" fill-rule="nonzero" fill-opacity="1" /><path clip-path="url(#clip740)" d="M979.635 343.326 Q974.473 343.326 972.482 344.507 Q970.491 345.687 970.491 348.534 Q970.491 350.803 971.973 352.145 Q973.477 353.465 976.047 353.465 Q979.588 353.465 981.718 350.965 Q983.871 348.442 983.871 344.275 L983.871 343.326 L979.635 343.326 M988.13 341.567 L988.13 356.358 L983.871 356.358 L983.871 352.423 Q982.412 354.784 980.237 355.919 Q978.061 357.03 974.912 357.03 Q970.931 357.03 968.57 354.807 Q966.232 352.562 966.232 348.812 Q966.232 344.437 969.149 342.215 Q972.088 339.993 977.899 339.993 L983.871 339.993 L983.871 339.576 Q983.871 336.636 981.926 335.039 Q980.005 333.419 976.51 333.419 Q974.287 333.419 972.181 333.951 Q970.075 334.483 968.13 335.548 L968.13 331.613 Q970.468 330.71 972.667 330.271 Q974.866 329.808 976.95 329.808 Q982.574 329.808 985.352 332.724 Q988.13 335.641 988.13 341.567 Z" fill="#000000" fill-rule="nonzero" fill-opacity="1" /><path clip-path="url(#clip740)" d="M1018.45 340.71 L1018.45 356.358 L1014.19 356.358 L1014.19 340.849 Q1014.19 337.169 1012.76 335.34 Q1011.32 333.511 1008.45 333.511 Q1005 333.511 1003.01 335.71 Q1001.02 337.909 1001.02 341.706 L1001.02 356.358 L996.741 356.358 L996.741 330.433 L1001.02 330.433 L1001.02 334.46 Q1002.55 332.122 1004.61 330.965 Q1006.69 329.808 1009.4 329.808 Q1013.87 329.808 1016.16 332.585 Q1018.45 335.34 1018.45 340.71 Z" fill="#000000" fill-rule="nonzero" fill-opacity="1" /><path clip-path="url(#clip740)" d="M1045.61 331.428 L1045.61 335.409 Q1043.8 334.414 1041.97 333.928 Q1040.17 333.419 1038.31 333.419 Q1034.17 333.419 1031.88 336.058 Q1029.59 338.673 1029.59 343.419 Q1029.59 348.164 1031.88 350.803 Q1034.17 353.419 1038.31 353.419 Q1040.17 353.419 1041.97 352.932 Q1043.8 352.423 1045.61 351.428 L1045.61 355.363 Q1043.82 356.196 1041.9 356.613 Q1040 357.03 1037.85 357.03 Q1032 357.03 1028.55 353.349 Q1025.1 349.669 1025.1 343.419 Q1025.1 337.076 1028.57 333.442 Q1032.06 329.808 1038.13 329.808 Q1040.1 329.808 1041.97 330.224 Q1043.85 330.618 1045.61 331.428 Z" fill="#000000" fill-rule="nonzero" fill-opacity="1" /><path clip-path="url(#clip740)" d="M1075.19 342.331 L1075.19 344.414 L1055.61 344.414 Q1055.88 348.812 1058.25 351.127 Q1060.63 353.419 1064.87 353.419 Q1067.32 353.419 1069.61 352.817 Q1071.93 352.215 1074.19 351.011 L1074.19 355.039 Q1071.9 356.011 1069.5 356.52 Q1067.09 357.03 1064.61 357.03 Q1058.41 357.03 1054.77 353.419 Q1051.16 349.807 1051.16 343.65 Q1051.16 337.284 1054.59 333.558 Q1058.04 329.808 1063.87 329.808 Q1069.1 329.808 1072.13 333.187 Q1075.19 336.544 1075.19 342.331 M1070.93 341.081 Q1070.88 337.585 1068.96 335.502 Q1067.06 333.419 1063.92 333.419 Q1060.35 333.419 1058.2 335.433 Q1056.07 337.446 1055.75 341.104 L1070.93 341.081 Z" fill="#000000" fill-rule="nonzero" fill-opacity="1" /><polyline clip-path="url(#clip740)" style="stroke:#e26f46; stroke-linecap:round; stroke-linejoin:round; stroke-width:4; stroke-opacity:1; fill:none" points="306.566,390.918 469.417,390.918 "/>
<path clip-path="url(#clip740)" d="M496.559 373.638 L501.234 373.638 L501.234 408.198 L496.559 408.198 L496.559 373.638 Z" fill="#000000" fill-rule="nonzero" fill-opacity="1" /><path clip-path="url(#clip740)" d="M531.906 392.55 L531.906 408.198 L527.646 408.198 L527.646 392.689 Q527.646 389.009 526.211 387.18 Q524.776 385.351 521.906 385.351 Q518.457 385.351 516.466 387.55 Q514.475 389.749 514.475 393.546 L514.475 408.198 L510.193 408.198 L510.193 382.273 L514.475 382.273 L514.475 386.3 Q516.003 383.962 518.063 382.805 Q520.146 381.648 522.855 381.648 Q527.322 381.648 529.614 384.425 Q531.906 387.18 531.906 392.55 Z" fill="#000000" fill-rule="nonzero" fill-opacity="1" /><path clip-path="url(#clip740)" d="M553.526 372.18 L553.526 375.722 L549.452 375.722 Q547.16 375.722 546.257 376.648 Q545.378 377.574 545.378 379.981 L545.378 382.273 L552.392 382.273 L552.392 385.583 L545.378 385.583 L545.378 408.198 L541.095 408.198 L541.095 385.583 L537.021 385.583 L537.021 382.273 L541.095 382.273 L541.095 380.467 Q541.095 376.138 543.109 374.171 Q545.123 372.18 549.498 372.18 L553.526 372.18 Z" fill="#000000" fill-rule="nonzero" fill-opacity="1" /><path clip-path="url(#clip740)" d="M579.266 394.171 L579.266 396.254 L559.683 396.254 Q559.961 400.652 562.322 402.967 Q564.706 405.259 568.942 405.259 Q571.396 405.259 573.688 404.657 Q576.003 404.055 578.271 402.851 L578.271 406.879 Q575.979 407.851 573.572 408.36 Q571.165 408.87 568.688 408.87 Q562.484 408.87 558.85 405.259 Q555.239 401.647 555.239 395.49 Q555.239 389.124 558.665 385.398 Q562.114 381.648 567.947 381.648 Q573.179 381.648 576.211 385.027 Q579.266 388.384 579.266 394.171 M575.007 392.921 Q574.961 389.425 573.04 387.342 Q571.141 385.259 567.993 385.259 Q564.429 385.259 562.276 387.273 Q560.146 389.286 559.822 392.944 L575.007 392.921 Z" fill="#000000" fill-rule="nonzero" fill-opacity="1" /><path clip-path="url(#clip740)" d="M601.28 386.254 Q600.563 385.837 599.706 385.652 Q598.873 385.444 597.854 385.444 Q594.243 385.444 592.299 387.805 Q590.378 390.143 590.378 394.541 L590.378 408.198 L586.095 408.198 L586.095 382.273 L590.378 382.273 L590.378 386.3 Q591.72 383.939 593.873 382.805 Q596.026 381.648 599.104 381.648 Q599.544 381.648 600.077 381.717 Q600.609 381.763 601.257 381.879 L601.28 386.254 Z" fill="#000000" fill-rule="nonzero" fill-opacity="1" /><path clip-path="url(#clip740)" d="M619.938 386.254 Q619.22 385.837 618.363 385.652 Q617.53 385.444 616.512 385.444 Q612.901 385.444 610.956 387.805 Q609.035 390.143 609.035 394.541 L609.035 408.198 L604.752 408.198 L604.752 382.273 L609.035 382.273 L609.035 386.3 Q610.377 383.939 612.53 382.805 Q614.683 381.648 617.762 381.648 Q618.201 381.648 618.734 381.717 Q619.266 381.763 619.914 381.879 L619.938 386.254 Z" fill="#000000" fill-rule="nonzero" fill-opacity="1" /><path clip-path="url(#clip740)" d="M645.539 394.171 L645.539 396.254 L625.956 396.254 Q626.234 400.652 628.595 402.967 Q630.979 405.259 635.215 405.259 Q637.669 405.259 639.961 404.657 Q642.275 404.055 644.544 402.851 L644.544 406.879 Q642.252 407.851 639.845 408.36 Q637.437 408.87 634.961 408.87 Q628.757 408.87 625.123 405.259 Q621.512 401.647 621.512 395.49 Q621.512 389.124 624.938 385.398 Q628.387 381.648 634.22 381.648 Q639.451 381.648 642.484 385.027 Q645.539 388.384 645.539 394.171 M641.28 392.921 Q641.234 389.425 639.312 387.342 Q637.414 385.259 634.266 385.259 Q630.701 385.259 628.549 387.273 Q626.419 389.286 626.095 392.944 L641.28 392.921 Z" fill="#000000" fill-rule="nonzero" fill-opacity="1" /><path clip-path="url(#clip740)" d="M669.59 386.208 L669.59 372.18 L673.849 372.18 L673.849 408.198 L669.59 408.198 L669.59 404.309 Q668.247 406.624 666.187 407.759 Q664.15 408.87 661.28 408.87 Q656.581 408.87 653.618 405.12 Q650.678 401.37 650.678 395.259 Q650.678 389.148 653.618 385.398 Q656.581 381.648 661.28 381.648 Q664.15 381.648 666.187 382.782 Q668.247 383.893 669.59 386.208 M655.076 395.259 Q655.076 399.958 656.998 402.643 Q658.942 405.305 662.322 405.305 Q665.701 405.305 667.646 402.643 Q669.59 399.958 669.59 395.259 Q669.59 390.56 667.646 387.898 Q665.701 385.212 662.322 385.212 Q658.942 385.212 656.998 387.898 Q655.076 390.56 655.076 395.259 Z" fill="#000000" fill-rule="nonzero" fill-opacity="1" /><path clip-path="url(#clip740)" d="M701.812 404.309 L701.812 418.059 L697.53 418.059 L697.53 382.273 L701.812 382.273 L701.812 386.208 Q703.155 383.893 705.192 382.782 Q707.252 381.648 710.099 381.648 Q714.821 381.648 717.761 385.398 Q720.724 389.148 720.724 395.259 Q720.724 401.37 717.761 405.12 Q714.821 408.87 710.099 408.87 Q707.252 408.87 705.192 407.759 Q703.155 406.624 701.812 404.309 M716.303 395.259 Q716.303 390.56 714.358 387.898 Q712.437 385.212 709.057 385.212 Q705.678 385.212 703.733 387.898 Q701.812 390.56 701.812 395.259 Q701.812 399.958 703.733 402.643 Q705.678 405.305 709.057 405.305 Q712.437 405.305 714.358 402.643 Q716.303 399.958 716.303 395.259 Z" fill="#000000" fill-rule="nonzero" fill-opacity="1" /><path clip-path="url(#clip740)" d="M742.807 386.254 Q742.09 385.837 741.233 385.652 Q740.4 385.444 739.381 385.444 Q735.77 385.444 733.826 387.805 Q731.905 390.143 731.905 394.541 L731.905 408.198 L727.622 408.198 L727.622 382.273 L731.905 382.273 L731.905 386.3 Q733.247 383.939 735.4 382.805 Q737.553 381.648 740.631 381.648 Q741.071 381.648 741.604 381.717 Q742.136 381.763 742.784 381.879 L742.807 386.254 Z" fill="#000000" fill-rule="nonzero" fill-opacity="1" /><path clip-path="url(#clip740)" d="M768.409 394.171 L768.409 396.254 L748.826 396.254 Q749.104 400.652 751.465 402.967 Q753.849 405.259 758.085 405.259 Q760.539 405.259 762.83 404.657 Q765.145 404.055 767.414 402.851 L767.414 406.879 Q765.122 407.851 762.715 408.36 Q760.307 408.87 757.83 408.87 Q751.627 408.87 747.992 405.259 Q744.381 401.647 744.381 395.49 Q744.381 389.124 747.807 385.398 Q751.256 381.648 757.09 381.648 Q762.321 381.648 765.353 385.027 Q768.409 388.384 768.409 394.171 M764.15 392.921 Q764.103 389.425 762.182 387.342 Q760.284 385.259 757.136 385.259 Q753.571 385.259 751.418 387.273 Q749.289 389.286 748.965 392.944 L764.15 392.921 Z" fill="#000000" fill-rule="nonzero" fill-opacity="1" /><path clip-path="url(#clip740)" d="M792.46 386.208 L792.46 372.18 L796.719 372.18 L796.719 408.198 L792.46 408.198 L792.46 404.309 Q791.117 406.624 789.057 407.759 Q787.02 408.87 784.15 408.87 Q779.451 408.87 776.488 405.12 Q773.548 401.37 773.548 395.259 Q773.548 389.148 776.488 385.398 Q779.451 381.648 784.15 381.648 Q787.02 381.648 789.057 382.782 Q791.117 383.893 792.46 386.208 M777.946 395.259 Q777.946 399.958 779.867 402.643 Q781.812 405.305 785.191 405.305 Q788.571 405.305 790.515 402.643 Q792.46 399.958 792.46 395.259 Q792.46 390.56 790.515 387.898 Q788.571 385.212 785.191 385.212 Q781.812 385.212 779.867 387.898 Q777.946 390.56 777.946 395.259 Z" fill="#000000" fill-rule="nonzero" fill-opacity="1" /><path clip-path="url(#clip740)" d="M817.274 395.166 Q812.112 395.166 810.122 396.347 Q808.131 397.527 808.131 400.374 Q808.131 402.643 809.612 403.985 Q811.117 405.305 813.686 405.305 Q817.228 405.305 819.358 402.805 Q821.511 400.282 821.511 396.115 L821.511 395.166 L817.274 395.166 M825.77 393.407 L825.77 408.198 L821.511 408.198 L821.511 404.263 Q820.052 406.624 817.876 407.759 Q815.7 408.87 812.552 408.87 Q808.571 408.87 806.21 406.647 Q803.872 404.402 803.872 400.652 Q803.872 396.277 806.788 394.055 Q809.728 391.833 815.538 391.833 L821.511 391.833 L821.511 391.416 Q821.511 388.476 819.566 386.879 Q817.645 385.259 814.149 385.259 Q811.927 385.259 809.821 385.791 Q807.714 386.323 805.77 387.388 L805.77 383.453 Q808.108 382.55 810.307 382.111 Q812.506 381.648 814.589 381.648 Q820.214 381.648 822.992 384.564 Q825.77 387.481 825.77 393.407 Z" fill="#000000" fill-rule="nonzero" fill-opacity="1" /><path clip-path="url(#clip740)" d="M838.756 374.912 L838.756 382.273 L847.529 382.273 L847.529 385.583 L838.756 385.583 L838.756 399.657 Q838.756 402.828 839.612 403.731 Q840.492 404.634 843.154 404.634 L847.529 404.634 L847.529 408.198 L843.154 408.198 Q838.223 408.198 836.348 406.37 Q834.473 404.518 834.473 399.657 L834.473 385.583 L831.348 385.583 L831.348 382.273 L834.473 382.273 L834.473 374.912 L838.756 374.912 Z" fill="#000000" fill-rule="nonzero" fill-opacity="1" /><path clip-path="url(#clip740)" d="M863.177 385.259 Q859.751 385.259 857.76 387.944 Q855.77 390.606 855.77 395.259 Q855.77 399.911 857.737 402.597 Q859.728 405.259 863.177 405.259 Q866.58 405.259 868.57 402.573 Q870.561 399.888 870.561 395.259 Q870.561 390.652 868.57 387.967 Q866.58 385.259 863.177 385.259 M863.177 381.648 Q868.732 381.648 871.904 385.259 Q875.075 388.87 875.075 395.259 Q875.075 401.624 871.904 405.259 Q868.732 408.87 863.177 408.87 Q857.598 408.87 854.427 405.259 Q851.279 401.624 851.279 395.259 Q851.279 388.87 854.427 385.259 Q857.598 381.648 863.177 381.648 Z" fill="#000000" fill-rule="nonzero" fill-opacity="1" /><path clip-path="url(#clip740)" d="M897.158 386.254 Q896.441 385.837 895.584 385.652 Q894.751 385.444 893.732 385.444 Q890.121 385.444 888.177 387.805 Q886.256 390.143 886.256 394.541 L886.256 408.198 L881.973 408.198 L881.973 382.273 L886.256 382.273 L886.256 386.3 Q887.598 383.939 889.751 382.805 Q891.904 381.648 894.982 381.648 Q895.422 381.648 895.955 381.717 Q896.487 381.763 897.135 381.879 L897.158 386.254 Z" fill="#000000" fill-rule="nonzero" fill-opacity="1" /><path clip-path="url(#clip740)" d="M928.478 395.166 Q923.316 395.166 921.325 396.347 Q919.334 397.527 919.334 400.374 Q919.334 402.643 920.816 403.985 Q922.32 405.305 924.89 405.305 Q928.431 405.305 930.561 402.805 Q932.714 400.282 932.714 396.115 L932.714 395.166 L928.478 395.166 M936.973 393.407 L936.973 408.198 L932.714 408.198 L932.714 404.263 Q931.255 406.624 929.079 407.759 Q926.903 408.87 923.755 408.87 Q919.774 408.87 917.413 406.647 Q915.075 404.402 915.075 400.652 Q915.075 396.277 917.991 394.055 Q920.931 391.833 926.741 391.833 L932.714 391.833 L932.714 391.416 Q932.714 388.476 930.769 386.879 Q928.848 385.259 925.353 385.259 Q923.13 385.259 921.024 385.791 Q918.917 386.323 916.973 387.388 L916.973 383.453 Q919.311 382.55 921.51 382.111 Q923.709 381.648 925.792 381.648 Q931.417 381.648 934.195 384.564 Q936.973 387.481 936.973 393.407 Z" fill="#000000" fill-rule="nonzero" fill-opacity="1" /><path clip-path="url(#clip740)" d="M964.357 395.259 Q964.357 390.56 962.413 387.898 Q960.491 385.212 957.112 385.212 Q953.732 385.212 951.788 387.898 Q949.866 390.56 949.866 395.259 Q949.866 399.958 951.788 402.643 Q953.732 405.305 957.112 405.305 Q960.491 405.305 962.413 402.643 Q964.357 399.958 964.357 395.259 M949.866 386.208 Q951.209 383.893 953.246 382.782 Q955.306 381.648 958.153 381.648 Q962.876 381.648 965.815 385.398 Q968.778 389.148 968.778 395.259 Q968.778 401.37 965.815 405.12 Q962.876 408.87 958.153 408.87 Q955.306 408.87 953.246 407.759 Q951.209 406.624 949.866 404.309 L949.866 408.198 L945.584 408.198 L945.584 372.18 L949.866 372.18 L949.866 386.208 Z" fill="#000000" fill-rule="nonzero" fill-opacity="1" /><path clip-path="url(#clip740)" d="M975.399 397.967 L975.399 382.273 L979.658 382.273 L979.658 397.805 Q979.658 401.485 981.093 403.337 Q982.528 405.166 985.399 405.166 Q988.848 405.166 990.838 402.967 Q992.852 400.768 992.852 396.972 L992.852 382.273 L997.111 382.273 L997.111 408.198 L992.852 408.198 L992.852 404.217 Q991.301 406.578 989.241 407.735 Q987.204 408.87 984.496 408.87 Q980.028 408.87 977.713 406.092 Q975.399 403.314 975.399 397.967 M986.116 381.648 L986.116 381.648 Z" fill="#000000" fill-rule="nonzero" fill-opacity="1" /><path clip-path="url(#clip740)" d="M1027.44 392.55 L1027.44 408.198 L1023.18 408.198 L1023.18 392.689 Q1023.18 389.009 1021.74 387.18 Q1020.31 385.351 1017.44 385.351 Q1013.99 385.351 1012 387.55 Q1010 389.749 1010 393.546 L1010 408.198 L1005.72 408.198 L1005.72 382.273 L1010 382.273 L1010 386.3 Q1011.53 383.962 1013.59 382.805 Q1015.68 381.648 1018.38 381.648 Q1022.85 381.648 1025.14 384.425 Q1027.44 387.18 1027.44 392.55 Z" fill="#000000" fill-rule="nonzero" fill-opacity="1" /><path clip-path="url(#clip740)" d="M1052.99 386.208 L1052.99 372.18 L1057.25 372.18 L1057.25 408.198 L1052.99 408.198 L1052.99 404.309 Q1051.65 406.624 1049.59 407.759 Q1047.55 408.87 1044.68 408.87 Q1039.98 408.87 1037.02 405.12 Q1034.08 401.37 1034.08 395.259 Q1034.08 389.148 1037.02 385.398 Q1039.98 381.648 1044.68 381.648 Q1047.55 381.648 1049.59 382.782 Q1051.65 383.893 1052.99 386.208 M1038.48 395.259 Q1038.48 399.958 1040.4 402.643 Q1042.34 405.305 1045.72 405.305 Q1049.1 405.305 1051.05 402.643 Q1052.99 399.958 1052.99 395.259 Q1052.99 390.56 1051.05 387.898 Q1049.1 385.212 1045.72 385.212 Q1042.34 385.212 1040.4 387.898 Q1038.48 390.56 1038.48 395.259 Z" fill="#000000" fill-rule="nonzero" fill-opacity="1" /><path clip-path="url(#clip740)" d="M1077.81 395.166 Q1072.64 395.166 1070.65 396.347 Q1068.66 397.527 1068.66 400.374 Q1068.66 402.643 1070.14 403.985 Q1071.65 405.305 1074.22 405.305 Q1077.76 405.305 1079.89 402.805 Q1082.04 400.282 1082.04 396.115 L1082.04 395.166 L1077.81 395.166 M1086.3 393.407 L1086.3 408.198 L1082.04 408.198 L1082.04 404.263 Q1080.58 406.624 1078.41 407.759 Q1076.23 408.87 1073.08 408.87 Q1069.1 408.87 1066.74 406.647 Q1064.4 404.402 1064.4 400.652 Q1064.4 396.277 1067.32 394.055 Q1070.26 391.833 1076.07 391.833 L1082.04 391.833 L1082.04 391.416 Q1082.04 388.476 1080.1 386.879 Q1078.18 385.259 1074.68 385.259 Q1072.46 385.259 1070.35 385.791 Q1068.25 386.323 1066.3 387.388 L1066.3 383.453 Q1068.64 382.55 1070.84 382.111 Q1073.04 381.648 1075.12 381.648 Q1080.75 381.648 1083.52 384.564 Q1086.3 387.481 1086.3 393.407 Z" fill="#000000" fill-rule="nonzero" fill-opacity="1" /><path clip-path="url(#clip740)" d="M1116.62 392.55 L1116.62 408.198 L1112.37 408.198 L1112.37 392.689 Q1112.37 389.009 1110.93 387.18 Q1109.5 385.351 1106.62 385.351 Q1103.18 385.351 1101.18 387.55 Q1099.19 389.749 1099.19 393.546 L1099.19 408.198 L1094.91 408.198 L1094.91 382.273 L1099.19 382.273 L1099.19 386.3 Q1100.72 383.962 1102.78 382.805 Q1104.87 381.648 1107.57 381.648 Q1112.04 381.648 1114.33 384.425 Q1116.62 387.18 1116.62 392.55 Z" fill="#000000" fill-rule="nonzero" fill-opacity="1" /><path clip-path="url(#clip740)" d="M1143.78 383.268 L1143.78 387.249 Q1141.97 386.254 1140.14 385.768 Q1138.34 385.259 1136.49 385.259 Q1132.34 385.259 1130.05 387.898 Q1127.76 390.513 1127.76 395.259 Q1127.76 400.004 1130.05 402.643 Q1132.34 405.259 1136.49 405.259 Q1138.34 405.259 1140.14 404.772 Q1141.97 404.263 1143.78 403.268 L1143.78 407.203 Q1141.99 408.036 1140.07 408.453 Q1138.18 408.87 1136.02 408.87 Q1130.17 408.87 1126.72 405.189 Q1123.27 401.509 1123.27 395.259 Q1123.27 388.916 1126.74 385.282 Q1130.24 381.648 1136.3 381.648 Q1138.27 381.648 1140.14 382.064 Q1142.02 382.458 1143.78 383.268 Z" fill="#000000" fill-rule="nonzero" fill-opacity="1" /><path clip-path="url(#clip740)" d="M1173.36 394.171 L1173.36 396.254 L1153.78 396.254 Q1154.06 400.652 1156.42 402.967 Q1158.8 405.259 1163.04 405.259 Q1165.49 405.259 1167.78 404.657 Q1170.1 404.055 1172.37 402.851 L1172.37 406.879 Q1170.07 407.851 1167.67 408.36 Q1165.26 408.87 1162.78 408.87 Q1156.58 408.87 1152.94 405.259 Q1149.33 401.647 1149.33 395.49 Q1149.33 389.124 1152.76 385.398 Q1156.21 381.648 1162.04 381.648 Q1167.27 381.648 1170.3 385.027 Q1173.36 388.384 1173.36 394.171 M1169.1 392.921 Q1169.05 389.425 1167.13 387.342 Q1165.24 385.259 1162.09 385.259 Q1158.52 385.259 1156.37 387.273 Q1154.24 389.286 1153.92 392.944 L1169.1 392.921 Z" fill="#000000" fill-rule="nonzero" fill-opacity="1" /></svg>
