<?xml version="1.0" encoding="utf-8"?>
<svg xmlns="http://www.w3.org/2000/svg" xmlns:xlink="http://www.w3.org/1999/xlink" width="672" height="480" viewBox="0 0 2688 1920">
<defs>
  <clipPath id="clip420">
    <rect x="0" y="0" width="2688" height="1920"/>
  </clipPath>
</defs>
<path clip-path="url(#clip420)" d="M0 1920 L2688 1920 L2688 -4.26326e-14 L0 -4.26326e-14  Z" fill="#ffffff" fill-rule="evenodd" fill-opacity="1"/>
<defs>
  <clipPath id="clip421">
    <rect x="537" y="0" width="1883" height="1883"/>
  </clipPath>
</defs>
<path clip-path="url(#clip420)" d="M115.057 1734.12 L2640.76 1734.12 L2640.76 47.2441 L115.057 47.2441  Z" fill="#ffffff" fill-rule="evenodd" fill-opacity="1"/>
<defs>
  <clipPath id="clip422">
    <rect x="115" y="47" width="2527" height="1688"/>
  </clipPath>
</defs>
<polyline clip-path="url(#clip422)" style="stroke:#000000; stroke-linecap:round; stroke-linejoin:round; stroke-width:2; stroke-opacity:0.1; fill:none" points="115.057,1734.12 115.057,47.2441 "/>
<polyline clip-path="url(#clip422)" style="stroke:#000000; stroke-linecap:round; stroke-linejoin:round; stroke-width:2; stroke-opacity:0.1; fill:none" points="620.197,1734.12 620.197,47.2441 "/>
<polyline clip-path="url(#clip422)" style="stroke:#000000; stroke-linecap:round; stroke-linejoin:round; stroke-width:2; stroke-opacity:0.1; fill:none" points="1125.34,1734.12 1125.34,47.2441 "/>
<polyline clip-path="url(#clip422)" style="stroke:#000000; stroke-linecap:round; stroke-linejoin:round; stroke-width:2; stroke-opacity:0.1; fill:none" points="1630.48,1734.12 1630.48,47.2441 "/>
<polyline clip-path="url(#clip422)" style="stroke:#000000; stroke-linecap:round; stroke-linejoin:round; stroke-width:2; stroke-opacity:0.1; fill:none" points="2135.62,1734.12 2135.62,47.2441 "/>
<polyline clip-path="url(#clip422)" style="stroke:#000000; stroke-linecap:round; stroke-linejoin:round; stroke-width:2; stroke-opacity:0.1; fill:none" points="2640.76,1734.12 2640.76,47.2441 "/>
<polyline clip-path="url(#clip420)" style="stroke:#000000; stroke-linecap:round; stroke-linejoin:round; stroke-width:4; stroke-opacity:1; fill:none" points="115.057,1734.12 2640.76,1734.12 "/>
<polyline clip-path="url(#clip420)" style="stroke:#000000; stroke-linecap:round; stroke-linejoin:round; stroke-width:4; stroke-opacity:1; fill:none" points="115.057,1734.12 115.057,1715.22 "/>
<polyline clip-path="url(#clip420)" style="stroke:#000000; stroke-linecap:round; stroke-linejoin:round; stroke-width:4; stroke-opacity:1; fill:none" points="620.197,1734.12 620.197,1715.22 "/>
<polyline clip-path="url(#clip420)" style="stroke:#000000; stroke-linecap:round; stroke-linejoin:round; stroke-width:4; stroke-opacity:1; fill:none" points="1125.34,1734.12 1125.34,1715.22 "/>
<polyline clip-path="url(#clip420)" style="stroke:#000000; stroke-linecap:round; stroke-linejoin:round; stroke-width:4; stroke-opacity:1; fill:none" points="1630.48,1734.12 1630.48,1715.22 "/>
<polyline clip-path="url(#clip420)" style="stroke:#000000; stroke-linecap:round; stroke-linejoin:round; stroke-width:4; stroke-opacity:1; fill:none" points="2135.62,1734.12 2135.62,1715.22 "/>
<polyline clip-path="url(#clip420)" style="stroke:#000000; stroke-linecap:round; stroke-linejoin:round; stroke-width:4; stroke-opacity:1; fill:none" points="2640.76,1734.12 2640.76,1715.22 "/>
<path clip-path="url(#clip420)" d="M115.057 1767.34 Q111.446 1767.34 109.617 1770.9 Q107.812 1774.45 107.812 1781.58 Q107.812 1788.68 109.617 1792.25 Q111.446 1795.79 115.057 1795.79 Q118.691 1795.79 120.497 1792.25 Q122.326 1788.68 122.326 1781.58 Q122.326 1774.45 120.497 1770.9 Q118.691 1767.34 115.057 1767.34 M115.057 1763.64 Q120.867 1763.64 123.923 1768.24 Q127.002 1772.83 127.002 1781.58 Q127.002 1790.3 123.923 1794.91 Q120.867 1799.49 115.057 1799.49 Q109.247 1799.49 106.168 1794.91 Q103.113 1790.3 103.113 1781.58 Q103.113 1772.83 106.168 1768.24 Q109.247 1763.64 115.057 1763.64 Z" fill="#000000" fill-rule="nonzero" fill-opacity="1" /><path clip-path="url(#clip420)" d="M610.579 1794.89 L618.218 1794.89 L618.218 1768.52 L609.908 1770.19 L609.908 1765.93 L618.171 1764.26 L622.847 1764.26 L622.847 1794.89 L630.486 1794.89 L630.486 1798.82 L610.579 1798.82 L610.579 1794.89 Z" fill="#000000" fill-rule="nonzero" fill-opacity="1" /><path clip-path="url(#clip420)" d="M1119.99 1794.89 L1136.31 1794.89 L1136.31 1798.82 L1114.36 1798.82 L1114.36 1794.89 Q1117.03 1792.13 1121.61 1787.5 Q1126.22 1782.85 1127.4 1781.51 Q1129.64 1778.98 1130.52 1777.25 Q1131.42 1775.49 1131.42 1773.8 Q1131.42 1771.04 1129.48 1769.31 Q1127.56 1767.57 1124.46 1767.57 Q1122.26 1767.57 1119.8 1768.34 Q1117.37 1769.1 1114.6 1770.65 L1114.6 1765.93 Q1117.42 1764.79 1119.87 1764.21 Q1122.33 1763.64 1124.36 1763.64 Q1129.73 1763.64 1132.93 1766.32 Q1136.12 1769.01 1136.12 1773.5 Q1136.12 1775.63 1135.31 1777.55 Q1134.53 1779.45 1132.42 1782.04 Q1131.84 1782.71 1128.74 1785.93 Q1125.64 1789.12 1119.99 1794.89 Z" fill="#000000" fill-rule="nonzero" fill-opacity="1" /><path clip-path="url(#clip420)" d="M1634.72 1780.19 Q1638.08 1780.9 1639.96 1783.17 Q1641.85 1785.44 1641.85 1788.77 Q1641.85 1793.89 1638.34 1796.69 Q1634.82 1799.49 1628.34 1799.49 Q1626.16 1799.49 1623.84 1799.05 Q1621.55 1798.64 1619.1 1797.78 L1619.1 1793.27 Q1621.04 1794.4 1623.36 1794.98 Q1625.67 1795.56 1628.2 1795.56 Q1632.59 1795.56 1634.89 1793.82 Q1637.2 1792.08 1637.2 1788.77 Q1637.2 1785.72 1635.05 1784.01 Q1632.92 1782.27 1629.1 1782.27 L1625.07 1782.27 L1625.07 1778.43 L1629.28 1778.43 Q1632.73 1778.43 1634.56 1777.06 Q1636.39 1775.67 1636.39 1773.08 Q1636.39 1770.42 1634.49 1769.01 Q1632.62 1767.57 1629.1 1767.57 Q1627.18 1767.57 1624.98 1767.99 Q1622.78 1768.4 1620.14 1769.28 L1620.14 1765.12 Q1622.8 1764.38 1625.12 1764.01 Q1627.46 1763.64 1629.52 1763.64 Q1634.84 1763.64 1637.94 1766.07 Q1641.04 1768.47 1641.04 1772.59 Q1641.04 1775.46 1639.4 1777.46 Q1637.76 1779.42 1634.72 1780.19 Z" fill="#000000" fill-rule="nonzero" fill-opacity="1" /><path clip-path="url(#clip420)" d="M2138.63 1768.34 L2126.82 1786.78 L2138.63 1786.78 L2138.63 1768.34 M2137.4 1764.26 L2143.28 1764.26 L2143.28 1786.78 L2148.21 1786.78 L2148.21 1790.67 L2143.28 1790.67 L2143.28 1798.82 L2138.63 1798.82 L2138.63 1790.67 L2123.02 1790.67 L2123.02 1786.16 L2137.4 1764.26 Z" fill="#000000" fill-rule="nonzero" fill-opacity="1" /><path clip-path="url(#clip420)" d="M2631.03 1764.26 L2649.39 1764.26 L2649.39 1768.2 L2635.32 1768.2 L2635.32 1776.67 Q2636.33 1776.32 2637.35 1776.16 Q2638.37 1775.97 2639.39 1775.97 Q2645.18 1775.97 2648.56 1779.15 Q2651.94 1782.32 2651.94 1787.73 Q2651.94 1793.31 2648.46 1796.41 Q2644.99 1799.49 2638.67 1799.49 Q2636.5 1799.49 2634.23 1799.12 Q2631.98 1798.75 2629.58 1798.01 L2629.58 1793.31 Q2631.66 1794.45 2633.88 1795 Q2636.1 1795.56 2638.58 1795.56 Q2642.58 1795.56 2644.92 1793.45 Q2647.26 1791.34 2647.26 1787.73 Q2647.26 1784.12 2644.92 1782.02 Q2642.58 1779.91 2638.58 1779.91 Q2636.71 1779.91 2634.83 1780.33 Q2632.98 1780.74 2631.03 1781.62 L2631.03 1764.26 Z" fill="#000000" fill-rule="nonzero" fill-opacity="1" /><path clip-path="url(#clip420)" d="M1376.97 1837.53 L1376.97 1847.65 L1389.03 1847.65 L1389.03 1852.2 L1376.97 1852.2 L1376.97 1871.56 Q1376.97 1875.92 1378.15 1877.16 Q1379.35 1878.4 1383.02 1878.4 L1389.03 1878.4 L1389.03 1883.3 L1383.02 1883.3 Q1376.24 1883.3 1373.66 1880.79 Q1371.08 1878.24 1371.08 1871.56 L1371.08 1852.2 L1366.78 1852.2 L1366.78 1847.65 L1371.08 1847.65 L1371.08 1837.53 L1376.97 1837.53 Z" fill="#000000" fill-rule="nonzero" fill-opacity="1" /><polyline clip-path="url(#clip422)" style="stroke:#000000; stroke-linecap:round; stroke-linejoin:round; stroke-width:2; stroke-opacity:0.1; fill:none" points="115.057,1582.35 2640.76,1582.35 "/>
<polyline clip-path="url(#clip422)" style="stroke:#000000; stroke-linecap:round; stroke-linejoin:round; stroke-width:2; stroke-opacity:0.1; fill:none" points="115.057,1157.94 2640.76,1157.94 "/>
<polyline clip-path="url(#clip422)" style="stroke:#000000; stroke-linecap:round; stroke-linejoin:round; stroke-width:2; stroke-opacity:0.1; fill:none" points="115.057,733.53 2640.76,733.53 "/>
<polyline clip-path="url(#clip422)" style="stroke:#000000; stroke-linecap:round; stroke-linejoin:round; stroke-width:2; stroke-opacity:0.1; fill:none" points="115.057,309.122 2640.76,309.122 "/>
<polyline clip-path="url(#clip420)" style="stroke:#000000; stroke-linecap:round; stroke-linejoin:round; stroke-width:4; stroke-opacity:1; fill:none" points="115.057,1734.12 115.057,47.2441 "/>
<polyline clip-path="url(#clip420)" style="stroke:#000000; stroke-linecap:round; stroke-linejoin:round; stroke-width:4; stroke-opacity:1; fill:none" points="115.057,1582.35 133.955,1582.35 "/>
<polyline clip-path="url(#clip420)" style="stroke:#000000; stroke-linecap:round; stroke-linejoin:round; stroke-width:4; stroke-opacity:1; fill:none" points="115.057,1157.94 133.955,1157.94 "/>
<polyline clip-path="url(#clip420)" style="stroke:#000000; stroke-linecap:round; stroke-linejoin:round; stroke-width:4; stroke-opacity:1; fill:none" points="115.057,733.53 133.955,733.53 "/>
<polyline clip-path="url(#clip420)" style="stroke:#000000; stroke-linecap:round; stroke-linejoin:round; stroke-width:4; stroke-opacity:1; fill:none" points="115.057,309.122 133.955,309.122 "/>
<path clip-path="url(#clip420)" d="M54.8299 1595.69 L62.4687 1595.69 L62.4687 1569.33 L54.1586 1570.99 L54.1586 1566.73 L62.4224 1565.07 L67.0983 1565.07 L67.0983 1595.69 L74.7372 1595.69 L74.7372 1599.63 L54.8299 1599.63 L54.8299 1595.69 Z" fill="#000000" fill-rule="nonzero" fill-opacity="1" /><path clip-path="url(#clip420)" d="M58.4178 1171.28 L74.7372 1171.28 L74.7372 1175.22 L52.7928 1175.22 L52.7928 1171.28 Q55.4549 1168.53 60.0382 1163.9 Q64.6446 1159.25 65.8252 1157.9 Q68.0705 1155.38 68.9502 1153.64 Q69.8529 1151.88 69.8529 1150.19 Q69.8529 1147.44 67.9085 1145.7 Q65.9872 1143.97 62.8854 1143.97 Q60.6863 1143.97 58.2326 1144.73 Q55.8021 1145.5 53.0243 1147.05 L53.0243 1142.32 Q55.8484 1141.19 58.3021 1140.61 Q60.7558 1140.03 62.7928 1140.03 Q68.1631 1140.03 71.3576 1142.72 Q74.552 1145.4 74.552 1149.89 Q74.552 1152.02 73.7418 1153.94 Q72.9548 1155.84 70.8483 1158.44 Q70.2696 1159.11 67.1678 1162.32 Q64.0659 1165.52 58.4178 1171.28 Z" fill="#000000" fill-rule="nonzero" fill-opacity="1" /><path clip-path="url(#clip420)" d="M67.6076 732.176 Q70.964 732.893 72.839 735.162 Q74.7372 737.43 74.7372 740.764 Q74.7372 745.879 71.2187 748.68 Q67.7002 751.481 61.2187 751.481 Q59.0428 751.481 56.728 751.041 Q54.4364 750.625 51.9827 749.768 L51.9827 745.254 Q53.9271 746.389 56.2419 746.967 Q58.5567 747.546 61.0798 747.546 Q65.478 747.546 67.7696 745.81 Q70.0844 744.074 70.0844 740.764 Q70.0844 737.708 67.9317 735.995 Q65.802 734.259 61.9826 734.259 L57.9549 734.259 L57.9549 730.416 L62.1678 730.416 Q65.6169 730.416 67.4455 729.051 Q69.2742 727.662 69.2742 725.069 Q69.2742 722.407 67.3761 720.995 Q65.5011 719.56 61.9826 719.56 Q60.0613 719.56 57.8623 719.977 Q55.6632 720.393 53.0243 721.273 L53.0243 717.106 Q55.6864 716.366 58.0012 715.995 Q60.3391 715.625 62.3993 715.625 Q67.7233 715.625 70.8252 718.055 Q73.927 720.463 73.927 724.583 Q73.927 727.454 72.2835 729.444 Q70.64 731.412 67.6076 732.176 Z" fill="#000000" fill-rule="nonzero" fill-opacity="1" /><path clip-path="url(#clip420)" d="M65.1539 295.916 L53.3484 314.365 L65.1539 314.365 L65.1539 295.916 M63.927 291.842 L69.8066 291.842 L69.8066 314.365 L74.7372 314.365 L74.7372 318.254 L69.8066 318.254 L69.8066 326.402 L65.1539 326.402 L65.1539 318.254 L49.5521 318.254 L49.5521 313.74 L63.927 291.842 Z" fill="#000000" fill-rule="nonzero" fill-opacity="1" /><polyline clip-path="url(#clip422)" style="stroke:#009af9; stroke-linecap:round; stroke-linejoin:round; stroke-width:4; stroke-opacity:1; fill:none" points="115.057,1157.94 165.571,1191.26 216.085,1207.96 266.599,1210.09 317.113,1199.26 367.627,1176.61 418.141,1142.92 468.655,1098.72 519.169,1044.37 569.683,980.122 620.197,906.312 670.711,823.425 721.225,732.206 771.739,634.014 822.253,530.95 872.767,426.167 923.281,324.267 973.795,231.61 1024.31,156.031 1074.82,107.806 1125.34,96.6879 1175.85,128.965 1226.36,207.021 1276.88,324.606 1327.39,468.408 1377.91,621.585 1428.42,768.217 1478.93,897.495 1529.45,1003.41 1579.96,1084.88 1630.48,1143.92 1680.99,1183.03 1731.5,1204.73 1782.02,1211.31 1832.53,1204.45 1883.05,1185.44 1933.56,1155.2 1984.07,1114.31 2034.59,1063.16 2085.1,1002 2135.62,931.162 2186.13,851.076 2236.64,762.533 2287.16,666.363 2337.67,564.366 2388.19,459.54 2438.7,356.081 2489.21,259.457 2539.73,177.508 2590.24,119.516 2640.76,94.9858 "/>
<polyline clip-path="url(#clip422)" style="stroke:#e26f46; stroke-linecap:round; stroke-linejoin:round; stroke-width:4; stroke-opacity:1; fill:none" points="115.057,1157.94 165.571,1241.99 216.085,1321.74 266.599,1394.5 317.113,1458.97 367.627,1514.7 418.141,1561.81 468.655,1600.7 519.169,1631.86 569.683,1655.75 620.197,1672.73 670.711,1682.96 721.225,1686.38 771.739,1682.59 822.253,1670.87 872.767,1650.06 923.281,1618.57 973.795,1574.49 1024.31,1515.71 1074.82,1440.38 1125.34,1348.84 1175.85,1244.76 1226.36,1135.35 1276.88,1033.32 1327.39,952.552 1377.91,904.438 1428.42,893.729 1478.93,919.069 1529.45,974.312 1579.96,1048.31 1630.48,1130.96 1680.99,1215.63 1731.5,1297.15 1782.02,1372.4 1832.53,1439.7 1883.05,1498.22 1933.56,1547.9 1984.07,1589.31 2034.59,1622.9 2085.1,1649.09 2135.62,1668.27 2186.13,1680.65 2236.64,1686.23 2287.16,1684.78 2337.67,1675.73 2388.19,1658.04 2438.7,1630.23 2489.21,1590.46 2539.73,1536.52 2590.24,1466.6 2640.76,1380.31 "/>
<path clip-path="url(#clip420)" d="M199.247 258.993 L540.914 258.993 L540.914 103.473 L199.247 103.473  Z" fill="#ffffff" fill-rule="evenodd" fill-opacity="1"/>
<polyline clip-path="url(#clip420)" style="stroke:#000000; stroke-linecap:round; stroke-linejoin:round; stroke-width:4; stroke-opacity:1; fill:none" points="199.247,258.993 540.914,258.993 540.914,103.473 199.247,103.473 199.247,258.993 "/>
<polyline clip-path="url(#clip420)" style="stroke:#009af9; stroke-linecap:round; stroke-linejoin:round; stroke-width:4; stroke-opacity:1; fill:none" points="227.31,155.313 395.69,155.313 "/>
<path clip-path="url(#clip420)" d="M423.754 162.362 L423.754 146.667 L428.013 146.667 L428.013 162.2 Q428.013 165.88 429.448 167.732 Q430.883 169.561 433.754 169.561 Q437.203 169.561 439.193 167.362 Q441.207 165.163 441.207 161.366 L441.207 146.667 L445.467 146.667 L445.467 172.593 L441.207 172.593 L441.207 168.612 Q439.656 170.973 437.596 172.13 Q435.559 173.264 432.851 173.264 Q428.383 173.264 426.068 170.487 Q423.754 167.709 423.754 162.362 M434.471 146.042 L434.471 146.042 Z" fill="#000000" fill-rule="nonzero" fill-opacity="1" /><path clip-path="url(#clip420)" d="M453.846 136.575 L463.661 136.575 L463.661 139.885 L458.105 139.885 L458.105 175.533 L463.661 175.533 L463.661 178.843 L453.846 178.843 L453.846 136.575 Z" fill="#000000" fill-rule="nonzero" fill-opacity="1" /><path clip-path="url(#clip420)" d="M474.147 168.658 L481.786 168.658 L481.786 142.292 L473.476 143.959 L473.476 139.7 L481.739 138.033 L486.415 138.033 L486.415 168.658 L494.054 168.658 L494.054 172.593 L474.147 172.593 L474.147 168.658 Z" fill="#000000" fill-rule="nonzero" fill-opacity="1" /><path clip-path="url(#clip420)" d="M512.85 136.575 L512.85 178.843 L503.036 178.843 L503.036 175.533 L508.568 175.533 L508.568 139.885 L503.036 139.885 L503.036 136.575 L512.85 136.575 Z" fill="#000000" fill-rule="nonzero" fill-opacity="1" /><polyline clip-path="url(#clip420)" style="stroke:#e26f46; stroke-linecap:round; stroke-linejoin:round; stroke-width:4; stroke-opacity:1; fill:none" points="227.31,207.153 395.69,207.153 "/>
<path clip-path="url(#clip420)" d="M423.754 214.202 L423.754 198.507 L428.013 198.507 L428.013 214.04 Q428.013 217.72 429.448 219.572 Q430.883 221.401 433.754 221.401 Q437.203 221.401 439.193 219.202 Q441.207 217.003 441.207 213.206 L441.207 198.507 L445.467 198.507 L445.467 224.433 L441.207 224.433 L441.207 220.452 Q439.656 222.813 437.596 223.97 Q435.559 225.104 432.851 225.104 Q428.383 225.104 426.068 222.327 Q423.754 219.549 423.754 214.202 M434.471 197.882 L434.471 197.882 Z" fill="#000000" fill-rule="nonzero" fill-opacity="1" /><path clip-path="url(#clip420)" d="M453.846 188.415 L463.661 188.415 L463.661 191.725 L458.105 191.725 L458.105 227.373 L463.661 227.373 L463.661 230.683 L453.846 230.683 L453.846 188.415 Z" fill="#000000" fill-rule="nonzero" fill-opacity="1" /><path clip-path="url(#clip420)" d="M477.365 220.498 L493.684 220.498 L493.684 224.433 L471.74 224.433 L471.74 220.498 Q474.402 217.743 478.985 213.114 Q483.591 208.461 484.772 207.118 Q487.017 204.595 487.897 202.859 Q488.8 201.1 488.8 199.41 Q488.8 196.656 486.855 194.919 Q484.934 193.183 481.832 193.183 Q479.633 193.183 477.179 193.947 Q474.749 194.711 471.971 196.262 L471.971 191.54 Q474.795 190.406 477.249 189.827 Q479.702 189.248 481.739 189.248 Q487.11 189.248 490.304 191.933 Q493.499 194.619 493.499 199.109 Q493.499 201.239 492.689 203.16 Q491.901 205.058 489.795 207.651 Q489.216 208.322 486.114 211.54 Q483.013 214.734 477.365 220.498 Z" fill="#000000" fill-rule="nonzero" fill-opacity="1" /><path clip-path="url(#clip420)" d="M512.85 188.415 L512.85 230.683 L503.036 230.683 L503.036 227.373 L508.568 227.373 L508.568 191.725 L503.036 191.725 L503.036 188.415 L512.85 188.415 Z" fill="#000000" fill-rule="nonzero" fill-opacity="1" /></svg>
